%TF.GenerationSoftware,KiCad,Pcbnew,(6.0.9)*%
%TF.CreationDate,2022-11-25T10:22:41-05:00*%
%TF.ProjectId,strut_3,73747275-745f-4332-9e6b-696361645f70,rev?*%
%TF.SameCoordinates,Original*%
%TF.FileFunction,Legend,Bot*%
%TF.FilePolarity,Positive*%
%FSLAX46Y46*%
G04 Gerber Fmt 4.6, Leading zero omitted, Abs format (unit mm)*
G04 Created by KiCad (PCBNEW (6.0.9)) date 2022-11-25 10:22:41*
%MOMM*%
%LPD*%
G01*
G04 APERTURE LIST*
%ADD10C,0.150000*%
G04 APERTURE END LIST*
D10*
X78614312Y-4952379D02*
X78614312Y-5666665D01*
X78661931Y-5809522D01*
X78757169Y-5904760D01*
X78900026Y-5952379D01*
X78995265Y-5952379D01*
X77661931Y-5952379D02*
X78138122Y-5952379D01*
X78138122Y-4952379D01*
X76757169Y-5857141D02*
X76804788Y-5904760D01*
X76947645Y-5952379D01*
X77042884Y-5952379D01*
X77185741Y-5904760D01*
X77280979Y-5809522D01*
X77328598Y-5714284D01*
X77376217Y-5523808D01*
X77376217Y-5380951D01*
X77328598Y-5190475D01*
X77280979Y-5095237D01*
X77185741Y-4999999D01*
X77042884Y-4952379D01*
X76947645Y-4952379D01*
X76804788Y-4999999D01*
X76757169Y-5047618D01*
X76042884Y-4952379D02*
X76042884Y-5666665D01*
X76090503Y-5809522D01*
X76185741Y-5904760D01*
X76328598Y-5952379D01*
X76423836Y-5952379D01*
X75090503Y-5952379D02*
X75566693Y-5952379D01*
X75566693Y-4952379D01*
X74185741Y-5857141D02*
X74233360Y-5904760D01*
X74376217Y-5952379D01*
X74471455Y-5952379D01*
X74614312Y-5904760D01*
X74709550Y-5809522D01*
X74757169Y-5714284D01*
X74804788Y-5523808D01*
X74804788Y-5380951D01*
X74757169Y-5190475D01*
X74709550Y-5095237D01*
X74614312Y-4999999D01*
X74471455Y-4952379D01*
X74376217Y-4952379D01*
X74233360Y-4999999D01*
X74185741Y-5047618D01*
X73471455Y-4952379D02*
X73471455Y-5666665D01*
X73519074Y-5809522D01*
X73614312Y-5904760D01*
X73757169Y-5952379D01*
X73852407Y-5952379D01*
X72519074Y-5952379D02*
X72995265Y-5952379D01*
X72995265Y-4952379D01*
X71614312Y-5857141D02*
X71661931Y-5904760D01*
X71804788Y-5952379D01*
X71900026Y-5952379D01*
X72042884Y-5904760D01*
X72138122Y-5809522D01*
X72185741Y-5714284D01*
X72233360Y-5523808D01*
X72233360Y-5380951D01*
X72185741Y-5190475D01*
X72138122Y-5095237D01*
X72042884Y-4999999D01*
X71900026Y-4952379D01*
X71804788Y-4952379D01*
X71661931Y-4999999D01*
X71614312Y-5047618D01*
X70900026Y-4952379D02*
X70900026Y-5666665D01*
X70947645Y-5809522D01*
X71042884Y-5904760D01*
X71185741Y-5952379D01*
X71280979Y-5952379D01*
X69947645Y-5952379D02*
X70423836Y-5952379D01*
X70423836Y-4952379D01*
X69042884Y-5857141D02*
X69090503Y-5904760D01*
X69233360Y-5952379D01*
X69328598Y-5952379D01*
X69471455Y-5904760D01*
X69566693Y-5809522D01*
X69614312Y-5714284D01*
X69661931Y-5523808D01*
X69661931Y-5380951D01*
X69614312Y-5190475D01*
X69566693Y-5095237D01*
X69471455Y-4999999D01*
X69328598Y-4952379D01*
X69233360Y-4952379D01*
X69090503Y-4999999D01*
X69042884Y-5047618D01*
M02*
