%TF.GenerationSoftware,KiCad,Pcbnew,(6.0.9)*%
%TF.CreationDate,2022-11-25T11:26:23-05:00*%
%TF.ProjectId,hub,6875622e-6b69-4636-9164-5f7063625858,rev?*%
%TF.SameCoordinates,Original*%
%TF.FileFunction,Paste,Top*%
%TF.FilePolarity,Positive*%
%FSLAX46Y46*%
G04 Gerber Fmt 4.6, Leading zero omitted, Abs format (unit mm)*
G04 Created by KiCad (PCBNEW (6.0.9)) date 2022-11-25 11:26:23*
%MOMM*%
%LPD*%
G01*
G04 APERTURE LIST*
G04 Aperture macros list*
%AMRoundRect*
0 Rectangle with rounded corners*
0 $1 Rounding radius*
0 $2 $3 $4 $5 $6 $7 $8 $9 X,Y pos of 4 corners*
0 Add a 4 corners polygon primitive as box body*
4,1,4,$2,$3,$4,$5,$6,$7,$8,$9,$2,$3,0*
0 Add four circle primitives for the rounded corners*
1,1,$1+$1,$2,$3*
1,1,$1+$1,$4,$5*
1,1,$1+$1,$6,$7*
1,1,$1+$1,$8,$9*
0 Add four rect primitives between the rounded corners*
20,1,$1+$1,$2,$3,$4,$5,0*
20,1,$1+$1,$4,$5,$6,$7,0*
20,1,$1+$1,$6,$7,$8,$9,0*
20,1,$1+$1,$8,$9,$2,$3,0*%
%AMFreePoly0*
4,1,70,1.303903,1.801227,1.324681,1.799051,1.332639,1.791890,1.342819,1.788583,1.355096,1.771685,1.370625,1.757713,1.372854,1.747243,1.379146,1.738583,1.379146,1.717694,1.383496,1.697264,1.332247,1.364875,1.248971,1.039032,1.134453,0.722813,0.989775,0.419206,0.816305,0.131079,0.615681,-0.138845,0.389799,-0.388015,0.140793,-0.614079,-0.128985,-0.814900,-0.416985,-0.988580,
-0.720487,-1.133478,-1.036623,-1.248226,-1.362405,-1.331740,-1.694757,-1.383230,-1.714006,-1.379146,-1.738583,-1.379146,-1.748720,-1.371781,-1.755215,-1.370403,-1.763932,-1.360729,-1.788583,-1.342819,-1.793384,-1.328043,-1.796586,-1.324489,-1.797570,-1.315159,-1.807681,-1.284040,-1.807681,-0.377294,-1.803751,-0.365199,-1.804494,-0.360058,-1.798197,-0.348103,-1.788583,-0.318515,-1.778907,-0.311485,
-1.775690,-0.305378,-1.759582,-0.297445,-1.738583,-0.282188,-1.728604,-0.282188,-1.720245,-0.278071,-1.709434,-0.279934,-1.449368,-0.226712,-1.187350,-0.140277,-0.937186,-0.023902,-0.702286,0.120828,-0.485848,0.291941,-0.290822,0.487106,-0.119863,0.703666,0.024699,0.938669,0.140896,1.188915,0.227145,1.450995,0.280182,1.711100,0.278311,1.721909,0.282188,1.729795,0.282188,1.738583,
0.295550,1.756974,0.305578,1.777372,0.313349,1.781473,0.318515,1.788583,0.340135,1.795607,0.360238,1.806216,0.368937,1.804966,0.377294,1.807681,1.284040,1.807681,1.303903,1.801227,1.303903,1.801227,$1*%
%AMFreePoly1*
4,1,64,-0.365195,1.803750,-0.360058,1.804492,-0.348113,1.798200,-0.318515,1.788583,-0.311483,1.778904,-0.305378,1.775688,-0.297448,1.759587,-0.282188,1.738583,-0.282188,1.728602,-0.278071,1.720243,-0.279934,1.709432,-0.226712,1.449367,-0.140277,1.187348,-0.023902,0.937185,0.120828,0.702285,0.291941,0.485847,0.487107,0.290821,0.703666,0.119862,0.938669,-0.024700,1.188915,-0.140897,
1.450995,-0.227145,1.711100,-0.280182,1.721909,-0.278311,1.729795,-0.282188,1.738583,-0.282188,1.756974,-0.295550,1.777372,-0.305578,1.781473,-0.313349,1.788583,-0.318515,1.795607,-0.340135,1.806216,-0.360238,1.804966,-0.368937,1.807681,-0.377294,1.807681,-1.284040,1.801227,-1.303903,1.799051,-1.324681,1.791890,-1.332639,1.788583,-1.342819,1.771685,-1.355096,1.757713,-1.370625,
1.747243,-1.372854,1.738583,-1.379146,1.717694,-1.379146,1.697264,-1.383496,1.365298,-1.332334,1.039856,-1.249225,0.724006,-1.134952,0.420724,-0.990592,0.132870,-0.817505,-0.136846,-0.617323,-0.385881,-0.391932,-0.611887,-0.143455,-0.812736,0.125764,-0.986534,0.413190,-1.131644,0.716114,-1.246697,1.031680,-1.330611,1.356915,-1.382594,1.688754,-1.379146,1.705146,-1.379146,1.738583,
-1.342819,1.788583,-1.284040,1.807681,-0.377294,1.807681,-0.365195,1.803750,-0.365195,1.803750,$1*%
%AMFreePoly2*
4,1,70,1.714010,1.379146,1.738583,1.379146,1.748719,1.371782,1.755214,1.370404,1.763931,1.360729,1.788583,1.342819,1.793384,1.328042,1.796585,1.324490,1.797569,1.315163,1.807681,1.284040,1.807681,0.377294,1.803750,0.365195,1.804492,0.360058,1.798200,0.348113,1.788583,0.318515,1.778904,0.311483,1.775688,0.305378,1.759587,0.297448,1.738583,0.282188,1.728602,0.282188,
1.720243,0.278071,1.709432,0.279934,1.449367,0.226712,1.187348,0.140277,0.937185,0.023902,0.702285,-0.120828,0.485847,-0.291941,0.290821,-0.487107,0.119862,-0.703666,-0.024700,-0.938669,-0.140897,-1.188915,-0.227145,-1.450995,-0.280182,-1.711100,-0.278311,-1.721909,-0.282188,-1.729795,-0.282188,-1.738583,-0.295550,-1.756974,-0.305578,-1.777372,-0.313349,-1.781473,-0.318515,-1.788583,
-0.340135,-1.795607,-0.360238,-1.806216,-0.368937,-1.804966,-0.377294,-1.807681,-1.284040,-1.807681,-1.303903,-1.801227,-1.324681,-1.799051,-1.332639,-1.791890,-1.342819,-1.788583,-1.355096,-1.771685,-1.370625,-1.757713,-1.372854,-1.747243,-1.379146,-1.738583,-1.379146,-1.717694,-1.383496,-1.697264,-1.332248,-1.364875,-1.248972,-1.039032,-1.134454,-0.722813,-0.989776,-0.419205,-0.816306,-0.131079,
-0.615682,0.138845,-0.389800,0.388016,-0.140794,0.614080,0.128984,0.814901,0.416984,0.988581,0.720486,1.133479,1.036621,1.248227,1.362404,1.331741,1.694756,1.383231,1.714010,1.379146,1.714010,1.379146,$1*%
%AMFreePoly3*
4,1,71,-1.697261,1.383494,-1.364875,1.332247,-1.039032,1.248971,-0.722813,1.134453,-0.419206,0.989775,-0.131079,0.816305,0.138845,0.615681,0.388015,0.389799,0.614079,0.140793,0.814900,-0.128985,0.988580,-0.416985,1.133478,-0.720487,1.248226,-1.036623,1.331740,-1.362405,1.383230,-1.694757,1.379146,-1.714006,1.379146,-1.738583,1.371781,-1.748720,1.370403,-1.755215,1.360729,-1.763932,
1.342819,-1.788583,1.328043,-1.793384,1.324489,-1.796586,1.315159,-1.797570,1.284040,-1.807681,0.377294,-1.807681,0.365199,-1.803751,0.360058,-1.804494,0.348103,-1.798197,0.318515,-1.788583,0.311485,-1.778907,0.305378,-1.775690,0.297445,-1.759582,0.282188,-1.738583,0.282188,-1.728604,0.278071,-1.720245,0.279934,-1.709434,0.226712,-1.449368,0.140277,-1.187350,0.023902,-0.937186,
-0.120828,-0.702286,-0.291941,-0.485848,-0.487106,-0.290822,-0.703666,-0.119863,-0.938669,0.024699,-1.188915,0.140896,-1.450995,0.227145,-1.711100,0.280182,-1.721909,0.278311,-1.729795,0.282188,-1.738583,0.282188,-1.756974,0.295550,-1.777372,0.305578,-1.781473,0.313349,-1.788583,0.318515,-1.795607,0.340135,-1.806216,0.360238,-1.804966,0.368937,-1.807681,0.377294,-1.807681,1.284040,
-1.801227,1.303903,-1.799051,1.324681,-1.791890,1.332639,-1.788583,1.342819,-1.771685,1.355096,-1.757713,1.370625,-1.747243,1.372854,-1.738583,1.379146,-1.717694,1.379146,-1.697264,1.383496,-1.697261,1.383494,-1.697261,1.383494,$1*%
G04 Aperture macros list end*
%ADD10FreePoly0,0.000000*%
%ADD11FreePoly1,0.000000*%
%ADD12FreePoly2,0.000000*%
%ADD13FreePoly3,0.000000*%
%ADD14FreePoly2,120.000000*%
%ADD15FreePoly1,120.000000*%
%ADD16FreePoly3,120.000000*%
%ADD17FreePoly0,120.000000*%
%ADD18RoundRect,0.225000X-0.250000X0.225000X-0.250000X-0.225000X0.250000X-0.225000X0.250000X0.225000X0*%
%ADD19FreePoly1,30.000000*%
%ADD20FreePoly0,30.000000*%
%ADD21FreePoly2,30.000000*%
%ADD22FreePoly3,30.000000*%
%ADD23FreePoly2,270.000000*%
%ADD24FreePoly3,270.000000*%
%ADD25FreePoly1,270.000000*%
%ADD26FreePoly0,270.000000*%
%ADD27RoundRect,0.250000X-0.475000X0.250000X-0.475000X-0.250000X0.475000X-0.250000X0.475000X0.250000X0*%
%ADD28FreePoly0,45.000000*%
%ADD29FreePoly3,45.000000*%
%ADD30FreePoly1,45.000000*%
%ADD31FreePoly2,45.000000*%
%ADD32R,2.000000X1.500000*%
%ADD33R,2.000000X3.800000*%
%ADD34FreePoly3,90.000000*%
%ADD35FreePoly0,90.000000*%
%ADD36FreePoly2,90.000000*%
%ADD37FreePoly1,90.000000*%
%ADD38FreePoly2,150.000000*%
%ADD39FreePoly0,150.000000*%
%ADD40FreePoly3,150.000000*%
%ADD41FreePoly1,150.000000*%
%ADD42FreePoly3,225.000000*%
%ADD43FreePoly0,225.000000*%
%ADD44FreePoly2,225.000000*%
%ADD45FreePoly1,225.000000*%
%ADD46FreePoly2,255.000000*%
%ADD47FreePoly0,255.000000*%
%ADD48FreePoly1,255.000000*%
%ADD49FreePoly3,255.000000*%
%ADD50FreePoly3,240.000000*%
%ADD51FreePoly1,240.000000*%
%ADD52FreePoly0,240.000000*%
%ADD53FreePoly2,240.000000*%
%ADD54FreePoly1,165.000000*%
%ADD55FreePoly3,165.000000*%
%ADD56FreePoly0,165.000000*%
%ADD57FreePoly2,165.000000*%
%ADD58RoundRect,0.200000X0.275000X-0.200000X0.275000X0.200000X-0.275000X0.200000X-0.275000X-0.200000X0*%
%ADD59FreePoly0,15.000000*%
%ADD60FreePoly2,15.000000*%
%ADD61FreePoly1,15.000000*%
%ADD62FreePoly3,15.000000*%
%ADD63FreePoly3,345.000000*%
%ADD64FreePoly2,345.000000*%
%ADD65FreePoly0,345.000000*%
%ADD66FreePoly1,345.000000*%
%ADD67FreePoly2,105.000000*%
%ADD68FreePoly1,105.000000*%
%ADD69FreePoly0,105.000000*%
%ADD70FreePoly3,105.000000*%
%ADD71FreePoly1,75.000000*%
%ADD72FreePoly0,75.000000*%
%ADD73FreePoly2,75.000000*%
%ADD74FreePoly3,75.000000*%
%ADD75FreePoly1,330.000000*%
%ADD76FreePoly3,330.000000*%
%ADD77FreePoly0,330.000000*%
%ADD78FreePoly2,330.000000*%
%ADD79RoundRect,0.250000X0.250000X0.475000X-0.250000X0.475000X-0.250000X-0.475000X0.250000X-0.475000X0*%
%ADD80FreePoly0,210.000000*%
%ADD81FreePoly2,210.000000*%
%ADD82FreePoly3,210.000000*%
%ADD83FreePoly1,210.000000*%
%ADD84FreePoly2,60.000000*%
%ADD85FreePoly1,60.000000*%
%ADD86FreePoly3,60.000000*%
%ADD87FreePoly0,60.000000*%
%ADD88FreePoly0,285.000000*%
%ADD89FreePoly2,285.000000*%
%ADD90FreePoly1,285.000000*%
%ADD91FreePoly3,285.000000*%
%ADD92R,1.000000X3.150000*%
%ADD93RoundRect,0.200000X-0.275000X0.200000X-0.275000X-0.200000X0.275000X-0.200000X0.275000X0.200000X0*%
%ADD94FreePoly1,315.000000*%
%ADD95FreePoly0,315.000000*%
%ADD96FreePoly3,315.000000*%
%ADD97FreePoly2,315.000000*%
%ADD98FreePoly0,195.000000*%
%ADD99FreePoly2,195.000000*%
%ADD100FreePoly1,195.000000*%
%ADD101FreePoly3,195.000000*%
%ADD102FreePoly0,135.000000*%
%ADD103FreePoly3,135.000000*%
%ADD104FreePoly1,135.000000*%
%ADD105FreePoly2,135.000000*%
%ADD106FreePoly1,300.000000*%
%ADD107FreePoly2,300.000000*%
%ADD108FreePoly0,300.000000*%
%ADD109FreePoly3,300.000000*%
%ADD110FreePoly0,180.000000*%
%ADD111FreePoly2,180.000000*%
%ADD112FreePoly1,180.000000*%
%ADD113FreePoly3,180.000000*%
G04 APERTURE END LIST*
D10*
%TO.C,H7*%
X-43942319Y-2057681D03*
D11*
X-48057681Y-2057681D03*
D12*
X-48057681Y2057681D03*
D13*
X-43942319Y2057681D03*
%TD*%
D14*
%TO.C,H15*%
X22246836Y-42648014D03*
D15*
X25810845Y-40590333D03*
D16*
X20189155Y-39084005D03*
D17*
X23753164Y-37026324D03*
%TD*%
D18*
%TO.C,C1*%
X-21700000Y28550000D03*
X-21700000Y27000000D03*
%TD*%
D19*
%TO.C,H9*%
X-40590333Y-25810845D03*
D20*
X-37026324Y-23753164D03*
D21*
X-42648014Y-22246836D03*
D22*
X-39084005Y-20189155D03*
%TD*%
D23*
%TO.C,H1*%
X2057681Y48057681D03*
D24*
X2057681Y43942319D03*
D25*
X-2057681Y48057681D03*
D26*
X-2057681Y43942319D03*
%TD*%
D27*
%TO.C,C5*%
X-21500000Y-10050000D03*
X-21500000Y-11950000D03*
%TD*%
D28*
%TO.C,H10*%
X-29616912Y-32526912D03*
D29*
X-32526912Y-29616912D03*
D30*
X-32526912Y-35436912D03*
D31*
X-35436912Y-32526912D03*
%TD*%
D32*
%TO.C,U1*%
X-23850000Y-12300000D03*
D33*
X-30150000Y-10000000D03*
D32*
X-23850000Y-10000000D03*
X-23850000Y-7700000D03*
%TD*%
D34*
%TO.C,H13*%
X-2057681Y-43942319D03*
D35*
X2057681Y-43942319D03*
D36*
X-2057681Y-48057681D03*
D37*
X2057681Y-48057681D03*
%TD*%
D38*
%TO.C,H17*%
X40590333Y-25810845D03*
D39*
X39084005Y-20189155D03*
D40*
X37026324Y-23753164D03*
D41*
X42648014Y-22246836D03*
%TD*%
D42*
%TO.C,H22*%
X32526912Y29616912D03*
D43*
X29616912Y32526912D03*
D44*
X35436912Y32526912D03*
D45*
X32526912Y35436912D03*
%TD*%
D46*
%TO.C,H24*%
X14425810Y45887588D03*
D47*
X9385542Y42977588D03*
D48*
X10450676Y46952722D03*
D49*
X13360676Y41912454D03*
%TD*%
D27*
%TO.C,C4*%
X-19500000Y-10050000D03*
X-19500000Y-11950000D03*
%TD*%
D50*
%TO.C,H23*%
X23753164Y37026324D03*
D51*
X22246836Y42648014D03*
D52*
X20189155Y39084005D03*
D53*
X25810845Y40590333D03*
%TD*%
D54*
%TO.C,H18*%
X46952722Y-10450676D03*
D55*
X41912454Y-13360676D03*
D56*
X42977588Y-9385542D03*
D57*
X45887588Y-14425810D03*
%TD*%
D58*
%TO.C,R1*%
X-9200000Y23900000D03*
X-9200000Y25550000D03*
%TD*%
D59*
%TO.C,H8*%
X-41912454Y-13360676D03*
D60*
X-46952722Y-10450676D03*
D61*
X-45887588Y-14425810D03*
D62*
X-42977588Y-9385542D03*
%TD*%
D63*
%TO.C,H6*%
X-41912454Y13360676D03*
D64*
X-45887588Y14425810D03*
D65*
X-42977588Y9385542D03*
D66*
X-46952722Y10450676D03*
%TD*%
D67*
%TO.C,H14*%
X10450676Y-46952722D03*
D68*
X14425810Y-45887588D03*
D69*
X13360676Y-41912454D03*
D70*
X9385542Y-42977588D03*
%TD*%
D71*
%TO.C,H12*%
X-10450676Y-46952722D03*
D72*
X-9385542Y-42977588D03*
D73*
X-14425810Y-45887588D03*
D74*
X-13360676Y-41912454D03*
%TD*%
D75*
%TO.C,H5*%
X-42648014Y22246836D03*
D76*
X-37026324Y23753164D03*
D77*
X-39084005Y20189155D03*
D78*
X-40590333Y25810845D03*
%TD*%
D79*
%TO.C,C2*%
X-24950000Y-4700000D03*
X-26850000Y-4700000D03*
%TD*%
D80*
%TO.C,H21*%
X37026324Y23753164D03*
D81*
X42648014Y22246836D03*
D82*
X39084005Y20189155D03*
D83*
X40590333Y25810845D03*
%TD*%
D84*
%TO.C,H11*%
X-25810845Y-40590333D03*
D85*
X-22246836Y-42648014D03*
D86*
X-23753164Y-37026324D03*
D87*
X-20189155Y-39084005D03*
%TD*%
D88*
%TO.C,H2*%
X-13360676Y41912454D03*
D89*
X-10450676Y46952722D03*
D90*
X-14425810Y45887588D03*
D91*
X-9385542Y42977588D03*
%TD*%
D79*
%TO.C,C3*%
X-24950000Y-2700000D03*
X-26850000Y-2700000D03*
%TD*%
D92*
%TO.C,J29*%
X-23010000Y5475000D03*
X-23010000Y10525000D03*
X-20470000Y5475000D03*
X-20470000Y10525000D03*
X-17930000Y5475000D03*
X-17930000Y10525000D03*
X-15390000Y5475000D03*
X-15390000Y10525000D03*
%TD*%
D93*
%TO.C,R2*%
X-9200000Y22450000D03*
X-9200000Y20800000D03*
%TD*%
D94*
%TO.C,H4*%
X-35436912Y32526912D03*
D95*
X-32526912Y29616912D03*
D96*
X-29616912Y32526912D03*
D97*
X-32526912Y35436912D03*
%TD*%
D98*
%TO.C,H20*%
X41912454Y13360676D03*
D99*
X46952722Y10450676D03*
D100*
X45887588Y14425810D03*
D101*
X42977588Y9385542D03*
%TD*%
D102*
%TO.C,H16*%
X32526912Y-29616912D03*
D103*
X29616912Y-32526912D03*
D104*
X35436912Y-32526912D03*
D105*
X32526912Y-35436912D03*
%TD*%
D106*
%TO.C,H3*%
X-25810845Y40590333D03*
D107*
X-22246836Y42648014D03*
D108*
X-23753164Y37026324D03*
D109*
X-20189155Y39084005D03*
%TD*%
D110*
%TO.C,H19*%
X43942319Y2057681D03*
D111*
X48057681Y-2057681D03*
D112*
X48057681Y2057681D03*
D113*
X43942319Y-2057681D03*
%TD*%
M02*
