%TF.GenerationSoftware,KiCad,Pcbnew,(6.0.9)*%
%TF.CreationDate,2022-11-25T11:26:23-05:00*%
%TF.ProjectId,hub,6875622e-6b69-4636-9164-5f7063625858,rev?*%
%TF.SameCoordinates,Original*%
%TF.FileFunction,Legend,Bot*%
%TF.FilePolarity,Positive*%
%FSLAX46Y46*%
G04 Gerber Fmt 4.6, Leading zero omitted, Abs format (unit mm)*
G04 Created by KiCad (PCBNEW (6.0.9)) date 2022-11-25 11:26:23*
%MOMM*%
%LPD*%
G01*
G04 APERTURE LIST*
%ADD10C,0.250000*%
%ADD11C,0.150000*%
%ADD12C,0.120000*%
%ADD13C,0.100000*%
%ADD14C,0.300000*%
G04 APERTURE END LIST*
D10*
X11035714Y34728928D02*
X11035714Y36228928D01*
X10464285Y36228928D01*
X10321428Y36157500D01*
X10250000Y36086071D01*
X10178571Y35943214D01*
X10178571Y35728928D01*
X10250000Y35586071D01*
X10321428Y35514642D01*
X10464285Y35443214D01*
X11035714Y35443214D01*
X9535714Y34728928D02*
X9535714Y36228928D01*
X8892857Y34728928D02*
X8892857Y35514642D01*
X8964285Y35657500D01*
X9107142Y35728928D01*
X9321428Y35728928D01*
X9464285Y35657500D01*
X9535714Y35586071D01*
X7535714Y34728928D02*
X7535714Y35514642D01*
X7607142Y35657500D01*
X7750000Y35728928D01*
X8035714Y35728928D01*
X8178571Y35657500D01*
X7535714Y34800357D02*
X7678571Y34728928D01*
X8035714Y34728928D01*
X8178571Y34800357D01*
X8250000Y34943214D01*
X8250000Y35086071D01*
X8178571Y35228928D01*
X8035714Y35300357D01*
X7678571Y35300357D01*
X7535714Y35371785D01*
X6892857Y34800357D02*
X6750000Y34728928D01*
X6464285Y34728928D01*
X6321428Y34800357D01*
X6250000Y34943214D01*
X6250000Y35014642D01*
X6321428Y35157500D01*
X6464285Y35228928D01*
X6678571Y35228928D01*
X6821428Y35300357D01*
X6892857Y35443214D01*
X6892857Y35514642D01*
X6821428Y35657500D01*
X6678571Y35728928D01*
X6464285Y35728928D01*
X6321428Y35657500D01*
X5035714Y34800357D02*
X5178571Y34728928D01*
X5464285Y34728928D01*
X5607142Y34800357D01*
X5678571Y34943214D01*
X5678571Y35514642D01*
X5607142Y35657500D01*
X5464285Y35728928D01*
X5178571Y35728928D01*
X5035714Y35657500D01*
X4964285Y35514642D01*
X4964285Y35371785D01*
X5678571Y35228928D01*
X3250000Y35157500D02*
X2535714Y35157500D01*
X3392857Y34728928D02*
X2892857Y36228928D01*
X2392857Y34728928D01*
X1892857Y34728928D02*
X1892857Y35728928D01*
X1892857Y35443214D02*
X1821428Y35586071D01*
X1750000Y35657500D01*
X1607142Y35728928D01*
X1464285Y35728928D01*
X964285Y34728928D02*
X964285Y35728928D01*
X964285Y35443214D02*
X892857Y35586071D01*
X821428Y35657500D01*
X678571Y35728928D01*
X535714Y35728928D01*
X-607142Y34728928D02*
X-607142Y35514642D01*
X-535714Y35657500D01*
X-392857Y35728928D01*
X-107142Y35728928D01*
X35714Y35657500D01*
X-607142Y34800357D02*
X-464285Y34728928D01*
X-107142Y34728928D01*
X35714Y34800357D01*
X107142Y34943214D01*
X107142Y35086071D01*
X35714Y35228928D01*
X-107142Y35300357D01*
X-464285Y35300357D01*
X-607142Y35371785D01*
X-1178571Y35728928D02*
X-1535714Y34728928D01*
X-1892857Y35728928D02*
X-1535714Y34728928D01*
X-1392857Y34371785D01*
X-1321428Y34300357D01*
X-1178571Y34228928D01*
X-3607142Y34728928D02*
X-3607142Y36228928D01*
X-3607142Y35514642D02*
X-4464285Y35514642D01*
X-4464285Y34728928D02*
X-4464285Y36228928D01*
X-5821428Y35728928D02*
X-5821428Y34728928D01*
X-5178571Y35728928D02*
X-5178571Y34943214D01*
X-5249999Y34800357D01*
X-5392857Y34728928D01*
X-5607142Y34728928D01*
X-5749999Y34800357D01*
X-5821428Y34871785D01*
X-6535714Y34728928D02*
X-6535714Y36228928D01*
X-6535714Y35657500D02*
X-6678571Y35728928D01*
X-6964285Y35728928D01*
X-7107142Y35657500D01*
X-7178571Y35586071D01*
X-7249999Y35443214D01*
X-7249999Y35014642D01*
X-7178571Y34871785D01*
X-7107142Y34800357D01*
X-6964285Y34728928D01*
X-6678571Y34728928D01*
X-6535714Y34800357D01*
X-8821428Y36228928D02*
X-9321428Y34728928D01*
X-9821428Y36228928D01*
X-11107142Y34728928D02*
X-10249999Y34728928D01*
X-10678571Y34728928D02*
X-10678571Y36228928D01*
X-10535714Y36014642D01*
X-10392857Y35871785D01*
X-10249999Y35800357D01*
X8107142Y33099642D02*
X7892857Y33028214D01*
X7821428Y32956785D01*
X7750000Y32813928D01*
X7750000Y32599642D01*
X7821428Y32456785D01*
X7892857Y32385357D01*
X8035714Y32313928D01*
X8607142Y32313928D01*
X8607142Y33813928D01*
X8107142Y33813928D01*
X7964285Y33742500D01*
X7892857Y33671071D01*
X7821428Y33528214D01*
X7821428Y33385357D01*
X7892857Y33242500D01*
X7964285Y33171071D01*
X8107142Y33099642D01*
X8607142Y33099642D01*
X6535714Y32385357D02*
X6678571Y32313928D01*
X6964285Y32313928D01*
X7107142Y32385357D01*
X7178571Y32528214D01*
X7178571Y33099642D01*
X7107142Y33242500D01*
X6964285Y33313928D01*
X6678571Y33313928D01*
X6535714Y33242500D01*
X6464285Y33099642D01*
X6464285Y32956785D01*
X7178571Y32813928D01*
X5821428Y33313928D02*
X5821428Y32313928D01*
X5821428Y33171071D02*
X5750000Y33242500D01*
X5607142Y33313928D01*
X5392857Y33313928D01*
X5250000Y33242500D01*
X5178571Y33099642D01*
X5178571Y32313928D01*
X3464285Y33813928D02*
X3107142Y32313928D01*
X2821428Y33385357D01*
X2535714Y32313928D01*
X2178571Y33813928D01*
X964285Y32313928D02*
X964285Y33099642D01*
X1035714Y33242500D01*
X1178571Y33313928D01*
X1464285Y33313928D01*
X1607142Y33242500D01*
X964285Y32385357D02*
X1107142Y32313928D01*
X1464285Y32313928D01*
X1607142Y32385357D01*
X1678571Y32528214D01*
X1678571Y32671071D01*
X1607142Y32813928D01*
X1464285Y32885357D01*
X1107142Y32885357D01*
X964285Y32956785D01*
X250000Y33313928D02*
X250000Y32313928D01*
X250000Y33171071D02*
X178571Y33242500D01*
X35714Y33313928D01*
X-178571Y33313928D01*
X-321428Y33242500D01*
X-392857Y33099642D01*
X-392857Y32313928D01*
X-1749999Y33313928D02*
X-1749999Y32099642D01*
X-1678571Y31956785D01*
X-1607142Y31885357D01*
X-1464285Y31813928D01*
X-1249999Y31813928D01*
X-1107142Y31885357D01*
X-1749999Y32385357D02*
X-1607142Y32313928D01*
X-1321428Y32313928D01*
X-1178571Y32385357D01*
X-1107142Y32456785D01*
X-1035714Y32599642D01*
X-1035714Y33028214D01*
X-1107142Y33171071D01*
X-1178571Y33242500D01*
X-1321428Y33313928D01*
X-1607142Y33313928D01*
X-1749999Y33242500D01*
X-3535714Y33671071D02*
X-3607142Y33742500D01*
X-3749999Y33813928D01*
X-4107142Y33813928D01*
X-4249999Y33742500D01*
X-4321428Y33671071D01*
X-4392857Y33528214D01*
X-4392857Y33385357D01*
X-4321428Y33171071D01*
X-3464285Y32313928D01*
X-4392857Y32313928D01*
X-5321428Y33813928D02*
X-5464285Y33813928D01*
X-5607142Y33742500D01*
X-5678571Y33671071D01*
X-5749999Y33528214D01*
X-5821428Y33242500D01*
X-5821428Y32885357D01*
X-5749999Y32599642D01*
X-5678571Y32456785D01*
X-5607142Y32385357D01*
X-5464285Y32313928D01*
X-5321428Y32313928D01*
X-5178571Y32385357D01*
X-5107142Y32456785D01*
X-5035714Y32599642D01*
X-4964285Y32885357D01*
X-4964285Y33242500D01*
X-5035714Y33528214D01*
X-5107142Y33671071D01*
X-5178571Y33742500D01*
X-5321428Y33813928D01*
X-6392857Y33671071D02*
X-6464285Y33742500D01*
X-6607142Y33813928D01*
X-6964285Y33813928D01*
X-7107142Y33742500D01*
X-7178571Y33671071D01*
X-7249999Y33528214D01*
X-7249999Y33385357D01*
X-7178571Y33171071D01*
X-6321428Y32313928D01*
X-7249999Y32313928D01*
X-7821428Y33671071D02*
X-7892857Y33742500D01*
X-8035714Y33813928D01*
X-8392857Y33813928D01*
X-8535714Y33742500D01*
X-8607142Y33671071D01*
X-8678571Y33528214D01*
X-8678571Y33385357D01*
X-8607142Y33171071D01*
X-7749999Y32313928D01*
X-8678571Y32313928D01*
D11*
X3695238Y8547619D02*
X3695238Y7833333D01*
X3733333Y7690476D01*
X3809523Y7595238D01*
X3923809Y7547619D01*
X4000000Y7547619D01*
X2933333Y7547619D02*
X3314285Y7547619D01*
X3314285Y8547619D01*
X2209523Y7642857D02*
X2247619Y7595238D01*
X2361904Y7547619D01*
X2438095Y7547619D01*
X2552380Y7595238D01*
X2628571Y7690476D01*
X2666666Y7785714D01*
X2704761Y7976190D01*
X2704761Y8119047D01*
X2666666Y8309523D01*
X2628571Y8404761D01*
X2552380Y8500000D01*
X2438095Y8547619D01*
X2361904Y8547619D01*
X2247619Y8500000D01*
X2209523Y8452380D01*
X1638095Y8547619D02*
X1638095Y7833333D01*
X1676190Y7690476D01*
X1752380Y7595238D01*
X1866666Y7547619D01*
X1942857Y7547619D01*
X876190Y7547619D02*
X1257142Y7547619D01*
X1257142Y8547619D01*
X152380Y7642857D02*
X190476Y7595238D01*
X304761Y7547619D01*
X380952Y7547619D01*
X495238Y7595238D01*
X571428Y7690476D01*
X609523Y7785714D01*
X647619Y7976190D01*
X647619Y8119047D01*
X609523Y8309523D01*
X571428Y8404761D01*
X495238Y8500000D01*
X380952Y8547619D01*
X304761Y8547619D01*
X190476Y8500000D01*
X152380Y8452380D01*
X-419047Y8547619D02*
X-419047Y7833333D01*
X-380952Y7690476D01*
X-304761Y7595238D01*
X-190476Y7547619D01*
X-114285Y7547619D01*
X-1180952Y7547619D02*
X-800000Y7547619D01*
X-800000Y8547619D01*
X-1904761Y7642857D02*
X-1866666Y7595238D01*
X-1752380Y7547619D01*
X-1676190Y7547619D01*
X-1561904Y7595238D01*
X-1485714Y7690476D01*
X-1447619Y7785714D01*
X-1409523Y7976190D01*
X-1409523Y8119047D01*
X-1447619Y8309523D01*
X-1485714Y8404761D01*
X-1561904Y8500000D01*
X-1676190Y8547619D01*
X-1752380Y8547619D01*
X-1866666Y8500000D01*
X-1904761Y8452380D01*
X-2476190Y8547619D02*
X-2476190Y7833333D01*
X-2438095Y7690476D01*
X-2361904Y7595238D01*
X-2247619Y7547619D01*
X-2171428Y7547619D01*
X-3238095Y7547619D02*
X-2857142Y7547619D01*
X-2857142Y8547619D01*
X-3961904Y7642857D02*
X-3923809Y7595238D01*
X-3809523Y7547619D01*
X-3733333Y7547619D01*
X-3619047Y7595238D01*
X-3542857Y7690476D01*
X-3504761Y7785714D01*
X-3466666Y7976190D01*
X-3466666Y8119047D01*
X-3504761Y8309523D01*
X-3542857Y8404761D01*
X-3619047Y8500000D01*
X-3733333Y8547619D01*
X-3809523Y8547619D01*
X-3923809Y8500000D01*
X-3961904Y8452380D01*
D10*
X10499999Y-1392857D02*
X10999999Y-1392857D01*
X10999999Y-2178571D02*
X10999999Y-678571D01*
X10285714Y-678571D01*
X9499999Y-2178571D02*
X9642857Y-2107142D01*
X9714285Y-2035714D01*
X9785714Y-1892857D01*
X9785714Y-1464285D01*
X9714285Y-1321428D01*
X9642857Y-1250000D01*
X9499999Y-1178571D01*
X9285714Y-1178571D01*
X9142857Y-1250000D01*
X9071428Y-1321428D01*
X8999999Y-1464285D01*
X8999999Y-1892857D01*
X9071428Y-2035714D01*
X9142857Y-2107142D01*
X9285714Y-2178571D01*
X9499999Y-2178571D01*
X8357142Y-2178571D02*
X8357142Y-1178571D01*
X8357142Y-1464285D02*
X8285714Y-1321428D01*
X8214285Y-1250000D01*
X8071428Y-1178571D01*
X7928571Y-1178571D01*
X5428571Y-2035714D02*
X5499999Y-2107142D01*
X5714285Y-2178571D01*
X5857142Y-2178571D01*
X6071428Y-2107142D01*
X6214285Y-1964285D01*
X6285714Y-1821428D01*
X6357142Y-1535714D01*
X6357142Y-1321428D01*
X6285714Y-1035714D01*
X6214285Y-892857D01*
X6071428Y-750000D01*
X5857142Y-678571D01*
X5714285Y-678571D01*
X5499999Y-750000D01*
X5428571Y-821428D01*
X4571428Y-2178571D02*
X4714285Y-2107142D01*
X4785714Y-2035714D01*
X4857142Y-1892857D01*
X4857142Y-1464285D01*
X4785714Y-1321428D01*
X4714285Y-1250000D01*
X4571428Y-1178571D01*
X4357142Y-1178571D01*
X4214285Y-1250000D01*
X4142857Y-1321428D01*
X4071428Y-1464285D01*
X4071428Y-1892857D01*
X4142857Y-2035714D01*
X4214285Y-2107142D01*
X4357142Y-2178571D01*
X4571428Y-2178571D01*
X3214285Y-2178571D02*
X3357142Y-2107142D01*
X3428571Y-1964285D01*
X3428571Y-678571D01*
X2428571Y-2178571D02*
X2571428Y-2107142D01*
X2642857Y-2035714D01*
X2714285Y-1892857D01*
X2714285Y-1464285D01*
X2642857Y-1321428D01*
X2571428Y-1250000D01*
X2428571Y-1178571D01*
X2214285Y-1178571D01*
X2071428Y-1250000D01*
X1999999Y-1321428D01*
X1928571Y-1464285D01*
X1928571Y-1892857D01*
X1999999Y-2035714D01*
X2071428Y-2107142D01*
X2214285Y-2178571D01*
X2428571Y-2178571D01*
X1285714Y-2178571D02*
X1285714Y-1178571D01*
X1285714Y-1464285D02*
X1214285Y-1321428D01*
X1142857Y-1250000D01*
X999999Y-1178571D01*
X857142Y-1178571D01*
X142857Y-2178571D02*
X285714Y-2107142D01*
X357142Y-1964285D01*
X357142Y-678571D01*
X-428571Y-2178571D02*
X-428571Y-1178571D01*
X-428571Y-678571D02*
X-357142Y-750000D01*
X-428571Y-821428D01*
X-500000Y-750000D01*
X-428571Y-678571D01*
X-428571Y-821428D01*
X-1785714Y-1178571D02*
X-1785714Y-2392857D01*
X-1714285Y-2535714D01*
X-1642857Y-2607142D01*
X-1500000Y-2678571D01*
X-1285714Y-2678571D01*
X-1142857Y-2607142D01*
X-1785714Y-2107142D02*
X-1642857Y-2178571D01*
X-1357142Y-2178571D01*
X-1214285Y-2107142D01*
X-1142857Y-2035714D01*
X-1071428Y-1892857D01*
X-1071428Y-1464285D01*
X-1142857Y-1321428D01*
X-1214285Y-1250000D01*
X-1357142Y-1178571D01*
X-1642857Y-1178571D01*
X-1785714Y-1250000D01*
X-2500000Y-2178571D02*
X-2500000Y-678571D01*
X-3142857Y-2178571D02*
X-3142857Y-1392857D01*
X-3071428Y-1250000D01*
X-2928571Y-1178571D01*
X-2714285Y-1178571D01*
X-2571428Y-1250000D01*
X-2500000Y-1321428D01*
X-3642857Y-1178571D02*
X-4214285Y-1178571D01*
X-3857142Y-678571D02*
X-3857142Y-1964285D01*
X-3928571Y-2107142D01*
X-4071428Y-2178571D01*
X-4214285Y-2178571D01*
X-5857142Y-2178571D02*
X-5857142Y-1178571D01*
X-5857142Y-678571D02*
X-5785714Y-750000D01*
X-5857142Y-821428D01*
X-5928571Y-750000D01*
X-5857142Y-678571D01*
X-5857142Y-821428D01*
X-7285714Y-678571D02*
X-6571428Y-678571D01*
X-6500000Y-1392857D01*
X-6571428Y-1321428D01*
X-6714285Y-1250000D01*
X-7071428Y-1250000D01*
X-7214285Y-1321428D01*
X-7285714Y-1392857D01*
X-7357142Y-1535714D01*
X-7357142Y-1892857D01*
X-7285714Y-2035714D01*
X-7214285Y-2107142D01*
X-7071428Y-2178571D01*
X-6714285Y-2178571D01*
X-6571428Y-2107142D01*
X-6500000Y-2035714D01*
X-9071428Y-607142D02*
X-7785714Y-2535714D01*
X-9571428Y-2178571D02*
X-9571428Y-1178571D01*
X-9571428Y-678571D02*
X-9500000Y-750000D01*
X-9571428Y-821428D01*
X-9642857Y-750000D01*
X-9571428Y-678571D01*
X-9571428Y-821428D01*
X-10357142Y-2178571D02*
X-10642857Y-2178571D01*
X-10785714Y-2107142D01*
X-10857142Y-2035714D01*
X-11000000Y-1821428D01*
X-11071428Y-1535714D01*
X-11071428Y-964285D01*
X-11000000Y-821428D01*
X-10928571Y-750000D01*
X-10785714Y-678571D01*
X-10500000Y-678571D01*
X-10357142Y-750000D01*
X-10285714Y-821428D01*
X-10214285Y-964285D01*
X-10214285Y-1321428D01*
X-10285714Y-1464285D01*
X-10357142Y-1535714D01*
X-10500000Y-1607142D01*
X-10785714Y-1607142D01*
X-10928571Y-1535714D01*
X-11000000Y-1464285D01*
X-11071428Y-1321428D01*
D11*
%TO.C,J3*%
X-15166666Y33047619D02*
X-15166666Y32333333D01*
X-15119047Y32190476D01*
X-15023809Y32095238D01*
X-14880952Y32047619D01*
X-14785714Y32047619D01*
X-15547619Y33047619D02*
X-16166666Y33047619D01*
X-15833333Y32666666D01*
X-15976190Y32666666D01*
X-16071428Y32619047D01*
X-16119047Y32571428D01*
X-16166666Y32476190D01*
X-16166666Y32238095D01*
X-16119047Y32142857D01*
X-16071428Y32095238D01*
X-15976190Y32047619D01*
X-15690476Y32047619D01*
X-15595238Y32095238D01*
X-15547619Y32142857D01*
%TO.C,J1*%
X33583333Y15047619D02*
X33583333Y14333333D01*
X33630952Y14190476D01*
X33726190Y14095238D01*
X33869047Y14047619D01*
X33964285Y14047619D01*
X32583333Y14047619D02*
X33154761Y14047619D01*
X32869047Y14047619D02*
X32869047Y15047619D01*
X32964285Y14904761D01*
X33059523Y14809523D01*
X33154761Y14761904D01*
%TO.C,J28*%
X-24940476Y23297619D02*
X-24940476Y22583333D01*
X-24892857Y22440476D01*
X-24797619Y22345238D01*
X-24654761Y22297619D01*
X-24559523Y22297619D01*
X-25369047Y23202380D02*
X-25416666Y23250000D01*
X-25511904Y23297619D01*
X-25750000Y23297619D01*
X-25845238Y23250000D01*
X-25892857Y23202380D01*
X-25940476Y23107142D01*
X-25940476Y23011904D01*
X-25892857Y22869047D01*
X-25321428Y22297619D01*
X-25940476Y22297619D01*
X-26511904Y22869047D02*
X-26416666Y22916666D01*
X-26369047Y22964285D01*
X-26321428Y23059523D01*
X-26321428Y23107142D01*
X-26369047Y23202380D01*
X-26416666Y23250000D01*
X-26511904Y23297619D01*
X-26702380Y23297619D01*
X-26797619Y23250000D01*
X-26845238Y23202380D01*
X-26892857Y23107142D01*
X-26892857Y23059523D01*
X-26845238Y22964285D01*
X-26797619Y22916666D01*
X-26702380Y22869047D01*
X-26511904Y22869047D01*
X-26416666Y22821428D01*
X-26369047Y22773809D01*
X-26321428Y22678571D01*
X-26321428Y22488095D01*
X-26369047Y22392857D01*
X-26416666Y22345238D01*
X-26511904Y22297619D01*
X-26702380Y22297619D01*
X-26797619Y22345238D01*
X-26845238Y22392857D01*
X-26892857Y22488095D01*
X-26892857Y22678571D01*
X-26845238Y22773809D01*
X-26797619Y22821428D01*
X-26702380Y22869047D01*
D12*
%TO.C,J3*%
X-14060000Y15175000D02*
X-20340000Y15175000D01*
X1840000Y15175000D02*
X-10560000Y15175000D01*
X-14060000Y31325000D02*
X-20340000Y31325000D01*
X1840000Y31325000D02*
X-10560000Y31325000D01*
X1840000Y15175000D02*
X1840000Y31325000D01*
X-20340000Y31325000D02*
X-20340000Y15175000D01*
D13*
%TO.C,J1*%
X-32550000Y13000000D02*
X-35550000Y13000000D01*
X35550000Y-13000000D02*
X35550000Y13000000D01*
X-35550000Y13000000D02*
X-35550000Y-13000000D01*
X35550000Y13000000D02*
X32000000Y13000000D01*
D14*
X-31750000Y13500000D02*
X-31750000Y13500000D01*
X-31650000Y13500000D02*
X-31650000Y13500000D01*
D13*
X-35550000Y-13000000D02*
X35550000Y-13000000D01*
D14*
X-31750000Y13500000D02*
G75*
G03*
X-31650000Y13500000I50000J0D01*
G01*
X-31650000Y13500000D02*
G75*
G03*
X-31750000Y13500000I-50000J0D01*
G01*
D12*
%TO.C,J28*%
X-31050000Y23200000D02*
X-31050000Y20300000D01*
X-27500000Y17050000D02*
X-27500000Y14900000D01*
X-27500000Y17350000D02*
X-27500000Y17950000D01*
X-27500000Y23200000D02*
X-31050000Y23200000D01*
X-28250000Y17350000D02*
X-27500000Y17350000D01*
X-27500000Y21050000D02*
X-27500000Y23200000D01*
X-31050000Y14900000D02*
X-31050000Y17800000D01*
X-27500000Y14900000D02*
X-31050000Y14900000D01*
%TD*%
M02*
