%TF.GenerationSoftware,KiCad,Pcbnew,(6.0.9)*%
%TF.CreationDate,2022-11-25T11:26:23-05:00*%
%TF.ProjectId,hub,6875622e-6b69-4636-9164-5f7063625858,rev?*%
%TF.SameCoordinates,Original*%
%TF.FileFunction,Legend,Top*%
%TF.FilePolarity,Positive*%
%FSLAX46Y46*%
G04 Gerber Fmt 4.6, Leading zero omitted, Abs format (unit mm)*
G04 Created by KiCad (PCBNEW (6.0.9)) date 2022-11-25 11:26:23*
%MOMM*%
%LPD*%
G01*
G04 APERTURE LIST*
%ADD10C,0.100000*%
%ADD11C,0.150000*%
%ADD12C,0.500000*%
%ADD13C,0.120000*%
G04 APERTURE END LIST*
D10*
X-5000000Y100000D02*
X5000000Y-100000D01*
X0Y-5000000D02*
X0Y5000000D01*
X-5000000Y-100000D02*
X5000000Y100000D01*
X-5000000Y0D02*
X5000000Y0D01*
X-100000Y-5000000D02*
X100000Y5000000D01*
X100000Y-5000000D02*
X-100000Y5000000D01*
D11*
X-23547619Y13009523D02*
X-23547619Y12533333D01*
X-23071428Y12485714D01*
X-23119047Y12533333D01*
X-23166666Y12628571D01*
X-23166666Y12866666D01*
X-23119047Y12961904D01*
X-23071428Y13009523D01*
X-22976190Y13057142D01*
X-22738095Y13057142D01*
X-22642857Y13009523D01*
X-22595238Y12961904D01*
X-22547619Y12866666D01*
X-22547619Y12628571D01*
X-22595238Y12533333D01*
X-22642857Y12485714D01*
X-23547619Y13342857D02*
X-22547619Y13676190D01*
X-23547619Y14009523D01*
X-17347619Y13157142D02*
X-17823809Y12823809D01*
X-17347619Y12585714D02*
X-18347619Y12585714D01*
X-18347619Y12966666D01*
X-18300000Y13061904D01*
X-18252380Y13109523D01*
X-18157142Y13157142D01*
X-18014285Y13157142D01*
X-17919047Y13109523D01*
X-17871428Y13061904D01*
X-17823809Y12966666D01*
X-17823809Y12585714D01*
X-17347619Y14109523D02*
X-17347619Y13538095D01*
X-17347619Y13823809D02*
X-18347619Y13823809D01*
X-18204761Y13728571D01*
X-18109523Y13633333D01*
X-18061904Y13538095D01*
X-18347619Y14442857D02*
X-18347619Y15109523D01*
X-17347619Y14680952D01*
X-17447619Y1657142D02*
X-17923809Y1323809D01*
X-17447619Y1085714D02*
X-18447619Y1085714D01*
X-18447619Y1466666D01*
X-18400000Y1561904D01*
X-18352380Y1609523D01*
X-18257142Y1657142D01*
X-18114285Y1657142D01*
X-18019047Y1609523D01*
X-17971428Y1561904D01*
X-17923809Y1466666D01*
X-17923809Y1085714D01*
X-17447619Y2609523D02*
X-17447619Y2038095D01*
X-17447619Y2323809D02*
X-18447619Y2323809D01*
X-18304761Y2228571D01*
X-18209523Y2133333D01*
X-18161904Y2038095D01*
X-18019047Y3180952D02*
X-18066666Y3085714D01*
X-18114285Y3038095D01*
X-18209523Y2990476D01*
X-18257142Y2990476D01*
X-18352380Y3038095D01*
X-18400000Y3085714D01*
X-18447619Y3180952D01*
X-18447619Y3371428D01*
X-18400000Y3466666D01*
X-18352380Y3514285D01*
X-18257142Y3561904D01*
X-18209523Y3561904D01*
X-18114285Y3514285D01*
X-18066666Y3466666D01*
X-18019047Y3371428D01*
X-18019047Y3180952D01*
X-17971428Y3085714D01*
X-17923809Y3038095D01*
X-17828571Y2990476D01*
X-17638095Y2990476D01*
X-17542857Y3038095D01*
X-17495238Y3085714D01*
X-17447619Y3180952D01*
X-17447619Y3371428D01*
X-17495238Y3466666D01*
X-17542857Y3514285D01*
X-17638095Y3561904D01*
X-17828571Y3561904D01*
X-17923809Y3514285D01*
X-17971428Y3466666D01*
X-18019047Y3371428D01*
X-14847619Y12614285D02*
X-15847619Y12614285D01*
X-15133333Y12947619D01*
X-15847619Y13280952D01*
X-14847619Y13280952D01*
X-14847619Y14280952D02*
X-14847619Y13709523D01*
X-14847619Y13995238D02*
X-15847619Y13995238D01*
X-15704761Y13900000D01*
X-15609523Y13804761D01*
X-15561904Y13709523D01*
X-15847619Y14614285D02*
X-15847619Y15280952D01*
X-14847619Y14852380D01*
X-20947619Y1061904D02*
X-20947619Y1680952D01*
X-20566666Y1347619D01*
X-20566666Y1490476D01*
X-20519047Y1585714D01*
X-20471428Y1633333D01*
X-20376190Y1680952D01*
X-20138095Y1680952D01*
X-20042857Y1633333D01*
X-19995238Y1585714D01*
X-19947619Y1490476D01*
X-19947619Y1204761D01*
X-19995238Y1109523D01*
X-20042857Y1061904D01*
X-20947619Y1966666D02*
X-19947619Y2300000D01*
X-20947619Y2633333D01*
X-20947619Y2871428D02*
X-20947619Y3490476D01*
X-20566666Y3157142D01*
X-20566666Y3300000D01*
X-20519047Y3395238D01*
X-20471428Y3442857D01*
X-20376190Y3490476D01*
X-20138095Y3490476D01*
X-20042857Y3442857D01*
X-19995238Y3395238D01*
X-19947619Y3300000D01*
X-19947619Y3014285D01*
X-19995238Y2919047D01*
X-20042857Y2871428D01*
X-14947619Y1085714D02*
X-15947619Y1085714D01*
X-15947619Y1466666D01*
X-15900000Y1561904D01*
X-15852380Y1609523D01*
X-15757142Y1657142D01*
X-15614285Y1657142D01*
X-15519047Y1609523D01*
X-15471428Y1561904D01*
X-15423809Y1466666D01*
X-15423809Y1085714D01*
X-14947619Y2609523D02*
X-14947619Y2038095D01*
X-14947619Y2323809D02*
X-15947619Y2323809D01*
X-15804761Y2228571D01*
X-15709523Y2133333D01*
X-15661904Y2038095D01*
X-15947619Y2942857D02*
X-15947619Y3609523D01*
X-14947619Y3180952D01*
X-23500000Y1438095D02*
X-23547619Y1342857D01*
X-23547619Y1200000D01*
X-23500000Y1057142D01*
X-23404761Y961904D01*
X-23309523Y914285D01*
X-23119047Y866666D01*
X-22976190Y866666D01*
X-22785714Y914285D01*
X-22690476Y961904D01*
X-22595238Y1057142D01*
X-22547619Y1200000D01*
X-22547619Y1295238D01*
X-22595238Y1438095D01*
X-22642857Y1485714D01*
X-22976190Y1485714D01*
X-22976190Y1295238D01*
X-22547619Y1914285D02*
X-23547619Y1914285D01*
X-22547619Y2485714D01*
X-23547619Y2485714D01*
X-22547619Y2961904D02*
X-23547619Y2961904D01*
X-23547619Y3200000D01*
X-23500000Y3342857D01*
X-23404761Y3438095D01*
X-23309523Y3485714D01*
X-23119047Y3533333D01*
X-22976190Y3533333D01*
X-22785714Y3485714D01*
X-22690476Y3438095D01*
X-22595238Y3342857D01*
X-22547619Y3200000D01*
X-22547619Y2961904D01*
D12*
X-22071428Y-22342142D02*
X-22071428Y-19342142D01*
X-20928571Y-19342142D01*
X-20642857Y-19485000D01*
X-20500000Y-19627857D01*
X-20357142Y-19913571D01*
X-20357142Y-20342142D01*
X-20500000Y-20627857D01*
X-20642857Y-20770714D01*
X-20928571Y-20913571D01*
X-22071428Y-20913571D01*
X-19071428Y-22342142D02*
X-19071428Y-19342142D01*
X-17785714Y-22342142D02*
X-17785714Y-20770714D01*
X-17928571Y-20485000D01*
X-18214285Y-20342142D01*
X-18642857Y-20342142D01*
X-18928571Y-20485000D01*
X-19071428Y-20627857D01*
X-15071428Y-22342142D02*
X-15071428Y-20770714D01*
X-15214285Y-20485000D01*
X-15500000Y-20342142D01*
X-16071428Y-20342142D01*
X-16357142Y-20485000D01*
X-15071428Y-22199285D02*
X-15357142Y-22342142D01*
X-16071428Y-22342142D01*
X-16357142Y-22199285D01*
X-16500000Y-21913571D01*
X-16500000Y-21627857D01*
X-16357142Y-21342142D01*
X-16071428Y-21199285D01*
X-15357142Y-21199285D01*
X-15071428Y-21056428D01*
X-13785714Y-22199285D02*
X-13500000Y-22342142D01*
X-12928571Y-22342142D01*
X-12642857Y-22199285D01*
X-12500000Y-21913571D01*
X-12500000Y-21770714D01*
X-12642857Y-21485000D01*
X-12928571Y-21342142D01*
X-13357142Y-21342142D01*
X-13642857Y-21199285D01*
X-13785714Y-20913571D01*
X-13785714Y-20770714D01*
X-13642857Y-20485000D01*
X-13357142Y-20342142D01*
X-12928571Y-20342142D01*
X-12642857Y-20485000D01*
X-10071428Y-22199285D02*
X-10357142Y-22342142D01*
X-10928571Y-22342142D01*
X-11214285Y-22199285D01*
X-11357142Y-21913571D01*
X-11357142Y-20770714D01*
X-11214285Y-20485000D01*
X-10928571Y-20342142D01*
X-10357142Y-20342142D01*
X-10071428Y-20485000D01*
X-9928571Y-20770714D01*
X-9928571Y-21056428D01*
X-11357142Y-21342142D01*
X-6500000Y-21485000D02*
X-5071428Y-21485000D01*
X-6785714Y-22342142D02*
X-5785714Y-19342142D01*
X-4785714Y-22342142D01*
X-3785714Y-22342142D02*
X-3785714Y-20342142D01*
X-3785714Y-20913571D02*
X-3642857Y-20627857D01*
X-3500000Y-20485000D01*
X-3214285Y-20342142D01*
X-2928571Y-20342142D01*
X-1928571Y-22342142D02*
X-1928571Y-20342142D01*
X-1928571Y-20913571D02*
X-1785714Y-20627857D01*
X-1642857Y-20485000D01*
X-1357142Y-20342142D01*
X-1071428Y-20342142D01*
X1214285Y-22342142D02*
X1214285Y-20770714D01*
X1071428Y-20485000D01*
X785714Y-20342142D01*
X214285Y-20342142D01*
X-71428Y-20485000D01*
X1214285Y-22199285D02*
X928571Y-22342142D01*
X214285Y-22342142D01*
X-71428Y-22199285D01*
X-214285Y-21913571D01*
X-214285Y-21627857D01*
X-71428Y-21342142D01*
X214285Y-21199285D01*
X928571Y-21199285D01*
X1214285Y-21056428D01*
X2357142Y-20342142D02*
X3071428Y-22342142D01*
X3785714Y-20342142D02*
X3071428Y-22342142D01*
X2785714Y-23056428D01*
X2642857Y-23199285D01*
X2357142Y-23342142D01*
X7214285Y-22342142D02*
X7214285Y-19342142D01*
X7214285Y-20770714D02*
X8928571Y-20770714D01*
X8928571Y-22342142D02*
X8928571Y-19342142D01*
X11642857Y-20342142D02*
X11642857Y-22342142D01*
X10357142Y-20342142D02*
X10357142Y-21913571D01*
X10499999Y-22199285D01*
X10785714Y-22342142D01*
X11214285Y-22342142D01*
X11499999Y-22199285D01*
X11642857Y-22056428D01*
X13071428Y-22342142D02*
X13071428Y-19342142D01*
X13071428Y-20485000D02*
X13357142Y-20342142D01*
X13928571Y-20342142D01*
X14214285Y-20485000D01*
X14357142Y-20627857D01*
X14499999Y-20913571D01*
X14499999Y-21770714D01*
X14357142Y-22056428D01*
X14214285Y-22199285D01*
X13928571Y-22342142D01*
X13357142Y-22342142D01*
X13071428Y-22199285D01*
X17642857Y-19342142D02*
X18642857Y-22342142D01*
X19642857Y-19342142D01*
X22214285Y-22342142D02*
X20500000Y-22342142D01*
X21357142Y-22342142D02*
X21357142Y-19342142D01*
X21071428Y-19770714D01*
X20785714Y-20056428D01*
X20500000Y-20199285D01*
X-16214285Y-25600714D02*
X-15785714Y-25743571D01*
X-15642857Y-25886428D01*
X-15500000Y-26172142D01*
X-15500000Y-26600714D01*
X-15642857Y-26886428D01*
X-15785714Y-27029285D01*
X-16071428Y-27172142D01*
X-17214285Y-27172142D01*
X-17214285Y-24172142D01*
X-16214285Y-24172142D01*
X-15928571Y-24315000D01*
X-15785714Y-24457857D01*
X-15642857Y-24743571D01*
X-15642857Y-25029285D01*
X-15785714Y-25315000D01*
X-15928571Y-25457857D01*
X-16214285Y-25600714D01*
X-17214285Y-25600714D01*
X-13071428Y-27029285D02*
X-13357142Y-27172142D01*
X-13928571Y-27172142D01*
X-14214285Y-27029285D01*
X-14357142Y-26743571D01*
X-14357142Y-25600714D01*
X-14214285Y-25315000D01*
X-13928571Y-25172142D01*
X-13357142Y-25172142D01*
X-13071428Y-25315000D01*
X-12928571Y-25600714D01*
X-12928571Y-25886428D01*
X-14357142Y-26172142D01*
X-11642857Y-25172142D02*
X-11642857Y-27172142D01*
X-11642857Y-25457857D02*
X-11500000Y-25315000D01*
X-11214285Y-25172142D01*
X-10785714Y-25172142D01*
X-10500000Y-25315000D01*
X-10357142Y-25600714D01*
X-10357142Y-27172142D01*
X-6928571Y-24172142D02*
X-6214285Y-27172142D01*
X-5642857Y-25029285D01*
X-5071428Y-27172142D01*
X-4357142Y-24172142D01*
X-1928571Y-27172142D02*
X-1928571Y-25600714D01*
X-2071428Y-25315000D01*
X-2357142Y-25172142D01*
X-2928571Y-25172142D01*
X-3214285Y-25315000D01*
X-1928571Y-27029285D02*
X-2214285Y-27172142D01*
X-2928571Y-27172142D01*
X-3214285Y-27029285D01*
X-3357142Y-26743571D01*
X-3357142Y-26457857D01*
X-3214285Y-26172142D01*
X-2928571Y-26029285D01*
X-2214285Y-26029285D01*
X-1928571Y-25886428D01*
X-500000Y-25172142D02*
X-500000Y-27172142D01*
X-500000Y-25457857D02*
X-357142Y-25315000D01*
X-71428Y-25172142D01*
X357142Y-25172142D01*
X642857Y-25315000D01*
X785714Y-25600714D01*
X785714Y-27172142D01*
X3500000Y-25172142D02*
X3500000Y-27600714D01*
X3357142Y-27886428D01*
X3214285Y-28029285D01*
X2928571Y-28172142D01*
X2500000Y-28172142D01*
X2214285Y-28029285D01*
X3500000Y-27029285D02*
X3214285Y-27172142D01*
X2642857Y-27172142D01*
X2357142Y-27029285D01*
X2214285Y-26886428D01*
X2071428Y-26600714D01*
X2071428Y-25743571D01*
X2214285Y-25457857D01*
X2357142Y-25315000D01*
X2642857Y-25172142D01*
X3214285Y-25172142D01*
X3500000Y-25315000D01*
X7071428Y-24457857D02*
X7214285Y-24315000D01*
X7499999Y-24172142D01*
X8214285Y-24172142D01*
X8499999Y-24315000D01*
X8642857Y-24457857D01*
X8785714Y-24743571D01*
X8785714Y-25029285D01*
X8642857Y-25457857D01*
X6928571Y-27172142D01*
X8785714Y-27172142D01*
X10642857Y-24172142D02*
X10928571Y-24172142D01*
X11214285Y-24315000D01*
X11357142Y-24457857D01*
X11499999Y-24743571D01*
X11642857Y-25315000D01*
X11642857Y-26029285D01*
X11499999Y-26600714D01*
X11357142Y-26886428D01*
X11214285Y-27029285D01*
X10928571Y-27172142D01*
X10642857Y-27172142D01*
X10357142Y-27029285D01*
X10214285Y-26886428D01*
X10071428Y-26600714D01*
X9928571Y-26029285D01*
X9928571Y-25315000D01*
X10071428Y-24743571D01*
X10214285Y-24457857D01*
X10357142Y-24315000D01*
X10642857Y-24172142D01*
X12785714Y-24457857D02*
X12928571Y-24315000D01*
X13214285Y-24172142D01*
X13928571Y-24172142D01*
X14214285Y-24315000D01*
X14357142Y-24457857D01*
X14499999Y-24743571D01*
X14499999Y-25029285D01*
X14357142Y-25457857D01*
X12642857Y-27172142D01*
X14499999Y-27172142D01*
X15642857Y-24457857D02*
X15785714Y-24315000D01*
X16071428Y-24172142D01*
X16785714Y-24172142D01*
X17071428Y-24315000D01*
X17214285Y-24457857D01*
X17357142Y-24743571D01*
X17357142Y-25029285D01*
X17214285Y-25457857D01*
X15500000Y-27172142D01*
X17357142Y-27172142D01*
D11*
X-21047619Y12361904D02*
X-21047619Y12933333D01*
X-20047619Y12647619D02*
X-21047619Y12647619D01*
X-20047619Y13790476D02*
X-20047619Y13219047D01*
X-20047619Y13504761D02*
X-21047619Y13504761D01*
X-20904761Y13409523D01*
X-20809523Y13314285D01*
X-20761904Y13219047D01*
X-20619047Y14361904D02*
X-20666666Y14266666D01*
X-20714285Y14219047D01*
X-20809523Y14171428D01*
X-20857142Y14171428D01*
X-20952380Y14219047D01*
X-21000000Y14266666D01*
X-21047619Y14361904D01*
X-21047619Y14552380D01*
X-21000000Y14647619D01*
X-20952380Y14695238D01*
X-20857142Y14742857D01*
X-20809523Y14742857D01*
X-20714285Y14695238D01*
X-20666666Y14647619D01*
X-20619047Y14552380D01*
X-20619047Y14361904D01*
X-20571428Y14266666D01*
X-20523809Y14219047D01*
X-20428571Y14171428D01*
X-20238095Y14171428D01*
X-20142857Y14219047D01*
X-20095238Y14266666D01*
X-20047619Y14361904D01*
X-20047619Y14552380D01*
X-20095238Y14647619D01*
X-20142857Y14695238D01*
X-20238095Y14742857D01*
X-20428571Y14742857D01*
X-20523809Y14695238D01*
X-20571428Y14647619D01*
X-20619047Y14552380D01*
%TO.C,J11*%
X-38145894Y-15548421D02*
X-37788751Y-16167011D01*
X-37758562Y-16314538D01*
X-37793422Y-16444636D01*
X-37893330Y-16557304D01*
X-37975809Y-16604923D01*
X-36779869Y-15914447D02*
X-37274740Y-16200161D01*
X-37027305Y-16057304D02*
X-37527305Y-15191279D01*
X-37538355Y-15362616D01*
X-37573214Y-15492713D01*
X-37631883Y-15581572D01*
X-35955083Y-15438256D02*
X-36449954Y-15723971D01*
X-36202519Y-15581113D02*
X-36702519Y-14715088D01*
X-36713569Y-14886425D01*
X-36748428Y-15016523D01*
X-36807097Y-15105381D01*
%TO.C,H7*%
X-46761904Y4197619D02*
X-46761904Y5197619D01*
X-46761904Y4721428D02*
X-46190476Y4721428D01*
X-46190476Y4197619D02*
X-46190476Y5197619D01*
X-45809523Y5197619D02*
X-45142857Y5197619D01*
X-45571428Y4197619D01*
%TO.C,H15*%
X19983803Y-43008200D02*
X19117777Y-43508200D01*
X19530170Y-43270105D02*
X19244456Y-42775233D01*
X19698088Y-42513328D02*
X18832063Y-43013328D01*
X19198088Y-41647303D02*
X19483803Y-42142175D01*
X19340945Y-41894739D02*
X18474920Y-42394739D01*
X18646257Y-42405789D01*
X18776355Y-42440648D01*
X18865213Y-42499317D01*
X17879682Y-41363756D02*
X18117777Y-41776149D01*
X18553980Y-41579293D01*
X18488931Y-41561863D01*
X18400073Y-41503194D01*
X18281025Y-41296998D01*
X18274645Y-41190710D01*
X18292075Y-41125661D01*
X18350744Y-41036803D01*
X18556941Y-40917755D01*
X18663229Y-40911375D01*
X18728277Y-40928805D01*
X18817136Y-40987474D01*
X18936183Y-41193671D01*
X18942563Y-41299959D01*
X18925133Y-41365007D01*
%TO.C,J10*%
X-40870331Y-5145737D02*
X-40685460Y-5835684D01*
X-40694482Y-5985998D01*
X-40761826Y-6102641D01*
X-40887490Y-6185611D01*
X-40979483Y-6210261D01*
X-39645586Y-5852844D02*
X-40197543Y-6000741D01*
X-39921565Y-5926792D02*
X-40180384Y-4960867D01*
X-40235402Y-5123505D01*
X-40302746Y-5240148D01*
X-40382414Y-5310794D01*
X-39306451Y-4726697D02*
X-39214458Y-4702048D01*
X-39110140Y-4723395D01*
X-39051819Y-4757066D01*
X-38981173Y-4836735D01*
X-38885878Y-5008396D01*
X-38824254Y-5238378D01*
X-38820952Y-5434689D01*
X-38842299Y-5539006D01*
X-38875971Y-5597327D01*
X-38955639Y-5667973D01*
X-39047632Y-5692623D01*
X-39151949Y-5671276D01*
X-39210271Y-5637604D01*
X-39280916Y-5557936D01*
X-39376212Y-5386275D01*
X-39437835Y-5156292D01*
X-39441138Y-4959982D01*
X-39419791Y-4855664D01*
X-39386119Y-4797343D01*
X-39306451Y-4726697D01*
%TO.C,J13*%
X-25261101Y-32538275D02*
X-24642512Y-32895418D01*
X-24542603Y-33008086D01*
X-24507744Y-33138184D01*
X-24537933Y-33285711D01*
X-24585552Y-33368190D01*
X-23895076Y-32172250D02*
X-24180790Y-32667121D01*
X-24037933Y-32419686D02*
X-24903959Y-31919686D01*
X-24827860Y-32073593D01*
X-24793000Y-32203690D01*
X-24799380Y-32309979D01*
X-24594435Y-31383575D02*
X-24284911Y-30847464D01*
X-24121663Y-31326615D01*
X-24050235Y-31202897D01*
X-23961376Y-31144228D01*
X-23896327Y-31126798D01*
X-23790039Y-31133178D01*
X-23583843Y-31252226D01*
X-23525174Y-31341084D01*
X-23507744Y-31406133D01*
X-23514124Y-31512421D01*
X-23656981Y-31759857D01*
X-23745839Y-31818526D01*
X-23810888Y-31835956D01*
%TO.C,C1*%
X-23666666Y27392857D02*
X-23714285Y27345238D01*
X-23857142Y27297619D01*
X-23952380Y27297619D01*
X-24095238Y27345238D01*
X-24190476Y27440476D01*
X-24238095Y27535714D01*
X-24285714Y27726190D01*
X-24285714Y27869047D01*
X-24238095Y28059523D01*
X-24190476Y28154761D01*
X-24095238Y28250000D01*
X-23952380Y28297619D01*
X-23857142Y28297619D01*
X-23714285Y28250000D01*
X-23666666Y28202380D01*
X-22714285Y27297619D02*
X-23285714Y27297619D01*
X-23000000Y27297619D02*
X-23000000Y28297619D01*
X-23095238Y28154761D01*
X-23190476Y28059523D01*
X-23285714Y28011904D01*
%TO.C,H9*%
X-42595807Y-19745707D02*
X-43095807Y-18879682D01*
X-42857712Y-19292075D02*
X-42362840Y-19006361D01*
X-42100935Y-19459993D02*
X-42600935Y-18593968D01*
X-41647303Y-19198088D02*
X-41482346Y-19102850D01*
X-41423677Y-19013992D01*
X-41406247Y-18948943D01*
X-41395197Y-18777606D01*
X-41449196Y-18588839D01*
X-41639672Y-18258925D01*
X-41728530Y-18200256D01*
X-41793579Y-18182826D01*
X-41899867Y-18189206D01*
X-42064824Y-18284444D01*
X-42123493Y-18373302D01*
X-42140923Y-18438351D01*
X-42134543Y-18544639D01*
X-42015496Y-18750836D01*
X-41926637Y-18809505D01*
X-41861589Y-18826934D01*
X-41755300Y-18820555D01*
X-41590343Y-18725317D01*
X-41531674Y-18636458D01*
X-41514244Y-18571409D01*
X-41520624Y-18465121D01*
%TO.C,H1*%
X5102380Y45238095D02*
X4102380Y45238095D01*
X4578571Y45238095D02*
X4578571Y45809523D01*
X5102380Y45809523D02*
X4102380Y45809523D01*
X5102380Y46809523D02*
X5102380Y46238095D01*
X5102380Y46523809D02*
X4102380Y46523809D01*
X4245238Y46428571D01*
X4340476Y46333333D01*
X4388095Y46238095D01*
%TO.C,J22*%
X39022982Y5784616D02*
X39207853Y5094669D01*
X39198831Y4944355D01*
X39131487Y4827712D01*
X39005823Y4744742D01*
X38913830Y4720092D01*
X39461600Y5803545D02*
X39495272Y5861866D01*
X39574940Y5932512D01*
X39804922Y5994136D01*
X39909240Y5972789D01*
X39967561Y5939117D01*
X40038207Y5859449D01*
X40062856Y5767456D01*
X40053834Y5617142D01*
X39649773Y4917288D01*
X40247727Y5077509D01*
X40381529Y6050040D02*
X40415201Y6108361D01*
X40494869Y6179007D01*
X40724852Y6240630D01*
X40829169Y6219283D01*
X40887490Y6185611D01*
X40958136Y6105943D01*
X40982786Y6013950D01*
X40973763Y5863636D01*
X40569702Y5163782D01*
X41167657Y5324003D01*
%TO.C,C5*%
X-21666666Y-8857142D02*
X-21714285Y-8904761D01*
X-21857142Y-8952380D01*
X-21952380Y-8952380D01*
X-22095238Y-8904761D01*
X-22190476Y-8809523D01*
X-22238095Y-8714285D01*
X-22285714Y-8523809D01*
X-22285714Y-8380952D01*
X-22238095Y-8190476D01*
X-22190476Y-8095238D01*
X-22095238Y-8000000D01*
X-21952380Y-7952380D01*
X-21857142Y-7952380D01*
X-21714285Y-8000000D01*
X-21666666Y-8047619D01*
X-20761904Y-7952380D02*
X-21238095Y-7952380D01*
X-21285714Y-8428571D01*
X-21238095Y-8380952D01*
X-21142857Y-8333333D01*
X-20904761Y-8333333D01*
X-20809523Y-8380952D01*
X-20761904Y-8428571D01*
X-20714285Y-8523809D01*
X-20714285Y-8761904D01*
X-20761904Y-8857142D01*
X-20809523Y-8904761D01*
X-20904761Y-8952380D01*
X-21142857Y-8952380D01*
X-21238095Y-8904761D01*
X-21285714Y-8857142D01*
%TO.C,H10*%
X-36370542Y-30434212D02*
X-37077649Y-29727105D01*
X-36740932Y-30063822D02*
X-36336871Y-29659761D01*
X-35966481Y-30030151D02*
X-36673588Y-29323044D01*
X-35259375Y-29323044D02*
X-35663436Y-29727105D01*
X-35461405Y-29525074D02*
X-36168512Y-28817968D01*
X-36134840Y-28986326D01*
X-36134840Y-29121013D01*
X-36168512Y-29222029D01*
X-35528749Y-28178204D02*
X-35461405Y-28110861D01*
X-35360390Y-28077189D01*
X-35293046Y-28077189D01*
X-35192031Y-28110861D01*
X-35023672Y-28211876D01*
X-34855314Y-28380235D01*
X-34754298Y-28548594D01*
X-34720627Y-28649609D01*
X-34720627Y-28716952D01*
X-34754298Y-28817968D01*
X-34821642Y-28885311D01*
X-34922657Y-28918983D01*
X-34990001Y-28918983D01*
X-35091016Y-28885311D01*
X-35259375Y-28784296D01*
X-35427733Y-28615937D01*
X-35528749Y-28447578D01*
X-35562420Y-28346563D01*
X-35562420Y-28279220D01*
X-35528749Y-28178204D01*
%TO.C,J24*%
X30902586Y24521116D02*
X31407662Y24016040D01*
X31475005Y23881353D01*
X31475005Y23746666D01*
X31407662Y23611979D01*
X31340318Y23544635D01*
X31272975Y24756818D02*
X31272975Y24824162D01*
X31306647Y24925177D01*
X31475005Y25093536D01*
X31576021Y25127207D01*
X31643364Y25127207D01*
X31744379Y25093536D01*
X31811723Y25026192D01*
X31879066Y24891505D01*
X31879066Y24083383D01*
X32316799Y24521116D01*
X32451486Y25598612D02*
X32922891Y25127207D01*
X32013753Y25699627D02*
X32350471Y25026192D01*
X32788204Y25463925D01*
%TO.C,J21*%
X39190476Y-4512380D02*
X39190476Y-5226666D01*
X39142857Y-5369523D01*
X39047619Y-5464761D01*
X38904761Y-5512380D01*
X38809523Y-5512380D01*
X39619047Y-4607619D02*
X39666666Y-4560000D01*
X39761904Y-4512380D01*
X40000000Y-4512380D01*
X40095238Y-4560000D01*
X40142857Y-4607619D01*
X40190476Y-4702857D01*
X40190476Y-4798095D01*
X40142857Y-4940952D01*
X39571428Y-5512380D01*
X40190476Y-5512380D01*
X41142857Y-5512380D02*
X40571428Y-5512380D01*
X40857142Y-5512380D02*
X40857142Y-4512380D01*
X40761904Y-4655238D01*
X40666666Y-4750476D01*
X40571428Y-4798095D01*
%TO.C,U1*%
X-27761904Y-13952380D02*
X-27761904Y-14761904D01*
X-27714285Y-14857142D01*
X-27666666Y-14904761D01*
X-27571428Y-14952380D01*
X-27380952Y-14952380D01*
X-27285714Y-14904761D01*
X-27238095Y-14857142D01*
X-27190476Y-14761904D01*
X-27190476Y-13952380D01*
X-26190476Y-14952380D02*
X-26761904Y-14952380D01*
X-26476190Y-14952380D02*
X-26476190Y-13952380D01*
X-26571428Y-14095238D01*
X-26666666Y-14190476D01*
X-26761904Y-14238095D01*
%TO.C,J12*%
X-32821875Y-24891505D02*
X-32316799Y-25396581D01*
X-32249456Y-25531268D01*
X-32249456Y-25665955D01*
X-32316799Y-25800642D01*
X-32384143Y-25867986D01*
X-31407662Y-24891505D02*
X-31811723Y-25295566D01*
X-31609692Y-25093536D02*
X-32316799Y-24386429D01*
X-32283127Y-24554788D01*
X-32283127Y-24689475D01*
X-32316799Y-24790490D01*
X-31778051Y-23982368D02*
X-31778051Y-23915024D01*
X-31744379Y-23814009D01*
X-31576021Y-23645650D01*
X-31475005Y-23611979D01*
X-31407662Y-23611979D01*
X-31306647Y-23645650D01*
X-31239303Y-23712994D01*
X-31171960Y-23847681D01*
X-31171960Y-24655803D01*
X-30734227Y-24218070D01*
%TO.C,J19*%
X32538275Y-25261101D02*
X32895418Y-24642512D01*
X33008086Y-24542603D01*
X33138184Y-24507744D01*
X33285711Y-24537933D01*
X33368190Y-24585552D01*
X32172250Y-23895076D02*
X32667121Y-24180790D01*
X32419686Y-24037933D02*
X31919686Y-24903959D01*
X32073593Y-24827860D01*
X32203690Y-24793000D01*
X32309979Y-24799380D01*
X31759857Y-23656981D02*
X31594899Y-23561743D01*
X31488611Y-23555363D01*
X31423563Y-23572793D01*
X31269655Y-23648892D01*
X31133178Y-23790039D01*
X30942702Y-24119954D01*
X30936322Y-24226242D01*
X30953752Y-24291291D01*
X31012421Y-24380149D01*
X31177378Y-24475387D01*
X31283666Y-24481767D01*
X31348715Y-24464337D01*
X31437573Y-24405668D01*
X31556621Y-24199471D01*
X31563001Y-24093183D01*
X31545571Y-24028135D01*
X31486902Y-23939276D01*
X31321945Y-23844038D01*
X31215657Y-23837658D01*
X31150608Y-23855088D01*
X31061749Y-23913757D01*
%TO.C,J26*%
X14501866Y36687203D02*
X15191813Y36502332D01*
X15317478Y36419361D01*
X15384821Y36302719D01*
X15393843Y36152405D01*
X15369194Y36060412D01*
X14704781Y37076522D02*
X14671110Y37134843D01*
X14649763Y37239160D01*
X14711386Y37469143D01*
X14782032Y37548811D01*
X14840353Y37582483D01*
X14944671Y37603830D01*
X15036664Y37579180D01*
X15162328Y37496210D01*
X15566389Y36796355D01*
X15726611Y37394310D01*
X14982530Y38481065D02*
X14933231Y38297079D01*
X14954578Y38192762D01*
X14988250Y38134440D01*
X15101590Y38005473D01*
X15273251Y37910178D01*
X15641223Y37811580D01*
X15745540Y37832927D01*
X15803862Y37866599D01*
X15874507Y37946267D01*
X15923806Y38130253D01*
X15902459Y38234571D01*
X15868787Y38292892D01*
X15789119Y38363538D01*
X15559137Y38425161D01*
X15454819Y38403814D01*
X15396498Y38370143D01*
X15325852Y38290474D01*
X15276553Y38106488D01*
X15297900Y38002171D01*
X15331572Y37943850D01*
X15411240Y37873204D01*
%TO.C,J2*%
X4512380Y39666666D02*
X5226666Y39666666D01*
X5369523Y39619047D01*
X5464761Y39523809D01*
X5512380Y39380952D01*
X5512380Y39285714D01*
X4607619Y40095238D02*
X4560000Y40142857D01*
X4512380Y40238095D01*
X4512380Y40476190D01*
X4560000Y40571428D01*
X4607619Y40619047D01*
X4702857Y40666666D01*
X4798095Y40666666D01*
X4940952Y40619047D01*
X5512380Y40047619D01*
X5512380Y40666666D01*
%TO.C,H13*%
X-4197619Y-47238095D02*
X-5197619Y-47238095D01*
X-4721428Y-47238095D02*
X-4721428Y-46666666D01*
X-4197619Y-46666666D02*
X-5197619Y-46666666D01*
X-4197619Y-45666666D02*
X-4197619Y-46238095D01*
X-4197619Y-45952380D02*
X-5197619Y-45952380D01*
X-5054761Y-46047619D01*
X-4959523Y-46142857D01*
X-4911904Y-46238095D01*
X-5197619Y-45333333D02*
X-5197619Y-44714285D01*
X-4816666Y-45047619D01*
X-4816666Y-44904761D01*
X-4769047Y-44809523D01*
X-4721428Y-44761904D01*
X-4626190Y-44714285D01*
X-4388095Y-44714285D01*
X-4292857Y-44761904D01*
X-4245238Y-44809523D01*
X-4197619Y-44904761D01*
X-4197619Y-45190476D01*
X-4245238Y-45285714D01*
X-4292857Y-45333333D01*
%TO.C,J5*%
X-15925497Y36608532D02*
X-15306907Y36965675D01*
X-15159380Y36995864D01*
X-15029282Y36961004D01*
X-14916614Y36861096D01*
X-14868995Y36778617D01*
X-16401687Y37433318D02*
X-16163592Y37020925D01*
X-15727390Y37217781D01*
X-15792438Y37235211D01*
X-15881297Y37293880D01*
X-16000344Y37500076D01*
X-16006724Y37606364D01*
X-15989294Y37671413D01*
X-15930625Y37760272D01*
X-15724429Y37879319D01*
X-15618141Y37885699D01*
X-15553092Y37868269D01*
X-15464233Y37809600D01*
X-15345186Y37603404D01*
X-15338806Y37497115D01*
X-15356236Y37432067D01*
%TO.C,H17*%
X38810581Y-27254292D02*
X38310581Y-28120317D01*
X38548676Y-27707924D02*
X38053804Y-27422210D01*
X38315709Y-26968577D02*
X37815709Y-27834603D01*
X37449684Y-26468577D02*
X37944556Y-26754292D01*
X37697120Y-26611435D02*
X37197120Y-27477460D01*
X37351027Y-27401361D01*
X37481125Y-27366502D01*
X37587413Y-27372881D01*
X36661009Y-27167936D02*
X36083658Y-26834603D01*
X36954812Y-26182863D01*
%TO.C,J18*%
X24891505Y-32821875D02*
X25396581Y-32316799D01*
X25531268Y-32249456D01*
X25665955Y-32249456D01*
X25800642Y-32316799D01*
X25867986Y-32384143D01*
X24891505Y-31407662D02*
X25295566Y-31811723D01*
X25093536Y-31609692D02*
X24386429Y-32316799D01*
X24554788Y-32283127D01*
X24689475Y-32283127D01*
X24790490Y-32316799D01*
X24083383Y-31407662D02*
X24117055Y-31508677D01*
X24117055Y-31576021D01*
X24083383Y-31677036D01*
X24049711Y-31710708D01*
X23948696Y-31744379D01*
X23881353Y-31744379D01*
X23780337Y-31710708D01*
X23645650Y-31576021D01*
X23611979Y-31475005D01*
X23611979Y-31407662D01*
X23645650Y-31306647D01*
X23679322Y-31272975D01*
X23780337Y-31239303D01*
X23847681Y-31239303D01*
X23948696Y-31272975D01*
X24083383Y-31407662D01*
X24184398Y-31441334D01*
X24251742Y-31441334D01*
X24352757Y-31407662D01*
X24487444Y-31272975D01*
X24521116Y-31171960D01*
X24521116Y-31104616D01*
X24487444Y-31003601D01*
X24352757Y-30868914D01*
X24251742Y-30835242D01*
X24184398Y-30835242D01*
X24083383Y-30868914D01*
X23948696Y-31003601D01*
X23915024Y-31104616D01*
X23915024Y-31171960D01*
X23948696Y-31272975D01*
%TO.C,J8*%
X-37147167Y14625113D02*
X-36962297Y15315060D01*
X-36879326Y15440725D01*
X-36762684Y15508068D01*
X-36612370Y15517091D01*
X-36520377Y15492441D01*
X-37634199Y15199303D02*
X-37554531Y15128657D01*
X-37520859Y15070336D01*
X-37499512Y14966018D01*
X-37511837Y14920021D01*
X-37582483Y14840353D01*
X-37640804Y14806681D01*
X-37745122Y14785334D01*
X-37929107Y14834633D01*
X-38008776Y14905279D01*
X-38042447Y14963600D01*
X-38063794Y15067918D01*
X-38051470Y15113914D01*
X-37980824Y15193583D01*
X-37922503Y15227254D01*
X-37818185Y15248601D01*
X-37634199Y15199303D01*
X-37529881Y15220650D01*
X-37471560Y15254321D01*
X-37400914Y15333990D01*
X-37351615Y15517976D01*
X-37372963Y15622293D01*
X-37406634Y15680614D01*
X-37486303Y15751260D01*
X-37670288Y15800559D01*
X-37774606Y15779212D01*
X-37832927Y15745540D01*
X-37903573Y15665872D01*
X-37952872Y15481886D01*
X-37931525Y15377569D01*
X-37897853Y15319247D01*
X-37818185Y15248601D01*
%TO.C,H22*%
X35259375Y28043517D02*
X34552268Y28750624D01*
X34888985Y28413907D02*
X35293046Y28817968D01*
X35663436Y28447578D02*
X34956329Y29154685D01*
X35326718Y29390387D02*
X35326718Y29457731D01*
X35360390Y29558746D01*
X35528749Y29727105D01*
X35629764Y29760777D01*
X35697107Y29760777D01*
X35798123Y29727105D01*
X35865466Y29659761D01*
X35932810Y29525074D01*
X35932810Y28716952D01*
X36370542Y29154685D01*
X36000153Y30063822D02*
X36000153Y30131166D01*
X36033825Y30232181D01*
X36202184Y30400540D01*
X36303199Y30434212D01*
X36370542Y30434212D01*
X36471558Y30400540D01*
X36538901Y30333196D01*
X36606245Y30198509D01*
X36606245Y29390387D01*
X37043977Y29828120D01*
%TO.C,H24*%
X16513754Y41916086D02*
X15547828Y42174905D01*
X16007793Y42051657D02*
X16155690Y42603615D01*
X16661651Y42468043D02*
X15695725Y42726862D01*
X15898640Y43116181D02*
X15864969Y43174502D01*
X15843622Y43278820D01*
X15905245Y43508802D01*
X15975891Y43588470D01*
X16034212Y43622142D01*
X16138530Y43643489D01*
X16230523Y43618840D01*
X16356188Y43535869D01*
X16760249Y42836015D01*
X16920470Y43433969D01*
X16498364Y44434451D02*
X17142315Y44261905D01*
X16068769Y44303067D02*
X16697092Y43888214D01*
X16857314Y44486168D01*
%TO.C,C4*%
X-19666666Y-8857142D02*
X-19714285Y-8904761D01*
X-19857142Y-8952380D01*
X-19952380Y-8952380D01*
X-20095238Y-8904761D01*
X-20190476Y-8809523D01*
X-20238095Y-8714285D01*
X-20285714Y-8523809D01*
X-20285714Y-8380952D01*
X-20238095Y-8190476D01*
X-20190476Y-8095238D01*
X-20095238Y-8000000D01*
X-19952380Y-7952380D01*
X-19857142Y-7952380D01*
X-19714285Y-8000000D01*
X-19666666Y-8047619D01*
X-18809523Y-8285714D02*
X-18809523Y-8952380D01*
X-19047619Y-7904761D02*
X-19285714Y-8619047D01*
X-18666666Y-8619047D01*
%TO.C,J9*%
X-40333333Y5607619D02*
X-40333333Y4893333D01*
X-40380952Y4750476D01*
X-40476190Y4655238D01*
X-40619047Y4607619D01*
X-40714285Y4607619D01*
X-39809523Y4607619D02*
X-39619047Y4607619D01*
X-39523809Y4655238D01*
X-39476190Y4702857D01*
X-39380952Y4845714D01*
X-39333333Y5036190D01*
X-39333333Y5417142D01*
X-39380952Y5512380D01*
X-39428571Y5560000D01*
X-39523809Y5607619D01*
X-39714285Y5607619D01*
X-39809523Y5560000D01*
X-39857142Y5512380D01*
X-39904761Y5417142D01*
X-39904761Y5179047D01*
X-39857142Y5083809D01*
X-39809523Y5036190D01*
X-39714285Y4988571D01*
X-39523809Y4988571D01*
X-39428571Y5036190D01*
X-39380952Y5083809D01*
X-39333333Y5179047D01*
%TO.C,H23*%
X26799743Y36213756D02*
X25933718Y36713756D01*
X26346111Y36475661D02*
X26631825Y36970533D01*
X27085458Y36708628D02*
X26219432Y37208628D01*
X26516196Y37532162D02*
X26498767Y37597211D01*
X26505146Y37703499D01*
X26624194Y37909696D01*
X26713052Y37968365D01*
X26778101Y37985795D01*
X26884389Y37979415D01*
X26966868Y37931796D01*
X27066776Y37819128D01*
X27275934Y37038542D01*
X27585458Y37574653D01*
X26886099Y38363328D02*
X27195623Y38899439D01*
X27358870Y38420288D01*
X27430299Y38544006D01*
X27519157Y38602675D01*
X27584206Y38620105D01*
X27690494Y38613725D01*
X27896691Y38494677D01*
X27955360Y38405819D01*
X27972790Y38340770D01*
X27966410Y38234482D01*
X27823553Y37987046D01*
X27734694Y37928377D01*
X27669646Y37910947D01*
%TO.C,J20*%
X37967614Y-15978825D02*
X38152485Y-15288878D01*
X38235456Y-15163213D01*
X38352098Y-15095870D01*
X38502412Y-15086848D01*
X38594405Y-15111497D01*
X37578295Y-15775910D02*
X37519974Y-15809581D01*
X37415657Y-15830928D01*
X37185674Y-15769305D01*
X37106006Y-15698659D01*
X37072334Y-15640338D01*
X37050987Y-15536020D01*
X37075637Y-15444027D01*
X37158607Y-15318363D01*
X37858462Y-14914302D01*
X37260507Y-14754080D01*
X36403734Y-15559785D02*
X36311741Y-15535135D01*
X36232073Y-15464489D01*
X36198401Y-15406168D01*
X36177054Y-15301851D01*
X36180357Y-15105540D01*
X36241980Y-14875558D01*
X36337276Y-14703896D01*
X36407922Y-14624228D01*
X36466243Y-14590556D01*
X36570560Y-14569209D01*
X36662553Y-14593859D01*
X36742222Y-14664505D01*
X36775893Y-14722826D01*
X36797240Y-14827144D01*
X36793938Y-15023454D01*
X36732314Y-15253437D01*
X36637019Y-15425098D01*
X36566373Y-15504766D01*
X36508052Y-15538438D01*
X36403734Y-15559785D01*
%TO.C,H18*%
X44542071Y-16280707D02*
X44283252Y-17246633D01*
X44406500Y-16786668D02*
X43854542Y-16638771D01*
X43990114Y-16132810D02*
X43731295Y-17098736D01*
X43024188Y-15873991D02*
X43576146Y-16021888D01*
X43300167Y-15947939D02*
X43041348Y-16913865D01*
X43170315Y-16800525D01*
X43286957Y-16733182D01*
X43391275Y-16711835D01*
X42324334Y-16278052D02*
X42404002Y-16348698D01*
X42437674Y-16407019D01*
X42459021Y-16511337D01*
X42446696Y-16557333D01*
X42376050Y-16637001D01*
X42317729Y-16670673D01*
X42213411Y-16692020D01*
X42029425Y-16642721D01*
X41949757Y-16572076D01*
X41916086Y-16513754D01*
X41894738Y-16409437D01*
X41907063Y-16363440D01*
X41977709Y-16283772D01*
X42036030Y-16250100D01*
X42140348Y-16228753D01*
X42324334Y-16278052D01*
X42428651Y-16256705D01*
X42486973Y-16223033D01*
X42557619Y-16143365D01*
X42606917Y-15959379D01*
X42585570Y-15855062D01*
X42551899Y-15796740D01*
X42472230Y-15726094D01*
X42288245Y-15676796D01*
X42183927Y-15698143D01*
X42125606Y-15731814D01*
X42054960Y-15811483D01*
X42005661Y-15995468D01*
X42027008Y-16099786D01*
X42060680Y-16158107D01*
X42140348Y-16228753D01*
%TO.C,R1*%
X-11166666Y24272619D02*
X-11500000Y24748809D01*
X-11738095Y24272619D02*
X-11738095Y25272619D01*
X-11357142Y25272619D01*
X-11261904Y25225000D01*
X-11214285Y25177380D01*
X-11166666Y25082142D01*
X-11166666Y24939285D01*
X-11214285Y24844047D01*
X-11261904Y24796428D01*
X-11357142Y24748809D01*
X-11738095Y24748809D01*
X-10214285Y24272619D02*
X-10785714Y24272619D01*
X-10500000Y24272619D02*
X-10500000Y25272619D01*
X-10595238Y25129761D01*
X-10690476Y25034523D01*
X-10785714Y24986904D01*
%TO.C,H8*%
X-46254955Y-8048282D02*
X-46513774Y-7082357D01*
X-46390527Y-7542321D02*
X-45838569Y-7394425D01*
X-45702998Y-7900386D02*
X-45961817Y-6934460D01*
X-45252940Y-7188207D02*
X-45357258Y-7166860D01*
X-45415579Y-7133188D01*
X-45486225Y-7053520D01*
X-45498550Y-7007523D01*
X-45477202Y-6903206D01*
X-45443531Y-6844885D01*
X-45363863Y-6774239D01*
X-45179877Y-6724940D01*
X-45075559Y-6746287D01*
X-45017238Y-6779959D01*
X-44946592Y-6859627D01*
X-44934267Y-6905623D01*
X-44955614Y-7009941D01*
X-44989286Y-7068262D01*
X-45068954Y-7138908D01*
X-45252940Y-7188207D01*
X-45332608Y-7258853D01*
X-45366280Y-7317174D01*
X-45387627Y-7421492D01*
X-45338328Y-7605477D01*
X-45267682Y-7685146D01*
X-45209361Y-7718817D01*
X-45105043Y-7740164D01*
X-44921058Y-7690866D01*
X-44841389Y-7620220D01*
X-44807718Y-7561899D01*
X-44786371Y-7457581D01*
X-44835669Y-7273595D01*
X-44906315Y-7193927D01*
X-44964637Y-7160255D01*
X-45068954Y-7138908D01*
%TO.C,J15*%
X-5607619Y-40809523D02*
X-4893333Y-40809523D01*
X-4750476Y-40857142D01*
X-4655238Y-40952380D01*
X-4607619Y-41095238D01*
X-4607619Y-41190476D01*
X-4607619Y-39809523D02*
X-4607619Y-40380952D01*
X-4607619Y-40095238D02*
X-5607619Y-40095238D01*
X-5464761Y-40190476D01*
X-5369523Y-40285714D01*
X-5321904Y-40380952D01*
X-5607619Y-38904761D02*
X-5607619Y-39380952D01*
X-5131428Y-39428571D01*
X-5179047Y-39380952D01*
X-5226666Y-39285714D01*
X-5226666Y-39047619D01*
X-5179047Y-38952380D01*
X-5131428Y-38904761D01*
X-5036190Y-38857142D01*
X-4798095Y-38857142D01*
X-4702857Y-38904761D01*
X-4655238Y-38952380D01*
X-4607619Y-39047619D01*
X-4607619Y-39285714D01*
X-4655238Y-39380952D01*
X-4702857Y-39428571D01*
%TO.C,H6*%
X-42376050Y16637001D02*
X-42634869Y15671076D01*
X-42511622Y16131040D02*
X-43063580Y16278937D01*
X-42928008Y16784898D02*
X-43186827Y15818972D01*
X-44060760Y16053142D02*
X-43876774Y16003843D01*
X-43772456Y16025190D01*
X-43714135Y16058862D01*
X-43585168Y16172202D01*
X-43489873Y16343863D01*
X-43391275Y16711835D01*
X-43412622Y16816152D01*
X-43446294Y16874473D01*
X-43525962Y16945119D01*
X-43709948Y16994418D01*
X-43814265Y16973071D01*
X-43872587Y16939399D01*
X-43943233Y16859731D01*
X-44004856Y16629749D01*
X-43983509Y16525431D01*
X-43949837Y16467110D01*
X-43870169Y16396464D01*
X-43686183Y16347165D01*
X-43581866Y16368512D01*
X-43523544Y16402184D01*
X-43452898Y16481852D01*
%TO.C,J4*%
X-5907863Y39482947D02*
X-5217916Y39667818D01*
X-5067602Y39658795D01*
X-4950959Y39591452D01*
X-4867989Y39465787D01*
X-4843339Y39373794D01*
X-5820057Y40443153D02*
X-5176107Y40615699D01*
X-6126405Y40114573D02*
X-5374835Y40069461D01*
X-5535056Y40667415D01*
%TO.C,H14*%
X8171530Y-46714920D02*
X7205604Y-46973739D01*
X7665568Y-46850492D02*
X7517672Y-46298534D01*
X8023633Y-46162962D02*
X7057707Y-46421781D01*
X7764814Y-45197036D02*
X7912711Y-45748994D01*
X7838762Y-45473015D02*
X6872836Y-45731834D01*
X7035475Y-45786853D01*
X7152118Y-45854197D01*
X7222764Y-45933865D01*
X6899018Y-44541646D02*
X7542969Y-44369100D01*
X6592670Y-44870226D02*
X7344241Y-44915338D01*
X7184020Y-44317384D01*
%TO.C,H12*%
X-16280707Y-44542071D02*
X-17246633Y-44283252D01*
X-16786668Y-44406500D02*
X-16638771Y-43854542D01*
X-16132810Y-43990114D02*
X-17098736Y-43731295D01*
X-15873991Y-43024188D02*
X-16021888Y-43576146D01*
X-15947939Y-43300167D02*
X-16913865Y-43041348D01*
X-16800525Y-43170315D01*
X-16733182Y-43286957D01*
X-16711835Y-43391275D01*
X-16649326Y-42422047D02*
X-16682998Y-42363725D01*
X-16704345Y-42259408D01*
X-16642721Y-42029425D01*
X-16572076Y-41949757D01*
X-16513754Y-41916086D01*
X-16409437Y-41894738D01*
X-16317444Y-41919388D01*
X-16191779Y-42002359D01*
X-15787718Y-42702213D01*
X-15627497Y-42104259D01*
%TO.C,H5*%
X-36626149Y27037839D02*
X-37126149Y26171813D01*
X-36888054Y26584206D02*
X-37382926Y26869920D01*
X-37121021Y27323553D02*
X-37621021Y26457527D01*
X-38445807Y26933718D02*
X-38033414Y26695623D01*
X-37754079Y27084206D01*
X-37819128Y27066776D01*
X-37925416Y27073156D01*
X-38131613Y27192204D01*
X-38190282Y27281062D01*
X-38207712Y27346111D01*
X-38201332Y27452399D01*
X-38082284Y27658596D01*
X-37993426Y27717265D01*
X-37928377Y27734694D01*
X-37822089Y27728315D01*
X-37615892Y27609267D01*
X-37557223Y27520409D01*
X-37539794Y27455360D01*
%TO.C,J16*%
X5145737Y-40870331D02*
X5835684Y-40685460D01*
X5985998Y-40694482D01*
X6102641Y-40761826D01*
X6185611Y-40887490D01*
X6210261Y-40979483D01*
X5852844Y-39645586D02*
X6000741Y-40197543D01*
X5926792Y-39921565D02*
X4960867Y-40180384D01*
X5123505Y-40235402D01*
X5240148Y-40302746D01*
X5310794Y-40382414D01*
X4665073Y-39076468D02*
X4714372Y-39260454D01*
X4785018Y-39340123D01*
X4843339Y-39373794D01*
X5005978Y-39428813D01*
X5202289Y-39425511D01*
X5570260Y-39326913D01*
X5649929Y-39256267D01*
X5683600Y-39197946D01*
X5704947Y-39093628D01*
X5655649Y-38909642D01*
X5585003Y-38829974D01*
X5526682Y-38796302D01*
X5422364Y-38774955D01*
X5192382Y-38836579D01*
X5112713Y-38907225D01*
X5079042Y-38965546D01*
X5057695Y-39069864D01*
X5106993Y-39253850D01*
X5177639Y-39333518D01*
X5235960Y-39367189D01*
X5340278Y-39388537D01*
%TO.C,C2*%
X-23166666Y-5107142D02*
X-23214285Y-5154761D01*
X-23357142Y-5202380D01*
X-23452380Y-5202380D01*
X-23595238Y-5154761D01*
X-23690476Y-5059523D01*
X-23738095Y-4964285D01*
X-23785714Y-4773809D01*
X-23785714Y-4630952D01*
X-23738095Y-4440476D01*
X-23690476Y-4345238D01*
X-23595238Y-4250000D01*
X-23452380Y-4202380D01*
X-23357142Y-4202380D01*
X-23214285Y-4250000D01*
X-23166666Y-4297619D01*
X-22785714Y-4297619D02*
X-22738095Y-4250000D01*
X-22642857Y-4202380D01*
X-22404761Y-4202380D01*
X-22309523Y-4250000D01*
X-22261904Y-4297619D01*
X-22214285Y-4392857D01*
X-22214285Y-4488095D01*
X-22261904Y-4630952D01*
X-22833333Y-5202380D01*
X-22214285Y-5202380D01*
%TO.C,H21*%
X41316137Y17962160D02*
X40816137Y18828186D01*
X41054232Y18415793D02*
X41549104Y18701507D01*
X41811009Y18247875D02*
X41311009Y19113900D01*
X41729781Y19245707D02*
X41747211Y19310756D01*
X41805880Y19399614D01*
X42012077Y19518662D01*
X42118365Y19525042D01*
X42183414Y19507612D01*
X42272272Y19448943D01*
X42319891Y19366464D01*
X42350081Y19218937D01*
X42140923Y18438351D01*
X42677034Y18747875D01*
X43501820Y19224065D02*
X43006949Y18938351D01*
X43254384Y19081208D02*
X42754384Y19947234D01*
X42743334Y19775897D01*
X42708475Y19645799D01*
X42649806Y19556941D01*
%TO.C,H11*%
X-27254292Y-38810581D02*
X-28120317Y-38310581D01*
X-27707924Y-38548676D02*
X-27422210Y-38053804D01*
X-26968577Y-38315709D02*
X-27834603Y-37815709D01*
X-26468577Y-37449684D02*
X-26754292Y-37944556D01*
X-26611435Y-37697120D02*
X-27477460Y-37197120D01*
X-27401361Y-37351027D01*
X-27366502Y-37481125D01*
X-27372881Y-37587413D01*
X-25992387Y-36624898D02*
X-26278101Y-37119769D01*
X-26135244Y-36872334D02*
X-27001270Y-36372334D01*
X-26925171Y-36526241D01*
X-26890311Y-36656338D01*
X-26896691Y-36762627D01*
%TO.C,H2*%
X-6779959Y45017238D02*
X-7745884Y44758419D01*
X-7285920Y44881666D02*
X-7433816Y45433624D01*
X-6927855Y45569195D02*
X-7893781Y45310376D01*
X-7912711Y45748994D02*
X-7971032Y45782666D01*
X-8041678Y45862334D01*
X-8103301Y46092316D01*
X-8081954Y46196634D01*
X-8048282Y46254955D01*
X-7968614Y46325601D01*
X-7876621Y46350251D01*
X-7726307Y46341228D01*
X-7026453Y45937167D01*
X-7186674Y46535121D01*
%TO.C,C3*%
X-23166666Y-3107142D02*
X-23214285Y-3154761D01*
X-23357142Y-3202380D01*
X-23452380Y-3202380D01*
X-23595238Y-3154761D01*
X-23690476Y-3059523D01*
X-23738095Y-2964285D01*
X-23785714Y-2773809D01*
X-23785714Y-2630952D01*
X-23738095Y-2440476D01*
X-23690476Y-2345238D01*
X-23595238Y-2250000D01*
X-23452380Y-2202380D01*
X-23357142Y-2202380D01*
X-23214285Y-2250000D01*
X-23166666Y-2297619D01*
X-22833333Y-2202380D02*
X-22214285Y-2202380D01*
X-22547619Y-2583333D01*
X-22404761Y-2583333D01*
X-22309523Y-2630952D01*
X-22261904Y-2678571D01*
X-22214285Y-2773809D01*
X-22214285Y-3011904D01*
X-22261904Y-3107142D01*
X-22309523Y-3154761D01*
X-22404761Y-3202380D01*
X-22690476Y-3202380D01*
X-22785714Y-3154761D01*
X-22833333Y-3107142D01*
%TO.C,J29*%
X-26659523Y8547619D02*
X-26659523Y7833333D01*
X-26707142Y7690476D01*
X-26802380Y7595238D01*
X-26945238Y7547619D01*
X-27040476Y7547619D01*
X-26230952Y8452380D02*
X-26183333Y8500000D01*
X-26088095Y8547619D01*
X-25850000Y8547619D01*
X-25754761Y8500000D01*
X-25707142Y8452380D01*
X-25659523Y8357142D01*
X-25659523Y8261904D01*
X-25707142Y8119047D01*
X-26278571Y7547619D01*
X-25659523Y7547619D01*
X-25183333Y7547619D02*
X-24992857Y7547619D01*
X-24897619Y7595238D01*
X-24850000Y7642857D01*
X-24754761Y7785714D01*
X-24707142Y7976190D01*
X-24707142Y8357142D01*
X-24754761Y8452380D01*
X-24802380Y8500000D01*
X-24897619Y8547619D01*
X-25088095Y8547619D01*
X-25183333Y8500000D01*
X-25230952Y8452380D01*
X-25278571Y8357142D01*
X-25278571Y8119047D01*
X-25230952Y8023809D01*
X-25183333Y7976190D01*
X-25088095Y7928571D01*
X-24897619Y7928571D01*
X-24802380Y7976190D01*
X-24754761Y8023809D01*
X-24707142Y8119047D01*
%TO.C,J6*%
X-24857833Y31239303D02*
X-24352757Y31744379D01*
X-24218070Y31811723D01*
X-24083383Y31811723D01*
X-23948696Y31744379D01*
X-23881353Y31677036D01*
X-25497597Y31879066D02*
X-25362910Y31744379D01*
X-25261894Y31710708D01*
X-25194551Y31710708D01*
X-25026192Y31744379D01*
X-24857833Y31845395D01*
X-24588459Y32114769D01*
X-24554788Y32215784D01*
X-24554788Y32283127D01*
X-24588459Y32384143D01*
X-24723146Y32518830D01*
X-24824162Y32552501D01*
X-24891505Y32552501D01*
X-24992520Y32518830D01*
X-25160879Y32350471D01*
X-25194551Y32249456D01*
X-25194551Y32182112D01*
X-25160879Y32081097D01*
X-25026192Y31946410D01*
X-24925177Y31912738D01*
X-24857833Y31912738D01*
X-24756818Y31946410D01*
%TO.C,J25*%
X23503074Y31683758D02*
X24121663Y31326615D01*
X24221572Y31213947D01*
X24256431Y31083849D01*
X24226242Y30936322D01*
X24178623Y30853843D01*
X23799838Y32007293D02*
X23782408Y32072341D01*
X23788788Y32178629D01*
X23907835Y32384826D01*
X23996694Y32443495D01*
X24061743Y32460925D01*
X24168031Y32454545D01*
X24250509Y32406926D01*
X24350418Y32294258D01*
X24559575Y31513672D01*
X24869099Y32049783D01*
X24455455Y33333330D02*
X24217359Y32920937D01*
X24605943Y32641602D01*
X24588513Y32706651D01*
X24594893Y32812939D01*
X24713940Y33019136D01*
X24802799Y33077805D01*
X24867848Y33095235D01*
X24974136Y33088855D01*
X25180332Y32969807D01*
X25239001Y32880949D01*
X25256431Y32815900D01*
X25250051Y32709612D01*
X25131004Y32503416D01*
X25042145Y32444747D01*
X24977097Y32427317D01*
%TO.C,R2*%
X-11166666Y21172619D02*
X-11500000Y21648809D01*
X-11738095Y21172619D02*
X-11738095Y22172619D01*
X-11357142Y22172619D01*
X-11261904Y22125000D01*
X-11214285Y22077380D01*
X-11166666Y21982142D01*
X-11166666Y21839285D01*
X-11214285Y21744047D01*
X-11261904Y21696428D01*
X-11357142Y21648809D01*
X-11738095Y21648809D01*
X-10785714Y22077380D02*
X-10738095Y22125000D01*
X-10642857Y22172619D01*
X-10404761Y22172619D01*
X-10309523Y22125000D01*
X-10261904Y22077380D01*
X-10214285Y21982142D01*
X-10214285Y21886904D01*
X-10261904Y21744047D01*
X-10833333Y21172619D01*
X-10214285Y21172619D01*
%TO.C,J23*%
X36196139Y15687402D02*
X36553282Y15068812D01*
X36583471Y14921285D01*
X36548611Y14791187D01*
X36448703Y14678519D01*
X36366224Y14630900D01*
X36614912Y15819209D02*
X36632341Y15884258D01*
X36691010Y15973116D01*
X36897207Y16092164D01*
X37003495Y16098543D01*
X37068544Y16081113D01*
X37157402Y16022444D01*
X37205021Y15939966D01*
X37235211Y15792438D01*
X37026053Y15011852D01*
X37562164Y15321376D01*
X37350839Y16354068D02*
X37886950Y16663592D01*
X37788751Y16167011D01*
X37912469Y16238440D01*
X38018757Y16244819D01*
X38083806Y16227390D01*
X38172665Y16168720D01*
X38291712Y15962524D01*
X38298092Y15856236D01*
X38280662Y15791187D01*
X38221993Y15702329D01*
X37974557Y15559471D01*
X37868269Y15553092D01*
X37803220Y15570521D01*
%TO.C,J14*%
X-15978825Y-37967614D02*
X-15288878Y-38152485D01*
X-15163213Y-38235456D01*
X-15095870Y-38352098D01*
X-15086848Y-38502412D01*
X-15111497Y-38594405D01*
X-14754080Y-37260507D02*
X-14901977Y-37812465D01*
X-14828028Y-37536486D02*
X-15793954Y-37277667D01*
X-15680614Y-37406634D01*
X-15613271Y-37523277D01*
X-15591924Y-37627594D01*
X-15176186Y-36260025D02*
X-14532235Y-36432571D01*
X-15605781Y-36391410D02*
X-14977458Y-36806263D01*
X-14817236Y-36208309D01*
%TO.C,J7*%
X-32096151Y23741169D02*
X-31739008Y24359758D01*
X-31626340Y24459667D01*
X-31496242Y24494526D01*
X-31348715Y24464337D01*
X-31266236Y24416718D01*
X-32426065Y23931645D02*
X-33003416Y24264978D01*
X-32132262Y24916718D01*
%TO.C,J17*%
X15548421Y-38145894D02*
X16167011Y-37788751D01*
X16314538Y-37758562D01*
X16444636Y-37793422D01*
X16557304Y-37893330D01*
X16604923Y-37975809D01*
X15914447Y-36779869D02*
X16200161Y-37274740D01*
X16057304Y-37027305D02*
X15191279Y-37527305D01*
X15362616Y-37538355D01*
X15492713Y-37573214D01*
X15581572Y-37631883D01*
X14881755Y-36991194D02*
X14548421Y-36413843D01*
X15628733Y-36284997D01*
%TO.C,H4*%
X-28380235Y35596092D02*
X-29087342Y34888985D01*
X-28750624Y35225703D02*
X-29154685Y35629764D01*
X-28784296Y36000153D02*
X-29491403Y35293046D01*
X-29895464Y36168512D02*
X-29424059Y36639916D01*
X-29996479Y35730779D02*
X-29323044Y36067497D01*
X-29760777Y36505229D01*
%TO.C,H20*%
X44557273Y6656711D02*
X44298454Y7622637D01*
X44421701Y7162673D02*
X44973659Y7310569D01*
X45109231Y6804608D02*
X44850412Y7770534D01*
X45289029Y7789463D02*
X45322701Y7847785D01*
X45402369Y7918430D01*
X45632352Y7980054D01*
X45736669Y7958707D01*
X45794991Y7925035D01*
X45865636Y7845367D01*
X45890286Y7753374D01*
X45881264Y7603060D01*
X45477202Y6903206D01*
X46075157Y7063427D01*
X46414292Y8189574D02*
X46506285Y8214224D01*
X46610602Y8192877D01*
X46668923Y8159205D01*
X46739569Y8079537D01*
X46834865Y7907875D01*
X46896488Y7677893D01*
X46899791Y7481583D01*
X46878444Y7377265D01*
X46844772Y7318944D01*
X46765104Y7248298D01*
X46673111Y7223648D01*
X46568793Y7244995D01*
X46510472Y7278667D01*
X46439826Y7358335D01*
X46344531Y7529997D01*
X46282907Y7759979D01*
X46279605Y7956289D01*
X46300952Y8060607D01*
X46334623Y8118928D01*
X46414292Y8189574D01*
%TO.C,H16*%
X30434212Y-36370542D02*
X29727105Y-37077649D01*
X30063822Y-36740932D02*
X29659761Y-36336871D01*
X30030151Y-35966481D02*
X29323044Y-36673588D01*
X29323044Y-35259375D02*
X29727105Y-35663436D01*
X29525074Y-35461405D02*
X28817968Y-36168512D01*
X28986326Y-36134840D01*
X29121013Y-36134840D01*
X29222029Y-36168512D01*
X28009846Y-35360390D02*
X28144533Y-35495077D01*
X28245548Y-35528749D01*
X28312891Y-35528749D01*
X28481250Y-35495077D01*
X28649609Y-35394062D01*
X28918983Y-35124688D01*
X28952655Y-35023672D01*
X28952655Y-34956329D01*
X28918983Y-34855314D01*
X28784296Y-34720627D01*
X28683281Y-34686955D01*
X28615937Y-34686955D01*
X28514922Y-34720627D01*
X28346563Y-34888985D01*
X28312891Y-34990001D01*
X28312891Y-35057344D01*
X28346563Y-35158359D01*
X28481250Y-35293046D01*
X28582265Y-35326718D01*
X28649609Y-35326718D01*
X28750624Y-35293046D01*
%TO.C,H3*%
X-18200256Y41728530D02*
X-19066281Y41228530D01*
X-18653888Y41466625D02*
X-18939602Y41961497D01*
X-18485970Y42223402D02*
X-19351995Y41723402D01*
X-19542472Y42053316D02*
X-19851995Y42589427D01*
X-19355414Y42491228D01*
X-19426843Y42614946D01*
X-19433223Y42721234D01*
X-19415793Y42786283D01*
X-19357124Y42875141D01*
X-19150927Y42994189D01*
X-19044639Y43000569D01*
X-18979590Y42983139D01*
X-18890732Y42924470D01*
X-18747875Y42677034D01*
X-18741495Y42570746D01*
X-18758925Y42505697D01*
%TO.C,H19*%
X44761904Y-5102380D02*
X44761904Y-4102380D01*
X44761904Y-4578571D02*
X45333333Y-4578571D01*
X45333333Y-5102380D02*
X45333333Y-4102380D01*
X46333333Y-5102380D02*
X45761904Y-5102380D01*
X46047619Y-5102380D02*
X46047619Y-4102380D01*
X45952380Y-4245238D01*
X45857142Y-4340476D01*
X45761904Y-4388095D01*
X46809523Y-5102380D02*
X47000000Y-5102380D01*
X47095238Y-5054761D01*
X47142857Y-5007142D01*
X47238095Y-4864285D01*
X47285714Y-4673809D01*
X47285714Y-4292857D01*
X47238095Y-4197619D01*
X47190476Y-4150000D01*
X47095238Y-4102380D01*
X46904761Y-4102380D01*
X46809523Y-4150000D01*
X46761904Y-4197619D01*
X46714285Y-4292857D01*
X46714285Y-4530952D01*
X46761904Y-4626190D01*
X46809523Y-4673809D01*
X46904761Y-4721428D01*
X47095238Y-4721428D01*
X47190476Y-4673809D01*
X47238095Y-4626190D01*
X47285714Y-4530952D01*
D13*
%TO.C,J11*%
X-34887004Y-15453937D02*
X-30827004Y-22486063D01*
X-36671017Y-16483937D02*
X-34887004Y-15453937D01*
X-35641017Y-18267949D02*
X-36671017Y-16483937D01*
X-37925029Y-18431924D02*
X-38455029Y-17513937D01*
X-37425029Y-19297949D02*
X-35641017Y-18267949D01*
X-38455029Y-17513937D02*
X-37537042Y-16983937D01*
X-37425029Y-19297949D02*
X-34395029Y-24546063D01*
X-34395029Y-24546063D02*
X-30827004Y-22486063D01*
%TO.C,J10*%
X-41144478Y-8954077D02*
X-39576035Y-14807588D01*
X-39576035Y-14807588D02*
X-35596421Y-13741253D01*
X-41677646Y-6964270D02*
X-40653764Y-6689922D01*
X-39154671Y-8420910D02*
X-39687838Y-6431103D01*
X-41144478Y-8954077D02*
X-39154671Y-8420910D01*
X-39687838Y-6431103D02*
X-37698031Y-5897935D01*
X-41403297Y-7988151D02*
X-41677646Y-6964270D01*
X-37698031Y-5897935D02*
X-35596421Y-13741253D01*
%TO.C,J13*%
X-23628076Y-34925029D02*
X-24546063Y-34395029D01*
X-21732051Y-33641017D02*
X-23516063Y-32611017D01*
X-24546063Y-34395029D02*
X-24016063Y-33477042D01*
X-23516063Y-32611017D02*
X-22486063Y-30827004D01*
X-22762051Y-35425029D02*
X-21732051Y-33641017D01*
X-22762051Y-35425029D02*
X-17513937Y-38455029D01*
X-17513937Y-38455029D02*
X-15453937Y-34887004D01*
X-22486063Y-30827004D02*
X-15453937Y-34887004D01*
%TO.C,C1*%
X-21190000Y27915580D02*
X-21190000Y27634420D01*
X-22210000Y27915580D02*
X-22210000Y27634420D01*
%TO.C,J22*%
X41403297Y7988151D02*
X41677646Y6964270D01*
X41144478Y8954077D02*
X39576035Y14807588D01*
X39687838Y6431103D02*
X37698031Y5897935D01*
X39576035Y14807588D02*
X35596421Y13741253D01*
X37698031Y5897935D02*
X35596421Y13741253D01*
X41677646Y6964270D02*
X40653764Y6689922D01*
X39154671Y8420910D02*
X39687838Y6431103D01*
X41144478Y8954077D02*
X39154671Y8420910D01*
%TO.C,C5*%
X-22235000Y-10738748D02*
X-22235000Y-11261252D01*
X-20765000Y-10738748D02*
X-20765000Y-11261252D01*
%TO.C,J24*%
X31862231Y27619591D02*
X32611764Y26870058D01*
X26870057Y32611765D02*
X23956777Y29698485D01*
X29698484Y26870058D02*
X31155124Y25413418D01*
X32611764Y26870058D02*
X31862231Y26120525D01*
X31155124Y28326698D02*
X26870057Y32611765D01*
X31155124Y28326698D02*
X29698484Y26870058D01*
X31155124Y25413418D02*
X29698484Y23956778D01*
X29698484Y23956778D02*
X23956777Y29698485D01*
%TO.C,J21*%
X40000000Y-4060000D02*
X37940000Y-4060000D01*
X42060000Y-3000000D02*
X42060000Y-4060000D01*
X42060000Y4060000D02*
X37940000Y4060000D01*
X42060000Y-2000000D02*
X42060000Y4060000D01*
X42060000Y-4060000D02*
X41000000Y-4060000D01*
X40000000Y-2000000D02*
X40000000Y-4060000D01*
X37940000Y-4060000D02*
X37940000Y4060000D01*
X42060000Y-2000000D02*
X40000000Y-2000000D01*
%TO.C,U1*%
X-28910000Y-6590000D02*
X-28910000Y-7850000D01*
X-25150000Y-6590000D02*
X-28910000Y-6590000D01*
X-28910000Y-13410000D02*
X-28910000Y-12150000D01*
X-22900000Y-13410000D02*
X-28910000Y-13410000D01*
%TO.C,J12*%
X-31862231Y-27619591D02*
X-32611764Y-26870058D01*
X-31155124Y-28326698D02*
X-26870057Y-32611765D01*
X-29698484Y-23956778D02*
X-23956777Y-29698485D01*
X-32611764Y-26870058D02*
X-31862231Y-26120525D01*
X-26870057Y-32611765D02*
X-23956777Y-29698485D01*
X-31155124Y-28326698D02*
X-29698484Y-26870058D01*
X-31155124Y-25413418D02*
X-29698484Y-23956778D01*
X-29698484Y-26870058D02*
X-31155124Y-25413418D01*
%TO.C,J19*%
X35425029Y-22762051D02*
X38455029Y-17513937D01*
X38455029Y-17513937D02*
X34887004Y-15453937D01*
X33641017Y-21732051D02*
X32611017Y-23516063D01*
X30827004Y-22486063D02*
X34887004Y-15453937D01*
X35425029Y-22762051D02*
X33641017Y-21732051D01*
X34395029Y-24546063D02*
X33477042Y-24016063D01*
X34925029Y-23628076D02*
X34395029Y-24546063D01*
X32611017Y-23516063D02*
X30827004Y-22486063D01*
%TO.C,J26*%
X14807588Y39576035D02*
X14533239Y38552154D01*
X12817780Y40109202D02*
X12284613Y38119395D01*
X13741253Y35596421D02*
X5897935Y37698031D01*
X12817780Y40109202D02*
X6964270Y41677646D01*
X14274420Y37586228D02*
X13741253Y35596421D01*
X13783706Y39850383D02*
X14807588Y39576035D01*
X6964270Y41677646D02*
X5897935Y37698031D01*
X12284613Y38119395D02*
X14274420Y37586228D01*
%TO.C,J2*%
X4060000Y37940000D02*
X-4060000Y37940000D01*
X2000000Y40000000D02*
X4060000Y40000000D01*
X4060000Y40000000D02*
X4060000Y37940000D01*
X2000000Y42060000D02*
X2000000Y40000000D01*
X-4060000Y42060000D02*
X-4060000Y37940000D01*
X3000000Y42060000D02*
X4060000Y42060000D01*
X2000000Y42060000D02*
X-4060000Y42060000D01*
X4060000Y42060000D02*
X4060000Y41000000D01*
%TO.C,J5*%
X-24546063Y34395029D02*
X-22486063Y30827004D01*
X-17513937Y38455029D02*
X-16983937Y37537042D01*
X-15453937Y34887004D02*
X-22486063Y30827004D01*
X-18431924Y37925029D02*
X-17513937Y38455029D01*
X-18267949Y35641017D02*
X-16483937Y36671017D01*
X-16483937Y36671017D02*
X-15453937Y34887004D01*
X-19297949Y37425029D02*
X-18267949Y35641017D01*
X-19297949Y37425029D02*
X-24546063Y34395029D01*
%TO.C,J18*%
X25413418Y-31155124D02*
X23956778Y-29698484D01*
X27619591Y-31862231D02*
X26870058Y-32611764D01*
X23956778Y-29698484D02*
X29698485Y-23956777D01*
X32611765Y-26870057D02*
X29698485Y-23956777D01*
X28326698Y-31155124D02*
X32611765Y-26870057D01*
X26870058Y-32611764D02*
X26120525Y-31862231D01*
X28326698Y-31155124D02*
X26870058Y-29698484D01*
X26870058Y-29698484D02*
X25413418Y-31155124D01*
%TO.C,J8*%
X-40109202Y12817780D02*
X-41677646Y6964270D01*
X-35596421Y13741253D02*
X-37698031Y5897935D01*
X-38119395Y12284613D02*
X-37586228Y14274420D01*
X-41677646Y6964270D02*
X-37698031Y5897935D01*
X-40109202Y12817780D02*
X-38119395Y12284613D01*
X-37586228Y14274420D02*
X-35596421Y13741253D01*
X-39576035Y14807588D02*
X-38552154Y14533239D01*
X-39850383Y13783706D02*
X-39576035Y14807588D01*
%TO.C,C4*%
X-18765000Y-10738748D02*
X-18765000Y-11261252D01*
X-20235000Y-10738748D02*
X-20235000Y-11261252D01*
%TO.C,J9*%
X-42060000Y4060000D02*
X-41000000Y4060000D01*
X-37940000Y4060000D02*
X-37940000Y-4060000D01*
X-40000000Y4060000D02*
X-37940000Y4060000D01*
X-42060000Y-4060000D02*
X-37940000Y-4060000D01*
X-40000000Y2000000D02*
X-40000000Y4060000D01*
X-42060000Y3000000D02*
X-42060000Y4060000D01*
X-42060000Y2000000D02*
X-42060000Y-4060000D01*
X-42060000Y2000000D02*
X-40000000Y2000000D01*
%TO.C,J20*%
X37586228Y-14274420D02*
X35596421Y-13741253D01*
X39576035Y-14807588D02*
X38552154Y-14533239D01*
X41677646Y-6964270D02*
X37698031Y-5897935D01*
X35596421Y-13741253D02*
X37698031Y-5897935D01*
X40109202Y-12817780D02*
X38119395Y-12284613D01*
X38119395Y-12284613D02*
X37586228Y-14274420D01*
X40109202Y-12817780D02*
X41677646Y-6964270D01*
X39850383Y-13783706D02*
X39576035Y-14807588D01*
%TO.C,R1*%
X-9722500Y24487742D02*
X-9722500Y24962258D01*
X-8677500Y24487742D02*
X-8677500Y24962258D01*
%TO.C,J15*%
X-3000000Y-42060000D02*
X-4060000Y-42060000D01*
X-4060000Y-42060000D02*
X-4060000Y-41000000D01*
X-4060000Y-37940000D02*
X4060000Y-37940000D01*
X4060000Y-42060000D02*
X4060000Y-37940000D01*
X-4060000Y-40000000D02*
X-4060000Y-37940000D01*
X-2000000Y-42060000D02*
X4060000Y-42060000D01*
X-2000000Y-40000000D02*
X-4060000Y-40000000D01*
X-2000000Y-42060000D02*
X-2000000Y-40000000D01*
%TO.C,J4*%
X-7988151Y41403297D02*
X-6964270Y41677646D01*
X-6431103Y39687838D02*
X-5897935Y37698031D01*
X-6964270Y41677646D02*
X-6689922Y40653764D01*
X-8420910Y39154671D02*
X-6431103Y39687838D01*
X-8954077Y41144478D02*
X-8420910Y39154671D01*
X-5897935Y37698031D02*
X-13741253Y35596421D01*
X-14807588Y39576035D02*
X-13741253Y35596421D01*
X-8954077Y41144478D02*
X-14807588Y39576035D01*
%TO.C,J16*%
X8954077Y-41144478D02*
X14807588Y-39576035D01*
X8954077Y-41144478D02*
X8420910Y-39154671D01*
X7988151Y-41403297D02*
X6964270Y-41677646D01*
X5897935Y-37698031D02*
X13741253Y-35596421D01*
X8420910Y-39154671D02*
X6431103Y-39687838D01*
X6964270Y-41677646D02*
X6689922Y-40653764D01*
X14807588Y-39576035D02*
X13741253Y-35596421D01*
X6431103Y-39687838D02*
X5897935Y-37698031D01*
%TO.C,C2*%
X-25638748Y-3965000D02*
X-26161252Y-3965000D01*
X-25638748Y-5435000D02*
X-26161252Y-5435000D01*
%TO.C,C3*%
X-25638748Y-3435000D02*
X-26161252Y-3435000D01*
X-25638748Y-1965000D02*
X-26161252Y-1965000D01*
%TO.C,J29*%
X-24340000Y10600000D02*
X-23770000Y10600000D01*
X-23770000Y3960000D02*
X-23770000Y5400000D01*
X-22250000Y5400000D02*
X-21230000Y5400000D01*
X-22250000Y10600000D02*
X-21230000Y10600000D01*
X-24340000Y5400000D02*
X-23770000Y5400000D01*
X-19710000Y10600000D02*
X-18690000Y10600000D01*
X-14630000Y5400000D02*
X-14060000Y5400000D01*
X-14630000Y10600000D02*
X-14060000Y10600000D01*
X-19710000Y5400000D02*
X-18690000Y5400000D01*
X-17170000Y5400000D02*
X-16150000Y5400000D01*
X-14060000Y5400000D02*
X-14060000Y10600000D01*
X-17170000Y10600000D02*
X-16150000Y10600000D01*
X-24340000Y5400000D02*
X-24340000Y10600000D01*
%TO.C,J6*%
X-27619591Y31862231D02*
X-26870058Y32611764D01*
X-26870058Y29698484D02*
X-25413418Y31155124D01*
X-28326698Y31155124D02*
X-32611765Y26870057D01*
X-28326698Y31155124D02*
X-26870058Y29698484D01*
X-26870058Y32611764D02*
X-26120525Y31862231D01*
X-25413418Y31155124D02*
X-23956778Y29698484D01*
X-32611765Y26870057D02*
X-29698485Y23956777D01*
X-23956778Y29698484D02*
X-29698485Y23956777D01*
%TO.C,J25*%
X22486063Y30827004D02*
X15453937Y34887004D01*
X17513937Y38455029D02*
X15453937Y34887004D01*
X24546063Y34395029D02*
X24016063Y33477042D01*
X22762051Y35425029D02*
X21732051Y33641017D01*
X22762051Y35425029D02*
X17513937Y38455029D01*
X23628076Y34925029D02*
X24546063Y34395029D01*
X21732051Y33641017D02*
X23516063Y32611017D01*
X23516063Y32611017D02*
X22486063Y30827004D01*
%TO.C,R2*%
X-9722500Y21862258D02*
X-9722500Y21387742D01*
X-8677500Y21862258D02*
X-8677500Y21387742D01*
%TO.C,J23*%
X37925029Y18431924D02*
X38455029Y17513937D01*
X37425029Y19297949D02*
X34395029Y24546063D01*
X36671017Y16483937D02*
X34887004Y15453937D01*
X35641017Y18267949D02*
X36671017Y16483937D01*
X34395029Y24546063D02*
X30827004Y22486063D01*
X34887004Y15453937D02*
X30827004Y22486063D01*
X38455029Y17513937D02*
X37537042Y16983937D01*
X37425029Y19297949D02*
X35641017Y18267949D01*
%TO.C,J14*%
X-12817780Y-40109202D02*
X-12284613Y-38119395D01*
X-14274420Y-37586228D02*
X-13741253Y-35596421D01*
X-14807588Y-39576035D02*
X-14533239Y-38552154D01*
X-6964270Y-41677646D02*
X-5897935Y-37698031D01*
X-12817780Y-40109202D02*
X-6964270Y-41677646D01*
X-12284613Y-38119395D02*
X-14274420Y-37586228D01*
X-13783706Y-39850383D02*
X-14807588Y-39576035D01*
X-13741253Y-35596421D02*
X-5897935Y-37698031D01*
%TO.C,J7*%
X-34395029Y24546063D02*
X-33477042Y24016063D01*
X-32611017Y23516063D02*
X-30827004Y22486063D01*
X-34925029Y23628076D02*
X-34395029Y24546063D01*
X-38455029Y17513937D02*
X-34887004Y15453937D01*
X-30827004Y22486063D02*
X-34887004Y15453937D01*
X-35425029Y22762051D02*
X-33641017Y21732051D01*
X-33641017Y21732051D02*
X-32611017Y23516063D01*
X-35425029Y22762051D02*
X-38455029Y17513937D01*
%TO.C,J17*%
X24546063Y-34395029D02*
X22486063Y-30827004D01*
X19297949Y-37425029D02*
X18267949Y-35641017D01*
X17513937Y-38455029D02*
X16983937Y-37537042D01*
X16483937Y-36671017D02*
X15453937Y-34887004D01*
X18267949Y-35641017D02*
X16483937Y-36671017D01*
X19297949Y-37425029D02*
X24546063Y-34395029D01*
X18431924Y-37925029D02*
X17513937Y-38455029D01*
X15453937Y-34887004D02*
X22486063Y-30827004D01*
%TD*%
M02*
