M48
; DRILL file {KiCad (6.0.9)} date Fri 25 Nov 2022 11:26:29 AM EST
; FORMAT={-:-/ absolute / metric / decimal}
; #@! TF.CreationDate,2022-11-25T11:26:29-05:00
; #@! TF.GenerationSoftware,Kicad,Pcbnew,(6.0.9)
; #@! TF.FileFunction,MixedPlating,1,4
FMAT,2
METRIC
; #@! TA.AperFunction,Plated,PTH,ViaDrill
T1C0.400
; #@! TA.AperFunction,Plated,PTH,ComponentDrill
T2C0.500
; #@! TA.AperFunction,Plated,PTH,ComponentDrill
T3C0.800
; #@! TA.AperFunction,Plated,PTH,ComponentDrill
T4C0.900
; #@! TA.AperFunction,Plated,PTH,ComponentDrill
T5C1.500
; #@! TA.AperFunction,NonPlated,NPTH,ComponentDrill
T6C1.200
; #@! TA.AperFunction,NonPlated,NPTH,ComponentDrill
T7C1.700
; #@! TA.AperFunction,NonPlated,NPTH,ComponentDrill
T8C3.250
; #@! TA.AperFunction,NonPlated,NPTH,ComponentDrill
T9C4.400
%
G90
G05
T1
X-34.5Y-7.0
X-34.5Y-11.0
X-33.5Y-7.0
X-33.5Y-11.0
X-32.5Y-7.0
X-32.5Y-11.0
X-31.5Y17.0
X-31.5Y16.0
X-31.5Y15.0
X-31.5Y14.0
X-31.5Y5.4
X-31.5Y2.0
X-31.5Y-7.0
X-30.5Y17.0
X-30.5Y16.0
X-30.5Y15.0
X-30.5Y14.0
X-30.5Y10.5
X-30.5Y5.4
X-30.5Y2.0
X-30.5Y-7.0
X-29.5Y17.0
X-29.5Y16.0
X-29.5Y15.0
X-29.5Y14.0
X-29.5Y10.5
X-29.5Y5.4
X-29.5Y2.0
X-29.5Y-7.0
X-28.5Y14.0
X-28.5Y10.5
X-28.5Y5.4
X-28.5Y2.0
X-28.5Y-7.0
X-28.5Y-11.0
X-27.5Y-7.0
X-27.5Y-11.0
X-26.5Y-7.0
X-26.5Y-11.0
X-23.0Y5.6
X-20.4Y5.6
X-19.4Y12.1
X-19.2Y3.9
X-14.825Y15.875
X-11.85Y10.5
X-11.55Y5.4
X-11.25Y13.7
X-10.65Y10.5
X-10.4Y23.2
X-10.05Y13.7
X-9.45Y10.5
X-8.85Y13.7
X3.05Y10.5
X3.35Y5.5
X3.85Y10.5
X4.15Y5.5
X19.05Y2.3
X19.55Y13.9
X31.65Y5.5
X32.1Y12.1
T3
X-41.0Y3.0
X-41.0Y1.0
X-41.0Y-1.0
X-41.0Y-3.0
X-40.379Y7.714
X-40.379Y-7.714
X-39.862Y9.646
X-39.862Y-9.646
X-39.344Y11.578
X-39.344Y-11.578
X-39.0Y3.0
X-39.0Y1.0
X-39.0Y-1.0
X-39.0Y-3.0
X-38.827Y13.509
X-38.827Y-13.509
X-38.448Y7.196
X-38.448Y-7.196
X-37.93Y9.128
X-37.93Y-9.128
X-37.412Y11.06
X-37.412Y-11.06
X-37.007Y17.902
X-37.007Y-17.902
X-36.895Y12.992
X-36.895Y-12.992
X-36.007Y19.634
X-36.007Y-19.634
X-35.275Y16.902
X-35.275Y-16.902
X-35.007Y21.366
X-35.007Y-21.366
X-34.275Y18.634
X-34.275Y-18.634
X-34.007Y23.098
X-34.007Y-23.098
X-33.275Y20.366
X-33.275Y-20.366
X-32.275Y22.098
X-32.275Y-22.098
X-31.113Y26.87
X-31.113Y-26.87
X-29.698Y28.284
X-29.698Y25.456
X-29.698Y-25.456
X-29.698Y-28.284
X-28.284Y29.698
X-28.284Y26.87
X-28.284Y-26.87
X-28.284Y-29.698
X-26.87Y31.113
X-26.87Y28.284
X-26.87Y-28.284
X-26.87Y-31.113
X-25.456Y29.698
X-25.456Y-29.698
X-23.098Y34.007
X-23.098Y-34.007
X-22.098Y32.275
X-22.098Y-32.275
X-21.366Y35.007
X-21.366Y-35.007
X-20.366Y33.275
X-20.366Y-33.275
X-19.634Y36.007
X-19.634Y-36.007
X-18.634Y34.275
X-18.634Y-34.275
X-17.902Y37.007
X-17.902Y-37.007
X-16.902Y35.275
X-16.902Y-35.275
X-13.509Y38.827
X-13.509Y-38.827
X-12.992Y36.895
X-12.992Y-36.895
X-11.578Y39.344
X-11.578Y-39.344
X-11.06Y37.412
X-11.06Y-37.412
X-9.646Y39.862
X-9.646Y-39.862
X-9.128Y37.93
X-9.128Y-37.93
X-7.714Y40.379
X-7.714Y-40.379
X-7.196Y38.448
X-7.196Y-38.448
X-3.0Y41.0
X-3.0Y39.0
X-3.0Y-39.0
X-3.0Y-41.0
X-1.0Y41.0
X-1.0Y39.0
X-1.0Y-39.0
X-1.0Y-41.0
X1.0Y41.0
X1.0Y39.0
X1.0Y-39.0
X1.0Y-41.0
X3.0Y41.0
X3.0Y39.0
X3.0Y-39.0
X3.0Y-41.0
X7.196Y38.448
X7.196Y-38.448
X7.714Y40.379
X7.714Y-40.379
X9.128Y37.93
X9.128Y-37.93
X9.646Y39.862
X9.646Y-39.862
X11.06Y37.412
X11.06Y-37.412
X11.578Y39.344
X11.578Y-39.344
X12.992Y36.895
X12.992Y-36.895
X13.509Y38.827
X13.509Y-38.827
X16.902Y35.275
X16.902Y-35.275
X17.902Y37.007
X17.902Y-37.007
X18.634Y34.275
X18.634Y-34.275
X19.634Y36.007
X19.634Y-36.007
X20.366Y33.275
X20.366Y-33.275
X21.366Y35.007
X21.366Y-35.007
X22.098Y32.275
X22.098Y-32.275
X23.098Y34.007
X23.098Y-34.007
X25.456Y29.698
X25.456Y-29.698
X26.87Y31.113
X26.87Y28.284
X26.87Y-28.284
X26.87Y-31.113
X28.284Y29.698
X28.284Y26.87
X28.284Y-26.87
X28.284Y-29.698
X29.698Y28.284
X29.698Y25.456
X29.698Y-25.456
X29.698Y-28.284
X31.113Y26.87
X31.113Y-26.87
X32.275Y22.098
X32.275Y-22.098
X33.275Y20.366
X33.275Y-20.366
X34.007Y23.098
X34.007Y-23.098
X34.275Y18.634
X34.275Y-18.634
X35.007Y21.366
X35.007Y-21.366
X35.275Y16.902
X35.275Y-16.902
X36.007Y19.634
X36.007Y-19.634
X36.895Y12.992
X36.895Y-12.992
X37.007Y17.902
X37.007Y-17.902
X37.412Y11.06
X37.412Y-11.06
X37.93Y9.128
X37.93Y-9.128
X38.448Y7.196
X38.448Y-7.196
X38.827Y13.509
X38.827Y-13.509
X39.0Y3.0
X39.0Y1.0
X39.0Y-1.0
X39.0Y-3.0
X39.344Y11.578
X39.344Y-11.578
X39.862Y9.646
X39.862Y-9.646
X40.379Y7.714
X40.379Y-7.714
X41.0Y3.0
X41.0Y1.0
X41.0Y-1.0
X41.0Y-3.0
T4
X-18.14Y28.965
X-18.14Y26.425
X-18.14Y23.885
X-18.14Y21.345
X-18.14Y18.805
X-15.6Y27.695
X-15.6Y25.155
X-15.6Y22.615
X-15.6Y20.075
X-15.6Y17.535
X-5.87Y27.035
X-5.87Y16.925
X-4.35Y29.575
X-4.35Y19.465
T5
X-12.3Y31.025
X-12.3Y15.475
T6
X33.4Y8.0
T7
X-33.4Y8.0
T8
X-9.25Y28.965
X-9.25Y17.535
T9
X-46.0Y0.0
X-44.433Y11.906
X-44.433Y-11.906
X-39.837Y23.0
X-39.837Y-23.0
X-32.527Y32.527
X-32.527Y-32.527
X-23.0Y39.837
X-23.0Y-39.837
X-11.906Y44.433
X-11.906Y-44.433
X0.0Y46.0
X0.0Y-46.0
X11.906Y44.433
X11.906Y-44.433
X23.0Y39.837
X23.0Y-39.837
X32.527Y32.527
X32.527Y-32.527
X39.837Y23.0
X39.837Y-23.0
X44.433Y11.906
X44.433Y-11.906
X46.0Y0.0
T2
G00X-30.4Y18.5
M15
G01X-30.4Y19.6
M16
G05
G00X-28.25Y21.5
M15
G01X-28.25Y22.2
M16
G05
G00X-28.25Y15.9
M15
G01X-28.25Y16.6
M16
G05
T0
M30
