G04 #@! TF.GenerationSoftware,KiCad,Pcbnew,(6.0.7)*
G04 #@! TF.CreationDate,2022-12-01T16:55:09-05:00*
G04 #@! TF.ProjectId,arm_panel,61726d5f-7061-46e6-956c-2e6b69636164,rev?*
G04 #@! TF.SameCoordinates,Original*
G04 #@! TF.FileFunction,Legend,Bot*
G04 #@! TF.FilePolarity,Positive*
%FSLAX46Y46*%
G04 Gerber Fmt 4.6, Leading zero omitted, Abs format (unit mm)*
G04 Created by KiCad (PCBNEW (6.0.7)) date 2022-12-01 16:55:09*
%MOMM*%
%LPD*%
G01*
G04 APERTURE LIST*
%ADD10C,0.300000*%
%ADD11C,0.150000*%
%ADD12C,0.120000*%
G04 APERTURE END LIST*
D10*
X4294761Y-482083333D02*
X2294761Y-482083333D01*
X2294761Y-482845238D01*
X2390000Y-483035714D01*
X2485238Y-483130952D01*
X2675714Y-483226190D01*
X2961428Y-483226190D01*
X3151904Y-483130952D01*
X3247142Y-483035714D01*
X3342380Y-482845238D01*
X3342380Y-482083333D01*
X4294761Y-484083333D02*
X2294761Y-484083333D01*
X4294761Y-484940476D02*
X3247142Y-484940476D01*
X3056666Y-484845238D01*
X2961428Y-484654761D01*
X2961428Y-484369047D01*
X3056666Y-484178571D01*
X3151904Y-484083333D01*
X4294761Y-486750000D02*
X3247142Y-486750000D01*
X3056666Y-486654761D01*
X2961428Y-486464285D01*
X2961428Y-486083333D01*
X3056666Y-485892857D01*
X4199523Y-486750000D02*
X4294761Y-486559523D01*
X4294761Y-486083333D01*
X4199523Y-485892857D01*
X4009047Y-485797619D01*
X3818571Y-485797619D01*
X3628095Y-485892857D01*
X3532857Y-486083333D01*
X3532857Y-486559523D01*
X3437619Y-486750000D01*
X4199523Y-487607142D02*
X4294761Y-487797619D01*
X4294761Y-488178571D01*
X4199523Y-488369047D01*
X4009047Y-488464285D01*
X3913809Y-488464285D01*
X3723333Y-488369047D01*
X3628095Y-488178571D01*
X3628095Y-487892857D01*
X3532857Y-487702380D01*
X3342380Y-487607142D01*
X3247142Y-487607142D01*
X3056666Y-487702380D01*
X2961428Y-487892857D01*
X2961428Y-488178571D01*
X3056666Y-488369047D01*
X4199523Y-490083333D02*
X4294761Y-489892857D01*
X4294761Y-489511904D01*
X4199523Y-489321428D01*
X4009047Y-489226190D01*
X3247142Y-489226190D01*
X3056666Y-489321428D01*
X2961428Y-489511904D01*
X2961428Y-489892857D01*
X3056666Y-490083333D01*
X3247142Y-490178571D01*
X3437619Y-490178571D01*
X3628095Y-489226190D01*
X3723333Y-492464285D02*
X3723333Y-493416666D01*
X4294761Y-492273809D02*
X2294761Y-492940476D01*
X4294761Y-493607142D01*
X4294761Y-494273809D02*
X2961428Y-494273809D01*
X3342380Y-494273809D02*
X3151904Y-494369047D01*
X3056666Y-494464285D01*
X2961428Y-494654761D01*
X2961428Y-494845238D01*
X4294761Y-495511904D02*
X2961428Y-495511904D01*
X3342380Y-495511904D02*
X3151904Y-495607142D01*
X3056666Y-495702380D01*
X2961428Y-495892857D01*
X2961428Y-496083333D01*
X4294761Y-497607142D02*
X3247142Y-497607142D01*
X3056666Y-497511904D01*
X2961428Y-497321428D01*
X2961428Y-496940476D01*
X3056666Y-496750000D01*
X4199523Y-497607142D02*
X4294761Y-497416666D01*
X4294761Y-496940476D01*
X4199523Y-496750000D01*
X4009047Y-496654761D01*
X3818571Y-496654761D01*
X3628095Y-496750000D01*
X3532857Y-496940476D01*
X3532857Y-497416666D01*
X3437619Y-497607142D01*
X2961428Y-498369047D02*
X4294761Y-498845238D01*
X2961428Y-499321428D02*
X4294761Y-498845238D01*
X4770952Y-498654761D01*
X4866190Y-498559523D01*
X4961428Y-498369047D01*
X3723333Y-501511904D02*
X3723333Y-502464285D01*
X4294761Y-501321428D02*
X2294761Y-501988095D01*
X4294761Y-502654761D01*
X4294761Y-503321428D02*
X2961428Y-503321428D01*
X3342380Y-503321428D02*
X3151904Y-503416666D01*
X3056666Y-503511904D01*
X2961428Y-503702380D01*
X2961428Y-503892857D01*
X4294761Y-504559523D02*
X2961428Y-504559523D01*
X3151904Y-504559523D02*
X3056666Y-504654761D01*
X2961428Y-504845238D01*
X2961428Y-505130952D01*
X3056666Y-505321428D01*
X3247142Y-505416666D01*
X4294761Y-505416666D01*
X3247142Y-505416666D02*
X3056666Y-505511904D01*
X2961428Y-505702380D01*
X2961428Y-505988095D01*
X3056666Y-506178571D01*
X3247142Y-506273809D01*
X4294761Y-506273809D01*
X2294761Y-508464285D02*
X4294761Y-509130952D01*
X2294761Y-509797619D01*
X4294761Y-511511904D02*
X4294761Y-510369047D01*
X4294761Y-510940476D02*
X2294761Y-510940476D01*
X2580476Y-510750000D01*
X2770952Y-510559523D01*
X2866190Y-510369047D01*
X6467142Y-485940476D02*
X6562380Y-486226190D01*
X6657619Y-486321428D01*
X6848095Y-486416666D01*
X7133809Y-486416666D01*
X7324285Y-486321428D01*
X7419523Y-486226190D01*
X7514761Y-486035714D01*
X7514761Y-485273809D01*
X5514761Y-485273809D01*
X5514761Y-485940476D01*
X5610000Y-486130952D01*
X5705238Y-486226190D01*
X5895714Y-486321428D01*
X6086190Y-486321428D01*
X6276666Y-486226190D01*
X6371904Y-486130952D01*
X6467142Y-485940476D01*
X6467142Y-485273809D01*
X7419523Y-488035714D02*
X7514761Y-487845238D01*
X7514761Y-487464285D01*
X7419523Y-487273809D01*
X7229047Y-487178571D01*
X6467142Y-487178571D01*
X6276666Y-487273809D01*
X6181428Y-487464285D01*
X6181428Y-487845238D01*
X6276666Y-488035714D01*
X6467142Y-488130952D01*
X6657619Y-488130952D01*
X6848095Y-487178571D01*
X6181428Y-488988095D02*
X7514761Y-488988095D01*
X6371904Y-488988095D02*
X6276666Y-489083333D01*
X6181428Y-489273809D01*
X6181428Y-489559523D01*
X6276666Y-489750000D01*
X6467142Y-489845238D01*
X7514761Y-489845238D01*
X5514761Y-492130952D02*
X7514761Y-492607142D01*
X6086190Y-492988095D01*
X7514761Y-493369047D01*
X5514761Y-493845238D01*
X7514761Y-495464285D02*
X6467142Y-495464285D01*
X6276666Y-495369047D01*
X6181428Y-495178571D01*
X6181428Y-494797619D01*
X6276666Y-494607142D01*
X7419523Y-495464285D02*
X7514761Y-495273809D01*
X7514761Y-494797619D01*
X7419523Y-494607142D01*
X7229047Y-494511904D01*
X7038571Y-494511904D01*
X6848095Y-494607142D01*
X6752857Y-494797619D01*
X6752857Y-495273809D01*
X6657619Y-495464285D01*
X6181428Y-496416666D02*
X7514761Y-496416666D01*
X6371904Y-496416666D02*
X6276666Y-496511904D01*
X6181428Y-496702380D01*
X6181428Y-496988095D01*
X6276666Y-497178571D01*
X6467142Y-497273809D01*
X7514761Y-497273809D01*
X6181428Y-499083333D02*
X7800476Y-499083333D01*
X7990952Y-498988095D01*
X8086190Y-498892857D01*
X8181428Y-498702380D01*
X8181428Y-498416666D01*
X8086190Y-498226190D01*
X7419523Y-499083333D02*
X7514761Y-498892857D01*
X7514761Y-498511904D01*
X7419523Y-498321428D01*
X7324285Y-498226190D01*
X7133809Y-498130952D01*
X6562380Y-498130952D01*
X6371904Y-498226190D01*
X6276666Y-498321428D01*
X6181428Y-498511904D01*
X6181428Y-498892857D01*
X6276666Y-499083333D01*
X5705238Y-501464285D02*
X5610000Y-501559523D01*
X5514761Y-501750000D01*
X5514761Y-502226190D01*
X5610000Y-502416666D01*
X5705238Y-502511904D01*
X5895714Y-502607142D01*
X6086190Y-502607142D01*
X6371904Y-502511904D01*
X7514761Y-501369047D01*
X7514761Y-502607142D01*
X5514761Y-503845238D02*
X5514761Y-504035714D01*
X5610000Y-504226190D01*
X5705238Y-504321428D01*
X5895714Y-504416666D01*
X6276666Y-504511904D01*
X6752857Y-504511904D01*
X7133809Y-504416666D01*
X7324285Y-504321428D01*
X7419523Y-504226190D01*
X7514761Y-504035714D01*
X7514761Y-503845238D01*
X7419523Y-503654761D01*
X7324285Y-503559523D01*
X7133809Y-503464285D01*
X6752857Y-503369047D01*
X6276666Y-503369047D01*
X5895714Y-503464285D01*
X5705238Y-503559523D01*
X5610000Y-503654761D01*
X5514761Y-503845238D01*
X5705238Y-505273809D02*
X5610000Y-505369047D01*
X5514761Y-505559523D01*
X5514761Y-506035714D01*
X5610000Y-506226190D01*
X5705238Y-506321428D01*
X5895714Y-506416666D01*
X6086190Y-506416666D01*
X6371904Y-506321428D01*
X7514761Y-505178571D01*
X7514761Y-506416666D01*
X5705238Y-507178571D02*
X5610000Y-507273809D01*
X5514761Y-507464285D01*
X5514761Y-507940476D01*
X5610000Y-508130952D01*
X5705238Y-508226190D01*
X5895714Y-508321428D01*
X6086190Y-508321428D01*
X6371904Y-508226190D01*
X7514761Y-507083333D01*
X7514761Y-508321428D01*
D11*
X53647380Y-84750000D02*
X53647380Y-85321428D01*
X54647380Y-85035714D02*
X53647380Y-85035714D01*
X54647380Y-85654761D02*
X53647380Y-85654761D01*
X54647380Y-86083333D02*
X54123571Y-86083333D01*
X54028333Y-86035714D01*
X53980714Y-85940476D01*
X53980714Y-85797619D01*
X54028333Y-85702380D01*
X54075952Y-85654761D01*
X54647380Y-86559523D02*
X53980714Y-86559523D01*
X53647380Y-86559523D02*
X53695000Y-86511904D01*
X53742619Y-86559523D01*
X53695000Y-86607142D01*
X53647380Y-86559523D01*
X53742619Y-86559523D01*
X54599761Y-86988095D02*
X54647380Y-87083333D01*
X54647380Y-87273809D01*
X54599761Y-87369047D01*
X54504523Y-87416666D01*
X54456904Y-87416666D01*
X54361666Y-87369047D01*
X54314047Y-87273809D01*
X54314047Y-87130952D01*
X54266428Y-87035714D01*
X54171190Y-86988095D01*
X54123571Y-86988095D01*
X54028333Y-87035714D01*
X53980714Y-87130952D01*
X53980714Y-87273809D01*
X54028333Y-87369047D01*
X54647380Y-88607142D02*
X53980714Y-88607142D01*
X53647380Y-88607142D02*
X53695000Y-88559523D01*
X53742619Y-88607142D01*
X53695000Y-88654761D01*
X53647380Y-88607142D01*
X53742619Y-88607142D01*
X54599761Y-89035714D02*
X54647380Y-89130952D01*
X54647380Y-89321428D01*
X54599761Y-89416666D01*
X54504523Y-89464285D01*
X54456904Y-89464285D01*
X54361666Y-89416666D01*
X54314047Y-89321428D01*
X54314047Y-89178571D01*
X54266428Y-89083333D01*
X54171190Y-89035714D01*
X54123571Y-89035714D01*
X54028333Y-89083333D01*
X53980714Y-89178571D01*
X53980714Y-89321428D01*
X54028333Y-89416666D01*
X53980714Y-91083333D02*
X54790238Y-91083333D01*
X54885476Y-91035714D01*
X54933095Y-90988095D01*
X54980714Y-90892857D01*
X54980714Y-90750000D01*
X54933095Y-90654761D01*
X54599761Y-91083333D02*
X54647380Y-90988095D01*
X54647380Y-90797619D01*
X54599761Y-90702380D01*
X54552142Y-90654761D01*
X54456904Y-90607142D01*
X54171190Y-90607142D01*
X54075952Y-90654761D01*
X54028333Y-90702380D01*
X53980714Y-90797619D01*
X53980714Y-90988095D01*
X54028333Y-91083333D01*
X54599761Y-91940476D02*
X54647380Y-91845238D01*
X54647380Y-91654761D01*
X54599761Y-91559523D01*
X54504523Y-91511904D01*
X54123571Y-91511904D01*
X54028333Y-91559523D01*
X53980714Y-91654761D01*
X53980714Y-91845238D01*
X54028333Y-91940476D01*
X54123571Y-91988095D01*
X54218809Y-91988095D01*
X54314047Y-91511904D01*
X53980714Y-92273809D02*
X53980714Y-92654761D01*
X53647380Y-92416666D02*
X54504523Y-92416666D01*
X54599761Y-92464285D01*
X54647380Y-92559523D01*
X54647380Y-92654761D01*
X53980714Y-92845238D02*
X53980714Y-93226190D01*
X53647380Y-92988095D02*
X54504523Y-92988095D01*
X54599761Y-93035714D01*
X54647380Y-93130952D01*
X54647380Y-93226190D01*
X54647380Y-93559523D02*
X53980714Y-93559523D01*
X53647380Y-93559523D02*
X53695000Y-93511904D01*
X53742619Y-93559523D01*
X53695000Y-93607142D01*
X53647380Y-93559523D01*
X53742619Y-93559523D01*
X53980714Y-94035714D02*
X54647380Y-94035714D01*
X54075952Y-94035714D02*
X54028333Y-94083333D01*
X53980714Y-94178571D01*
X53980714Y-94321428D01*
X54028333Y-94416666D01*
X54123571Y-94464285D01*
X54647380Y-94464285D01*
X53980714Y-95369047D02*
X54790238Y-95369047D01*
X54885476Y-95321428D01*
X54933095Y-95273809D01*
X54980714Y-95178571D01*
X54980714Y-95035714D01*
X54933095Y-94940476D01*
X54599761Y-95369047D02*
X54647380Y-95273809D01*
X54647380Y-95083333D01*
X54599761Y-94988095D01*
X54552142Y-94940476D01*
X54456904Y-94892857D01*
X54171190Y-94892857D01*
X54075952Y-94940476D01*
X54028333Y-94988095D01*
X53980714Y-95083333D01*
X53980714Y-95273809D01*
X54028333Y-95369047D01*
X54647380Y-96750000D02*
X54599761Y-96654761D01*
X54552142Y-96607142D01*
X54456904Y-96559523D01*
X54171190Y-96559523D01*
X54075952Y-96607142D01*
X54028333Y-96654761D01*
X53980714Y-96750000D01*
X53980714Y-96892857D01*
X54028333Y-96988095D01*
X54075952Y-97035714D01*
X54171190Y-97083333D01*
X54456904Y-97083333D01*
X54552142Y-97035714D01*
X54599761Y-96988095D01*
X54647380Y-96892857D01*
X54647380Y-96750000D01*
X53980714Y-97940476D02*
X54647380Y-97940476D01*
X53980714Y-97511904D02*
X54504523Y-97511904D01*
X54599761Y-97559523D01*
X54647380Y-97654761D01*
X54647380Y-97797619D01*
X54599761Y-97892857D01*
X54552142Y-97940476D01*
X53980714Y-98273809D02*
X53980714Y-98654761D01*
X53647380Y-98416666D02*
X54504523Y-98416666D01*
X54599761Y-98464285D01*
X54647380Y-98559523D01*
X54647380Y-98654761D01*
X54647380Y-99892857D02*
X54599761Y-99797619D01*
X54552142Y-99750000D01*
X54456904Y-99702380D01*
X54171190Y-99702380D01*
X54075952Y-99750000D01*
X54028333Y-99797619D01*
X53980714Y-99892857D01*
X53980714Y-100035714D01*
X54028333Y-100130952D01*
X54075952Y-100178571D01*
X54171190Y-100226190D01*
X54456904Y-100226190D01*
X54552142Y-100178571D01*
X54599761Y-100130952D01*
X54647380Y-100035714D01*
X54647380Y-99892857D01*
X53980714Y-100511904D02*
X53980714Y-100892857D01*
X54647380Y-100654761D02*
X53790238Y-100654761D01*
X53695000Y-100702380D01*
X53647380Y-100797619D01*
X53647380Y-100892857D01*
X54647380Y-101988095D02*
X53647380Y-101988095D01*
X54647380Y-102416666D02*
X54123571Y-102416666D01*
X54028333Y-102369047D01*
X53980714Y-102273809D01*
X53980714Y-102130952D01*
X54028333Y-102035714D01*
X54075952Y-101988095D01*
X54647380Y-103321428D02*
X54123571Y-103321428D01*
X54028333Y-103273809D01*
X53980714Y-103178571D01*
X53980714Y-102988095D01*
X54028333Y-102892857D01*
X54599761Y-103321428D02*
X54647380Y-103226190D01*
X54647380Y-102988095D01*
X54599761Y-102892857D01*
X54504523Y-102845238D01*
X54409285Y-102845238D01*
X54314047Y-102892857D01*
X54266428Y-102988095D01*
X54266428Y-103226190D01*
X54218809Y-103321428D01*
X53980714Y-103797619D02*
X54647380Y-103797619D01*
X54075952Y-103797619D02*
X54028333Y-103845238D01*
X53980714Y-103940476D01*
X53980714Y-104083333D01*
X54028333Y-104178571D01*
X54123571Y-104226190D01*
X54647380Y-104226190D01*
X54647380Y-105130952D02*
X53647380Y-105130952D01*
X54599761Y-105130952D02*
X54647380Y-105035714D01*
X54647380Y-104845238D01*
X54599761Y-104750000D01*
X54552142Y-104702380D01*
X54456904Y-104654761D01*
X54171190Y-104654761D01*
X54075952Y-104702380D01*
X54028333Y-104750000D01*
X53980714Y-104845238D01*
X53980714Y-105035714D01*
X54028333Y-105130952D01*
X54552142Y-105607142D02*
X54599761Y-105654761D01*
X54647380Y-105607142D01*
X54599761Y-105559523D01*
X54552142Y-105607142D01*
X54647380Y-105607142D01*
X54266428Y-105607142D02*
X53695000Y-105559523D01*
X53647380Y-105607142D01*
X53695000Y-105654761D01*
X54266428Y-105607142D01*
X53647380Y-105607142D01*
X56257380Y-85226190D02*
X55257380Y-85226190D01*
X56257380Y-85797619D01*
X55257380Y-85797619D01*
X56257380Y-86416666D02*
X56209761Y-86321428D01*
X56162142Y-86273809D01*
X56066904Y-86226190D01*
X55781190Y-86226190D01*
X55685952Y-86273809D01*
X55638333Y-86321428D01*
X55590714Y-86416666D01*
X55590714Y-86559523D01*
X55638333Y-86654761D01*
X55685952Y-86702380D01*
X55781190Y-86750000D01*
X56066904Y-86750000D01*
X56162142Y-86702380D01*
X56209761Y-86654761D01*
X56257380Y-86559523D01*
X56257380Y-86416666D01*
X55590714Y-87083333D02*
X56257380Y-87273809D01*
X55781190Y-87464285D01*
X56257380Y-87654761D01*
X55590714Y-87845238D01*
X55590714Y-88845238D02*
X55590714Y-89226190D01*
X55257380Y-88988095D02*
X56114523Y-88988095D01*
X56209761Y-89035714D01*
X56257380Y-89130952D01*
X56257380Y-89226190D01*
X56257380Y-89559523D02*
X55257380Y-89559523D01*
X56257380Y-89988095D02*
X55733571Y-89988095D01*
X55638333Y-89940476D01*
X55590714Y-89845238D01*
X55590714Y-89702380D01*
X55638333Y-89607142D01*
X55685952Y-89559523D01*
X56209761Y-90845238D02*
X56257380Y-90750000D01*
X56257380Y-90559523D01*
X56209761Y-90464285D01*
X56114523Y-90416666D01*
X55733571Y-90416666D01*
X55638333Y-90464285D01*
X55590714Y-90559523D01*
X55590714Y-90750000D01*
X55638333Y-90845238D01*
X55733571Y-90892857D01*
X55828809Y-90892857D01*
X55924047Y-90416666D01*
X56257380Y-91321428D02*
X55590714Y-91321428D01*
X55781190Y-91321428D02*
X55685952Y-91369047D01*
X55638333Y-91416666D01*
X55590714Y-91511904D01*
X55590714Y-91607142D01*
X56209761Y-92321428D02*
X56257380Y-92226190D01*
X56257380Y-92035714D01*
X56209761Y-91940476D01*
X56114523Y-91892857D01*
X55733571Y-91892857D01*
X55638333Y-91940476D01*
X55590714Y-92035714D01*
X55590714Y-92226190D01*
X55638333Y-92321428D01*
X55733571Y-92369047D01*
X55828809Y-92369047D01*
X55924047Y-91892857D01*
X56257380Y-93988095D02*
X55733571Y-93988095D01*
X55638333Y-93940476D01*
X55590714Y-93845238D01*
X55590714Y-93654761D01*
X55638333Y-93559523D01*
X56209761Y-93988095D02*
X56257380Y-93892857D01*
X56257380Y-93654761D01*
X56209761Y-93559523D01*
X56114523Y-93511904D01*
X56019285Y-93511904D01*
X55924047Y-93559523D01*
X55876428Y-93654761D01*
X55876428Y-93892857D01*
X55828809Y-93988095D01*
X56257380Y-94464285D02*
X55590714Y-94464285D01*
X55781190Y-94464285D02*
X55685952Y-94511904D01*
X55638333Y-94559523D01*
X55590714Y-94654761D01*
X55590714Y-94750000D01*
X56209761Y-95464285D02*
X56257380Y-95369047D01*
X56257380Y-95178571D01*
X56209761Y-95083333D01*
X56114523Y-95035714D01*
X55733571Y-95035714D01*
X55638333Y-95083333D01*
X55590714Y-95178571D01*
X55590714Y-95369047D01*
X55638333Y-95464285D01*
X55733571Y-95511904D01*
X55828809Y-95511904D01*
X55924047Y-95035714D01*
X55352619Y-96654761D02*
X55305000Y-96702380D01*
X55257380Y-96797619D01*
X55257380Y-97035714D01*
X55305000Y-97130952D01*
X55352619Y-97178571D01*
X55447857Y-97226190D01*
X55543095Y-97226190D01*
X55685952Y-97178571D01*
X56257380Y-96607142D01*
X56257380Y-97226190D01*
X55590714Y-98083333D02*
X56257380Y-98083333D01*
X55209761Y-97845238D02*
X55924047Y-97607142D01*
X55924047Y-98226190D01*
X56257380Y-99511904D02*
X56209761Y-99416666D01*
X56162142Y-99369047D01*
X56066904Y-99321428D01*
X55781190Y-99321428D01*
X55685952Y-99369047D01*
X55638333Y-99416666D01*
X55590714Y-99511904D01*
X55590714Y-99654761D01*
X55638333Y-99750000D01*
X55685952Y-99797619D01*
X55781190Y-99845238D01*
X56066904Y-99845238D01*
X56162142Y-99797619D01*
X56209761Y-99750000D01*
X56257380Y-99654761D01*
X56257380Y-99511904D01*
X55590714Y-100130952D02*
X55590714Y-100511904D01*
X56257380Y-100273809D02*
X55400238Y-100273809D01*
X55305000Y-100321428D01*
X55257380Y-100416666D01*
X55257380Y-100511904D01*
X55590714Y-101464285D02*
X55590714Y-101845238D01*
X55257380Y-101607142D02*
X56114523Y-101607142D01*
X56209761Y-101654761D01*
X56257380Y-101750000D01*
X56257380Y-101845238D01*
X56257380Y-102178571D02*
X55257380Y-102178571D01*
X56257380Y-102607142D02*
X55733571Y-102607142D01*
X55638333Y-102559523D01*
X55590714Y-102464285D01*
X55590714Y-102321428D01*
X55638333Y-102226190D01*
X55685952Y-102178571D01*
X56209761Y-103464285D02*
X56257380Y-103369047D01*
X56257380Y-103178571D01*
X56209761Y-103083333D01*
X56114523Y-103035714D01*
X55733571Y-103035714D01*
X55638333Y-103083333D01*
X55590714Y-103178571D01*
X55590714Y-103369047D01*
X55638333Y-103464285D01*
X55733571Y-103511904D01*
X55828809Y-103511904D01*
X55924047Y-103035714D01*
X56257380Y-103940476D02*
X55590714Y-103940476D01*
X55685952Y-103940476D02*
X55638333Y-103988095D01*
X55590714Y-104083333D01*
X55590714Y-104226190D01*
X55638333Y-104321428D01*
X55733571Y-104369047D01*
X56257380Y-104369047D01*
X55733571Y-104369047D02*
X55638333Y-104416666D01*
X55590714Y-104511904D01*
X55590714Y-104654761D01*
X55638333Y-104750000D01*
X55733571Y-104797619D01*
X56257380Y-104797619D01*
X56162142Y-105273809D02*
X56209761Y-105321428D01*
X56257380Y-105273809D01*
X56209761Y-105226190D01*
X56162142Y-105273809D01*
X56257380Y-105273809D01*
X55876428Y-105273809D02*
X55305000Y-105226190D01*
X55257380Y-105273809D01*
X55305000Y-105321428D01*
X55876428Y-105273809D01*
X55257380Y-105273809D01*
D10*
X16794761Y-482083333D02*
X14794761Y-482083333D01*
X14794761Y-482845238D01*
X14890000Y-483035714D01*
X14985238Y-483130952D01*
X15175714Y-483226190D01*
X15461428Y-483226190D01*
X15651904Y-483130952D01*
X15747142Y-483035714D01*
X15842380Y-482845238D01*
X15842380Y-482083333D01*
X16794761Y-484083333D02*
X14794761Y-484083333D01*
X16794761Y-484940476D02*
X15747142Y-484940476D01*
X15556666Y-484845238D01*
X15461428Y-484654761D01*
X15461428Y-484369047D01*
X15556666Y-484178571D01*
X15651904Y-484083333D01*
X16794761Y-486750000D02*
X15747142Y-486750000D01*
X15556666Y-486654761D01*
X15461428Y-486464285D01*
X15461428Y-486083333D01*
X15556666Y-485892857D01*
X16699523Y-486750000D02*
X16794761Y-486559523D01*
X16794761Y-486083333D01*
X16699523Y-485892857D01*
X16509047Y-485797619D01*
X16318571Y-485797619D01*
X16128095Y-485892857D01*
X16032857Y-486083333D01*
X16032857Y-486559523D01*
X15937619Y-486750000D01*
X16699523Y-487607142D02*
X16794761Y-487797619D01*
X16794761Y-488178571D01*
X16699523Y-488369047D01*
X16509047Y-488464285D01*
X16413809Y-488464285D01*
X16223333Y-488369047D01*
X16128095Y-488178571D01*
X16128095Y-487892857D01*
X16032857Y-487702380D01*
X15842380Y-487607142D01*
X15747142Y-487607142D01*
X15556666Y-487702380D01*
X15461428Y-487892857D01*
X15461428Y-488178571D01*
X15556666Y-488369047D01*
X16699523Y-490083333D02*
X16794761Y-489892857D01*
X16794761Y-489511904D01*
X16699523Y-489321428D01*
X16509047Y-489226190D01*
X15747142Y-489226190D01*
X15556666Y-489321428D01*
X15461428Y-489511904D01*
X15461428Y-489892857D01*
X15556666Y-490083333D01*
X15747142Y-490178571D01*
X15937619Y-490178571D01*
X16128095Y-489226190D01*
X16223333Y-492464285D02*
X16223333Y-493416666D01*
X16794761Y-492273809D02*
X14794761Y-492940476D01*
X16794761Y-493607142D01*
X16794761Y-494273809D02*
X15461428Y-494273809D01*
X15842380Y-494273809D02*
X15651904Y-494369047D01*
X15556666Y-494464285D01*
X15461428Y-494654761D01*
X15461428Y-494845238D01*
X16794761Y-495511904D02*
X15461428Y-495511904D01*
X15842380Y-495511904D02*
X15651904Y-495607142D01*
X15556666Y-495702380D01*
X15461428Y-495892857D01*
X15461428Y-496083333D01*
X16794761Y-497607142D02*
X15747142Y-497607142D01*
X15556666Y-497511904D01*
X15461428Y-497321428D01*
X15461428Y-496940476D01*
X15556666Y-496750000D01*
X16699523Y-497607142D02*
X16794761Y-497416666D01*
X16794761Y-496940476D01*
X16699523Y-496750000D01*
X16509047Y-496654761D01*
X16318571Y-496654761D01*
X16128095Y-496750000D01*
X16032857Y-496940476D01*
X16032857Y-497416666D01*
X15937619Y-497607142D01*
X15461428Y-498369047D02*
X16794761Y-498845238D01*
X15461428Y-499321428D02*
X16794761Y-498845238D01*
X17270952Y-498654761D01*
X17366190Y-498559523D01*
X17461428Y-498369047D01*
X16223333Y-501511904D02*
X16223333Y-502464285D01*
X16794761Y-501321428D02*
X14794761Y-501988095D01*
X16794761Y-502654761D01*
X16794761Y-503321428D02*
X15461428Y-503321428D01*
X15842380Y-503321428D02*
X15651904Y-503416666D01*
X15556666Y-503511904D01*
X15461428Y-503702380D01*
X15461428Y-503892857D01*
X16794761Y-504559523D02*
X15461428Y-504559523D01*
X15651904Y-504559523D02*
X15556666Y-504654761D01*
X15461428Y-504845238D01*
X15461428Y-505130952D01*
X15556666Y-505321428D01*
X15747142Y-505416666D01*
X16794761Y-505416666D01*
X15747142Y-505416666D02*
X15556666Y-505511904D01*
X15461428Y-505702380D01*
X15461428Y-505988095D01*
X15556666Y-506178571D01*
X15747142Y-506273809D01*
X16794761Y-506273809D01*
X14794761Y-508464285D02*
X16794761Y-509130952D01*
X14794761Y-509797619D01*
X16794761Y-511511904D02*
X16794761Y-510369047D01*
X16794761Y-510940476D02*
X14794761Y-510940476D01*
X15080476Y-510750000D01*
X15270952Y-510559523D01*
X15366190Y-510369047D01*
X18967142Y-485940476D02*
X19062380Y-486226190D01*
X19157619Y-486321428D01*
X19348095Y-486416666D01*
X19633809Y-486416666D01*
X19824285Y-486321428D01*
X19919523Y-486226190D01*
X20014761Y-486035714D01*
X20014761Y-485273809D01*
X18014761Y-485273809D01*
X18014761Y-485940476D01*
X18110000Y-486130952D01*
X18205238Y-486226190D01*
X18395714Y-486321428D01*
X18586190Y-486321428D01*
X18776666Y-486226190D01*
X18871904Y-486130952D01*
X18967142Y-485940476D01*
X18967142Y-485273809D01*
X19919523Y-488035714D02*
X20014761Y-487845238D01*
X20014761Y-487464285D01*
X19919523Y-487273809D01*
X19729047Y-487178571D01*
X18967142Y-487178571D01*
X18776666Y-487273809D01*
X18681428Y-487464285D01*
X18681428Y-487845238D01*
X18776666Y-488035714D01*
X18967142Y-488130952D01*
X19157619Y-488130952D01*
X19348095Y-487178571D01*
X18681428Y-488988095D02*
X20014761Y-488988095D01*
X18871904Y-488988095D02*
X18776666Y-489083333D01*
X18681428Y-489273809D01*
X18681428Y-489559523D01*
X18776666Y-489750000D01*
X18967142Y-489845238D01*
X20014761Y-489845238D01*
X18014761Y-492130952D02*
X20014761Y-492607142D01*
X18586190Y-492988095D01*
X20014761Y-493369047D01*
X18014761Y-493845238D01*
X20014761Y-495464285D02*
X18967142Y-495464285D01*
X18776666Y-495369047D01*
X18681428Y-495178571D01*
X18681428Y-494797619D01*
X18776666Y-494607142D01*
X19919523Y-495464285D02*
X20014761Y-495273809D01*
X20014761Y-494797619D01*
X19919523Y-494607142D01*
X19729047Y-494511904D01*
X19538571Y-494511904D01*
X19348095Y-494607142D01*
X19252857Y-494797619D01*
X19252857Y-495273809D01*
X19157619Y-495464285D01*
X18681428Y-496416666D02*
X20014761Y-496416666D01*
X18871904Y-496416666D02*
X18776666Y-496511904D01*
X18681428Y-496702380D01*
X18681428Y-496988095D01*
X18776666Y-497178571D01*
X18967142Y-497273809D01*
X20014761Y-497273809D01*
X18681428Y-499083333D02*
X20300476Y-499083333D01*
X20490952Y-498988095D01*
X20586190Y-498892857D01*
X20681428Y-498702380D01*
X20681428Y-498416666D01*
X20586190Y-498226190D01*
X19919523Y-499083333D02*
X20014761Y-498892857D01*
X20014761Y-498511904D01*
X19919523Y-498321428D01*
X19824285Y-498226190D01*
X19633809Y-498130952D01*
X19062380Y-498130952D01*
X18871904Y-498226190D01*
X18776666Y-498321428D01*
X18681428Y-498511904D01*
X18681428Y-498892857D01*
X18776666Y-499083333D01*
X18205238Y-501464285D02*
X18110000Y-501559523D01*
X18014761Y-501750000D01*
X18014761Y-502226190D01*
X18110000Y-502416666D01*
X18205238Y-502511904D01*
X18395714Y-502607142D01*
X18586190Y-502607142D01*
X18871904Y-502511904D01*
X20014761Y-501369047D01*
X20014761Y-502607142D01*
X18014761Y-503845238D02*
X18014761Y-504035714D01*
X18110000Y-504226190D01*
X18205238Y-504321428D01*
X18395714Y-504416666D01*
X18776666Y-504511904D01*
X19252857Y-504511904D01*
X19633809Y-504416666D01*
X19824285Y-504321428D01*
X19919523Y-504226190D01*
X20014761Y-504035714D01*
X20014761Y-503845238D01*
X19919523Y-503654761D01*
X19824285Y-503559523D01*
X19633809Y-503464285D01*
X19252857Y-503369047D01*
X18776666Y-503369047D01*
X18395714Y-503464285D01*
X18205238Y-503559523D01*
X18110000Y-503654761D01*
X18014761Y-503845238D01*
X18205238Y-505273809D02*
X18110000Y-505369047D01*
X18014761Y-505559523D01*
X18014761Y-506035714D01*
X18110000Y-506226190D01*
X18205238Y-506321428D01*
X18395714Y-506416666D01*
X18586190Y-506416666D01*
X18871904Y-506321428D01*
X20014761Y-505178571D01*
X20014761Y-506416666D01*
X18205238Y-507178571D02*
X18110000Y-507273809D01*
X18014761Y-507464285D01*
X18014761Y-507940476D01*
X18110000Y-508130952D01*
X18205238Y-508226190D01*
X18395714Y-508321428D01*
X18586190Y-508321428D01*
X18871904Y-508226190D01*
X20014761Y-507083333D01*
X20014761Y-508321428D01*
X41794761Y-482083333D02*
X39794761Y-482083333D01*
X39794761Y-482845238D01*
X39890000Y-483035714D01*
X39985238Y-483130952D01*
X40175714Y-483226190D01*
X40461428Y-483226190D01*
X40651904Y-483130952D01*
X40747142Y-483035714D01*
X40842380Y-482845238D01*
X40842380Y-482083333D01*
X41794761Y-484083333D02*
X39794761Y-484083333D01*
X41794761Y-484940476D02*
X40747142Y-484940476D01*
X40556666Y-484845238D01*
X40461428Y-484654761D01*
X40461428Y-484369047D01*
X40556666Y-484178571D01*
X40651904Y-484083333D01*
X41794761Y-486750000D02*
X40747142Y-486750000D01*
X40556666Y-486654761D01*
X40461428Y-486464285D01*
X40461428Y-486083333D01*
X40556666Y-485892857D01*
X41699523Y-486750000D02*
X41794761Y-486559523D01*
X41794761Y-486083333D01*
X41699523Y-485892857D01*
X41509047Y-485797619D01*
X41318571Y-485797619D01*
X41128095Y-485892857D01*
X41032857Y-486083333D01*
X41032857Y-486559523D01*
X40937619Y-486750000D01*
X41699523Y-487607142D02*
X41794761Y-487797619D01*
X41794761Y-488178571D01*
X41699523Y-488369047D01*
X41509047Y-488464285D01*
X41413809Y-488464285D01*
X41223333Y-488369047D01*
X41128095Y-488178571D01*
X41128095Y-487892857D01*
X41032857Y-487702380D01*
X40842380Y-487607142D01*
X40747142Y-487607142D01*
X40556666Y-487702380D01*
X40461428Y-487892857D01*
X40461428Y-488178571D01*
X40556666Y-488369047D01*
X41699523Y-490083333D02*
X41794761Y-489892857D01*
X41794761Y-489511904D01*
X41699523Y-489321428D01*
X41509047Y-489226190D01*
X40747142Y-489226190D01*
X40556666Y-489321428D01*
X40461428Y-489511904D01*
X40461428Y-489892857D01*
X40556666Y-490083333D01*
X40747142Y-490178571D01*
X40937619Y-490178571D01*
X41128095Y-489226190D01*
X41223333Y-492464285D02*
X41223333Y-493416666D01*
X41794761Y-492273809D02*
X39794761Y-492940476D01*
X41794761Y-493607142D01*
X41794761Y-494273809D02*
X40461428Y-494273809D01*
X40842380Y-494273809D02*
X40651904Y-494369047D01*
X40556666Y-494464285D01*
X40461428Y-494654761D01*
X40461428Y-494845238D01*
X41794761Y-495511904D02*
X40461428Y-495511904D01*
X40842380Y-495511904D02*
X40651904Y-495607142D01*
X40556666Y-495702380D01*
X40461428Y-495892857D01*
X40461428Y-496083333D01*
X41794761Y-497607142D02*
X40747142Y-497607142D01*
X40556666Y-497511904D01*
X40461428Y-497321428D01*
X40461428Y-496940476D01*
X40556666Y-496750000D01*
X41699523Y-497607142D02*
X41794761Y-497416666D01*
X41794761Y-496940476D01*
X41699523Y-496750000D01*
X41509047Y-496654761D01*
X41318571Y-496654761D01*
X41128095Y-496750000D01*
X41032857Y-496940476D01*
X41032857Y-497416666D01*
X40937619Y-497607142D01*
X40461428Y-498369047D02*
X41794761Y-498845238D01*
X40461428Y-499321428D02*
X41794761Y-498845238D01*
X42270952Y-498654761D01*
X42366190Y-498559523D01*
X42461428Y-498369047D01*
X41223333Y-501511904D02*
X41223333Y-502464285D01*
X41794761Y-501321428D02*
X39794761Y-501988095D01*
X41794761Y-502654761D01*
X41794761Y-503321428D02*
X40461428Y-503321428D01*
X40842380Y-503321428D02*
X40651904Y-503416666D01*
X40556666Y-503511904D01*
X40461428Y-503702380D01*
X40461428Y-503892857D01*
X41794761Y-504559523D02*
X40461428Y-504559523D01*
X40651904Y-504559523D02*
X40556666Y-504654761D01*
X40461428Y-504845238D01*
X40461428Y-505130952D01*
X40556666Y-505321428D01*
X40747142Y-505416666D01*
X41794761Y-505416666D01*
X40747142Y-505416666D02*
X40556666Y-505511904D01*
X40461428Y-505702380D01*
X40461428Y-505988095D01*
X40556666Y-506178571D01*
X40747142Y-506273809D01*
X41794761Y-506273809D01*
X39794761Y-508464285D02*
X41794761Y-509130952D01*
X39794761Y-509797619D01*
X41794761Y-511511904D02*
X41794761Y-510369047D01*
X41794761Y-510940476D02*
X39794761Y-510940476D01*
X40080476Y-510750000D01*
X40270952Y-510559523D01*
X40366190Y-510369047D01*
X43967142Y-485940476D02*
X44062380Y-486226190D01*
X44157619Y-486321428D01*
X44348095Y-486416666D01*
X44633809Y-486416666D01*
X44824285Y-486321428D01*
X44919523Y-486226190D01*
X45014761Y-486035714D01*
X45014761Y-485273809D01*
X43014761Y-485273809D01*
X43014761Y-485940476D01*
X43110000Y-486130952D01*
X43205238Y-486226190D01*
X43395714Y-486321428D01*
X43586190Y-486321428D01*
X43776666Y-486226190D01*
X43871904Y-486130952D01*
X43967142Y-485940476D01*
X43967142Y-485273809D01*
X44919523Y-488035714D02*
X45014761Y-487845238D01*
X45014761Y-487464285D01*
X44919523Y-487273809D01*
X44729047Y-487178571D01*
X43967142Y-487178571D01*
X43776666Y-487273809D01*
X43681428Y-487464285D01*
X43681428Y-487845238D01*
X43776666Y-488035714D01*
X43967142Y-488130952D01*
X44157619Y-488130952D01*
X44348095Y-487178571D01*
X43681428Y-488988095D02*
X45014761Y-488988095D01*
X43871904Y-488988095D02*
X43776666Y-489083333D01*
X43681428Y-489273809D01*
X43681428Y-489559523D01*
X43776666Y-489750000D01*
X43967142Y-489845238D01*
X45014761Y-489845238D01*
X43014761Y-492130952D02*
X45014761Y-492607142D01*
X43586190Y-492988095D01*
X45014761Y-493369047D01*
X43014761Y-493845238D01*
X45014761Y-495464285D02*
X43967142Y-495464285D01*
X43776666Y-495369047D01*
X43681428Y-495178571D01*
X43681428Y-494797619D01*
X43776666Y-494607142D01*
X44919523Y-495464285D02*
X45014761Y-495273809D01*
X45014761Y-494797619D01*
X44919523Y-494607142D01*
X44729047Y-494511904D01*
X44538571Y-494511904D01*
X44348095Y-494607142D01*
X44252857Y-494797619D01*
X44252857Y-495273809D01*
X44157619Y-495464285D01*
X43681428Y-496416666D02*
X45014761Y-496416666D01*
X43871904Y-496416666D02*
X43776666Y-496511904D01*
X43681428Y-496702380D01*
X43681428Y-496988095D01*
X43776666Y-497178571D01*
X43967142Y-497273809D01*
X45014761Y-497273809D01*
X43681428Y-499083333D02*
X45300476Y-499083333D01*
X45490952Y-498988095D01*
X45586190Y-498892857D01*
X45681428Y-498702380D01*
X45681428Y-498416666D01*
X45586190Y-498226190D01*
X44919523Y-499083333D02*
X45014761Y-498892857D01*
X45014761Y-498511904D01*
X44919523Y-498321428D01*
X44824285Y-498226190D01*
X44633809Y-498130952D01*
X44062380Y-498130952D01*
X43871904Y-498226190D01*
X43776666Y-498321428D01*
X43681428Y-498511904D01*
X43681428Y-498892857D01*
X43776666Y-499083333D01*
X43205238Y-501464285D02*
X43110000Y-501559523D01*
X43014761Y-501750000D01*
X43014761Y-502226190D01*
X43110000Y-502416666D01*
X43205238Y-502511904D01*
X43395714Y-502607142D01*
X43586190Y-502607142D01*
X43871904Y-502511904D01*
X45014761Y-501369047D01*
X45014761Y-502607142D01*
X43014761Y-503845238D02*
X43014761Y-504035714D01*
X43110000Y-504226190D01*
X43205238Y-504321428D01*
X43395714Y-504416666D01*
X43776666Y-504511904D01*
X44252857Y-504511904D01*
X44633809Y-504416666D01*
X44824285Y-504321428D01*
X44919523Y-504226190D01*
X45014761Y-504035714D01*
X45014761Y-503845238D01*
X44919523Y-503654761D01*
X44824285Y-503559523D01*
X44633809Y-503464285D01*
X44252857Y-503369047D01*
X43776666Y-503369047D01*
X43395714Y-503464285D01*
X43205238Y-503559523D01*
X43110000Y-503654761D01*
X43014761Y-503845238D01*
X43205238Y-505273809D02*
X43110000Y-505369047D01*
X43014761Y-505559523D01*
X43014761Y-506035714D01*
X43110000Y-506226190D01*
X43205238Y-506321428D01*
X43395714Y-506416666D01*
X43586190Y-506416666D01*
X43871904Y-506321428D01*
X45014761Y-505178571D01*
X45014761Y-506416666D01*
X43205238Y-507178571D02*
X43110000Y-507273809D01*
X43014761Y-507464285D01*
X43014761Y-507940476D01*
X43110000Y-508130952D01*
X43205238Y-508226190D01*
X43395714Y-508321428D01*
X43586190Y-508321428D01*
X43871904Y-508226190D01*
X45014761Y-507083333D01*
X45014761Y-508321428D01*
X29294761Y-482083333D02*
X27294761Y-482083333D01*
X27294761Y-482845238D01*
X27390000Y-483035714D01*
X27485238Y-483130952D01*
X27675714Y-483226190D01*
X27961428Y-483226190D01*
X28151904Y-483130952D01*
X28247142Y-483035714D01*
X28342380Y-482845238D01*
X28342380Y-482083333D01*
X29294761Y-484083333D02*
X27294761Y-484083333D01*
X29294761Y-484940476D02*
X28247142Y-484940476D01*
X28056666Y-484845238D01*
X27961428Y-484654761D01*
X27961428Y-484369047D01*
X28056666Y-484178571D01*
X28151904Y-484083333D01*
X29294761Y-486750000D02*
X28247142Y-486750000D01*
X28056666Y-486654761D01*
X27961428Y-486464285D01*
X27961428Y-486083333D01*
X28056666Y-485892857D01*
X29199523Y-486750000D02*
X29294761Y-486559523D01*
X29294761Y-486083333D01*
X29199523Y-485892857D01*
X29009047Y-485797619D01*
X28818571Y-485797619D01*
X28628095Y-485892857D01*
X28532857Y-486083333D01*
X28532857Y-486559523D01*
X28437619Y-486750000D01*
X29199523Y-487607142D02*
X29294761Y-487797619D01*
X29294761Y-488178571D01*
X29199523Y-488369047D01*
X29009047Y-488464285D01*
X28913809Y-488464285D01*
X28723333Y-488369047D01*
X28628095Y-488178571D01*
X28628095Y-487892857D01*
X28532857Y-487702380D01*
X28342380Y-487607142D01*
X28247142Y-487607142D01*
X28056666Y-487702380D01*
X27961428Y-487892857D01*
X27961428Y-488178571D01*
X28056666Y-488369047D01*
X29199523Y-490083333D02*
X29294761Y-489892857D01*
X29294761Y-489511904D01*
X29199523Y-489321428D01*
X29009047Y-489226190D01*
X28247142Y-489226190D01*
X28056666Y-489321428D01*
X27961428Y-489511904D01*
X27961428Y-489892857D01*
X28056666Y-490083333D01*
X28247142Y-490178571D01*
X28437619Y-490178571D01*
X28628095Y-489226190D01*
X28723333Y-492464285D02*
X28723333Y-493416666D01*
X29294761Y-492273809D02*
X27294761Y-492940476D01*
X29294761Y-493607142D01*
X29294761Y-494273809D02*
X27961428Y-494273809D01*
X28342380Y-494273809D02*
X28151904Y-494369047D01*
X28056666Y-494464285D01*
X27961428Y-494654761D01*
X27961428Y-494845238D01*
X29294761Y-495511904D02*
X27961428Y-495511904D01*
X28342380Y-495511904D02*
X28151904Y-495607142D01*
X28056666Y-495702380D01*
X27961428Y-495892857D01*
X27961428Y-496083333D01*
X29294761Y-497607142D02*
X28247142Y-497607142D01*
X28056666Y-497511904D01*
X27961428Y-497321428D01*
X27961428Y-496940476D01*
X28056666Y-496750000D01*
X29199523Y-497607142D02*
X29294761Y-497416666D01*
X29294761Y-496940476D01*
X29199523Y-496750000D01*
X29009047Y-496654761D01*
X28818571Y-496654761D01*
X28628095Y-496750000D01*
X28532857Y-496940476D01*
X28532857Y-497416666D01*
X28437619Y-497607142D01*
X27961428Y-498369047D02*
X29294761Y-498845238D01*
X27961428Y-499321428D02*
X29294761Y-498845238D01*
X29770952Y-498654761D01*
X29866190Y-498559523D01*
X29961428Y-498369047D01*
X28723333Y-501511904D02*
X28723333Y-502464285D01*
X29294761Y-501321428D02*
X27294761Y-501988095D01*
X29294761Y-502654761D01*
X29294761Y-503321428D02*
X27961428Y-503321428D01*
X28342380Y-503321428D02*
X28151904Y-503416666D01*
X28056666Y-503511904D01*
X27961428Y-503702380D01*
X27961428Y-503892857D01*
X29294761Y-504559523D02*
X27961428Y-504559523D01*
X28151904Y-504559523D02*
X28056666Y-504654761D01*
X27961428Y-504845238D01*
X27961428Y-505130952D01*
X28056666Y-505321428D01*
X28247142Y-505416666D01*
X29294761Y-505416666D01*
X28247142Y-505416666D02*
X28056666Y-505511904D01*
X27961428Y-505702380D01*
X27961428Y-505988095D01*
X28056666Y-506178571D01*
X28247142Y-506273809D01*
X29294761Y-506273809D01*
X27294761Y-508464285D02*
X29294761Y-509130952D01*
X27294761Y-509797619D01*
X29294761Y-511511904D02*
X29294761Y-510369047D01*
X29294761Y-510940476D02*
X27294761Y-510940476D01*
X27580476Y-510750000D01*
X27770952Y-510559523D01*
X27866190Y-510369047D01*
X31467142Y-485940476D02*
X31562380Y-486226190D01*
X31657619Y-486321428D01*
X31848095Y-486416666D01*
X32133809Y-486416666D01*
X32324285Y-486321428D01*
X32419523Y-486226190D01*
X32514761Y-486035714D01*
X32514761Y-485273809D01*
X30514761Y-485273809D01*
X30514761Y-485940476D01*
X30610000Y-486130952D01*
X30705238Y-486226190D01*
X30895714Y-486321428D01*
X31086190Y-486321428D01*
X31276666Y-486226190D01*
X31371904Y-486130952D01*
X31467142Y-485940476D01*
X31467142Y-485273809D01*
X32419523Y-488035714D02*
X32514761Y-487845238D01*
X32514761Y-487464285D01*
X32419523Y-487273809D01*
X32229047Y-487178571D01*
X31467142Y-487178571D01*
X31276666Y-487273809D01*
X31181428Y-487464285D01*
X31181428Y-487845238D01*
X31276666Y-488035714D01*
X31467142Y-488130952D01*
X31657619Y-488130952D01*
X31848095Y-487178571D01*
X31181428Y-488988095D02*
X32514761Y-488988095D01*
X31371904Y-488988095D02*
X31276666Y-489083333D01*
X31181428Y-489273809D01*
X31181428Y-489559523D01*
X31276666Y-489750000D01*
X31467142Y-489845238D01*
X32514761Y-489845238D01*
X30514761Y-492130952D02*
X32514761Y-492607142D01*
X31086190Y-492988095D01*
X32514761Y-493369047D01*
X30514761Y-493845238D01*
X32514761Y-495464285D02*
X31467142Y-495464285D01*
X31276666Y-495369047D01*
X31181428Y-495178571D01*
X31181428Y-494797619D01*
X31276666Y-494607142D01*
X32419523Y-495464285D02*
X32514761Y-495273809D01*
X32514761Y-494797619D01*
X32419523Y-494607142D01*
X32229047Y-494511904D01*
X32038571Y-494511904D01*
X31848095Y-494607142D01*
X31752857Y-494797619D01*
X31752857Y-495273809D01*
X31657619Y-495464285D01*
X31181428Y-496416666D02*
X32514761Y-496416666D01*
X31371904Y-496416666D02*
X31276666Y-496511904D01*
X31181428Y-496702380D01*
X31181428Y-496988095D01*
X31276666Y-497178571D01*
X31467142Y-497273809D01*
X32514761Y-497273809D01*
X31181428Y-499083333D02*
X32800476Y-499083333D01*
X32990952Y-498988095D01*
X33086190Y-498892857D01*
X33181428Y-498702380D01*
X33181428Y-498416666D01*
X33086190Y-498226190D01*
X32419523Y-499083333D02*
X32514761Y-498892857D01*
X32514761Y-498511904D01*
X32419523Y-498321428D01*
X32324285Y-498226190D01*
X32133809Y-498130952D01*
X31562380Y-498130952D01*
X31371904Y-498226190D01*
X31276666Y-498321428D01*
X31181428Y-498511904D01*
X31181428Y-498892857D01*
X31276666Y-499083333D01*
X30705238Y-501464285D02*
X30610000Y-501559523D01*
X30514761Y-501750000D01*
X30514761Y-502226190D01*
X30610000Y-502416666D01*
X30705238Y-502511904D01*
X30895714Y-502607142D01*
X31086190Y-502607142D01*
X31371904Y-502511904D01*
X32514761Y-501369047D01*
X32514761Y-502607142D01*
X30514761Y-503845238D02*
X30514761Y-504035714D01*
X30610000Y-504226190D01*
X30705238Y-504321428D01*
X30895714Y-504416666D01*
X31276666Y-504511904D01*
X31752857Y-504511904D01*
X32133809Y-504416666D01*
X32324285Y-504321428D01*
X32419523Y-504226190D01*
X32514761Y-504035714D01*
X32514761Y-503845238D01*
X32419523Y-503654761D01*
X32324285Y-503559523D01*
X32133809Y-503464285D01*
X31752857Y-503369047D01*
X31276666Y-503369047D01*
X30895714Y-503464285D01*
X30705238Y-503559523D01*
X30610000Y-503654761D01*
X30514761Y-503845238D01*
X30705238Y-505273809D02*
X30610000Y-505369047D01*
X30514761Y-505559523D01*
X30514761Y-506035714D01*
X30610000Y-506226190D01*
X30705238Y-506321428D01*
X30895714Y-506416666D01*
X31086190Y-506416666D01*
X31371904Y-506321428D01*
X32514761Y-505178571D01*
X32514761Y-506416666D01*
X30705238Y-507178571D02*
X30610000Y-507273809D01*
X30514761Y-507464285D01*
X30514761Y-507940476D01*
X30610000Y-508130952D01*
X30705238Y-508226190D01*
X30895714Y-508321428D01*
X31086190Y-508321428D01*
X31371904Y-508226190D01*
X32514761Y-507083333D01*
X32514761Y-508321428D01*
D11*
X28647380Y-84750000D02*
X28647380Y-85321428D01*
X29647380Y-85035714D02*
X28647380Y-85035714D01*
X29647380Y-85654761D02*
X28647380Y-85654761D01*
X29647380Y-86083333D02*
X29123571Y-86083333D01*
X29028333Y-86035714D01*
X28980714Y-85940476D01*
X28980714Y-85797619D01*
X29028333Y-85702380D01*
X29075952Y-85654761D01*
X29647380Y-86559523D02*
X28980714Y-86559523D01*
X28647380Y-86559523D02*
X28695000Y-86511904D01*
X28742619Y-86559523D01*
X28695000Y-86607142D01*
X28647380Y-86559523D01*
X28742619Y-86559523D01*
X29599761Y-86988095D02*
X29647380Y-87083333D01*
X29647380Y-87273809D01*
X29599761Y-87369047D01*
X29504523Y-87416666D01*
X29456904Y-87416666D01*
X29361666Y-87369047D01*
X29314047Y-87273809D01*
X29314047Y-87130952D01*
X29266428Y-87035714D01*
X29171190Y-86988095D01*
X29123571Y-86988095D01*
X29028333Y-87035714D01*
X28980714Y-87130952D01*
X28980714Y-87273809D01*
X29028333Y-87369047D01*
X29647380Y-88607142D02*
X28980714Y-88607142D01*
X28647380Y-88607142D02*
X28695000Y-88559523D01*
X28742619Y-88607142D01*
X28695000Y-88654761D01*
X28647380Y-88607142D01*
X28742619Y-88607142D01*
X29599761Y-89035714D02*
X29647380Y-89130952D01*
X29647380Y-89321428D01*
X29599761Y-89416666D01*
X29504523Y-89464285D01*
X29456904Y-89464285D01*
X29361666Y-89416666D01*
X29314047Y-89321428D01*
X29314047Y-89178571D01*
X29266428Y-89083333D01*
X29171190Y-89035714D01*
X29123571Y-89035714D01*
X29028333Y-89083333D01*
X28980714Y-89178571D01*
X28980714Y-89321428D01*
X29028333Y-89416666D01*
X28980714Y-91083333D02*
X29790238Y-91083333D01*
X29885476Y-91035714D01*
X29933095Y-90988095D01*
X29980714Y-90892857D01*
X29980714Y-90750000D01*
X29933095Y-90654761D01*
X29599761Y-91083333D02*
X29647380Y-90988095D01*
X29647380Y-90797619D01*
X29599761Y-90702380D01*
X29552142Y-90654761D01*
X29456904Y-90607142D01*
X29171190Y-90607142D01*
X29075952Y-90654761D01*
X29028333Y-90702380D01*
X28980714Y-90797619D01*
X28980714Y-90988095D01*
X29028333Y-91083333D01*
X29599761Y-91940476D02*
X29647380Y-91845238D01*
X29647380Y-91654761D01*
X29599761Y-91559523D01*
X29504523Y-91511904D01*
X29123571Y-91511904D01*
X29028333Y-91559523D01*
X28980714Y-91654761D01*
X28980714Y-91845238D01*
X29028333Y-91940476D01*
X29123571Y-91988095D01*
X29218809Y-91988095D01*
X29314047Y-91511904D01*
X28980714Y-92273809D02*
X28980714Y-92654761D01*
X28647380Y-92416666D02*
X29504523Y-92416666D01*
X29599761Y-92464285D01*
X29647380Y-92559523D01*
X29647380Y-92654761D01*
X28980714Y-92845238D02*
X28980714Y-93226190D01*
X28647380Y-92988095D02*
X29504523Y-92988095D01*
X29599761Y-93035714D01*
X29647380Y-93130952D01*
X29647380Y-93226190D01*
X29647380Y-93559523D02*
X28980714Y-93559523D01*
X28647380Y-93559523D02*
X28695000Y-93511904D01*
X28742619Y-93559523D01*
X28695000Y-93607142D01*
X28647380Y-93559523D01*
X28742619Y-93559523D01*
X28980714Y-94035714D02*
X29647380Y-94035714D01*
X29075952Y-94035714D02*
X29028333Y-94083333D01*
X28980714Y-94178571D01*
X28980714Y-94321428D01*
X29028333Y-94416666D01*
X29123571Y-94464285D01*
X29647380Y-94464285D01*
X28980714Y-95369047D02*
X29790238Y-95369047D01*
X29885476Y-95321428D01*
X29933095Y-95273809D01*
X29980714Y-95178571D01*
X29980714Y-95035714D01*
X29933095Y-94940476D01*
X29599761Y-95369047D02*
X29647380Y-95273809D01*
X29647380Y-95083333D01*
X29599761Y-94988095D01*
X29552142Y-94940476D01*
X29456904Y-94892857D01*
X29171190Y-94892857D01*
X29075952Y-94940476D01*
X29028333Y-94988095D01*
X28980714Y-95083333D01*
X28980714Y-95273809D01*
X29028333Y-95369047D01*
X29647380Y-96750000D02*
X29599761Y-96654761D01*
X29552142Y-96607142D01*
X29456904Y-96559523D01*
X29171190Y-96559523D01*
X29075952Y-96607142D01*
X29028333Y-96654761D01*
X28980714Y-96750000D01*
X28980714Y-96892857D01*
X29028333Y-96988095D01*
X29075952Y-97035714D01*
X29171190Y-97083333D01*
X29456904Y-97083333D01*
X29552142Y-97035714D01*
X29599761Y-96988095D01*
X29647380Y-96892857D01*
X29647380Y-96750000D01*
X28980714Y-97940476D02*
X29647380Y-97940476D01*
X28980714Y-97511904D02*
X29504523Y-97511904D01*
X29599761Y-97559523D01*
X29647380Y-97654761D01*
X29647380Y-97797619D01*
X29599761Y-97892857D01*
X29552142Y-97940476D01*
X28980714Y-98273809D02*
X28980714Y-98654761D01*
X28647380Y-98416666D02*
X29504523Y-98416666D01*
X29599761Y-98464285D01*
X29647380Y-98559523D01*
X29647380Y-98654761D01*
X29647380Y-99892857D02*
X29599761Y-99797619D01*
X29552142Y-99750000D01*
X29456904Y-99702380D01*
X29171190Y-99702380D01*
X29075952Y-99750000D01*
X29028333Y-99797619D01*
X28980714Y-99892857D01*
X28980714Y-100035714D01*
X29028333Y-100130952D01*
X29075952Y-100178571D01*
X29171190Y-100226190D01*
X29456904Y-100226190D01*
X29552142Y-100178571D01*
X29599761Y-100130952D01*
X29647380Y-100035714D01*
X29647380Y-99892857D01*
X28980714Y-100511904D02*
X28980714Y-100892857D01*
X29647380Y-100654761D02*
X28790238Y-100654761D01*
X28695000Y-100702380D01*
X28647380Y-100797619D01*
X28647380Y-100892857D01*
X29647380Y-101988095D02*
X28647380Y-101988095D01*
X29647380Y-102416666D02*
X29123571Y-102416666D01*
X29028333Y-102369047D01*
X28980714Y-102273809D01*
X28980714Y-102130952D01*
X29028333Y-102035714D01*
X29075952Y-101988095D01*
X29647380Y-103321428D02*
X29123571Y-103321428D01*
X29028333Y-103273809D01*
X28980714Y-103178571D01*
X28980714Y-102988095D01*
X29028333Y-102892857D01*
X29599761Y-103321428D02*
X29647380Y-103226190D01*
X29647380Y-102988095D01*
X29599761Y-102892857D01*
X29504523Y-102845238D01*
X29409285Y-102845238D01*
X29314047Y-102892857D01*
X29266428Y-102988095D01*
X29266428Y-103226190D01*
X29218809Y-103321428D01*
X28980714Y-103797619D02*
X29647380Y-103797619D01*
X29075952Y-103797619D02*
X29028333Y-103845238D01*
X28980714Y-103940476D01*
X28980714Y-104083333D01*
X29028333Y-104178571D01*
X29123571Y-104226190D01*
X29647380Y-104226190D01*
X29647380Y-105130952D02*
X28647380Y-105130952D01*
X29599761Y-105130952D02*
X29647380Y-105035714D01*
X29647380Y-104845238D01*
X29599761Y-104750000D01*
X29552142Y-104702380D01*
X29456904Y-104654761D01*
X29171190Y-104654761D01*
X29075952Y-104702380D01*
X29028333Y-104750000D01*
X28980714Y-104845238D01*
X28980714Y-105035714D01*
X29028333Y-105130952D01*
X29552142Y-105607142D02*
X29599761Y-105654761D01*
X29647380Y-105607142D01*
X29599761Y-105559523D01*
X29552142Y-105607142D01*
X29647380Y-105607142D01*
X29266428Y-105607142D02*
X28695000Y-105559523D01*
X28647380Y-105607142D01*
X28695000Y-105654761D01*
X29266428Y-105607142D01*
X28647380Y-105607142D01*
X31257380Y-85226190D02*
X30257380Y-85226190D01*
X31257380Y-85797619D01*
X30257380Y-85797619D01*
X31257380Y-86416666D02*
X31209761Y-86321428D01*
X31162142Y-86273809D01*
X31066904Y-86226190D01*
X30781190Y-86226190D01*
X30685952Y-86273809D01*
X30638333Y-86321428D01*
X30590714Y-86416666D01*
X30590714Y-86559523D01*
X30638333Y-86654761D01*
X30685952Y-86702380D01*
X30781190Y-86750000D01*
X31066904Y-86750000D01*
X31162142Y-86702380D01*
X31209761Y-86654761D01*
X31257380Y-86559523D01*
X31257380Y-86416666D01*
X30590714Y-87083333D02*
X31257380Y-87273809D01*
X30781190Y-87464285D01*
X31257380Y-87654761D01*
X30590714Y-87845238D01*
X30590714Y-88845238D02*
X30590714Y-89226190D01*
X30257380Y-88988095D02*
X31114523Y-88988095D01*
X31209761Y-89035714D01*
X31257380Y-89130952D01*
X31257380Y-89226190D01*
X31257380Y-89559523D02*
X30257380Y-89559523D01*
X31257380Y-89988095D02*
X30733571Y-89988095D01*
X30638333Y-89940476D01*
X30590714Y-89845238D01*
X30590714Y-89702380D01*
X30638333Y-89607142D01*
X30685952Y-89559523D01*
X31209761Y-90845238D02*
X31257380Y-90750000D01*
X31257380Y-90559523D01*
X31209761Y-90464285D01*
X31114523Y-90416666D01*
X30733571Y-90416666D01*
X30638333Y-90464285D01*
X30590714Y-90559523D01*
X30590714Y-90750000D01*
X30638333Y-90845238D01*
X30733571Y-90892857D01*
X30828809Y-90892857D01*
X30924047Y-90416666D01*
X31257380Y-91321428D02*
X30590714Y-91321428D01*
X30781190Y-91321428D02*
X30685952Y-91369047D01*
X30638333Y-91416666D01*
X30590714Y-91511904D01*
X30590714Y-91607142D01*
X31209761Y-92321428D02*
X31257380Y-92226190D01*
X31257380Y-92035714D01*
X31209761Y-91940476D01*
X31114523Y-91892857D01*
X30733571Y-91892857D01*
X30638333Y-91940476D01*
X30590714Y-92035714D01*
X30590714Y-92226190D01*
X30638333Y-92321428D01*
X30733571Y-92369047D01*
X30828809Y-92369047D01*
X30924047Y-91892857D01*
X31257380Y-93988095D02*
X30733571Y-93988095D01*
X30638333Y-93940476D01*
X30590714Y-93845238D01*
X30590714Y-93654761D01*
X30638333Y-93559523D01*
X31209761Y-93988095D02*
X31257380Y-93892857D01*
X31257380Y-93654761D01*
X31209761Y-93559523D01*
X31114523Y-93511904D01*
X31019285Y-93511904D01*
X30924047Y-93559523D01*
X30876428Y-93654761D01*
X30876428Y-93892857D01*
X30828809Y-93988095D01*
X31257380Y-94464285D02*
X30590714Y-94464285D01*
X30781190Y-94464285D02*
X30685952Y-94511904D01*
X30638333Y-94559523D01*
X30590714Y-94654761D01*
X30590714Y-94750000D01*
X31209761Y-95464285D02*
X31257380Y-95369047D01*
X31257380Y-95178571D01*
X31209761Y-95083333D01*
X31114523Y-95035714D01*
X30733571Y-95035714D01*
X30638333Y-95083333D01*
X30590714Y-95178571D01*
X30590714Y-95369047D01*
X30638333Y-95464285D01*
X30733571Y-95511904D01*
X30828809Y-95511904D01*
X30924047Y-95035714D01*
X30352619Y-96654761D02*
X30305000Y-96702380D01*
X30257380Y-96797619D01*
X30257380Y-97035714D01*
X30305000Y-97130952D01*
X30352619Y-97178571D01*
X30447857Y-97226190D01*
X30543095Y-97226190D01*
X30685952Y-97178571D01*
X31257380Y-96607142D01*
X31257380Y-97226190D01*
X30590714Y-98083333D02*
X31257380Y-98083333D01*
X30209761Y-97845238D02*
X30924047Y-97607142D01*
X30924047Y-98226190D01*
X31257380Y-99511904D02*
X31209761Y-99416666D01*
X31162142Y-99369047D01*
X31066904Y-99321428D01*
X30781190Y-99321428D01*
X30685952Y-99369047D01*
X30638333Y-99416666D01*
X30590714Y-99511904D01*
X30590714Y-99654761D01*
X30638333Y-99750000D01*
X30685952Y-99797619D01*
X30781190Y-99845238D01*
X31066904Y-99845238D01*
X31162142Y-99797619D01*
X31209761Y-99750000D01*
X31257380Y-99654761D01*
X31257380Y-99511904D01*
X30590714Y-100130952D02*
X30590714Y-100511904D01*
X31257380Y-100273809D02*
X30400238Y-100273809D01*
X30305000Y-100321428D01*
X30257380Y-100416666D01*
X30257380Y-100511904D01*
X30590714Y-101464285D02*
X30590714Y-101845238D01*
X30257380Y-101607142D02*
X31114523Y-101607142D01*
X31209761Y-101654761D01*
X31257380Y-101750000D01*
X31257380Y-101845238D01*
X31257380Y-102178571D02*
X30257380Y-102178571D01*
X31257380Y-102607142D02*
X30733571Y-102607142D01*
X30638333Y-102559523D01*
X30590714Y-102464285D01*
X30590714Y-102321428D01*
X30638333Y-102226190D01*
X30685952Y-102178571D01*
X31209761Y-103464285D02*
X31257380Y-103369047D01*
X31257380Y-103178571D01*
X31209761Y-103083333D01*
X31114523Y-103035714D01*
X30733571Y-103035714D01*
X30638333Y-103083333D01*
X30590714Y-103178571D01*
X30590714Y-103369047D01*
X30638333Y-103464285D01*
X30733571Y-103511904D01*
X30828809Y-103511904D01*
X30924047Y-103035714D01*
X31257380Y-103940476D02*
X30590714Y-103940476D01*
X30685952Y-103940476D02*
X30638333Y-103988095D01*
X30590714Y-104083333D01*
X30590714Y-104226190D01*
X30638333Y-104321428D01*
X30733571Y-104369047D01*
X31257380Y-104369047D01*
X30733571Y-104369047D02*
X30638333Y-104416666D01*
X30590714Y-104511904D01*
X30590714Y-104654761D01*
X30638333Y-104750000D01*
X30733571Y-104797619D01*
X31257380Y-104797619D01*
X31162142Y-105273809D02*
X31209761Y-105321428D01*
X31257380Y-105273809D01*
X31209761Y-105226190D01*
X31162142Y-105273809D01*
X31257380Y-105273809D01*
X30876428Y-105273809D02*
X30305000Y-105226190D01*
X30257380Y-105273809D01*
X30305000Y-105321428D01*
X30876428Y-105273809D01*
X30257380Y-105273809D01*
X16147380Y-84750000D02*
X16147380Y-85321428D01*
X17147380Y-85035714D02*
X16147380Y-85035714D01*
X17147380Y-85654761D02*
X16147380Y-85654761D01*
X17147380Y-86083333D02*
X16623571Y-86083333D01*
X16528333Y-86035714D01*
X16480714Y-85940476D01*
X16480714Y-85797619D01*
X16528333Y-85702380D01*
X16575952Y-85654761D01*
X17147380Y-86559523D02*
X16480714Y-86559523D01*
X16147380Y-86559523D02*
X16195000Y-86511904D01*
X16242619Y-86559523D01*
X16195000Y-86607142D01*
X16147380Y-86559523D01*
X16242619Y-86559523D01*
X17099761Y-86988095D02*
X17147380Y-87083333D01*
X17147380Y-87273809D01*
X17099761Y-87369047D01*
X17004523Y-87416666D01*
X16956904Y-87416666D01*
X16861666Y-87369047D01*
X16814047Y-87273809D01*
X16814047Y-87130952D01*
X16766428Y-87035714D01*
X16671190Y-86988095D01*
X16623571Y-86988095D01*
X16528333Y-87035714D01*
X16480714Y-87130952D01*
X16480714Y-87273809D01*
X16528333Y-87369047D01*
X17147380Y-88607142D02*
X16480714Y-88607142D01*
X16147380Y-88607142D02*
X16195000Y-88559523D01*
X16242619Y-88607142D01*
X16195000Y-88654761D01*
X16147380Y-88607142D01*
X16242619Y-88607142D01*
X17099761Y-89035714D02*
X17147380Y-89130952D01*
X17147380Y-89321428D01*
X17099761Y-89416666D01*
X17004523Y-89464285D01*
X16956904Y-89464285D01*
X16861666Y-89416666D01*
X16814047Y-89321428D01*
X16814047Y-89178571D01*
X16766428Y-89083333D01*
X16671190Y-89035714D01*
X16623571Y-89035714D01*
X16528333Y-89083333D01*
X16480714Y-89178571D01*
X16480714Y-89321428D01*
X16528333Y-89416666D01*
X16480714Y-91083333D02*
X17290238Y-91083333D01*
X17385476Y-91035714D01*
X17433095Y-90988095D01*
X17480714Y-90892857D01*
X17480714Y-90750000D01*
X17433095Y-90654761D01*
X17099761Y-91083333D02*
X17147380Y-90988095D01*
X17147380Y-90797619D01*
X17099761Y-90702380D01*
X17052142Y-90654761D01*
X16956904Y-90607142D01*
X16671190Y-90607142D01*
X16575952Y-90654761D01*
X16528333Y-90702380D01*
X16480714Y-90797619D01*
X16480714Y-90988095D01*
X16528333Y-91083333D01*
X17099761Y-91940476D02*
X17147380Y-91845238D01*
X17147380Y-91654761D01*
X17099761Y-91559523D01*
X17004523Y-91511904D01*
X16623571Y-91511904D01*
X16528333Y-91559523D01*
X16480714Y-91654761D01*
X16480714Y-91845238D01*
X16528333Y-91940476D01*
X16623571Y-91988095D01*
X16718809Y-91988095D01*
X16814047Y-91511904D01*
X16480714Y-92273809D02*
X16480714Y-92654761D01*
X16147380Y-92416666D02*
X17004523Y-92416666D01*
X17099761Y-92464285D01*
X17147380Y-92559523D01*
X17147380Y-92654761D01*
X16480714Y-92845238D02*
X16480714Y-93226190D01*
X16147380Y-92988095D02*
X17004523Y-92988095D01*
X17099761Y-93035714D01*
X17147380Y-93130952D01*
X17147380Y-93226190D01*
X17147380Y-93559523D02*
X16480714Y-93559523D01*
X16147380Y-93559523D02*
X16195000Y-93511904D01*
X16242619Y-93559523D01*
X16195000Y-93607142D01*
X16147380Y-93559523D01*
X16242619Y-93559523D01*
X16480714Y-94035714D02*
X17147380Y-94035714D01*
X16575952Y-94035714D02*
X16528333Y-94083333D01*
X16480714Y-94178571D01*
X16480714Y-94321428D01*
X16528333Y-94416666D01*
X16623571Y-94464285D01*
X17147380Y-94464285D01*
X16480714Y-95369047D02*
X17290238Y-95369047D01*
X17385476Y-95321428D01*
X17433095Y-95273809D01*
X17480714Y-95178571D01*
X17480714Y-95035714D01*
X17433095Y-94940476D01*
X17099761Y-95369047D02*
X17147380Y-95273809D01*
X17147380Y-95083333D01*
X17099761Y-94988095D01*
X17052142Y-94940476D01*
X16956904Y-94892857D01*
X16671190Y-94892857D01*
X16575952Y-94940476D01*
X16528333Y-94988095D01*
X16480714Y-95083333D01*
X16480714Y-95273809D01*
X16528333Y-95369047D01*
X17147380Y-96750000D02*
X17099761Y-96654761D01*
X17052142Y-96607142D01*
X16956904Y-96559523D01*
X16671190Y-96559523D01*
X16575952Y-96607142D01*
X16528333Y-96654761D01*
X16480714Y-96750000D01*
X16480714Y-96892857D01*
X16528333Y-96988095D01*
X16575952Y-97035714D01*
X16671190Y-97083333D01*
X16956904Y-97083333D01*
X17052142Y-97035714D01*
X17099761Y-96988095D01*
X17147380Y-96892857D01*
X17147380Y-96750000D01*
X16480714Y-97940476D02*
X17147380Y-97940476D01*
X16480714Y-97511904D02*
X17004523Y-97511904D01*
X17099761Y-97559523D01*
X17147380Y-97654761D01*
X17147380Y-97797619D01*
X17099761Y-97892857D01*
X17052142Y-97940476D01*
X16480714Y-98273809D02*
X16480714Y-98654761D01*
X16147380Y-98416666D02*
X17004523Y-98416666D01*
X17099761Y-98464285D01*
X17147380Y-98559523D01*
X17147380Y-98654761D01*
X17147380Y-99892857D02*
X17099761Y-99797619D01*
X17052142Y-99750000D01*
X16956904Y-99702380D01*
X16671190Y-99702380D01*
X16575952Y-99750000D01*
X16528333Y-99797619D01*
X16480714Y-99892857D01*
X16480714Y-100035714D01*
X16528333Y-100130952D01*
X16575952Y-100178571D01*
X16671190Y-100226190D01*
X16956904Y-100226190D01*
X17052142Y-100178571D01*
X17099761Y-100130952D01*
X17147380Y-100035714D01*
X17147380Y-99892857D01*
X16480714Y-100511904D02*
X16480714Y-100892857D01*
X17147380Y-100654761D02*
X16290238Y-100654761D01*
X16195000Y-100702380D01*
X16147380Y-100797619D01*
X16147380Y-100892857D01*
X17147380Y-101988095D02*
X16147380Y-101988095D01*
X17147380Y-102416666D02*
X16623571Y-102416666D01*
X16528333Y-102369047D01*
X16480714Y-102273809D01*
X16480714Y-102130952D01*
X16528333Y-102035714D01*
X16575952Y-101988095D01*
X17147380Y-103321428D02*
X16623571Y-103321428D01*
X16528333Y-103273809D01*
X16480714Y-103178571D01*
X16480714Y-102988095D01*
X16528333Y-102892857D01*
X17099761Y-103321428D02*
X17147380Y-103226190D01*
X17147380Y-102988095D01*
X17099761Y-102892857D01*
X17004523Y-102845238D01*
X16909285Y-102845238D01*
X16814047Y-102892857D01*
X16766428Y-102988095D01*
X16766428Y-103226190D01*
X16718809Y-103321428D01*
X16480714Y-103797619D02*
X17147380Y-103797619D01*
X16575952Y-103797619D02*
X16528333Y-103845238D01*
X16480714Y-103940476D01*
X16480714Y-104083333D01*
X16528333Y-104178571D01*
X16623571Y-104226190D01*
X17147380Y-104226190D01*
X17147380Y-105130952D02*
X16147380Y-105130952D01*
X17099761Y-105130952D02*
X17147380Y-105035714D01*
X17147380Y-104845238D01*
X17099761Y-104750000D01*
X17052142Y-104702380D01*
X16956904Y-104654761D01*
X16671190Y-104654761D01*
X16575952Y-104702380D01*
X16528333Y-104750000D01*
X16480714Y-104845238D01*
X16480714Y-105035714D01*
X16528333Y-105130952D01*
X17052142Y-105607142D02*
X17099761Y-105654761D01*
X17147380Y-105607142D01*
X17099761Y-105559523D01*
X17052142Y-105607142D01*
X17147380Y-105607142D01*
X16766428Y-105607142D02*
X16195000Y-105559523D01*
X16147380Y-105607142D01*
X16195000Y-105654761D01*
X16766428Y-105607142D01*
X16147380Y-105607142D01*
X18757380Y-85226190D02*
X17757380Y-85226190D01*
X18757380Y-85797619D01*
X17757380Y-85797619D01*
X18757380Y-86416666D02*
X18709761Y-86321428D01*
X18662142Y-86273809D01*
X18566904Y-86226190D01*
X18281190Y-86226190D01*
X18185952Y-86273809D01*
X18138333Y-86321428D01*
X18090714Y-86416666D01*
X18090714Y-86559523D01*
X18138333Y-86654761D01*
X18185952Y-86702380D01*
X18281190Y-86750000D01*
X18566904Y-86750000D01*
X18662142Y-86702380D01*
X18709761Y-86654761D01*
X18757380Y-86559523D01*
X18757380Y-86416666D01*
X18090714Y-87083333D02*
X18757380Y-87273809D01*
X18281190Y-87464285D01*
X18757380Y-87654761D01*
X18090714Y-87845238D01*
X18090714Y-88845238D02*
X18090714Y-89226190D01*
X17757380Y-88988095D02*
X18614523Y-88988095D01*
X18709761Y-89035714D01*
X18757380Y-89130952D01*
X18757380Y-89226190D01*
X18757380Y-89559523D02*
X17757380Y-89559523D01*
X18757380Y-89988095D02*
X18233571Y-89988095D01*
X18138333Y-89940476D01*
X18090714Y-89845238D01*
X18090714Y-89702380D01*
X18138333Y-89607142D01*
X18185952Y-89559523D01*
X18709761Y-90845238D02*
X18757380Y-90750000D01*
X18757380Y-90559523D01*
X18709761Y-90464285D01*
X18614523Y-90416666D01*
X18233571Y-90416666D01*
X18138333Y-90464285D01*
X18090714Y-90559523D01*
X18090714Y-90750000D01*
X18138333Y-90845238D01*
X18233571Y-90892857D01*
X18328809Y-90892857D01*
X18424047Y-90416666D01*
X18757380Y-91321428D02*
X18090714Y-91321428D01*
X18281190Y-91321428D02*
X18185952Y-91369047D01*
X18138333Y-91416666D01*
X18090714Y-91511904D01*
X18090714Y-91607142D01*
X18709761Y-92321428D02*
X18757380Y-92226190D01*
X18757380Y-92035714D01*
X18709761Y-91940476D01*
X18614523Y-91892857D01*
X18233571Y-91892857D01*
X18138333Y-91940476D01*
X18090714Y-92035714D01*
X18090714Y-92226190D01*
X18138333Y-92321428D01*
X18233571Y-92369047D01*
X18328809Y-92369047D01*
X18424047Y-91892857D01*
X18757380Y-93988095D02*
X18233571Y-93988095D01*
X18138333Y-93940476D01*
X18090714Y-93845238D01*
X18090714Y-93654761D01*
X18138333Y-93559523D01*
X18709761Y-93988095D02*
X18757380Y-93892857D01*
X18757380Y-93654761D01*
X18709761Y-93559523D01*
X18614523Y-93511904D01*
X18519285Y-93511904D01*
X18424047Y-93559523D01*
X18376428Y-93654761D01*
X18376428Y-93892857D01*
X18328809Y-93988095D01*
X18757380Y-94464285D02*
X18090714Y-94464285D01*
X18281190Y-94464285D02*
X18185952Y-94511904D01*
X18138333Y-94559523D01*
X18090714Y-94654761D01*
X18090714Y-94750000D01*
X18709761Y-95464285D02*
X18757380Y-95369047D01*
X18757380Y-95178571D01*
X18709761Y-95083333D01*
X18614523Y-95035714D01*
X18233571Y-95035714D01*
X18138333Y-95083333D01*
X18090714Y-95178571D01*
X18090714Y-95369047D01*
X18138333Y-95464285D01*
X18233571Y-95511904D01*
X18328809Y-95511904D01*
X18424047Y-95035714D01*
X17852619Y-96654761D02*
X17805000Y-96702380D01*
X17757380Y-96797619D01*
X17757380Y-97035714D01*
X17805000Y-97130952D01*
X17852619Y-97178571D01*
X17947857Y-97226190D01*
X18043095Y-97226190D01*
X18185952Y-97178571D01*
X18757380Y-96607142D01*
X18757380Y-97226190D01*
X18090714Y-98083333D02*
X18757380Y-98083333D01*
X17709761Y-97845238D02*
X18424047Y-97607142D01*
X18424047Y-98226190D01*
X18757380Y-99511904D02*
X18709761Y-99416666D01*
X18662142Y-99369047D01*
X18566904Y-99321428D01*
X18281190Y-99321428D01*
X18185952Y-99369047D01*
X18138333Y-99416666D01*
X18090714Y-99511904D01*
X18090714Y-99654761D01*
X18138333Y-99750000D01*
X18185952Y-99797619D01*
X18281190Y-99845238D01*
X18566904Y-99845238D01*
X18662142Y-99797619D01*
X18709761Y-99750000D01*
X18757380Y-99654761D01*
X18757380Y-99511904D01*
X18090714Y-100130952D02*
X18090714Y-100511904D01*
X18757380Y-100273809D02*
X17900238Y-100273809D01*
X17805000Y-100321428D01*
X17757380Y-100416666D01*
X17757380Y-100511904D01*
X18090714Y-101464285D02*
X18090714Y-101845238D01*
X17757380Y-101607142D02*
X18614523Y-101607142D01*
X18709761Y-101654761D01*
X18757380Y-101750000D01*
X18757380Y-101845238D01*
X18757380Y-102178571D02*
X17757380Y-102178571D01*
X18757380Y-102607142D02*
X18233571Y-102607142D01*
X18138333Y-102559523D01*
X18090714Y-102464285D01*
X18090714Y-102321428D01*
X18138333Y-102226190D01*
X18185952Y-102178571D01*
X18709761Y-103464285D02*
X18757380Y-103369047D01*
X18757380Y-103178571D01*
X18709761Y-103083333D01*
X18614523Y-103035714D01*
X18233571Y-103035714D01*
X18138333Y-103083333D01*
X18090714Y-103178571D01*
X18090714Y-103369047D01*
X18138333Y-103464285D01*
X18233571Y-103511904D01*
X18328809Y-103511904D01*
X18424047Y-103035714D01*
X18757380Y-103940476D02*
X18090714Y-103940476D01*
X18185952Y-103940476D02*
X18138333Y-103988095D01*
X18090714Y-104083333D01*
X18090714Y-104226190D01*
X18138333Y-104321428D01*
X18233571Y-104369047D01*
X18757380Y-104369047D01*
X18233571Y-104369047D02*
X18138333Y-104416666D01*
X18090714Y-104511904D01*
X18090714Y-104654761D01*
X18138333Y-104750000D01*
X18233571Y-104797619D01*
X18757380Y-104797619D01*
X18662142Y-105273809D02*
X18709761Y-105321428D01*
X18757380Y-105273809D01*
X18709761Y-105226190D01*
X18662142Y-105273809D01*
X18757380Y-105273809D01*
X18376428Y-105273809D02*
X17805000Y-105226190D01*
X17757380Y-105273809D01*
X17805000Y-105321428D01*
X18376428Y-105273809D01*
X17757380Y-105273809D01*
X3647380Y-84750000D02*
X3647380Y-85321428D01*
X4647380Y-85035714D02*
X3647380Y-85035714D01*
X4647380Y-85654761D02*
X3647380Y-85654761D01*
X4647380Y-86083333D02*
X4123571Y-86083333D01*
X4028333Y-86035714D01*
X3980714Y-85940476D01*
X3980714Y-85797619D01*
X4028333Y-85702380D01*
X4075952Y-85654761D01*
X4647380Y-86559523D02*
X3980714Y-86559523D01*
X3647380Y-86559523D02*
X3695000Y-86511904D01*
X3742619Y-86559523D01*
X3695000Y-86607142D01*
X3647380Y-86559523D01*
X3742619Y-86559523D01*
X4599761Y-86988095D02*
X4647380Y-87083333D01*
X4647380Y-87273809D01*
X4599761Y-87369047D01*
X4504523Y-87416666D01*
X4456904Y-87416666D01*
X4361666Y-87369047D01*
X4314047Y-87273809D01*
X4314047Y-87130952D01*
X4266428Y-87035714D01*
X4171190Y-86988095D01*
X4123571Y-86988095D01*
X4028333Y-87035714D01*
X3980714Y-87130952D01*
X3980714Y-87273809D01*
X4028333Y-87369047D01*
X4647380Y-88607142D02*
X3980714Y-88607142D01*
X3647380Y-88607142D02*
X3695000Y-88559523D01*
X3742619Y-88607142D01*
X3695000Y-88654761D01*
X3647380Y-88607142D01*
X3742619Y-88607142D01*
X4599761Y-89035714D02*
X4647380Y-89130952D01*
X4647380Y-89321428D01*
X4599761Y-89416666D01*
X4504523Y-89464285D01*
X4456904Y-89464285D01*
X4361666Y-89416666D01*
X4314047Y-89321428D01*
X4314047Y-89178571D01*
X4266428Y-89083333D01*
X4171190Y-89035714D01*
X4123571Y-89035714D01*
X4028333Y-89083333D01*
X3980714Y-89178571D01*
X3980714Y-89321428D01*
X4028333Y-89416666D01*
X3980714Y-91083333D02*
X4790238Y-91083333D01*
X4885476Y-91035714D01*
X4933095Y-90988095D01*
X4980714Y-90892857D01*
X4980714Y-90750000D01*
X4933095Y-90654761D01*
X4599761Y-91083333D02*
X4647380Y-90988095D01*
X4647380Y-90797619D01*
X4599761Y-90702380D01*
X4552142Y-90654761D01*
X4456904Y-90607142D01*
X4171190Y-90607142D01*
X4075952Y-90654761D01*
X4028333Y-90702380D01*
X3980714Y-90797619D01*
X3980714Y-90988095D01*
X4028333Y-91083333D01*
X4599761Y-91940476D02*
X4647380Y-91845238D01*
X4647380Y-91654761D01*
X4599761Y-91559523D01*
X4504523Y-91511904D01*
X4123571Y-91511904D01*
X4028333Y-91559523D01*
X3980714Y-91654761D01*
X3980714Y-91845238D01*
X4028333Y-91940476D01*
X4123571Y-91988095D01*
X4218809Y-91988095D01*
X4314047Y-91511904D01*
X3980714Y-92273809D02*
X3980714Y-92654761D01*
X3647380Y-92416666D02*
X4504523Y-92416666D01*
X4599761Y-92464285D01*
X4647380Y-92559523D01*
X4647380Y-92654761D01*
X3980714Y-92845238D02*
X3980714Y-93226190D01*
X3647380Y-92988095D02*
X4504523Y-92988095D01*
X4599761Y-93035714D01*
X4647380Y-93130952D01*
X4647380Y-93226190D01*
X4647380Y-93559523D02*
X3980714Y-93559523D01*
X3647380Y-93559523D02*
X3695000Y-93511904D01*
X3742619Y-93559523D01*
X3695000Y-93607142D01*
X3647380Y-93559523D01*
X3742619Y-93559523D01*
X3980714Y-94035714D02*
X4647380Y-94035714D01*
X4075952Y-94035714D02*
X4028333Y-94083333D01*
X3980714Y-94178571D01*
X3980714Y-94321428D01*
X4028333Y-94416666D01*
X4123571Y-94464285D01*
X4647380Y-94464285D01*
X3980714Y-95369047D02*
X4790238Y-95369047D01*
X4885476Y-95321428D01*
X4933095Y-95273809D01*
X4980714Y-95178571D01*
X4980714Y-95035714D01*
X4933095Y-94940476D01*
X4599761Y-95369047D02*
X4647380Y-95273809D01*
X4647380Y-95083333D01*
X4599761Y-94988095D01*
X4552142Y-94940476D01*
X4456904Y-94892857D01*
X4171190Y-94892857D01*
X4075952Y-94940476D01*
X4028333Y-94988095D01*
X3980714Y-95083333D01*
X3980714Y-95273809D01*
X4028333Y-95369047D01*
X4647380Y-96750000D02*
X4599761Y-96654761D01*
X4552142Y-96607142D01*
X4456904Y-96559523D01*
X4171190Y-96559523D01*
X4075952Y-96607142D01*
X4028333Y-96654761D01*
X3980714Y-96750000D01*
X3980714Y-96892857D01*
X4028333Y-96988095D01*
X4075952Y-97035714D01*
X4171190Y-97083333D01*
X4456904Y-97083333D01*
X4552142Y-97035714D01*
X4599761Y-96988095D01*
X4647380Y-96892857D01*
X4647380Y-96750000D01*
X3980714Y-97940476D02*
X4647380Y-97940476D01*
X3980714Y-97511904D02*
X4504523Y-97511904D01*
X4599761Y-97559523D01*
X4647380Y-97654761D01*
X4647380Y-97797619D01*
X4599761Y-97892857D01*
X4552142Y-97940476D01*
X3980714Y-98273809D02*
X3980714Y-98654761D01*
X3647380Y-98416666D02*
X4504523Y-98416666D01*
X4599761Y-98464285D01*
X4647380Y-98559523D01*
X4647380Y-98654761D01*
X4647380Y-99892857D02*
X4599761Y-99797619D01*
X4552142Y-99750000D01*
X4456904Y-99702380D01*
X4171190Y-99702380D01*
X4075952Y-99750000D01*
X4028333Y-99797619D01*
X3980714Y-99892857D01*
X3980714Y-100035714D01*
X4028333Y-100130952D01*
X4075952Y-100178571D01*
X4171190Y-100226190D01*
X4456904Y-100226190D01*
X4552142Y-100178571D01*
X4599761Y-100130952D01*
X4647380Y-100035714D01*
X4647380Y-99892857D01*
X3980714Y-100511904D02*
X3980714Y-100892857D01*
X4647380Y-100654761D02*
X3790238Y-100654761D01*
X3695000Y-100702380D01*
X3647380Y-100797619D01*
X3647380Y-100892857D01*
X4647380Y-101988095D02*
X3647380Y-101988095D01*
X4647380Y-102416666D02*
X4123571Y-102416666D01*
X4028333Y-102369047D01*
X3980714Y-102273809D01*
X3980714Y-102130952D01*
X4028333Y-102035714D01*
X4075952Y-101988095D01*
X4647380Y-103321428D02*
X4123571Y-103321428D01*
X4028333Y-103273809D01*
X3980714Y-103178571D01*
X3980714Y-102988095D01*
X4028333Y-102892857D01*
X4599761Y-103321428D02*
X4647380Y-103226190D01*
X4647380Y-102988095D01*
X4599761Y-102892857D01*
X4504523Y-102845238D01*
X4409285Y-102845238D01*
X4314047Y-102892857D01*
X4266428Y-102988095D01*
X4266428Y-103226190D01*
X4218809Y-103321428D01*
X3980714Y-103797619D02*
X4647380Y-103797619D01*
X4075952Y-103797619D02*
X4028333Y-103845238D01*
X3980714Y-103940476D01*
X3980714Y-104083333D01*
X4028333Y-104178571D01*
X4123571Y-104226190D01*
X4647380Y-104226190D01*
X4647380Y-105130952D02*
X3647380Y-105130952D01*
X4599761Y-105130952D02*
X4647380Y-105035714D01*
X4647380Y-104845238D01*
X4599761Y-104750000D01*
X4552142Y-104702380D01*
X4456904Y-104654761D01*
X4171190Y-104654761D01*
X4075952Y-104702380D01*
X4028333Y-104750000D01*
X3980714Y-104845238D01*
X3980714Y-105035714D01*
X4028333Y-105130952D01*
X4552142Y-105607142D02*
X4599761Y-105654761D01*
X4647380Y-105607142D01*
X4599761Y-105559523D01*
X4552142Y-105607142D01*
X4647380Y-105607142D01*
X4266428Y-105607142D02*
X3695000Y-105559523D01*
X3647380Y-105607142D01*
X3695000Y-105654761D01*
X4266428Y-105607142D01*
X3647380Y-105607142D01*
X6257380Y-85226190D02*
X5257380Y-85226190D01*
X6257380Y-85797619D01*
X5257380Y-85797619D01*
X6257380Y-86416666D02*
X6209761Y-86321428D01*
X6162142Y-86273809D01*
X6066904Y-86226190D01*
X5781190Y-86226190D01*
X5685952Y-86273809D01*
X5638333Y-86321428D01*
X5590714Y-86416666D01*
X5590714Y-86559523D01*
X5638333Y-86654761D01*
X5685952Y-86702380D01*
X5781190Y-86750000D01*
X6066904Y-86750000D01*
X6162142Y-86702380D01*
X6209761Y-86654761D01*
X6257380Y-86559523D01*
X6257380Y-86416666D01*
X5590714Y-87083333D02*
X6257380Y-87273809D01*
X5781190Y-87464285D01*
X6257380Y-87654761D01*
X5590714Y-87845238D01*
X5590714Y-88845238D02*
X5590714Y-89226190D01*
X5257380Y-88988095D02*
X6114523Y-88988095D01*
X6209761Y-89035714D01*
X6257380Y-89130952D01*
X6257380Y-89226190D01*
X6257380Y-89559523D02*
X5257380Y-89559523D01*
X6257380Y-89988095D02*
X5733571Y-89988095D01*
X5638333Y-89940476D01*
X5590714Y-89845238D01*
X5590714Y-89702380D01*
X5638333Y-89607142D01*
X5685952Y-89559523D01*
X6209761Y-90845238D02*
X6257380Y-90750000D01*
X6257380Y-90559523D01*
X6209761Y-90464285D01*
X6114523Y-90416666D01*
X5733571Y-90416666D01*
X5638333Y-90464285D01*
X5590714Y-90559523D01*
X5590714Y-90750000D01*
X5638333Y-90845238D01*
X5733571Y-90892857D01*
X5828809Y-90892857D01*
X5924047Y-90416666D01*
X6257380Y-91321428D02*
X5590714Y-91321428D01*
X5781190Y-91321428D02*
X5685952Y-91369047D01*
X5638333Y-91416666D01*
X5590714Y-91511904D01*
X5590714Y-91607142D01*
X6209761Y-92321428D02*
X6257380Y-92226190D01*
X6257380Y-92035714D01*
X6209761Y-91940476D01*
X6114523Y-91892857D01*
X5733571Y-91892857D01*
X5638333Y-91940476D01*
X5590714Y-92035714D01*
X5590714Y-92226190D01*
X5638333Y-92321428D01*
X5733571Y-92369047D01*
X5828809Y-92369047D01*
X5924047Y-91892857D01*
X6257380Y-93988095D02*
X5733571Y-93988095D01*
X5638333Y-93940476D01*
X5590714Y-93845238D01*
X5590714Y-93654761D01*
X5638333Y-93559523D01*
X6209761Y-93988095D02*
X6257380Y-93892857D01*
X6257380Y-93654761D01*
X6209761Y-93559523D01*
X6114523Y-93511904D01*
X6019285Y-93511904D01*
X5924047Y-93559523D01*
X5876428Y-93654761D01*
X5876428Y-93892857D01*
X5828809Y-93988095D01*
X6257380Y-94464285D02*
X5590714Y-94464285D01*
X5781190Y-94464285D02*
X5685952Y-94511904D01*
X5638333Y-94559523D01*
X5590714Y-94654761D01*
X5590714Y-94750000D01*
X6209761Y-95464285D02*
X6257380Y-95369047D01*
X6257380Y-95178571D01*
X6209761Y-95083333D01*
X6114523Y-95035714D01*
X5733571Y-95035714D01*
X5638333Y-95083333D01*
X5590714Y-95178571D01*
X5590714Y-95369047D01*
X5638333Y-95464285D01*
X5733571Y-95511904D01*
X5828809Y-95511904D01*
X5924047Y-95035714D01*
X5352619Y-96654761D02*
X5305000Y-96702380D01*
X5257380Y-96797619D01*
X5257380Y-97035714D01*
X5305000Y-97130952D01*
X5352619Y-97178571D01*
X5447857Y-97226190D01*
X5543095Y-97226190D01*
X5685952Y-97178571D01*
X6257380Y-96607142D01*
X6257380Y-97226190D01*
X5590714Y-98083333D02*
X6257380Y-98083333D01*
X5209761Y-97845238D02*
X5924047Y-97607142D01*
X5924047Y-98226190D01*
X6257380Y-99511904D02*
X6209761Y-99416666D01*
X6162142Y-99369047D01*
X6066904Y-99321428D01*
X5781190Y-99321428D01*
X5685952Y-99369047D01*
X5638333Y-99416666D01*
X5590714Y-99511904D01*
X5590714Y-99654761D01*
X5638333Y-99750000D01*
X5685952Y-99797619D01*
X5781190Y-99845238D01*
X6066904Y-99845238D01*
X6162142Y-99797619D01*
X6209761Y-99750000D01*
X6257380Y-99654761D01*
X6257380Y-99511904D01*
X5590714Y-100130952D02*
X5590714Y-100511904D01*
X6257380Y-100273809D02*
X5400238Y-100273809D01*
X5305000Y-100321428D01*
X5257380Y-100416666D01*
X5257380Y-100511904D01*
X5590714Y-101464285D02*
X5590714Y-101845238D01*
X5257380Y-101607142D02*
X6114523Y-101607142D01*
X6209761Y-101654761D01*
X6257380Y-101750000D01*
X6257380Y-101845238D01*
X6257380Y-102178571D02*
X5257380Y-102178571D01*
X6257380Y-102607142D02*
X5733571Y-102607142D01*
X5638333Y-102559523D01*
X5590714Y-102464285D01*
X5590714Y-102321428D01*
X5638333Y-102226190D01*
X5685952Y-102178571D01*
X6209761Y-103464285D02*
X6257380Y-103369047D01*
X6257380Y-103178571D01*
X6209761Y-103083333D01*
X6114523Y-103035714D01*
X5733571Y-103035714D01*
X5638333Y-103083333D01*
X5590714Y-103178571D01*
X5590714Y-103369047D01*
X5638333Y-103464285D01*
X5733571Y-103511904D01*
X5828809Y-103511904D01*
X5924047Y-103035714D01*
X6257380Y-103940476D02*
X5590714Y-103940476D01*
X5685952Y-103940476D02*
X5638333Y-103988095D01*
X5590714Y-104083333D01*
X5590714Y-104226190D01*
X5638333Y-104321428D01*
X5733571Y-104369047D01*
X6257380Y-104369047D01*
X5733571Y-104369047D02*
X5638333Y-104416666D01*
X5590714Y-104511904D01*
X5590714Y-104654761D01*
X5638333Y-104750000D01*
X5733571Y-104797619D01*
X6257380Y-104797619D01*
X6162142Y-105273809D02*
X6209761Y-105321428D01*
X6257380Y-105273809D01*
X6209761Y-105226190D01*
X6162142Y-105273809D01*
X6257380Y-105273809D01*
X5876428Y-105273809D02*
X5305000Y-105226190D01*
X5257380Y-105273809D01*
X5305000Y-105321428D01*
X5876428Y-105273809D01*
X5257380Y-105273809D01*
D10*
X54294761Y-482083333D02*
X52294761Y-482083333D01*
X52294761Y-482845238D01*
X52390000Y-483035714D01*
X52485238Y-483130952D01*
X52675714Y-483226190D01*
X52961428Y-483226190D01*
X53151904Y-483130952D01*
X53247142Y-483035714D01*
X53342380Y-482845238D01*
X53342380Y-482083333D01*
X54294761Y-484083333D02*
X52294761Y-484083333D01*
X54294761Y-484940476D02*
X53247142Y-484940476D01*
X53056666Y-484845238D01*
X52961428Y-484654761D01*
X52961428Y-484369047D01*
X53056666Y-484178571D01*
X53151904Y-484083333D01*
X54294761Y-486750000D02*
X53247142Y-486750000D01*
X53056666Y-486654761D01*
X52961428Y-486464285D01*
X52961428Y-486083333D01*
X53056666Y-485892857D01*
X54199523Y-486750000D02*
X54294761Y-486559523D01*
X54294761Y-486083333D01*
X54199523Y-485892857D01*
X54009047Y-485797619D01*
X53818571Y-485797619D01*
X53628095Y-485892857D01*
X53532857Y-486083333D01*
X53532857Y-486559523D01*
X53437619Y-486750000D01*
X54199523Y-487607142D02*
X54294761Y-487797619D01*
X54294761Y-488178571D01*
X54199523Y-488369047D01*
X54009047Y-488464285D01*
X53913809Y-488464285D01*
X53723333Y-488369047D01*
X53628095Y-488178571D01*
X53628095Y-487892857D01*
X53532857Y-487702380D01*
X53342380Y-487607142D01*
X53247142Y-487607142D01*
X53056666Y-487702380D01*
X52961428Y-487892857D01*
X52961428Y-488178571D01*
X53056666Y-488369047D01*
X54199523Y-490083333D02*
X54294761Y-489892857D01*
X54294761Y-489511904D01*
X54199523Y-489321428D01*
X54009047Y-489226190D01*
X53247142Y-489226190D01*
X53056666Y-489321428D01*
X52961428Y-489511904D01*
X52961428Y-489892857D01*
X53056666Y-490083333D01*
X53247142Y-490178571D01*
X53437619Y-490178571D01*
X53628095Y-489226190D01*
X53723333Y-492464285D02*
X53723333Y-493416666D01*
X54294761Y-492273809D02*
X52294761Y-492940476D01*
X54294761Y-493607142D01*
X54294761Y-494273809D02*
X52961428Y-494273809D01*
X53342380Y-494273809D02*
X53151904Y-494369047D01*
X53056666Y-494464285D01*
X52961428Y-494654761D01*
X52961428Y-494845238D01*
X54294761Y-495511904D02*
X52961428Y-495511904D01*
X53342380Y-495511904D02*
X53151904Y-495607142D01*
X53056666Y-495702380D01*
X52961428Y-495892857D01*
X52961428Y-496083333D01*
X54294761Y-497607142D02*
X53247142Y-497607142D01*
X53056666Y-497511904D01*
X52961428Y-497321428D01*
X52961428Y-496940476D01*
X53056666Y-496750000D01*
X54199523Y-497607142D02*
X54294761Y-497416666D01*
X54294761Y-496940476D01*
X54199523Y-496750000D01*
X54009047Y-496654761D01*
X53818571Y-496654761D01*
X53628095Y-496750000D01*
X53532857Y-496940476D01*
X53532857Y-497416666D01*
X53437619Y-497607142D01*
X52961428Y-498369047D02*
X54294761Y-498845238D01*
X52961428Y-499321428D02*
X54294761Y-498845238D01*
X54770952Y-498654761D01*
X54866190Y-498559523D01*
X54961428Y-498369047D01*
X53723333Y-501511904D02*
X53723333Y-502464285D01*
X54294761Y-501321428D02*
X52294761Y-501988095D01*
X54294761Y-502654761D01*
X54294761Y-503321428D02*
X52961428Y-503321428D01*
X53342380Y-503321428D02*
X53151904Y-503416666D01*
X53056666Y-503511904D01*
X52961428Y-503702380D01*
X52961428Y-503892857D01*
X54294761Y-504559523D02*
X52961428Y-504559523D01*
X53151904Y-504559523D02*
X53056666Y-504654761D01*
X52961428Y-504845238D01*
X52961428Y-505130952D01*
X53056666Y-505321428D01*
X53247142Y-505416666D01*
X54294761Y-505416666D01*
X53247142Y-505416666D02*
X53056666Y-505511904D01*
X52961428Y-505702380D01*
X52961428Y-505988095D01*
X53056666Y-506178571D01*
X53247142Y-506273809D01*
X54294761Y-506273809D01*
X52294761Y-508464285D02*
X54294761Y-509130952D01*
X52294761Y-509797619D01*
X54294761Y-511511904D02*
X54294761Y-510369047D01*
X54294761Y-510940476D02*
X52294761Y-510940476D01*
X52580476Y-510750000D01*
X52770952Y-510559523D01*
X52866190Y-510369047D01*
X56467142Y-485940476D02*
X56562380Y-486226190D01*
X56657619Y-486321428D01*
X56848095Y-486416666D01*
X57133809Y-486416666D01*
X57324285Y-486321428D01*
X57419523Y-486226190D01*
X57514761Y-486035714D01*
X57514761Y-485273809D01*
X55514761Y-485273809D01*
X55514761Y-485940476D01*
X55610000Y-486130952D01*
X55705238Y-486226190D01*
X55895714Y-486321428D01*
X56086190Y-486321428D01*
X56276666Y-486226190D01*
X56371904Y-486130952D01*
X56467142Y-485940476D01*
X56467142Y-485273809D01*
X57419523Y-488035714D02*
X57514761Y-487845238D01*
X57514761Y-487464285D01*
X57419523Y-487273809D01*
X57229047Y-487178571D01*
X56467142Y-487178571D01*
X56276666Y-487273809D01*
X56181428Y-487464285D01*
X56181428Y-487845238D01*
X56276666Y-488035714D01*
X56467142Y-488130952D01*
X56657619Y-488130952D01*
X56848095Y-487178571D01*
X56181428Y-488988095D02*
X57514761Y-488988095D01*
X56371904Y-488988095D02*
X56276666Y-489083333D01*
X56181428Y-489273809D01*
X56181428Y-489559523D01*
X56276666Y-489750000D01*
X56467142Y-489845238D01*
X57514761Y-489845238D01*
X55514761Y-492130952D02*
X57514761Y-492607142D01*
X56086190Y-492988095D01*
X57514761Y-493369047D01*
X55514761Y-493845238D01*
X57514761Y-495464285D02*
X56467142Y-495464285D01*
X56276666Y-495369047D01*
X56181428Y-495178571D01*
X56181428Y-494797619D01*
X56276666Y-494607142D01*
X57419523Y-495464285D02*
X57514761Y-495273809D01*
X57514761Y-494797619D01*
X57419523Y-494607142D01*
X57229047Y-494511904D01*
X57038571Y-494511904D01*
X56848095Y-494607142D01*
X56752857Y-494797619D01*
X56752857Y-495273809D01*
X56657619Y-495464285D01*
X56181428Y-496416666D02*
X57514761Y-496416666D01*
X56371904Y-496416666D02*
X56276666Y-496511904D01*
X56181428Y-496702380D01*
X56181428Y-496988095D01*
X56276666Y-497178571D01*
X56467142Y-497273809D01*
X57514761Y-497273809D01*
X56181428Y-499083333D02*
X57800476Y-499083333D01*
X57990952Y-498988095D01*
X58086190Y-498892857D01*
X58181428Y-498702380D01*
X58181428Y-498416666D01*
X58086190Y-498226190D01*
X57419523Y-499083333D02*
X57514761Y-498892857D01*
X57514761Y-498511904D01*
X57419523Y-498321428D01*
X57324285Y-498226190D01*
X57133809Y-498130952D01*
X56562380Y-498130952D01*
X56371904Y-498226190D01*
X56276666Y-498321428D01*
X56181428Y-498511904D01*
X56181428Y-498892857D01*
X56276666Y-499083333D01*
X55705238Y-501464285D02*
X55610000Y-501559523D01*
X55514761Y-501750000D01*
X55514761Y-502226190D01*
X55610000Y-502416666D01*
X55705238Y-502511904D01*
X55895714Y-502607142D01*
X56086190Y-502607142D01*
X56371904Y-502511904D01*
X57514761Y-501369047D01*
X57514761Y-502607142D01*
X55514761Y-503845238D02*
X55514761Y-504035714D01*
X55610000Y-504226190D01*
X55705238Y-504321428D01*
X55895714Y-504416666D01*
X56276666Y-504511904D01*
X56752857Y-504511904D01*
X57133809Y-504416666D01*
X57324285Y-504321428D01*
X57419523Y-504226190D01*
X57514761Y-504035714D01*
X57514761Y-503845238D01*
X57419523Y-503654761D01*
X57324285Y-503559523D01*
X57133809Y-503464285D01*
X56752857Y-503369047D01*
X56276666Y-503369047D01*
X55895714Y-503464285D01*
X55705238Y-503559523D01*
X55610000Y-503654761D01*
X55514761Y-503845238D01*
X55705238Y-505273809D02*
X55610000Y-505369047D01*
X55514761Y-505559523D01*
X55514761Y-506035714D01*
X55610000Y-506226190D01*
X55705238Y-506321428D01*
X55895714Y-506416666D01*
X56086190Y-506416666D01*
X56371904Y-506321428D01*
X57514761Y-505178571D01*
X57514761Y-506416666D01*
X55705238Y-507178571D02*
X55610000Y-507273809D01*
X55514761Y-507464285D01*
X55514761Y-507940476D01*
X55610000Y-508130952D01*
X55705238Y-508226190D01*
X55895714Y-508321428D01*
X56086190Y-508321428D01*
X56371904Y-508226190D01*
X57514761Y-507083333D01*
X57514761Y-508321428D01*
D11*
X41147380Y-84750000D02*
X41147380Y-85321428D01*
X42147380Y-85035714D02*
X41147380Y-85035714D01*
X42147380Y-85654761D02*
X41147380Y-85654761D01*
X42147380Y-86083333D02*
X41623571Y-86083333D01*
X41528333Y-86035714D01*
X41480714Y-85940476D01*
X41480714Y-85797619D01*
X41528333Y-85702380D01*
X41575952Y-85654761D01*
X42147380Y-86559523D02*
X41480714Y-86559523D01*
X41147380Y-86559523D02*
X41195000Y-86511904D01*
X41242619Y-86559523D01*
X41195000Y-86607142D01*
X41147380Y-86559523D01*
X41242619Y-86559523D01*
X42099761Y-86988095D02*
X42147380Y-87083333D01*
X42147380Y-87273809D01*
X42099761Y-87369047D01*
X42004523Y-87416666D01*
X41956904Y-87416666D01*
X41861666Y-87369047D01*
X41814047Y-87273809D01*
X41814047Y-87130952D01*
X41766428Y-87035714D01*
X41671190Y-86988095D01*
X41623571Y-86988095D01*
X41528333Y-87035714D01*
X41480714Y-87130952D01*
X41480714Y-87273809D01*
X41528333Y-87369047D01*
X42147380Y-88607142D02*
X41480714Y-88607142D01*
X41147380Y-88607142D02*
X41195000Y-88559523D01*
X41242619Y-88607142D01*
X41195000Y-88654761D01*
X41147380Y-88607142D01*
X41242619Y-88607142D01*
X42099761Y-89035714D02*
X42147380Y-89130952D01*
X42147380Y-89321428D01*
X42099761Y-89416666D01*
X42004523Y-89464285D01*
X41956904Y-89464285D01*
X41861666Y-89416666D01*
X41814047Y-89321428D01*
X41814047Y-89178571D01*
X41766428Y-89083333D01*
X41671190Y-89035714D01*
X41623571Y-89035714D01*
X41528333Y-89083333D01*
X41480714Y-89178571D01*
X41480714Y-89321428D01*
X41528333Y-89416666D01*
X41480714Y-91083333D02*
X42290238Y-91083333D01*
X42385476Y-91035714D01*
X42433095Y-90988095D01*
X42480714Y-90892857D01*
X42480714Y-90750000D01*
X42433095Y-90654761D01*
X42099761Y-91083333D02*
X42147380Y-90988095D01*
X42147380Y-90797619D01*
X42099761Y-90702380D01*
X42052142Y-90654761D01*
X41956904Y-90607142D01*
X41671190Y-90607142D01*
X41575952Y-90654761D01*
X41528333Y-90702380D01*
X41480714Y-90797619D01*
X41480714Y-90988095D01*
X41528333Y-91083333D01*
X42099761Y-91940476D02*
X42147380Y-91845238D01*
X42147380Y-91654761D01*
X42099761Y-91559523D01*
X42004523Y-91511904D01*
X41623571Y-91511904D01*
X41528333Y-91559523D01*
X41480714Y-91654761D01*
X41480714Y-91845238D01*
X41528333Y-91940476D01*
X41623571Y-91988095D01*
X41718809Y-91988095D01*
X41814047Y-91511904D01*
X41480714Y-92273809D02*
X41480714Y-92654761D01*
X41147380Y-92416666D02*
X42004523Y-92416666D01*
X42099761Y-92464285D01*
X42147380Y-92559523D01*
X42147380Y-92654761D01*
X41480714Y-92845238D02*
X41480714Y-93226190D01*
X41147380Y-92988095D02*
X42004523Y-92988095D01*
X42099761Y-93035714D01*
X42147380Y-93130952D01*
X42147380Y-93226190D01*
X42147380Y-93559523D02*
X41480714Y-93559523D01*
X41147380Y-93559523D02*
X41195000Y-93511904D01*
X41242619Y-93559523D01*
X41195000Y-93607142D01*
X41147380Y-93559523D01*
X41242619Y-93559523D01*
X41480714Y-94035714D02*
X42147380Y-94035714D01*
X41575952Y-94035714D02*
X41528333Y-94083333D01*
X41480714Y-94178571D01*
X41480714Y-94321428D01*
X41528333Y-94416666D01*
X41623571Y-94464285D01*
X42147380Y-94464285D01*
X41480714Y-95369047D02*
X42290238Y-95369047D01*
X42385476Y-95321428D01*
X42433095Y-95273809D01*
X42480714Y-95178571D01*
X42480714Y-95035714D01*
X42433095Y-94940476D01*
X42099761Y-95369047D02*
X42147380Y-95273809D01*
X42147380Y-95083333D01*
X42099761Y-94988095D01*
X42052142Y-94940476D01*
X41956904Y-94892857D01*
X41671190Y-94892857D01*
X41575952Y-94940476D01*
X41528333Y-94988095D01*
X41480714Y-95083333D01*
X41480714Y-95273809D01*
X41528333Y-95369047D01*
X42147380Y-96750000D02*
X42099761Y-96654761D01*
X42052142Y-96607142D01*
X41956904Y-96559523D01*
X41671190Y-96559523D01*
X41575952Y-96607142D01*
X41528333Y-96654761D01*
X41480714Y-96750000D01*
X41480714Y-96892857D01*
X41528333Y-96988095D01*
X41575952Y-97035714D01*
X41671190Y-97083333D01*
X41956904Y-97083333D01*
X42052142Y-97035714D01*
X42099761Y-96988095D01*
X42147380Y-96892857D01*
X42147380Y-96750000D01*
X41480714Y-97940476D02*
X42147380Y-97940476D01*
X41480714Y-97511904D02*
X42004523Y-97511904D01*
X42099761Y-97559523D01*
X42147380Y-97654761D01*
X42147380Y-97797619D01*
X42099761Y-97892857D01*
X42052142Y-97940476D01*
X41480714Y-98273809D02*
X41480714Y-98654761D01*
X41147380Y-98416666D02*
X42004523Y-98416666D01*
X42099761Y-98464285D01*
X42147380Y-98559523D01*
X42147380Y-98654761D01*
X42147380Y-99892857D02*
X42099761Y-99797619D01*
X42052142Y-99750000D01*
X41956904Y-99702380D01*
X41671190Y-99702380D01*
X41575952Y-99750000D01*
X41528333Y-99797619D01*
X41480714Y-99892857D01*
X41480714Y-100035714D01*
X41528333Y-100130952D01*
X41575952Y-100178571D01*
X41671190Y-100226190D01*
X41956904Y-100226190D01*
X42052142Y-100178571D01*
X42099761Y-100130952D01*
X42147380Y-100035714D01*
X42147380Y-99892857D01*
X41480714Y-100511904D02*
X41480714Y-100892857D01*
X42147380Y-100654761D02*
X41290238Y-100654761D01*
X41195000Y-100702380D01*
X41147380Y-100797619D01*
X41147380Y-100892857D01*
X42147380Y-101988095D02*
X41147380Y-101988095D01*
X42147380Y-102416666D02*
X41623571Y-102416666D01*
X41528333Y-102369047D01*
X41480714Y-102273809D01*
X41480714Y-102130952D01*
X41528333Y-102035714D01*
X41575952Y-101988095D01*
X42147380Y-103321428D02*
X41623571Y-103321428D01*
X41528333Y-103273809D01*
X41480714Y-103178571D01*
X41480714Y-102988095D01*
X41528333Y-102892857D01*
X42099761Y-103321428D02*
X42147380Y-103226190D01*
X42147380Y-102988095D01*
X42099761Y-102892857D01*
X42004523Y-102845238D01*
X41909285Y-102845238D01*
X41814047Y-102892857D01*
X41766428Y-102988095D01*
X41766428Y-103226190D01*
X41718809Y-103321428D01*
X41480714Y-103797619D02*
X42147380Y-103797619D01*
X41575952Y-103797619D02*
X41528333Y-103845238D01*
X41480714Y-103940476D01*
X41480714Y-104083333D01*
X41528333Y-104178571D01*
X41623571Y-104226190D01*
X42147380Y-104226190D01*
X42147380Y-105130952D02*
X41147380Y-105130952D01*
X42099761Y-105130952D02*
X42147380Y-105035714D01*
X42147380Y-104845238D01*
X42099761Y-104750000D01*
X42052142Y-104702380D01*
X41956904Y-104654761D01*
X41671190Y-104654761D01*
X41575952Y-104702380D01*
X41528333Y-104750000D01*
X41480714Y-104845238D01*
X41480714Y-105035714D01*
X41528333Y-105130952D01*
X42052142Y-105607142D02*
X42099761Y-105654761D01*
X42147380Y-105607142D01*
X42099761Y-105559523D01*
X42052142Y-105607142D01*
X42147380Y-105607142D01*
X41766428Y-105607142D02*
X41195000Y-105559523D01*
X41147380Y-105607142D01*
X41195000Y-105654761D01*
X41766428Y-105607142D01*
X41147380Y-105607142D01*
X43757380Y-85226190D02*
X42757380Y-85226190D01*
X43757380Y-85797619D01*
X42757380Y-85797619D01*
X43757380Y-86416666D02*
X43709761Y-86321428D01*
X43662142Y-86273809D01*
X43566904Y-86226190D01*
X43281190Y-86226190D01*
X43185952Y-86273809D01*
X43138333Y-86321428D01*
X43090714Y-86416666D01*
X43090714Y-86559523D01*
X43138333Y-86654761D01*
X43185952Y-86702380D01*
X43281190Y-86750000D01*
X43566904Y-86750000D01*
X43662142Y-86702380D01*
X43709761Y-86654761D01*
X43757380Y-86559523D01*
X43757380Y-86416666D01*
X43090714Y-87083333D02*
X43757380Y-87273809D01*
X43281190Y-87464285D01*
X43757380Y-87654761D01*
X43090714Y-87845238D01*
X43090714Y-88845238D02*
X43090714Y-89226190D01*
X42757380Y-88988095D02*
X43614523Y-88988095D01*
X43709761Y-89035714D01*
X43757380Y-89130952D01*
X43757380Y-89226190D01*
X43757380Y-89559523D02*
X42757380Y-89559523D01*
X43757380Y-89988095D02*
X43233571Y-89988095D01*
X43138333Y-89940476D01*
X43090714Y-89845238D01*
X43090714Y-89702380D01*
X43138333Y-89607142D01*
X43185952Y-89559523D01*
X43709761Y-90845238D02*
X43757380Y-90750000D01*
X43757380Y-90559523D01*
X43709761Y-90464285D01*
X43614523Y-90416666D01*
X43233571Y-90416666D01*
X43138333Y-90464285D01*
X43090714Y-90559523D01*
X43090714Y-90750000D01*
X43138333Y-90845238D01*
X43233571Y-90892857D01*
X43328809Y-90892857D01*
X43424047Y-90416666D01*
X43757380Y-91321428D02*
X43090714Y-91321428D01*
X43281190Y-91321428D02*
X43185952Y-91369047D01*
X43138333Y-91416666D01*
X43090714Y-91511904D01*
X43090714Y-91607142D01*
X43709761Y-92321428D02*
X43757380Y-92226190D01*
X43757380Y-92035714D01*
X43709761Y-91940476D01*
X43614523Y-91892857D01*
X43233571Y-91892857D01*
X43138333Y-91940476D01*
X43090714Y-92035714D01*
X43090714Y-92226190D01*
X43138333Y-92321428D01*
X43233571Y-92369047D01*
X43328809Y-92369047D01*
X43424047Y-91892857D01*
X43757380Y-93988095D02*
X43233571Y-93988095D01*
X43138333Y-93940476D01*
X43090714Y-93845238D01*
X43090714Y-93654761D01*
X43138333Y-93559523D01*
X43709761Y-93988095D02*
X43757380Y-93892857D01*
X43757380Y-93654761D01*
X43709761Y-93559523D01*
X43614523Y-93511904D01*
X43519285Y-93511904D01*
X43424047Y-93559523D01*
X43376428Y-93654761D01*
X43376428Y-93892857D01*
X43328809Y-93988095D01*
X43757380Y-94464285D02*
X43090714Y-94464285D01*
X43281190Y-94464285D02*
X43185952Y-94511904D01*
X43138333Y-94559523D01*
X43090714Y-94654761D01*
X43090714Y-94750000D01*
X43709761Y-95464285D02*
X43757380Y-95369047D01*
X43757380Y-95178571D01*
X43709761Y-95083333D01*
X43614523Y-95035714D01*
X43233571Y-95035714D01*
X43138333Y-95083333D01*
X43090714Y-95178571D01*
X43090714Y-95369047D01*
X43138333Y-95464285D01*
X43233571Y-95511904D01*
X43328809Y-95511904D01*
X43424047Y-95035714D01*
X42852619Y-96654761D02*
X42805000Y-96702380D01*
X42757380Y-96797619D01*
X42757380Y-97035714D01*
X42805000Y-97130952D01*
X42852619Y-97178571D01*
X42947857Y-97226190D01*
X43043095Y-97226190D01*
X43185952Y-97178571D01*
X43757380Y-96607142D01*
X43757380Y-97226190D01*
X43090714Y-98083333D02*
X43757380Y-98083333D01*
X42709761Y-97845238D02*
X43424047Y-97607142D01*
X43424047Y-98226190D01*
X43757380Y-99511904D02*
X43709761Y-99416666D01*
X43662142Y-99369047D01*
X43566904Y-99321428D01*
X43281190Y-99321428D01*
X43185952Y-99369047D01*
X43138333Y-99416666D01*
X43090714Y-99511904D01*
X43090714Y-99654761D01*
X43138333Y-99750000D01*
X43185952Y-99797619D01*
X43281190Y-99845238D01*
X43566904Y-99845238D01*
X43662142Y-99797619D01*
X43709761Y-99750000D01*
X43757380Y-99654761D01*
X43757380Y-99511904D01*
X43090714Y-100130952D02*
X43090714Y-100511904D01*
X43757380Y-100273809D02*
X42900238Y-100273809D01*
X42805000Y-100321428D01*
X42757380Y-100416666D01*
X42757380Y-100511904D01*
X43090714Y-101464285D02*
X43090714Y-101845238D01*
X42757380Y-101607142D02*
X43614523Y-101607142D01*
X43709761Y-101654761D01*
X43757380Y-101750000D01*
X43757380Y-101845238D01*
X43757380Y-102178571D02*
X42757380Y-102178571D01*
X43757380Y-102607142D02*
X43233571Y-102607142D01*
X43138333Y-102559523D01*
X43090714Y-102464285D01*
X43090714Y-102321428D01*
X43138333Y-102226190D01*
X43185952Y-102178571D01*
X43709761Y-103464285D02*
X43757380Y-103369047D01*
X43757380Y-103178571D01*
X43709761Y-103083333D01*
X43614523Y-103035714D01*
X43233571Y-103035714D01*
X43138333Y-103083333D01*
X43090714Y-103178571D01*
X43090714Y-103369047D01*
X43138333Y-103464285D01*
X43233571Y-103511904D01*
X43328809Y-103511904D01*
X43424047Y-103035714D01*
X43757380Y-103940476D02*
X43090714Y-103940476D01*
X43185952Y-103940476D02*
X43138333Y-103988095D01*
X43090714Y-104083333D01*
X43090714Y-104226190D01*
X43138333Y-104321428D01*
X43233571Y-104369047D01*
X43757380Y-104369047D01*
X43233571Y-104369047D02*
X43138333Y-104416666D01*
X43090714Y-104511904D01*
X43090714Y-104654761D01*
X43138333Y-104750000D01*
X43233571Y-104797619D01*
X43757380Y-104797619D01*
X43662142Y-105273809D02*
X43709761Y-105321428D01*
X43757380Y-105273809D01*
X43709761Y-105226190D01*
X43662142Y-105273809D01*
X43757380Y-105273809D01*
X43376428Y-105273809D02*
X42805000Y-105226190D01*
X42757380Y-105273809D01*
X42805000Y-105321428D01*
X43376428Y-105273809D01*
X42757380Y-105273809D01*
G04 #@! TO.C,J2*
X17813333Y-530372380D02*
X17813333Y-531086666D01*
X17860952Y-531229523D01*
X17956190Y-531324761D01*
X18099047Y-531372380D01*
X18194285Y-531372380D01*
X17384761Y-530467619D02*
X17337142Y-530420000D01*
X17241904Y-530372380D01*
X17003809Y-530372380D01*
X16908571Y-530420000D01*
X16860952Y-530467619D01*
X16813333Y-530562857D01*
X16813333Y-530658095D01*
X16860952Y-530800952D01*
X17432380Y-531372380D01*
X16813333Y-531372380D01*
G04 #@! TO.C,J1*
X14583333Y-558202380D02*
X14583333Y-558916666D01*
X14630952Y-559059523D01*
X14726190Y-559154761D01*
X14869047Y-559202380D01*
X14964285Y-559202380D01*
X13583333Y-559202380D02*
X14154761Y-559202380D01*
X13869047Y-559202380D02*
X13869047Y-558202380D01*
X13964285Y-558345238D01*
X14059523Y-558440476D01*
X14154761Y-558488095D01*
G04 #@! TO.C,J2*
X30313333Y-530372380D02*
X30313333Y-531086666D01*
X30360952Y-531229523D01*
X30456190Y-531324761D01*
X30599047Y-531372380D01*
X30694285Y-531372380D01*
X29884761Y-530467619D02*
X29837142Y-530420000D01*
X29741904Y-530372380D01*
X29503809Y-530372380D01*
X29408571Y-530420000D01*
X29360952Y-530467619D01*
X29313333Y-530562857D01*
X29313333Y-530658095D01*
X29360952Y-530800952D01*
X29932380Y-531372380D01*
X29313333Y-531372380D01*
X55313333Y-530372380D02*
X55313333Y-531086666D01*
X55360952Y-531229523D01*
X55456190Y-531324761D01*
X55599047Y-531372380D01*
X55694285Y-531372380D01*
X54884761Y-530467619D02*
X54837142Y-530420000D01*
X54741904Y-530372380D01*
X54503809Y-530372380D01*
X54408571Y-530420000D01*
X54360952Y-530467619D01*
X54313333Y-530562857D01*
X54313333Y-530658095D01*
X54360952Y-530800952D01*
X54932380Y-531372380D01*
X54313333Y-531372380D01*
X42813333Y-530372380D02*
X42813333Y-531086666D01*
X42860952Y-531229523D01*
X42956190Y-531324761D01*
X43099047Y-531372380D01*
X43194285Y-531372380D01*
X42384761Y-530467619D02*
X42337142Y-530420000D01*
X42241904Y-530372380D01*
X42003809Y-530372380D01*
X41908571Y-530420000D01*
X41860952Y-530467619D01*
X41813333Y-530562857D01*
X41813333Y-530658095D01*
X41860952Y-530800952D01*
X42432380Y-531372380D01*
X41813333Y-531372380D01*
X5313333Y-530372380D02*
X5313333Y-531086666D01*
X5360952Y-531229523D01*
X5456190Y-531324761D01*
X5599047Y-531372380D01*
X5694285Y-531372380D01*
X4884761Y-530467619D02*
X4837142Y-530420000D01*
X4741904Y-530372380D01*
X4503809Y-530372380D01*
X4408571Y-530420000D01*
X4360952Y-530467619D01*
X4313333Y-530562857D01*
X4313333Y-530658095D01*
X4360952Y-530800952D01*
X4932380Y-531372380D01*
X4313333Y-531372380D01*
G04 #@! TO.C,J1*
X2083333Y-558202380D02*
X2083333Y-558916666D01*
X2130952Y-559059523D01*
X2226190Y-559154761D01*
X2369047Y-559202380D01*
X2464285Y-559202380D01*
X1083333Y-559202380D02*
X1654761Y-559202380D01*
X1369047Y-559202380D02*
X1369047Y-558202380D01*
X1464285Y-558345238D01*
X1559523Y-558440476D01*
X1654761Y-558488095D01*
X27083333Y-558202380D02*
X27083333Y-558916666D01*
X27130952Y-559059523D01*
X27226190Y-559154761D01*
X27369047Y-559202380D01*
X27464285Y-559202380D01*
X26083333Y-559202380D02*
X26654761Y-559202380D01*
X26369047Y-559202380D02*
X26369047Y-558202380D01*
X26464285Y-558345238D01*
X26559523Y-558440476D01*
X26654761Y-558488095D01*
X52083333Y-558202380D02*
X52083333Y-558916666D01*
X52130952Y-559059523D01*
X52226190Y-559154761D01*
X52369047Y-559202380D01*
X52464285Y-559202380D01*
X51083333Y-559202380D02*
X51654761Y-559202380D01*
X51369047Y-559202380D02*
X51369047Y-558202380D01*
X51464285Y-558345238D01*
X51559523Y-558440476D01*
X51654761Y-558488095D01*
X39583333Y-558202380D02*
X39583333Y-558916666D01*
X39630952Y-559059523D01*
X39726190Y-559154761D01*
X39869047Y-559202380D01*
X39964285Y-559202380D01*
X38583333Y-559202380D02*
X39154761Y-559202380D01*
X38869047Y-559202380D02*
X38869047Y-558202380D01*
X38964285Y-558345238D01*
X39059523Y-558440476D01*
X39154761Y-558488095D01*
D12*
G04 #@! TO.C,J2*
X20080000Y-533250000D02*
X20080000Y-531920000D01*
X14880000Y-531920000D02*
X14880000Y-542200000D01*
X20080000Y-534520000D02*
X20080000Y-542200000D01*
X20080000Y-531920000D02*
X18750000Y-531920000D01*
X20080000Y-542200000D02*
X14880000Y-542200000D01*
X20080000Y-534520000D02*
X17480000Y-534520000D01*
X17480000Y-531920000D02*
X14880000Y-531920000D01*
X17480000Y-534520000D02*
X17480000Y-531920000D01*
G04 #@! TO.C,J1*
X21560000Y-564060000D02*
X13440000Y-564060000D01*
X19500000Y-562000000D02*
X19500000Y-559940000D01*
X21560000Y-564060000D02*
X21560000Y-562000000D01*
X21560000Y-559940000D02*
X20500000Y-559940000D01*
X21560000Y-561000000D02*
X21560000Y-559940000D01*
X13440000Y-564060000D02*
X13440000Y-559940000D01*
X19500000Y-559940000D02*
X13440000Y-559940000D01*
X21560000Y-562000000D02*
X19500000Y-562000000D01*
G04 #@! TO.C,J2*
X27380000Y-531920000D02*
X27380000Y-542200000D01*
X29980000Y-531920000D02*
X27380000Y-531920000D01*
X32580000Y-534520000D02*
X29980000Y-534520000D01*
X32580000Y-533250000D02*
X32580000Y-531920000D01*
X32580000Y-542200000D02*
X27380000Y-542200000D01*
X32580000Y-531920000D02*
X31250000Y-531920000D01*
X29980000Y-534520000D02*
X29980000Y-531920000D01*
X32580000Y-534520000D02*
X32580000Y-542200000D01*
X57580000Y-534520000D02*
X57580000Y-542200000D01*
X57580000Y-531920000D02*
X56250000Y-531920000D01*
X52380000Y-531920000D02*
X52380000Y-542200000D01*
X54980000Y-531920000D02*
X52380000Y-531920000D01*
X57580000Y-542200000D02*
X52380000Y-542200000D01*
X54980000Y-534520000D02*
X54980000Y-531920000D01*
X57580000Y-534520000D02*
X54980000Y-534520000D01*
X57580000Y-533250000D02*
X57580000Y-531920000D01*
X45080000Y-533250000D02*
X45080000Y-531920000D01*
X42480000Y-531920000D02*
X39880000Y-531920000D01*
X45080000Y-534520000D02*
X42480000Y-534520000D01*
X45080000Y-542200000D02*
X39880000Y-542200000D01*
X45080000Y-531920000D02*
X43750000Y-531920000D01*
X42480000Y-534520000D02*
X42480000Y-531920000D01*
X45080000Y-534520000D02*
X45080000Y-542200000D01*
X39880000Y-531920000D02*
X39880000Y-542200000D01*
X2380000Y-531920000D02*
X2380000Y-542200000D01*
X7580000Y-533250000D02*
X7580000Y-531920000D01*
X7580000Y-534520000D02*
X7580000Y-542200000D01*
X4980000Y-531920000D02*
X2380000Y-531920000D01*
X7580000Y-542200000D02*
X2380000Y-542200000D01*
X7580000Y-534520000D02*
X4980000Y-534520000D01*
X4980000Y-534520000D02*
X4980000Y-531920000D01*
X7580000Y-531920000D02*
X6250000Y-531920000D01*
G04 #@! TO.C,J1*
X9060000Y-562000000D02*
X7000000Y-562000000D01*
X940000Y-564060000D02*
X940000Y-559940000D01*
X7000000Y-562000000D02*
X7000000Y-559940000D01*
X9060000Y-561000000D02*
X9060000Y-559940000D01*
X9060000Y-564060000D02*
X9060000Y-562000000D01*
X9060000Y-559940000D02*
X8000000Y-559940000D01*
X7000000Y-559940000D02*
X940000Y-559940000D01*
X9060000Y-564060000D02*
X940000Y-564060000D01*
X25940000Y-564060000D02*
X25940000Y-559940000D01*
X34060000Y-559940000D02*
X33000000Y-559940000D01*
X34060000Y-561000000D02*
X34060000Y-559940000D01*
X34060000Y-564060000D02*
X25940000Y-564060000D01*
X34060000Y-562000000D02*
X32000000Y-562000000D01*
X32000000Y-562000000D02*
X32000000Y-559940000D01*
X32000000Y-559940000D02*
X25940000Y-559940000D01*
X34060000Y-564060000D02*
X34060000Y-562000000D01*
X57000000Y-562000000D02*
X57000000Y-559940000D01*
X59060000Y-564060000D02*
X59060000Y-562000000D01*
X59060000Y-559940000D02*
X58000000Y-559940000D01*
X59060000Y-564060000D02*
X50940000Y-564060000D01*
X59060000Y-562000000D02*
X57000000Y-562000000D01*
X59060000Y-561000000D02*
X59060000Y-559940000D01*
X50940000Y-564060000D02*
X50940000Y-559940000D01*
X57000000Y-559940000D02*
X50940000Y-559940000D01*
X46560000Y-559940000D02*
X45500000Y-559940000D01*
X44500000Y-559940000D02*
X38440000Y-559940000D01*
X46560000Y-562000000D02*
X44500000Y-562000000D01*
X46560000Y-564060000D02*
X38440000Y-564060000D01*
X46560000Y-564060000D02*
X46560000Y-562000000D01*
X46560000Y-561000000D02*
X46560000Y-559940000D01*
X44500000Y-562000000D02*
X44500000Y-559940000D01*
X38440000Y-564060000D02*
X38440000Y-559940000D01*
G04 #@! TD*
M02*
