M48
; DRILL file {KiCad (6.0.7)} date Thu Dec  1 16:55:09 2022
; FORMAT={-:-/ absolute / metric / decimal}
; #@! TF.CreationDate,2022-12-01T16:55:09-05:00
; #@! TF.GenerationSoftware,Kicad,Pcbnew,(6.0.7)
; #@! TF.FileFunction,MixedPlating,1,4
FMAT,2
METRIC
; #@! TA.AperFunction,Plated,PTH,ViaDrill
T1C0.400
; #@! TA.AperFunction,Plated,PTH,ComponentDrill
T2C0.800
; #@! TA.AperFunction,Plated,PTH,ComponentDrill
T3C1.000
; #@! TA.AperFunction,NonPlated,NPTH,ComponentDrill
T4C0.500
; #@! TA.AperFunction,NonPlated,NPTH,ComponentDrill
T5C0.800
; #@! TA.AperFunction,NonPlated,NPTH,ComponentDrill
T6C1.650
; #@! TA.AperFunction,NonPlated,NPTH,ComponentDrill
T7C3.200
%
G90
G05
T1
X0.75Y-41.0
X1.0Y-57.75
X1.0Y-140.55
X1.0Y-179.0
X1.5Y-288.5
X1.5Y-295.25
X1.9Y-539.06
X2.25Y-168.5
X3.2Y-251.2
X3.225Y-342.45
X3.25Y-1.3
X3.25Y-139.3
X3.25Y-565.0
X3.275Y-476.25
X3.275Y-526.25
X3.275Y-566.25
X3.3Y-416.804
X3.75Y-41.0
X4.5Y-4.8
X4.5Y-551.0
X4.95Y-254.45
X4.975Y-345.7
X5.0Y-142.55
X5.0Y-564.5
X5.0Y-565.5
X5.025Y-479.5
X5.025Y-529.5
X5.05Y-420.054
X5.25Y-57.75
X5.5Y-551.0
X6.781Y-569.125
X7.425Y-252.45
X7.45Y-343.7
X7.5Y-140.55
X7.5Y-477.5
X7.525Y-418.054
X7.525Y-567.5
X7.75Y-3.55
X7.75Y-6.8
X7.75Y-144.05
X7.75Y-482.5
X7.925Y-249.2
X7.925Y-250.2
X7.95Y-340.2
X7.95Y-341.2
X8.0Y-41.0
X8.0Y-137.05
X8.0Y-138.05
X8.0Y-474.5
X8.0Y-475.5
X8.025Y-414.804
X8.025Y-415.804
X8.425Y-525.5
X8.45Y-348.2
X8.5Y-527.5
X8.75Y-3.3
X8.75Y-168.5
X9.0Y-144.05
X9.0Y-530.75
X9.25Y-481.5
X9.275Y-421.304
X13.25Y-41.0
X13.5Y-57.75
X13.5Y-140.55
X13.5Y-179.0
X14.0Y-288.5
X14.0Y-295.25
X14.4Y-539.06
X14.75Y-168.5
X15.7Y-251.2
X15.725Y-342.45
X15.75Y-1.3
X15.75Y-139.3
X15.75Y-565.0
X15.775Y-476.25
X15.775Y-526.25
X15.775Y-566.25
X15.8Y-416.804
X16.25Y-41.0
X17.0Y-4.8
X17.0Y-551.0
X17.45Y-254.45
X17.475Y-345.7
X17.5Y-142.55
X17.5Y-564.5
X17.5Y-565.5
X17.525Y-479.5
X17.525Y-529.5
X17.55Y-420.054
X17.75Y-57.75
X18.0Y-551.0
X19.281Y-569.125
X19.925Y-252.45
X19.95Y-343.7
X20.0Y-140.55
X20.0Y-477.5
X20.025Y-418.054
X20.025Y-567.5
X20.25Y-3.55
X20.25Y-6.8
X20.25Y-144.05
X20.25Y-482.5
X20.425Y-249.2
X20.425Y-250.2
X20.45Y-340.2
X20.45Y-341.2
X20.5Y-41.0
X20.5Y-137.05
X20.5Y-138.05
X20.5Y-474.5
X20.5Y-475.5
X20.525Y-414.804
X20.525Y-415.804
X20.924Y-525.5
X20.95Y-348.2
X21.0Y-527.5
X21.25Y-3.3
X21.25Y-168.5
X21.5Y-144.05
X21.5Y-530.75
X21.75Y-481.5
X21.775Y-421.304
X25.75Y-41.0
X26.0Y-57.75
X26.0Y-140.55
X26.0Y-179.0
X26.5Y-288.5
X26.5Y-295.25
X26.9Y-539.06
X27.25Y-168.5
X28.2Y-251.2
X28.225Y-342.45
X28.25Y-1.3
X28.25Y-139.3
X28.25Y-565.0
X28.275Y-476.25
X28.275Y-526.25
X28.275Y-566.25
X28.3Y-416.804
X28.75Y-41.0
X29.5Y-4.8
X29.5Y-551.0
X29.95Y-254.45
X29.975Y-345.7
X30.0Y-142.55
X30.0Y-564.5
X30.0Y-565.5
X30.025Y-479.5
X30.025Y-529.5
X30.05Y-420.054
X30.25Y-57.75
X30.5Y-551.0
X31.781Y-569.125
X32.425Y-252.45
X32.45Y-343.7
X32.5Y-140.55
X32.5Y-477.5
X32.525Y-418.054
X32.525Y-567.5
X32.75Y-3.55
X32.75Y-6.8
X32.75Y-144.05
X32.75Y-482.5
X32.925Y-249.2
X32.925Y-250.2
X32.95Y-340.2
X32.95Y-341.2
X33.0Y-41.0
X33.0Y-137.05
X33.0Y-138.05
X33.0Y-474.5
X33.0Y-475.5
X33.025Y-414.804
X33.025Y-415.804
X33.425Y-525.5
X33.45Y-348.2
X33.5Y-527.5
X33.75Y-3.3
X33.75Y-168.5
X34.0Y-144.05
X34.0Y-530.75
X34.25Y-481.5
X34.275Y-421.304
X38.25Y-41.0
X38.5Y-57.75
X38.5Y-140.55
X38.5Y-179.0
X39.0Y-288.5
X39.0Y-295.25
X39.4Y-539.06
X39.75Y-168.5
X40.7Y-251.2
X40.725Y-342.45
X40.75Y-1.3
X40.75Y-139.3
X40.75Y-565.0
X40.775Y-476.25
X40.775Y-526.25
X40.775Y-566.25
X40.8Y-416.804
X41.25Y-41.0
X42.0Y-4.8
X42.0Y-551.0
X42.45Y-254.45
X42.475Y-345.7
X42.5Y-142.55
X42.5Y-564.5
X42.5Y-565.5
X42.525Y-479.5
X42.525Y-529.5
X42.55Y-420.054
X42.75Y-57.75
X43.0Y-551.0
X44.281Y-569.125
X44.925Y-252.45
X44.95Y-343.7
X45.0Y-140.55
X45.0Y-477.5
X45.025Y-418.054
X45.025Y-567.5
X45.25Y-3.55
X45.25Y-6.8
X45.25Y-144.05
X45.25Y-482.5
X45.425Y-249.2
X45.425Y-250.2
X45.45Y-340.2
X45.45Y-341.2
X45.5Y-41.0
X45.5Y-137.05
X45.5Y-138.05
X45.5Y-474.5
X45.5Y-475.5
X45.525Y-414.804
X45.525Y-415.804
X45.924Y-525.5
X45.95Y-348.2
X46.0Y-527.5
X46.25Y-3.3
X46.25Y-168.5
X46.5Y-144.05
X46.5Y-530.75
X46.75Y-481.5
X46.775Y-421.304
X50.75Y-41.0
X51.0Y-57.75
X51.0Y-140.55
X51.0Y-179.0
X51.5Y-288.5
X51.5Y-295.25
X51.9Y-539.06
X52.25Y-168.5
X53.2Y-251.2
X53.225Y-342.45
X53.25Y-1.3
X53.25Y-139.3
X53.25Y-565.0
X53.275Y-476.25
X53.275Y-526.25
X53.275Y-566.25
X53.3Y-416.804
X53.75Y-41.0
X54.5Y-4.8
X54.5Y-551.0
X54.95Y-254.45
X54.975Y-345.7
X55.0Y-142.55
X55.0Y-564.5
X55.0Y-565.5
X55.025Y-479.5
X55.025Y-529.5
X55.05Y-420.054
X55.25Y-57.75
X55.5Y-551.0
X56.781Y-569.125
X57.425Y-252.45
X57.45Y-343.7
X57.5Y-140.55
X57.5Y-477.5
X57.525Y-418.054
X57.525Y-567.5
X57.75Y-3.55
X57.75Y-6.8
X57.75Y-144.05
X57.75Y-482.5
X57.925Y-249.2
X57.925Y-250.2
X57.95Y-340.2
X57.95Y-341.2
X58.0Y-41.0
X58.0Y-137.05
X58.0Y-138.05
X58.0Y-474.5
X58.0Y-475.5
X58.025Y-414.804
X58.025Y-415.804
X58.424Y-525.5
X58.45Y-348.2
X58.5Y-527.5
X58.75Y-3.3
X58.75Y-168.5
X59.0Y-144.05
X59.0Y-530.75
X59.25Y-481.5
X59.275Y-421.304
T2
X2.0Y-561.0
X2.0Y-563.0
X4.0Y-561.0
X4.0Y-563.0
X6.0Y-561.0
X6.0Y-563.0
X8.0Y-561.0
X8.0Y-563.0
X14.5Y-561.0
X14.5Y-563.0
X16.5Y-561.0
X16.5Y-563.0
X18.5Y-561.0
X18.5Y-563.0
X20.5Y-561.0
X20.5Y-563.0
X27.0Y-561.0
X27.0Y-563.0
X29.0Y-561.0
X29.0Y-563.0
X31.0Y-561.0
X31.0Y-563.0
X33.0Y-561.0
X33.0Y-563.0
X39.5Y-561.0
X39.5Y-563.0
X41.5Y-561.0
X41.5Y-563.0
X43.5Y-561.0
X43.5Y-563.0
X45.5Y-561.0
X45.5Y-563.0
X52.0Y-561.0
X52.0Y-563.0
X54.0Y-561.0
X54.0Y-563.0
X56.0Y-561.0
X56.0Y-563.0
X58.0Y-561.0
X58.0Y-563.0
T3
X3.71Y-533.25
X3.71Y-535.79
X3.71Y-538.33
X3.71Y-540.87
X6.25Y-533.25
X6.25Y-535.79
X6.25Y-538.33
X6.25Y-540.87
X16.21Y-533.25
X16.21Y-535.79
X16.21Y-538.33
X16.21Y-540.87
X18.75Y-533.25
X18.75Y-535.79
X18.75Y-538.33
X18.75Y-540.87
X28.71Y-533.25
X28.71Y-535.79
X28.71Y-538.33
X28.71Y-540.87
X31.25Y-533.25
X31.25Y-535.79
X31.25Y-538.33
X31.25Y-540.87
X41.21Y-533.25
X41.21Y-535.79
X41.21Y-538.33
X41.21Y-540.87
X43.75Y-533.25
X43.75Y-535.79
X43.75Y-538.33
X43.75Y-540.87
X53.71Y-533.25
X53.71Y-535.79
X53.71Y-538.33
X53.71Y-540.87
X56.25Y-533.25
X56.25Y-535.79
X56.25Y-538.33
X56.25Y-540.87
T4
X9.8Y-11.0
X9.8Y-12.0
X9.8Y-13.0
X9.8Y-14.0
X9.8Y-15.0
X9.8Y-16.0
X9.8Y-17.0
X9.8Y-18.0
X9.8Y-19.0
X9.8Y-20.0
X9.8Y-21.0
X9.8Y-22.0
X9.8Y-89.5
X9.8Y-90.5
X9.8Y-91.5
X9.8Y-92.5
X9.8Y-93.5
X9.8Y-94.5
X9.8Y-95.5
X9.8Y-96.5
X9.8Y-97.5
X9.8Y-98.5
X9.8Y-99.5
X9.8Y-100.5
X9.8Y-150.25
X9.8Y-151.25
X9.8Y-152.25
X9.8Y-153.25
X9.8Y-154.25
X9.8Y-155.25
X9.8Y-156.25
X9.8Y-157.25
X9.8Y-158.25
X9.8Y-159.25
X9.8Y-160.25
X9.8Y-161.25
X9.8Y-207.5
X9.8Y-208.5
X9.8Y-209.5
X9.8Y-210.5
X9.8Y-211.5
X9.8Y-212.5
X9.8Y-213.5
X9.8Y-214.5
X9.8Y-215.5
X9.8Y-216.5
X9.8Y-217.5
X9.8Y-218.5
X9.8Y-263.0
X9.8Y-264.0
X9.8Y-265.0
X9.8Y-266.0
X9.8Y-267.0
X9.8Y-268.0
X9.8Y-269.0
X9.8Y-270.0
X9.8Y-271.0
X9.8Y-272.0
X9.8Y-273.0
X9.8Y-274.0
X9.8Y-308.75
X9.8Y-309.75
X9.8Y-310.75
X9.8Y-311.75
X9.8Y-312.75
X9.8Y-313.75
X9.8Y-314.75
X9.8Y-315.75
X9.8Y-316.75
X9.8Y-317.75
X9.8Y-318.75
X9.8Y-319.75
X9.8Y-376.25
X9.8Y-377.25
X9.8Y-378.25
X9.8Y-379.25
X9.8Y-380.25
X9.8Y-381.25
X9.8Y-382.25
X9.8Y-383.25
X9.8Y-384.25
X9.8Y-385.25
X9.8Y-386.25
X9.8Y-387.25
X9.8Y-440.0
X9.8Y-441.0
X9.8Y-442.0
X9.8Y-443.0
X9.8Y-444.0
X9.8Y-445.0
X9.8Y-446.0
X9.8Y-447.0
X9.8Y-448.0
X9.8Y-449.0
X9.8Y-450.0
X9.8Y-451.0
X9.8Y-514.0
X9.8Y-515.0
X9.8Y-516.0
X9.8Y-517.0
X9.8Y-518.0
X9.8Y-519.0
X9.8Y-520.0
X9.8Y-553.0
X9.8Y-554.0
X9.8Y-555.0
X9.8Y-556.0
X9.8Y-557.0
X9.8Y-558.0
X9.8Y-559.0
X12.7Y-11.0
X12.7Y-12.0
X12.7Y-13.0
X12.7Y-14.0
X12.7Y-15.0
X12.7Y-16.0
X12.7Y-17.0
X12.7Y-18.0
X12.7Y-19.0
X12.7Y-20.0
X12.7Y-21.0
X12.7Y-22.0
X12.7Y-89.5
X12.7Y-90.5
X12.7Y-91.5
X12.7Y-92.5
X12.7Y-93.5
X12.7Y-94.5
X12.7Y-95.5
X12.7Y-96.5
X12.7Y-97.5
X12.7Y-98.5
X12.7Y-99.5
X12.7Y-100.5
X12.7Y-150.25
X12.7Y-151.25
X12.7Y-152.25
X12.7Y-153.25
X12.7Y-154.25
X12.7Y-155.25
X12.7Y-156.25
X12.7Y-157.25
X12.7Y-158.25
X12.7Y-159.25
X12.7Y-160.25
X12.7Y-161.25
X12.7Y-207.5
X12.7Y-208.5
X12.7Y-209.5
X12.7Y-210.5
X12.7Y-211.5
X12.7Y-212.5
X12.7Y-213.5
X12.7Y-214.5
X12.7Y-215.5
X12.7Y-216.5
X12.7Y-217.5
X12.7Y-218.5
X12.7Y-263.0
X12.7Y-264.0
X12.7Y-265.0
X12.7Y-266.0
X12.7Y-267.0
X12.7Y-268.0
X12.7Y-269.0
X12.7Y-270.0
X12.7Y-271.0
X12.7Y-272.0
X12.7Y-273.0
X12.7Y-274.0
X12.7Y-308.75
X12.7Y-309.75
X12.7Y-310.75
X12.7Y-311.75
X12.7Y-312.75
X12.7Y-313.75
X12.7Y-314.75
X12.7Y-315.75
X12.7Y-316.75
X12.7Y-317.75
X12.7Y-318.75
X12.7Y-319.75
X12.7Y-376.25
X12.7Y-377.25
X12.7Y-378.25
X12.7Y-379.25
X12.7Y-380.25
X12.7Y-381.25
X12.7Y-382.25
X12.7Y-383.25
X12.7Y-384.25
X12.7Y-385.25
X12.7Y-386.25
X12.7Y-387.25
X12.7Y-440.0
X12.7Y-441.0
X12.7Y-442.0
X12.7Y-443.0
X12.7Y-444.0
X12.7Y-445.0
X12.7Y-446.0
X12.7Y-447.0
X12.7Y-448.0
X12.7Y-449.0
X12.7Y-450.0
X12.7Y-451.0
X12.7Y-514.0
X12.7Y-515.0
X12.7Y-516.0
X12.7Y-517.0
X12.7Y-518.0
X12.7Y-519.0
X12.7Y-520.0
X12.7Y-553.0
X12.7Y-554.0
X12.7Y-555.0
X12.7Y-556.0
X12.7Y-557.0
X12.7Y-558.0
X12.7Y-559.0
X22.3Y-11.0
X22.3Y-12.0
X22.3Y-13.0
X22.3Y-14.0
X22.3Y-15.0
X22.3Y-16.0
X22.3Y-17.0
X22.3Y-18.0
X22.3Y-19.0
X22.3Y-20.0
X22.3Y-21.0
X22.3Y-22.0
X22.3Y-89.5
X22.3Y-90.5
X22.3Y-91.5
X22.3Y-92.5
X22.3Y-93.5
X22.3Y-94.5
X22.3Y-95.5
X22.3Y-96.5
X22.3Y-97.5
X22.3Y-98.5
X22.3Y-99.5
X22.3Y-100.5
X22.3Y-150.25
X22.3Y-151.25
X22.3Y-152.25
X22.3Y-153.25
X22.3Y-154.25
X22.3Y-155.25
X22.3Y-156.25
X22.3Y-157.25
X22.3Y-158.25
X22.3Y-159.25
X22.3Y-160.25
X22.3Y-161.25
X22.3Y-207.5
X22.3Y-208.5
X22.3Y-209.5
X22.3Y-210.5
X22.3Y-211.5
X22.3Y-212.5
X22.3Y-213.5
X22.3Y-214.5
X22.3Y-215.5
X22.3Y-216.5
X22.3Y-217.5
X22.3Y-218.5
X22.3Y-263.0
X22.3Y-264.0
X22.3Y-265.0
X22.3Y-266.0
X22.3Y-267.0
X22.3Y-268.0
X22.3Y-269.0
X22.3Y-270.0
X22.3Y-271.0
X22.3Y-272.0
X22.3Y-273.0
X22.3Y-274.0
X22.3Y-308.75
X22.3Y-309.75
X22.3Y-310.75
X22.3Y-311.75
X22.3Y-312.75
X22.3Y-313.75
X22.3Y-314.75
X22.3Y-315.75
X22.3Y-316.75
X22.3Y-317.75
X22.3Y-318.75
X22.3Y-319.75
X22.3Y-376.25
X22.3Y-377.25
X22.3Y-378.25
X22.3Y-379.25
X22.3Y-380.25
X22.3Y-381.25
X22.3Y-382.25
X22.3Y-383.25
X22.3Y-384.25
X22.3Y-385.25
X22.3Y-386.25
X22.3Y-387.25
X22.3Y-440.0
X22.3Y-441.0
X22.3Y-442.0
X22.3Y-443.0
X22.3Y-444.0
X22.3Y-445.0
X22.3Y-446.0
X22.3Y-447.0
X22.3Y-448.0
X22.3Y-449.0
X22.3Y-450.0
X22.3Y-451.0
X22.3Y-514.0
X22.3Y-515.0
X22.3Y-516.0
X22.3Y-517.0
X22.3Y-518.0
X22.3Y-519.0
X22.3Y-520.0
X22.3Y-553.0
X22.3Y-554.0
X22.3Y-555.0
X22.3Y-556.0
X22.3Y-557.0
X22.3Y-558.0
X22.3Y-559.0
X25.2Y-11.0
X25.2Y-12.0
X25.2Y-13.0
X25.2Y-14.0
X25.2Y-15.0
X25.2Y-16.0
X25.2Y-17.0
X25.2Y-18.0
X25.2Y-19.0
X25.2Y-20.0
X25.2Y-21.0
X25.2Y-22.0
X25.2Y-89.5
X25.2Y-90.5
X25.2Y-91.5
X25.2Y-92.5
X25.2Y-93.5
X25.2Y-94.5
X25.2Y-95.5
X25.2Y-96.5
X25.2Y-97.5
X25.2Y-98.5
X25.2Y-99.5
X25.2Y-100.5
X25.2Y-150.25
X25.2Y-151.25
X25.2Y-152.25
X25.2Y-153.25
X25.2Y-154.25
X25.2Y-155.25
X25.2Y-156.25
X25.2Y-157.25
X25.2Y-158.25
X25.2Y-159.25
X25.2Y-160.25
X25.2Y-161.25
X25.2Y-207.5
X25.2Y-208.5
X25.2Y-209.5
X25.2Y-210.5
X25.2Y-211.5
X25.2Y-212.5
X25.2Y-213.5
X25.2Y-214.5
X25.2Y-215.5
X25.2Y-216.5
X25.2Y-217.5
X25.2Y-218.5
X25.2Y-263.0
X25.2Y-264.0
X25.2Y-265.0
X25.2Y-266.0
X25.2Y-267.0
X25.2Y-268.0
X25.2Y-269.0
X25.2Y-270.0
X25.2Y-271.0
X25.2Y-272.0
X25.2Y-273.0
X25.2Y-274.0
X25.2Y-308.75
X25.2Y-309.75
X25.2Y-310.75
X25.2Y-311.75
X25.2Y-312.75
X25.2Y-313.75
X25.2Y-314.75
X25.2Y-315.75
X25.2Y-316.75
X25.2Y-317.75
X25.2Y-318.75
X25.2Y-319.75
X25.2Y-376.25
X25.2Y-377.25
X25.2Y-378.25
X25.2Y-379.25
X25.2Y-380.25
X25.2Y-381.25
X25.2Y-382.25
X25.2Y-383.25
X25.2Y-384.25
X25.2Y-385.25
X25.2Y-386.25
X25.2Y-387.25
X25.2Y-440.0
X25.2Y-441.0
X25.2Y-442.0
X25.2Y-443.0
X25.2Y-444.0
X25.2Y-445.0
X25.2Y-446.0
X25.2Y-447.0
X25.2Y-448.0
X25.2Y-449.0
X25.2Y-450.0
X25.2Y-451.0
X25.2Y-514.0
X25.2Y-515.0
X25.2Y-516.0
X25.2Y-517.0
X25.2Y-518.0
X25.2Y-519.0
X25.2Y-520.0
X25.2Y-553.0
X25.2Y-554.0
X25.2Y-555.0
X25.2Y-556.0
X25.2Y-557.0
X25.2Y-558.0
X25.2Y-559.0
X34.8Y-11.0
X34.8Y-12.0
X34.8Y-13.0
X34.8Y-14.0
X34.8Y-15.0
X34.8Y-16.0
X34.8Y-17.0
X34.8Y-18.0
X34.8Y-19.0
X34.8Y-20.0
X34.8Y-21.0
X34.8Y-22.0
X34.8Y-89.5
X34.8Y-90.5
X34.8Y-91.5
X34.8Y-92.5
X34.8Y-93.5
X34.8Y-94.5
X34.8Y-95.5
X34.8Y-96.5
X34.8Y-97.5
X34.8Y-98.5
X34.8Y-99.5
X34.8Y-100.5
X34.8Y-150.25
X34.8Y-151.25
X34.8Y-152.25
X34.8Y-153.25
X34.8Y-154.25
X34.8Y-155.25
X34.8Y-156.25
X34.8Y-157.25
X34.8Y-158.25
X34.8Y-159.25
X34.8Y-160.25
X34.8Y-161.25
X34.8Y-207.5
X34.8Y-208.5
X34.8Y-209.5
X34.8Y-210.5
X34.8Y-211.5
X34.8Y-212.5
X34.8Y-213.5
X34.8Y-214.5
X34.8Y-215.5
X34.8Y-216.5
X34.8Y-217.5
X34.8Y-218.5
X34.8Y-263.0
X34.8Y-264.0
X34.8Y-265.0
X34.8Y-266.0
X34.8Y-267.0
X34.8Y-268.0
X34.8Y-269.0
X34.8Y-270.0
X34.8Y-271.0
X34.8Y-272.0
X34.8Y-273.0
X34.8Y-274.0
X34.8Y-308.75
X34.8Y-309.75
X34.8Y-310.75
X34.8Y-311.75
X34.8Y-312.75
X34.8Y-313.75
X34.8Y-314.75
X34.8Y-315.75
X34.8Y-316.75
X34.8Y-317.75
X34.8Y-318.75
X34.8Y-319.75
X34.8Y-376.25
X34.8Y-377.25
X34.8Y-378.25
X34.8Y-379.25
X34.8Y-380.25
X34.8Y-381.25
X34.8Y-382.25
X34.8Y-383.25
X34.8Y-384.25
X34.8Y-385.25
X34.8Y-386.25
X34.8Y-387.25
X34.8Y-440.0
X34.8Y-441.0
X34.8Y-442.0
X34.8Y-443.0
X34.8Y-444.0
X34.8Y-445.0
X34.8Y-446.0
X34.8Y-447.0
X34.8Y-448.0
X34.8Y-449.0
X34.8Y-450.0
X34.8Y-451.0
X34.8Y-514.0
X34.8Y-515.0
X34.8Y-516.0
X34.8Y-517.0
X34.8Y-518.0
X34.8Y-519.0
X34.8Y-520.0
X34.8Y-553.0
X34.8Y-554.0
X34.8Y-555.0
X34.8Y-556.0
X34.8Y-557.0
X34.8Y-558.0
X34.8Y-559.0
X37.7Y-11.0
X37.7Y-12.0
X37.7Y-13.0
X37.7Y-14.0
X37.7Y-15.0
X37.7Y-16.0
X37.7Y-17.0
X37.7Y-18.0
X37.7Y-19.0
X37.7Y-20.0
X37.7Y-21.0
X37.7Y-22.0
X37.7Y-89.5
X37.7Y-90.5
X37.7Y-91.5
X37.7Y-92.5
X37.7Y-93.5
X37.7Y-94.5
X37.7Y-95.5
X37.7Y-96.5
X37.7Y-97.5
X37.7Y-98.5
X37.7Y-99.5
X37.7Y-100.5
X37.7Y-150.25
X37.7Y-151.25
X37.7Y-152.25
X37.7Y-153.25
X37.7Y-154.25
X37.7Y-155.25
X37.7Y-156.25
X37.7Y-157.25
X37.7Y-158.25
X37.7Y-159.25
X37.7Y-160.25
X37.7Y-161.25
X37.7Y-207.5
X37.7Y-208.5
X37.7Y-209.5
X37.7Y-210.5
X37.7Y-211.5
X37.7Y-212.5
X37.7Y-213.5
X37.7Y-214.5
X37.7Y-215.5
X37.7Y-216.5
X37.7Y-217.5
X37.7Y-218.5
X37.7Y-263.0
X37.7Y-264.0
X37.7Y-265.0
X37.7Y-266.0
X37.7Y-267.0
X37.7Y-268.0
X37.7Y-269.0
X37.7Y-270.0
X37.7Y-271.0
X37.7Y-272.0
X37.7Y-273.0
X37.7Y-274.0
X37.7Y-308.75
X37.7Y-309.75
X37.7Y-310.75
X37.7Y-311.75
X37.7Y-312.75
X37.7Y-313.75
X37.7Y-314.75
X37.7Y-315.75
X37.7Y-316.75
X37.7Y-317.75
X37.7Y-318.75
X37.7Y-319.75
X37.7Y-376.25
X37.7Y-377.25
X37.7Y-378.25
X37.7Y-379.25
X37.7Y-380.25
X37.7Y-381.25
X37.7Y-382.25
X37.7Y-383.25
X37.7Y-384.25
X37.7Y-385.25
X37.7Y-386.25
X37.7Y-387.25
X37.7Y-440.0
X37.7Y-441.0
X37.7Y-442.0
X37.7Y-443.0
X37.7Y-444.0
X37.7Y-445.0
X37.7Y-446.0
X37.7Y-447.0
X37.7Y-448.0
X37.7Y-449.0
X37.7Y-450.0
X37.7Y-451.0
X37.7Y-514.0
X37.7Y-515.0
X37.7Y-516.0
X37.7Y-517.0
X37.7Y-518.0
X37.7Y-519.0
X37.7Y-520.0
X37.7Y-553.0
X37.7Y-554.0
X37.7Y-555.0
X37.7Y-556.0
X37.7Y-557.0
X37.7Y-558.0
X37.7Y-559.0
X47.3Y-11.0
X47.3Y-12.0
X47.3Y-13.0
X47.3Y-14.0
X47.3Y-15.0
X47.3Y-16.0
X47.3Y-17.0
X47.3Y-18.0
X47.3Y-19.0
X47.3Y-20.0
X47.3Y-21.0
X47.3Y-22.0
X47.3Y-89.5
X47.3Y-90.5
X47.3Y-91.5
X47.3Y-92.5
X47.3Y-93.5
X47.3Y-94.5
X47.3Y-95.5
X47.3Y-96.5
X47.3Y-97.5
X47.3Y-98.5
X47.3Y-99.5
X47.3Y-100.5
X47.3Y-150.25
X47.3Y-151.25
X47.3Y-152.25
X47.3Y-153.25
X47.3Y-154.25
X47.3Y-155.25
X47.3Y-156.25
X47.3Y-157.25
X47.3Y-158.25
X47.3Y-159.25
X47.3Y-160.25
X47.3Y-161.25
X47.3Y-207.5
X47.3Y-208.5
X47.3Y-209.5
X47.3Y-210.5
X47.3Y-211.5
X47.3Y-212.5
X47.3Y-213.5
X47.3Y-214.5
X47.3Y-215.5
X47.3Y-216.5
X47.3Y-217.5
X47.3Y-218.5
X47.3Y-263.0
X47.3Y-264.0
X47.3Y-265.0
X47.3Y-266.0
X47.3Y-267.0
X47.3Y-268.0
X47.3Y-269.0
X47.3Y-270.0
X47.3Y-271.0
X47.3Y-272.0
X47.3Y-273.0
X47.3Y-274.0
X47.3Y-308.75
X47.3Y-309.75
X47.3Y-310.75
X47.3Y-311.75
X47.3Y-312.75
X47.3Y-313.75
X47.3Y-314.75
X47.3Y-315.75
X47.3Y-316.75
X47.3Y-317.75
X47.3Y-318.75
X47.3Y-319.75
X47.3Y-376.25
X47.3Y-377.25
X47.3Y-378.25
X47.3Y-379.25
X47.3Y-380.25
X47.3Y-381.25
X47.3Y-382.25
X47.3Y-383.25
X47.3Y-384.25
X47.3Y-385.25
X47.3Y-386.25
X47.3Y-387.25
X47.3Y-440.0
X47.3Y-441.0
X47.3Y-442.0
X47.3Y-443.0
X47.3Y-444.0
X47.3Y-445.0
X47.3Y-446.0
X47.3Y-447.0
X47.3Y-448.0
X47.3Y-449.0
X47.3Y-450.0
X47.3Y-451.0
X47.3Y-514.0
X47.3Y-515.0
X47.3Y-516.0
X47.3Y-517.0
X47.3Y-518.0
X47.3Y-519.0
X47.3Y-520.0
X47.3Y-553.0
X47.3Y-554.0
X47.3Y-555.0
X47.3Y-556.0
X47.3Y-557.0
X47.3Y-558.0
X47.3Y-559.0
X50.2Y-11.0
X50.2Y-12.0
X50.2Y-13.0
X50.2Y-14.0
X50.2Y-15.0
X50.2Y-16.0
X50.2Y-17.0
X50.2Y-18.0
X50.2Y-19.0
X50.2Y-20.0
X50.2Y-21.0
X50.2Y-22.0
X50.2Y-89.5
X50.2Y-90.5
X50.2Y-91.5
X50.2Y-92.5
X50.2Y-93.5
X50.2Y-94.5
X50.2Y-95.5
X50.2Y-96.5
X50.2Y-97.5
X50.2Y-98.5
X50.2Y-99.5
X50.2Y-100.5
X50.2Y-150.25
X50.2Y-151.25
X50.2Y-152.25
X50.2Y-153.25
X50.2Y-154.25
X50.2Y-155.25
X50.2Y-156.25
X50.2Y-157.25
X50.2Y-158.25
X50.2Y-159.25
X50.2Y-160.25
X50.2Y-161.25
X50.2Y-207.5
X50.2Y-208.5
X50.2Y-209.5
X50.2Y-210.5
X50.2Y-211.5
X50.2Y-212.5
X50.2Y-213.5
X50.2Y-214.5
X50.2Y-215.5
X50.2Y-216.5
X50.2Y-217.5
X50.2Y-218.5
X50.2Y-263.0
X50.2Y-264.0
X50.2Y-265.0
X50.2Y-266.0
X50.2Y-267.0
X50.2Y-268.0
X50.2Y-269.0
X50.2Y-270.0
X50.2Y-271.0
X50.2Y-272.0
X50.2Y-273.0
X50.2Y-274.0
X50.2Y-308.75
X50.2Y-309.75
X50.2Y-310.75
X50.2Y-311.75
X50.2Y-312.75
X50.2Y-313.75
X50.2Y-314.75
X50.2Y-315.75
X50.2Y-316.75
X50.2Y-317.75
X50.2Y-318.75
X50.2Y-319.75
X50.2Y-376.25
X50.2Y-377.25
X50.2Y-378.25
X50.2Y-379.25
X50.2Y-380.25
X50.2Y-381.25
X50.2Y-382.25
X50.2Y-383.25
X50.2Y-384.25
X50.2Y-385.25
X50.2Y-386.25
X50.2Y-387.25
X50.2Y-440.0
X50.2Y-441.0
X50.2Y-442.0
X50.2Y-443.0
X50.2Y-444.0
X50.2Y-445.0
X50.2Y-446.0
X50.2Y-447.0
X50.2Y-448.0
X50.2Y-449.0
X50.2Y-450.0
X50.2Y-451.0
X50.2Y-514.0
X50.2Y-515.0
X50.2Y-516.0
X50.2Y-517.0
X50.2Y-518.0
X50.2Y-519.0
X50.2Y-520.0
X50.2Y-553.0
X50.2Y-554.0
X50.2Y-555.0
X50.2Y-556.0
X50.2Y-557.0
X50.2Y-558.0
X50.2Y-559.0
T7
X5.0Y-556.0
X5.25Y-517.0
X17.5Y-556.0
X17.75Y-517.0
X30.0Y-556.0
X30.25Y-517.0
X42.5Y-556.0
X42.75Y-517.0
X55.0Y-556.0
X55.25Y-517.0
T5
X4.609Y-292.829G85X4.591Y-291.179
G05
X4.653Y-47.849G85X4.549Y-46.202
G05
X4.79Y-172.892G85X4.429Y-171.282
G05
X5.592Y-281.3G85X5.183Y-282.898
G05
X5.555Y-36.27G85X5.229Y-37.888
G05
X5.434Y-181.192G85X5.365Y-182.841
G05
X17.109Y-292.829G85X17.091Y-291.179
G05
X17.153Y-47.849G85X17.049Y-46.202
G05
X17.29Y-172.892G85X16.929Y-171.282
G05
X18.092Y-281.3G85X17.683Y-282.898
G05
X18.055Y-36.27G85X17.729Y-37.888
G05
X17.934Y-181.192G85X17.865Y-182.841
G05
X29.609Y-292.829G85X29.591Y-291.179
G05
X29.653Y-47.849G85X29.549Y-46.202
G05
X29.79Y-172.892G85X29.429Y-171.282
G05
X30.592Y-281.3G85X30.183Y-282.898
G05
X30.555Y-36.27G85X30.229Y-37.888
G05
X30.434Y-181.192G85X30.365Y-182.841
G05
X42.109Y-292.829G85X42.091Y-291.179
G05
X42.153Y-47.849G85X42.049Y-46.202
G05
X42.29Y-172.892G85X41.929Y-171.282
G05
X43.092Y-281.3G85X42.683Y-282.898
G05
X43.055Y-36.27G85X42.729Y-37.888
G05
X42.934Y-181.192G85X42.865Y-182.841
G05
X54.609Y-292.829G85X54.591Y-291.179
G05
X54.653Y-47.849G85X54.549Y-46.202
G05
X54.79Y-172.892G85X54.429Y-171.282
G05
X55.592Y-281.3G85X55.183Y-282.898
G05
X55.555Y-36.27G85X55.229Y-37.888
G05
X55.434Y-181.192G85X55.365Y-182.841
G05
T6
X4.175Y-292.009G85X-1.175Y-292.067
G05
X4.177Y-47.052G85X-1.163Y-47.39
G05
X4.195Y-172.18G85X-1.026Y-173.349
G05
X5.799Y-282.205G85X10.982Y-283.533
G05
X5.809Y-37.163G85X11.054Y-38.218
G05
X5.824Y-182.034G85X11.17Y-182.258
G05
X16.675Y-292.009G85X11.325Y-292.067
G05
X16.677Y-47.052G85X11.337Y-47.39
G05
X16.695Y-172.18G85X11.474Y-173.349
G05
X18.299Y-282.205G85X23.482Y-283.533
G05
X18.309Y-37.163G85X23.554Y-38.218
G05
X18.324Y-182.034G85X23.67Y-182.258
G05
X29.175Y-292.009G85X23.825Y-292.067
G05
X29.177Y-47.052G85X23.837Y-47.39
G05
X29.195Y-172.18G85X23.974Y-173.349
G05
X30.799Y-282.205G85X35.982Y-283.533
G05
X30.809Y-37.163G85X36.054Y-38.218
G05
X30.824Y-182.034G85X36.17Y-182.258
G05
X41.675Y-292.009G85X36.325Y-292.067
G05
X41.677Y-47.052G85X36.337Y-47.39
G05
X41.695Y-172.18G85X36.474Y-173.349
G05
X43.299Y-282.205G85X48.482Y-283.533
G05
X43.309Y-37.163G85X48.554Y-38.218
G05
X43.324Y-182.034G85X48.67Y-182.258
G05
X54.175Y-292.009G85X48.825Y-292.067
G05
X54.177Y-47.052G85X48.837Y-47.39
G05
X54.195Y-172.18G85X48.974Y-173.349
G05
X55.799Y-282.205G85X60.982Y-283.533
G05
X55.809Y-37.163G85X61.054Y-38.218
G05
X55.824Y-182.034G85X61.17Y-182.258
G05
T0
M30
