G04 #@! TF.GenerationSoftware,KiCad,Pcbnew,(6.0.7)*
G04 #@! TF.CreationDate,2022-12-01T16:55:09-05:00*
G04 #@! TF.ProjectId,arm_panel,61726d5f-7061-46e6-956c-2e6b69636164,rev?*
G04 #@! TF.SameCoordinates,Original*
G04 #@! TF.FileFunction,Soldermask,Bot*
G04 #@! TF.FilePolarity,Negative*
%FSLAX46Y46*%
G04 Gerber Fmt 4.6, Leading zero omitted, Abs format (unit mm)*
G04 Created by KiCad (PCBNEW (6.0.7)) date 2022-12-01 16:55:09*
%MOMM*%
%LPD*%
G01*
G04 APERTURE LIST*
%ADD10C,0.120000*%
%ADD11C,0.500000*%
%ADD12C,0.010000*%
%ADD13C,3.200000*%
%ADD14R,1.700000X1.700000*%
%ADD15O,1.700000X1.700000*%
%ADD16R,1.350000X1.350000*%
%ADD17O,1.350000X1.350000*%
G04 APERTURE END LIST*
G04 #@! TO.C,REF\u002A\u002A*
G36*
X12257011Y-36420526D02*
G01*
X11467750Y-40341886D01*
X4605370Y-38960680D01*
X5394630Y-35039320D01*
X12257011Y-36420526D01*
G37*
D10*
X12257011Y-36420526D02*
X11467750Y-40341886D01*
X4605370Y-38960680D01*
X5394630Y-35039320D01*
X12257011Y-36420526D01*
G36*
X17626278Y-48996009D02*
G01*
X10640245Y-49437982D01*
X10387689Y-45445963D01*
X17373722Y-45003991D01*
X17626278Y-48996009D01*
G37*
X17626278Y-48996009D02*
X10640245Y-49437982D01*
X10387689Y-45445963D01*
X17373722Y-45003991D01*
X17626278Y-48996009D01*
G36*
X55021642Y-293999883D02*
G01*
X48022051Y-294075629D01*
X47978768Y-290075863D01*
X54978358Y-290000117D01*
X55021642Y-293999883D01*
G37*
X55021642Y-293999883D02*
X48022051Y-294075629D01*
X47978768Y-290075863D01*
X54978358Y-290000117D01*
X55021642Y-293999883D01*
G36*
X5021642Y-293999883D02*
G01*
X-1977949Y-294075629D01*
X-2021232Y-290075863D01*
X4978358Y-290000117D01*
X5021642Y-293999883D01*
G37*
X5021642Y-293999883D02*
X-1977949Y-294075629D01*
X-2021232Y-290075863D01*
X4978358Y-290000117D01*
X5021642Y-293999883D01*
G36*
X49577313Y-180293649D02*
G01*
X49410508Y-184290169D01*
X42416597Y-183998260D01*
X42583403Y-180001740D01*
X49577313Y-180293649D01*
G37*
X49577313Y-180293649D02*
X49410508Y-184290169D01*
X42416597Y-183998260D01*
X42583403Y-180001740D01*
X49577313Y-180293649D01*
G36*
X62277376Y-281800488D02*
G01*
X61284307Y-285675254D01*
X54503466Y-283937383D01*
X55496534Y-280062617D01*
X62277376Y-281800488D01*
G37*
X62277376Y-281800488D02*
X61284307Y-285675254D01*
X54503466Y-283937383D01*
X55496534Y-280062617D01*
X62277376Y-281800488D01*
G36*
X30021642Y-293999883D02*
G01*
X23022051Y-294075629D01*
X22978768Y-290075863D01*
X29978358Y-290000117D01*
X30021642Y-293999883D01*
G37*
X30021642Y-293999883D02*
X23022051Y-294075629D01*
X22978768Y-290075863D01*
X29978358Y-290000117D01*
X30021642Y-293999883D01*
G36*
X55436968Y-173951681D02*
G01*
X48606084Y-175481068D01*
X47732148Y-171577706D01*
X54563032Y-170048319D01*
X55436968Y-173951681D01*
G37*
X55436968Y-173951681D02*
X48606084Y-175481068D01*
X47732148Y-171577706D01*
X54563032Y-170048319D01*
X55436968Y-173951681D01*
G36*
X5436968Y-173951681D02*
G01*
X-1393916Y-175481068D01*
X-2267852Y-171577706D01*
X4563032Y-170048319D01*
X5436968Y-173951681D01*
G37*
X5436968Y-173951681D02*
X-1393916Y-175481068D01*
X-2267852Y-171577706D01*
X4563032Y-170048319D01*
X5436968Y-173951681D01*
G36*
X49757011Y-36420526D02*
G01*
X48967750Y-40341886D01*
X42105370Y-38960680D01*
X42894630Y-35039320D01*
X49757011Y-36420526D01*
G37*
X49757011Y-36420526D02*
X48967750Y-40341886D01*
X42105370Y-38960680D01*
X42894630Y-35039320D01*
X49757011Y-36420526D01*
G36*
X62257011Y-36420526D02*
G01*
X61467750Y-40341886D01*
X54605370Y-38960680D01*
X55394630Y-35039320D01*
X62257011Y-36420526D01*
G37*
X62257011Y-36420526D02*
X61467750Y-40341886D01*
X54605370Y-38960680D01*
X55394630Y-35039320D01*
X62257011Y-36420526D01*
G36*
X55126278Y-48996009D02*
G01*
X48140245Y-49437982D01*
X47887689Y-45445963D01*
X54873722Y-45003991D01*
X55126278Y-48996009D01*
G37*
X55126278Y-48996009D02*
X48140245Y-49437982D01*
X47887689Y-45445963D01*
X54873722Y-45003991D01*
X55126278Y-48996009D01*
G36*
X12277376Y-281800488D02*
G01*
X11284307Y-285675254D01*
X4503466Y-283937383D01*
X5496534Y-280062617D01*
X12277376Y-281800488D01*
G37*
X12277376Y-281800488D02*
X11284307Y-285675254D01*
X4503466Y-283937383D01*
X5496534Y-280062617D01*
X12277376Y-281800488D01*
G36*
X42936968Y-173951681D02*
G01*
X36106084Y-175481068D01*
X35232148Y-171577706D01*
X42063032Y-170048319D01*
X42936968Y-173951681D01*
G37*
X42936968Y-173951681D02*
X36106084Y-175481068D01*
X35232148Y-171577706D01*
X42063032Y-170048319D01*
X42936968Y-173951681D01*
G36*
X30436968Y-173951681D02*
G01*
X23606084Y-175481068D01*
X22732148Y-171577706D01*
X29563032Y-170048319D01*
X30436968Y-173951681D01*
G37*
X30436968Y-173951681D02*
X23606084Y-175481068D01*
X22732148Y-171577706D01*
X29563032Y-170048319D01*
X30436968Y-173951681D01*
G36*
X42521642Y-293999883D02*
G01*
X35522051Y-294075629D01*
X35478768Y-290075863D01*
X42478358Y-290000117D01*
X42521642Y-293999883D01*
G37*
X42521642Y-293999883D02*
X35522051Y-294075629D01*
X35478768Y-290075863D01*
X42478358Y-290000117D01*
X42521642Y-293999883D01*
G36*
X24577313Y-180293649D02*
G01*
X24410508Y-184290169D01*
X17416597Y-183998260D01*
X17583403Y-180001740D01*
X24577313Y-180293649D01*
G37*
X24577313Y-180293649D02*
X24410508Y-184290169D01*
X17416597Y-183998260D01*
X17583403Y-180001740D01*
X24577313Y-180293649D01*
G36*
X37257011Y-36420526D02*
G01*
X36467750Y-40341886D01*
X29605370Y-38960680D01*
X30394630Y-35039320D01*
X37257011Y-36420526D01*
G37*
X37257011Y-36420526D02*
X36467750Y-40341886D01*
X29605370Y-38960680D01*
X30394630Y-35039320D01*
X37257011Y-36420526D01*
G36*
X17936968Y-173951681D02*
G01*
X11106084Y-175481068D01*
X10232148Y-171577706D01*
X17063032Y-170048319D01*
X17936968Y-173951681D01*
G37*
X17936968Y-173951681D02*
X11106084Y-175481068D01*
X10232148Y-171577706D01*
X17063032Y-170048319D01*
X17936968Y-173951681D01*
G36*
X24757011Y-36420526D02*
G01*
X23967750Y-40341886D01*
X17105370Y-38960680D01*
X17894630Y-35039320D01*
X24757011Y-36420526D01*
G37*
X24757011Y-36420526D02*
X23967750Y-40341886D01*
X17105370Y-38960680D01*
X17894630Y-35039320D01*
X24757011Y-36420526D01*
G36*
X37077313Y-180293649D02*
G01*
X36910508Y-184290169D01*
X29916597Y-183998260D01*
X30083403Y-180001740D01*
X37077313Y-180293649D01*
G37*
X37077313Y-180293649D02*
X36910508Y-184290169D01*
X29916597Y-183998260D01*
X30083403Y-180001740D01*
X37077313Y-180293649D01*
G36*
X30126278Y-48996009D02*
G01*
X23140245Y-49437982D01*
X22887689Y-45445963D01*
X29873722Y-45003991D01*
X30126278Y-48996009D01*
G37*
X30126278Y-48996009D02*
X23140245Y-49437982D01*
X22887689Y-45445963D01*
X29873722Y-45003991D01*
X30126278Y-48996009D01*
G36*
X62077313Y-180293649D02*
G01*
X61910508Y-184290169D01*
X54916597Y-183998260D01*
X55083403Y-180001740D01*
X62077313Y-180293649D01*
G37*
X62077313Y-180293649D02*
X61910508Y-184290169D01*
X54916597Y-183998260D01*
X55083403Y-180001740D01*
X62077313Y-180293649D01*
G36*
X17521642Y-293999883D02*
G01*
X10522051Y-294075629D01*
X10478768Y-290075863D01*
X17478358Y-290000117D01*
X17521642Y-293999883D01*
G37*
X17521642Y-293999883D02*
X10522051Y-294075629D01*
X10478768Y-290075863D01*
X17478358Y-290000117D01*
X17521642Y-293999883D01*
G36*
X37277376Y-281800488D02*
G01*
X36284307Y-285675254D01*
X29503466Y-283937383D01*
X30496534Y-280062617D01*
X37277376Y-281800488D01*
G37*
X37277376Y-281800488D02*
X36284307Y-285675254D01*
X29503466Y-283937383D01*
X30496534Y-280062617D01*
X37277376Y-281800488D01*
G36*
X42626278Y-48996009D02*
G01*
X35640245Y-49437982D01*
X35387689Y-45445963D01*
X42373722Y-45003991D01*
X42626278Y-48996009D01*
G37*
X42626278Y-48996009D02*
X35640245Y-49437982D01*
X35387689Y-45445963D01*
X42373722Y-45003991D01*
X42626278Y-48996009D01*
G36*
X49777376Y-281800488D02*
G01*
X48784307Y-285675254D01*
X42003466Y-283937383D01*
X42996534Y-280062617D01*
X49777376Y-281800488D01*
G37*
X49777376Y-281800488D02*
X48784307Y-285675254D01*
X42003466Y-283937383D01*
X42996534Y-280062617D01*
X49777376Y-281800488D01*
G36*
X24777376Y-281800488D02*
G01*
X23784307Y-285675254D01*
X17003466Y-283937383D01*
X17996534Y-280062617D01*
X24777376Y-281800488D01*
G37*
X24777376Y-281800488D02*
X23784307Y-285675254D01*
X17003466Y-283937383D01*
X17996534Y-280062617D01*
X24777376Y-281800488D01*
G36*
X12077313Y-180293649D02*
G01*
X11910508Y-184290169D01*
X4916597Y-183998260D01*
X5083403Y-180001740D01*
X12077313Y-180293649D01*
G37*
X12077313Y-180293649D02*
X11910508Y-184290169D01*
X4916597Y-183998260D01*
X5083403Y-180001740D01*
X12077313Y-180293649D01*
G36*
X5126278Y-48996009D02*
G01*
X-1859755Y-49437982D01*
X-2112311Y-45445963D01*
X4873722Y-45003991D01*
X5126278Y-48996009D01*
G37*
X5126278Y-48996009D02*
X-1859755Y-49437982D01*
X-2112311Y-45445963D01*
X4873722Y-45003991D01*
X5126278Y-48996009D01*
G04 #@! TD*
D11*
G04 #@! TO.C,REF\u002A\u002A*
X37700000Y-211500000D03*
G04 #@! TD*
G04 #@! TO.C,REF\u002A\u002A*
X34800000Y-16000000D03*
G04 #@! TD*
G04 #@! TO.C,REF\u002A\u002A*
X25200000Y-312750000D03*
G04 #@! TD*
G04 #@! TO.C,REF\u002A\u002A*
X37700000Y-215500000D03*
G04 #@! TD*
G04 #@! TO.C,REF\u002A\u002A*
X25200000Y-97500000D03*
G04 #@! TD*
G04 #@! TO.C,REF\u002A\u002A*
X37700000Y-265000000D03*
G04 #@! TD*
G04 #@! TO.C,REF\u002A\u002A*
X9800000Y-213500000D03*
G04 #@! TD*
G04 #@! TO.C,REF\u002A\u002A*
X25200000Y-443000000D03*
G04 #@! TD*
D12*
G04 #@! TO.C,REF\u002A\u002A*
X8431190Y-37690603D03*
X5392136Y-37078926D03*
G04 #@! TD*
D11*
G04 #@! TO.C,REF\u002A\u002A*
X50200000Y-451000000D03*
G04 #@! TD*
G04 #@! TO.C,REF\u002A\u002A*
X22300000Y-440000000D03*
G04 #@! TD*
G04 #@! TO.C,REF\u002A\u002A*
X9800000Y-385250000D03*
G04 #@! TD*
D12*
G04 #@! TO.C,REF\u002A\u002A*
X14006983Y-47220986D03*
X17100798Y-47025256D03*
G04 #@! TD*
D11*
G04 #@! TO.C,REF\u002A\u002A*
X9800000Y-217500000D03*
G04 #@! TD*
G04 #@! TO.C,REF\u002A\u002A*
X12700000Y-442000000D03*
G04 #@! TD*
G04 #@! TO.C,REF\u002A\u002A*
X47300000Y-311750000D03*
G04 #@! TD*
G04 #@! TO.C,REF\u002A\u002A*
X22300000Y-93500000D03*
G04 #@! TD*
G04 #@! TO.C,REF\u002A\u002A*
X37700000Y-312750000D03*
G04 #@! TD*
G04 #@! TO.C,REF\u002A\u002A*
X12700000Y-559000000D03*
G04 #@! TD*
G04 #@! TO.C,REF\u002A\u002A*
X9800000Y-100500000D03*
G04 #@! TD*
G04 #@! TO.C,REF\u002A\u002A*
X50200000Y-386250000D03*
G04 #@! TD*
G04 #@! TO.C,REF\u002A\u002A*
X22300000Y-157250000D03*
G04 #@! TD*
G04 #@! TO.C,REF\u002A\u002A*
X9800000Y-448000000D03*
G04 #@! TD*
G04 #@! TO.C,REF\u002A\u002A*
X22300000Y-161250000D03*
G04 #@! TD*
G04 #@! TO.C,REF\u002A\u002A*
X22300000Y-212500000D03*
G04 #@! TD*
G04 #@! TO.C,REF\u002A\u002A*
X9800000Y-268000000D03*
G04 #@! TD*
G04 #@! TO.C,REF\u002A\u002A*
X34800000Y-451000000D03*
G04 #@! TD*
G04 #@! TO.C,REF\u002A\u002A*
X12700000Y-213500000D03*
G04 #@! TD*
G04 #@! TO.C,REF\u002A\u002A*
X47300000Y-451000000D03*
G04 #@! TD*
G04 #@! TO.C,REF\u002A\u002A*
X34800000Y-446000000D03*
G04 #@! TD*
G04 #@! TO.C,REF\u002A\u002A*
X50200000Y-266000000D03*
G04 #@! TD*
D12*
G04 #@! TO.C,REF\u002A\u002A*
X51500205Y-292037873D03*
X54600023Y-292004328D03*
G04 #@! TD*
D11*
G04 #@! TO.C,REF\u002A\u002A*
X25200000Y-158250000D03*
G04 #@! TD*
G04 #@! TO.C,REF\u002A\u002A*
X34800000Y-440000000D03*
G04 #@! TD*
G04 #@! TO.C,REF\u002A\u002A*
X12700000Y-387250000D03*
G04 #@! TD*
G04 #@! TO.C,REF\u002A\u002A*
X12700000Y-269000000D03*
G04 #@! TD*
G04 #@! TO.C,REF\u002A\u002A*
X47300000Y-376250000D03*
G04 #@! TD*
G04 #@! TO.C,REF\u002A\u002A*
X12700000Y-554000000D03*
G04 #@! TD*
G04 #@! TO.C,REF\u002A\u002A*
X25200000Y-317750000D03*
G04 #@! TD*
G04 #@! TO.C,REF\u002A\u002A*
X50200000Y-308750000D03*
G04 #@! TD*
G04 #@! TO.C,REF\u002A\u002A*
X9800000Y-90500000D03*
G04 #@! TD*
G04 #@! TO.C,REF\u002A\u002A*
X37700000Y-96500000D03*
G04 #@! TD*
G04 #@! TO.C,REF\u002A\u002A*
X12700000Y-380250000D03*
G04 #@! TD*
G04 #@! TO.C,REF\u002A\u002A*
X12700000Y-274000000D03*
G04 #@! TD*
G04 #@! TO.C,REF\u002A\u002A*
X25200000Y-11000000D03*
G04 #@! TD*
G04 #@! TO.C,REF\u002A\u002A*
X12700000Y-154250000D03*
G04 #@! TD*
G04 #@! TO.C,REF\u002A\u002A*
X47300000Y-553000000D03*
G04 #@! TD*
G04 #@! TO.C,REF\u002A\u002A*
X9800000Y-270000000D03*
G04 #@! TD*
G04 #@! TO.C,REF\u002A\u002A*
X25200000Y-519000000D03*
G04 #@! TD*
G04 #@! TO.C,REF\u002A\u002A*
X22300000Y-91500000D03*
G04 #@! TD*
G04 #@! TO.C,REF\u002A\u002A*
X47300000Y-559000000D03*
G04 #@! TD*
G04 #@! TO.C,REF\u002A\u002A*
X9800000Y-514000000D03*
G04 #@! TD*
G04 #@! TO.C,REF\u002A\u002A*
X47300000Y-520000000D03*
G04 #@! TD*
G04 #@! TO.C,REF\u002A\u002A*
X47300000Y-442000000D03*
G04 #@! TD*
G04 #@! TO.C,REF\u002A\u002A*
X47300000Y-377250000D03*
G04 #@! TD*
G04 #@! TO.C,REF\u002A\u002A*
X22300000Y-156250000D03*
G04 #@! TD*
G04 #@! TO.C,REF\u002A\u002A*
X50200000Y-309750000D03*
G04 #@! TD*
G04 #@! TO.C,REF\u002A\u002A*
X50200000Y-553000000D03*
G04 #@! TD*
G04 #@! TO.C,REF\u002A\u002A*
X47300000Y-517000000D03*
G04 #@! TD*
G04 #@! TO.C,REF\u002A\u002A*
X9800000Y-155250000D03*
G04 #@! TD*
G04 #@! TO.C,REF\u002A\u002A*
X22300000Y-381250000D03*
G04 #@! TD*
G04 #@! TO.C,REF\u002A\u002A*
X34800000Y-314750000D03*
G04 #@! TD*
G04 #@! TO.C,REF\u002A\u002A*
X37700000Y-515000000D03*
G04 #@! TD*
G04 #@! TO.C,REF\u002A\u002A*
X22300000Y-318750000D03*
G04 #@! TD*
G04 #@! TO.C,REF\u002A\u002A*
X9800000Y-316750000D03*
G04 #@! TD*
G04 #@! TO.C,REF\u002A\u002A*
X34800000Y-515000000D03*
G04 #@! TD*
G04 #@! TO.C,REF\u002A\u002A*
X22300000Y-154250000D03*
G04 #@! TD*
G04 #@! TO.C,REF\u002A\u002A*
X22300000Y-151250000D03*
G04 #@! TD*
G04 #@! TO.C,REF\u002A\u002A*
X47300000Y-313750000D03*
G04 #@! TD*
G04 #@! TO.C,REF\u002A\u002A*
X25200000Y-21000000D03*
G04 #@! TD*
G04 #@! TO.C,REF\u002A\u002A*
X34800000Y-387250000D03*
G04 #@! TD*
G04 #@! TO.C,REF\u002A\u002A*
X12700000Y-21000000D03*
G04 #@! TD*
G04 #@! TO.C,REF\u002A\u002A*
X37700000Y-314750000D03*
G04 #@! TD*
G04 #@! TO.C,REF\u002A\u002A*
X34800000Y-18000000D03*
G04 #@! TD*
G04 #@! TO.C,REF\u002A\u002A*
X47300000Y-271000000D03*
G04 #@! TD*
G04 #@! TO.C,REF\u002A\u002A*
X25200000Y-379250000D03*
G04 #@! TD*
G04 #@! TO.C,REF\u002A\u002A*
X47300000Y-100500000D03*
G04 #@! TD*
G04 #@! TO.C,REF\u002A\u002A*
X12700000Y-558000000D03*
G04 #@! TD*
G04 #@! TO.C,REF\u002A\u002A*
X37700000Y-216500000D03*
G04 #@! TD*
G04 #@! TO.C,REF\u002A\u002A*
X12700000Y-155250000D03*
G04 #@! TD*
G04 #@! TO.C,REF\u002A\u002A*
X9800000Y-152250000D03*
G04 #@! TD*
G04 #@! TO.C,REF\u002A\u002A*
X50200000Y-556000000D03*
G04 #@! TD*
G04 #@! TO.C,REF\u002A\u002A*
X12700000Y-557000000D03*
G04 #@! TD*
G04 #@! TO.C,REF\u002A\u002A*
X47300000Y-151250000D03*
G04 #@! TD*
G04 #@! TO.C,REF\u002A\u002A*
X22300000Y-214500000D03*
G04 #@! TD*
G04 #@! TO.C,REF\u002A\u002A*
X22300000Y-379250000D03*
G04 #@! TD*
G04 #@! TO.C,REF\u002A\u002A*
X50200000Y-97500000D03*
G04 #@! TD*
G04 #@! TO.C,REF\u002A\u002A*
X37700000Y-309750000D03*
G04 #@! TD*
G04 #@! TO.C,REF\u002A\u002A*
X37700000Y-555000000D03*
G04 #@! TD*
G04 #@! TO.C,REF\u002A\u002A*
X12700000Y-385250000D03*
G04 #@! TD*
G04 #@! TO.C,REF\u002A\u002A*
X47300000Y-443000000D03*
G04 #@! TD*
G04 #@! TO.C,REF\u002A\u002A*
X47300000Y-557000000D03*
G04 #@! TD*
G04 #@! TO.C,REF\u002A\u002A*
X9800000Y-557000000D03*
G04 #@! TD*
G04 #@! TO.C,REF\u002A\u002A*
X9800000Y-380250000D03*
G04 #@! TD*
G04 #@! TO.C,REF\u002A\u002A*
X50200000Y-208500000D03*
G04 #@! TD*
G04 #@! TO.C,REF\u002A\u002A*
X47300000Y-155250000D03*
G04 #@! TD*
G04 #@! TO.C,REF\u002A\u002A*
X47300000Y-385250000D03*
G04 #@! TD*
G04 #@! TO.C,REF\u002A\u002A*
X12700000Y-309750000D03*
G04 #@! TD*
D12*
G04 #@! TO.C,REF\u002A\u002A*
X4600023Y-292004328D03*
X1500205Y-292037873D03*
G04 #@! TD*
D11*
G04 #@! TO.C,REF\u002A\u002A*
X34800000Y-448000000D03*
G04 #@! TD*
G04 #@! TO.C,REF\u002A\u002A*
X50200000Y-152250000D03*
G04 #@! TD*
G04 #@! TO.C,REF\u002A\u002A*
X34800000Y-22000000D03*
G04 #@! TD*
G04 #@! TO.C,REF\u002A\u002A*
X25200000Y-272000000D03*
G04 #@! TD*
G04 #@! TO.C,REF\u002A\u002A*
X9800000Y-269000000D03*
G04 #@! TD*
G04 #@! TO.C,REF\u002A\u002A*
X47300000Y-317750000D03*
G04 #@! TD*
G04 #@! TO.C,REF\u002A\u002A*
X50200000Y-150250000D03*
G04 #@! TD*
G04 #@! TO.C,REF\u002A\u002A*
X34800000Y-160250000D03*
G04 #@! TD*
G04 #@! TO.C,REF\u002A\u002A*
X37700000Y-156250000D03*
G04 #@! TD*
G04 #@! TO.C,REF\u002A\u002A*
X50200000Y-154250000D03*
G04 #@! TD*
G04 #@! TO.C,REF\u002A\u002A*
X25200000Y-14000000D03*
G04 #@! TD*
G04 #@! TO.C,REF\u002A\u002A*
X47300000Y-440000000D03*
G04 #@! TD*
G04 #@! TO.C,REF\u002A\u002A*
X25200000Y-264000000D03*
G04 #@! TD*
G04 #@! TO.C,REF\u002A\u002A*
X50200000Y-518000000D03*
G04 #@! TD*
D13*
G04 #@! TO.C,H1*
X5000000Y-556000000D03*
G04 #@! TD*
D11*
G04 #@! TO.C,REF\u002A\u002A*
X9800000Y-376250000D03*
G04 #@! TD*
G04 #@! TO.C,REF\u002A\u002A*
X50200000Y-210500000D03*
G04 #@! TD*
G04 #@! TO.C,REF\u002A\u002A*
X25200000Y-308750000D03*
G04 #@! TD*
G04 #@! TO.C,REF\u002A\u002A*
X37700000Y-266000000D03*
G04 #@! TD*
G04 #@! TO.C,REF\u002A\u002A*
X50200000Y-159250000D03*
G04 #@! TD*
G04 #@! TO.C,REF\u002A\u002A*
X47300000Y-381250000D03*
G04 #@! TD*
G04 #@! TO.C,REF\u002A\u002A*
X47300000Y-19000000D03*
G04 #@! TD*
G04 #@! TO.C,REF\u002A\u002A*
X34800000Y-218500000D03*
G04 #@! TD*
G04 #@! TO.C,REF\u002A\u002A*
X12700000Y-376250000D03*
G04 #@! TD*
G04 #@! TO.C,REF\u002A\u002A*
X9800000Y-317750000D03*
G04 #@! TD*
G04 #@! TO.C,REF\u002A\u002A*
X9800000Y-157250000D03*
G04 #@! TD*
G04 #@! TO.C,REF\u002A\u002A*
X47300000Y-379250000D03*
G04 #@! TD*
G04 #@! TO.C,REF\u002A\u002A*
X9800000Y-517000000D03*
G04 #@! TD*
G04 #@! TO.C,REF\u002A\u002A*
X12700000Y-382250000D03*
G04 #@! TD*
G04 #@! TO.C,REF\u002A\u002A*
X12700000Y-553000000D03*
G04 #@! TD*
G04 #@! TO.C,REF\u002A\u002A*
X9800000Y-150250000D03*
G04 #@! TD*
G04 #@! TO.C,REF\u002A\u002A*
X22300000Y-556000000D03*
G04 #@! TD*
G04 #@! TO.C,REF\u002A\u002A*
X34800000Y-518000000D03*
G04 #@! TD*
G04 #@! TO.C,REF\u002A\u002A*
X9800000Y-208500000D03*
G04 #@! TD*
D12*
G04 #@! TO.C,REF\u002A\u002A*
X42899652Y-182016681D03*
X45996955Y-182145954D03*
G04 #@! TD*
D11*
G04 #@! TO.C,REF\u002A\u002A*
X47300000Y-445000000D03*
G04 #@! TD*
G04 #@! TO.C,REF\u002A\u002A*
X50200000Y-218500000D03*
G04 #@! TD*
G04 #@! TO.C,REF\u002A\u002A*
X25200000Y-159250000D03*
G04 #@! TD*
G04 #@! TO.C,REF\u002A\u002A*
X50200000Y-387250000D03*
G04 #@! TD*
G04 #@! TO.C,REF\u002A\u002A*
X50200000Y-319750000D03*
G04 #@! TD*
D12*
G04 #@! TO.C,REF\u002A\u002A*
X58390421Y-282868935D03*
X55387477Y-282099307D03*
G04 #@! TD*
D11*
G04 #@! TO.C,REF\u002A\u002A*
X37700000Y-17000000D03*
G04 #@! TD*
G04 #@! TO.C,REF\u002A\u002A*
X9800000Y-515000000D03*
G04 #@! TD*
G04 #@! TO.C,REF\u002A\u002A*
X25200000Y-383250000D03*
G04 #@! TD*
G04 #@! TO.C,REF\u002A\u002A*
X47300000Y-444000000D03*
G04 #@! TD*
G04 #@! TO.C,REF\u002A\u002A*
X9800000Y-442000000D03*
G04 #@! TD*
G04 #@! TO.C,REF\u002A\u002A*
X12700000Y-13000000D03*
G04 #@! TD*
G04 #@! TO.C,REF\u002A\u002A*
X34800000Y-447000000D03*
G04 #@! TD*
G04 #@! TO.C,REF\u002A\u002A*
X22300000Y-380250000D03*
G04 #@! TD*
G04 #@! TO.C,REF\u002A\u002A*
X9800000Y-22000000D03*
G04 #@! TD*
G04 #@! TO.C,REF\u002A\u002A*
X25200000Y-209500000D03*
G04 #@! TD*
G04 #@! TO.C,REF\u002A\u002A*
X9800000Y-558000000D03*
G04 #@! TD*
G04 #@! TO.C,REF\u002A\u002A*
X22300000Y-12000000D03*
G04 #@! TD*
D12*
G04 #@! TO.C,REF\u002A\u002A*
X29600023Y-292004328D03*
X26500205Y-292037873D03*
G04 #@! TD*
D11*
G04 #@! TO.C,REF\u002A\u002A*
X37700000Y-209500000D03*
G04 #@! TD*
G04 #@! TO.C,REF\u002A\u002A*
X25200000Y-12000000D03*
G04 #@! TD*
G04 #@! TO.C,REF\u002A\u002A*
X50200000Y-446000000D03*
G04 #@! TD*
G04 #@! TO.C,REF\u002A\u002A*
X34800000Y-517000000D03*
G04 #@! TD*
G04 #@! TO.C,REF\u002A\u002A*
X25200000Y-381250000D03*
G04 #@! TD*
G04 #@! TO.C,REF\u002A\u002A*
X37700000Y-153250000D03*
G04 #@! TD*
G04 #@! TO.C,REF\u002A\u002A*
X50200000Y-90500000D03*
G04 #@! TD*
G04 #@! TO.C,REF\u002A\u002A*
X37700000Y-514000000D03*
G04 #@! TD*
G04 #@! TO.C,REF\u002A\u002A*
X12700000Y-515000000D03*
G04 #@! TD*
G04 #@! TO.C,REF\u002A\u002A*
X22300000Y-11000000D03*
G04 #@! TD*
G04 #@! TO.C,REF\u002A\u002A*
X12700000Y-211500000D03*
G04 #@! TD*
G04 #@! TO.C,REF\u002A\u002A*
X34800000Y-553000000D03*
G04 #@! TD*
G04 #@! TO.C,REF\u002A\u002A*
X47300000Y-92500000D03*
G04 #@! TD*
G04 #@! TO.C,REF\u002A\u002A*
X25200000Y-520000000D03*
G04 #@! TD*
G04 #@! TO.C,REF\u002A\u002A*
X34800000Y-273000000D03*
G04 #@! TD*
G04 #@! TO.C,REF\u002A\u002A*
X22300000Y-267000000D03*
G04 #@! TD*
G04 #@! TO.C,REF\u002A\u002A*
X37700000Y-441000000D03*
G04 #@! TD*
G04 #@! TO.C,REF\u002A\u002A*
X25200000Y-309750000D03*
G04 #@! TD*
G04 #@! TO.C,REF\u002A\u002A*
X12700000Y-268000000D03*
G04 #@! TD*
G04 #@! TO.C,REF\u002A\u002A*
X47300000Y-555000000D03*
G04 #@! TD*
G04 #@! TO.C,REF\u002A\u002A*
X34800000Y-266000000D03*
G04 #@! TD*
G04 #@! TO.C,REF\u002A\u002A*
X12700000Y-310750000D03*
G04 #@! TD*
G04 #@! TO.C,REF\u002A\u002A*
X22300000Y-211500000D03*
G04 #@! TD*
G04 #@! TO.C,REF\u002A\u002A*
X25200000Y-553000000D03*
G04 #@! TD*
G04 #@! TO.C,REF\u002A\u002A*
X34800000Y-269000000D03*
G04 #@! TD*
G04 #@! TO.C,REF\u002A\u002A*
X37700000Y-451000000D03*
G04 #@! TD*
G04 #@! TO.C,REF\u002A\u002A*
X47300000Y-216500000D03*
G04 #@! TD*
G04 #@! TO.C,REF\u002A\u002A*
X37700000Y-517000000D03*
G04 #@! TD*
G04 #@! TO.C,REF\u002A\u002A*
X37700000Y-157250000D03*
G04 #@! TD*
G04 #@! TO.C,REF\u002A\u002A*
X47300000Y-448000000D03*
G04 #@! TD*
G04 #@! TO.C,REF\u002A\u002A*
X12700000Y-91500000D03*
G04 #@! TD*
G04 #@! TO.C,REF\u002A\u002A*
X37700000Y-383250000D03*
G04 #@! TD*
G04 #@! TO.C,REF\u002A\u002A*
X50200000Y-520000000D03*
G04 #@! TD*
G04 #@! TO.C,REF\u002A\u002A*
X50200000Y-445000000D03*
G04 #@! TD*
G04 #@! TO.C,REF\u002A\u002A*
X9800000Y-446000000D03*
G04 #@! TD*
G04 #@! TO.C,REF\u002A\u002A*
X22300000Y-266000000D03*
G04 #@! TD*
G04 #@! TO.C,REF\u002A\u002A*
X47300000Y-160250000D03*
G04 #@! TD*
G04 #@! TO.C,REF\u002A\u002A*
X34800000Y-151250000D03*
G04 #@! TD*
G04 #@! TO.C,REF\u002A\u002A*
X25200000Y-153250000D03*
G04 #@! TD*
G04 #@! TO.C,REF\u002A\u002A*
X34800000Y-17000000D03*
G04 #@! TD*
G04 #@! TO.C,REF\u002A\u002A*
X34800000Y-319750000D03*
G04 #@! TD*
G04 #@! TO.C,REF\u002A\u002A*
X37700000Y-15000000D03*
G04 #@! TD*
G04 #@! TO.C,REF\u002A\u002A*
X37700000Y-448000000D03*
G04 #@! TD*
G04 #@! TO.C,REF\u002A\u002A*
X50200000Y-93500000D03*
G04 #@! TD*
G04 #@! TO.C,REF\u002A\u002A*
X47300000Y-315750000D03*
G04 #@! TD*
G04 #@! TO.C,REF\u002A\u002A*
X9800000Y-553000000D03*
G04 #@! TD*
G04 #@! TO.C,REF\u002A\u002A*
X34800000Y-378250000D03*
G04 #@! TD*
G04 #@! TO.C,REF\u002A\u002A*
X12700000Y-451000000D03*
G04 #@! TD*
G04 #@! TO.C,REF\u002A\u002A*
X34800000Y-385250000D03*
G04 #@! TD*
G04 #@! TO.C,REF\u002A\u002A*
X25200000Y-319750000D03*
G04 #@! TD*
G04 #@! TO.C,REF\u002A\u002A*
X37700000Y-152250000D03*
G04 #@! TD*
G04 #@! TO.C,REF\u002A\u002A*
X25200000Y-266000000D03*
G04 #@! TD*
G04 #@! TO.C,REF\u002A\u002A*
X47300000Y-213500000D03*
G04 #@! TD*
G04 #@! TO.C,REF\u002A\u002A*
X50200000Y-316750000D03*
G04 #@! TD*
G04 #@! TO.C,REF\u002A\u002A*
X34800000Y-212500000D03*
G04 #@! TD*
G04 #@! TO.C,REF\u002A\u002A*
X34800000Y-15000000D03*
G04 #@! TD*
G04 #@! TO.C,REF\u002A\u002A*
X25200000Y-269000000D03*
G04 #@! TD*
G04 #@! TO.C,REF\u002A\u002A*
X22300000Y-319750000D03*
G04 #@! TD*
G04 #@! TO.C,REF\u002A\u002A*
X25200000Y-152250000D03*
G04 #@! TD*
G04 #@! TO.C,REF\u002A\u002A*
X12700000Y-153250000D03*
G04 #@! TD*
G04 #@! TO.C,REF\u002A\u002A*
X37700000Y-311750000D03*
G04 #@! TD*
G04 #@! TO.C,REF\u002A\u002A*
X22300000Y-555000000D03*
G04 #@! TD*
G04 #@! TO.C,REF\u002A\u002A*
X47300000Y-378250000D03*
G04 #@! TD*
G04 #@! TO.C,REF\u002A\u002A*
X50200000Y-95500000D03*
G04 #@! TD*
G04 #@! TO.C,REF\u002A\u002A*
X50200000Y-379250000D03*
G04 #@! TD*
G04 #@! TO.C,REF\u002A\u002A*
X37700000Y-212500000D03*
G04 #@! TD*
G04 #@! TO.C,REF\u002A\u002A*
X37700000Y-319750000D03*
G04 #@! TD*
G04 #@! TO.C,REF\u002A\u002A*
X47300000Y-95500000D03*
G04 #@! TD*
G04 #@! TO.C,REF\u002A\u002A*
X50200000Y-151250000D03*
G04 #@! TD*
G04 #@! TO.C,REF\u002A\u002A*
X25200000Y-447000000D03*
G04 #@! TD*
G04 #@! TO.C,REF\u002A\u002A*
X12700000Y-450000000D03*
G04 #@! TD*
G04 #@! TO.C,REF\u002A\u002A*
X22300000Y-312750000D03*
G04 #@! TD*
G04 #@! TO.C,REF\u002A\u002A*
X50200000Y-271000000D03*
G04 #@! TD*
G04 #@! TO.C,REF\u002A\u002A*
X12700000Y-314750000D03*
G04 #@! TD*
G04 #@! TO.C,REF\u002A\u002A*
X34800000Y-264000000D03*
G04 #@! TD*
G04 #@! TO.C,REF\u002A\u002A*
X47300000Y-157250000D03*
G04 #@! TD*
G04 #@! TO.C,REF\u002A\u002A*
X25200000Y-19000000D03*
G04 #@! TD*
G04 #@! TO.C,REF\u002A\u002A*
X9800000Y-381250000D03*
G04 #@! TD*
G04 #@! TO.C,REF\u002A\u002A*
X25200000Y-387250000D03*
G04 #@! TD*
G04 #@! TO.C,REF\u002A\u002A*
X22300000Y-309750000D03*
G04 #@! TD*
G04 #@! TO.C,REF\u002A\u002A*
X50200000Y-21000000D03*
G04 #@! TD*
G04 #@! TO.C,REF\u002A\u002A*
X50200000Y-269000000D03*
G04 #@! TD*
G04 #@! TO.C,REF\u002A\u002A*
X50200000Y-557000000D03*
G04 #@! TD*
G04 #@! TO.C,REF\u002A\u002A*
X12700000Y-17000000D03*
G04 #@! TD*
G04 #@! TO.C,REF\u002A\u002A*
X34800000Y-211500000D03*
G04 #@! TD*
G04 #@! TO.C,REF\u002A\u002A*
X22300000Y-92500000D03*
G04 #@! TD*
G04 #@! TO.C,REF\u002A\u002A*
X22300000Y-451000000D03*
G04 #@! TD*
G04 #@! TO.C,REF\u002A\u002A*
X34800000Y-384250000D03*
G04 #@! TD*
G04 #@! TO.C,REF\u002A\u002A*
X9800000Y-211500000D03*
G04 #@! TD*
D12*
G04 #@! TO.C,REF\u002A\u002A*
X54609664Y-172087394D03*
X51584558Y-172764694D03*
G04 #@! TD*
D11*
G04 #@! TO.C,REF\u002A\u002A*
X47300000Y-266000000D03*
G04 #@! TD*
G04 #@! TO.C,REF\u002A\u002A*
X25200000Y-554000000D03*
G04 #@! TD*
G04 #@! TO.C,REF\u002A\u002A*
X25200000Y-514000000D03*
G04 #@! TD*
G04 #@! TO.C,REF\u002A\u002A*
X37700000Y-268000000D03*
G04 #@! TD*
G04 #@! TO.C,REF\u002A\u002A*
X22300000Y-153250000D03*
G04 #@! TD*
G04 #@! TO.C,REF\u002A\u002A*
X22300000Y-385250000D03*
G04 #@! TD*
G04 #@! TO.C,REF\u002A\u002A*
X37700000Y-310750000D03*
G04 #@! TD*
G04 #@! TO.C,REF\u002A\u002A*
X37700000Y-272000000D03*
G04 #@! TD*
G04 #@! TO.C,REF\u002A\u002A*
X47300000Y-211500000D03*
G04 #@! TD*
G04 #@! TO.C,REF\u002A\u002A*
X25200000Y-217500000D03*
G04 #@! TD*
G04 #@! TO.C,REF\u002A\u002A*
X47300000Y-384250000D03*
G04 #@! TD*
G04 #@! TO.C,REF\u002A\u002A*
X9800000Y-98500000D03*
G04 #@! TD*
G04 #@! TO.C,REF\u002A\u002A*
X25200000Y-518000000D03*
G04 #@! TD*
G04 #@! TO.C,REF\u002A\u002A*
X25200000Y-377250000D03*
G04 #@! TD*
G04 #@! TO.C,REF\u002A\u002A*
X47300000Y-11000000D03*
G04 #@! TD*
G04 #@! TO.C,REF\u002A\u002A*
X47300000Y-153250000D03*
G04 #@! TD*
G04 #@! TO.C,REF\u002A\u002A*
X50200000Y-514000000D03*
G04 #@! TD*
G04 #@! TO.C,REF\u002A\u002A*
X37700000Y-443000000D03*
G04 #@! TD*
G04 #@! TO.C,REF\u002A\u002A*
X25200000Y-214500000D03*
G04 #@! TD*
G04 #@! TO.C,REF\u002A\u002A*
X12700000Y-215500000D03*
G04 #@! TD*
G04 #@! TO.C,REF\u002A\u002A*
X22300000Y-209500000D03*
G04 #@! TD*
G04 #@! TO.C,REF\u002A\u002A*
X37700000Y-208500000D03*
G04 #@! TD*
G04 #@! TO.C,REF\u002A\u002A*
X47300000Y-154250000D03*
G04 #@! TD*
G04 #@! TO.C,REF\u002A\u002A*
X9800000Y-319750000D03*
G04 #@! TD*
G04 #@! TO.C,REF\u002A\u002A*
X47300000Y-309750000D03*
G04 #@! TD*
G04 #@! TO.C,REF\u002A\u002A*
X9800000Y-440000000D03*
G04 #@! TD*
G04 #@! TO.C,REF\u002A\u002A*
X25200000Y-380250000D03*
G04 #@! TD*
G04 #@! TO.C,REF\u002A\u002A*
X34800000Y-519000000D03*
G04 #@! TD*
G04 #@! TO.C,REF\u002A\u002A*
X22300000Y-559000000D03*
G04 #@! TD*
G04 #@! TO.C,REF\u002A\u002A*
X34800000Y-445000000D03*
G04 #@! TD*
G04 #@! TO.C,REF\u002A\u002A*
X25200000Y-384250000D03*
G04 #@! TD*
G04 #@! TO.C,REF\u002A\u002A*
X34800000Y-214500000D03*
G04 #@! TD*
G04 #@! TO.C,REF\u002A\u002A*
X34800000Y-93500000D03*
G04 #@! TD*
G04 #@! TO.C,REF\u002A\u002A*
X12700000Y-264000000D03*
G04 #@! TD*
G04 #@! TO.C,REF\u002A\u002A*
X9800000Y-444000000D03*
G04 #@! TD*
G04 #@! TO.C,REF\u002A\u002A*
X25200000Y-263000000D03*
G04 #@! TD*
G04 #@! TO.C,REF\u002A\u002A*
X34800000Y-153250000D03*
G04 #@! TD*
G04 #@! TO.C,REF\u002A\u002A*
X34800000Y-554000000D03*
G04 #@! TD*
G04 #@! TO.C,REF\u002A\u002A*
X34800000Y-213500000D03*
G04 #@! TD*
G04 #@! TO.C,REF\u002A\u002A*
X50200000Y-311750000D03*
G04 #@! TD*
D12*
G04 #@! TO.C,REF\u002A\u002A*
X4609664Y-172087394D03*
X1584558Y-172764694D03*
G04 #@! TD*
D11*
G04 #@! TO.C,REF\u002A\u002A*
X50200000Y-217500000D03*
G04 #@! TD*
G04 #@! TO.C,REF\u002A\u002A*
X25200000Y-208500000D03*
G04 #@! TD*
G04 #@! TO.C,REF\u002A\u002A*
X37700000Y-18000000D03*
G04 #@! TD*
D12*
G04 #@! TO.C,REF\u002A\u002A*
X42892136Y-37078926D03*
X45931190Y-37690603D03*
G04 #@! TD*
D11*
G04 #@! TO.C,REF\u002A\u002A*
X47300000Y-210500000D03*
G04 #@! TD*
G04 #@! TO.C,REF\u002A\u002A*
X22300000Y-444000000D03*
G04 #@! TD*
G04 #@! TO.C,REF\u002A\u002A*
X34800000Y-19000000D03*
G04 #@! TD*
G04 #@! TO.C,REF\u002A\u002A*
X25200000Y-18000000D03*
G04 #@! TD*
G04 #@! TO.C,REF\u002A\u002A*
X47300000Y-90500000D03*
G04 #@! TD*
G04 #@! TO.C,REF\u002A\u002A*
X37700000Y-384250000D03*
G04 #@! TD*
G04 #@! TO.C,REF\u002A\u002A*
X25200000Y-376250000D03*
G04 #@! TD*
G04 #@! TO.C,REF\u002A\u002A*
X37700000Y-520000000D03*
G04 #@! TD*
G04 #@! TO.C,REF\u002A\u002A*
X12700000Y-318750000D03*
G04 #@! TD*
G04 #@! TO.C,REF\u002A\u002A*
X37700000Y-274000000D03*
G04 #@! TD*
G04 #@! TO.C,REF\u002A\u002A*
X9800000Y-271000000D03*
G04 #@! TD*
G04 #@! TO.C,REF\u002A\u002A*
X47300000Y-558000000D03*
G04 #@! TD*
G04 #@! TO.C,REF\u002A\u002A*
X22300000Y-315750000D03*
G04 #@! TD*
G04 #@! TO.C,REF\u002A\u002A*
X12700000Y-441000000D03*
G04 #@! TD*
G04 #@! TO.C,REF\u002A\u002A*
X12700000Y-22000000D03*
G04 #@! TD*
G04 #@! TO.C,REF\u002A\u002A*
X22300000Y-377250000D03*
G04 #@! TD*
G04 #@! TO.C,REF\u002A\u002A*
X50200000Y-14000000D03*
G04 #@! TD*
D13*
G04 #@! TO.C,H1*
X30000000Y-556000000D03*
G04 #@! TD*
D11*
G04 #@! TO.C,REF\u002A\u002A*
X22300000Y-376250000D03*
G04 #@! TD*
G04 #@! TO.C,REF\u002A\u002A*
X47300000Y-441000000D03*
G04 #@! TD*
G04 #@! TO.C,REF\u002A\u002A*
X47300000Y-93500000D03*
G04 #@! TD*
G04 #@! TO.C,REF\u002A\u002A*
X12700000Y-445000000D03*
G04 #@! TD*
D13*
G04 #@! TO.C,H2*
X42750000Y-517000000D03*
G04 #@! TD*
D11*
G04 #@! TO.C,REF\u002A\u002A*
X25200000Y-150250000D03*
G04 #@! TD*
G04 #@! TO.C,REF\u002A\u002A*
X22300000Y-160250000D03*
G04 #@! TD*
G04 #@! TO.C,REF\u002A\u002A*
X37700000Y-19000000D03*
G04 #@! TD*
G04 #@! TO.C,REF\u002A\u002A*
X37700000Y-16000000D03*
G04 #@! TD*
G04 #@! TO.C,REF\u002A\u002A*
X50200000Y-318750000D03*
G04 #@! TD*
G04 #@! TO.C,REF\u002A\u002A*
X12700000Y-11000000D03*
G04 #@! TD*
G04 #@! TO.C,REF\u002A\u002A*
X47300000Y-12000000D03*
G04 #@! TD*
G04 #@! TO.C,REF\u002A\u002A*
X25200000Y-265000000D03*
G04 #@! TD*
G04 #@! TO.C,REF\u002A\u002A*
X12700000Y-265000000D03*
G04 #@! TD*
G04 #@! TO.C,REF\u002A\u002A*
X9800000Y-265000000D03*
G04 #@! TD*
G04 #@! TO.C,REF\u002A\u002A*
X50200000Y-214500000D03*
G04 #@! TD*
G04 #@! TO.C,REF\u002A\u002A*
X37700000Y-217500000D03*
G04 #@! TD*
G04 #@! TO.C,REF\u002A\u002A*
X12700000Y-207500000D03*
G04 #@! TD*
G04 #@! TO.C,REF\u002A\u002A*
X50200000Y-517000000D03*
G04 #@! TD*
G04 #@! TO.C,REF\u002A\u002A*
X9800000Y-450000000D03*
G04 #@! TD*
G04 #@! TO.C,REF\u002A\u002A*
X12700000Y-151250000D03*
G04 #@! TD*
G04 #@! TO.C,REF\u002A\u002A*
X12700000Y-158250000D03*
G04 #@! TD*
G04 #@! TO.C,REF\u002A\u002A*
X12700000Y-271000000D03*
G04 #@! TD*
G04 #@! TO.C,REF\u002A\u002A*
X22300000Y-447000000D03*
G04 #@! TD*
G04 #@! TO.C,REF\u002A\u002A*
X25200000Y-267000000D03*
G04 #@! TD*
G04 #@! TO.C,REF\u002A\u002A*
X22300000Y-554000000D03*
G04 #@! TD*
G04 #@! TO.C,REF\u002A\u002A*
X34800000Y-311750000D03*
G04 #@! TD*
G04 #@! TO.C,REF\u002A\u002A*
X50200000Y-98500000D03*
G04 #@! TD*
G04 #@! TO.C,REF\u002A\u002A*
X37700000Y-90500000D03*
G04 #@! TD*
G04 #@! TO.C,REF\u002A\u002A*
X50200000Y-160250000D03*
G04 #@! TD*
G04 #@! TO.C,REF\u002A\u002A*
X25200000Y-274000000D03*
G04 #@! TD*
G04 #@! TO.C,REF\u002A\u002A*
X47300000Y-150250000D03*
G04 #@! TD*
G04 #@! TO.C,REF\u002A\u002A*
X50200000Y-515000000D03*
G04 #@! TD*
G04 #@! TO.C,REF\u002A\u002A*
X47300000Y-212500000D03*
G04 #@! TD*
G04 #@! TO.C,REF\u002A\u002A*
X22300000Y-264000000D03*
G04 #@! TD*
G04 #@! TO.C,REF\u002A\u002A*
X47300000Y-21000000D03*
G04 #@! TD*
G04 #@! TO.C,REF\u002A\u002A*
X22300000Y-270000000D03*
G04 #@! TD*
G04 #@! TO.C,REF\u002A\u002A*
X12700000Y-20000000D03*
G04 #@! TD*
G04 #@! TO.C,REF\u002A\u002A*
X25200000Y-17000000D03*
G04 #@! TD*
G04 #@! TO.C,REF\u002A\u002A*
X12700000Y-319750000D03*
G04 #@! TD*
G04 #@! TO.C,REF\u002A\u002A*
X12700000Y-517000000D03*
G04 #@! TD*
G04 #@! TO.C,REF\u002A\u002A*
X47300000Y-447000000D03*
G04 #@! TD*
G04 #@! TO.C,REF\u002A\u002A*
X22300000Y-518000000D03*
G04 #@! TD*
G04 #@! TO.C,REF\u002A\u002A*
X25200000Y-449000000D03*
G04 #@! TD*
G04 #@! TO.C,REF\u002A\u002A*
X12700000Y-519000000D03*
G04 #@! TD*
G04 #@! TO.C,REF\u002A\u002A*
X9800000Y-95500000D03*
G04 #@! TD*
G04 #@! TO.C,REF\u002A\u002A*
X12700000Y-446000000D03*
G04 #@! TD*
G04 #@! TO.C,REF\u002A\u002A*
X47300000Y-22000000D03*
G04 #@! TD*
G04 #@! TO.C,REF\u002A\u002A*
X22300000Y-265000000D03*
G04 #@! TD*
G04 #@! TO.C,REF\u002A\u002A*
X37700000Y-308750000D03*
G04 #@! TD*
G04 #@! TO.C,REF\u002A\u002A*
X12700000Y-518000000D03*
G04 #@! TD*
G04 #@! TO.C,REF\u002A\u002A*
X25200000Y-91500000D03*
G04 #@! TD*
G04 #@! TO.C,REF\u002A\u002A*
X37700000Y-447000000D03*
G04 #@! TD*
G04 #@! TO.C,REF\u002A\u002A*
X50200000Y-315750000D03*
G04 #@! TD*
G04 #@! TO.C,REF\u002A\u002A*
X25200000Y-440000000D03*
G04 #@! TD*
G04 #@! TO.C,REF\u002A\u002A*
X25200000Y-558000000D03*
G04 #@! TD*
G04 #@! TO.C,REF\u002A\u002A*
X9800000Y-20000000D03*
G04 #@! TD*
D13*
G04 #@! TO.C,H1*
X55000000Y-556000000D03*
G04 #@! TD*
D11*
G04 #@! TO.C,REF\u002A\u002A*
X25200000Y-213500000D03*
G04 #@! TD*
G04 #@! TO.C,REF\u002A\u002A*
X37700000Y-446000000D03*
G04 #@! TD*
G04 #@! TO.C,REF\u002A\u002A*
X22300000Y-558000000D03*
G04 #@! TD*
G04 #@! TO.C,REF\u002A\u002A*
X50200000Y-91500000D03*
G04 #@! TD*
G04 #@! TO.C,REF\u002A\u002A*
X50200000Y-270000000D03*
G04 #@! TD*
G04 #@! TO.C,REF\u002A\u002A*
X12700000Y-378250000D03*
G04 #@! TD*
G04 #@! TO.C,REF\u002A\u002A*
X47300000Y-387250000D03*
G04 #@! TD*
G04 #@! TO.C,REF\u002A\u002A*
X37700000Y-381250000D03*
G04 #@! TD*
G04 #@! TO.C,REF\u002A\u002A*
X12700000Y-214500000D03*
G04 #@! TD*
G04 #@! TO.C,REF\u002A\u002A*
X37700000Y-95500000D03*
G04 #@! TD*
G04 #@! TO.C,REF\u002A\u002A*
X9800000Y-518000000D03*
G04 #@! TD*
G04 #@! TO.C,REF\u002A\u002A*
X34800000Y-156250000D03*
G04 #@! TD*
G04 #@! TO.C,REF\u002A\u002A*
X9800000Y-14000000D03*
G04 #@! TD*
G04 #@! TO.C,REF\u002A\u002A*
X9800000Y-384250000D03*
G04 #@! TD*
G04 #@! TO.C,REF\u002A\u002A*
X50200000Y-313750000D03*
G04 #@! TD*
G04 #@! TO.C,REF\u002A\u002A*
X12700000Y-313750000D03*
G04 #@! TD*
G04 #@! TO.C,REF\u002A\u002A*
X12700000Y-19000000D03*
G04 #@! TD*
G04 #@! TO.C,REF\u002A\u002A*
X9800000Y-154250000D03*
G04 #@! TD*
G04 #@! TO.C,REF\u002A\u002A*
X12700000Y-15000000D03*
G04 #@! TD*
G04 #@! TO.C,REF\u002A\u002A*
X34800000Y-559000000D03*
G04 #@! TD*
G04 #@! TO.C,REF\u002A\u002A*
X25200000Y-210500000D03*
G04 #@! TD*
G04 #@! TO.C,REF\u002A\u002A*
X47300000Y-98500000D03*
G04 #@! TD*
G04 #@! TO.C,REF\u002A\u002A*
X22300000Y-94500000D03*
G04 #@! TD*
G04 #@! TO.C,REF\u002A\u002A*
X22300000Y-97500000D03*
G04 #@! TD*
G04 #@! TO.C,REF\u002A\u002A*
X22300000Y-450000000D03*
G04 #@! TD*
G04 #@! TO.C,REF\u002A\u002A*
X9800000Y-11000000D03*
G04 #@! TD*
G04 #@! TO.C,REF\u002A\u002A*
X9800000Y-443000000D03*
G04 #@! TD*
G04 #@! TO.C,REF\u002A\u002A*
X9800000Y-445000000D03*
G04 #@! TD*
G04 #@! TO.C,REF\u002A\u002A*
X12700000Y-381250000D03*
G04 #@! TD*
G04 #@! TO.C,REF\u002A\u002A*
X25200000Y-212500000D03*
G04 #@! TD*
G04 #@! TO.C,REF\u002A\u002A*
X47300000Y-94500000D03*
G04 #@! TD*
G04 #@! TO.C,REF\u002A\u002A*
X37700000Y-161250000D03*
G04 #@! TD*
G04 #@! TO.C,REF\u002A\u002A*
X47300000Y-264000000D03*
G04 #@! TD*
G04 #@! TO.C,REF\u002A\u002A*
X50200000Y-447000000D03*
G04 #@! TD*
G04 #@! TO.C,REF\u002A\u002A*
X37700000Y-516000000D03*
G04 #@! TD*
G04 #@! TO.C,REF\u002A\u002A*
X34800000Y-380250000D03*
G04 #@! TD*
G04 #@! TO.C,REF\u002A\u002A*
X34800000Y-92500000D03*
G04 #@! TD*
G04 #@! TO.C,REF\u002A\u002A*
X34800000Y-99500000D03*
G04 #@! TD*
G04 #@! TO.C,REF\u002A\u002A*
X47300000Y-383250000D03*
G04 #@! TD*
G04 #@! TO.C,REF\u002A\u002A*
X34800000Y-441000000D03*
G04 #@! TD*
G04 #@! TO.C,REF\u002A\u002A*
X9800000Y-308750000D03*
G04 #@! TD*
G04 #@! TO.C,REF\u002A\u002A*
X34800000Y-557000000D03*
G04 #@! TD*
G04 #@! TO.C,REF\u002A\u002A*
X22300000Y-217500000D03*
G04 #@! TD*
G04 #@! TO.C,REF\u002A\u002A*
X12700000Y-97500000D03*
G04 #@! TD*
G04 #@! TO.C,REF\u002A\u002A*
X50200000Y-12000000D03*
G04 #@! TD*
G04 #@! TO.C,REF\u002A\u002A*
X47300000Y-380250000D03*
G04 #@! TD*
G04 #@! TO.C,REF\u002A\u002A*
X37700000Y-210500000D03*
G04 #@! TD*
G04 #@! TO.C,REF\u002A\u002A*
X37700000Y-99500000D03*
G04 #@! TD*
G04 #@! TO.C,REF\u002A\u002A*
X47300000Y-450000000D03*
G04 #@! TD*
G04 #@! TO.C,REF\u002A\u002A*
X25200000Y-218500000D03*
G04 #@! TD*
G04 #@! TO.C,REF\u002A\u002A*
X9800000Y-556000000D03*
G04 #@! TD*
G04 #@! TO.C,REF\u002A\u002A*
X37700000Y-442000000D03*
G04 #@! TD*
G04 #@! TO.C,REF\u002A\u002A*
X25200000Y-268000000D03*
G04 #@! TD*
G04 #@! TO.C,REF\u002A\u002A*
X37700000Y-378250000D03*
G04 #@! TD*
G04 #@! TO.C,REF\u002A\u002A*
X50200000Y-448000000D03*
G04 #@! TD*
G04 #@! TO.C,REF\u002A\u002A*
X22300000Y-445000000D03*
G04 #@! TD*
G04 #@! TO.C,REF\u002A\u002A*
X37700000Y-263000000D03*
G04 #@! TD*
G04 #@! TO.C,REF\u002A\u002A*
X37700000Y-218500000D03*
G04 #@! TD*
G04 #@! TO.C,REF\u002A\u002A*
X50200000Y-215500000D03*
G04 #@! TD*
G04 #@! TO.C,REF\u002A\u002A*
X37700000Y-385250000D03*
G04 #@! TD*
G04 #@! TO.C,REF\u002A\u002A*
X50200000Y-558000000D03*
G04 #@! TD*
G04 #@! TO.C,REF\u002A\u002A*
X50200000Y-267000000D03*
G04 #@! TD*
G04 #@! TO.C,REF\u002A\u002A*
X47300000Y-263000000D03*
G04 #@! TD*
G04 #@! TO.C,REF\u002A\u002A*
X22300000Y-553000000D03*
G04 #@! TD*
G04 #@! TO.C,REF\u002A\u002A*
X37700000Y-98500000D03*
G04 #@! TD*
G04 #@! TO.C,REF\u002A\u002A*
X34800000Y-157250000D03*
G04 #@! TD*
G04 #@! TO.C,REF\u002A\u002A*
X22300000Y-158250000D03*
G04 #@! TD*
G04 #@! TO.C,REF\u002A\u002A*
X22300000Y-268000000D03*
G04 #@! TD*
G04 #@! TO.C,REF\u002A\u002A*
X37700000Y-387250000D03*
G04 #@! TD*
G04 #@! TO.C,REF\u002A\u002A*
X9800000Y-309750000D03*
G04 #@! TD*
G04 #@! TO.C,REF\u002A\u002A*
X25200000Y-450000000D03*
G04 #@! TD*
D12*
G04 #@! TO.C,REF\u002A\u002A*
X55392136Y-37078926D03*
X58431190Y-37690603D03*
G04 #@! TD*
D11*
G04 #@! TO.C,REF\u002A\u002A*
X34800000Y-558000000D03*
G04 #@! TD*
G04 #@! TO.C,REF\u002A\u002A*
X9800000Y-315750000D03*
G04 #@! TD*
G04 #@! TO.C,REF\u002A\u002A*
X25200000Y-94500000D03*
G04 #@! TD*
G04 #@! TO.C,REF\u002A\u002A*
X47300000Y-518000000D03*
G04 #@! TD*
G04 #@! TO.C,REF\u002A\u002A*
X34800000Y-516000000D03*
G04 #@! TD*
D13*
G04 #@! TO.C,H1*
X17500000Y-556000000D03*
G04 #@! TD*
D11*
G04 #@! TO.C,REF\u002A\u002A*
X25200000Y-215500000D03*
G04 #@! TD*
G04 #@! TO.C,REF\u002A\u002A*
X25200000Y-314750000D03*
G04 #@! TD*
G04 #@! TO.C,REF\u002A\u002A*
X22300000Y-519000000D03*
G04 #@! TD*
G04 #@! TO.C,REF\u002A\u002A*
X25200000Y-273000000D03*
G04 #@! TD*
G04 #@! TO.C,REF\u002A\u002A*
X12700000Y-89500000D03*
G04 #@! TD*
G04 #@! TO.C,REF\u002A\u002A*
X47300000Y-274000000D03*
G04 #@! TD*
G04 #@! TO.C,REF\u002A\u002A*
X47300000Y-386250000D03*
G04 #@! TD*
G04 #@! TO.C,REF\u002A\u002A*
X9800000Y-516000000D03*
G04 #@! TD*
G04 #@! TO.C,REF\u002A\u002A*
X25200000Y-211500000D03*
G04 #@! TD*
G04 #@! TO.C,REF\u002A\u002A*
X34800000Y-267000000D03*
G04 #@! TD*
G04 #@! TO.C,REF\u002A\u002A*
X34800000Y-381250000D03*
G04 #@! TD*
G04 #@! TO.C,REF\u002A\u002A*
X37700000Y-557000000D03*
G04 #@! TD*
G04 #@! TO.C,REF\u002A\u002A*
X50200000Y-20000000D03*
G04 #@! TD*
G04 #@! TO.C,REF\u002A\u002A*
X25200000Y-318750000D03*
G04 #@! TD*
G04 #@! TO.C,REF\u002A\u002A*
X47300000Y-312750000D03*
G04 #@! TD*
G04 #@! TO.C,REF\u002A\u002A*
X12700000Y-384250000D03*
G04 #@! TD*
G04 #@! TO.C,REF\u002A\u002A*
X37700000Y-14000000D03*
G04 #@! TD*
G04 #@! TO.C,REF\u002A\u002A*
X37700000Y-151250000D03*
G04 #@! TD*
G04 #@! TO.C,REF\u002A\u002A*
X12700000Y-159250000D03*
G04 #@! TD*
G04 #@! TO.C,REF\u002A\u002A*
X34800000Y-443000000D03*
G04 #@! TD*
G04 #@! TO.C,REF\u002A\u002A*
X22300000Y-19000000D03*
G04 #@! TD*
G04 #@! TO.C,REF\u002A\u002A*
X37700000Y-380250000D03*
G04 #@! TD*
G04 #@! TO.C,REF\u002A\u002A*
X50200000Y-381250000D03*
G04 #@! TD*
G04 #@! TO.C,REF\u002A\u002A*
X22300000Y-515000000D03*
G04 #@! TD*
D12*
G04 #@! TO.C,REF\u002A\u002A*
X51506983Y-47220986D03*
X54600798Y-47025256D03*
G04 #@! TD*
D11*
G04 #@! TO.C,REF\u002A\u002A*
X47300000Y-99500000D03*
G04 #@! TD*
G04 #@! TO.C,REF\u002A\u002A*
X47300000Y-156250000D03*
G04 #@! TD*
G04 #@! TO.C,REF\u002A\u002A*
X12700000Y-98500000D03*
G04 #@! TD*
G04 #@! TO.C,REF\u002A\u002A*
X22300000Y-271000000D03*
G04 #@! TD*
G04 #@! TO.C,REF\u002A\u002A*
X47300000Y-516000000D03*
G04 #@! TD*
G04 #@! TO.C,REF\u002A\u002A*
X50200000Y-213500000D03*
G04 #@! TD*
G04 #@! TO.C,REF\u002A\u002A*
X37700000Y-213500000D03*
G04 #@! TD*
G04 #@! TO.C,REF\u002A\u002A*
X37700000Y-20000000D03*
G04 #@! TD*
G04 #@! TO.C,REF\u002A\u002A*
X12700000Y-272000000D03*
G04 #@! TD*
G04 #@! TO.C,REF\u002A\u002A*
X34800000Y-95500000D03*
G04 #@! TD*
G04 #@! TO.C,REF\u002A\u002A*
X9800000Y-310750000D03*
G04 #@! TD*
G04 #@! TO.C,REF\u002A\u002A*
X50200000Y-444000000D03*
G04 #@! TD*
G04 #@! TO.C,REF\u002A\u002A*
X34800000Y-449000000D03*
G04 #@! TD*
G04 #@! TO.C,REF\u002A\u002A*
X37700000Y-518000000D03*
G04 #@! TD*
G04 #@! TO.C,REF\u002A\u002A*
X9800000Y-215500000D03*
G04 #@! TD*
G04 #@! TO.C,REF\u002A\u002A*
X50200000Y-211500000D03*
G04 #@! TD*
D13*
G04 #@! TO.C,H2*
X30250000Y-517000000D03*
G04 #@! TD*
D11*
G04 #@! TO.C,REF\u002A\u002A*
X9800000Y-153250000D03*
G04 #@! TD*
D12*
G04 #@! TO.C,REF\u002A\u002A*
X8390421Y-282868935D03*
X5387477Y-282099307D03*
G04 #@! TD*
G04 #@! TO.C,REF\u002A\u002A*
X39084558Y-172764694D03*
X42109664Y-172087394D03*
G04 #@! TD*
D11*
G04 #@! TO.C,REF\u002A\u002A*
X9800000Y-99500000D03*
G04 #@! TD*
D12*
G04 #@! TO.C,REF\u002A\u002A*
X29609664Y-172087394D03*
X26584558Y-172764694D03*
G04 #@! TD*
D11*
G04 #@! TO.C,REF\u002A\u002A*
X34800000Y-379250000D03*
G04 #@! TD*
G04 #@! TO.C,REF\u002A\u002A*
X34800000Y-274000000D03*
G04 #@! TD*
G04 #@! TO.C,REF\u002A\u002A*
X22300000Y-311750000D03*
G04 #@! TD*
G04 #@! TO.C,REF\u002A\u002A*
X47300000Y-515000000D03*
G04 #@! TD*
G04 #@! TO.C,REF\u002A\u002A*
X34800000Y-152250000D03*
G04 #@! TD*
G04 #@! TO.C,REF\u002A\u002A*
X25200000Y-515000000D03*
G04 #@! TD*
G04 #@! TO.C,REF\u002A\u002A*
X22300000Y-150250000D03*
G04 #@! TD*
G04 #@! TO.C,REF\u002A\u002A*
X25200000Y-557000000D03*
G04 #@! TD*
G04 #@! TO.C,REF\u002A\u002A*
X50200000Y-272000000D03*
G04 #@! TD*
G04 #@! TO.C,REF\u002A\u002A*
X37700000Y-379250000D03*
G04 #@! TD*
G04 #@! TO.C,REF\u002A\u002A*
X22300000Y-20000000D03*
G04 #@! TD*
G04 #@! TO.C,REF\u002A\u002A*
X25200000Y-311750000D03*
G04 #@! TD*
G04 #@! TO.C,REF\u002A\u002A*
X9800000Y-386250000D03*
G04 #@! TD*
G04 #@! TO.C,REF\u002A\u002A*
X9800000Y-441000000D03*
G04 #@! TD*
G04 #@! TO.C,REF\u002A\u002A*
X9800000Y-267000000D03*
G04 #@! TD*
G04 #@! TO.C,REF\u002A\u002A*
X50200000Y-153250000D03*
G04 #@! TD*
G04 #@! TO.C,REF\u002A\u002A*
X22300000Y-386250000D03*
G04 #@! TD*
G04 #@! TO.C,REF\u002A\u002A*
X34800000Y-442000000D03*
G04 #@! TD*
G04 #@! TO.C,REF\u002A\u002A*
X12700000Y-270000000D03*
G04 #@! TD*
D12*
G04 #@! TO.C,REF\u002A\u002A*
X39000205Y-292037873D03*
X42100023Y-292004328D03*
G04 #@! TD*
D11*
G04 #@! TO.C,REF\u002A\u002A*
X34800000Y-89500000D03*
G04 #@! TD*
G04 #@! TO.C,REF\u002A\u002A*
X9800000Y-17000000D03*
G04 #@! TD*
G04 #@! TO.C,REF\u002A\u002A*
X50200000Y-378250000D03*
G04 #@! TD*
G04 #@! TO.C,REF\u002A\u002A*
X50200000Y-441000000D03*
G04 #@! TD*
G04 #@! TO.C,REF\u002A\u002A*
X37700000Y-519000000D03*
G04 #@! TD*
G04 #@! TO.C,REF\u002A\u002A*
X22300000Y-517000000D03*
G04 #@! TD*
G04 #@! TO.C,REF\u002A\u002A*
X50200000Y-314750000D03*
G04 #@! TD*
G04 #@! TO.C,REF\u002A\u002A*
X22300000Y-387250000D03*
G04 #@! TD*
G04 #@! TO.C,REF\u002A\u002A*
X9800000Y-97500000D03*
G04 #@! TD*
G04 #@! TO.C,REF\u002A\u002A*
X22300000Y-274000000D03*
G04 #@! TD*
G04 #@! TO.C,REF\u002A\u002A*
X12700000Y-217500000D03*
G04 #@! TD*
G04 #@! TO.C,REF\u002A\u002A*
X9800000Y-313750000D03*
G04 #@! TD*
D13*
G04 #@! TO.C,H2*
X55250000Y-517000000D03*
G04 #@! TD*
D11*
G04 #@! TO.C,REF\u002A\u002A*
X22300000Y-99500000D03*
G04 #@! TD*
G04 #@! TO.C,REF\u002A\u002A*
X22300000Y-14000000D03*
G04 #@! TD*
G04 #@! TO.C,REF\u002A\u002A*
X37700000Y-22000000D03*
G04 #@! TD*
G04 #@! TO.C,REF\u002A\u002A*
X37700000Y-273000000D03*
G04 #@! TD*
G04 #@! TO.C,REF\u002A\u002A*
X25200000Y-92500000D03*
G04 #@! TD*
G04 #@! TO.C,REF\u002A\u002A*
X34800000Y-382250000D03*
G04 #@! TD*
G04 #@! TO.C,REF\u002A\u002A*
X12700000Y-317750000D03*
G04 #@! TD*
G04 #@! TO.C,REF\u002A\u002A*
X12700000Y-100500000D03*
G04 #@! TD*
G04 #@! TO.C,REF\u002A\u002A*
X25200000Y-98500000D03*
G04 #@! TD*
G04 #@! TO.C,REF\u002A\u002A*
X34800000Y-161250000D03*
G04 #@! TD*
G04 #@! TO.C,REF\u002A\u002A*
X50200000Y-519000000D03*
G04 #@! TD*
G04 #@! TO.C,REF\u002A\u002A*
X9800000Y-379250000D03*
G04 #@! TD*
G04 #@! TO.C,REF\u002A\u002A*
X12700000Y-156250000D03*
G04 #@! TD*
G04 #@! TO.C,REF\u002A\u002A*
X34800000Y-265000000D03*
G04 #@! TD*
G04 #@! TO.C,REF\u002A\u002A*
X50200000Y-440000000D03*
G04 #@! TD*
G04 #@! TO.C,REF\u002A\u002A*
X12700000Y-18000000D03*
G04 #@! TD*
G04 #@! TO.C,REF\u002A\u002A*
X22300000Y-22000000D03*
G04 #@! TD*
G04 #@! TO.C,REF\u002A\u002A*
X9800000Y-383250000D03*
G04 #@! TD*
G04 #@! TO.C,REF\u002A\u002A*
X22300000Y-215500000D03*
G04 #@! TD*
G04 #@! TO.C,REF\u002A\u002A*
X12700000Y-90500000D03*
G04 #@! TD*
G04 #@! TO.C,REF\u002A\u002A*
X12700000Y-444000000D03*
G04 #@! TD*
D12*
G04 #@! TO.C,REF\u002A\u002A*
X20996955Y-182145954D03*
X17899652Y-182016681D03*
G04 #@! TD*
D11*
G04 #@! TO.C,REF\u002A\u002A*
X12700000Y-443000000D03*
G04 #@! TD*
G04 #@! TO.C,REF\u002A\u002A*
X37700000Y-553000000D03*
G04 #@! TD*
G04 #@! TO.C,REF\u002A\u002A*
X22300000Y-516000000D03*
G04 #@! TD*
G04 #@! TO.C,REF\u002A\u002A*
X47300000Y-16000000D03*
G04 #@! TD*
G04 #@! TO.C,REF\u002A\u002A*
X50200000Y-92500000D03*
G04 #@! TD*
G04 #@! TO.C,REF\u002A\u002A*
X25200000Y-89500000D03*
G04 #@! TD*
G04 #@! TO.C,REF\u002A\u002A*
X12700000Y-312750000D03*
G04 #@! TD*
G04 #@! TO.C,REF\u002A\u002A*
X22300000Y-441000000D03*
G04 #@! TD*
G04 #@! TO.C,REF\u002A\u002A*
X25200000Y-516000000D03*
G04 #@! TD*
G04 #@! TO.C,REF\u002A\u002A*
X9800000Y-19000000D03*
G04 #@! TD*
G04 #@! TO.C,REF\u002A\u002A*
X12700000Y-209500000D03*
G04 #@! TD*
G04 #@! TO.C,REF\u002A\u002A*
X34800000Y-313750000D03*
G04 #@! TD*
G04 #@! TO.C,REF\u002A\u002A*
X50200000Y-207500000D03*
G04 #@! TD*
G04 #@! TO.C,REF\u002A\u002A*
X12700000Y-311750000D03*
G04 #@! TD*
G04 #@! TO.C,REF\u002A\u002A*
X37700000Y-12000000D03*
G04 #@! TD*
G04 #@! TO.C,REF\u002A\u002A*
X25200000Y-16000000D03*
G04 #@! TD*
G04 #@! TO.C,REF\u002A\u002A*
X25200000Y-448000000D03*
G04 #@! TD*
G04 #@! TO.C,REF\u002A\u002A*
X34800000Y-520000000D03*
G04 #@! TD*
D12*
G04 #@! TO.C,REF\u002A\u002A*
X33431190Y-37690603D03*
X30392136Y-37078926D03*
G04 #@! TD*
D11*
G04 #@! TO.C,REF\u002A\u002A*
X9800000Y-555000000D03*
G04 #@! TD*
G04 #@! TO.C,REF\u002A\u002A*
X47300000Y-18000000D03*
G04 #@! TD*
G04 #@! TO.C,REF\u002A\u002A*
X50200000Y-13000000D03*
G04 #@! TD*
G04 #@! TO.C,REF\u002A\u002A*
X25200000Y-313750000D03*
G04 #@! TD*
G04 #@! TO.C,REF\u002A\u002A*
X25200000Y-310750000D03*
G04 #@! TD*
G04 #@! TO.C,REF\u002A\u002A*
X50200000Y-377250000D03*
G04 #@! TD*
G04 #@! TO.C,REF\u002A\u002A*
X34800000Y-159250000D03*
G04 #@! TD*
G04 #@! TO.C,REF\u002A\u002A*
X50200000Y-310750000D03*
G04 #@! TD*
G04 #@! TO.C,REF\u002A\u002A*
X12700000Y-447000000D03*
G04 #@! TD*
G04 #@! TO.C,REF\u002A\u002A*
X47300000Y-214500000D03*
G04 #@! TD*
G04 #@! TO.C,REF\u002A\u002A*
X37700000Y-160250000D03*
G04 #@! TD*
G04 #@! TO.C,REF\u002A\u002A*
X34800000Y-376250000D03*
G04 #@! TD*
G04 #@! TO.C,REF\u002A\u002A*
X47300000Y-514000000D03*
G04 #@! TD*
G04 #@! TO.C,REF\u002A\u002A*
X37700000Y-271000000D03*
G04 #@! TD*
G04 #@! TO.C,REF\u002A\u002A*
X9800000Y-18000000D03*
G04 #@! TD*
G04 #@! TO.C,REF\u002A\u002A*
X50200000Y-385250000D03*
G04 #@! TD*
G04 #@! TO.C,REF\u002A\u002A*
X22300000Y-317750000D03*
G04 #@! TD*
G04 #@! TO.C,REF\u002A\u002A*
X34800000Y-310750000D03*
G04 #@! TD*
D12*
G04 #@! TO.C,REF\u002A\u002A*
X14084558Y-172764694D03*
X17109664Y-172087394D03*
G04 #@! TD*
D11*
G04 #@! TO.C,REF\u002A\u002A*
X47300000Y-310750000D03*
G04 #@! TD*
G04 #@! TO.C,REF\u002A\u002A*
X34800000Y-20000000D03*
G04 #@! TD*
G04 #@! TO.C,REF\u002A\u002A*
X22300000Y-159250000D03*
G04 #@! TD*
D12*
G04 #@! TO.C,REF\u002A\u002A*
X20931190Y-37690603D03*
X17892136Y-37078926D03*
G04 #@! TD*
D11*
G04 #@! TO.C,REF\u002A\u002A*
X22300000Y-443000000D03*
G04 #@! TD*
G04 #@! TO.C,REF\u002A\u002A*
X34800000Y-208500000D03*
G04 #@! TD*
G04 #@! TO.C,REF\u002A\u002A*
X47300000Y-382250000D03*
G04 #@! TD*
G04 #@! TO.C,REF\u002A\u002A*
X25200000Y-378250000D03*
G04 #@! TD*
G04 #@! TO.C,REF\u002A\u002A*
X50200000Y-443000000D03*
G04 #@! TD*
G04 #@! TO.C,REF\u002A\u002A*
X34800000Y-98500000D03*
G04 #@! TD*
D12*
G04 #@! TO.C,REF\u002A\u002A*
X33496955Y-182145954D03*
X30399652Y-182016681D03*
G04 #@! TD*
D11*
G04 #@! TO.C,REF\u002A\u002A*
X47300000Y-15000000D03*
G04 #@! TD*
G04 #@! TO.C,REF\u002A\u002A*
X47300000Y-308750000D03*
G04 #@! TD*
G04 #@! TO.C,REF\u002A\u002A*
X25200000Y-316750000D03*
G04 #@! TD*
G04 #@! TO.C,REF\u002A\u002A*
X37700000Y-154250000D03*
G04 #@! TD*
G04 #@! TO.C,REF\u002A\u002A*
X47300000Y-89500000D03*
G04 #@! TD*
G04 #@! TO.C,REF\u002A\u002A*
X9800000Y-207500000D03*
G04 #@! TD*
G04 #@! TO.C,REF\u002A\u002A*
X9800000Y-151250000D03*
G04 #@! TD*
G04 #@! TO.C,REF\u002A\u002A*
X34800000Y-11000000D03*
G04 #@! TD*
G04 #@! TO.C,REF\u002A\u002A*
X22300000Y-15000000D03*
G04 #@! TD*
G04 #@! TO.C,REF\u002A\u002A*
X37700000Y-91500000D03*
G04 #@! TD*
D12*
G04 #@! TO.C,REF\u002A\u002A*
X26506983Y-47220986D03*
X29600798Y-47025256D03*
G04 #@! TD*
D11*
G04 #@! TO.C,REF\u002A\u002A*
X37700000Y-318750000D03*
G04 #@! TD*
G04 #@! TO.C,REF\u002A\u002A*
X22300000Y-17000000D03*
G04 #@! TD*
G04 #@! TO.C,REF\u002A\u002A*
X37700000Y-559000000D03*
G04 #@! TD*
G04 #@! TO.C,REF\u002A\u002A*
X47300000Y-316750000D03*
G04 #@! TD*
G04 #@! TO.C,REF\u002A\u002A*
X47300000Y-318750000D03*
G04 #@! TD*
G04 #@! TO.C,REF\u002A\u002A*
X12700000Y-14000000D03*
G04 #@! TD*
G04 #@! TO.C,REF\u002A\u002A*
X9800000Y-91500000D03*
G04 #@! TD*
G04 #@! TO.C,REF\u002A\u002A*
X12700000Y-273000000D03*
G04 #@! TD*
G04 #@! TO.C,REF\u002A\u002A*
X50200000Y-96500000D03*
G04 #@! TD*
G04 #@! TO.C,REF\u002A\u002A*
X50200000Y-161250000D03*
G04 #@! TD*
G04 #@! TO.C,REF\u002A\u002A*
X50200000Y-273000000D03*
G04 #@! TD*
G04 #@! TO.C,REF\u002A\u002A*
X22300000Y-383250000D03*
G04 #@! TD*
G04 #@! TO.C,REF\u002A\u002A*
X34800000Y-309750000D03*
G04 #@! TD*
G04 #@! TO.C,REF\u002A\u002A*
X37700000Y-554000000D03*
G04 #@! TD*
G04 #@! TO.C,REF\u002A\u002A*
X9800000Y-554000000D03*
G04 #@! TD*
G04 #@! TO.C,REF\u002A\u002A*
X37700000Y-556000000D03*
G04 #@! TD*
G04 #@! TO.C,REF\u002A\u002A*
X12700000Y-92500000D03*
G04 #@! TD*
G04 #@! TO.C,REF\u002A\u002A*
X50200000Y-449000000D03*
G04 #@! TD*
G04 #@! TO.C,REF\u002A\u002A*
X22300000Y-314750000D03*
G04 #@! TD*
G04 #@! TO.C,REF\u002A\u002A*
X47300000Y-158250000D03*
G04 #@! TD*
G04 #@! TO.C,REF\u002A\u002A*
X9800000Y-156250000D03*
G04 #@! TD*
G04 #@! TO.C,REF\u002A\u002A*
X37700000Y-100500000D03*
G04 #@! TD*
G04 #@! TO.C,REF\u002A\u002A*
X37700000Y-11000000D03*
G04 #@! TD*
G04 #@! TO.C,REF\u002A\u002A*
X12700000Y-308750000D03*
G04 #@! TD*
G04 #@! TO.C,REF\u002A\u002A*
X12700000Y-96500000D03*
G04 #@! TD*
G04 #@! TO.C,REF\u002A\u002A*
X34800000Y-155250000D03*
G04 #@! TD*
G04 #@! TO.C,REF\u002A\u002A*
X12700000Y-99500000D03*
G04 #@! TD*
G04 #@! TO.C,REF\u002A\u002A*
X25200000Y-385250000D03*
G04 #@! TD*
G04 #@! TO.C,REF\u002A\u002A*
X50200000Y-216500000D03*
G04 #@! TD*
G04 #@! TO.C,REF\u002A\u002A*
X12700000Y-379250000D03*
G04 #@! TD*
G04 #@! TO.C,REF\u002A\u002A*
X9800000Y-216500000D03*
G04 #@! TD*
G04 #@! TO.C,REF\u002A\u002A*
X50200000Y-312750000D03*
G04 #@! TD*
G04 #@! TO.C,REF\u002A\u002A*
X47300000Y-209500000D03*
G04 #@! TD*
G04 #@! TO.C,REF\u002A\u002A*
X47300000Y-446000000D03*
G04 #@! TD*
G04 #@! TO.C,REF\u002A\u002A*
X9800000Y-451000000D03*
G04 #@! TD*
G04 #@! TO.C,REF\u002A\u002A*
X9800000Y-210500000D03*
G04 #@! TD*
G04 #@! TO.C,REF\u002A\u002A*
X34800000Y-268000000D03*
G04 #@! TD*
G04 #@! TO.C,REF\u002A\u002A*
X25200000Y-315750000D03*
G04 #@! TD*
G04 #@! TO.C,REF\u002A\u002A*
X25200000Y-155250000D03*
G04 #@! TD*
D12*
G04 #@! TO.C,REF\u002A\u002A*
X58496955Y-182145954D03*
X55399652Y-182016681D03*
G04 #@! TD*
D11*
G04 #@! TO.C,REF\u002A\u002A*
X22300000Y-95500000D03*
G04 #@! TD*
G04 #@! TO.C,REF\u002A\u002A*
X9800000Y-161250000D03*
G04 #@! TD*
G04 #@! TO.C,REF\u002A\u002A*
X50200000Y-380250000D03*
G04 #@! TD*
G04 #@! TO.C,REF\u002A\u002A*
X22300000Y-557000000D03*
G04 #@! TD*
G04 #@! TO.C,REF\u002A\u002A*
X12700000Y-556000000D03*
G04 #@! TD*
G04 #@! TO.C,REF\u002A\u002A*
X9800000Y-159250000D03*
G04 #@! TD*
G04 #@! TO.C,REF\u002A\u002A*
X34800000Y-96500000D03*
G04 #@! TD*
G04 #@! TO.C,REF\u002A\u002A*
X50200000Y-516000000D03*
G04 #@! TD*
G04 #@! TO.C,REF\u002A\u002A*
X50200000Y-11000000D03*
G04 #@! TD*
G04 #@! TO.C,REF\u002A\u002A*
X25200000Y-157250000D03*
G04 #@! TD*
G04 #@! TO.C,REF\u002A\u002A*
X25200000Y-22000000D03*
G04 #@! TD*
G04 #@! TO.C,REF\u002A\u002A*
X34800000Y-21000000D03*
G04 #@! TD*
G04 #@! TO.C,REF\u002A\u002A*
X25200000Y-555000000D03*
G04 #@! TD*
G04 #@! TO.C,REF\u002A\u002A*
X12700000Y-383250000D03*
G04 #@! TD*
G04 #@! TO.C,REF\u002A\u002A*
X9800000Y-263000000D03*
G04 #@! TD*
G04 #@! TO.C,REF\u002A\u002A*
X37700000Y-386250000D03*
G04 #@! TD*
G04 #@! TO.C,REF\u002A\u002A*
X37700000Y-93500000D03*
G04 #@! TD*
G04 #@! TO.C,REF\u002A\u002A*
X25200000Y-96500000D03*
G04 #@! TD*
G04 #@! TO.C,REF\u002A\u002A*
X12700000Y-516000000D03*
G04 #@! TD*
G04 #@! TO.C,REF\u002A\u002A*
X47300000Y-314750000D03*
G04 #@! TD*
G04 #@! TO.C,REF\u002A\u002A*
X12700000Y-93500000D03*
G04 #@! TD*
G04 #@! TO.C,REF\u002A\u002A*
X22300000Y-18000000D03*
G04 #@! TD*
G04 #@! TO.C,REF\u002A\u002A*
X25200000Y-444000000D03*
G04 #@! TD*
G04 #@! TO.C,REF\u002A\u002A*
X47300000Y-20000000D03*
G04 #@! TD*
G04 #@! TO.C,REF\u002A\u002A*
X9800000Y-447000000D03*
G04 #@! TD*
G04 #@! TO.C,REF\u002A\u002A*
X37700000Y-21000000D03*
G04 #@! TD*
G04 #@! TO.C,REF\u002A\u002A*
X50200000Y-212500000D03*
G04 #@! TD*
G04 #@! TO.C,REF\u002A\u002A*
X9800000Y-12000000D03*
G04 #@! TD*
G04 #@! TO.C,REF\u002A\u002A*
X12700000Y-315750000D03*
G04 #@! TD*
G04 #@! TO.C,REF\u002A\u002A*
X47300000Y-96500000D03*
G04 #@! TD*
G04 #@! TO.C,REF\u002A\u002A*
X25200000Y-207500000D03*
G04 #@! TD*
G04 #@! TO.C,REF\u002A\u002A*
X22300000Y-382250000D03*
G04 #@! TD*
G04 #@! TO.C,REF\u002A\u002A*
X22300000Y-308750000D03*
G04 #@! TD*
G04 #@! TO.C,REF\u002A\u002A*
X34800000Y-450000000D03*
G04 #@! TD*
G04 #@! TO.C,REF\u002A\u002A*
X25200000Y-446000000D03*
G04 #@! TD*
G04 #@! TO.C,REF\u002A\u002A*
X12700000Y-216500000D03*
G04 #@! TD*
G04 #@! TO.C,REF\u002A\u002A*
X22300000Y-21000000D03*
G04 #@! TD*
G04 #@! TO.C,REF\u002A\u002A*
X47300000Y-159250000D03*
G04 #@! TD*
G04 #@! TO.C,REF\u002A\u002A*
X47300000Y-152250000D03*
G04 #@! TD*
G04 #@! TO.C,REF\u002A\u002A*
X25200000Y-441000000D03*
G04 #@! TD*
G04 #@! TO.C,REF\u002A\u002A*
X47300000Y-556000000D03*
G04 #@! TD*
G04 #@! TO.C,REF\u002A\u002A*
X22300000Y-213500000D03*
G04 #@! TD*
G04 #@! TO.C,REF\u002A\u002A*
X12700000Y-12000000D03*
G04 #@! TD*
G04 #@! TO.C,REF\u002A\u002A*
X50200000Y-99500000D03*
G04 #@! TD*
G04 #@! TO.C,REF\u002A\u002A*
X9800000Y-89500000D03*
G04 #@! TD*
G04 #@! TO.C,REF\u002A\u002A*
X37700000Y-444000000D03*
G04 #@! TD*
G04 #@! TO.C,REF\u002A\u002A*
X34800000Y-556000000D03*
G04 #@! TD*
G04 #@! TO.C,REF\u002A\u002A*
X25200000Y-151250000D03*
G04 #@! TD*
G04 #@! TO.C,REF\u002A\u002A*
X9800000Y-264000000D03*
G04 #@! TD*
G04 #@! TO.C,REF\u002A\u002A*
X12700000Y-150250000D03*
G04 #@! TD*
G04 #@! TO.C,REF\u002A\u002A*
X37700000Y-449000000D03*
G04 #@! TD*
G04 #@! TO.C,REF\u002A\u002A*
X50200000Y-155250000D03*
G04 #@! TD*
G04 #@! TO.C,REF\u002A\u002A*
X25200000Y-156250000D03*
G04 #@! TD*
G04 #@! TO.C,REF\u002A\u002A*
X9800000Y-16000000D03*
G04 #@! TD*
G04 #@! TO.C,REF\u002A\u002A*
X25200000Y-154250000D03*
G04 #@! TD*
D12*
G04 #@! TO.C,REF\u002A\u002A*
X17100023Y-292004328D03*
X14000205Y-292037873D03*
G04 #@! TD*
D11*
G04 #@! TO.C,REF\u002A\u002A*
X12700000Y-520000000D03*
G04 #@! TD*
G04 #@! TO.C,REF\u002A\u002A*
X12700000Y-263000000D03*
G04 #@! TD*
G04 #@! TO.C,REF\u002A\u002A*
X34800000Y-12000000D03*
G04 #@! TD*
G04 #@! TO.C,REF\u002A\u002A*
X25200000Y-93500000D03*
G04 #@! TD*
G04 #@! TO.C,REF\u002A\u002A*
X9800000Y-311750000D03*
G04 #@! TD*
G04 #@! TO.C,REF\u002A\u002A*
X50200000Y-17000000D03*
G04 #@! TD*
G04 #@! TO.C,REF\u002A\u002A*
X25200000Y-90500000D03*
G04 #@! TD*
G04 #@! TO.C,REF\u002A\u002A*
X12700000Y-16000000D03*
G04 #@! TD*
G04 #@! TO.C,REF\u002A\u002A*
X25200000Y-270000000D03*
G04 #@! TD*
G04 #@! TO.C,REF\u002A\u002A*
X25200000Y-556000000D03*
G04 #@! TD*
G04 #@! TO.C,REF\u002A\u002A*
X34800000Y-271000000D03*
G04 #@! TD*
G04 #@! TO.C,REF\u002A\u002A*
X9800000Y-13000000D03*
G04 #@! TD*
G04 #@! TO.C,REF\u002A\u002A*
X50200000Y-268000000D03*
G04 #@! TD*
G04 #@! TO.C,REF\u002A\u002A*
X34800000Y-444000000D03*
G04 #@! TD*
G04 #@! TO.C,REF\u002A\u002A*
X12700000Y-152250000D03*
G04 #@! TD*
G04 #@! TO.C,REF\u002A\u002A*
X47300000Y-319750000D03*
G04 #@! TD*
G04 #@! TO.C,REF\u002A\u002A*
X25200000Y-95500000D03*
G04 #@! TD*
G04 #@! TO.C,REF\u002A\u002A*
X37700000Y-377250000D03*
G04 #@! TD*
G04 #@! TO.C,REF\u002A\u002A*
X34800000Y-91500000D03*
G04 #@! TD*
G04 #@! TO.C,REF\u002A\u002A*
X9800000Y-318750000D03*
G04 #@! TD*
G04 #@! TO.C,REF\u002A\u002A*
X12700000Y-266000000D03*
G04 #@! TD*
G04 #@! TO.C,REF\u002A\u002A*
X9800000Y-314750000D03*
G04 #@! TD*
G04 #@! TO.C,REF\u002A\u002A*
X34800000Y-97500000D03*
G04 #@! TD*
G04 #@! TO.C,REF\u002A\u002A*
X9800000Y-21000000D03*
G04 #@! TD*
G04 #@! TO.C,REF\u002A\u002A*
X47300000Y-269000000D03*
G04 #@! TD*
G04 #@! TO.C,REF\u002A\u002A*
X34800000Y-317750000D03*
G04 #@! TD*
G04 #@! TO.C,REF\u002A\u002A*
X9800000Y-266000000D03*
G04 #@! TD*
D12*
G04 #@! TO.C,REF\u002A\u002A*
X30387477Y-282099307D03*
X33390421Y-282868935D03*
G04 #@! TD*
D11*
G04 #@! TO.C,REF\u002A\u002A*
X25200000Y-15000000D03*
G04 #@! TD*
G04 #@! TO.C,REF\u002A\u002A*
X22300000Y-16000000D03*
G04 #@! TD*
G04 #@! TO.C,REF\u002A\u002A*
X34800000Y-308750000D03*
G04 #@! TD*
G04 #@! TO.C,REF\u002A\u002A*
X9800000Y-559000000D03*
G04 #@! TD*
G04 #@! TO.C,REF\u002A\u002A*
X50200000Y-263000000D03*
G04 #@! TD*
G04 #@! TO.C,REF\u002A\u002A*
X25200000Y-160250000D03*
G04 #@! TD*
G04 #@! TO.C,REF\u002A\u002A*
X37700000Y-267000000D03*
G04 #@! TD*
G04 #@! TO.C,REF\u002A\u002A*
X12700000Y-94500000D03*
G04 #@! TD*
G04 #@! TO.C,REF\u002A\u002A*
X12700000Y-95500000D03*
G04 #@! TD*
D12*
G04 #@! TO.C,REF\u002A\u002A*
X42100798Y-47025256D03*
X39006983Y-47220986D03*
G04 #@! TD*
D11*
G04 #@! TO.C,REF\u002A\u002A*
X50200000Y-94500000D03*
G04 #@! TD*
G04 #@! TO.C,REF\u002A\u002A*
X22300000Y-210500000D03*
G04 #@! TD*
G04 #@! TO.C,REF\u002A\u002A*
X12700000Y-449000000D03*
G04 #@! TD*
G04 #@! TO.C,REF\u002A\u002A*
X9800000Y-92500000D03*
G04 #@! TD*
G04 #@! TO.C,REF\u002A\u002A*
X9800000Y-274000000D03*
G04 #@! TD*
G04 #@! TO.C,REF\u002A\u002A*
X47300000Y-218500000D03*
G04 #@! TD*
G04 #@! TO.C,REF\u002A\u002A*
X37700000Y-13000000D03*
G04 #@! TD*
G04 #@! TO.C,REF\u002A\u002A*
X12700000Y-514000000D03*
G04 #@! TD*
G04 #@! TO.C,REF\u002A\u002A*
X22300000Y-272000000D03*
G04 #@! TD*
G04 #@! TO.C,REF\u002A\u002A*
X22300000Y-100500000D03*
G04 #@! TD*
G04 #@! TO.C,REF\u002A\u002A*
X12700000Y-555000000D03*
G04 #@! TD*
G04 #@! TO.C,REF\u002A\u002A*
X34800000Y-383250000D03*
G04 #@! TD*
G04 #@! TO.C,REF\u002A\u002A*
X9800000Y-15000000D03*
G04 #@! TD*
G04 #@! TO.C,REF\u002A\u002A*
X37700000Y-158250000D03*
G04 #@! TD*
G04 #@! TO.C,REF\u002A\u002A*
X37700000Y-92500000D03*
G04 #@! TD*
G04 #@! TO.C,REF\u002A\u002A*
X22300000Y-263000000D03*
G04 #@! TD*
G04 #@! TO.C,REF\u002A\u002A*
X12700000Y-212500000D03*
G04 #@! TD*
G04 #@! TO.C,REF\u002A\u002A*
X37700000Y-317750000D03*
G04 #@! TD*
G04 #@! TO.C,REF\u002A\u002A*
X37700000Y-270000000D03*
G04 #@! TD*
G04 #@! TO.C,REF\u002A\u002A*
X9800000Y-94500000D03*
G04 #@! TD*
D12*
G04 #@! TO.C,REF\u002A\u002A*
X45890421Y-282868935D03*
X42887477Y-282099307D03*
G04 #@! TD*
D11*
G04 #@! TO.C,REF\u002A\u002A*
X25200000Y-386250000D03*
G04 #@! TD*
G04 #@! TO.C,REF\u002A\u002A*
X9800000Y-377250000D03*
G04 #@! TD*
G04 #@! TO.C,REF\u002A\u002A*
X50200000Y-100500000D03*
G04 #@! TD*
G04 #@! TO.C,REF\u002A\u002A*
X22300000Y-449000000D03*
G04 #@! TD*
G04 #@! TO.C,REF\u002A\u002A*
X12700000Y-448000000D03*
G04 #@! TD*
G04 #@! TO.C,REF\u002A\u002A*
X50200000Y-555000000D03*
G04 #@! TD*
G04 #@! TO.C,REF\u002A\u002A*
X22300000Y-273000000D03*
G04 #@! TD*
G04 #@! TO.C,REF\u002A\u002A*
X47300000Y-17000000D03*
G04 #@! TD*
G04 #@! TO.C,REF\u002A\u002A*
X50200000Y-383250000D03*
G04 #@! TD*
G04 #@! TO.C,REF\u002A\u002A*
X12700000Y-377250000D03*
G04 #@! TD*
G04 #@! TO.C,REF\u002A\u002A*
X50200000Y-157250000D03*
G04 #@! TD*
G04 #@! TO.C,REF\u002A\u002A*
X9800000Y-378250000D03*
G04 #@! TD*
G04 #@! TO.C,REF\u002A\u002A*
X50200000Y-274000000D03*
G04 #@! TD*
G04 #@! TO.C,REF\u002A\u002A*
X37700000Y-214500000D03*
G04 #@! TD*
G04 #@! TO.C,REF\u002A\u002A*
X22300000Y-514000000D03*
G04 #@! TD*
G04 #@! TO.C,REF\u002A\u002A*
X47300000Y-519000000D03*
G04 #@! TD*
G04 #@! TO.C,REF\u002A\u002A*
X9800000Y-382250000D03*
G04 #@! TD*
G04 #@! TO.C,REF\u002A\u002A*
X34800000Y-207500000D03*
G04 #@! TD*
G04 #@! TO.C,REF\u002A\u002A*
X34800000Y-154250000D03*
G04 #@! TD*
G04 #@! TO.C,REF\u002A\u002A*
X34800000Y-215500000D03*
G04 #@! TD*
G04 #@! TO.C,REF\u002A\u002A*
X50200000Y-19000000D03*
G04 #@! TD*
G04 #@! TO.C,REF\u002A\u002A*
X47300000Y-268000000D03*
G04 #@! TD*
G04 #@! TO.C,REF\u002A\u002A*
X22300000Y-316750000D03*
G04 #@! TD*
G04 #@! TO.C,REF\u002A\u002A*
X9800000Y-272000000D03*
G04 #@! TD*
G04 #@! TO.C,REF\u002A\u002A*
X47300000Y-554000000D03*
G04 #@! TD*
G04 #@! TO.C,REF\u002A\u002A*
X22300000Y-152250000D03*
G04 #@! TD*
G04 #@! TO.C,REF\u002A\u002A*
X47300000Y-91500000D03*
G04 #@! TD*
G04 #@! TO.C,REF\u002A\u002A*
X22300000Y-310750000D03*
G04 #@! TD*
G04 #@! TO.C,REF\u002A\u002A*
X9800000Y-96500000D03*
G04 #@! TD*
G04 #@! TO.C,REF\u002A\u002A*
X50200000Y-554000000D03*
G04 #@! TD*
G04 #@! TO.C,REF\u002A\u002A*
X9800000Y-312750000D03*
G04 #@! TD*
G04 #@! TO.C,REF\u002A\u002A*
X37700000Y-313750000D03*
G04 #@! TD*
G04 #@! TO.C,REF\u002A\u002A*
X50200000Y-382250000D03*
G04 #@! TD*
G04 #@! TO.C,REF\u002A\u002A*
X37700000Y-97500000D03*
G04 #@! TD*
G04 #@! TO.C,REF\u002A\u002A*
X22300000Y-155250000D03*
G04 #@! TD*
G04 #@! TO.C,REF\u002A\u002A*
X9800000Y-160250000D03*
G04 #@! TD*
G04 #@! TO.C,REF\u002A\u002A*
X47300000Y-161250000D03*
G04 #@! TD*
G04 #@! TO.C,REF\u002A\u002A*
X22300000Y-89500000D03*
G04 #@! TD*
G04 #@! TO.C,REF\u002A\u002A*
X25200000Y-216500000D03*
G04 #@! TD*
G04 #@! TO.C,REF\u002A\u002A*
X47300000Y-217500000D03*
G04 #@! TD*
G04 #@! TO.C,REF\u002A\u002A*
X25200000Y-20000000D03*
G04 #@! TD*
G04 #@! TO.C,REF\u002A\u002A*
X12700000Y-208500000D03*
G04 #@! TD*
G04 #@! TO.C,REF\u002A\u002A*
X37700000Y-207500000D03*
G04 #@! TD*
G04 #@! TO.C,REF\u002A\u002A*
X22300000Y-448000000D03*
G04 #@! TD*
G04 #@! TO.C,REF\u002A\u002A*
X37700000Y-269000000D03*
G04 #@! TD*
G04 #@! TO.C,REF\u002A\u002A*
X37700000Y-316750000D03*
G04 #@! TD*
G04 #@! TO.C,REF\u002A\u002A*
X47300000Y-97500000D03*
G04 #@! TD*
G04 #@! TO.C,REF\u002A\u002A*
X25200000Y-99500000D03*
G04 #@! TD*
G04 #@! TO.C,REF\u002A\u002A*
X25200000Y-517000000D03*
G04 #@! TD*
G04 #@! TO.C,REF\u002A\u002A*
X12700000Y-440000000D03*
G04 #@! TD*
G04 #@! TO.C,REF\u002A\u002A*
X12700000Y-160250000D03*
G04 #@! TD*
G04 #@! TO.C,REF\u002A\u002A*
X37700000Y-558000000D03*
G04 #@! TD*
G04 #@! TO.C,REF\u002A\u002A*
X22300000Y-216500000D03*
G04 #@! TD*
G04 #@! TO.C,REF\u002A\u002A*
X12700000Y-157250000D03*
G04 #@! TD*
G04 #@! TO.C,REF\u002A\u002A*
X34800000Y-386250000D03*
G04 #@! TD*
G04 #@! TO.C,REF\u002A\u002A*
X22300000Y-384250000D03*
G04 #@! TD*
G04 #@! TO.C,REF\u002A\u002A*
X25200000Y-442000000D03*
G04 #@! TD*
G04 #@! TO.C,REF\u002A\u002A*
X34800000Y-158250000D03*
G04 #@! TD*
G04 #@! TO.C,REF\u002A\u002A*
X12700000Y-316750000D03*
G04 #@! TD*
G04 #@! TO.C,REF\u002A\u002A*
X37700000Y-155250000D03*
G04 #@! TD*
G04 #@! TO.C,REF\u002A\u002A*
X50200000Y-265000000D03*
G04 #@! TD*
G04 #@! TO.C,REF\u002A\u002A*
X9800000Y-387250000D03*
G04 #@! TD*
G04 #@! TO.C,REF\u002A\u002A*
X25200000Y-445000000D03*
G04 #@! TD*
G04 #@! TO.C,REF\u002A\u002A*
X34800000Y-210500000D03*
G04 #@! TD*
G04 #@! TO.C,REF\u002A\u002A*
X22300000Y-378250000D03*
G04 #@! TD*
G04 #@! TO.C,REF\u002A\u002A*
X50200000Y-16000000D03*
G04 #@! TD*
G04 #@! TO.C,REF\u002A\u002A*
X22300000Y-446000000D03*
G04 #@! TD*
G04 #@! TO.C,REF\u002A\u002A*
X34800000Y-318750000D03*
G04 #@! TD*
G04 #@! TO.C,REF\u002A\u002A*
X47300000Y-273000000D03*
G04 #@! TD*
G04 #@! TO.C,REF\u002A\u002A*
X22300000Y-218500000D03*
G04 #@! TD*
G04 #@! TO.C,REF\u002A\u002A*
X34800000Y-270000000D03*
G04 #@! TD*
G04 #@! TO.C,REF\u002A\u002A*
X37700000Y-376250000D03*
G04 #@! TD*
G04 #@! TO.C,REF\u002A\u002A*
X34800000Y-272000000D03*
G04 #@! TD*
G04 #@! TO.C,REF\u002A\u002A*
X22300000Y-207500000D03*
G04 #@! TD*
G04 #@! TO.C,REF\u002A\u002A*
X22300000Y-442000000D03*
G04 #@! TD*
G04 #@! TO.C,REF\u002A\u002A*
X50200000Y-376250000D03*
G04 #@! TD*
G04 #@! TO.C,REF\u002A\u002A*
X12700000Y-218500000D03*
G04 #@! TD*
G04 #@! TO.C,REF\u002A\u002A*
X47300000Y-267000000D03*
G04 #@! TD*
G04 #@! TO.C,REF\u002A\u002A*
X47300000Y-13000000D03*
G04 #@! TD*
G04 #@! TO.C,REF\u002A\u002A*
X34800000Y-555000000D03*
G04 #@! TD*
G04 #@! TO.C,REF\u002A\u002A*
X25200000Y-100500000D03*
G04 #@! TD*
G04 #@! TO.C,REF\u002A\u002A*
X37700000Y-315750000D03*
G04 #@! TD*
G04 #@! TO.C,REF\u002A\u002A*
X22300000Y-520000000D03*
G04 #@! TD*
G04 #@! TO.C,REF\u002A\u002A*
X50200000Y-89500000D03*
G04 #@! TD*
G04 #@! TO.C,REF\u002A\u002A*
X37700000Y-440000000D03*
G04 #@! TD*
G04 #@! TO.C,REF\u002A\u002A*
X34800000Y-316750000D03*
G04 #@! TD*
G04 #@! TO.C,REF\u002A\u002A*
X25200000Y-382250000D03*
G04 #@! TD*
G04 #@! TO.C,REF\u002A\u002A*
X50200000Y-209500000D03*
G04 #@! TD*
G04 #@! TO.C,REF\u002A\u002A*
X9800000Y-519000000D03*
G04 #@! TD*
G04 #@! TO.C,REF\u002A\u002A*
X25200000Y-451000000D03*
G04 #@! TD*
G04 #@! TO.C,REF\u002A\u002A*
X12700000Y-267000000D03*
G04 #@! TD*
G04 #@! TO.C,REF\u002A\u002A*
X34800000Y-94500000D03*
G04 #@! TD*
G04 #@! TO.C,REF\u002A\u002A*
X37700000Y-150250000D03*
G04 #@! TD*
G04 #@! TO.C,REF\u002A\u002A*
X25200000Y-559000000D03*
G04 #@! TD*
G04 #@! TO.C,REF\u002A\u002A*
X9800000Y-520000000D03*
G04 #@! TD*
G04 #@! TO.C,REF\u002A\u002A*
X47300000Y-270000000D03*
G04 #@! TD*
G04 #@! TO.C,REF\u002A\u002A*
X34800000Y-209500000D03*
G04 #@! TD*
G04 #@! TO.C,REF\u002A\u002A*
X9800000Y-214500000D03*
G04 #@! TD*
G04 #@! TO.C,REF\u002A\u002A*
X34800000Y-217500000D03*
G04 #@! TD*
D12*
G04 #@! TO.C,REF\u002A\u002A*
X17887477Y-282099307D03*
X20890421Y-282868935D03*
G04 #@! TD*
D13*
G04 #@! TO.C,H2*
X5250000Y-517000000D03*
G04 #@! TD*
D11*
G04 #@! TO.C,REF\u002A\u002A*
X34800000Y-315750000D03*
G04 #@! TD*
G04 #@! TO.C,REF\u002A\u002A*
X50200000Y-264000000D03*
G04 #@! TD*
G04 #@! TO.C,REF\u002A\u002A*
X50200000Y-22000000D03*
G04 #@! TD*
G04 #@! TO.C,REF\u002A\u002A*
X50200000Y-158250000D03*
G04 #@! TD*
G04 #@! TO.C,REF\u002A\u002A*
X47300000Y-208500000D03*
G04 #@! TD*
G04 #@! TO.C,REF\u002A\u002A*
X34800000Y-90500000D03*
G04 #@! TD*
G04 #@! TO.C,REF\u002A\u002A*
X34800000Y-150250000D03*
G04 #@! TD*
G04 #@! TO.C,REF\u002A\u002A*
X34800000Y-312750000D03*
G04 #@! TD*
G04 #@! TO.C,REF\u002A\u002A*
X34800000Y-13000000D03*
G04 #@! TD*
G04 #@! TO.C,REF\u002A\u002A*
X37700000Y-382250000D03*
G04 #@! TD*
G04 #@! TO.C,REF\u002A\u002A*
X47300000Y-215500000D03*
G04 #@! TD*
D12*
G04 #@! TO.C,REF\u002A\u002A*
X5399652Y-182016681D03*
X8496955Y-182145954D03*
G04 #@! TD*
D11*
G04 #@! TO.C,REF\u002A\u002A*
X25200000Y-271000000D03*
G04 #@! TD*
G04 #@! TO.C,REF\u002A\u002A*
X34800000Y-100500000D03*
G04 #@! TD*
D13*
G04 #@! TO.C,H1*
X42500000Y-556000000D03*
G04 #@! TD*
D11*
G04 #@! TO.C,REF\u002A\u002A*
X50200000Y-442000000D03*
G04 #@! TD*
G04 #@! TO.C,REF\u002A\u002A*
X50200000Y-450000000D03*
G04 #@! TD*
G04 #@! TO.C,REF\u002A\u002A*
X37700000Y-445000000D03*
G04 #@! TD*
G04 #@! TO.C,REF\u002A\u002A*
X9800000Y-212500000D03*
G04 #@! TD*
G04 #@! TO.C,REF\u002A\u002A*
X34800000Y-514000000D03*
G04 #@! TD*
G04 #@! TO.C,REF\u002A\u002A*
X50200000Y-156250000D03*
G04 #@! TD*
G04 #@! TO.C,REF\u002A\u002A*
X37700000Y-450000000D03*
G04 #@! TD*
G04 #@! TO.C,REF\u002A\u002A*
X37700000Y-94500000D03*
G04 #@! TD*
G04 #@! TO.C,REF\u002A\u002A*
X34800000Y-14000000D03*
G04 #@! TD*
G04 #@! TO.C,REF\u002A\u002A*
X12700000Y-386250000D03*
G04 #@! TD*
G04 #@! TO.C,REF\u002A\u002A*
X50200000Y-384250000D03*
G04 #@! TD*
G04 #@! TO.C,REF\u002A\u002A*
X22300000Y-90500000D03*
G04 #@! TD*
G04 #@! TO.C,REF\u002A\u002A*
X34800000Y-216500000D03*
G04 #@! TD*
G04 #@! TO.C,REF\u002A\u002A*
X25200000Y-13000000D03*
G04 #@! TD*
G04 #@! TO.C,REF\u002A\u002A*
X50200000Y-15000000D03*
G04 #@! TD*
G04 #@! TO.C,REF\u002A\u002A*
X47300000Y-449000000D03*
G04 #@! TD*
G04 #@! TO.C,REF\u002A\u002A*
X22300000Y-96500000D03*
G04 #@! TD*
G04 #@! TO.C,REF\u002A\u002A*
X47300000Y-272000000D03*
G04 #@! TD*
G04 #@! TO.C,REF\u002A\u002A*
X50200000Y-559000000D03*
G04 #@! TD*
D13*
G04 #@! TO.C,H2*
X17750000Y-517000000D03*
G04 #@! TD*
D11*
G04 #@! TO.C,REF\u002A\u002A*
X37700000Y-89500000D03*
G04 #@! TD*
G04 #@! TO.C,REF\u002A\u002A*
X47300000Y-14000000D03*
G04 #@! TD*
G04 #@! TO.C,REF\u002A\u002A*
X9800000Y-93500000D03*
G04 #@! TD*
G04 #@! TO.C,REF\u002A\u002A*
X34800000Y-263000000D03*
G04 #@! TD*
G04 #@! TO.C,REF\u002A\u002A*
X12700000Y-161250000D03*
G04 #@! TD*
G04 #@! TO.C,REF\u002A\u002A*
X37700000Y-264000000D03*
G04 #@! TD*
G04 #@! TO.C,REF\u002A\u002A*
X9800000Y-449000000D03*
G04 #@! TD*
G04 #@! TO.C,REF\u002A\u002A*
X47300000Y-207500000D03*
G04 #@! TD*
G04 #@! TO.C,REF\u002A\u002A*
X22300000Y-269000000D03*
G04 #@! TD*
G04 #@! TO.C,REF\u002A\u002A*
X9800000Y-218500000D03*
G04 #@! TD*
G04 #@! TO.C,REF\u002A\u002A*
X22300000Y-313750000D03*
G04 #@! TD*
G04 #@! TO.C,REF\u002A\u002A*
X22300000Y-208500000D03*
G04 #@! TD*
G04 #@! TO.C,REF\u002A\u002A*
X22300000Y-98500000D03*
G04 #@! TD*
G04 #@! TO.C,REF\u002A\u002A*
X25200000Y-161250000D03*
G04 #@! TD*
G04 #@! TO.C,REF\u002A\u002A*
X34800000Y-377250000D03*
G04 #@! TD*
D12*
G04 #@! TO.C,REF\u002A\u002A*
X1506983Y-47220986D03*
X4600798Y-47025256D03*
G04 #@! TD*
D11*
G04 #@! TO.C,REF\u002A\u002A*
X22300000Y-13000000D03*
G04 #@! TD*
G04 #@! TO.C,REF\u002A\u002A*
X9800000Y-209500000D03*
G04 #@! TD*
G04 #@! TO.C,REF\u002A\u002A*
X50200000Y-18000000D03*
G04 #@! TD*
G04 #@! TO.C,REF\u002A\u002A*
X37700000Y-159250000D03*
G04 #@! TD*
G04 #@! TO.C,REF\u002A\u002A*
X9800000Y-158250000D03*
G04 #@! TD*
G04 #@! TO.C,REF\u002A\u002A*
X47300000Y-265000000D03*
G04 #@! TD*
G04 #@! TO.C,REF\u002A\u002A*
X50200000Y-317750000D03*
G04 #@! TD*
G04 #@! TO.C,REF\u002A\u002A*
X12700000Y-210500000D03*
G04 #@! TD*
G04 #@! TO.C,REF\u002A\u002A*
X9800000Y-273000000D03*
G04 #@! TD*
D14*
G04 #@! TO.C,J2*
X18750000Y-533250000D03*
D15*
X16210000Y-533250000D03*
X18750000Y-535790000D03*
X16210000Y-535790000D03*
X18750000Y-538330000D03*
X16210000Y-538330000D03*
X18750000Y-540870000D03*
X16210000Y-540870000D03*
G04 #@! TD*
D16*
G04 #@! TO.C,J1*
X20500000Y-561000000D03*
D17*
X20500000Y-563000000D03*
X18500000Y-561000000D03*
X18500000Y-563000000D03*
X16500000Y-561000000D03*
X16500000Y-563000000D03*
X14500000Y-561000000D03*
X14500000Y-563000000D03*
G04 #@! TD*
D14*
G04 #@! TO.C,J2*
X31250000Y-533250000D03*
D15*
X28710000Y-533250000D03*
X31250000Y-535790000D03*
X28710000Y-535790000D03*
X31250000Y-538330000D03*
X28710000Y-538330000D03*
X31250000Y-540870000D03*
X28710000Y-540870000D03*
G04 #@! TD*
D14*
G04 #@! TO.C,J2*
X56250000Y-533250000D03*
D15*
X53710000Y-533250000D03*
X56250000Y-535790000D03*
X53710000Y-535790000D03*
X56250000Y-538330000D03*
X53710000Y-538330000D03*
X56250000Y-540870000D03*
X53710000Y-540870000D03*
G04 #@! TD*
D14*
G04 #@! TO.C,J2*
X43750000Y-533250000D03*
D15*
X41210000Y-533250000D03*
X43750000Y-535790000D03*
X41210000Y-535790000D03*
X43750000Y-538330000D03*
X41210000Y-538330000D03*
X43750000Y-540870000D03*
X41210000Y-540870000D03*
G04 #@! TD*
D14*
G04 #@! TO.C,J2*
X6250000Y-533250000D03*
D15*
X3710000Y-533250000D03*
X6250000Y-535790000D03*
X3710000Y-535790000D03*
X6250000Y-538330000D03*
X3710000Y-538330000D03*
X6250000Y-540870000D03*
X3710000Y-540870000D03*
G04 #@! TD*
D16*
G04 #@! TO.C,J1*
X8000000Y-561000000D03*
D17*
X8000000Y-563000000D03*
X6000000Y-561000000D03*
X6000000Y-563000000D03*
X4000000Y-561000000D03*
X4000000Y-563000000D03*
X2000000Y-561000000D03*
X2000000Y-563000000D03*
G04 #@! TD*
D16*
G04 #@! TO.C,J1*
X33000000Y-561000000D03*
D17*
X33000000Y-563000000D03*
X31000000Y-561000000D03*
X31000000Y-563000000D03*
X29000000Y-561000000D03*
X29000000Y-563000000D03*
X27000000Y-561000000D03*
X27000000Y-563000000D03*
G04 #@! TD*
D16*
G04 #@! TO.C,J1*
X58000000Y-561000000D03*
D17*
X58000000Y-563000000D03*
X56000000Y-561000000D03*
X56000000Y-563000000D03*
X54000000Y-561000000D03*
X54000000Y-563000000D03*
X52000000Y-561000000D03*
X52000000Y-563000000D03*
G04 #@! TD*
D16*
G04 #@! TO.C,J1*
X45500000Y-561000000D03*
D17*
X45500000Y-563000000D03*
X43500000Y-561000000D03*
X43500000Y-563000000D03*
X41500000Y-561000000D03*
X41500000Y-563000000D03*
X39500000Y-561000000D03*
X39500000Y-563000000D03*
G04 #@! TD*
M02*
