%TF.GenerationSoftware,KiCad,Pcbnew,(6.0.9)*%
%TF.CreationDate,2022-11-25T10:24:15-05:00*%
%TF.ProjectId,strut_2,73747275-745f-4322-9e6b-696361645f70,rev?*%
%TF.SameCoordinates,Original*%
%TF.FileFunction,Legend,Bot*%
%TF.FilePolarity,Positive*%
%FSLAX46Y46*%
G04 Gerber Fmt 4.6, Leading zero omitted, Abs format (unit mm)*
G04 Created by KiCad (PCBNEW (6.0.9)) date 2022-11-25 10:24:15*
%MOMM*%
%LPD*%
G01*
G04 APERTURE LIST*
%ADD10C,0.150000*%
G04 APERTURE END LIST*
D10*
X61119047Y-4952380D02*
X61119047Y-5666666D01*
X61166666Y-5809523D01*
X61261904Y-5904761D01*
X61404761Y-5952380D01*
X61500000Y-5952380D01*
X60166666Y-5952380D02*
X60642857Y-5952380D01*
X60642857Y-4952380D01*
X59261904Y-5857142D02*
X59309523Y-5904761D01*
X59452380Y-5952380D01*
X59547619Y-5952380D01*
X59690476Y-5904761D01*
X59785714Y-5809523D01*
X59833333Y-5714285D01*
X59880952Y-5523809D01*
X59880952Y-5380952D01*
X59833333Y-5190476D01*
X59785714Y-5095238D01*
X59690476Y-5000000D01*
X59547619Y-4952380D01*
X59452380Y-4952380D01*
X59309523Y-5000000D01*
X59261904Y-5047619D01*
X58547619Y-4952380D02*
X58547619Y-5666666D01*
X58595238Y-5809523D01*
X58690476Y-5904761D01*
X58833333Y-5952380D01*
X58928571Y-5952380D01*
X57595238Y-5952380D02*
X58071428Y-5952380D01*
X58071428Y-4952380D01*
X56690476Y-5857142D02*
X56738095Y-5904761D01*
X56880952Y-5952380D01*
X56976190Y-5952380D01*
X57119047Y-5904761D01*
X57214285Y-5809523D01*
X57261904Y-5714285D01*
X57309523Y-5523809D01*
X57309523Y-5380952D01*
X57261904Y-5190476D01*
X57214285Y-5095238D01*
X57119047Y-5000000D01*
X56976190Y-4952380D01*
X56880952Y-4952380D01*
X56738095Y-5000000D01*
X56690476Y-5047619D01*
X55976190Y-4952380D02*
X55976190Y-5666666D01*
X56023809Y-5809523D01*
X56119047Y-5904761D01*
X56261904Y-5952380D01*
X56357142Y-5952380D01*
X55023809Y-5952380D02*
X55500000Y-5952380D01*
X55500000Y-4952380D01*
X54119047Y-5857142D02*
X54166666Y-5904761D01*
X54309523Y-5952380D01*
X54404761Y-5952380D01*
X54547619Y-5904761D01*
X54642857Y-5809523D01*
X54690476Y-5714285D01*
X54738095Y-5523809D01*
X54738095Y-5380952D01*
X54690476Y-5190476D01*
X54642857Y-5095238D01*
X54547619Y-5000000D01*
X54404761Y-4952380D01*
X54309523Y-4952380D01*
X54166666Y-5000000D01*
X54119047Y-5047619D01*
X53404761Y-4952380D02*
X53404761Y-5666666D01*
X53452380Y-5809523D01*
X53547619Y-5904761D01*
X53690476Y-5952380D01*
X53785714Y-5952380D01*
X52452380Y-5952380D02*
X52928571Y-5952380D01*
X52928571Y-4952380D01*
X51547619Y-5857142D02*
X51595238Y-5904761D01*
X51738095Y-5952380D01*
X51833333Y-5952380D01*
X51976190Y-5904761D01*
X52071428Y-5809523D01*
X52119047Y-5714285D01*
X52166666Y-5523809D01*
X52166666Y-5380952D01*
X52119047Y-5190476D01*
X52071428Y-5095238D01*
X51976190Y-5000000D01*
X51833333Y-4952380D01*
X51738095Y-4952380D01*
X51595238Y-5000000D01*
X51547619Y-5047619D01*
M02*
