  0
SECTION
  2
HEADER
  9
$ACADVER
  1
AC1009
  9
$DWGCODEPAGE
  3
ansi_1252
  9
$INSBASE
 10
0.0
 20
0.0
 30
0.0
  9
$EXTMIN
 10
1.000000000000000E+20
 20
1.000000000000000E+20
 30
1.000000000000000E+20
  9
$EXTMAX
 10
-1.000000000000000E+20
 20
-1.000000000000000E+20
 30
-1.000000000000000E+20
  9
$LIMMIN
 10
0.0
 20
0.0
  9
$LIMMAX
 10
12.0
 20
9.0
  9
$ORTHOMODE
 70
     0
  9
$REGENMODE
 70
     1
  9
$FILLMODE
 70
     1
  9
$QTEXTMODE
 70
     0
  9
$MIRRTEXT
 70
     1
  9
$DRAGMODE
 70
     2
  9
$LTSCALE
 40
1.0
  9
$OSMODE
 70
    37
  9
$ATTMODE
 70
     1
  9
$TEXTSIZE
 40
0.2
  9
$TRACEWID
 40
0.05
  9
$TEXTSTYLE
  7
STANDARD
  9
$CLAYER
  8
0
  9
$CELTYPE
  6
BYLAYER
  9
$CECOLOR
 62
   256
  9
$DIMSCALE
 40
1.0
  9
$DIMASZ
 40
0.18
  9
$DIMEXO
 40
0.0625
  9
$DIMDLI
 40
0.38
  9
$DIMRND
 40
0.0
  9
$DIMDLE
 40
0.0
  9
$DIMEXE
 40
0.18
  9
$DIMTP
 40
0.0
  9
$DIMTM
 40
0.0
  9
$DIMTXT
 40
0.18
  9
$DIMCEN
 40
0.09
  9
$DIMTSZ
 40
0.0
  9
$DIMTOL
 70
     0
  9
$DIMLIM
 70
     0
  9
$DIMTIH
 70
     1
  9
$DIMTOH
 70
     1
  9
$DIMSE1
 70
     0
  9
$DIMSE2
 70
     0
  9
$DIMTAD
 70
     0
  9
$DIMZIN
 70
     0
  9
$DIMBLK
  1

  9
$DIMASO
 70
     1
  9
$DIMSHO
 70
     1
  9
$DIMPOST
  1

  9
$DIMAPOST
  1

  9
$DIMALT
 70
     0
  9
$DIMALTD
 70
     2
  9
$DIMALTF
 40
0.0393700787401575
  9
$DIMLFAC
 40
1.0
  9
$DIMTOFL
 70
     0
  9
$DIMTVP
 40
0.0
  9
$DIMTIX
 70
     0
  9
$DIMSOXD
 70
     0
  9
$DIMSAH
 70
     0
  9
$DIMBLK1
  1

  9
$DIMBLK2
  1

  9
$DIMSTYLE
  2
STANDARD
  9
$DIMCLRD
 70
     0
  9
$DIMCLRE
 70
     0
  9
$DIMCLRT
 70
     0
  9
$DIMTFAC
 40
1.0
  9
$DIMGAP
 40
0.09
  9
$LUNITS
 70
     2
  9
$LUPREC
 70
     4
  9
$SKETCHINC
 40
0.1
  9
$FILLETRAD
 40
0.5
  9
$AUNITS
 70
     0
  9
$AUPREC
 70
     0
  9
$MENU
  1
.
  9
$ELEVATION
 40
0.0
  9
$PELEVATION
 40
0.0
  9
$THICKNESS
 40
0.0
  9
$LIMCHECK
 70
     0
  9
$CHAMFERA
 40
0.0
  9
$CHAMFERB
 40
0.0
  9
$SKPOLY
 70
     0
  9
$TDCREATE
 40
2460003.14280912
  9
$TDUPDATE
 40
2460003.142809132
  9
$TDINDWG
 40
0.0000000116
  9
$TDUSRTIMER
 40
0.0000000116
  9
$USRTIMER
 70
     1
  9
$ANGBASE
 50
0.0
  9
$ANGDIR
 70
     0
  9
$PDMODE
 70
     0
  9
$PDSIZE
 40
0.0
  9
$PLINEWID
 40
0.0
  9
$COORDS
 70
     1
  9
$SPLFRAME
 70
     0
  9
$SPLINETYPE
 70
     6
  9
$SPLINESEGS
 70
     8
  9
$ATTDIA
 70
     0
  9
$ATTREQ
 70
     1
  9
$HANDLING
 70
     1
  9
$HANDSEED
  5
10000107
  9
$SURFTAB1
 70
     6
  9
$SURFTAB2
 70
     6
  9
$SURFTYPE
 70
     6
  9
$SURFU
 70
     6
  9
$SURFV
 70
     6
  9
$UCSNAME
  2

  9
$UCSORG
 10
0.0
 20
0.0
 30
0.0
  9
$UCSXDIR
 10
1.0
 20
0.0
 30
0.0
  9
$UCSYDIR
 10
0.0
 20
1.0
 30
0.0
  9
$PUCSNAME
  2

  9
$PUCSORG
 10
0.0
 20
0.0
 30
0.0
  9
$PUCSXDIR
 10
1.0
 20
0.0
 30
0.0
  9
$PUCSYDIR
 10
0.0
 20
1.0
 30
0.0
  9
$USERI1
 70
     0
  9
$USERI2
 70
     0
  9
$USERI3
 70
     0
  9
$USERI4
 70
     0
  9
$USERI5
 70
     0
  9
$USERR1
 40
0.0
  9
$USERR2
 40
0.0
  9
$USERR3
 40
0.0
  9
$USERR4
 40
0.0
  9
$USERR5
 40
0.0
  9
$WORLDVIEW
 70
     1
  9
$SHADEDGE
 70
     3
  9
$SHADEDIF
 70
    70
  9
$TILEMODE
 70
     1
  9
$MAXACTVP
 70
    64
  9
$PLIMCHECK
 70
     0
  9
$PEXTMIN
 10
1.000000000000000E+20
 20
1.000000000000000E+20
 30
1.000000000000000E+20
  9
$PEXTMAX
 10
-1.000000000000000E+20
 20
-1.000000000000000E+20
 30
-1.000000000000000E+20
  9
$PLIMMIN
 10
0.0
 20
0.0
  9
$PLIMMAX
 10
12.0
 20
9.0
  9
$UNITMODE
 70
     0
  9
$VISRETAIN
 70
     1
  9
$PLINEGEN
 70
     0
  9
$PSLTSCALE
 70
     1
  0
ENDSEC
  0
SECTION
  2
TABLES
  0
TABLE
  2
VPORT
 70
     1
  0
VPORT
  2
*ACTIVE
 70
     0
 10
0.0
 20
0.0
 11
1.0
 21
1.0
 12
10.42990654205607
 22
4.5
 13
0.0
 23
0.0
 14
0.5
 24
0.5
 15
0.5
 25
0.5
 16
0.0
 26
0.0
 36
1.0
 17
0.0
 27
0.0
 37
0.0
 40
9.0
 41
1.972972972850329
 42
50.0
 43
0.0
 44
0.0
 50
0.0
 51
0.0
 71
     0
 72
   100
 73
     1
 74
     3
 75
     0
 76
     0
 77
     0
 78
     0
  0
ENDTAB
  0
TABLE
  2
LTYPE
 70
     7
  0
LTYPE
  2
CONTINUOUS
 70
     0
  3
Solid line
 72
    65
 73
     0
 40
0.0
  0
LTYPE
  2
ONS_PHANTOM
 70
     0
  3
Onshape Phantom line ______ __ __ ______
 72
    65
 73
     6
 40
0.4999999999999999
 49
0.25
 49
-0.05
 49
0.05
 49
-0.05
 49
0.05
 49
-0.05
  0
LTYPE
  2
CENTER
 70
     0
  3
Center line ____ _ ____ _ ____ _
 72
    65
 73
     4
 40
0.7199999999999999
 49
0.45
 49
-0.09
 49
0.09
 49
-0.09
  0
LTYPE
  2
DASHED
 70
     0
  3
Dashed line __ __ __ __ __
 72
    65
 73
     2
 40
0.75
 49
0.5
 49
-0.25
  0
LTYPE
  2
ONS_DASHDOT
 70
     0
  3
Onshape Dashed with Dot _ . ____ . ____
 72
    65
 73
     4
 40
0.71
 49
0.5
 49
-0.1
 49
0.01
 49
-0.1
  0
LTYPE
  2
ONS_DOTTED
 70
     0
  3
Onshape Dotted line . . . . . . .
 72
    65
 73
     2
 40
0.11
 49
0.01
 49
-0.1
  0
LTYPE
  2
HIDDEN
 70
     0
  3
Hidden line ____ ____ ____ ____ 
 72
    65
 73
     2
 40
0.15
 49
0.1
 49
-0.05
  0
ENDTAB
  0
TABLE
  2
LAYER
 70
    39
  0
LAYER
  2
0
 70
     0
 62
     7
  6
CONTINUOUS
  0
LAYER
  2
SECTION_CUTTING_LINE
 70
     0
 62
     7
  6
ONS_PHANTOM
  0
LAYER
  2
DETAIL_VIEW_BORDER
 70
     0
 62
     7
  6
CONTINUOUS
  0
LAYER
  2
DETAIL_VIEW_PARENT_BORDER
 70
     0
 62
     7
  6
ONS_PHANTOM
  0
LAYER
  2
TEXT
 70
     0
 62
     7
  6
CONTINUOUS
  0
LAYER
  2
SKETCHED_GEOMETRY
 70
     0
 62
    -7
  6
CONTINUOUS
  0
LAYER
  2
VIRTUAL_SHARPS
 70
     0
 62
    -7
  6
CONTINUOUS
  0
LAYER
  2
CENTERLINES
 70
     0
 62
    -7
  6
CENTER
  0
LAYER
  2
CENTERMARKS
 70
     0
 62
    -7
  6
CONTINUOUS
  0
LAYER
  2
TABLES
 70
     0
 62
     7
  6
CONTINUOUS
  0
LAYER
  2
IMAGES
 70
     0
 62
    -7
  6
CONTINUOUS
  0
LAYER
  2
ANNOTATION_LINES
 70
     0
 62
    -7
  6
CONTINUOUS
  0
LAYER
  2
ANNOTATION_TEXT
 70
     0
 62
    -7
  6
CONTINUOUS
  0
LAYER
  2
SIDE_THREAD_SYMBOLS
 70
     0
 62
     7
  6
HIDDEN
  0
LAYER
  2
SIDE_THREAD_SYMBOLS_HIDDEN
 70
     0
 62
    -7
  6
HIDDEN
  0
LAYER
  2
SURFACE_THREAD_SYMBOLS
 70
     0
 62
     7
  6
HIDDEN
  0
LAYER
  2
SURFACE_THREAD_SYMBOLS_ON_
 70
     0
 62
     7
  6
HIDDEN
  0
LAYER
  2
SURFACE_THREAD_SYMBOLS_HID
 70
     0
 62
    -7
  6
HIDDEN
  0
LAYER
  2
BLIND_THREAD_SYMBOLS
 70
     0
 62
     7
  6
CONTINUOUS
  0
LAYER
  2
BLIND_THREAD_SYMBOLS_HIDDE
 70
     0
 62
    -7
  6
HIDDEN
  0
LAYER
  2
EXPLODE_LINES
 70
     0
 62
     7
  6
ONS_PHANTOM
  0
LAYER
  2
HIDDEN_EXPLODE_LINES
 70
     0
 62
    -7
  6
ONS_PHANTOM
  0
LAYER
  2
BREAK_LINES
 70
     0
 62
    -7
  6
CONTINUOUS
  0
LAYER
  2
SHEETMETAL_BEND_LINES_UP
 70
     0
 62
     7
  6
CENTER
  0
LAYER
  2
SHEETMETAL_BEND_LINES_DOWN
 70
     0
 62
     7
  6
CENTER
  0
LAYER
  2
SHEETMETAL_BEND_TANGENT_LI
 70
     0
 62
     7
  6
CONTINUOUS
  0
LAYER
  2
SHEETMETAL_CUT_LINES
 70
     0
 62
     7
  6
CONTINUOUS
  0
LAYER
  2
REGION_ASSOC_POINTS
 70
     0
 62
    -7
  6
CONTINUOUS
  0
LAYER
  2
HIDDEN
 70
     0
 62
    -7
  6
HIDDEN
  0
LAYER
  2
VISIBLE
 70
     0
 62
     7
  6
CONTINUOUS
  0
LAYER
  2
MODELSKETCH_VISIBLE
 70
     0
 62
     7
  6
CONTINUOUS
  0
LAYER
  2
MODELSKETCH_POINT
 70
     0
 62
     7
  6
CONTINUOUS
  0
LAYER
  2
MODELSKETCH_CONSTRUCTION
 70
     0
 62
    -7
  6
CENTER
  0
LAYER
  2
HIDDEN_BASE_VIEW
 70
     0
 62
     7
  6
CONTINUOUS
  0
LAYER
  2
TANGENT_LINES
 70
     0
 62
    -7
  6
CONTINUOUS
  0
LAYER
  2
TANGENT_HIDDEN
 70
     0
 62
    -7
  6
HIDDEN
  0
LAYER
  2
INVISIBLE_LINES
 70
     0
 62
    -7
  6
CONTINUOUS
  0
LAYER
  2
VIEW_HATCHES
 70
     0
 62
    -7
  6
CONTINUOUS
  0
LAYER
  2
SECTION_JOG_LINES
 70
     0
 62
    -7
  6
CONTINUOUS
  0
ENDTAB
  0
TABLE
  2
STYLE
 70
     2
  0
STYLE
  2
STANDARD
 70
     0
 40
0.0
 41
1.0
 50
0.0
 71
     0
 42
0.2
  3
txt
  4

  0
STYLE
  2
TTFSTYLE
 70
     0
 40
0.0
 41
1.0
 50
0.0
 71
     0
 42
0.2
  3
Verdana.ttf
  4

  0
ENDTAB
  0
TABLE
  2
VIEW
 70
     0
  0
ENDTAB
  0
TABLE
  2
UCS
 70
     0
  0
ENDTAB
  0
TABLE
  2
APPID
 70
     1
  0
APPID
  2
ACAD
 70
     0
  0
ENDTAB
  0
TABLE
  2
DIMSTYLE
 70
     1
  0
DIMSTYLE
  2
STANDARD
 70
     0
  3

  4

  5

  6

  7

 40
1.0
 41
0.18
 42
0.0625
 43
0.38
 44
0.18
 45
0.0
 46
0.0
 47
0.0
 48
0.0
140
0.18
141
0.09
142
0.0
143
25.4
144
1.0
145
0.0
146
1.0
147
0.09
 71
     0
 72
     0
 73
     1
 74
     1
 75
     0
 76
     0
 77
     0
 78
     0
170
     0
171
     2
172
     0
173
     0
174
     0
175
     0
176
     0
177
     0
178
     0
  0
ENDTAB
  0
ENDSEC
  0
SECTION
  2
BLOCKS
  0
BLOCK
  8
0
  2
$MODEL_SPACE
 70
     0
 10
0.0
 20
0.0
 30
0.0
  3
$MODEL_SPACE
  1

  0
ENDBLK
  5
21
  8
0
  0
BLOCK
 67
     1
  8
0
  2
$PAPER_SPACE
 70
     0
 10
0.0
 20
0.0
 30
0.0
  3
$PAPER_SPACE
  1

  0
ENDBLK
  5
1D
 67
     1
  8
0
  0
ENDSEC
  0
SECTION
  2
ENTITIES
  0
LINE
  5
10000050
  8
VISIBLE
 10
-28.05214688869223
 20
570.4330026255082
 30
0.0
 11
-28.29773478342278
 21
575.4269676420017
 31
0.0
  0
ARC
  5
10000053
  8
VISIBLE
 10
-0.0000000001747717
 20
0.000000003571976
 30
0.0
 40
571.1223454088738
 50
92.81536277587963
 51
93.18439951557434
  0
LINE
  5
10000058
  8
VISIBLE
 10
-32.00339329532724
 20
575.2327700167358
 30
0.0
 11
-31.7256450570392
 21
570.2404903855323
 31
0.0
  0
ARC
  5
1000005B
  8
VISIBLE
 10
-0.0000000000008327
 20
0.0000000000088818
 30
0.0
 40
576.122345412441
 50
93.1843995155719
 51
101.8156004844282
  0
LINE
  5
10000060
  8
VISIBLE
 10
-117.9682921345671
 20
563.9152763797019
 30
0.0
 11
-116.9444792841029
 21
559.0212180180531
 31
0.0
  0
ARC
  5
10000063
  8
VISIBLE
 10
0.0000000011958837
 20
-0.0000000056503691
 30
0.0
 40
571.1223454182253
 50
101.8156004844295
 51
102.1843995155696
  0
LINE
  5
10000068
  8
VISIBLE
 10
-120.540315778437
 20
558.25689937649
 30
0.0
 11
-121.5956090684535
 21
563.1442663641477
 31
0.0
  0
ARC
  5
1000006B
  8
VISIBLE
 10
0.0000000005072262
 20
-0.0000000023033797
 30
0.0
 40
576.1223454148084
 50
102.1843995155729
 51
102.9999999999976
  0
LINE
  5
10000070
  8
VISIBLE
 10
-129.599329031591
 20
561.3563670237505
 30
0.0
 11
-122.3176491739664
 21
529.8159463961879
 31
0.0
  0
ARC
  5
10000073
  8
VISIBLE
 10
0.0000000006200387
 20
-0.0000000027520208
 30
0.0
 40
543.752282163672
 50
102.1843995155746
 51
102.9999999999984
  0
LINE
  5
10000078
  8
VISIBLE
 10
-114.7636269590897
 20
531.5033906592964
 30
0.0
 11
-115.8189202491062
 21
536.3907576469541
 31
0.0
  0
ARC
  5
1000007B
  8
VISIBLE
 10
-0.0000000000832528
 20
0.0000000004247713
 30
0.0
 40
548.7522821604183
 50
101.8156004844287
 51
102.1843995155728
  0
LINE
  5
10000080
  8
VISIBLE
 10
-112.3639276395662
 20
537.1251389966334
 30
0.0
 11
-111.340114789102
 21
532.2310806349844
 31
0.0
  0
ARC
  5
10000083
  8
VISIBLE
 10
0.0000000000015057
 20
-0.0000000000100475
 30
0.0
 40
543.7522821608612
 50
93.18439951557207
 51
101.8156004844281
  0
LINE
  5
10000088
  8
VISIBLE
 10
-30.48299592533488
 20
547.9049681615949
 30
0.0
 11
-30.20524768704694
 21
542.9126885303915
 31
0.0
  0
ARC
  5
1000008B
  8
VISIBLE
 10
-0.0000000000170714
 20
0.0000000000627831
 30
0.0
 40
548.7522821607876
 50
92.81536277587806
 51
93.18439951557052
  0
LINE
  5
10000090
  8
VISIBLE
 10
-26.70779564617142
 20
543.0959749499679
 30
0.0
 11
-26.95338354090205
 21
548.0899399664617
 31
0.0
  0
ARC
  5
10000093
  8
VISIBLE
 10
-0.0000000000001197
 20
0.0000000000005274
 30
0.0
 40
543.7522821608505
 50
57.18439951557191
 51
92.81536277587954
  0
LINE
  5
10000098
  8
VISIBLE
 10
294.6795129024956
 20
456.9797906151668
 30
0.0
 11
297.3891982001044
 21
461.181885995798
 31
0.0
  0
ARC
  5
1000009B
  8
VISIBLE
 10
-0.0000000014060697
 20
-0.0000000021999069
 30
0.0
 40
548.7522821634618
 50
56.81560048443098
 51
57.18439951557303
  0
LINE
  5
100000A0
  8
VISIBLE
 10
300.3515329355946
 20
459.258123324978
 30
0.0
 11
297.6148560897792
 21
455.0735564607043
 31
0.0
  0
ARC
  5
100000A3
  8
VISIBLE
 10
-0.0000000000071887
 20
-0.0000000000095202
 30
0.0
 40
543.7522821608629
 50
48.18439951557206
 51
56.81560048442802
  0
LINE
  5
100000A8
  8
VISIBLE
 10
365.872585303177
 20
408.9820515625492
 30
0.0
 11
362.5389081851296
 21
405.2555791189899
 31
0.0
  0
ARC
  5
100000AB
  8
VISIBLE
 10
0.0000000004362066
 20
0.0000000004985734
 30
0.0
 40
548.7522821601887
 50
47.81536277587831
 51
48.18439951557114
  0
LINE
  5
100000B0
  8
VISIBLE
 10
365.1415833102893
 20
402.9121101341939
 30
0.0
 11
368.4991929727191
 21
406.6170335281063
 31
0.0
  0
ARC
  5
100000B3
  8
VISIBLE
 10
0.0000000000477396
 20
0.0000000000568157
 30
0.0
 40
543.752282160777
 50
46.99999999999957
 51
47.81536277587922
  0
LINE
  5
100000B8
  8
VISIBLE
 10
392.9144947666513
 20
421.3492099029134
 30
0.0
 11
370.8381647139415
 21
397.6752443222099
 31
0.0
  0
ARC
  5
100000BB
  8
VISIBLE
 10
-0.0000000002185752
 20
-0.0000000002408906
 30
0.0
 40
576.1223454127752
 50
47.00000000000043
 51
47.81536277587949
  0
LINE
  5
100000C0
  8
VISIBLE
 10
383.5211810772652
 20
423.1929076609358
 30
0.0
 11
386.8787907396948
 21
426.8978310548482
 31
0.0
  0
ARC
  5
100000C3
  8
VISIBLE
 10
-0.0000000060147443
 20
-0.0000000067009176
 30
0.0
 40
571.1223454214543
 50
47.81536277588386
 51
48.18439951557043
  0
LINE
  5
100000C8
  8
VISIBLE
 10
384.1211760194497
 20
429.3808088596615
 30
0.0
 11
380.7874989014024
 21
425.6543364161021
 31
0.0
  0
ARC
  5
100000CB
  8
VISIBLE
 10
-0.0000000000095202
 20
-0.0000000000132394
 30
0.0
 40
576.1223454124662
 50
48.18439951557211
 51
56.81560048442802
  0
LINE
  5
100000D0
  8
VISIBLE
 10
315.3321366094254
 20
482.1644952761214
 30
0.0
 11
312.5954597636101
 21
477.9799284118478
 31
0.0
  0
ARC
  5
100000D3
  8
VISIBLE
 10
-0.0000000014238333
 20
-0.000000002156858
 30
0.0
 40
571.1223454150343
 50
56.81560048442701
 51
57.18439951556916
  0
LINE
  5
100000D8
  8
VISIBLE
 10
309.5123644999915
 20
479.9821138865927
 30
0.0
 11
312.2220497976003
 21
484.1842092672241
 31
0.0
  0
ARC
  5
100000DB
  8
VISIBLE
 10
0.0000000000003834
 20
0.0000000000011935
 30
0.0
 40
576.1223454124487
 50
57.18439951557191
 51
92.81536277587954
  0
CIRCLE
  5
100000E0
  8
VISIBLE
 10
-0.8233539184189999
 20
554.94791041348
 30
0.0
 40
2.5
  0
CIRCLE
  5
100000E5
  8
VISIBLE
 10
0.808780591019
 20
564.83721500194
 30
0.0
 40
2.5
  0
CIRCLE
  5
100000EA
  8
VISIBLE
 10
142.8357894408794
 20
536.251618588479
 30
0.0
 40
2.500000000000022
  0
CIRCLE
  5
100000EF
  8
VISIBLE
 10
146.9718506858364
 20
545.3815257992999
 30
0.0
 40
2.500000000000022
  0
CIRCLE
  5
100000F4
  8
VISIBLE
 10
276.7609097970839
 20
481.0106651543739
 30
0.0
 40
2.500000000000024
  0
CIRCLE
  5
100000F9
  8
VISIBLE
 10
283.1190320388805
 20
488.7589868990232
 30
0.0
 40
2.50000000000001
  0
ENDSEC
  0
EOF
