%TF.GenerationSoftware,KiCad,Pcbnew,(6.0.9)*%
%TF.CreationDate,2022-11-25T10:34:14-05:00*%
%TF.ProjectId,arm,61726d2e-6b69-4636-9164-5f7063625858,rev?*%
%TF.SameCoordinates,Original*%
%TF.FileFunction,Copper,L1,Top*%
%TF.FilePolarity,Positive*%
%FSLAX46Y46*%
G04 Gerber Fmt 4.6, Leading zero omitted, Abs format (unit mm)*
G04 Created by KiCad (PCBNEW (6.0.9)) date 2022-11-25 10:34:14*
%MOMM*%
%LPD*%
G01*
G04 APERTURE LIST*
G04 Aperture macros list*
%AMRoundRect*
0 Rectangle with rounded corners*
0 $1 Rounding radius*
0 $2 $3 $4 $5 $6 $7 $8 $9 X,Y pos of 4 corners*
0 Add a 4 corners polygon primitive as box body*
4,1,4,$2,$3,$4,$5,$6,$7,$8,$9,$2,$3,0*
0 Add four circle primitives for the rounded corners*
1,1,$1+$1,$2,$3*
1,1,$1+$1,$4,$5*
1,1,$1+$1,$6,$7*
1,1,$1+$1,$8,$9*
0 Add four rect primitives between the rounded corners*
20,1,$1+$1,$2,$3,$4,$5,0*
20,1,$1+$1,$4,$5,$6,$7,0*
20,1,$1+$1,$6,$7,$8,$9,0*
20,1,$1+$1,$8,$9,$2,$3,0*%
%AMOutline5P*
0 Free polygon, 5 corners , with rotation*
0 The origin of the aperture is its center*
0 number of corners: always 5*
0 $1 to $10 corner X, Y*
0 $11 Rotation angle, in degrees counterclockwise*
0 create outline with 5 corners*
4,1,5,$1,$2,$3,$4,$5,$6,$7,$8,$9,$10,$1,$2,$11*%
%AMOutline6P*
0 Free polygon, 6 corners , with rotation*
0 The origin of the aperture is its center*
0 number of corners: always 6*
0 $1 to $12 corner X, Y*
0 $13 Rotation angle, in degrees counterclockwise*
0 create outline with 6 corners*
4,1,6,$1,$2,$3,$4,$5,$6,$7,$8,$9,$10,$11,$12,$1,$2,$13*%
%AMOutline7P*
0 Free polygon, 7 corners , with rotation*
0 The origin of the aperture is its center*
0 number of corners: always 7*
0 $1 to $14 corner X, Y*
0 $15 Rotation angle, in degrees counterclockwise*
0 create outline with 7 corners*
4,1,7,$1,$2,$3,$4,$5,$6,$7,$8,$9,$10,$11,$12,$13,$14,$1,$2,$15*%
%AMOutline8P*
0 Free polygon, 8 corners , with rotation*
0 The origin of the aperture is its center*
0 number of corners: always 8*
0 $1 to $16 corner X, Y*
0 $17 Rotation angle, in degrees counterclockwise*
0 create outline with 8 corners*
4,1,8,$1,$2,$3,$4,$5,$6,$7,$8,$9,$10,$11,$12,$13,$14,$15,$16,$1,$2,$17*%
G04 Aperture macros list end*
%TA.AperFunction,SMDPad,CuDef*%
%ADD10RoundRect,0.140000X0.170000X-0.140000X0.170000X0.140000X-0.170000X0.140000X-0.170000X-0.140000X0*%
%TD*%
%TA.AperFunction,SMDPad,CuDef*%
%ADD11RoundRect,0.140000X-0.170000X0.140000X-0.170000X-0.140000X0.170000X-0.140000X0.170000X0.140000X0*%
%TD*%
%TA.AperFunction,SMDPad,CuDef*%
%ADD12RoundRect,0.135000X-0.135000X-0.185000X0.135000X-0.185000X0.135000X0.185000X-0.135000X0.185000X0*%
%TD*%
%TA.AperFunction,SMDPad,CuDef*%
%ADD13R,0.950000X0.450000*%
%TD*%
%TA.AperFunction,SMDPad,CuDef*%
%ADD14Outline6P,-0.650000X0.175000X0.650000X0.175000X0.650000X-0.087500X0.562500X-0.175000X-0.562500X-0.175000X-0.650000X-0.087500X270.000000*%
%TD*%
%TA.AperFunction,SMDPad,CuDef*%
%ADD15Outline6P,-0.650000X0.175000X0.650000X0.175000X0.650000X-0.087500X0.562500X-0.175000X-0.562500X-0.175000X-0.650000X-0.087500X90.000000*%
%TD*%
%TA.AperFunction,SMDPad,CuDef*%
%ADD16Outline6P,-1.150000X0.175000X1.150000X0.175000X1.150000X-0.087500X1.062500X-0.175000X-1.062500X-0.175000X-1.150000X-0.087500X180.000000*%
%TD*%
%TA.AperFunction,SMDPad,CuDef*%
%ADD17Outline6P,-1.150000X0.175000X1.150000X0.175000X1.150000X-0.087500X1.062500X-0.175000X-1.062500X-0.175000X-1.150000X-0.087500X0.000000*%
%TD*%
%TA.AperFunction,SMDPad,CuDef*%
%ADD18RoundRect,0.135000X0.135000X0.185000X-0.135000X0.185000X-0.135000X-0.185000X0.135000X-0.185000X0*%
%TD*%
%TA.AperFunction,SMDPad,CuDef*%
%ADD19RoundRect,0.135000X0.185000X-0.135000X0.185000X0.135000X-0.185000X0.135000X-0.185000X-0.135000X0*%
%TD*%
%TA.AperFunction,SMDPad,CuDef*%
%ADD20RoundRect,0.140000X-0.140000X-0.170000X0.140000X-0.170000X0.140000X0.170000X-0.140000X0.170000X0*%
%TD*%
%TA.AperFunction,SMDPad,CuDef*%
%ADD21RoundRect,0.150000X0.512500X0.150000X-0.512500X0.150000X-0.512500X-0.150000X0.512500X-0.150000X0*%
%TD*%
%TA.AperFunction,ComponentPad*%
%ADD22R,1.350000X1.350000*%
%TD*%
%TA.AperFunction,ComponentPad*%
%ADD23O,1.350000X1.350000*%
%TD*%
%TA.AperFunction,ComponentPad*%
%ADD24R,1.700000X1.700000*%
%TD*%
%TA.AperFunction,ComponentPad*%
%ADD25O,1.700000X1.700000*%
%TD*%
%TA.AperFunction,ViaPad*%
%ADD26C,0.800000*%
%TD*%
%TA.AperFunction,Conductor*%
%ADD27C,0.250000*%
%TD*%
%TA.AperFunction,Conductor*%
%ADD28C,0.150000*%
%TD*%
G04 APERTURE END LIST*
D10*
%TO.P,C13,1*%
%TO.N,+3.3V*%
X1000000Y485500000D03*
%TO.P,C13,2*%
%TO.N,GND*%
X1000000Y486460000D03*
%TD*%
%TO.P,C5,1*%
%TO.N,+3.3V*%
X1000000Y189020000D03*
%TO.P,C5,2*%
%TO.N,GND*%
X1000000Y189980000D03*
%TD*%
%TO.P,C8,1*%
%TO.N,+3.3V*%
X2000000Y189020000D03*
%TO.P,C8,2*%
%TO.N,GND*%
X2000000Y189980000D03*
%TD*%
D11*
%TO.P,C16,1*%
%TO.N,+3.3V*%
X2750000Y635480000D03*
%TO.P,C16,2*%
%TO.N,GND*%
X2750000Y634520000D03*
%TD*%
D10*
%TO.P,C7,1*%
%TO.N,+3.3V*%
X2000000Y126520000D03*
%TO.P,C7,2*%
%TO.N,GND*%
X2000000Y127480000D03*
%TD*%
D12*
%TO.P,R7,1*%
%TO.N,Net-(MK7-Pad4)*%
X1740000Y480500000D03*
%TO.P,R7,2*%
%TO.N,/dual mic4/DOUT*%
X2760000Y480500000D03*
%TD*%
D13*
%TO.P,MK2,1,VDD*%
%TO.N,+3.3V*%
X675000Y74925000D03*
%TO.P,MK2,2,L/R*%
X-675000Y74925000D03*
%TO.P,MK2,3,CLOCK*%
%TO.N,CLK_DRV*%
X-675000Y74075000D03*
%TO.P,MK2,4,DATA*%
%TO.N,Net-(MK2-Pad4)*%
X675000Y74075000D03*
D14*
%TO.P,MK2,5,GND*%
%TO.N,GND*%
X1725000Y74500000D03*
D15*
X-1725000Y74500000D03*
D16*
X0Y73275000D03*
D17*
X0Y75725000D03*
%TD*%
D13*
%TO.P,MK7,1,VDD*%
%TO.N,+3.3V*%
X675000Y483425000D03*
%TO.P,MK7,2,L/R*%
%TO.N,GND*%
X-675000Y483425000D03*
%TO.P,MK7,3,CLOCK*%
%TO.N,CLK_DRV*%
X-675000Y482575000D03*
%TO.P,MK7,4,DATA*%
%TO.N,Net-(MK7-Pad4)*%
X675000Y482575000D03*
D15*
%TO.P,MK7,5,GND*%
%TO.N,GND*%
X-1725000Y483000000D03*
D14*
X1725000Y483000000D03*
D16*
X0Y481775000D03*
D17*
X0Y484225000D03*
%TD*%
D10*
%TO.P,C3,1*%
%TO.N,+3.3V*%
X2000000Y36520000D03*
%TO.P,C3,2*%
%TO.N,GND*%
X2000000Y37480000D03*
%TD*%
D12*
%TO.P,R3,1*%
%TO.N,Net-(MK3-Pad4)*%
X2240000Y120500000D03*
%TO.P,R3,2*%
%TO.N,/dual mic2/DOUT*%
X3260000Y120500000D03*
%TD*%
D18*
%TO.P,R8,1*%
%TO.N,Net-(MK8-Pad4)*%
X1760000Y632000000D03*
%TO.P,R8,2*%
%TO.N,/dual mic4/DOUT*%
X740000Y632000000D03*
%TD*%
D13*
%TO.P,MK4,1,VDD*%
%TO.N,+3.3V*%
X675000Y187204000D03*
%TO.P,MK4,2,L/R*%
X-675000Y187204000D03*
%TO.P,MK4,3,CLOCK*%
%TO.N,CLK_DRV*%
X-675000Y186354000D03*
%TO.P,MK4,4,DATA*%
%TO.N,Net-(MK4-Pad4)*%
X675000Y186354000D03*
D16*
%TO.P,MK4,5,GND*%
%TO.N,GND*%
X0Y185554000D03*
D17*
X0Y188004000D03*
D15*
X-1725000Y186779000D03*
D14*
X1725000Y186779000D03*
%TD*%
D10*
%TO.P,C4,1*%
%TO.N,+3.3V*%
X2000000Y76520000D03*
%TO.P,C4,2*%
%TO.N,GND*%
X2000000Y77480000D03*
%TD*%
%TO.P,C12,1*%
%TO.N,+3.3V*%
X2000000Y364020000D03*
%TO.P,C12,2*%
%TO.N,GND*%
X2000000Y364980000D03*
%TD*%
D13*
%TO.P,MK8,1,VDD*%
%TO.N,+3.3V*%
X675000Y634925000D03*
%TO.P,MK8,2,L/R*%
X-675000Y634925000D03*
%TO.P,MK8,3,CLOCK*%
%TO.N,CLK_DRV*%
X-675000Y634075000D03*
%TO.P,MK8,4,DATA*%
%TO.N,Net-(MK8-Pad4)*%
X675000Y634075000D03*
D16*
%TO.P,MK8,5,GND*%
%TO.N,GND*%
X0Y633275000D03*
D14*
X1725000Y634500000D03*
D15*
X-1725000Y634500000D03*
D17*
X0Y635725000D03*
%TD*%
D10*
%TO.P,C2,1*%
%TO.N,+3.3V*%
X1000000Y36520000D03*
%TO.P,C2,2*%
%TO.N,GND*%
X1000000Y37480000D03*
%TD*%
D13*
%TO.P,MK5,1,VDD*%
%TO.N,+3.3V*%
X675000Y264925000D03*
%TO.P,MK5,2,L/R*%
%TO.N,GND*%
X-675000Y264925000D03*
%TO.P,MK5,3,CLOCK*%
%TO.N,CLK_DRV*%
X-675000Y264075000D03*
%TO.P,MK5,4,DATA*%
%TO.N,Net-(MK5-Pad4)*%
X675000Y264075000D03*
D14*
%TO.P,MK5,5,GND*%
%TO.N,GND*%
X1725000Y264500000D03*
D17*
X0Y265725000D03*
D16*
X0Y263275000D03*
D15*
X-1725000Y264500000D03*
%TD*%
D10*
%TO.P,C1,1*%
%TO.N,+3.3V*%
X1000000Y76520000D03*
%TO.P,C1,2*%
%TO.N,GND*%
X1000000Y77480000D03*
%TD*%
D18*
%TO.P,R6,1*%
%TO.N,Net-(MK6-Pad4)*%
X1760000Y358500000D03*
%TO.P,R6,2*%
%TO.N,/dual mic3/DOUT*%
X740000Y358500000D03*
%TD*%
%TO.P,R9,1*%
%TO.N,Net-(R9-Pad1)*%
X-740000Y57750000D03*
%TO.P,R9,2*%
%TO.N,CLK_DRV*%
X-1760000Y57750000D03*
%TD*%
D12*
%TO.P,R4,1*%
%TO.N,Net-(MK4-Pad4)*%
X2240000Y183500000D03*
%TO.P,R4,2*%
%TO.N,/dual mic2/DOUT*%
X3260000Y183500000D03*
%TD*%
%TO.P,R5,1*%
%TO.N,Net-(MK5-Pad4)*%
X2490000Y261250000D03*
%TO.P,R5,2*%
%TO.N,/dual mic3/DOUT*%
X3510000Y261250000D03*
%TD*%
D19*
%TO.P,R1,1*%
%TO.N,Net-(MK1-Pad4)*%
X3000000Y36490000D03*
%TO.P,R1,2*%
%TO.N,/dual mic1/DOUT*%
X3000000Y37510000D03*
%TD*%
D20*
%TO.P,C17,1*%
%TO.N,+3.3V*%
X-490000Y51950000D03*
%TO.P,C17,2*%
%TO.N,GND*%
X470000Y51950000D03*
%TD*%
D10*
%TO.P,C9,1*%
%TO.N,+3.3V*%
X2000000Y267020000D03*
%TO.P,C9,2*%
%TO.N,GND*%
X2000000Y267980000D03*
%TD*%
D20*
%TO.P,C18,1*%
%TO.N,+3.3V*%
X-480000Y53000000D03*
%TO.P,C18,2*%
%TO.N,GND*%
X480000Y53000000D03*
%TD*%
D10*
%TO.P,C11,1*%
%TO.N,+3.3V*%
X1000000Y267020000D03*
%TO.P,C11,2*%
%TO.N,GND*%
X1000000Y267980000D03*
%TD*%
D13*
%TO.P,MK1,1,VDD*%
%TO.N,+3.3V*%
X675000Y34925000D03*
%TO.P,MK1,2,L/R*%
%TO.N,GND*%
X-675000Y34925000D03*
%TO.P,MK1,3,CLOCK*%
%TO.N,CLK_DRV*%
X-675000Y34075000D03*
%TO.P,MK1,4,DATA*%
%TO.N,Net-(MK1-Pad4)*%
X675000Y34075000D03*
D14*
%TO.P,MK1,5,GND*%
%TO.N,GND*%
X1725000Y34500000D03*
D17*
X0Y35725000D03*
D16*
X0Y33275000D03*
D15*
X-1725000Y34500000D03*
%TD*%
D10*
%TO.P,C15,1*%
%TO.N,+3.3V*%
X2000000Y485500000D03*
%TO.P,C15,2*%
%TO.N,GND*%
X2000000Y486460000D03*
%TD*%
D13*
%TO.P,MK6,1,VDD*%
%TO.N,+3.3V*%
X675000Y362175000D03*
%TO.P,MK6,2,L/R*%
X-675000Y362175000D03*
%TO.P,MK6,3,CLOCK*%
%TO.N,CLK_DRV*%
X-675000Y361325000D03*
%TO.P,MK6,4,DATA*%
%TO.N,Net-(MK6-Pad4)*%
X675000Y361325000D03*
D14*
%TO.P,MK6,5,GND*%
%TO.N,GND*%
X1725000Y361750000D03*
D16*
X0Y360525000D03*
D17*
X0Y362975000D03*
D15*
X-1725000Y361750000D03*
%TD*%
D13*
%TO.P,MK3,1,VDD*%
%TO.N,+3.3V*%
X675000Y124925000D03*
%TO.P,MK3,2,L/R*%
%TO.N,GND*%
X-675000Y124925000D03*
%TO.P,MK3,3,CLOCK*%
%TO.N,CLK_DRV*%
X-675000Y124075000D03*
%TO.P,MK3,4,DATA*%
%TO.N,Net-(MK3-Pad4)*%
X675000Y124075000D03*
D14*
%TO.P,MK3,5,GND*%
%TO.N,GND*%
X1725000Y124500000D03*
D15*
X-1725000Y124500000D03*
D17*
X0Y125725000D03*
D16*
X0Y123275000D03*
%TD*%
D12*
%TO.P,R2,1*%
%TO.N,Net-(MK2-Pad4)*%
X1990000Y71250000D03*
%TO.P,R2,2*%
%TO.N,/dual mic1/DOUT*%
X3010000Y71250000D03*
%TD*%
D21*
%TO.P,U1,1,NC*%
%TO.N,unconnected-(U1-Pad1)*%
X1647500Y54500000D03*
%TO.P,U1,2*%
%TO.N,/CLK*%
X1647500Y55450000D03*
%TO.P,U1,3,GND*%
%TO.N,GND*%
X1647500Y56400000D03*
%TO.P,U1,4*%
%TO.N,Net-(R9-Pad1)*%
X-627500Y56400000D03*
%TO.P,U1,5,VCC*%
%TO.N,+3.3V*%
X-627500Y54500000D03*
%TD*%
D11*
%TO.P,C14,1*%
%TO.N,+3.3V*%
X2750000Y632210000D03*
%TO.P,C14,2*%
%TO.N,GND*%
X2750000Y631250000D03*
%TD*%
D10*
%TO.P,C10,1*%
%TO.N,+3.3V*%
X1000000Y364020000D03*
%TO.P,C10,2*%
%TO.N,GND*%
X1000000Y364980000D03*
%TD*%
%TO.P,C6,1*%
%TO.N,+3.3V*%
X1000000Y126520000D03*
%TO.P,C6,2*%
%TO.N,GND*%
X1000000Y127480000D03*
%TD*%
D22*
%TO.P,J1,1,Pin_1*%
%TO.N,+3.3V*%
X3000000Y41000000D03*
D23*
%TO.P,J1,2,Pin_2*%
%TO.N,/dual mic1/DOUT*%
X3000000Y39000000D03*
%TO.P,J1,3,Pin_3*%
%TO.N,GND*%
X1000000Y41000000D03*
%TO.P,J1,4,Pin_4*%
%TO.N,/dual mic2/DOUT*%
X1000000Y39000000D03*
%TO.P,J1,5,Pin_5*%
%TO.N,/CLK*%
X-1000000Y41000000D03*
%TO.P,J1,6,Pin_6*%
%TO.N,/dual mic3/DOUT*%
X-1000000Y39000000D03*
%TO.P,J1,7,Pin_7*%
%TO.N,GND*%
X-3000000Y41000000D03*
%TO.P,J1,8,Pin_8*%
%TO.N,/dual mic4/DOUT*%
X-3000000Y39000000D03*
%TD*%
D24*
%TO.P,J2,1,Pin_1*%
%TO.N,+3.3V*%
X1250000Y68750000D03*
D25*
%TO.P,J2,2,Pin_2*%
%TO.N,/dual mic1/DOUT*%
X-1290000Y68750000D03*
%TO.P,J2,3,Pin_3*%
%TO.N,GND*%
X1250000Y66210000D03*
%TO.P,J2,4,Pin_4*%
%TO.N,/dual mic2/DOUT*%
X-1290000Y66210000D03*
%TO.P,J2,5,Pin_5*%
%TO.N,/CLK*%
X1250000Y63670000D03*
%TO.P,J2,6,Pin_6*%
%TO.N,/dual mic3/DOUT*%
X-1290000Y63670000D03*
%TO.P,J2,7,Pin_7*%
%TO.N,GND*%
X1250000Y61130000D03*
%TO.P,J2,8,Pin_8*%
%TO.N,/dual mic4/DOUT*%
X-1290000Y61130000D03*
%TD*%
D26*
%TO.N,+3.3V*%
X3000000Y126500000D03*
X3000000Y267000000D03*
X3000000Y189000000D03*
X3750000Y633750000D03*
X3000000Y485500000D03*
X0Y36500000D03*
X3424500Y76500000D03*
X-500000Y51000000D03*
X3000000Y364000497D03*
%TO.N,/dual mic1/DOUT*%
X4000000Y71250000D03*
%TO.N,GND*%
X0Y481000000D03*
X4000000Y479500000D03*
X3000000Y486500000D03*
X-1725000Y75750000D03*
X2500000Y361750000D03*
X-1250000Y561000000D03*
X-1725000Y35750000D03*
X2525000Y34500000D03*
X3000000Y561000000D03*
X2500000Y483000000D03*
X-1750000Y635750000D03*
X25000Y72500000D03*
X3000000Y190000000D03*
X3750000Y433500000D03*
X250000Y544250000D03*
X-3500000Y313500000D03*
X-1725000Y363000000D03*
X-1750000Y484250000D03*
X-1750000Y37000000D03*
X25000Y359750000D03*
X3000000Y127500000D03*
X-2750000Y433500000D03*
X0Y37500000D03*
X-500000Y632250000D03*
X-1725000Y188000000D03*
X-1725000Y125750000D03*
X1780780Y32874795D03*
X25000Y122500000D03*
X2750000Y633500000D03*
X-1725000Y265750000D03*
X3500000Y74500000D03*
X-3500000Y306750000D03*
X25000Y262500000D03*
X-4000000Y544250000D03*
X25000Y184750000D03*
X4250000Y120500000D03*
X-4000000Y483000000D03*
X3000000Y365000000D03*
X2500000Y186750000D03*
X500000Y51000000D03*
X2500000Y264500000D03*
X2750000Y630250000D03*
X3000000Y268000000D03*
X-4000000Y423000000D03*
X2500000Y124500000D03*
X4250000Y183500000D03*
X-4250000Y561000000D03*
%TO.N,/dual mic2/DOUT*%
X2750000Y119500000D03*
%TO.N,/dual mic3/DOUT*%
X3500000Y260000000D03*
%TO.N,/dual mic4/DOUT*%
X-3100000Y62940000D03*
X2750000Y479500000D03*
%TD*%
D27*
%TO.N,+3.3V*%
X3750000Y634500000D02*
X3750000Y633210000D01*
X2000000Y76520000D02*
X1000000Y76520000D01*
D28*
X675000Y483425000D02*
X925000Y483425000D01*
D27*
X-490000Y54362500D02*
X-627500Y54500000D01*
X1000000Y364020000D02*
X2000000Y364020000D01*
X-675000Y74925000D02*
X675000Y74925000D01*
X2770000Y635480000D02*
X3750000Y634500000D01*
X675000Y634925000D02*
X925000Y634925000D01*
X675000Y187204000D02*
X897120Y187204000D01*
X2000000Y126520000D02*
X2980000Y126520000D01*
X2000000Y126027880D02*
X2000000Y126520000D01*
X-490000Y51950000D02*
X-490000Y54362500D01*
X3000000Y364000497D02*
X2980497Y364020000D01*
D28*
X2000000Y36000000D02*
X2000000Y36520000D01*
D27*
X897120Y264925000D02*
X2000000Y266027880D01*
X2000000Y126520000D02*
X1000000Y126520000D01*
X897120Y124925000D02*
X2000000Y126027880D01*
X-490000Y51950000D02*
X-490000Y51010000D01*
X2000000Y76520000D02*
X2980000Y76520000D01*
X897120Y187204000D02*
X2000000Y188306880D01*
X2000000Y188306880D02*
X2000000Y189020000D01*
X-675000Y634925000D02*
X675000Y634925000D01*
X2980000Y189020000D02*
X3000000Y189000000D01*
X897120Y362175000D02*
X2000000Y363277880D01*
D28*
X2000000Y36520000D02*
X1000000Y36520000D01*
X925000Y483425000D02*
X2000000Y484500000D01*
D27*
X2000000Y75972120D02*
X2000000Y76520000D01*
X2000000Y267020000D02*
X2980000Y267020000D01*
X675000Y74925000D02*
X952880Y74925000D01*
D28*
X675000Y34925000D02*
X925000Y34925000D01*
X1000000Y485500000D02*
X2000000Y485500000D01*
D27*
X-490000Y51010000D02*
X-500000Y51000000D01*
X2980000Y126520000D02*
X3000000Y126500000D01*
X2980000Y267020000D02*
X3000000Y267000000D01*
X675000Y362175000D02*
X897120Y362175000D01*
X2750000Y635480000D02*
X2770000Y635480000D01*
X675000Y362175000D02*
X-675000Y362175000D01*
X2980000Y76520000D02*
X3404500Y76520000D01*
D28*
X1000000Y36520000D02*
X20000Y36520000D01*
X2000000Y484500000D02*
X2000000Y485500000D01*
D27*
X2000000Y189020000D02*
X2980000Y189020000D01*
X675000Y264925000D02*
X897120Y264925000D01*
X925000Y634925000D02*
X1480000Y635480000D01*
X2000000Y189020000D02*
X1000000Y189020000D01*
X-675000Y187204000D02*
X675000Y187204000D01*
X2000000Y363277880D02*
X2000000Y364020000D01*
X3404500Y76520000D02*
X3424500Y76500000D01*
D28*
X20000Y36520000D02*
X0Y36500000D01*
D27*
X2000000Y267020000D02*
X1000000Y267020000D01*
X2980497Y364020000D02*
X2000000Y364020000D01*
D28*
X2000000Y485500000D02*
X3000000Y485500000D01*
D27*
X2000000Y266027880D02*
X2000000Y267020000D01*
X675000Y124925000D02*
X897120Y124925000D01*
X3750000Y633210000D02*
X2750000Y632210000D01*
X952880Y74925000D02*
X2000000Y75972120D01*
X1480000Y635480000D02*
X2750000Y635480000D01*
D28*
X925000Y34925000D02*
X2000000Y36000000D01*
%TO.N,/dual mic1/DOUT*%
X2010000Y70250000D02*
X210000Y70250000D01*
X3000000Y37510000D02*
X3000000Y39000000D01*
X210000Y70250000D02*
X-1290000Y68750000D01*
X3010000Y71250000D02*
X2010000Y70250000D01*
X3010000Y71250000D02*
X4000000Y71250000D01*
D27*
%TO.N,GND*%
X1000000Y267980000D02*
X2000000Y267980000D01*
X2000000Y267980000D02*
X2980000Y267980000D01*
D28*
X0Y481775000D02*
X0Y481000000D01*
X0Y633275000D02*
X0Y632750000D01*
X2000000Y486460000D02*
X2960000Y486460000D01*
X1750000Y264500000D02*
X2525000Y264500000D01*
D27*
X1000000Y364980000D02*
X2000000Y364980000D01*
X470000Y55606751D02*
X1263249Y56400000D01*
X2750000Y634520000D02*
X2750000Y633500000D01*
D28*
X1750000Y186750000D02*
X2525000Y186750000D01*
X1725000Y483000000D02*
X2500000Y483000000D01*
D27*
X2980000Y267980000D02*
X3000000Y268000000D01*
X1000000Y127480000D02*
X2000000Y127480000D01*
X470000Y51950000D02*
X470000Y55606751D01*
X2980000Y189980000D02*
X3000000Y190000000D01*
X470000Y51950000D02*
X470000Y51030000D01*
D28*
X2750000Y631250000D02*
X2750000Y630250000D01*
D27*
X2000000Y127480000D02*
X2980000Y127480000D01*
D28*
X0Y632750000D02*
X-500000Y632250000D01*
D27*
X3000000Y365000000D02*
X2980000Y364980000D01*
D28*
X1750000Y34500000D02*
X2525000Y34500000D01*
D27*
X2980000Y364980000D02*
X2000000Y364980000D01*
X2750000Y634520000D02*
X1745000Y634520000D01*
X2980000Y127480000D02*
X3000000Y127500000D01*
X1745000Y634520000D02*
X1725000Y634500000D01*
X2000000Y189980000D02*
X2980000Y189980000D01*
D28*
X1000000Y486460000D02*
X2000000Y486460000D01*
D27*
X1263249Y56400000D02*
X1647500Y56400000D01*
D28*
X2960000Y486460000D02*
X3000000Y486500000D01*
X1750000Y74500000D02*
X2525000Y74500000D01*
D27*
X470000Y51030000D02*
X500000Y51000000D01*
D28*
X1750000Y124500000D02*
X2525000Y124500000D01*
%TO.N,/dual mic2/DOUT*%
X3260000Y120010000D02*
X2750000Y119500000D01*
X3260000Y183500000D02*
X4250000Y182510000D01*
X4250000Y121490000D02*
X3260000Y120500000D01*
X4250000Y182510000D02*
X4250000Y121490000D01*
X3260000Y120500000D02*
X3260000Y120010000D01*
%TO.N,/CLK*%
X4000000Y44250000D02*
X4000000Y54500000D01*
X250000Y42250000D02*
X2000000Y42250000D01*
X4000000Y54500000D02*
X3050000Y55450000D01*
X3050000Y55450000D02*
X1647500Y55450000D01*
X2000000Y42250000D02*
X4000000Y44250000D01*
X3050000Y61870000D02*
X1250000Y63670000D01*
X-1000000Y41000000D02*
X250000Y42250000D01*
X3050000Y55450000D02*
X3050000Y61870000D01*
%TO.N,/dual mic3/DOUT*%
X3510000Y260010000D02*
X3500000Y260000000D01*
X740000Y323490000D02*
X-1250000Y321500000D01*
X-1250000Y321500000D02*
X-1250000Y317500000D01*
X-1250000Y317500000D02*
X3750000Y312500000D01*
X740000Y358500000D02*
X740000Y323490000D01*
X3510000Y261250000D02*
X3510000Y260010000D01*
X3750000Y261500000D02*
X3500000Y261250000D01*
X3750000Y312500000D02*
X3750000Y261500000D01*
%TO.N,/dual mic4/DOUT*%
X2760000Y479510000D02*
X2750000Y479500000D01*
X3750000Y557750000D02*
X3750000Y481250000D01*
X-3100000Y62940000D02*
X-1290000Y61130000D01*
X740000Y631990000D02*
X-1250000Y630000000D01*
X2760000Y480500000D02*
X2760000Y479510000D01*
X-1250000Y562750000D02*
X3750000Y557750000D01*
X-1250000Y630000000D02*
X-1250000Y562750000D01*
X740000Y632000000D02*
X740000Y631990000D01*
X3750000Y481250000D02*
X3000000Y480500000D01*
%TO.N,CLK_DRV*%
X-3000000Y33250000D02*
X-3250000Y33500000D01*
X-675000Y361325000D02*
X-925000Y361325000D01*
X-675000Y124075000D02*
X-925000Y124075000D01*
X-675000Y186354000D02*
X-826410Y186354000D01*
X-3750000Y317000000D02*
X-3750000Y359500000D01*
X-925000Y124075000D02*
X-2600000Y122400000D01*
X-2680410Y184500000D02*
X-4000000Y184500000D01*
X1250000Y426750000D02*
X-3750000Y421750000D01*
X-4250000Y630651410D02*
X-4250000Y562250000D01*
X-675000Y264075000D02*
X-826410Y264075000D01*
X-3000000Y481500000D02*
X-3000000Y437250000D01*
X-826410Y264075000D02*
X-2651410Y262250000D01*
X-826410Y482575000D02*
X-675000Y482575000D01*
X-2651410Y262250000D02*
X-4000000Y262250000D01*
X-4000000Y57750000D02*
X-4000000Y59990000D01*
X-4250000Y562250000D02*
X1750000Y556250000D01*
X-3250000Y37500000D02*
X-4000000Y38250000D01*
X-675000Y634075000D02*
X-826410Y634075000D01*
X-3000000Y437250000D02*
X1250000Y433000000D01*
X-4000000Y59990000D02*
X-4000000Y72250000D01*
X-1950705Y481450705D02*
X-2950705Y481450705D01*
X1000000Y307500000D02*
X1000000Y312250000D01*
X-675000Y34075000D02*
X-826410Y34075000D01*
X1000000Y312250000D02*
X-3750000Y317000000D01*
X-826410Y186354000D02*
X-2680410Y184500000D01*
X-1950705Y481450705D02*
X-826410Y482575000D01*
X-4000000Y38250000D02*
X-4000000Y59990000D01*
X-3250000Y33500000D02*
X-3250000Y37500000D01*
X-2600000Y122400000D02*
X-4000000Y122400000D01*
X-925000Y361325000D02*
X-2750000Y359500000D01*
X-3750000Y421750000D02*
X-3750000Y359500000D01*
X-4000000Y72250000D02*
X-4000000Y122400000D01*
X-3000000Y544750000D02*
X-3000000Y481500000D01*
X-826410Y34075000D02*
X-1651410Y33250000D01*
X-1760000Y57750000D02*
X-4000000Y57750000D01*
X-4000000Y262250000D02*
X-4000000Y302500000D01*
X-4000000Y302500000D02*
X1000000Y307500000D01*
X-4000000Y186500000D02*
X-4000000Y262250000D01*
X1750000Y549500000D02*
X-3000000Y544750000D01*
X-925000Y74075000D02*
X-2750000Y72250000D01*
X-2750000Y72250000D02*
X-4000000Y72250000D01*
X1250000Y433000000D02*
X1250000Y426750000D01*
X-2950705Y481450705D02*
X-3000000Y481500000D01*
X-675000Y74075000D02*
X-925000Y74075000D01*
X-1651410Y33250000D02*
X-3000000Y33250000D01*
X-4000000Y122400000D02*
X-4000000Y186500000D01*
X1750000Y556250000D02*
X1750000Y549500000D01*
X-826410Y634075000D02*
X-4250000Y630651410D01*
X-2750000Y359500000D02*
X-3750000Y359500000D01*
%TO.N,Net-(MK1-Pad4)*%
X3500000Y34250000D02*
X3500000Y35990000D01*
X3500000Y35990000D02*
X3000000Y36490000D01*
X675000Y34075000D02*
X1023590Y34075000D01*
X1549295Y33549295D02*
X2799295Y33549295D01*
X1023590Y34075000D02*
X1549295Y33549295D01*
X2799295Y33549295D02*
X3500000Y34250000D01*
%TO.N,Net-(MK2-Pad4)*%
X826410Y74075000D02*
X2020000Y72881410D01*
X2020000Y72881410D02*
X2020000Y71250000D01*
X675000Y74075000D02*
X826410Y74075000D01*
%TO.N,Net-(MK3-Pad4)*%
X2240000Y122661410D02*
X2240000Y120500000D01*
X675000Y124075000D02*
X826410Y124075000D01*
X826410Y124075000D02*
X2240000Y122661410D01*
%TO.N,Net-(MK4-Pad4)*%
X2240000Y185039000D02*
X925000Y186354000D01*
X925000Y186354000D02*
X675000Y186354000D01*
X2240000Y183500000D02*
X2240000Y185039000D01*
%TO.N,Net-(MK5-Pad4)*%
X826410Y264075000D02*
X2490000Y262411410D01*
X2490000Y262411410D02*
X2490000Y261250000D01*
X675000Y264075000D02*
X826410Y264075000D01*
%TO.N,Net-(MK6-Pad4)*%
X675000Y361325000D02*
X826410Y361325000D01*
X1760000Y360391410D02*
X1760000Y358500000D01*
X826410Y361325000D02*
X1760000Y360391410D01*
%TO.N,Net-(MK7-Pad4)*%
X1750000Y480510000D02*
X1740000Y480500000D01*
X675000Y482575000D02*
X925000Y482575000D01*
X925000Y482575000D02*
X1750000Y481750000D01*
X1750000Y481750000D02*
X1750000Y480510000D01*
%TO.N,Net-(MK8-Pad4)*%
X925000Y634075000D02*
X1750000Y633250000D01*
X1750000Y633250000D02*
X1750000Y632000000D01*
X675000Y634075000D02*
X925000Y634075000D01*
%TO.N,Net-(R9-Pad1)*%
X-627500Y57637500D02*
X-740000Y57750000D01*
X-627500Y56400000D02*
X-627500Y57637500D01*
%TD*%
%TA.AperFunction,Conductor*%
%TO.N,GND*%
G36*
X44229Y33365295D02*
G01*
X82289Y33351027D01*
X82291Y33351027D01*
X89684Y33348255D01*
X97532Y33347402D01*
X97534Y33347402D01*
X148469Y33341869D01*
X151866Y33341500D01*
X879707Y33341500D01*
X947828Y33321498D01*
X968802Y33304595D01*
X1103809Y33169588D01*
X1114676Y33157198D01*
X1133138Y33133138D01*
X1179353Y33097676D01*
X1255027Y33039609D01*
X1325999Y33010211D01*
X1389341Y32983974D01*
X1389344Y32983973D01*
X1396971Y32980814D01*
X1549295Y32960760D01*
X1557483Y32961838D01*
X1579351Y32964717D01*
X1595798Y32965795D01*
X2752792Y32965795D01*
X2769239Y32964717D01*
X2799295Y32960760D01*
X2807483Y32961838D01*
X2837539Y32965795D01*
X2951619Y32980814D01*
X2952586Y32981214D01*
X3020221Y32979604D01*
X3025000Y32976370D01*
X3025000Y32539195D01*
X2985307Y32513636D01*
X2949700Y32508500D01*
X-1290573Y32508500D01*
X-1358694Y32528502D01*
X-1405187Y32582158D01*
X-1415291Y32652432D01*
X-1385797Y32717012D01*
X-1358013Y32739954D01*
X-1357143Y32740314D01*
X-1235253Y32833843D01*
X-1216791Y32857903D01*
X-1205924Y32870293D01*
X-771622Y33304595D01*
X-709310Y33338621D01*
X-682527Y33341500D01*
X-151866Y33341500D01*
X-148469Y33341869D01*
X-97534Y33347402D01*
X-97532Y33347402D01*
X-89684Y33348255D01*
X-82291Y33351027D01*
X-82289Y33351027D01*
X-44229Y33365295D01*
X26578Y33370478D01*
X44229Y33365295D01*
G37*
%TD.AperFunction*%
%TA.AperFunction,Conductor*%
G36*
X2092913Y38232742D02*
G01*
X2096204Y38228086D01*
X2225753Y38101886D01*
X2260589Y38040026D01*
X2256452Y37969150D01*
X2246283Y37947494D01*
X2219731Y37902596D01*
X2217520Y37894985D01*
X2217519Y37894983D01*
X2203325Y37846126D01*
X2174371Y37746466D01*
X2171500Y37709989D01*
X2171500Y37707520D01*
X2171501Y37434500D01*
X2151499Y37366380D01*
X2097844Y37319887D01*
X2045501Y37308500D01*
X1764516Y37308500D01*
X1762068Y37308307D01*
X1762060Y37308307D01*
X1734156Y37306111D01*
X1734151Y37306110D01*
X1727746Y37305606D01*
X1644810Y37281511D01*
X1578016Y37262106D01*
X1578014Y37262105D01*
X1570403Y37259894D01*
X1563581Y37255859D01*
X1556303Y37252710D01*
X1555722Y37254053D01*
X1495315Y37238731D01*
X1444149Y37253755D01*
X1443697Y37252710D01*
X1436419Y37255859D01*
X1429597Y37259894D01*
X1421986Y37262105D01*
X1421984Y37262106D01*
X1355190Y37281511D01*
X1272254Y37305606D01*
X1265849Y37306110D01*
X1265844Y37306111D01*
X1237940Y37308307D01*
X1237932Y37308307D01*
X1235484Y37308500D01*
X764516Y37308500D01*
X762068Y37308307D01*
X762060Y37308307D01*
X734156Y37306111D01*
X734151Y37306110D01*
X727746Y37305606D01*
X721574Y37303813D01*
X721569Y37303812D01*
X644810Y37281511D01*
X579191Y37262447D01*
X508196Y37262650D01*
X469976Y37281510D01*
X456752Y37291118D01*
X450724Y37293802D01*
X450722Y37293803D01*
X288319Y37366109D01*
X288318Y37366109D01*
X282288Y37368794D01*
X188888Y37388647D01*
X101944Y37407128D01*
X101939Y37407128D01*
X95487Y37408500D01*
X-95487Y37408500D01*
X-101939Y37407128D01*
X-101944Y37407128D01*
X-188888Y37388647D01*
X-282288Y37368794D01*
X-288318Y37366109D01*
X-288319Y37366109D01*
X-450722Y37293803D01*
X-450724Y37293802D01*
X-456752Y37291118D01*
X-462093Y37287238D01*
X-462094Y37287237D01*
X-499728Y37259894D01*
X-611253Y37178866D01*
X-739040Y37036944D01*
X-834527Y36871556D01*
X-893542Y36689928D01*
X-913504Y36500000D01*
X-893542Y36310072D01*
X-834527Y36128444D01*
X-739040Y35963056D01*
X-611253Y35821134D01*
X-456752Y35708882D01*
X-450724Y35706198D01*
X-450722Y35706197D01*
X-420867Y35692905D01*
X-282288Y35631206D01*
X-280972Y35630926D01*
X-223976Y35591953D01*
X-196340Y35526556D01*
X-208447Y35456599D01*
X-220693Y35436630D01*
X-250615Y35396705D01*
X-301745Y35260316D01*
X-308500Y35198134D01*
X-308500Y34934500D01*
X-328502Y34866379D01*
X-382158Y34819886D01*
X-434500Y34808500D01*
X-1198134Y34808500D01*
X-1260316Y34801745D01*
X-1396705Y34750615D01*
X-1513261Y34663261D01*
X-1600615Y34546705D01*
X-1651745Y34410316D01*
X-1658500Y34348134D01*
X-1658500Y34120293D01*
X-1678502Y34052172D01*
X-1695405Y34031198D01*
X-1856198Y33870405D01*
X-1918510Y33836379D01*
X-1945293Y33833500D01*
X-2475000Y33833500D01*
X-2475000Y37937464D01*
X-2396187Y37981602D01*
X-2326787Y38020468D01*
X-2159554Y38159554D01*
X-2099748Y38231463D01*
X-2040811Y38271047D01*
X-1969829Y38272483D01*
X-1907087Y38232742D01*
X-1903796Y38228086D01*
X-1899653Y38224050D01*
X-1899652Y38224049D01*
X-1833446Y38159554D01*
X-1747991Y38076308D01*
X-1567137Y37955464D01*
X-1561829Y37953183D01*
X-1561828Y37953183D01*
X-1372591Y37871881D01*
X-1372588Y37871880D01*
X-1367288Y37869603D01*
X-1361658Y37868329D01*
X-1263536Y37846126D01*
X-1155140Y37821598D01*
X-1149369Y37821371D01*
X-1149367Y37821371D01*
X-1076380Y37818504D01*
X-937795Y37813059D01*
X-722534Y37844270D01*
X-717070Y37846125D01*
X-717065Y37846126D01*
X-522037Y37912329D01*
X-522032Y37912331D01*
X-516565Y37914187D01*
X-326787Y38020468D01*
X-159554Y38159554D01*
X-99748Y38231463D01*
X-40811Y38271047D01*
X30171Y38272483D01*
X92913Y38232742D01*
X96204Y38228086D01*
X100347Y38224050D01*
X100348Y38224049D01*
X166554Y38159554D01*
X252009Y38076308D01*
X432863Y37955464D01*
X438171Y37953183D01*
X438172Y37953183D01*
X627409Y37871881D01*
X627412Y37871880D01*
X632712Y37869603D01*
X638342Y37868329D01*
X736464Y37846126D01*
X844860Y37821598D01*
X850631Y37821371D01*
X850633Y37821371D01*
X923620Y37818504D01*
X1062205Y37813059D01*
X1277466Y37844270D01*
X1282930Y37846125D01*
X1282935Y37846126D01*
X1477963Y37912329D01*
X1477968Y37912331D01*
X1483435Y37914187D01*
X1673213Y38020468D01*
X1840446Y38159554D01*
X1900252Y38231463D01*
X1959189Y38271047D01*
X2030171Y38272483D01*
X2092913Y38232742D01*
G37*
%TD.AperFunction*%
%TA.AperFunction,Conductor*%
G36*
X2676782Y35725048D02*
G01*
X2713534Y35714371D01*
X2719941Y35713867D01*
X2719945Y35713866D01*
X2747556Y35711693D01*
X2747562Y35711693D01*
X2750011Y35711500D01*
X2790500Y35711500D01*
X2858621Y35691498D01*
X2905114Y35637842D01*
X2916500Y35585500D01*
X2916500Y34543885D01*
X2896498Y34475764D01*
X2879596Y34454790D01*
X2594507Y34169700D01*
X2532194Y34135675D01*
X2505411Y34132795D01*
X1843178Y34132795D01*
X1775057Y34152797D01*
X1754083Y34169700D01*
X1695405Y34228378D01*
X1661379Y34290690D01*
X1658500Y34317473D01*
X1658500Y34348134D01*
X1658131Y34351531D01*
X1652598Y34402466D01*
X1652598Y34402468D01*
X1651745Y34410316D01*
X1648973Y34417711D01*
X1634705Y34455771D01*
X1629522Y34526578D01*
X1634705Y34544229D01*
X1648973Y34582289D01*
X1648973Y34582291D01*
X1651745Y34589684D01*
X1658500Y34651866D01*
X1658500Y34781116D01*
X1678502Y34849237D01*
X1695405Y34870212D01*
X2023328Y35198134D01*
X2379719Y35554525D01*
X2392110Y35565391D01*
X2409604Y35578814D01*
X2409607Y35578817D01*
X2416157Y35583843D01*
X2422033Y35591500D01*
X2439637Y35614443D01*
X2439640Y35614446D01*
X2499843Y35692905D01*
X2557181Y35734773D01*
X2634959Y35737199D01*
X2676782Y35725048D01*
G37*
%TD.AperFunction*%
%TD*%
%TA.AperFunction,Conductor*%
%TO.N,GND*%
G36*
X44229Y481865295D02*
G01*
X82289Y481851027D01*
X82291Y481851027D01*
X89684Y481848255D01*
X97532Y481847402D01*
X97534Y481847402D01*
X148469Y481841869D01*
X151866Y481841500D01*
X781117Y481841500D01*
X849238Y481821498D01*
X870212Y481804595D01*
X1129595Y481545212D01*
X1163621Y481482900D01*
X1166500Y481456117D01*
X1166500Y481208737D01*
X1146498Y481140616D01*
X1129595Y481119642D01*
X1092494Y481082541D01*
X1088460Y481075720D01*
X1017500Y480955732D01*
X1009731Y480942596D01*
X964371Y480786466D01*
X961500Y480749989D01*
X961500Y480747520D01*
X961501Y480500000D01*
X-2416500Y480500000D01*
X-2416500Y480741205D01*
X-2396498Y480809326D01*
X-2342842Y480855819D01*
X-2290500Y480867205D01*
X-1997208Y480867205D01*
X-1980761Y480866127D01*
X-1950705Y480862170D01*
X-1942517Y480863248D01*
X-1912461Y480867205D01*
X-1798381Y480882224D01*
X-1656438Y480941019D01*
X-1534548Y481034548D01*
X-1516086Y481058608D01*
X-1505219Y481070998D01*
X-771622Y481804595D01*
X-709310Y481838621D01*
X-682527Y481841500D01*
X-151866Y481841500D01*
X-148469Y481841869D01*
X-97534Y481847402D01*
X-97532Y481847402D01*
X-89684Y481848255D01*
X-82291Y481851027D01*
X-82289Y481851027D01*
X-44229Y481865295D01*
X26578Y481870478D01*
X44229Y481865295D01*
G37*
%TD.AperFunction*%
%TA.AperFunction,Conductor*%
G36*
X2739654Y484626542D02*
G01*
X2898056Y484592872D01*
X2898061Y484592872D01*
X2904513Y484591500D01*
X3000000Y484591500D01*
X3000000Y481343447D01*
X2977900Y481331379D01*
X2951117Y481328500D01*
X2647172Y481328499D01*
X2560012Y481328499D01*
X2523534Y481325629D01*
X2494652Y481317238D01*
X2423658Y481317440D01*
X2364041Y481355994D01*
X2334732Y481420658D01*
X2333500Y481438235D01*
X2333500Y481703499D01*
X2334578Y481719947D01*
X2337457Y481741813D01*
X2338535Y481750000D01*
X2329519Y481818480D01*
X2326879Y481838535D01*
X2319559Y481894137D01*
X2319559Y481894138D01*
X2318481Y481902324D01*
X2259686Y482044267D01*
X2259686Y482044268D01*
X2189639Y482135554D01*
X2166157Y482166157D01*
X2142097Y482184619D01*
X2129707Y482195486D01*
X1695405Y482629788D01*
X1661379Y482692100D01*
X1658500Y482718883D01*
X1658500Y482848134D01*
X1658131Y482851531D01*
X1652598Y482902466D01*
X1652598Y482902468D01*
X1651745Y482910316D01*
X1648973Y482917711D01*
X1634705Y482955771D01*
X1629522Y483026578D01*
X1634705Y483044229D01*
X1648973Y483082289D01*
X1648973Y483082291D01*
X1651745Y483089684D01*
X1658500Y483151866D01*
X1658500Y483281116D01*
X1678502Y483349237D01*
X1695405Y483370212D01*
X2023328Y483698134D01*
X2379719Y484054525D01*
X2392110Y484065391D01*
X2409604Y484078814D01*
X2409607Y484078817D01*
X2416157Y484083843D01*
X2429027Y484100615D01*
X2439637Y484114443D01*
X2439640Y484114446D01*
X2504657Y484199179D01*
X2509686Y484205733D01*
X2568481Y484347676D01*
X2588535Y484500000D01*
X2587902Y484504810D01*
X2607459Y484571416D01*
X2661115Y484617909D01*
X2731389Y484628013D01*
X2739654Y484626542D01*
G37*
%TD.AperFunction*%
%TA.AperFunction,Conductor*%
G36*
X3000000Y486408500D02*
G01*
X2904513Y486408500D01*
X2898061Y486407128D01*
X2898056Y486407128D01*
X2811113Y486388647D01*
X2717712Y486368794D01*
X2711682Y486366109D01*
X2711681Y486366109D01*
X2549278Y486293803D01*
X2549276Y486293802D01*
X2543248Y486291118D01*
X2510356Y486267220D01*
X2443490Y486243363D01*
X2401146Y486248160D01*
X2335536Y486267221D01*
X2278431Y486283812D01*
X2278426Y486283813D01*
X2272254Y486285606D01*
X2265849Y486286110D01*
X2265844Y486286111D01*
X2237940Y486288307D01*
X2237932Y486288307D01*
X2235484Y486288500D01*
X1764516Y486288500D01*
X1762068Y486288307D01*
X1762060Y486288307D01*
X1734156Y486286111D01*
X1734151Y486286110D01*
X1727746Y486285606D01*
X1664464Y486267221D01*
X1578016Y486242106D01*
X1578014Y486242105D01*
X1570403Y486239894D01*
X1563581Y486235859D01*
X1556303Y486232710D01*
X1555722Y486234053D01*
X1495315Y486218731D01*
X1444149Y486233755D01*
X1443697Y486232710D01*
X1436419Y486235859D01*
X1429597Y486239894D01*
X1421986Y486242105D01*
X1421984Y486242106D01*
X1335536Y486267221D01*
X1272254Y486285606D01*
X1265849Y486286110D01*
X1265844Y486286111D01*
X1237940Y486288307D01*
X1237932Y486288307D01*
X1235484Y486288500D01*
X764516Y486288500D01*
X762068Y486288307D01*
X762060Y486288307D01*
X734156Y486286111D01*
X734151Y486286110D01*
X727746Y486285606D01*
X664464Y486267221D01*
X578016Y486242106D01*
X578014Y486242105D01*
X570403Y486239894D01*
X563581Y486235859D01*
X563580Y486235859D01*
X546617Y486225827D01*
X429371Y486156488D01*
X313512Y486040629D01*
X230106Y485899597D01*
X184394Y485742254D01*
X181500Y485705484D01*
X181500Y485294516D01*
X184394Y485257746D01*
X230106Y485100403D01*
X313512Y484959371D01*
X429371Y484843512D01*
X570403Y484760106D01*
X578014Y484757895D01*
X578016Y484757894D01*
X628995Y484743084D01*
X727746Y484714394D01*
X734151Y484713890D01*
X734156Y484713889D01*
X762060Y484711693D01*
X762068Y484711693D01*
X764516Y484711500D01*
X1082115Y484711500D01*
X1150236Y484691498D01*
X1196729Y484637842D01*
X1206833Y484567568D01*
X1177339Y484502988D01*
X1171211Y484496405D01*
X870212Y484195405D01*
X807899Y484161380D01*
X781116Y484158500D01*
X151866Y484158500D01*
X89684Y484151745D01*
X-46705Y484100615D01*
X-163261Y484013261D01*
X-250615Y483896705D01*
X-301745Y483760316D01*
X-308500Y483698134D01*
X-308500Y483434500D01*
X-328502Y483366379D01*
X-382158Y483319886D01*
X-434500Y483308500D01*
X-1198134Y483308500D01*
X-1260316Y483301745D01*
X-1396705Y483250615D01*
X-1513261Y483163261D01*
X-1600615Y483046705D01*
X-1651745Y482910316D01*
X-1658500Y482848134D01*
X-1658500Y482620293D01*
X-1678502Y482552172D01*
X-1695405Y482531198D01*
X-2155493Y482071110D01*
X-2217805Y482037084D01*
X-2244588Y482034205D01*
X-2290500Y482034205D01*
X-2358621Y482054207D01*
X-2405114Y482107863D01*
X-2416500Y482160205D01*
X-2416500Y487000000D01*
X3000000Y487000000D01*
X3000000Y486408500D01*
G37*
%TD.AperFunction*%
%TD*%
%TA.AperFunction,Conductor*%
%TO.N,GND*%
G36*
X44229Y633365295D02*
G01*
X82289Y633351027D01*
X82291Y633351027D01*
X89684Y633348255D01*
X97532Y633347402D01*
X97534Y633347402D01*
X148469Y633341869D01*
X151866Y633341500D01*
X781117Y633341500D01*
X849238Y633321498D01*
X870212Y633304595D01*
X1129595Y633045212D01*
X1154283Y633000000D01*
X-1076216Y633000000D01*
X-771621Y633304595D01*
X-709309Y633338621D01*
X-682526Y633341500D01*
X-151866Y633341500D01*
X-148469Y633341869D01*
X-97534Y633347402D01*
X-97532Y633347402D01*
X-89684Y633348255D01*
X-82291Y633351027D01*
X-82289Y633351027D01*
X-44229Y633365295D01*
X26578Y633370478D01*
X44229Y633365295D01*
G37*
%TD.AperFunction*%
%TA.AperFunction,Conductor*%
G36*
X1088638Y635984542D02*
G01*
X1074317Y635970221D01*
X1059284Y635957381D01*
X1042893Y635945472D01*
X1016516Y635913587D01*
X1014712Y635911407D01*
X1006722Y635902626D01*
X799499Y635695404D01*
X737187Y635661379D01*
X710404Y635658500D01*
X151866Y635658500D01*
X148469Y635658131D01*
X97534Y635652598D01*
X97532Y635652598D01*
X89684Y635651745D01*
X82291Y635648973D01*
X82289Y635648973D01*
X44229Y635634705D01*
X-26578Y635629522D01*
X-44229Y635634705D01*
X-82289Y635648973D01*
X-82291Y635648973D01*
X-89684Y635651745D01*
X-97532Y635652598D01*
X-97534Y635652598D01*
X-148469Y635658131D01*
X-151866Y635658500D01*
X-1198134Y635658500D01*
X-1260316Y635651745D01*
X-1396705Y635600615D01*
X-1513261Y635513261D01*
X-1600615Y635396705D01*
X-1651745Y635260316D01*
X-1658500Y635198134D01*
X-1658500Y634651866D01*
X-1651745Y634589684D01*
X-1648973Y634582291D01*
X-1648973Y634582289D01*
X-1634705Y634544229D01*
X-1629522Y634473422D01*
X-1634705Y634455771D01*
X-1651745Y634410316D01*
X-1658500Y634348134D01*
X-1658500Y634120294D01*
X-1678502Y634052173D01*
X-1695405Y634031199D01*
X-2000000Y633726604D01*
X-2000000Y636000000D01*
X1114776Y636000000D01*
X1088638Y635984542D01*
G37*
%TD.AperFunction*%
%TA.AperFunction,Conductor*%
G36*
X2000000Y633825193D02*
G01*
X1695405Y634129788D01*
X1661379Y634192100D01*
X1658500Y634218883D01*
X1658500Y634348134D01*
X1651745Y634410316D01*
X1634705Y634455771D01*
X1629522Y634526578D01*
X1634705Y634544229D01*
X1648973Y634582289D01*
X1648973Y634582291D01*
X1651745Y634589684D01*
X1658500Y634651866D01*
X1658500Y634710406D01*
X1678502Y634778527D01*
X1695405Y634799501D01*
X1705499Y634809595D01*
X1767811Y634843621D01*
X1794594Y634846500D01*
X2000000Y634846500D01*
X2000000Y633825193D01*
G37*
%TD.AperFunction*%
%TD*%
%TA.AperFunction,Conductor*%
%TO.N,GND*%
G36*
X44229Y73365295D02*
G01*
X82289Y73351027D01*
X82291Y73351027D01*
X89684Y73348255D01*
X97532Y73347402D01*
X97534Y73347402D01*
X148469Y73341869D01*
X151866Y73341500D01*
X682527Y73341500D01*
X750648Y73321498D01*
X771622Y73304595D01*
X1399595Y72676622D01*
X1433621Y72614310D01*
X1436500Y72587527D01*
X1436500Y72000000D01*
X-2174807Y72000000D01*
X-1560496Y72614310D01*
X-870211Y73304595D01*
X-807899Y73338621D01*
X-781116Y73341500D01*
X-151866Y73341500D01*
X-148469Y73341869D01*
X-97534Y73347402D01*
X-97532Y73347402D01*
X-89684Y73348255D01*
X-82291Y73351027D01*
X-82289Y73351027D01*
X-44229Y73365295D01*
X26578Y73370478D01*
X44229Y73365295D01*
G37*
%TD.AperFunction*%
%TA.AperFunction,Conductor*%
G36*
X2790014Y75840187D02*
G01*
X2808330Y75826489D01*
X2808833Y75826036D01*
X2813247Y75821134D01*
X2967748Y75708882D01*
X2973776Y75706198D01*
X2973778Y75706197D01*
X3096080Y75651745D01*
X3142212Y75631206D01*
X3235612Y75611353D01*
X3322556Y75592872D01*
X3322561Y75592872D01*
X3329013Y75591500D01*
X3519987Y75591500D01*
X3526439Y75592872D01*
X3526444Y75592872D01*
X3613388Y75611353D01*
X3706788Y75631206D01*
X3752920Y75651745D01*
X3875222Y75706197D01*
X3875224Y75706198D01*
X3881252Y75708882D01*
X3925000Y75740667D01*
X3925000Y72158500D01*
X3904513Y72158500D01*
X3898061Y72157128D01*
X3898056Y72157128D01*
X3811112Y72138647D01*
X3717712Y72118794D01*
X3711682Y72116109D01*
X3711681Y72116109D01*
X3549278Y72043803D01*
X3549276Y72043802D01*
X3543248Y72041118D01*
X3537907Y72037237D01*
X3532189Y72033936D01*
X3531463Y72035193D01*
X3471727Y72013880D01*
X3414498Y72024037D01*
X3409413Y72026237D01*
X3402596Y72030269D01*
X3394990Y72032479D01*
X3394987Y72032480D01*
X3256630Y72072676D01*
X3246466Y72075629D01*
X3240059Y72076133D01*
X3240055Y72076134D01*
X3212444Y72078307D01*
X3212438Y72078307D01*
X3209989Y72078500D01*
X3010122Y72078500D01*
X2810012Y72078499D01*
X2773534Y72075629D01*
X2764650Y72073048D01*
X2763080Y72073053D01*
X2761018Y72072676D01*
X2760948Y72073059D01*
X2693654Y72073252D01*
X2634039Y72111808D01*
X2604731Y72176473D01*
X2603500Y72194046D01*
X2603500Y72834907D01*
X2604578Y72851354D01*
X2607457Y72873222D01*
X2608535Y72881410D01*
X2588481Y73033734D01*
X2529686Y73175678D01*
X2459639Y73266964D01*
X2436157Y73297567D01*
X2412097Y73316029D01*
X2399707Y73326896D01*
X1695405Y74031198D01*
X1661379Y74093510D01*
X1658500Y74120293D01*
X1658500Y74348134D01*
X1651745Y74410316D01*
X1634705Y74455771D01*
X1629522Y74526578D01*
X1634705Y74544229D01*
X1648973Y74582289D01*
X1648973Y74582291D01*
X1651745Y74589684D01*
X1658500Y74651866D01*
X1658500Y74682526D01*
X1678502Y74750647D01*
X1695405Y74771621D01*
X2392247Y75468463D01*
X2400537Y75476007D01*
X2407018Y75480120D01*
X2453659Y75529788D01*
X2456413Y75532629D01*
X2476134Y75552350D01*
X2478612Y75555545D01*
X2486318Y75564567D01*
X2511158Y75591019D01*
X2516586Y75596799D01*
X2526346Y75614552D01*
X2537199Y75631075D01*
X2544753Y75640814D01*
X2549613Y75647079D01*
X2567176Y75687663D01*
X2572383Y75698293D01*
X2593695Y75737060D01*
X2595666Y75744737D01*
X2595668Y75744742D01*
X2598732Y75756678D01*
X2605139Y75775390D01*
X2608387Y75782895D01*
X2653799Y75837468D01*
X2721507Y75858826D01*
X2790014Y75840187D01*
G37*
%TD.AperFunction*%
%TA.AperFunction,Conductor*%
G36*
X3925000Y77259333D02*
G01*
X3886594Y77287237D01*
X3886593Y77287238D01*
X3881252Y77291118D01*
X3875224Y77293802D01*
X3875222Y77293803D01*
X3712819Y77366109D01*
X3712818Y77366109D01*
X3706788Y77368794D01*
X3613387Y77388647D01*
X3526444Y77407128D01*
X3526439Y77407128D01*
X3519987Y77408500D01*
X3329013Y77408500D01*
X3322561Y77407128D01*
X3322556Y77407128D01*
X3235613Y77388647D01*
X3142212Y77368794D01*
X3136182Y77366109D01*
X3136181Y77366109D01*
X2973778Y77293803D01*
X2973776Y77293802D01*
X2967748Y77291118D01*
X2962407Y77287238D01*
X2962406Y77287237D01*
X2916322Y77253755D01*
X2813247Y77178866D01*
X2811753Y77180922D01*
X2758044Y77155147D01*
X2737740Y77153500D01*
X2641783Y77153500D01*
X2573662Y77173502D01*
X2573501Y77173616D01*
X2570629Y77176488D01*
X2563807Y77180523D01*
X2563805Y77180524D01*
X2436420Y77255859D01*
X2436419Y77255859D01*
X2429597Y77259894D01*
X2421986Y77262105D01*
X2421984Y77262106D01*
X2371005Y77276916D01*
X2272254Y77305606D01*
X2265849Y77306110D01*
X2265844Y77306111D01*
X2237940Y77308307D01*
X2237932Y77308307D01*
X2235484Y77308500D01*
X1764516Y77308500D01*
X1762068Y77308307D01*
X1762060Y77308307D01*
X1734156Y77306111D01*
X1734151Y77306110D01*
X1727746Y77305606D01*
X1628995Y77276916D01*
X1578016Y77262106D01*
X1578014Y77262105D01*
X1570403Y77259894D01*
X1563581Y77255859D01*
X1556303Y77252710D01*
X1555722Y77254053D01*
X1495315Y77238731D01*
X1444149Y77253755D01*
X1443697Y77252710D01*
X1436419Y77255859D01*
X1429597Y77259894D01*
X1421986Y77262105D01*
X1421984Y77262106D01*
X1371005Y77276916D01*
X1272254Y77305606D01*
X1265849Y77306110D01*
X1265844Y77306111D01*
X1237940Y77308307D01*
X1237932Y77308307D01*
X1235484Y77308500D01*
X764516Y77308500D01*
X762068Y77308307D01*
X762060Y77308307D01*
X734156Y77306111D01*
X734151Y77306110D01*
X727746Y77305606D01*
X628995Y77276916D01*
X578016Y77262106D01*
X578014Y77262105D01*
X570403Y77259894D01*
X563581Y77255859D01*
X563580Y77255859D01*
X436192Y77180522D01*
X429371Y77176488D01*
X313512Y77060629D01*
X230106Y76919597D01*
X184394Y76762254D01*
X181500Y76725484D01*
X181500Y76314516D01*
X181693Y76312068D01*
X181693Y76312060D01*
X181850Y76310072D01*
X184394Y76277746D01*
X230106Y76120403D01*
X313512Y75979371D01*
X419288Y75873595D01*
X453314Y75811283D01*
X448249Y75740468D01*
X405702Y75683632D01*
X339182Y75658821D01*
X330193Y75658500D01*
X151866Y75658500D01*
X148469Y75658131D01*
X97534Y75652598D01*
X97532Y75652598D01*
X89684Y75651745D01*
X82291Y75648973D01*
X82289Y75648973D01*
X44229Y75634705D01*
X-26578Y75629522D01*
X-44229Y75634705D01*
X-82289Y75648973D01*
X-82291Y75648973D01*
X-89684Y75651745D01*
X-97532Y75652598D01*
X-97534Y75652598D01*
X-148469Y75658131D01*
X-151866Y75658500D01*
X-1198134Y75658500D01*
X-1260316Y75651745D01*
X-1396705Y75600615D01*
X-1513261Y75513261D01*
X-1600615Y75396705D01*
X-1651745Y75260316D01*
X-1658500Y75198134D01*
X-1658500Y74651866D01*
X-1651745Y74589684D01*
X-1648973Y74582291D01*
X-1648973Y74582289D01*
X-1634705Y74544229D01*
X-1629522Y74473422D01*
X-1634705Y74455771D01*
X-1651745Y74410316D01*
X-1658500Y74348134D01*
X-1658500Y74218884D01*
X-1678502Y74150763D01*
X-1695400Y74129794D01*
X-2475000Y73350193D01*
X-2475000Y78500000D01*
X3925000Y78500000D01*
X3925000Y77259333D01*
G37*
%TD.AperFunction*%
%TD*%
%TA.AperFunction,Conductor*%
%TO.N,GND*%
G36*
X44229Y263365295D02*
G01*
X82289Y263351027D01*
X82291Y263351027D01*
X89684Y263348255D01*
X97532Y263347402D01*
X97534Y263347402D01*
X148469Y263341869D01*
X151866Y263341500D01*
X682527Y263341500D01*
X750648Y263321498D01*
X771622Y263304595D01*
X1869595Y262206621D01*
X1903621Y262144309D01*
X1906500Y262117526D01*
X1906500Y262000000D01*
X-2076217Y262000000D01*
X-1431652Y262644564D01*
X-771621Y263304595D01*
X-709309Y263338621D01*
X-682526Y263341500D01*
X-151866Y263341500D01*
X-148469Y263341869D01*
X-97534Y263347402D01*
X-97532Y263347402D01*
X-89684Y263348255D01*
X-82291Y263351027D01*
X-82289Y263351027D01*
X-44229Y263365295D01*
X26578Y263370478D01*
X44229Y263365295D01*
G37*
%TD.AperFunction*%
%TA.AperFunction,Conductor*%
G36*
X2898056Y266092872D02*
G01*
X2898061Y266092872D01*
X2904513Y266091500D01*
X3025000Y266091500D01*
X3025000Y262644564D01*
X3002847Y262698045D01*
X2999686Y262705677D01*
X2929640Y262796964D01*
X2929637Y262796967D01*
X2906157Y262827567D01*
X2882106Y262846022D01*
X2869715Y262856889D01*
X1695405Y264031198D01*
X1661380Y264093510D01*
X1658500Y264120293D01*
X1658500Y264348134D01*
X1658131Y264351531D01*
X1652598Y264402466D01*
X1652598Y264402468D01*
X1651745Y264410316D01*
X1648973Y264417711D01*
X1634705Y264455771D01*
X1629522Y264526578D01*
X1634705Y264544229D01*
X1648973Y264582289D01*
X1648973Y264582291D01*
X1651745Y264589684D01*
X1658500Y264651866D01*
X1658500Y264738285D01*
X1678502Y264806406D01*
X1695405Y264827381D01*
X2392258Y265524233D01*
X2400537Y265531767D01*
X2407018Y265535880D01*
X2453644Y265585532D01*
X2456398Y265588373D01*
X2476135Y265608110D01*
X2478615Y265611307D01*
X2486320Y265620329D01*
X2511159Y265646780D01*
X2516586Y265652559D01*
X2520405Y265659505D01*
X2520407Y265659508D01*
X2526348Y265670314D01*
X2537199Y265686833D01*
X2544758Y265696579D01*
X2549614Y265702839D01*
X2552759Y265710108D01*
X2552762Y265710112D01*
X2567174Y265743417D01*
X2572391Y265754067D01*
X2593695Y265792820D01*
X2598733Y265812443D01*
X2605137Y265831146D01*
X2610033Y265842460D01*
X2610033Y265842461D01*
X2613181Y265849735D01*
X2614420Y265857558D01*
X2614423Y265857568D01*
X2620099Y265893404D01*
X2622505Y265905024D01*
X2631528Y265940169D01*
X2631528Y265940170D01*
X2633500Y265947850D01*
X2633500Y265968104D01*
X2635051Y265987815D01*
X2638220Y266007823D01*
X2640397Y266007478D01*
X2659004Y266064210D01*
X2714089Y266109000D01*
X2789013Y266116050D01*
X2898056Y266092872D01*
G37*
%TD.AperFunction*%
%TA.AperFunction,Conductor*%
G36*
X3025000Y267908500D02*
G01*
X2904513Y267908500D01*
X2898061Y267907128D01*
X2898056Y267907128D01*
X2811112Y267888647D01*
X2717712Y267868794D01*
X2711682Y267866109D01*
X2711681Y267866109D01*
X2549278Y267793803D01*
X2549276Y267793802D01*
X2543248Y267791118D01*
X2530024Y267781510D01*
X2463159Y267757650D01*
X2420810Y267762447D01*
X2335478Y267787238D01*
X2278431Y267803812D01*
X2278426Y267803813D01*
X2272254Y267805606D01*
X2265849Y267806110D01*
X2265844Y267806111D01*
X2237940Y267808307D01*
X2237932Y267808307D01*
X2235484Y267808500D01*
X1764516Y267808500D01*
X1762068Y267808307D01*
X1762060Y267808307D01*
X1734156Y267806111D01*
X1734151Y267806110D01*
X1727746Y267805606D01*
X1644810Y267781511D01*
X1578016Y267762106D01*
X1578014Y267762105D01*
X1570403Y267759894D01*
X1563581Y267755859D01*
X1556303Y267752710D01*
X1555722Y267754053D01*
X1495315Y267738731D01*
X1444149Y267753755D01*
X1443697Y267752710D01*
X1436419Y267755859D01*
X1429597Y267759894D01*
X1421986Y267762105D01*
X1421984Y267762106D01*
X1355190Y267781511D01*
X1272254Y267805606D01*
X1265849Y267806110D01*
X1265844Y267806111D01*
X1237940Y267808307D01*
X1237932Y267808307D01*
X1235484Y267808500D01*
X764516Y267808500D01*
X762068Y267808307D01*
X762060Y267808307D01*
X734156Y267806111D01*
X734151Y267806110D01*
X727746Y267805606D01*
X644810Y267781511D01*
X578016Y267762106D01*
X578014Y267762105D01*
X570403Y267759894D01*
X563581Y267755859D01*
X563580Y267755859D01*
X534618Y267738731D01*
X429371Y267676488D01*
X313512Y267560629D01*
X230106Y267419597D01*
X184394Y267262254D01*
X181500Y267225484D01*
X181500Y266814516D01*
X181693Y266812068D01*
X181693Y266812060D01*
X181850Y266810072D01*
X184394Y266777746D01*
X230106Y266620403D01*
X313512Y266479371D01*
X429371Y266363512D01*
X570403Y266280106D01*
X578014Y266277895D01*
X578016Y266277894D01*
X628995Y266263084D01*
X727746Y266234394D01*
X734151Y266233890D01*
X734156Y266233889D01*
X762060Y266231693D01*
X762068Y266231693D01*
X764516Y266231500D01*
X1003525Y266231500D01*
X1071646Y266211498D01*
X1118139Y266157842D01*
X1128243Y266087568D01*
X1098749Y266022988D01*
X1092625Y266016410D01*
X771619Y265695404D01*
X709307Y265661379D01*
X682524Y265658500D01*
X151866Y265658500D01*
X89684Y265651745D01*
X-46705Y265600615D01*
X-163261Y265513261D01*
X-250615Y265396705D01*
X-301745Y265260316D01*
X-308500Y265198134D01*
X-308500Y264934500D01*
X-328502Y264866379D01*
X-382158Y264819886D01*
X-434500Y264808500D01*
X-1198134Y264808500D01*
X-1260316Y264801745D01*
X-1396705Y264750615D01*
X-1513261Y264663261D01*
X-1600615Y264546705D01*
X-1651745Y264410316D01*
X-1658500Y264348134D01*
X-1658500Y264120294D01*
X-1678502Y264052173D01*
X-1695400Y264031204D01*
X-2475000Y263251603D01*
X-2475000Y268500000D01*
X3025000Y268500000D01*
X3025000Y267908500D01*
G37*
%TD.AperFunction*%
%TD*%
%TA.AperFunction,Conductor*%
%TO.N,GND*%
G36*
X44229Y185644295D02*
G01*
X82289Y185630027D01*
X82291Y185630027D01*
X89684Y185627255D01*
X97532Y185626402D01*
X97534Y185626402D01*
X148469Y185620869D01*
X151866Y185620500D01*
X781116Y185620500D01*
X849237Y185600498D01*
X870212Y185583595D01*
X1619596Y184834210D01*
X1653621Y184771898D01*
X1656500Y184745115D01*
X1656500Y184250000D01*
X-2105217Y184250000D01*
X-771622Y185583595D01*
X-709310Y185617621D01*
X-682527Y185620500D01*
X-151866Y185620500D01*
X-148469Y185620869D01*
X-97534Y185626402D01*
X-97532Y185626402D01*
X-89684Y185627255D01*
X-82291Y185630027D01*
X-82289Y185630027D01*
X-44229Y185644295D01*
X26578Y185649478D01*
X44229Y185644295D01*
G37*
%TD.AperFunction*%
%TA.AperFunction,Conductor*%
G36*
X2727429Y188129141D02*
G01*
X2786183Y188116652D01*
X2898056Y188092872D01*
X2898061Y188092872D01*
X2904513Y188091500D01*
X3025000Y188091500D01*
X3025000Y184325744D01*
X3023534Y184325629D01*
X2984653Y184314333D01*
X2913657Y184314536D01*
X2854040Y184353090D01*
X2824732Y184417755D01*
X2823500Y184435330D01*
X2823500Y184992497D01*
X2824578Y185008944D01*
X2827457Y185030812D01*
X2828535Y185039000D01*
X2808481Y185191324D01*
X2749686Y185333267D01*
X2679640Y185424554D01*
X2679637Y185424557D01*
X2656157Y185455157D01*
X2649607Y185460183D01*
X2649604Y185460186D01*
X2632110Y185473609D01*
X2619719Y185484475D01*
X1695405Y186408788D01*
X1661380Y186471101D01*
X1658500Y186497884D01*
X1658500Y186627134D01*
X1651745Y186689316D01*
X1634705Y186734771D01*
X1629522Y186805578D01*
X1634705Y186823229D01*
X1648973Y186861289D01*
X1648973Y186861291D01*
X1651745Y186868684D01*
X1658500Y186930866D01*
X1658500Y187017285D01*
X1678502Y187085406D01*
X1695405Y187106381D01*
X2392258Y187803233D01*
X2400537Y187810767D01*
X2407018Y187814880D01*
X2453644Y187864532D01*
X2456398Y187867373D01*
X2476135Y187887110D01*
X2478615Y187890307D01*
X2486320Y187899329D01*
X2511159Y187925780D01*
X2516586Y187931559D01*
X2520405Y187938505D01*
X2520407Y187938508D01*
X2526348Y187949314D01*
X2537199Y187965833D01*
X2544758Y187975579D01*
X2549614Y187981839D01*
X2552759Y187989108D01*
X2552762Y187989112D01*
X2567174Y188022417D01*
X2572396Y188033077D01*
X2590821Y188066593D01*
X2641165Y188116652D01*
X2710582Y188131546D01*
X2727429Y188129141D01*
G37*
%TD.AperFunction*%
%TA.AperFunction,Conductor*%
G36*
X3025000Y189908500D02*
G01*
X2904513Y189908500D01*
X2898061Y189907128D01*
X2898056Y189907128D01*
X2811113Y189888647D01*
X2717712Y189868794D01*
X2711682Y189866109D01*
X2711681Y189866109D01*
X2549278Y189793803D01*
X2549276Y189793802D01*
X2543248Y189791118D01*
X2530024Y189781510D01*
X2463159Y189757650D01*
X2420810Y189762447D01*
X2335478Y189787238D01*
X2278431Y189803812D01*
X2278426Y189803813D01*
X2272254Y189805606D01*
X2265849Y189806110D01*
X2265844Y189806111D01*
X2237940Y189808307D01*
X2237932Y189808307D01*
X2235484Y189808500D01*
X1764516Y189808500D01*
X1762068Y189808307D01*
X1762060Y189808307D01*
X1734156Y189806111D01*
X1734151Y189806110D01*
X1727746Y189805606D01*
X1644810Y189781511D01*
X1578016Y189762106D01*
X1578014Y189762105D01*
X1570403Y189759894D01*
X1563581Y189755859D01*
X1556303Y189752710D01*
X1555722Y189754053D01*
X1495315Y189738731D01*
X1444149Y189753755D01*
X1443697Y189752710D01*
X1436419Y189755859D01*
X1429597Y189759894D01*
X1421986Y189762105D01*
X1421984Y189762106D01*
X1355190Y189781511D01*
X1272254Y189805606D01*
X1265849Y189806110D01*
X1265844Y189806111D01*
X1237940Y189808307D01*
X1237932Y189808307D01*
X1235484Y189808500D01*
X764516Y189808500D01*
X762068Y189808307D01*
X762060Y189808307D01*
X734156Y189806111D01*
X734151Y189806110D01*
X727746Y189805606D01*
X644810Y189781511D01*
X578016Y189762106D01*
X578014Y189762105D01*
X570403Y189759894D01*
X563581Y189755859D01*
X563580Y189755859D01*
X534618Y189738731D01*
X429371Y189676488D01*
X313512Y189560629D01*
X230106Y189419597D01*
X184394Y189262254D01*
X181500Y189225484D01*
X181500Y188814516D01*
X181693Y188812068D01*
X181693Y188812060D01*
X181850Y188810072D01*
X184394Y188777746D01*
X230106Y188620403D01*
X313512Y188479371D01*
X429371Y188363512D01*
X570403Y188280106D01*
X578014Y188277895D01*
X578016Y188277894D01*
X628995Y188263084D01*
X727746Y188234394D01*
X734157Y188233889D01*
X734165Y188233888D01*
X736971Y188233667D01*
X738440Y188233107D01*
X740499Y188232731D01*
X740429Y188232349D01*
X803311Y188208380D01*
X845449Y188151241D01*
X850006Y188080391D01*
X816175Y188018960D01*
X771618Y187974404D01*
X709306Y187940379D01*
X682524Y187937500D01*
X151866Y187937500D01*
X148469Y187937131D01*
X97534Y187931598D01*
X97532Y187931598D01*
X89684Y187930745D01*
X82291Y187927973D01*
X82289Y187927973D01*
X44229Y187913705D01*
X-26578Y187908522D01*
X-44229Y187913705D01*
X-82289Y187927973D01*
X-82291Y187927973D01*
X-89684Y187930745D01*
X-97532Y187931598D01*
X-97534Y187931598D01*
X-148469Y187937131D01*
X-151866Y187937500D01*
X-1198134Y187937500D01*
X-1260316Y187930745D01*
X-1396705Y187879615D01*
X-1513261Y187792261D01*
X-1600615Y187675705D01*
X-1651745Y187539316D01*
X-1658500Y187477134D01*
X-1658500Y186930866D01*
X-1651745Y186868684D01*
X-1648973Y186861291D01*
X-1648973Y186861289D01*
X-1634705Y186823229D01*
X-1629522Y186752422D01*
X-1634705Y186734771D01*
X-1651745Y186689316D01*
X-1658500Y186627134D01*
X-1658500Y186399293D01*
X-1678502Y186331172D01*
X-1695405Y186310198D01*
X-2475000Y185530603D01*
X-2475000Y190750000D01*
X3025000Y190750000D01*
X3025000Y189908500D01*
G37*
%TD.AperFunction*%
%TD*%
%TA.AperFunction,Conductor*%
%TO.N,GND*%
G36*
X44229Y123365295D02*
G01*
X82289Y123351027D01*
X82291Y123351027D01*
X89684Y123348255D01*
X97532Y123347402D01*
X97534Y123347402D01*
X148469Y123341869D01*
X151866Y123341500D01*
X682527Y123341500D01*
X750648Y123321498D01*
X771622Y123304595D01*
X1619595Y122456622D01*
X1653621Y122394310D01*
X1656500Y122367527D01*
X1656500Y122000000D01*
X-2171445Y122000000D01*
X-2165382Y122007902D01*
X-2154514Y122020293D01*
X-870211Y123304595D01*
X-807899Y123338621D01*
X-781116Y123341500D01*
X-151866Y123341500D01*
X-148469Y123341869D01*
X-97534Y123347402D01*
X-97532Y123347402D01*
X-89684Y123348255D01*
X-82291Y123351027D01*
X-82289Y123351027D01*
X-44229Y123365295D01*
X26578Y123370478D01*
X44229Y123365295D01*
G37*
%TD.AperFunction*%
%TA.AperFunction,Conductor*%
G36*
X2632598Y125668501D02*
G01*
X2643545Y125664227D01*
X2711676Y125633893D01*
X2711679Y125633892D01*
X2717712Y125631206D01*
X2759340Y125622358D01*
X2898056Y125592872D01*
X2898061Y125592872D01*
X2904513Y125591500D01*
X3025000Y125591500D01*
X3025000Y122000000D01*
X2823500Y122000000D01*
X2823500Y122614907D01*
X2824578Y122631354D01*
X2827457Y122653222D01*
X2828535Y122661410D01*
X2808481Y122813734D01*
X2749686Y122955678D01*
X2679639Y123046964D01*
X2656157Y123077567D01*
X2632097Y123096029D01*
X2619707Y123106896D01*
X1695405Y124031198D01*
X1661379Y124093510D01*
X1658500Y124120293D01*
X1658500Y124348134D01*
X1658131Y124351531D01*
X1652598Y124402466D01*
X1652598Y124402468D01*
X1651745Y124410316D01*
X1648973Y124417711D01*
X1634705Y124455771D01*
X1629522Y124526578D01*
X1634705Y124544229D01*
X1648973Y124582289D01*
X1648973Y124582291D01*
X1651745Y124589684D01*
X1658500Y124651866D01*
X1658500Y124738285D01*
X1678502Y124806406D01*
X1695405Y124827381D01*
X2392258Y125524233D01*
X2400537Y125531767D01*
X2407018Y125535880D01*
X2453644Y125585532D01*
X2456398Y125588373D01*
X2476135Y125608110D01*
X2478615Y125611307D01*
X2486319Y125620328D01*
X2496534Y125631206D01*
X2500447Y125635373D01*
X2561659Y125671338D01*
X2632598Y125668501D01*
G37*
%TD.AperFunction*%
%TA.AperFunction,Conductor*%
G36*
X3025000Y127408500D02*
G01*
X2904513Y127408500D01*
X2898061Y127407128D01*
X2898056Y127407128D01*
X2811112Y127388647D01*
X2717712Y127368794D01*
X2711682Y127366109D01*
X2711681Y127366109D01*
X2549278Y127293803D01*
X2549276Y127293802D01*
X2543248Y127291118D01*
X2530024Y127281510D01*
X2463159Y127257650D01*
X2420810Y127262447D01*
X2335478Y127287238D01*
X2278431Y127303812D01*
X2278426Y127303813D01*
X2272254Y127305606D01*
X2265849Y127306110D01*
X2265844Y127306111D01*
X2237940Y127308307D01*
X2237932Y127308307D01*
X2235484Y127308500D01*
X1764516Y127308500D01*
X1762068Y127308307D01*
X1762060Y127308307D01*
X1734156Y127306111D01*
X1734151Y127306110D01*
X1727746Y127305606D01*
X1644810Y127281511D01*
X1578016Y127262106D01*
X1578014Y127262105D01*
X1570403Y127259894D01*
X1563581Y127255859D01*
X1556303Y127252710D01*
X1555722Y127254053D01*
X1495315Y127238731D01*
X1444149Y127253755D01*
X1443697Y127252710D01*
X1436419Y127255859D01*
X1429597Y127259894D01*
X1421986Y127262105D01*
X1421984Y127262106D01*
X1355190Y127281511D01*
X1272254Y127305606D01*
X1265849Y127306110D01*
X1265844Y127306111D01*
X1237940Y127308307D01*
X1237932Y127308307D01*
X1235484Y127308500D01*
X764516Y127308500D01*
X762068Y127308307D01*
X762060Y127308307D01*
X734156Y127306111D01*
X734151Y127306110D01*
X727746Y127305606D01*
X644810Y127281511D01*
X578016Y127262106D01*
X578014Y127262105D01*
X570403Y127259894D01*
X563581Y127255859D01*
X563580Y127255859D01*
X534618Y127238731D01*
X429371Y127176488D01*
X313512Y127060629D01*
X230106Y126919597D01*
X184394Y126762254D01*
X181500Y126725484D01*
X181500Y126314516D01*
X181693Y126312068D01*
X181693Y126312060D01*
X181850Y126310072D01*
X184394Y126277746D01*
X230106Y126120403D01*
X313512Y125979371D01*
X419288Y125873595D01*
X453314Y125811283D01*
X448249Y125740468D01*
X405702Y125683632D01*
X339182Y125658821D01*
X330193Y125658500D01*
X151866Y125658500D01*
X89684Y125651745D01*
X-46705Y125600615D01*
X-163261Y125513261D01*
X-250615Y125396705D01*
X-301745Y125260316D01*
X-308500Y125198134D01*
X-308500Y124934500D01*
X-328502Y124866379D01*
X-382158Y124819886D01*
X-434500Y124808500D01*
X-1198134Y124808500D01*
X-1260316Y124801745D01*
X-1396705Y124750615D01*
X-1513261Y124663261D01*
X-1600615Y124546705D01*
X-1651745Y124410316D01*
X-1658500Y124348134D01*
X-1658500Y124218884D01*
X-1678502Y124150763D01*
X-1695400Y124129794D01*
X-2475000Y123350193D01*
X-2475000Y128500000D01*
X3025000Y128500000D01*
X3025000Y127408500D01*
G37*
%TD.AperFunction*%
%TD*%
%TA.AperFunction,Conductor*%
%TO.N,GND*%
G36*
X70003Y33695722D02*
G01*
X111449Y33668028D01*
X111452Y33668027D01*
X121769Y33661133D01*
X133938Y33658712D01*
X133939Y33658712D01*
X174184Y33650707D01*
X180252Y33649500D01*
X1007284Y33649500D01*
X1075405Y33629498D01*
X1096379Y33612595D01*
X1326523Y33382451D01*
X1342193Y33363359D01*
X1350671Y33350671D01*
X1360984Y33343780D01*
X1373672Y33335302D01*
X1372083Y33332925D01*
X1372086Y33332923D01*
X1373675Y33335300D01*
X1390021Y33324378D01*
X1441800Y33289780D01*
X1522162Y33273795D01*
X1537123Y33270819D01*
X1537124Y33270819D01*
X1549295Y33268398D01*
X1564256Y33271374D01*
X1588838Y33273795D01*
X2759752Y33273795D01*
X2784334Y33271374D01*
X2799295Y33268398D01*
X2826427Y33273795D01*
X2826428Y33273795D01*
X2906790Y33289780D01*
X2958569Y33324378D01*
X2974915Y33335300D01*
X2977482Y33331459D01*
X2977485Y33331461D01*
X2974918Y33335302D01*
X2987606Y33343780D01*
X2997919Y33350671D01*
X3006397Y33363359D01*
X3022067Y33382451D01*
X3306487Y33666871D01*
X3368799Y33700897D01*
X3439614Y33695832D01*
X3496450Y33653285D01*
X3521261Y33586765D01*
X3520316Y33559958D01*
X3494958Y33382451D01*
X3341562Y32308681D01*
X3312127Y32244074D01*
X3252435Y32205636D01*
X3216828Y32200500D01*
X-3216827Y32200500D01*
X-3284948Y32220502D01*
X-3331441Y32274158D01*
X-3341561Y32308681D01*
X-3391346Y32657171D01*
X-3436982Y32976624D01*
X-3426814Y33046888D01*
X-3380273Y33100501D01*
X-3312134Y33120442D01*
X-3244032Y33100378D01*
X-3223153Y33083537D01*
X-3222772Y33083156D01*
X-3207102Y33064064D01*
X-3198624Y33051376D01*
X-3175623Y33036007D01*
X-3175622Y33036006D01*
X-3107495Y32990485D01*
X-3062656Y32981566D01*
X-3027140Y32974501D01*
X-3027135Y32974500D01*
X-3027132Y32974500D01*
X-3027124Y32974499D01*
X-3000000Y32969104D01*
X-2985043Y32972079D01*
X-2960463Y32974500D01*
X-1690953Y32974500D01*
X-1666371Y32972079D01*
X-1651410Y32969103D01*
X-1624278Y32974500D01*
X-1624277Y32974500D01*
X-1543915Y32990485D01*
X-1501945Y33018529D01*
X-1501945Y33018528D01*
X-1501942Y33018531D01*
X-1475788Y33036006D01*
X-1473221Y33032165D01*
X-1473220Y33032166D01*
X-1475787Y33036007D01*
X-1463099Y33044485D01*
X-1452786Y33051376D01*
X-1444308Y33064064D01*
X-1428638Y33083156D01*
X-899199Y33612595D01*
X-836887Y33646621D01*
X-810104Y33649500D01*
X-180252Y33649500D01*
X-174184Y33650707D01*
X-133939Y33658712D01*
X-133938Y33658712D01*
X-121769Y33661133D01*
X-111452Y33668027D01*
X-111449Y33668028D01*
X-70003Y33695722D01*
X-2251Y33716938D01*
X70003Y33695722D01*
G37*
%TD.AperFunction*%
%TA.AperFunction,Conductor*%
G36*
X70003Y73695722D02*
G01*
X111449Y73668028D01*
X111452Y73668027D01*
X121769Y73661133D01*
X133938Y73658712D01*
X133939Y73658712D01*
X174184Y73650707D01*
X180252Y73649500D01*
X810104Y73649500D01*
X878225Y73629498D01*
X899199Y73612595D01*
X1707595Y72804199D01*
X1741621Y72741887D01*
X1744500Y72715104D01*
X1744500Y71833927D01*
X1724498Y71765806D01*
X1678320Y71725471D01*
X1678617Y71725047D01*
X1674674Y71722286D01*
X1671751Y71719733D01*
X1659596Y71714065D01*
X1575935Y71630404D01*
X1571275Y71620412D01*
X1571275Y71620411D01*
X1536209Y71545211D01*
X1525932Y71523173D01*
X1519500Y71474316D01*
X1519500Y71025684D01*
X1525932Y70976827D01*
X1530006Y70968091D01*
X1530006Y70968090D01*
X1542821Y70940608D01*
X1575935Y70869596D01*
X1659596Y70785935D01*
X1669588Y70781275D01*
X1669589Y70781275D01*
X1703001Y70765695D01*
X1756286Y70718778D01*
X1775747Y70650501D01*
X1755205Y70582541D01*
X1701183Y70536475D01*
X1649751Y70525500D01*
X249543Y70525500D01*
X224961Y70527921D01*
X222171Y70528476D01*
X210000Y70530897D01*
X102505Y70509515D01*
X34378Y70463994D01*
X34377Y70463993D01*
X11376Y70448624D01*
X4485Y70438311D01*
X2898Y70435936D01*
X-12772Y70416844D01*
X-701319Y69728297D01*
X-763631Y69694271D01*
X-834446Y69699336D01*
X-850344Y69706557D01*
X-875524Y69720172D01*
X-875525Y69720172D01*
X-880945Y69723103D01*
X-1077746Y69784023D01*
X-1083871Y69784667D01*
X-1083872Y69784667D01*
X-1276502Y69804913D01*
X-1276504Y69804913D01*
X-1282631Y69805557D01*
X-1369471Y69797654D01*
X-1481658Y69787445D01*
X-1481661Y69787444D01*
X-1487797Y69786886D01*
X-1685428Y69728720D01*
X-1867998Y69633274D01*
X-1872799Y69629414D01*
X-1872802Y69629412D01*
X-1965746Y69554683D01*
X-2028553Y69504185D01*
X-2160976Y69346370D01*
X-2163944Y69340972D01*
X-2163947Y69340967D01*
X-2246885Y69190101D01*
X-2260224Y69165838D01*
X-2322516Y68969468D01*
X-2323202Y68963351D01*
X-2323203Y68963347D01*
X-2344793Y68770863D01*
X-2345480Y68764738D01*
X-2328241Y68559447D01*
X-2271456Y68361414D01*
X-2268641Y68355937D01*
X-2268640Y68355934D01*
X-2247753Y68315293D01*
X-2177288Y68178182D01*
X-2049323Y68016730D01*
X-1892436Y67883209D01*
X-1712602Y67782703D01*
X-1628720Y67755448D01*
X-1522529Y67720944D01*
X-1522525Y67720943D01*
X-1516671Y67719041D01*
X-1312106Y67694649D01*
X-1305971Y67695121D01*
X-1305969Y67695121D01*
X-1233375Y67700707D01*
X-1106700Y67710454D01*
X-1100770Y67712110D01*
X-1100768Y67712110D01*
X-914203Y67764200D01*
X-914204Y67764200D01*
X-908275Y67765855D01*
X-902786Y67768628D01*
X-902780Y67768630D01*
X-729884Y67855967D01*
X-724390Y67858742D01*
X-562049Y67985576D01*
X-427436Y68141528D01*
X-406613Y68178182D01*
X-328724Y68315293D01*
X-325677Y68320656D01*
X-260649Y68516137D01*
X-234829Y68720526D01*
X-234417Y68750000D01*
X-254520Y68955030D01*
X-314065Y69152251D01*
X-316954Y69157685D01*
X-316958Y69157694D01*
X-334190Y69190101D01*
X-348510Y69259638D01*
X-322963Y69325879D01*
X-312034Y69338350D01*
X-15595Y69634789D01*
X46717Y69668815D01*
X117532Y69663750D01*
X174368Y69621203D01*
X199179Y69554683D01*
X199500Y69545694D01*
X199500Y67880252D01*
X200707Y67874184D01*
X204331Y67855967D01*
X211133Y67821769D01*
X255448Y67755448D01*
X321769Y67711133D01*
X333938Y67708712D01*
X333939Y67708712D01*
X374184Y67700707D01*
X380252Y67699500D01*
X2119748Y67699500D01*
X2125816Y67700707D01*
X2166061Y67708712D01*
X2166062Y67708712D01*
X2178231Y67711133D01*
X2244552Y67755448D01*
X2288867Y67821769D01*
X2295670Y67855967D01*
X2299293Y67874184D01*
X2300500Y67880252D01*
X2300500Y69619748D01*
X2292118Y69661887D01*
X2291288Y69666061D01*
X2291288Y69666062D01*
X2288867Y69678231D01*
X2244552Y69744552D01*
X2178231Y69788867D01*
X2168494Y69790804D01*
X2114552Y69834272D01*
X2092130Y69901635D01*
X2109687Y69970426D01*
X2148043Y70010896D01*
X2159461Y70018526D01*
X2159462Y70018525D01*
X2159468Y70018531D01*
X2185622Y70036006D01*
X2188189Y70032165D01*
X2188190Y70032166D01*
X2185623Y70036007D01*
X2198311Y70044485D01*
X2208624Y70051376D01*
X2217104Y70064066D01*
X2232771Y70083155D01*
X2842211Y70692595D01*
X2904523Y70726621D01*
X2931306Y70729500D01*
X3184316Y70729500D01*
X3233173Y70735932D01*
X3297000Y70765695D01*
X3330411Y70781275D01*
X3330412Y70781275D01*
X3340404Y70785935D01*
X3385619Y70831150D01*
X3447931Y70865176D01*
X3518746Y70860111D01*
X3563809Y70831150D01*
X3566695Y70828264D01*
X3571718Y70821718D01*
X3697159Y70725464D01*
X3843238Y70664956D01*
X4000000Y70644318D01*
X4008188Y70645396D01*
X4148574Y70663878D01*
X4156762Y70664956D01*
X4302841Y70725464D01*
X4428282Y70821718D01*
X4524536Y70947159D01*
X4557091Y71025754D01*
X4601639Y71081035D01*
X4669003Y71103456D01*
X4737794Y71085898D01*
X4786172Y71033936D01*
X4799500Y70977536D01*
X4799500Y42523205D01*
X4798234Y42505386D01*
X4289810Y38946414D01*
X3906398Y36262533D01*
X3876963Y36197926D01*
X3817271Y36159488D01*
X3746275Y36159424D01*
X3699682Y36187041D01*
X3698624Y36188624D01*
X3685936Y36197102D01*
X3666844Y36212772D01*
X3557405Y36322211D01*
X3523379Y36384523D01*
X3520500Y36411306D01*
X3520500Y36664316D01*
X3514068Y36713173D01*
X3470884Y36805782D01*
X3468725Y36810411D01*
X3468725Y36810412D01*
X3464065Y36820404D01*
X3380404Y36904065D01*
X3381092Y36904753D01*
X3343131Y36952247D01*
X3335823Y37022867D01*
X3367856Y37086226D01*
X3377496Y37094579D01*
X3380404Y37095935D01*
X3464065Y37179596D01*
X3514068Y37286827D01*
X3520500Y37335684D01*
X3520500Y37684316D01*
X3514068Y37733173D01*
X3464065Y37840404D01*
X3380404Y37924065D01*
X3370411Y37928725D01*
X3370408Y37928727D01*
X3348249Y37939060D01*
X3294964Y37985977D01*
X3275500Y38053254D01*
X3275500Y38082481D01*
X3295502Y38150602D01*
X3350251Y38197587D01*
X3434123Y38234930D01*
X3434130Y38234934D01*
X3440161Y38237619D01*
X3445503Y38241500D01*
X3583706Y38341910D01*
X3583708Y38341912D01*
X3589050Y38345793D01*
X3712195Y38482560D01*
X3804214Y38641941D01*
X3861085Y38816971D01*
X3880322Y39000000D01*
X3861085Y39183029D01*
X3804214Y39358059D01*
X3712195Y39517440D01*
X3589050Y39654207D01*
X3583708Y39658088D01*
X3583706Y39658090D01*
X3445503Y39758500D01*
X3445502Y39758501D01*
X3440161Y39762381D01*
X3434133Y39765065D01*
X3434131Y39765066D01*
X3278065Y39834551D01*
X3278064Y39834551D01*
X3272034Y39837236D01*
X3093181Y39875253D01*
X3030707Y39908982D01*
X2998928Y39966528D01*
X2975846Y39915988D01*
X2916120Y39877604D01*
X2906819Y39875253D01*
X2727966Y39837236D01*
X2721936Y39834551D01*
X2721935Y39834551D01*
X2565869Y39765066D01*
X2565867Y39765065D01*
X2559839Y39762381D01*
X2554498Y39758501D01*
X2554497Y39758500D01*
X2416294Y39658090D01*
X2416292Y39658088D01*
X2410950Y39654207D01*
X2287805Y39517440D01*
X2195786Y39358059D01*
X2138915Y39183029D01*
X2138225Y39176465D01*
X2138225Y39176464D01*
X2125310Y39053586D01*
X2102580Y38998339D01*
X2123944Y38955911D01*
X2125310Y38946414D01*
X2138915Y38816971D01*
X2195786Y38641941D01*
X2287805Y38482560D01*
X2410950Y38345793D01*
X2416292Y38341912D01*
X2416294Y38341910D01*
X2554497Y38241500D01*
X2559839Y38237619D01*
X2565870Y38234934D01*
X2565877Y38234930D01*
X2649749Y38197587D01*
X2703845Y38151607D01*
X2724500Y38082481D01*
X2724500Y38053254D01*
X2704498Y37985133D01*
X2651751Y37939060D01*
X2629592Y37928727D01*
X2629589Y37928725D01*
X2619596Y37924065D01*
X2535935Y37840404D01*
X2485932Y37733173D01*
X2479500Y37684316D01*
X2479500Y37335684D01*
X2485932Y37286827D01*
X2535935Y37179596D01*
X2619596Y37095935D01*
X2618908Y37095247D01*
X2656869Y37047753D01*
X2664177Y36977133D01*
X2632144Y36913774D01*
X2622504Y36905421D01*
X2619596Y36904065D01*
X2602631Y36887100D01*
X2540319Y36853074D01*
X2469504Y36858139D01*
X2424441Y36887099D01*
X2368316Y36943224D01*
X2348967Y36952247D01*
X2268224Y36989898D01*
X2268223Y36989898D01*
X2259487Y36993972D01*
X2209901Y37000500D01*
X2000077Y37000500D01*
X1790100Y37000499D01*
X1740513Y36993972D01*
X1731779Y36989899D01*
X1731778Y36989899D01*
X1641677Y36947884D01*
X1631684Y36943224D01*
X1589095Y36900635D01*
X1526783Y36866609D01*
X1455968Y36871674D01*
X1410905Y36900635D01*
X1368316Y36943224D01*
X1348967Y36952247D01*
X1268224Y36989898D01*
X1268223Y36989898D01*
X1259487Y36993972D01*
X1209901Y37000500D01*
X1000077Y37000500D01*
X790100Y37000499D01*
X740513Y36993972D01*
X731779Y36989899D01*
X731778Y36989899D01*
X641677Y36947884D01*
X631684Y36943224D01*
X610846Y36922386D01*
X548534Y36888360D01*
X477719Y36893425D01*
X432955Y36922192D01*
X428282Y36928282D01*
X421736Y36933305D01*
X421734Y36933307D01*
X334869Y36999960D01*
X302841Y37024536D01*
X156762Y37085044D01*
X0Y37105682D01*
X-156762Y37085044D01*
X-302841Y37024536D01*
X-428282Y36928282D01*
X-524536Y36802841D01*
X-585044Y36656762D01*
X-605682Y36500000D01*
X-585044Y36343238D01*
X-524536Y36197159D01*
X-500337Y36165622D01*
X-440007Y36086999D01*
X-428282Y36071718D01*
X-302841Y35975464D01*
X-156762Y35914956D01*
X-148574Y35913878D01*
X-78381Y35904637D01*
X0Y35894318D01*
X8188Y35895396D01*
X148574Y35913878D01*
X156762Y35914956D01*
X302841Y35975464D01*
X428282Y36071718D01*
X440008Y36087000D01*
X497343Y36128868D01*
X568214Y36133092D01*
X613029Y36108275D01*
X614862Y36110893D01*
X623886Y36104574D01*
X631684Y36096776D01*
X641676Y36092117D01*
X641677Y36092116D01*
X706220Y36062019D01*
X740513Y36046028D01*
X790099Y36039500D01*
X999923Y36039500D01*
X1209900Y36039501D01*
X1259487Y36046028D01*
X1303808Y36066695D01*
X1355591Y36090842D01*
X1425783Y36101503D01*
X1490595Y36072523D01*
X1529452Y36013103D01*
X1530015Y35942109D01*
X1497936Y35887552D01*
X997789Y35387405D01*
X935477Y35353379D01*
X908694Y35350500D01*
X180252Y35350500D01*
X174184Y35349293D01*
X133939Y35341288D01*
X133938Y35341288D01*
X121769Y35338867D01*
X55448Y35294552D01*
X11133Y35228231D01*
X-500Y35169748D01*
X-500Y34680252D01*
X707Y34674186D01*
X707Y34674182D01*
X7344Y34640815D01*
X1016Y34570101D01*
X-42539Y34514035D01*
X-109492Y34490416D01*
X-140815Y34492656D01*
X-174182Y34499293D01*
X-174186Y34499293D01*
X-180252Y34500500D01*
X-1169748Y34500500D01*
X-1175816Y34499293D01*
X-1216061Y34491288D01*
X-1216062Y34491288D01*
X-1228231Y34488867D01*
X-1294552Y34444552D01*
X-1338867Y34378231D01*
X-1350500Y34319748D01*
X-1350500Y33992716D01*
X-1370502Y33924595D01*
X-1387405Y33903621D01*
X-1728621Y33562405D01*
X-1790933Y33528379D01*
X-1817716Y33525500D01*
X-2833694Y33525500D01*
X-2901815Y33545502D01*
X-2922789Y33562405D01*
X-2937595Y33577211D01*
X-2971621Y33639523D01*
X-2974500Y33666306D01*
X-2974500Y37460457D01*
X-2972079Y37485039D01*
X-2971524Y37487829D01*
X-2969103Y37500000D01*
X-2990485Y37607494D01*
X-2990485Y37607495D01*
X-3051376Y37698624D01*
X-3064064Y37707102D01*
X-3083156Y37722772D01*
X-3290150Y37929766D01*
X-3324176Y37992078D01*
X-3319111Y38062893D01*
X-3276564Y38119729D01*
X-3210044Y38144540D01*
X-3174858Y38142108D01*
X-3098476Y38125872D01*
X-3098471Y38125872D01*
X-3092019Y38124500D01*
X-2907981Y38124500D01*
X-2901529Y38125872D01*
X-2901524Y38125872D01*
X-2813702Y38144540D01*
X-2727966Y38162764D01*
X-2649752Y38197587D01*
X-2565869Y38234934D01*
X-2565867Y38234935D01*
X-2559839Y38237619D01*
X-2554497Y38241500D01*
X-2416294Y38341910D01*
X-2416292Y38341912D01*
X-2410950Y38345793D01*
X-2287805Y38482560D01*
X-2195786Y38641941D01*
X-2138915Y38816971D01*
X-2125310Y38946414D01*
X-2103947Y38998339D01*
X-1897420Y38998339D01*
X-1876056Y38955911D01*
X-1874690Y38946414D01*
X-1861085Y38816971D01*
X-1804214Y38641941D01*
X-1712195Y38482560D01*
X-1589050Y38345793D01*
X-1583708Y38341912D01*
X-1583706Y38341910D01*
X-1445503Y38241500D01*
X-1440161Y38237619D01*
X-1434133Y38234935D01*
X-1434131Y38234934D01*
X-1350248Y38197587D01*
X-1272034Y38162764D01*
X-1186298Y38144540D01*
X-1098476Y38125872D01*
X-1098471Y38125872D01*
X-1092019Y38124500D01*
X-907981Y38124500D01*
X-901529Y38125872D01*
X-901524Y38125872D01*
X-813702Y38144540D01*
X-727966Y38162764D01*
X-649752Y38197587D01*
X-565869Y38234934D01*
X-565867Y38234935D01*
X-559839Y38237619D01*
X-554497Y38241500D01*
X-416294Y38341910D01*
X-416292Y38341912D01*
X-410950Y38345793D01*
X-287805Y38482560D01*
X-195786Y38641941D01*
X-138915Y38816971D01*
X-125310Y38946414D01*
X-103947Y38998339D01*
X102580Y38998339D01*
X123944Y38955911D01*
X125310Y38946414D01*
X138915Y38816971D01*
X195786Y38641941D01*
X287805Y38482560D01*
X410950Y38345793D01*
X416292Y38341912D01*
X416294Y38341910D01*
X554497Y38241500D01*
X559839Y38237619D01*
X565867Y38234935D01*
X565869Y38234934D01*
X649752Y38197587D01*
X727966Y38162764D01*
X813702Y38144540D01*
X901524Y38125872D01*
X901529Y38125872D01*
X907981Y38124500D01*
X1092019Y38124500D01*
X1098471Y38125872D01*
X1098476Y38125872D01*
X1186298Y38144540D01*
X1272034Y38162764D01*
X1350248Y38197587D01*
X1434131Y38234934D01*
X1434133Y38234935D01*
X1440161Y38237619D01*
X1445503Y38241500D01*
X1583706Y38341910D01*
X1583708Y38341912D01*
X1589050Y38345793D01*
X1712195Y38482560D01*
X1804214Y38641941D01*
X1861085Y38816971D01*
X1874690Y38946414D01*
X1897420Y39001661D01*
X1876056Y39044089D01*
X1874690Y39053586D01*
X1861775Y39176464D01*
X1861775Y39176465D01*
X1861085Y39183029D01*
X1804214Y39358059D01*
X1712195Y39517440D01*
X1589050Y39654207D01*
X1583708Y39658088D01*
X1583706Y39658090D01*
X1445503Y39758500D01*
X1445502Y39758501D01*
X1440161Y39762381D01*
X1434133Y39765065D01*
X1434131Y39765066D01*
X1278065Y39834551D01*
X1278064Y39834551D01*
X1272034Y39837236D01*
X1182026Y39856368D01*
X1098476Y39874128D01*
X1098471Y39874128D01*
X1092019Y39875500D01*
X907981Y39875500D01*
X901529Y39874128D01*
X901524Y39874128D01*
X817974Y39856368D01*
X727966Y39837236D01*
X721936Y39834551D01*
X721935Y39834551D01*
X565869Y39765066D01*
X565867Y39765065D01*
X559839Y39762381D01*
X554498Y39758501D01*
X554497Y39758500D01*
X416294Y39658090D01*
X416292Y39658088D01*
X410950Y39654207D01*
X287805Y39517440D01*
X195786Y39358059D01*
X138915Y39183029D01*
X138225Y39176465D01*
X138225Y39176464D01*
X125310Y39053586D01*
X102580Y38998339D01*
X-103947Y38998339D01*
X-102580Y39001661D01*
X-123944Y39044089D01*
X-125310Y39053586D01*
X-138225Y39176464D01*
X-138225Y39176465D01*
X-138915Y39183029D01*
X-195786Y39358059D01*
X-287805Y39517440D01*
X-410950Y39654207D01*
X-416292Y39658088D01*
X-416294Y39658090D01*
X-554497Y39758500D01*
X-554498Y39758501D01*
X-559839Y39762381D01*
X-565867Y39765065D01*
X-565869Y39765066D01*
X-721935Y39834551D01*
X-721936Y39834551D01*
X-727966Y39837236D01*
X-817974Y39856368D01*
X-901524Y39874128D01*
X-901529Y39874128D01*
X-907981Y39875500D01*
X-908845Y39875500D01*
X-972533Y39901702D01*
X-1000378Y39941602D01*
X-1020214Y39907987D01*
X-1083625Y39876056D01*
X-1087491Y39875500D01*
X-1092019Y39875500D01*
X-1098471Y39874128D01*
X-1098476Y39874128D01*
X-1182026Y39856368D01*
X-1272034Y39837236D01*
X-1278064Y39834551D01*
X-1278065Y39834551D01*
X-1434131Y39765066D01*
X-1434133Y39765065D01*
X-1440161Y39762381D01*
X-1445502Y39758501D01*
X-1445503Y39758500D01*
X-1583706Y39658090D01*
X-1583708Y39658088D01*
X-1589050Y39654207D01*
X-1712195Y39517440D01*
X-1804214Y39358059D01*
X-1861085Y39183029D01*
X-1861775Y39176465D01*
X-1861775Y39176464D01*
X-1874690Y39053586D01*
X-1897420Y38998339D01*
X-2103947Y38998339D01*
X-2102580Y39001661D01*
X-2123944Y39044089D01*
X-2125310Y39053586D01*
X-2138225Y39176464D01*
X-2138225Y39176465D01*
X-2138915Y39183029D01*
X-2195786Y39358059D01*
X-2287805Y39517440D01*
X-2410950Y39654207D01*
X-2416292Y39658088D01*
X-2416294Y39658090D01*
X-2554497Y39758500D01*
X-2554498Y39758501D01*
X-2559839Y39762381D01*
X-2565867Y39765065D01*
X-2565869Y39765066D01*
X-2721935Y39834551D01*
X-2721936Y39834551D01*
X-2727966Y39837236D01*
X-2817974Y39856368D01*
X-2901524Y39874128D01*
X-2901529Y39874128D01*
X-2907981Y39875500D01*
X-3092019Y39875500D01*
X-3098471Y39874128D01*
X-3098476Y39874128D01*
X-3182026Y39856368D01*
X-3272034Y39837236D01*
X-3278064Y39834551D01*
X-3278065Y39834551D01*
X-3434131Y39765066D01*
X-3434133Y39765065D01*
X-3440161Y39762381D01*
X-3445502Y39758501D01*
X-3445503Y39758500D01*
X-3524439Y39701150D01*
X-3591307Y39677291D01*
X-3660459Y39693372D01*
X-3709939Y39744286D01*
X-3724500Y39803086D01*
X-3724500Y41000000D01*
X-1880322Y41000000D01*
X-1861085Y40816971D01*
X-1804214Y40641941D01*
X-1800911Y40636219D01*
X-1800910Y40636218D01*
X-1770592Y40583707D01*
X-1712195Y40482560D01*
X-1589050Y40345793D01*
X-1583708Y40341912D01*
X-1583706Y40341910D01*
X-1541766Y40311439D01*
X-1440161Y40237619D01*
X-1434133Y40234935D01*
X-1434131Y40234934D01*
X-1278065Y40165449D01*
X-1272034Y40162764D01*
X-1182027Y40143632D01*
X-1098476Y40125872D01*
X-1098471Y40125872D01*
X-1092019Y40124500D01*
X-1091155Y40124500D01*
X-1027467Y40098298D01*
X-999622Y40058398D01*
X-979786Y40092013D01*
X-916375Y40123944D01*
X-912509Y40124500D01*
X-907981Y40124500D01*
X-901529Y40125872D01*
X-901524Y40125872D01*
X-817973Y40143632D01*
X-727966Y40162764D01*
X-721935Y40165449D01*
X-565869Y40234934D01*
X-565867Y40234935D01*
X-559839Y40237619D01*
X-458234Y40311439D01*
X-416294Y40341910D01*
X-416292Y40341912D01*
X-410950Y40345793D01*
X-287805Y40482560D01*
X-229408Y40583707D01*
X-199090Y40636218D01*
X-199089Y40636219D01*
X-195786Y40641941D01*
X-138915Y40816971D01*
X-119678Y41000000D01*
X-138915Y41183029D01*
X-185792Y41327301D01*
X-187820Y41398266D01*
X-155054Y41455330D01*
X327211Y41937595D01*
X389523Y41971621D01*
X416306Y41974500D01*
X1960457Y41974500D01*
X1985039Y41972079D01*
X2000000Y41969103D01*
X2012171Y41971524D01*
X2012173Y41971524D01*
X2025001Y41974076D01*
X2095715Y41967750D01*
X2151783Y41924197D01*
X2175404Y41857245D01*
X2159079Y41788151D01*
X2154351Y41780497D01*
X2144041Y41765066D01*
X2136133Y41753231D01*
X2124500Y41694748D01*
X2124500Y40305252D01*
X2136133Y40246769D01*
X2180448Y40180448D01*
X2246769Y40136133D01*
X2258938Y40133712D01*
X2258939Y40133712D01*
X2298354Y40125872D01*
X2305252Y40124500D01*
X2880622Y40124500D01*
X2948743Y40104498D01*
X2995236Y40050842D01*
X2999655Y40020108D01*
X3001114Y40041970D01*
X3043390Y40099008D01*
X3109792Y40124135D01*
X3119378Y40124500D01*
X3694748Y40124500D01*
X3701646Y40125872D01*
X3741061Y40133712D01*
X3741062Y40133712D01*
X3753231Y40136133D01*
X3819552Y40180448D01*
X3863867Y40246769D01*
X3875500Y40305252D01*
X3875500Y41694748D01*
X3863867Y41753231D01*
X3819552Y41819552D01*
X3753231Y41863867D01*
X3741062Y41866288D01*
X3741061Y41866288D01*
X3700816Y41874293D01*
X3694748Y41875500D01*
X2319306Y41875500D01*
X2251185Y41895502D01*
X2204692Y41949158D01*
X2194588Y42019432D01*
X2224082Y42084012D01*
X2230211Y42090595D01*
X4166844Y44027228D01*
X4185936Y44042898D01*
X4188307Y44044482D01*
X4188308Y44044483D01*
X4198624Y44051376D01*
X4259515Y44142505D01*
X4275500Y44222867D01*
X4275500Y44222868D01*
X4278476Y44237828D01*
X4278476Y44237829D01*
X4280897Y44250000D01*
X4277921Y44264961D01*
X4275500Y44289543D01*
X4275500Y54460457D01*
X4277921Y54485039D01*
X4278476Y54487829D01*
X4280897Y54500000D01*
X4266470Y54572529D01*
X4259515Y54607495D01*
X4198624Y54698624D01*
X4185936Y54707102D01*
X4166844Y54722772D01*
X3362405Y55527211D01*
X3328379Y55589523D01*
X3325500Y55616306D01*
X3325500Y61830463D01*
X3327921Y61855043D01*
X3328475Y61857828D01*
X3330896Y61870000D01*
X3325500Y61897129D01*
X3325500Y61897133D01*
X3309515Y61977495D01*
X3248624Y62068624D01*
X3235936Y62077102D01*
X3216844Y62092772D01*
X2229534Y63080082D01*
X2195508Y63142394D01*
X2200573Y63213209D01*
X2209072Y63231412D01*
X2211276Y63235291D01*
X2211279Y63235297D01*
X2214323Y63240656D01*
X2279351Y63436137D01*
X2305171Y63640526D01*
X2305583Y63670000D01*
X2285480Y63875030D01*
X2225935Y64072251D01*
X2129218Y64254151D01*
X2055859Y64344098D01*
X2002906Y64409025D01*
X2002903Y64409028D01*
X1999011Y64413800D01*
X1981786Y64428050D01*
X1845025Y64541189D01*
X1845021Y64541191D01*
X1840275Y64545118D01*
X1659055Y64643103D01*
X1462254Y64704023D01*
X1456129Y64704667D01*
X1456128Y64704667D01*
X1263498Y64724913D01*
X1263496Y64724913D01*
X1257369Y64725557D01*
X1170529Y64717654D01*
X1058342Y64707445D01*
X1058339Y64707444D01*
X1052203Y64706886D01*
X854572Y64648720D01*
X672002Y64553274D01*
X667201Y64549414D01*
X667198Y64549412D01*
X656971Y64541189D01*
X511447Y64424185D01*
X379024Y64266370D01*
X376056Y64260972D01*
X376053Y64260967D01*
X369315Y64248710D01*
X279776Y64085838D01*
X217484Y63889468D01*
X216798Y63883351D01*
X216797Y63883347D01*
X195207Y63690863D01*
X194520Y63684738D01*
X195036Y63678594D01*
X207840Y63526122D01*
X211759Y63479447D01*
X213458Y63473522D01*
X249549Y63347659D01*
X268544Y63281414D01*
X271359Y63275937D01*
X271360Y63275934D01*
X292247Y63235293D01*
X362712Y63098182D01*
X490677Y62936730D01*
X495370Y62932736D01*
X495371Y62932735D01*
X638793Y62810674D01*
X647564Y62803209D01*
X827398Y62702703D01*
X922238Y62671887D01*
X1017471Y62640944D01*
X1017475Y62640943D01*
X1023329Y62639041D01*
X1227894Y62614649D01*
X1234029Y62615121D01*
X1234031Y62615121D01*
X1290039Y62619431D01*
X1433300Y62630454D01*
X1439230Y62632110D01*
X1439232Y62632110D01*
X1625797Y62684200D01*
X1625796Y62684200D01*
X1631725Y62685855D01*
X1637219Y62688630D01*
X1637224Y62688632D01*
X1691700Y62716150D01*
X1761522Y62729010D01*
X1827213Y62702081D01*
X1837605Y62692779D01*
X2737595Y61792789D01*
X2771621Y61730477D01*
X2774500Y61703694D01*
X2774500Y55851500D01*
X2754498Y55783379D01*
X2700842Y55736886D01*
X2648500Y55725500D01*
X2567380Y55725500D01*
X2499259Y55745502D01*
X2460115Y55789419D01*
X2459584Y55789039D01*
X2456037Y55793994D01*
X2454278Y55795967D01*
X2453522Y55797506D01*
X2448932Y55806855D01*
X2366350Y55889293D01*
X2344119Y55900160D01*
X2315891Y55913958D01*
X2261518Y55940536D01*
X2231027Y55944984D01*
X2197744Y55949840D01*
X2197740Y55949840D01*
X2193218Y55950500D01*
X1101782Y55950500D01*
X1097232Y55949830D01*
X1097229Y55949830D01*
X1042574Y55941784D01*
X1042573Y55941784D01*
X1032888Y55940358D01*
X982992Y55915860D01*
X937493Y55893522D01*
X937491Y55893521D01*
X928145Y55888932D01*
X845707Y55806350D01*
X841134Y55796994D01*
X841133Y55796993D01*
X825270Y55764540D01*
X794464Y55701518D01*
X784500Y55633218D01*
X784500Y55266782D01*
X794642Y55197888D01*
X798958Y55189098D01*
X840819Y55103837D01*
X846068Y55093145D01*
X853438Y55085788D01*
X875111Y55064153D01*
X909191Y55001870D01*
X904188Y54931050D01*
X875267Y54885962D01*
X845707Y54856350D01*
X794464Y54751518D01*
X793052Y54741838D01*
X786748Y54698624D01*
X784500Y54683218D01*
X784500Y54316782D01*
X785170Y54312232D01*
X785170Y54312229D01*
X793216Y54257574D01*
X794642Y54247888D01*
X846068Y54143145D01*
X928650Y54060707D01*
X1033482Y54009464D01*
X1063973Y54005016D01*
X1097256Y54000160D01*
X1097260Y54000160D01*
X1101782Y53999500D01*
X2193218Y53999500D01*
X2197768Y54000170D01*
X2197771Y54000170D01*
X2252426Y54008216D01*
X2252427Y54008216D01*
X2262112Y54009642D01*
X2356804Y54056133D01*
X2357507Y54056478D01*
X2357509Y54056479D01*
X2366855Y54061068D01*
X2449293Y54143650D01*
X2500536Y54248482D01*
X2510500Y54316782D01*
X2510500Y54683218D01*
X2501871Y54741838D01*
X2501784Y54742426D01*
X2501784Y54742427D01*
X2500358Y54752112D01*
X2448932Y54856855D01*
X2419889Y54885848D01*
X2385809Y54948130D01*
X2390812Y55018950D01*
X2419733Y55064038D01*
X2449293Y55093650D01*
X2453868Y55103009D01*
X2454273Y55103837D01*
X2455120Y55104764D01*
X2459914Y55111485D01*
X2460729Y55110904D01*
X2502160Y55156252D01*
X2567471Y55174500D01*
X2883694Y55174500D01*
X2951815Y55154498D01*
X2972789Y55137595D01*
X3687595Y54422789D01*
X3721621Y54360477D01*
X3724500Y54333694D01*
X3724500Y44416306D01*
X3704498Y44348185D01*
X3687595Y44327211D01*
X1922789Y42562405D01*
X1860477Y42528379D01*
X1833694Y42525500D01*
X289543Y42525500D01*
X264961Y42527921D01*
X262171Y42528476D01*
X250000Y42530897D01*
X237829Y42528476D01*
X222868Y42525500D01*
X222867Y42525500D01*
X142505Y42509515D01*
X119317Y42494021D01*
X74378Y42463994D01*
X71811Y42467835D01*
X71810Y42467834D01*
X74377Y42463993D01*
X51376Y42448624D01*
X44485Y42438311D01*
X42898Y42435936D01*
X27228Y42416844D01*
X-545239Y41844377D01*
X-607551Y41810351D01*
X-678366Y41815416D01*
X-685569Y41818360D01*
X-707025Y41827912D01*
X-721930Y41834549D01*
X-721933Y41834550D01*
X-727966Y41837236D01*
X-822099Y41857245D01*
X-901524Y41874128D01*
X-901529Y41874128D01*
X-907981Y41875500D01*
X-1092019Y41875500D01*
X-1098471Y41874128D01*
X-1098476Y41874128D01*
X-1177901Y41857245D01*
X-1272034Y41837236D01*
X-1278064Y41834551D01*
X-1278065Y41834551D01*
X-1434131Y41765066D01*
X-1434133Y41765065D01*
X-1440161Y41762381D01*
X-1445502Y41758501D01*
X-1445503Y41758500D01*
X-1583706Y41658090D01*
X-1583708Y41658088D01*
X-1589050Y41654207D01*
X-1712195Y41517440D01*
X-1804214Y41358059D01*
X-1861085Y41183029D01*
X-1880322Y41000000D01*
X-3724500Y41000000D01*
X-3724500Y45957905D01*
X-1854972Y45957905D01*
X-1829466Y45690569D01*
X-1765636Y45429715D01*
X-1664818Y45180808D01*
X-1529125Y44949062D01*
X-1526272Y44945495D01*
X-1414775Y44806075D01*
X-1361399Y44739331D01*
X-1165154Y44556009D01*
X-1072961Y44492052D01*
X-948254Y44405539D01*
X-948249Y44405536D01*
X-944501Y44402936D01*
X-940416Y44400904D01*
X-940413Y44400902D01*
X-866469Y44364116D01*
X-704062Y44283320D01*
X-699728Y44281899D01*
X-699725Y44281898D01*
X-453207Y44201085D01*
X-453202Y44201084D01*
X-448874Y44199665D01*
X-444383Y44198885D01*
X-444382Y44198885D01*
X-188064Y44154380D01*
X-188056Y44154379D01*
X-184283Y44153724D01*
X-180446Y44153533D01*
X-101004Y44149578D01*
X-100996Y44149578D01*
X-99433Y44149500D01*
X68223Y44149500D01*
X70491Y44149665D01*
X70503Y44149665D01*
X200823Y44159121D01*
X267846Y44163984D01*
X272301Y44164968D01*
X272304Y44164968D01*
X525620Y44220895D01*
X525624Y44220896D01*
X530080Y44221880D01*
X697617Y44285354D01*
X776941Y44315407D01*
X776944Y44315408D01*
X781211Y44317025D01*
X1015976Y44447426D01*
X1158254Y44556009D01*
X1225833Y44607583D01*
X1225837Y44607587D01*
X1229458Y44610350D01*
X1417185Y44802386D01*
X1575225Y45019509D01*
X1662313Y45185037D01*
X1698140Y45253132D01*
X1698143Y45253138D01*
X1700265Y45257172D01*
X1759703Y45425485D01*
X1788165Y45506084D01*
X1788165Y45506085D01*
X1789688Y45510397D01*
X1841620Y45773878D01*
X1841847Y45778434D01*
X1854745Y46037526D01*
X1854745Y46037532D01*
X1854972Y46042095D01*
X1829466Y46309431D01*
X1765636Y46570285D01*
X1664818Y46819192D01*
X1529125Y47050938D01*
X1418211Y47189629D01*
X1364251Y47257103D01*
X1364250Y47257105D01*
X1361399Y47260669D01*
X1165154Y47443991D01*
X1005436Y47554792D01*
X948254Y47594461D01*
X948249Y47594464D01*
X944501Y47597064D01*
X940416Y47599096D01*
X940413Y47599098D01*
X768560Y47684593D01*
X704062Y47716680D01*
X699728Y47718101D01*
X699725Y47718102D01*
X453207Y47798915D01*
X453202Y47798916D01*
X448874Y47800335D01*
X444382Y47801115D01*
X188064Y47845620D01*
X188056Y47845621D01*
X184283Y47846276D01*
X175622Y47846707D01*
X101004Y47850422D01*
X100996Y47850422D01*
X99433Y47850500D01*
X-68223Y47850500D01*
X-70491Y47850335D01*
X-70503Y47850335D01*
X-200823Y47840879D01*
X-267846Y47836016D01*
X-272301Y47835032D01*
X-272304Y47835032D01*
X-525620Y47779105D01*
X-525624Y47779104D01*
X-530080Y47778120D01*
X-655645Y47730548D01*
X-776941Y47684593D01*
X-776944Y47684592D01*
X-781211Y47682975D01*
X-1015976Y47552574D01*
X-1019608Y47549802D01*
X-1225833Y47392417D01*
X-1225837Y47392413D01*
X-1229458Y47389650D01*
X-1417185Y47197614D01*
X-1575225Y46980491D01*
X-1577349Y46976453D01*
X-1698140Y46746868D01*
X-1698143Y46746862D01*
X-1700265Y46742828D01*
X-1701785Y46738523D01*
X-1701787Y46738519D01*
X-1761196Y46570285D01*
X-1789688Y46489603D01*
X-1841620Y46226122D01*
X-1841847Y46221569D01*
X-1841847Y46221566D01*
X-1851008Y46037526D01*
X-1854972Y45957905D01*
X-3724500Y45957905D01*
X-3724500Y54316782D01*
X-1490500Y54316782D01*
X-1489830Y54312232D01*
X-1489830Y54312229D01*
X-1481784Y54257574D01*
X-1480358Y54247888D01*
X-1428932Y54143145D01*
X-1346350Y54060707D01*
X-1241518Y54009464D01*
X-1211027Y54005016D01*
X-1177744Y54000160D01*
X-1177740Y54000160D01*
X-1173218Y53999500D01*
X-941500Y53999500D01*
X-873379Y53979498D01*
X-826886Y53925842D01*
X-815500Y53873500D01*
X-815500Y53508230D01*
X-835502Y53440109D01*
X-852405Y53419135D01*
X-903224Y53368316D01*
X-953972Y53259487D01*
X-960500Y53209901D01*
X-960499Y52790100D01*
X-953972Y52740513D01*
X-903224Y52631684D01*
X-852405Y52580865D01*
X-818379Y52518553D01*
X-815500Y52491770D01*
X-815500Y52468230D01*
X-835502Y52400109D01*
X-852405Y52379135D01*
X-913224Y52318316D01*
X-963972Y52209487D01*
X-970500Y52159901D01*
X-970499Y51740100D01*
X-963972Y51690513D01*
X-959899Y51681779D01*
X-959899Y51681778D01*
X-917882Y51591672D01*
X-917881Y51591670D01*
X-913224Y51581684D01*
X-912830Y51581290D01*
X-892201Y51520130D01*
X-909484Y51451269D01*
X-925786Y51430197D01*
X-928282Y51428282D01*
X-1024536Y51302841D01*
X-1085044Y51156762D01*
X-1105682Y51000000D01*
X-1085044Y50843238D01*
X-1024536Y50697159D01*
X-928282Y50571718D01*
X-802841Y50475464D01*
X-656762Y50414956D01*
X-500000Y50394318D01*
X-491812Y50395396D01*
X-351426Y50413878D01*
X-343238Y50414956D01*
X-197159Y50475464D01*
X-71718Y50571718D01*
X24536Y50697159D01*
X85044Y50843238D01*
X105682Y51000000D01*
X85044Y51156762D01*
X24536Y51302841D01*
X-70278Y51426406D01*
X-95878Y51492625D01*
X-81613Y51562174D01*
X-74235Y51574225D01*
X-66776Y51581684D01*
X-62118Y51591673D01*
X-62116Y51591676D01*
X-20102Y51681776D01*
X-20101Y51681778D01*
X-16028Y51690513D01*
X-9500Y51740099D01*
X-9501Y52159900D01*
X-16028Y52209487D01*
X-66776Y52318316D01*
X-127595Y52379135D01*
X-161621Y52441447D01*
X-164500Y52468230D01*
X-164500Y52471770D01*
X-144498Y52539891D01*
X-127595Y52560865D01*
X-56776Y52631684D01*
X-6028Y52740513D01*
X500Y52790099D01*
X499Y53209900D01*
X-6028Y53259487D01*
X-56776Y53368316D01*
X-127595Y53439135D01*
X-161621Y53501447D01*
X-164500Y53528230D01*
X-164500Y53878513D01*
X-144498Y53946634D01*
X-90842Y53993127D01*
X-56851Y54003169D01*
X-22581Y54008214D01*
X-22574Y54008216D01*
X-12888Y54009642D01*
X81804Y54056133D01*
X82507Y54056478D01*
X82509Y54056479D01*
X91855Y54061068D01*
X174293Y54143650D01*
X225536Y54248482D01*
X235500Y54316782D01*
X235500Y54683218D01*
X226871Y54741838D01*
X226784Y54742426D01*
X226784Y54742427D01*
X225358Y54752112D01*
X173932Y54856855D01*
X132442Y54898273D01*
X98721Y54931935D01*
X98720Y54931935D01*
X91350Y54939293D01*
X73272Y54948130D01*
X18256Y54975022D01*
X-13482Y54990536D01*
X-43973Y54994984D01*
X-77256Y54999840D01*
X-77260Y54999840D01*
X-81782Y55000500D01*
X-1173218Y55000500D01*
X-1177768Y54999830D01*
X-1177771Y54999830D01*
X-1232426Y54991784D01*
X-1232427Y54991784D01*
X-1242112Y54990358D01*
X-1292008Y54965860D01*
X-1337507Y54943522D01*
X-1337509Y54943521D01*
X-1346855Y54938932D01*
X-1429293Y54856350D01*
X-1480536Y54751518D01*
X-1481948Y54741838D01*
X-1488252Y54698624D01*
X-1490500Y54683218D01*
X-1490500Y54316782D01*
X-3724500Y54316782D01*
X-3724500Y57348500D01*
X-3704498Y57416621D01*
X-3650842Y57463114D01*
X-3598500Y57474500D01*
X-2303254Y57474500D01*
X-2235133Y57454498D01*
X-2189060Y57401751D01*
X-2178727Y57379592D01*
X-2178725Y57379589D01*
X-2174065Y57369596D01*
X-2090404Y57285935D01*
X-2080412Y57281275D01*
X-2080411Y57281275D01*
X-1995750Y57241797D01*
X-1983173Y57235932D01*
X-1934316Y57229500D01*
X-1585684Y57229500D01*
X-1536827Y57235932D01*
X-1524249Y57241797D01*
X-1439589Y57281275D01*
X-1439588Y57281275D01*
X-1429596Y57285935D01*
X-1345935Y57369596D01*
X-1345247Y57368908D01*
X-1297753Y57406869D01*
X-1227133Y57414177D01*
X-1163774Y57382144D01*
X-1155421Y57372504D01*
X-1154065Y57369596D01*
X-1070404Y57285935D01*
X-1060412Y57281275D01*
X-1060411Y57281275D01*
X-975750Y57241797D01*
X-922465Y57194880D01*
X-903000Y57127602D01*
X-903000Y57026500D01*
X-923002Y56958379D01*
X-976658Y56911886D01*
X-1029000Y56900500D01*
X-1173218Y56900500D01*
X-1177768Y56899830D01*
X-1177771Y56899830D01*
X-1232426Y56891784D01*
X-1232427Y56891784D01*
X-1242112Y56890358D01*
X-1292008Y56865860D01*
X-1337507Y56843522D01*
X-1337509Y56843521D01*
X-1346855Y56838932D01*
X-1429293Y56756350D01*
X-1480536Y56651518D01*
X-1490500Y56583218D01*
X-1490500Y56216782D01*
X-1489830Y56212232D01*
X-1489830Y56212229D01*
X-1481784Y56157574D01*
X-1480358Y56147888D01*
X-1428932Y56043145D01*
X-1346350Y55960707D01*
X-1336994Y55956134D01*
X-1336993Y55956133D01*
X-1324098Y55949830D01*
X-1241518Y55909464D01*
X-1211027Y55905016D01*
X-1177744Y55900160D01*
X-1177740Y55900160D01*
X-1173218Y55899500D01*
X-81782Y55899500D01*
X-77232Y55900170D01*
X-77229Y55900170D01*
X-22574Y55908216D01*
X-22573Y55908216D01*
X-12888Y55909642D01*
X41286Y55936240D01*
X82507Y55956478D01*
X82509Y55956479D01*
X91855Y55961068D01*
X174293Y56043650D01*
X225536Y56148482D01*
X235500Y56216782D01*
X235500Y56583218D01*
X226871Y56641838D01*
X226784Y56642426D01*
X226784Y56642427D01*
X225358Y56652112D01*
X173932Y56756855D01*
X91350Y56839293D01*
X-13482Y56890536D01*
X-43973Y56894984D01*
X-77256Y56899840D01*
X-77260Y56899840D01*
X-81782Y56900500D01*
X-226000Y56900500D01*
X-294121Y56920502D01*
X-340614Y56974158D01*
X-352000Y57026500D01*
X-352000Y57295981D01*
X-330104Y57365427D01*
X-325935Y57369596D01*
X-286344Y57454498D01*
X-280006Y57468090D01*
X-280006Y57468091D01*
X-275932Y57476827D01*
X-269500Y57525684D01*
X-269500Y57974316D01*
X-275932Y58023173D01*
X-311364Y58099158D01*
X-321275Y58120411D01*
X-321275Y58120412D01*
X-325935Y58130404D01*
X-409596Y58214065D01*
X-516827Y58264068D01*
X-565684Y58270500D01*
X-914316Y58270500D01*
X-963173Y58264068D01*
X-1070404Y58214065D01*
X-1154065Y58130404D01*
X-1154753Y58131092D01*
X-1202247Y58093131D01*
X-1272867Y58085823D01*
X-1336226Y58117856D01*
X-1344579Y58127496D01*
X-1345935Y58130404D01*
X-1429596Y58214065D01*
X-1536827Y58264068D01*
X-1585684Y58270500D01*
X-1934316Y58270500D01*
X-1983173Y58264068D01*
X-2090404Y58214065D01*
X-2174065Y58130404D01*
X-2178725Y58120411D01*
X-2178727Y58120408D01*
X-2189060Y58098249D01*
X-2235977Y58044964D01*
X-2303254Y58025500D01*
X-3598500Y58025500D01*
X-3666621Y58045502D01*
X-3713114Y58099158D01*
X-3724500Y58151500D01*
X-3724500Y62406778D01*
X-3704498Y62474899D01*
X-3650842Y62521392D01*
X-3580568Y62531496D01*
X-3521796Y62506741D01*
X-3402841Y62415464D01*
X-3256762Y62354956D01*
X-3100000Y62334318D01*
X-3091812Y62335396D01*
X-3053764Y62340405D01*
X-2970674Y62351344D01*
X-2900525Y62340405D01*
X-2865133Y62315517D01*
X-2268669Y61719053D01*
X-2234643Y61656741D01*
X-2239708Y61585926D01*
X-2247350Y61569256D01*
X-2257256Y61551238D01*
X-2257258Y61551232D01*
X-2260224Y61545838D01*
X-2322516Y61349468D01*
X-2323202Y61343351D01*
X-2323203Y61343347D01*
X-2344793Y61150863D01*
X-2345480Y61144738D01*
X-2328241Y60939447D01*
X-2271456Y60741414D01*
X-2268641Y60735937D01*
X-2268640Y60735934D01*
X-2247753Y60695293D01*
X-2177288Y60558182D01*
X-2049323Y60396730D01*
X-1892436Y60263209D01*
X-1712602Y60162703D01*
X-1617762Y60131887D01*
X-1522529Y60100944D01*
X-1522525Y60100943D01*
X-1516671Y60099041D01*
X-1312106Y60074649D01*
X-1305971Y60075121D01*
X-1305969Y60075121D01*
X-1249961Y60079431D01*
X-1106700Y60090454D01*
X-1100770Y60092110D01*
X-1100768Y60092110D01*
X-914203Y60144200D01*
X-914204Y60144200D01*
X-908275Y60145855D01*
X-902786Y60148628D01*
X-902780Y60148630D01*
X-729884Y60235967D01*
X-724390Y60238742D01*
X-562049Y60365576D01*
X-427436Y60521528D01*
X-406613Y60558182D01*
X-328724Y60695293D01*
X-325677Y60700656D01*
X-260649Y60896137D01*
X-234829Y61100526D01*
X-234417Y61130000D01*
X-254520Y61335030D01*
X-314065Y61532251D01*
X-410782Y61714151D01*
X-505644Y61830463D01*
X-537094Y61869025D01*
X-537097Y61869028D01*
X-540989Y61873800D01*
X-551109Y61882172D01*
X-694975Y62001189D01*
X-694979Y62001191D01*
X-699725Y62005118D01*
X-861838Y62092772D01*
X-875526Y62100173D01*
X-880945Y62103103D01*
X-1077746Y62164023D01*
X-1083871Y62164667D01*
X-1083872Y62164667D01*
X-1276502Y62184913D01*
X-1276504Y62184913D01*
X-1282631Y62185557D01*
X-1369471Y62177654D01*
X-1481658Y62167445D01*
X-1481661Y62167444D01*
X-1487797Y62166886D01*
X-1685428Y62108720D01*
X-1690888Y62105866D01*
X-1690892Y62105864D01*
X-1730592Y62085110D01*
X-1800228Y62071276D01*
X-1866288Y62097287D01*
X-1878061Y62107677D01*
X-2475517Y62705133D01*
X-2509543Y62767445D01*
X-2511344Y62810674D01*
X-2495396Y62931812D01*
X-2494318Y62940000D01*
X-2514956Y63096762D01*
X-2575464Y63242841D01*
X-2671718Y63368282D01*
X-2797159Y63464536D01*
X-2943238Y63525044D01*
X-3100000Y63545682D01*
X-3256762Y63525044D01*
X-3402841Y63464536D01*
X-3409392Y63459509D01*
X-3521796Y63373259D01*
X-3588017Y63347659D01*
X-3657565Y63361924D01*
X-3708361Y63411525D01*
X-3724500Y63473222D01*
X-3724500Y63684738D01*
X-2345480Y63684738D01*
X-2344964Y63678594D01*
X-2332160Y63526122D01*
X-2328241Y63479447D01*
X-2326542Y63473522D01*
X-2290451Y63347659D01*
X-2271456Y63281414D01*
X-2268641Y63275937D01*
X-2268640Y63275934D01*
X-2247753Y63235293D01*
X-2177288Y63098182D01*
X-2049323Y62936730D01*
X-2044630Y62932736D01*
X-2044629Y62932735D01*
X-1901207Y62810674D01*
X-1892436Y62803209D01*
X-1712602Y62702703D01*
X-1617762Y62671887D01*
X-1522529Y62640944D01*
X-1522525Y62640943D01*
X-1516671Y62639041D01*
X-1312106Y62614649D01*
X-1305971Y62615121D01*
X-1305969Y62615121D01*
X-1249961Y62619431D01*
X-1106700Y62630454D01*
X-1100770Y62632110D01*
X-1100768Y62632110D01*
X-914203Y62684200D01*
X-914204Y62684200D01*
X-908275Y62685855D01*
X-902786Y62688628D01*
X-902780Y62688630D01*
X-766889Y62757274D01*
X-724390Y62778742D01*
X-562049Y62905576D01*
X-525267Y62948188D01*
X-431460Y63056866D01*
X-431460Y63056867D01*
X-427436Y63061528D01*
X-406613Y63098182D01*
X-341269Y63213209D01*
X-325677Y63240656D01*
X-260649Y63436137D01*
X-234829Y63640526D01*
X-234417Y63670000D01*
X-254520Y63875030D01*
X-314065Y64072251D01*
X-410782Y64254151D01*
X-484141Y64344098D01*
X-537094Y64409025D01*
X-537097Y64409028D01*
X-540989Y64413800D01*
X-558214Y64428050D01*
X-694975Y64541189D01*
X-694979Y64541191D01*
X-699725Y64545118D01*
X-880945Y64643103D01*
X-1077746Y64704023D01*
X-1083871Y64704667D01*
X-1083872Y64704667D01*
X-1276502Y64724913D01*
X-1276504Y64724913D01*
X-1282631Y64725557D01*
X-1369471Y64717654D01*
X-1481658Y64707445D01*
X-1481661Y64707444D01*
X-1487797Y64706886D01*
X-1685428Y64648720D01*
X-1867998Y64553274D01*
X-1872799Y64549414D01*
X-1872802Y64549412D01*
X-1883029Y64541189D01*
X-2028553Y64424185D01*
X-2160976Y64266370D01*
X-2163944Y64260972D01*
X-2163947Y64260967D01*
X-2170685Y64248710D01*
X-2260224Y64085838D01*
X-2322516Y63889468D01*
X-2323202Y63883351D01*
X-2323203Y63883347D01*
X-2344793Y63690863D01*
X-2345480Y63684738D01*
X-3724500Y63684738D01*
X-3724500Y66224738D01*
X-2345480Y66224738D01*
X-2328241Y66019447D01*
X-2271456Y65821414D01*
X-2268641Y65815937D01*
X-2268640Y65815934D01*
X-2247753Y65775293D01*
X-2177288Y65638182D01*
X-2049323Y65476730D01*
X-1892436Y65343209D01*
X-1712602Y65242703D01*
X-1617762Y65211887D01*
X-1522529Y65180944D01*
X-1522525Y65180943D01*
X-1516671Y65179041D01*
X-1312106Y65154649D01*
X-1305971Y65155121D01*
X-1305969Y65155121D01*
X-1249961Y65159431D01*
X-1106700Y65170454D01*
X-1100770Y65172110D01*
X-1100768Y65172110D01*
X-914203Y65224200D01*
X-914204Y65224200D01*
X-908275Y65225855D01*
X-902786Y65228628D01*
X-902780Y65228630D01*
X-729884Y65315967D01*
X-724390Y65318742D01*
X-562049Y65445576D01*
X-427436Y65601528D01*
X-406613Y65638182D01*
X-328724Y65775293D01*
X-325677Y65780656D01*
X-260649Y65976137D01*
X-234829Y66180526D01*
X-234417Y66210000D01*
X-254520Y66415030D01*
X-314065Y66612251D01*
X-410782Y66794151D01*
X-484141Y66884098D01*
X-537094Y66949025D01*
X-537097Y66949028D01*
X-540989Y66953800D01*
X-558214Y66968050D01*
X-694975Y67081189D01*
X-694979Y67081191D01*
X-699725Y67085118D01*
X-880945Y67183103D01*
X-1077746Y67244023D01*
X-1083871Y67244667D01*
X-1083872Y67244667D01*
X-1276502Y67264913D01*
X-1276504Y67264913D01*
X-1282631Y67265557D01*
X-1369471Y67257654D01*
X-1481658Y67247445D01*
X-1481661Y67247444D01*
X-1487797Y67246886D01*
X-1685428Y67188720D01*
X-1867998Y67093274D01*
X-1872799Y67089414D01*
X-1872802Y67089412D01*
X-1883029Y67081189D01*
X-2028553Y66964185D01*
X-2160976Y66806370D01*
X-2163944Y66800972D01*
X-2163947Y66800967D01*
X-2170685Y66788710D01*
X-2260224Y66625838D01*
X-2322516Y66429468D01*
X-2323202Y66423351D01*
X-2323203Y66423347D01*
X-2344793Y66230863D01*
X-2345480Y66224738D01*
X-3724500Y66224738D01*
X-3724500Y71848500D01*
X-3704498Y71916621D01*
X-3650842Y71963114D01*
X-3598500Y71974500D01*
X-2789543Y71974500D01*
X-2764961Y71972079D01*
X-2750000Y71969103D01*
X-2722868Y71974500D01*
X-2722867Y71974500D01*
X-2642505Y71990485D01*
X-2600535Y72018529D01*
X-2600535Y72018528D01*
X-2600532Y72018531D01*
X-2574378Y72036006D01*
X-2571811Y72032165D01*
X-2571810Y72032166D01*
X-2574377Y72036007D01*
X-2561689Y72044485D01*
X-2551376Y72051376D01*
X-2542898Y72064064D01*
X-2527228Y72083156D01*
X-997789Y73612595D01*
X-935477Y73646621D01*
X-908694Y73649500D01*
X-180252Y73649500D01*
X-174184Y73650707D01*
X-133939Y73658712D01*
X-133938Y73658712D01*
X-121769Y73661133D01*
X-111452Y73668027D01*
X-111449Y73668028D01*
X-70003Y73695722D01*
X-2251Y73716938D01*
X70003Y73695722D01*
G37*
%TD.AperFunction*%
%TA.AperFunction,Conductor*%
G36*
X2527568Y36151862D02*
G01*
X2572626Y36122905D01*
X2619596Y36075935D01*
X2629588Y36071275D01*
X2629589Y36071275D01*
X2697731Y36039500D01*
X2726827Y36025932D01*
X2775684Y36019500D01*
X3028694Y36019500D01*
X3096815Y35999498D01*
X3117789Y35982595D01*
X3187595Y35912789D01*
X3221621Y35850477D01*
X3224500Y35823694D01*
X3224500Y34416306D01*
X3204498Y34348185D01*
X3187595Y34327211D01*
X2722084Y33861700D01*
X2659772Y33827674D01*
X2632989Y33824795D01*
X1715601Y33824795D01*
X1647480Y33844797D01*
X1626506Y33861700D01*
X1387405Y34100801D01*
X1353379Y34163113D01*
X1350500Y34189896D01*
X1350500Y34319748D01*
X1338867Y34378231D01*
X1331973Y34388548D01*
X1331972Y34388551D01*
X1304278Y34429997D01*
X1283062Y34497749D01*
X1304278Y34570003D01*
X1331972Y34611449D01*
X1331973Y34611452D01*
X1338867Y34621769D01*
X1342656Y34640815D01*
X1349293Y34674184D01*
X1350500Y34680252D01*
X1350500Y34908694D01*
X1370502Y34976815D01*
X1387405Y34997789D01*
X2166844Y35777228D01*
X2185936Y35792898D01*
X2188307Y35794482D01*
X2188308Y35794483D01*
X2198624Y35801376D01*
X2259515Y35892505D01*
X2259516Y35892506D01*
X2280720Y35999110D01*
X2313627Y36062019D01*
X2351048Y36088723D01*
X2358320Y36092114D01*
X2358323Y36092116D01*
X2368316Y36096776D01*
X2394441Y36122901D01*
X2456753Y36156927D01*
X2527568Y36151862D01*
G37*
%TD.AperFunction*%
%TA.AperFunction,Conductor*%
G36*
X4741621Y636779498D02*
G01*
X4788114Y636725842D01*
X4799500Y636673500D01*
X4799500Y566278993D01*
X4779498Y566210872D01*
X4725842Y566164379D01*
X4648639Y566155470D01*
X355479Y567019563D01*
X352806Y567006281D01*
X216559Y566329354D01*
X183509Y566266519D01*
X166061Y566251536D01*
X117413Y566216938D01*
X117408Y566216933D01*
X110945Y566212337D01*
X105830Y566206279D01*
X105828Y566206278D01*
X62923Y566155470D01*
X4905Y566086767D01*
X-66575Y565938770D01*
X-228464Y565134438D01*
X-233311Y565116968D01*
X-236680Y565107524D01*
X-236682Y565107516D01*
X-238693Y565101878D01*
X-239602Y565095959D01*
X-239603Y565095955D01*
X-250079Y565027734D01*
X-251096Y565021997D01*
X-416435Y564200526D01*
X-425408Y564077750D01*
X-424002Y564069952D01*
X-424002Y564069950D01*
X-397840Y563924841D01*
X-396247Y563916003D01*
X-392947Y563908802D01*
X-327778Y563766589D01*
X-329520Y563765791D01*
X-313336Y563707264D01*
X-315797Y563684398D01*
X-453513Y563000169D01*
X1852627Y562536007D01*
X4698362Y561963239D01*
X4761197Y561930189D01*
X4796188Y561868414D01*
X4799500Y561839716D01*
X4799500Y421982834D01*
X4779498Y421914713D01*
X4725842Y421868220D01*
X4668247Y421856944D01*
X3284147Y421914713D01*
X53632Y422049547D01*
X53630Y422049547D01*
X35531Y422050302D01*
X34966Y422036763D01*
X6171Y421346862D01*
X-16654Y421279634D01*
X-31545Y421262109D01*
X-55955Y421238196D01*
X-79859Y421214779D01*
X-164975Y421074181D01*
X-212451Y420916833D01*
X-212782Y420908910D01*
X-212782Y420908908D01*
X-246666Y420097085D01*
X-248722Y420079076D01*
X-250574Y420069218D01*
X-250575Y420069212D01*
X-251680Y420063328D01*
X-251653Y420057340D01*
X-251653Y420057339D01*
X-251340Y419988313D01*
X-251449Y419982493D01*
X-286393Y419145275D01*
X-276070Y419022604D01*
X-221993Y418867401D01*
X-217605Y418860799D01*
X-217603Y418860795D01*
X-131017Y418730522D01*
X-132611Y418729462D01*
X-107480Y418674177D01*
X-106339Y418651210D01*
X-135444Y417953868D01*
X4678755Y417752935D01*
X4745982Y417730110D01*
X4790197Y417674562D01*
X4799500Y417627045D01*
X4799500Y321048551D01*
X4779498Y320980430D01*
X4725842Y320933937D01*
X4655568Y320923833D01*
X4642218Y320926496D01*
X4165983Y321048551D01*
X460513Y321998231D01*
X457150Y321985109D01*
X457149Y321985107D01*
X285720Y321316223D01*
X249432Y321255201D01*
X231226Y321241149D01*
X180828Y321209135D01*
X180825Y321209132D01*
X174137Y321204884D01*
X168711Y321199101D01*
X67107Y321090811D01*
X67104Y321090807D01*
X61680Y321085026D01*
X57863Y321078076D01*
X57861Y321078073D01*
X4238Y320980430D01*
X-17435Y320940966D01*
X-57814Y320783413D01*
X-221129Y320146187D01*
X-226881Y320128997D01*
X-230736Y320119748D01*
X-230739Y320119737D01*
X-233043Y320114210D01*
X-234261Y320108343D01*
X-234261Y320108342D01*
X-248286Y320040767D01*
X-249599Y320035102D01*
X-457637Y319223376D01*
X-473013Y319101236D01*
X-452342Y318938186D01*
X-449420Y318930816D01*
X-449420Y318930815D01*
X-391773Y318785400D01*
X-393554Y318784694D01*
X-380451Y318725398D01*
X-384104Y318702693D01*
X-557382Y318026596D01*
X-544260Y318023233D01*
X-544258Y318023232D01*
X4704782Y316677948D01*
X4765804Y316641660D01*
X4797520Y316578142D01*
X4799500Y316555893D01*
X4799500Y71522464D01*
X4779498Y71454343D01*
X4725842Y71407850D01*
X4655568Y71397746D01*
X4590988Y71427240D01*
X4557091Y71474246D01*
X4540784Y71513614D01*
X4524536Y71552841D01*
X4428282Y71678282D01*
X4302841Y71774536D01*
X4156762Y71835044D01*
X4000000Y71855682D01*
X3843238Y71835044D01*
X3697159Y71774536D01*
X3571718Y71678282D01*
X3566695Y71671736D01*
X3563809Y71668850D01*
X3501497Y71634824D01*
X3430682Y71639889D01*
X3385619Y71668850D01*
X3340404Y71714065D01*
X3322774Y71722286D01*
X3241910Y71759994D01*
X3241909Y71759994D01*
X3233173Y71764068D01*
X3184316Y71770500D01*
X2835684Y71770500D01*
X2786827Y71764068D01*
X2778091Y71759994D01*
X2778090Y71759994D01*
X2697226Y71722286D01*
X2679596Y71714065D01*
X2595935Y71630404D01*
X2595247Y71631092D01*
X2547753Y71593131D01*
X2477133Y71585823D01*
X2413774Y71617856D01*
X2405421Y71627496D01*
X2404065Y71630404D01*
X2332405Y71702064D01*
X2298379Y71764376D01*
X2295500Y71791159D01*
X2295500Y72841867D01*
X2297921Y72866449D01*
X2298476Y72869239D01*
X2300897Y72881410D01*
X2279515Y72988904D01*
X2279515Y72988905D01*
X2218624Y73080034D01*
X2205936Y73088512D01*
X2186844Y73104182D01*
X1387405Y73903621D01*
X1353379Y73965933D01*
X1350500Y73992716D01*
X1350500Y74319748D01*
X1338867Y74378231D01*
X1331973Y74388548D01*
X1331972Y74388551D01*
X1304278Y74429997D01*
X1283062Y74497749D01*
X1304278Y74570003D01*
X1331972Y74611449D01*
X1331973Y74611452D01*
X1338867Y74621769D01*
X1350500Y74680252D01*
X1350500Y74810103D01*
X1370502Y74878224D01*
X1387405Y74899199D01*
X1789650Y75301443D01*
X2216228Y75728021D01*
X2224332Y75735447D01*
X2244750Y75752580D01*
X2253194Y75759665D01*
X2258704Y75769208D01*
X2258707Y75769212D01*
X2272036Y75792299D01*
X2277941Y75801569D01*
X2293232Y75823407D01*
X2299554Y75832436D01*
X2302407Y75843084D01*
X2303886Y75846255D01*
X2305078Y75849531D01*
X2310588Y75859075D01*
X2317134Y75896196D01*
X2319508Y75906903D01*
X2329263Y75943313D01*
X2325979Y75980851D01*
X2325500Y75991832D01*
X2325500Y76003542D01*
X2345502Y76071663D01*
X2368990Y76096102D01*
X2368316Y76096776D01*
X2429135Y76157595D01*
X2491447Y76191621D01*
X2518230Y76194500D01*
X2839868Y76194500D01*
X2907989Y76174498D01*
X2939830Y76145204D01*
X2991189Y76078271D01*
X2991192Y76078268D01*
X2996218Y76071718D01*
X3002768Y76066692D01*
X3002769Y76066691D01*
X3058939Y76023591D01*
X3121659Y75975464D01*
X3267738Y75914956D01*
X3424500Y75894318D01*
X3432688Y75895396D01*
X3438735Y75896192D01*
X3581262Y75914956D01*
X3727341Y75975464D01*
X3852782Y76071718D01*
X3949036Y76197159D01*
X4009544Y76343238D01*
X4030182Y76500000D01*
X4009544Y76656762D01*
X3949036Y76802841D01*
X3852782Y76928282D01*
X3727341Y77024536D01*
X3581262Y77085044D01*
X3424500Y77105682D01*
X3267738Y77085044D01*
X3121659Y77024536D01*
X2996218Y76928282D01*
X2991192Y76921732D01*
X2991189Y76921729D01*
X2970523Y76894796D01*
X2913185Y76852928D01*
X2870561Y76845500D01*
X2518230Y76845500D01*
X2450109Y76865502D01*
X2429135Y76882405D01*
X2368316Y76943224D01*
X2259487Y76993972D01*
X2209901Y77000500D01*
X2000077Y77000500D01*
X1790100Y77000499D01*
X1740513Y76993972D01*
X1631684Y76943224D01*
X1589095Y76900635D01*
X1526783Y76866609D01*
X1455968Y76871674D01*
X1410905Y76900635D01*
X1368316Y76943224D01*
X1259487Y76993972D01*
X1209901Y77000500D01*
X1000077Y77000500D01*
X790100Y77000499D01*
X740513Y76993972D01*
X631684Y76943224D01*
X546776Y76858316D01*
X542117Y76848324D01*
X542116Y76848323D01*
X500102Y76758224D01*
X496028Y76749487D01*
X489500Y76699901D01*
X489501Y76340100D01*
X496028Y76290513D01*
X546776Y76181684D01*
X631684Y76096776D01*
X641676Y76092117D01*
X641677Y76092116D01*
X724663Y76053419D01*
X740513Y76046028D01*
X790099Y76039500D01*
X999923Y76039500D01*
X1209900Y76039501D01*
X1259487Y76046028D01*
X1268226Y76050103D01*
X1275339Y76053419D01*
X1345531Y76064078D01*
X1410343Y76035097D01*
X1449198Y75975676D01*
X1449759Y75904682D01*
X1417681Y75850128D01*
X954958Y75387405D01*
X892646Y75353379D01*
X865863Y75350500D01*
X180252Y75350500D01*
X174184Y75349293D01*
X133939Y75341288D01*
X133938Y75341288D01*
X121769Y75338867D01*
X111452Y75331973D01*
X111449Y75331972D01*
X70003Y75304278D01*
X2251Y75283062D01*
X-70003Y75304278D01*
X-111449Y75331972D01*
X-111452Y75331973D01*
X-121769Y75338867D01*
X-133938Y75341288D01*
X-133939Y75341288D01*
X-174184Y75349293D01*
X-180252Y75350500D01*
X-1169748Y75350500D01*
X-1175816Y75349293D01*
X-1216061Y75341288D01*
X-1216062Y75341288D01*
X-1228231Y75338867D01*
X-1294552Y75294552D01*
X-1338867Y75228231D01*
X-1350500Y75169748D01*
X-1350500Y74680252D01*
X-1338867Y74621769D01*
X-1331973Y74611452D01*
X-1331972Y74611449D01*
X-1304278Y74570003D01*
X-1283062Y74502251D01*
X-1304278Y74429997D01*
X-1331972Y74388551D01*
X-1331973Y74388548D01*
X-1338867Y74378231D01*
X-1350500Y74319748D01*
X-1350500Y74091306D01*
X-1370502Y74023185D01*
X-1387405Y74002211D01*
X-2827211Y72562405D01*
X-2889523Y72528379D01*
X-2916306Y72525500D01*
X-3598500Y72525500D01*
X-3666621Y72545502D01*
X-3713114Y72599158D01*
X-3724500Y72651500D01*
X-3724500Y84957905D01*
X-1604972Y84957905D01*
X-1579466Y84690569D01*
X-1515636Y84429715D01*
X-1414818Y84180808D01*
X-1279125Y83949062D01*
X-1276272Y83945495D01*
X-1164775Y83806075D01*
X-1111399Y83739331D01*
X-915154Y83556009D01*
X-822961Y83492052D01*
X-698254Y83405539D01*
X-698249Y83405536D01*
X-694501Y83402936D01*
X-690416Y83400904D01*
X-690413Y83400902D01*
X-574282Y83343128D01*
X-454062Y83283320D01*
X-449728Y83281899D01*
X-449725Y83281898D01*
X-203207Y83201085D01*
X-203202Y83201084D01*
X-198874Y83199665D01*
X-194383Y83198885D01*
X-194382Y83198885D01*
X61936Y83154380D01*
X61944Y83154379D01*
X65717Y83153724D01*
X69554Y83153533D01*
X148996Y83149578D01*
X149004Y83149578D01*
X150567Y83149500D01*
X318223Y83149500D01*
X320491Y83149665D01*
X320503Y83149665D01*
X450823Y83159121D01*
X517846Y83163984D01*
X522301Y83164968D01*
X522304Y83164968D01*
X775620Y83220895D01*
X775624Y83220896D01*
X780080Y83221880D01*
X947617Y83285354D01*
X1026941Y83315407D01*
X1026944Y83315408D01*
X1031211Y83317025D01*
X1265976Y83447426D01*
X1408254Y83556009D01*
X1475833Y83607583D01*
X1475837Y83607587D01*
X1479458Y83610350D01*
X1667185Y83802386D01*
X1825225Y84019509D01*
X1912313Y84185037D01*
X1948140Y84253132D01*
X1948143Y84253138D01*
X1950265Y84257172D01*
X2009703Y84425485D01*
X2038165Y84506084D01*
X2038165Y84506085D01*
X2039688Y84510397D01*
X2091620Y84773878D01*
X2091847Y84778434D01*
X2104745Y85037526D01*
X2104745Y85037532D01*
X2104972Y85042095D01*
X2079466Y85309431D01*
X2015636Y85570285D01*
X1914818Y85819192D01*
X1779125Y86050938D01*
X1668211Y86189629D01*
X1614251Y86257103D01*
X1614250Y86257105D01*
X1611399Y86260669D01*
X1415154Y86443991D01*
X1255436Y86554792D01*
X1198254Y86594461D01*
X1198249Y86594464D01*
X1194501Y86597064D01*
X1190416Y86599096D01*
X1190413Y86599098D01*
X1018560Y86684593D01*
X954062Y86716680D01*
X949728Y86718101D01*
X949725Y86718102D01*
X703207Y86798915D01*
X703202Y86798916D01*
X698874Y86800335D01*
X694382Y86801115D01*
X438064Y86845620D01*
X438056Y86845621D01*
X434283Y86846276D01*
X425622Y86846707D01*
X351004Y86850422D01*
X350996Y86850422D01*
X349433Y86850500D01*
X181777Y86850500D01*
X179509Y86850335D01*
X179497Y86850335D01*
X49177Y86840879D01*
X-17846Y86836016D01*
X-22301Y86835032D01*
X-22304Y86835032D01*
X-275620Y86779105D01*
X-275624Y86779104D01*
X-280080Y86778120D01*
X-405645Y86730548D01*
X-526941Y86684593D01*
X-526944Y86684592D01*
X-531211Y86682975D01*
X-765976Y86552574D01*
X-769608Y86549802D01*
X-975833Y86392417D01*
X-975837Y86392413D01*
X-979458Y86389650D01*
X-1167185Y86197614D01*
X-1325225Y85980491D01*
X-1327349Y85976453D01*
X-1448140Y85746868D01*
X-1448143Y85746862D01*
X-1450265Y85742828D01*
X-1451785Y85738523D01*
X-1451787Y85738519D01*
X-1511196Y85570285D01*
X-1539688Y85489603D01*
X-1591620Y85226122D01*
X-1591847Y85221569D01*
X-1591847Y85221566D01*
X-1601008Y85037526D01*
X-1604972Y84957905D01*
X-3724500Y84957905D01*
X-3724500Y121998500D01*
X-3704498Y122066621D01*
X-3650842Y122113114D01*
X-3598500Y122124500D01*
X-2639543Y122124500D01*
X-2614961Y122122079D01*
X-2600000Y122119103D01*
X-2572868Y122124500D01*
X-2572867Y122124500D01*
X-2492505Y122140485D01*
X-2450535Y122168529D01*
X-2450535Y122168528D01*
X-2450532Y122168531D01*
X-2424378Y122186006D01*
X-2421811Y122182165D01*
X-2421810Y122182166D01*
X-2424377Y122186007D01*
X-2411689Y122194485D01*
X-2401376Y122201376D01*
X-2392898Y122214064D01*
X-2377228Y122233156D01*
X-997789Y123612595D01*
X-935477Y123646621D01*
X-908694Y123649500D01*
X-180252Y123649500D01*
X-174184Y123650707D01*
X-133939Y123658712D01*
X-133938Y123658712D01*
X-121769Y123661133D01*
X-111452Y123668027D01*
X-111449Y123668028D01*
X-70003Y123695722D01*
X-2251Y123716938D01*
X70003Y123695722D01*
X111449Y123668028D01*
X111452Y123668027D01*
X121769Y123661133D01*
X133938Y123658712D01*
X133939Y123658712D01*
X174184Y123650707D01*
X180252Y123649500D01*
X810104Y123649500D01*
X878225Y123629498D01*
X899199Y123612595D01*
X1927595Y122584199D01*
X1961621Y122521887D01*
X1964500Y122495104D01*
X1964500Y121065764D01*
X1944498Y120997643D01*
X1914364Y120966288D01*
X1909596Y120964065D01*
X1825935Y120880404D01*
X1775932Y120773173D01*
X1769500Y120724316D01*
X1769500Y120275684D01*
X1775932Y120226827D01*
X1825935Y120119596D01*
X1909596Y120035935D01*
X1919588Y120031275D01*
X1919589Y120031275D01*
X1959623Y120012607D01*
X2016827Y119985932D01*
X2065684Y119979500D01*
X2110464Y119979500D01*
X2178585Y119959498D01*
X2225078Y119905842D01*
X2235182Y119835568D01*
X2224058Y119803423D01*
X2225464Y119802841D01*
X2164956Y119656762D01*
X2144318Y119500000D01*
X2164956Y119343238D01*
X2225464Y119197159D01*
X2321718Y119071718D01*
X2447159Y118975464D01*
X2593238Y118914956D01*
X2750000Y118894318D01*
X2758188Y118895396D01*
X2898574Y118913878D01*
X2906762Y118914956D01*
X3052841Y118975464D01*
X3178282Y119071718D01*
X3274536Y119197159D01*
X3335044Y119343238D01*
X3355682Y119500000D01*
X3338656Y119629326D01*
X3349595Y119699475D01*
X3374483Y119734867D01*
X3426844Y119787228D01*
X3445936Y119802898D01*
X3448307Y119804482D01*
X3448308Y119804483D01*
X3458624Y119811376D01*
X3519515Y119902505D01*
X3529551Y119952957D01*
X3562457Y120015865D01*
X3580589Y120031358D01*
X3590404Y120035935D01*
X3674065Y120119596D01*
X3724068Y120226827D01*
X3730500Y120275684D01*
X3730500Y120528694D01*
X3750502Y120596815D01*
X3767405Y120617789D01*
X4416844Y121267228D01*
X4435936Y121282898D01*
X4438307Y121284482D01*
X4438308Y121284483D01*
X4448624Y121291376D01*
X4509515Y121382505D01*
X4525500Y121462867D01*
X4525500Y121462871D01*
X4530896Y121490000D01*
X4527921Y121504957D01*
X4525500Y121529537D01*
X4525500Y182470463D01*
X4527921Y182495043D01*
X4528475Y182497828D01*
X4530896Y182510000D01*
X4525500Y182537129D01*
X4525500Y182537133D01*
X4509515Y182617495D01*
X4448624Y182708624D01*
X4435936Y182717102D01*
X4416844Y182732772D01*
X3767405Y183382211D01*
X3733379Y183444523D01*
X3730500Y183471306D01*
X3730500Y183724316D01*
X3724068Y183773173D01*
X3674065Y183880404D01*
X3590404Y183964065D01*
X3535501Y183989667D01*
X3491910Y184009994D01*
X3491909Y184009994D01*
X3483173Y184014068D01*
X3434316Y184020500D01*
X3085684Y184020500D01*
X3036827Y184014068D01*
X3028091Y184009994D01*
X3028090Y184009994D01*
X2984499Y183989667D01*
X2929596Y183964065D01*
X2845935Y183880404D01*
X2845247Y183881092D01*
X2797753Y183843131D01*
X2727133Y183835823D01*
X2663774Y183867856D01*
X2655421Y183877496D01*
X2654065Y183880404D01*
X2570404Y183964065D01*
X2566600Y183965839D01*
X2524899Y184018012D01*
X2515500Y184065764D01*
X2515500Y184999457D01*
X2517921Y185024039D01*
X2518476Y185026829D01*
X2520897Y185039000D01*
X2499515Y185146494D01*
X2499515Y185146495D01*
X2438624Y185237624D01*
X2425936Y185246102D01*
X2406844Y185261772D01*
X1387405Y186281211D01*
X1353379Y186343523D01*
X1350500Y186370306D01*
X1350500Y186598748D01*
X1338867Y186657231D01*
X1331973Y186667548D01*
X1331972Y186667551D01*
X1304278Y186708997D01*
X1283062Y186776749D01*
X1304278Y186849003D01*
X1331972Y186890449D01*
X1331973Y186890452D01*
X1338867Y186900769D01*
X1350500Y186959252D01*
X1350500Y187144864D01*
X1370502Y187212985D01*
X1387405Y187233959D01*
X2216215Y188062769D01*
X2224319Y188070196D01*
X2244749Y188087339D01*
X2253194Y188094425D01*
X2258707Y188103974D01*
X2272039Y188127065D01*
X2277945Y188136336D01*
X2293230Y188158165D01*
X2299554Y188167196D01*
X2302408Y188177846D01*
X2303885Y188181014D01*
X2305077Y188184290D01*
X2310588Y188193835D01*
X2317130Y188230938D01*
X2319509Y188241670D01*
X2329264Y188278073D01*
X2325979Y188315623D01*
X2325500Y188326604D01*
X2325500Y188503542D01*
X2345502Y188571663D01*
X2368990Y188596102D01*
X2368316Y188596776D01*
X2370933Y188599393D01*
X2373501Y188600795D01*
X2379229Y188606755D01*
X2385140Y188610894D01*
X2387036Y188608186D01*
X2433245Y188633419D01*
X2504060Y188628354D01*
X2559989Y188587004D01*
X2571718Y188571718D01*
X2578268Y188566692D01*
X2578269Y188566691D01*
X2599890Y188550101D01*
X2697159Y188475464D01*
X2843238Y188414956D01*
X3000000Y188394318D01*
X3008188Y188395396D01*
X3148574Y188413878D01*
X3156762Y188414956D01*
X3302841Y188475464D01*
X3428282Y188571718D01*
X3524536Y188697159D01*
X3585044Y188843238D01*
X3605682Y189000000D01*
X3585044Y189156762D01*
X3524536Y189302841D01*
X3428282Y189428282D01*
X3302841Y189524536D01*
X3156762Y189585044D01*
X3000000Y189605682D01*
X2843238Y189585044D01*
X2697159Y189524536D01*
X2571718Y189428282D01*
X2567084Y189422243D01*
X2505037Y189388360D01*
X2434221Y189393423D01*
X2389155Y189422385D01*
X2368316Y189443224D01*
X2259487Y189493972D01*
X2209901Y189500500D01*
X2000077Y189500500D01*
X1790100Y189500499D01*
X1740513Y189493972D01*
X1631684Y189443224D01*
X1589095Y189400635D01*
X1526783Y189366609D01*
X1455968Y189371674D01*
X1410905Y189400635D01*
X1368316Y189443224D01*
X1259487Y189493972D01*
X1209901Y189500500D01*
X1000077Y189500500D01*
X790100Y189500499D01*
X740513Y189493972D01*
X631684Y189443224D01*
X546776Y189358316D01*
X542117Y189348324D01*
X542116Y189348323D01*
X500102Y189258224D01*
X496028Y189249487D01*
X489500Y189199901D01*
X489501Y188840100D01*
X496028Y188790513D01*
X546776Y188681684D01*
X631684Y188596776D01*
X641676Y188592117D01*
X641677Y188592116D01*
X731776Y188550102D01*
X740513Y188546028D01*
X790099Y188539500D01*
X999923Y188539500D01*
X1209900Y188539501D01*
X1259487Y188546028D01*
X1270787Y188551297D01*
X1358323Y188592116D01*
X1358324Y188592117D01*
X1368316Y188596776D01*
X1410905Y188639365D01*
X1473217Y188673391D01*
X1544032Y188668326D01*
X1589095Y188639365D01*
X1631684Y188596776D01*
X1630052Y188595144D01*
X1665100Y188551297D01*
X1674500Y188503542D01*
X1674500Y188493896D01*
X1654498Y188425775D01*
X1637595Y188404801D01*
X899199Y187666405D01*
X836887Y187632379D01*
X810104Y187629500D01*
X180252Y187629500D01*
X174184Y187628293D01*
X133939Y187620288D01*
X133938Y187620288D01*
X121769Y187617867D01*
X111452Y187610973D01*
X111449Y187610972D01*
X70003Y187583278D01*
X2251Y187562062D01*
X-70003Y187583278D01*
X-111449Y187610972D01*
X-111452Y187610973D01*
X-121769Y187617867D01*
X-133938Y187620288D01*
X-133939Y187620288D01*
X-174184Y187628293D01*
X-180252Y187629500D01*
X-1169748Y187629500D01*
X-1175816Y187628293D01*
X-1216061Y187620288D01*
X-1216062Y187620288D01*
X-1228231Y187617867D01*
X-1294552Y187573552D01*
X-1338867Y187507231D01*
X-1350500Y187448748D01*
X-1350500Y186959252D01*
X-1338867Y186900769D01*
X-1331973Y186890452D01*
X-1331972Y186890449D01*
X-1304278Y186849003D01*
X-1283062Y186781251D01*
X-1304278Y186708997D01*
X-1331972Y186667551D01*
X-1331973Y186667548D01*
X-1338867Y186657231D01*
X-1350500Y186598748D01*
X-1350500Y186271716D01*
X-1370502Y186203595D01*
X-1387405Y186182621D01*
X-2757621Y184812405D01*
X-2819933Y184778379D01*
X-2846716Y184775500D01*
X-3598500Y184775500D01*
X-3666621Y184795502D01*
X-3713114Y184849158D01*
X-3724500Y184901500D01*
X-3724500Y261848500D01*
X-3704498Y261916621D01*
X-3650842Y261963114D01*
X-3598500Y261974500D01*
X-2690953Y261974500D01*
X-2666371Y261972079D01*
X-2651410Y261969103D01*
X-2624278Y261974500D01*
X-2624277Y261974500D01*
X-2543915Y261990485D01*
X-2501945Y262018529D01*
X-2501945Y262018528D01*
X-2501942Y262018531D01*
X-2475788Y262036006D01*
X-2473221Y262032165D01*
X-2473220Y262032166D01*
X-2475787Y262036007D01*
X-2463099Y262044485D01*
X-2452786Y262051376D01*
X-2444308Y262064064D01*
X-2428638Y262083156D01*
X-899199Y263612595D01*
X-836887Y263646621D01*
X-810104Y263649500D01*
X-180252Y263649500D01*
X-174184Y263650707D01*
X-133939Y263658712D01*
X-133938Y263658712D01*
X-121769Y263661133D01*
X-111452Y263668027D01*
X-111449Y263668028D01*
X-70003Y263695722D01*
X-2251Y263716938D01*
X70003Y263695722D01*
X111449Y263668028D01*
X111452Y263668027D01*
X121769Y263661133D01*
X133938Y263658712D01*
X133939Y263658712D01*
X174184Y263650707D01*
X180252Y263649500D01*
X810104Y263649500D01*
X878225Y263629498D01*
X899199Y263612595D01*
X2177595Y262334199D01*
X2211621Y262271887D01*
X2214500Y262245104D01*
X2214500Y261815764D01*
X2194498Y261747643D01*
X2164364Y261716288D01*
X2159596Y261714065D01*
X2075935Y261630404D01*
X2025932Y261523173D01*
X2019500Y261474316D01*
X2019500Y261025684D01*
X2025932Y260976827D01*
X2075935Y260869596D01*
X2159596Y260785935D01*
X2169588Y260781275D01*
X2169589Y260781275D01*
X2231604Y260752357D01*
X2266827Y260735932D01*
X2315684Y260729500D01*
X2664316Y260729500D01*
X2713173Y260735932D01*
X2748397Y260752357D01*
X2810411Y260781275D01*
X2810412Y260781275D01*
X2820404Y260785935D01*
X2904065Y260869596D01*
X2904753Y260868908D01*
X2952247Y260906869D01*
X3022867Y260914177D01*
X3086226Y260882144D01*
X3094579Y260872504D01*
X3095935Y260869596D01*
X3179596Y260785935D01*
X3183400Y260784161D01*
X3225101Y260731988D01*
X3234500Y260684236D01*
X3234500Y260615326D01*
X3214498Y260547205D01*
X3185204Y260515364D01*
X3078268Y260433309D01*
X3078264Y260433305D01*
X3071718Y260428282D01*
X2975464Y260302841D01*
X2914956Y260156762D01*
X2894318Y260000000D01*
X2914956Y259843238D01*
X2975464Y259697159D01*
X3071718Y259571718D01*
X3197159Y259475464D01*
X3343238Y259414956D01*
X3500000Y259394318D01*
X3508188Y259395396D01*
X3648574Y259413878D01*
X3656762Y259414956D01*
X3802841Y259475464D01*
X3928282Y259571718D01*
X4024536Y259697159D01*
X4085044Y259843238D01*
X4105682Y260000000D01*
X4085044Y260156762D01*
X4024536Y260302841D01*
X3928282Y260428282D01*
X3834796Y260500016D01*
X3792929Y260557354D01*
X3785500Y260599979D01*
X3785500Y260684236D01*
X3805502Y260752357D01*
X3835636Y260783712D01*
X3840404Y260785935D01*
X3924065Y260869596D01*
X3974068Y260976827D01*
X3980500Y261025684D01*
X3980500Y261310859D01*
X3998571Y261370431D01*
X3997871Y261370721D01*
X4000814Y261377826D01*
X4001734Y261380859D01*
X4002619Y261382183D01*
X4002621Y261382187D01*
X4009515Y261392505D01*
X4025500Y261472867D01*
X4025500Y261472871D01*
X4030896Y261500000D01*
X4027921Y261514957D01*
X4025500Y261539537D01*
X4025500Y312460457D01*
X4027921Y312485037D01*
X4028476Y312487827D01*
X4028476Y312487829D01*
X4030897Y312500000D01*
X4009515Y312607494D01*
X4009515Y312607495D01*
X3948624Y312698624D01*
X3935936Y312707102D01*
X3916844Y312722772D01*
X-937595Y317577211D01*
X-971621Y317639523D01*
X-974500Y317666306D01*
X-974500Y321333694D01*
X-954498Y321401815D01*
X-937595Y321422789D01*
X906844Y323267228D01*
X925936Y323282898D01*
X928307Y323284482D01*
X928308Y323284483D01*
X938624Y323291376D01*
X999515Y323382505D01*
X1015500Y323462867D01*
X1015500Y323462868D01*
X1020897Y323490000D01*
X1017921Y323504961D01*
X1015500Y323529543D01*
X1015500Y357934236D01*
X1035502Y358002357D01*
X1065636Y358033712D01*
X1070404Y358035935D01*
X1154065Y358119596D01*
X1154753Y358118908D01*
X1202247Y358156869D01*
X1272867Y358164177D01*
X1336226Y358132144D01*
X1344579Y358122504D01*
X1345935Y358119596D01*
X1429596Y358035935D01*
X1439588Y358031275D01*
X1439589Y358031275D01*
X1501604Y358002357D01*
X1536827Y357985932D01*
X1585684Y357979500D01*
X1934316Y357979500D01*
X1983173Y357985932D01*
X2018397Y358002357D01*
X2080411Y358031275D01*
X2080412Y358031275D01*
X2090404Y358035935D01*
X2174065Y358119596D01*
X2224068Y358226827D01*
X2230500Y358275684D01*
X2230500Y358724316D01*
X2224068Y358773173D01*
X2174065Y358880404D01*
X2090404Y358964065D01*
X2086600Y358965839D01*
X2044899Y359018012D01*
X2035500Y359065764D01*
X2035500Y360351868D01*
X2037921Y360376448D01*
X2038476Y360379238D01*
X2040897Y360391410D01*
X2019516Y360498904D01*
X1973994Y360567032D01*
X1973993Y360567033D01*
X1958624Y360590034D01*
X1945936Y360598512D01*
X1926844Y360614182D01*
X1387405Y361153621D01*
X1353379Y361215933D01*
X1350500Y361242716D01*
X1350500Y361569748D01*
X1338867Y361628231D01*
X1331973Y361638548D01*
X1331972Y361638551D01*
X1304278Y361679997D01*
X1283062Y361747749D01*
X1304278Y361820003D01*
X1331972Y361861449D01*
X1331973Y361861452D01*
X1338867Y361871769D01*
X1350500Y361930252D01*
X1350500Y362115864D01*
X1370502Y362183985D01*
X1387405Y362204959D01*
X2216215Y363033769D01*
X2224319Y363041196D01*
X2244749Y363058339D01*
X2253194Y363065425D01*
X2258707Y363074974D01*
X2272039Y363098065D01*
X2277945Y363107336D01*
X2293230Y363129165D01*
X2299554Y363138196D01*
X2302408Y363148846D01*
X2303885Y363152014D01*
X2305077Y363155290D01*
X2310588Y363164835D01*
X2317130Y363201938D01*
X2319509Y363212670D01*
X2329264Y363249073D01*
X2325979Y363286623D01*
X2325500Y363297604D01*
X2325500Y363503542D01*
X2345502Y363571663D01*
X2368990Y363596102D01*
X2368316Y363596776D01*
X2371148Y363599608D01*
X2373699Y363601001D01*
X2379229Y363606755D01*
X2385140Y363610894D01*
X2386987Y363608257D01*
X2433460Y363633634D01*
X2504275Y363628569D01*
X2560204Y363587219D01*
X2566692Y363578764D01*
X2566695Y363578761D01*
X2571718Y363572215D01*
X2697159Y363475961D01*
X2843238Y363415453D01*
X2851426Y363414375D01*
X2921619Y363405134D01*
X3000000Y363394815D01*
X3008188Y363395893D01*
X3148574Y363414375D01*
X3156762Y363415453D01*
X3302841Y363475961D01*
X3428282Y363572215D01*
X3524536Y363697656D01*
X3585044Y363843735D01*
X3605682Y364000497D01*
X3585044Y364157259D01*
X3524536Y364303338D01*
X3428282Y364428779D01*
X3419620Y364435426D01*
X3348630Y364489898D01*
X3302841Y364525033D01*
X3156762Y364585541D01*
X3000000Y364606179D01*
X2843238Y364585541D01*
X2697159Y364525033D01*
X2651370Y364489898D01*
X2580381Y364435426D01*
X2571718Y364428779D01*
X2566936Y364422546D01*
X2504784Y364388608D01*
X2433969Y364393673D01*
X2388906Y364422634D01*
X2368316Y364443224D01*
X2259487Y364493972D01*
X2209901Y364500500D01*
X2000077Y364500500D01*
X1790100Y364500499D01*
X1740513Y364493972D01*
X1631684Y364443224D01*
X1589095Y364400635D01*
X1526783Y364366609D01*
X1455968Y364371674D01*
X1410905Y364400635D01*
X1368316Y364443224D01*
X1259487Y364493972D01*
X1209901Y364500500D01*
X1000077Y364500500D01*
X790100Y364500499D01*
X740513Y364493972D01*
X631684Y364443224D01*
X546776Y364358316D01*
X496028Y364249487D01*
X489500Y364199901D01*
X489501Y363840100D01*
X496028Y363790513D01*
X546776Y363681684D01*
X631684Y363596776D01*
X641676Y363592117D01*
X641677Y363592116D01*
X731776Y363550102D01*
X740513Y363546028D01*
X790099Y363539500D01*
X999923Y363539500D01*
X1209900Y363539501D01*
X1259487Y363546028D01*
X1270787Y363551297D01*
X1358323Y363592116D01*
X1358324Y363592117D01*
X1368316Y363596776D01*
X1410905Y363639365D01*
X1473217Y363673391D01*
X1544032Y363668326D01*
X1589095Y363639365D01*
X1631684Y363596776D01*
X1630052Y363595144D01*
X1665100Y363551297D01*
X1674500Y363503542D01*
X1674500Y363464896D01*
X1654498Y363396775D01*
X1637595Y363375801D01*
X899199Y362637405D01*
X836887Y362603379D01*
X810104Y362600500D01*
X180252Y362600500D01*
X174184Y362599293D01*
X133939Y362591288D01*
X133938Y362591288D01*
X121769Y362588867D01*
X111452Y362581973D01*
X111449Y362581972D01*
X70003Y362554278D01*
X2251Y362533062D01*
X-70003Y362554278D01*
X-111449Y362581972D01*
X-111452Y362581973D01*
X-121769Y362588867D01*
X-133938Y362591288D01*
X-133939Y362591288D01*
X-174184Y362599293D01*
X-180252Y362600500D01*
X-1169748Y362600500D01*
X-1175816Y362599293D01*
X-1216061Y362591288D01*
X-1216062Y362591288D01*
X-1228231Y362588867D01*
X-1294552Y362544552D01*
X-1338867Y362478231D01*
X-1350500Y362419748D01*
X-1350500Y361930252D01*
X-1338867Y361871769D01*
X-1331973Y361861452D01*
X-1331972Y361861449D01*
X-1304278Y361820003D01*
X-1283062Y361752251D01*
X-1304278Y361679997D01*
X-1331972Y361638551D01*
X-1331973Y361638548D01*
X-1338867Y361628231D01*
X-1350500Y361569748D01*
X-1350500Y361341306D01*
X-1370502Y361273185D01*
X-1387405Y361252211D01*
X-2827211Y359812405D01*
X-2889523Y359778379D01*
X-2916306Y359775500D01*
X-3348500Y359775500D01*
X-3416621Y359795502D01*
X-3463114Y359849158D01*
X-3474500Y359901500D01*
X-3474500Y421583694D01*
X-3454498Y421651815D01*
X-3437595Y421672789D01*
X1416844Y426527228D01*
X1435936Y426542898D01*
X1438307Y426544482D01*
X1438308Y426544483D01*
X1448624Y426551376D01*
X1509515Y426642505D01*
X1525500Y426722867D01*
X1525500Y426722868D01*
X1530897Y426750000D01*
X1527921Y426764963D01*
X1525500Y426789543D01*
X1525500Y432960458D01*
X1527921Y432985038D01*
X1528476Y432987828D01*
X1530897Y433000000D01*
X1509516Y433107494D01*
X1463994Y433175622D01*
X1463993Y433175623D01*
X1448624Y433198624D01*
X1435936Y433207102D01*
X1416844Y433222772D01*
X-2687595Y437327211D01*
X-2721621Y437389523D01*
X-2724500Y437416306D01*
X-2724500Y481049205D01*
X-2704498Y481117326D01*
X-2650842Y481163819D01*
X-2598500Y481175205D01*
X-1990248Y481175205D01*
X-1965666Y481172784D01*
X-1950705Y481169808D01*
X-1923573Y481175205D01*
X-1923572Y481175205D01*
X-1843210Y481191190D01*
X-1795802Y481222867D01*
X-1775083Y481236711D01*
X-1775082Y481236712D01*
X-1752081Y481252081D01*
X-1743603Y481264769D01*
X-1727933Y481283861D01*
X-899199Y482112595D01*
X-836887Y482146621D01*
X-810104Y482149500D01*
X-180252Y482149500D01*
X-174184Y482150707D01*
X-133939Y482158712D01*
X-133938Y482158712D01*
X-121769Y482161133D01*
X-111452Y482168027D01*
X-111449Y482168028D01*
X-70003Y482195722D01*
X-2251Y482216938D01*
X70003Y482195722D01*
X111449Y482168028D01*
X111452Y482168027D01*
X121769Y482161133D01*
X133938Y482158712D01*
X133939Y482158712D01*
X174184Y482150707D01*
X180252Y482149500D01*
X908694Y482149500D01*
X976815Y482129498D01*
X997789Y482112595D01*
X1437595Y481672789D01*
X1471621Y481610477D01*
X1474500Y481583694D01*
X1474500Y481072766D01*
X1454498Y481004645D01*
X1420773Y480969554D01*
X1419589Y480968725D01*
X1409596Y480964065D01*
X1325935Y480880404D01*
X1275932Y480773173D01*
X1269500Y480724316D01*
X1269500Y480275684D01*
X1275932Y480226827D01*
X1325935Y480119596D01*
X1409596Y480035935D01*
X1419588Y480031275D01*
X1419589Y480031275D01*
X1489869Y479998503D01*
X1516827Y479985932D01*
X1565684Y479979500D01*
X1914316Y479979500D01*
X1963173Y479985932D01*
X1990132Y479998503D01*
X2060411Y480031275D01*
X2060412Y480031275D01*
X2070404Y480035935D01*
X2154065Y480119596D01*
X2154753Y480118908D01*
X2202247Y480156869D01*
X2272867Y480164177D01*
X2336226Y480132144D01*
X2344579Y480122504D01*
X2345935Y480119596D01*
X2353730Y480111801D01*
X2356949Y480107204D01*
X2379635Y480039929D01*
X2362348Y479971069D01*
X2330437Y479934973D01*
X2328267Y479933308D01*
X2328264Y479933305D01*
X2321718Y479928282D01*
X2225464Y479802841D01*
X2164956Y479656762D01*
X2144318Y479500000D01*
X2164956Y479343238D01*
X2225464Y479197159D01*
X2321718Y479071718D01*
X2447159Y478975464D01*
X2593238Y478914956D01*
X2750000Y478894318D01*
X2758188Y478895396D01*
X2898574Y478913878D01*
X2906762Y478914956D01*
X3052841Y478975464D01*
X3178282Y479071718D01*
X3274536Y479197159D01*
X3335044Y479343238D01*
X3355682Y479500000D01*
X3335044Y479656762D01*
X3274536Y479802841D01*
X3178282Y479928282D01*
X3171736Y479933305D01*
X3168850Y479936191D01*
X3134824Y479998503D01*
X3139889Y480069318D01*
X3160943Y480102077D01*
X3159948Y480102774D01*
X3166267Y480111798D01*
X3174065Y480119596D01*
X3224068Y480226827D01*
X3230500Y480275684D01*
X3230500Y480288694D01*
X3250502Y480356815D01*
X3267405Y480377789D01*
X3916844Y481027228D01*
X3935936Y481042898D01*
X3938307Y481044482D01*
X3938308Y481044483D01*
X3948624Y481051376D01*
X4009515Y481142505D01*
X4025500Y481222867D01*
X4025500Y481222868D01*
X4030897Y481250000D01*
X4027921Y481264961D01*
X4025500Y481289543D01*
X4025500Y557710457D01*
X4027921Y557735037D01*
X4028476Y557737827D01*
X4028476Y557737829D01*
X4030897Y557750000D01*
X4009515Y557857494D01*
X4009515Y557857495D01*
X3948624Y557948624D01*
X3935936Y557957102D01*
X3916844Y557972772D01*
X-937595Y562827211D01*
X-971621Y562889523D01*
X-974500Y562916306D01*
X-974500Y629833694D01*
X-954498Y629901815D01*
X-937595Y629922789D01*
X582211Y631442595D01*
X644523Y631476621D01*
X671306Y631479500D01*
X914316Y631479500D01*
X963173Y631485932D01*
X1070404Y631535935D01*
X1154065Y631619596D01*
X1154753Y631618908D01*
X1202247Y631656869D01*
X1272867Y631664177D01*
X1336226Y631632144D01*
X1344579Y631622504D01*
X1345935Y631619596D01*
X1429596Y631535935D01*
X1536827Y631485932D01*
X1585684Y631479500D01*
X1934316Y631479500D01*
X1983173Y631485932D01*
X2090404Y631535935D01*
X2174065Y631619596D01*
X2221931Y631722244D01*
X2268849Y631775529D01*
X2337126Y631794990D01*
X2389376Y631783189D01*
X2405803Y631775529D01*
X2490513Y631736028D01*
X2540099Y631729500D01*
X2749923Y631729500D01*
X2959900Y631729501D01*
X3009487Y631736028D01*
X3094530Y631775684D01*
X3108323Y631782116D01*
X3108324Y631782117D01*
X3118316Y631786776D01*
X3203224Y631871684D01*
X3253972Y631980513D01*
X3260500Y632030099D01*
X3260499Y632207983D01*
X3280501Y632276103D01*
X3297404Y632297078D01*
X3966215Y632965889D01*
X3974319Y632973316D01*
X3994749Y632990459D01*
X4003194Y632997545D01*
X4008707Y633007094D01*
X4022039Y633030185D01*
X4027945Y633039456D01*
X4043230Y633061285D01*
X4049554Y633070316D01*
X4052408Y633080966D01*
X4053885Y633084134D01*
X4055077Y633087410D01*
X4060588Y633096955D01*
X4067130Y633134058D01*
X4069509Y633144790D01*
X4079264Y633181193D01*
X4078303Y633192173D01*
X4078426Y633193574D01*
X4104289Y633259692D01*
X4127243Y633282554D01*
X4171733Y633316692D01*
X4171736Y633316695D01*
X4178282Y633321718D01*
X4274536Y633447159D01*
X4335044Y633593238D01*
X4343983Y633661133D01*
X4354604Y633741812D01*
X4355682Y633750000D01*
X4335044Y633906762D01*
X4274536Y634052841D01*
X4178282Y634178282D01*
X4124796Y634219323D01*
X4082929Y634276661D01*
X4075500Y634319286D01*
X4075500Y634480287D01*
X4075979Y634491268D01*
X4078303Y634517830D01*
X4078303Y634517832D01*
X4079263Y634528807D01*
X4069508Y634565217D01*
X4067133Y634575928D01*
X4060588Y634613045D01*
X4055078Y634622589D01*
X4053886Y634625865D01*
X4052407Y634629036D01*
X4049554Y634639684D01*
X4027940Y634670552D01*
X4022036Y634679821D01*
X4008707Y634702908D01*
X4008704Y634702912D01*
X4003194Y634712455D01*
X3974324Y634736680D01*
X3966221Y634744106D01*
X3297405Y635412922D01*
X3263379Y635475234D01*
X3260500Y635502016D01*
X3260499Y635655776D01*
X3260499Y635659900D01*
X3253972Y635709487D01*
X3240347Y635738707D01*
X3207884Y635808323D01*
X3207883Y635808324D01*
X3203224Y635818316D01*
X3118316Y635903224D01*
X3009487Y635953972D01*
X2959901Y635960500D01*
X2750077Y635960500D01*
X2540100Y635960499D01*
X2490513Y635953972D01*
X2381684Y635903224D01*
X2320865Y635842405D01*
X2258553Y635808379D01*
X2231770Y635805500D01*
X1499711Y635805500D01*
X1488729Y635805980D01*
X1462179Y635808303D01*
X1462178Y635808303D01*
X1451194Y635809264D01*
X1440543Y635806410D01*
X1440542Y635806410D01*
X1414792Y635799511D01*
X1404065Y635797133D01*
X1377815Y635792504D01*
X1377810Y635792502D01*
X1366955Y635790588D01*
X1357407Y635785075D01*
X1354131Y635783883D01*
X1350969Y635782409D01*
X1340316Y635779554D01*
X1331285Y635773230D01*
X1309456Y635757945D01*
X1300185Y635752039D01*
X1277094Y635738707D01*
X1267545Y635733194D01*
X1260459Y635724749D01*
X1243315Y635704318D01*
X1235889Y635696215D01*
X927079Y635387405D01*
X864767Y635353379D01*
X837984Y635350500D01*
X180252Y635350500D01*
X174184Y635349293D01*
X133939Y635341288D01*
X133938Y635341288D01*
X121769Y635338867D01*
X111452Y635331973D01*
X111449Y635331972D01*
X70003Y635304278D01*
X2251Y635283062D01*
X-70003Y635304278D01*
X-111449Y635331972D01*
X-111452Y635331973D01*
X-121769Y635338867D01*
X-133938Y635341288D01*
X-133939Y635341288D01*
X-174184Y635349293D01*
X-180252Y635350500D01*
X-1169748Y635350500D01*
X-1175816Y635349293D01*
X-1216061Y635341288D01*
X-1216062Y635341288D01*
X-1228231Y635338867D01*
X-1294552Y635294552D01*
X-1338867Y635228231D01*
X-1350500Y635169748D01*
X-1350500Y634680252D01*
X-1349293Y634674184D01*
X-1344226Y634648713D01*
X-1338867Y634621769D01*
X-1331973Y634611452D01*
X-1331972Y634611449D01*
X-1304278Y634570003D01*
X-1283062Y634502251D01*
X-1304278Y634429997D01*
X-1331972Y634388551D01*
X-1331973Y634388548D01*
X-1338867Y634378231D01*
X-1341288Y634366062D01*
X-1341288Y634366061D01*
X-1345809Y634343332D01*
X-1350500Y634319748D01*
X-1350500Y633992716D01*
X-1370502Y633924595D01*
X-1387405Y633903621D01*
X-4416844Y630874182D01*
X-4435936Y630858512D01*
X-4448624Y630850034D01*
X-4509515Y630758905D01*
X-4509515Y630758904D01*
X-4530897Y630651410D01*
X-4528476Y630639239D01*
X-4527921Y630636449D01*
X-4525500Y630611867D01*
X-4525500Y562289543D01*
X-4527921Y562264961D01*
X-4530897Y562250000D01*
X-4525500Y562222868D01*
X-4525500Y562222867D01*
X-4509515Y562142505D01*
X-4448624Y562051376D01*
X-4438308Y562044483D01*
X-4438307Y562044482D01*
X-4435936Y562042898D01*
X-4416844Y562027228D01*
X1437595Y556172789D01*
X1471621Y556110477D01*
X1474500Y556083694D01*
X1474500Y549666306D01*
X1454498Y549598185D01*
X1437595Y549577211D01*
X-3166844Y544972772D01*
X-3185936Y544957102D01*
X-3198624Y544948624D01*
X-3259515Y544857495D01*
X-3259515Y544857494D01*
X-3280897Y544750000D01*
X-3278476Y544737829D01*
X-3277921Y544735039D01*
X-3275500Y544710457D01*
X-3275500Y481539543D01*
X-3277921Y481514963D01*
X-3280897Y481500000D01*
X-3278476Y481487829D01*
X-3277921Y481485039D01*
X-3275500Y481460457D01*
X-3275500Y437289543D01*
X-3277921Y437264961D01*
X-3280897Y437250000D01*
X-3275500Y437222868D01*
X-3275500Y437222867D01*
X-3259515Y437142505D01*
X-3198624Y437051376D01*
X-3188308Y437044483D01*
X-3188307Y437044482D01*
X-3185936Y437042898D01*
X-3166844Y437027228D01*
X937595Y432922789D01*
X971621Y432860477D01*
X974500Y432833694D01*
X974500Y426916306D01*
X954498Y426848185D01*
X937595Y426827211D01*
X-3916844Y421972772D01*
X-3935936Y421957102D01*
X-3948624Y421948624D01*
X-4009515Y421857495D01*
X-4009515Y421857494D01*
X-4030897Y421750000D01*
X-4028476Y421737829D01*
X-4027921Y421735039D01*
X-4025500Y421710457D01*
X-4025500Y359539543D01*
X-4027921Y359514963D01*
X-4030897Y359500000D01*
X-4028476Y359487829D01*
X-4028476Y359487827D01*
X-4027921Y359485037D01*
X-4025500Y359460457D01*
X-4025500Y317039543D01*
X-4027921Y317014961D01*
X-4030897Y317000000D01*
X-4025500Y316972868D01*
X-4025500Y316972867D01*
X-4009515Y316892505D01*
X-3948624Y316801376D01*
X-3938308Y316794483D01*
X-3938307Y316794482D01*
X-3935936Y316792898D01*
X-3916844Y316777228D01*
X687595Y312172789D01*
X721621Y312110477D01*
X724500Y312083694D01*
X724500Y307666306D01*
X704498Y307598185D01*
X687595Y307577211D01*
X-4166844Y302722772D01*
X-4185936Y302707102D01*
X-4198624Y302698624D01*
X-4259515Y302607495D01*
X-4259515Y302607494D01*
X-4280897Y302500000D01*
X-4278476Y302487829D01*
X-4277921Y302485039D01*
X-4275500Y302460457D01*
X-4275500Y262289543D01*
X-4277921Y262264963D01*
X-4280897Y262250000D01*
X-4278476Y262237829D01*
X-4278476Y262237827D01*
X-4277921Y262235037D01*
X-4275500Y262210457D01*
X-4275500Y184539543D01*
X-4277921Y184514963D01*
X-4280897Y184500000D01*
X-4278476Y184487829D01*
X-4278476Y184487827D01*
X-4277921Y184485037D01*
X-4275500Y184460457D01*
X-4275500Y122439543D01*
X-4277921Y122414963D01*
X-4280897Y122400000D01*
X-4278476Y122387829D01*
X-4278476Y122387827D01*
X-4277921Y122385037D01*
X-4275500Y122360457D01*
X-4275500Y72289543D01*
X-4277921Y72264963D01*
X-4280897Y72250000D01*
X-4278476Y72237829D01*
X-4278476Y72237827D01*
X-4277921Y72235037D01*
X-4275500Y72210457D01*
X-4275500Y57789543D01*
X-4277921Y57764963D01*
X-4280897Y57750000D01*
X-4278476Y57737829D01*
X-4278476Y57737827D01*
X-4277921Y57735037D01*
X-4275500Y57710457D01*
X-4275500Y40619205D01*
X-4295502Y40551084D01*
X-4349158Y40504591D01*
X-4419432Y40494487D01*
X-4484012Y40523981D01*
X-4522396Y40583707D01*
X-4526234Y40601386D01*
X-4798234Y42505385D01*
X-4799500Y42523204D01*
X-4799500Y307773298D01*
X-4779498Y307841419D01*
X-4725842Y307887912D01*
X-4674864Y307899291D01*
X72180Y307950661D01*
X64562Y308654673D01*
X83826Y308723006D01*
X97777Y308741290D01*
X138175Y308785253D01*
X138177Y308785256D01*
X143537Y308791089D01*
X221153Y308935962D01*
X260301Y309095586D01*
X251423Y309916012D01*
X252532Y309934102D01*
X253862Y309944029D01*
X253862Y309944035D01*
X254658Y309949976D01*
X253270Y309974278D01*
X250381Y310024851D01*
X250183Y310030673D01*
X241158Y310864630D01*
X241158Y310864633D01*
X241115Y310868585D01*
X224365Y310990544D01*
X162212Y311142694D01*
X64174Y311274607D01*
X65711Y311275750D01*
X37714Y311329635D01*
X35367Y311352511D01*
X28010Y312032307D01*
X27814Y312050421D01*
X-4672138Y311999560D01*
X-4740470Y312018824D01*
X-4787541Y312071974D01*
X-4799500Y312125553D01*
X-4799500Y426723763D01*
X-4779498Y426791884D01*
X-4725842Y426838377D01*
X-4701029Y426846719D01*
X479006Y428006493D01*
X496684Y428010451D01*
X342859Y428697495D01*
X347495Y428768339D01*
X357335Y428789115D01*
X391748Y428847350D01*
X437547Y429005195D01*
X442652Y429169470D01*
X263392Y429970120D01*
X260714Y429988048D01*
X259950Y429998041D01*
X259494Y430004014D01*
X257917Y430009790D01*
X257915Y430009802D01*
X239745Y430076355D01*
X238340Y430082011D01*
X55258Y430899734D01*
X13518Y431015545D01*
X-78911Y431151448D01*
X-202233Y431260095D01*
X-200967Y431261531D01*
X-239560Y431308427D01*
X-246609Y431330310D01*
X-395142Y431993719D01*
X-399100Y432011397D01*
X-4645971Y431060553D01*
X-4716816Y431065189D01*
X-4773909Y431107390D01*
X-4799122Y431173759D01*
X-4799500Y431183509D01*
X-4799500Y552523979D01*
X-4779498Y552592100D01*
X-4725842Y552638593D01*
X-4681456Y552649728D01*
X161256Y552956103D01*
X161257Y552956103D01*
X179335Y552957247D01*
X134882Y553659895D01*
X150543Y553729142D01*
X163519Y553748132D01*
X201560Y553794148D01*
X206611Y553800258D01*
X276538Y553948995D01*
X307279Y554110449D01*
X301957Y554194579D01*
X255475Y554929278D01*
X255635Y554947405D01*
X256444Y554957395D01*
X256444Y554957397D01*
X256928Y554963373D01*
X248737Y555037923D01*
X248234Y555043728D01*
X195576Y555876062D01*
X195326Y555880014D01*
X172216Y556000929D01*
X102186Y556149617D01*
X-2622Y556276218D01*
X-1146Y556277440D01*
X-31925Y556329781D01*
X-35467Y556352509D01*
X-41547Y556448624D01*
X-79534Y557049067D01*
X-93052Y557048212D01*
X-93053Y557048212D01*
X-4665545Y556758933D01*
X-4734792Y556774594D01*
X-4784580Y556825208D01*
X-4799500Y556884682D01*
X-4799500Y636673500D01*
X-4779498Y636741621D01*
X-4725842Y636788114D01*
X-4673500Y636799500D01*
X4673500Y636799500D01*
X4741621Y636779498D01*
G37*
%TD.AperFunction*%
%TA.AperFunction,Conductor*%
G36*
X70003Y185974722D02*
G01*
X111449Y185947028D01*
X111452Y185947027D01*
X121769Y185940133D01*
X133938Y185937712D01*
X133939Y185937712D01*
X174184Y185929707D01*
X180252Y185928500D01*
X908694Y185928500D01*
X976815Y185908498D01*
X997789Y185891595D01*
X1927595Y184961789D01*
X1961621Y184899477D01*
X1964500Y184872694D01*
X1964500Y184065764D01*
X1944498Y183997643D01*
X1914364Y183966288D01*
X1909596Y183964065D01*
X1825935Y183880404D01*
X1775932Y183773173D01*
X1769500Y183724316D01*
X1769500Y183275684D01*
X1775932Y183226827D01*
X1825935Y183119596D01*
X1909596Y183035935D01*
X2016827Y182985932D01*
X2065684Y182979500D01*
X2414316Y182979500D01*
X2463173Y182985932D01*
X2570404Y183035935D01*
X2654065Y183119596D01*
X2654753Y183118908D01*
X2702247Y183156869D01*
X2772867Y183164177D01*
X2836226Y183132144D01*
X2844579Y183122504D01*
X2845935Y183119596D01*
X2929596Y183035935D01*
X3036827Y182985932D01*
X3085684Y182979500D01*
X3338694Y182979500D01*
X3406815Y182959498D01*
X3427789Y182942595D01*
X3937595Y182432789D01*
X3971621Y182370477D01*
X3974500Y182343694D01*
X3974500Y121656306D01*
X3954498Y121588185D01*
X3937595Y121567211D01*
X3427789Y121057405D01*
X3365477Y121023379D01*
X3338694Y121020500D01*
X3085684Y121020500D01*
X3036827Y121014068D01*
X3028091Y121009994D01*
X3028090Y121009994D01*
X2984499Y120989667D01*
X2929596Y120964065D01*
X2845935Y120880404D01*
X2845247Y120881092D01*
X2797753Y120843131D01*
X2727133Y120835823D01*
X2663774Y120867856D01*
X2655421Y120877496D01*
X2654065Y120880404D01*
X2570404Y120964065D01*
X2566600Y120965839D01*
X2524899Y121018012D01*
X2515500Y121065764D01*
X2515500Y122621867D01*
X2517921Y122646449D01*
X2518476Y122649239D01*
X2520897Y122661410D01*
X2499515Y122768904D01*
X2499515Y122768905D01*
X2438624Y122860034D01*
X2425936Y122868512D01*
X2406844Y122884182D01*
X1387405Y123903621D01*
X1353379Y123965933D01*
X1350500Y123992716D01*
X1350500Y124319748D01*
X1338867Y124378231D01*
X1331973Y124388548D01*
X1331972Y124388551D01*
X1304278Y124429997D01*
X1283062Y124497749D01*
X1304278Y124570003D01*
X1331972Y124611449D01*
X1331973Y124611452D01*
X1338867Y124621769D01*
X1342656Y124640815D01*
X1349293Y124674184D01*
X1350500Y124680252D01*
X1350500Y124865864D01*
X1370502Y124933985D01*
X1387405Y124954959D01*
X2216215Y125783769D01*
X2224319Y125791196D01*
X2244749Y125808339D01*
X2253194Y125815425D01*
X2258707Y125824974D01*
X2272039Y125848065D01*
X2277945Y125857336D01*
X2293230Y125879165D01*
X2299554Y125888196D01*
X2302408Y125898846D01*
X2303885Y125902014D01*
X2305077Y125905290D01*
X2310588Y125914835D01*
X2317130Y125951938D01*
X2319509Y125962670D01*
X2329264Y125999073D01*
X2328303Y126010053D01*
X2328872Y126016550D01*
X2354736Y126082668D01*
X2368909Y126096183D01*
X2368316Y126096776D01*
X2370933Y126099393D01*
X2374077Y126101110D01*
X2382120Y126108779D01*
X2385139Y126110893D01*
X2387035Y126108186D01*
X2433245Y126133419D01*
X2504060Y126128354D01*
X2559989Y126087004D01*
X2571718Y126071718D01*
X2578268Y126066692D01*
X2578269Y126066691D01*
X2613003Y126040039D01*
X2697159Y125975464D01*
X2843238Y125914956D01*
X3000000Y125894318D01*
X3008188Y125895396D01*
X3148574Y125913878D01*
X3156762Y125914956D01*
X3302841Y125975464D01*
X3428282Y126071718D01*
X3524536Y126197159D01*
X3585044Y126343238D01*
X3605682Y126500000D01*
X3585044Y126656762D01*
X3524536Y126802841D01*
X3428282Y126928282D01*
X3302841Y127024536D01*
X3156762Y127085044D01*
X3000000Y127105682D01*
X2843238Y127085044D01*
X2697159Y127024536D01*
X2571718Y126928282D01*
X2567084Y126922243D01*
X2505037Y126888360D01*
X2434221Y126893423D01*
X2389155Y126922385D01*
X2368316Y126943224D01*
X2259487Y126993972D01*
X2209901Y127000500D01*
X2000077Y127000500D01*
X1790100Y127000499D01*
X1740513Y126993972D01*
X1631684Y126943224D01*
X1589095Y126900635D01*
X1526783Y126866609D01*
X1455968Y126871674D01*
X1410905Y126900635D01*
X1368316Y126943224D01*
X1259487Y126993972D01*
X1209901Y127000500D01*
X1000077Y127000500D01*
X790100Y127000499D01*
X740513Y126993972D01*
X631684Y126943224D01*
X546776Y126858316D01*
X542117Y126848324D01*
X542116Y126848323D01*
X500102Y126758224D01*
X496028Y126749487D01*
X489500Y126699901D01*
X489501Y126340100D01*
X496028Y126290513D01*
X546776Y126181684D01*
X631684Y126096776D01*
X641676Y126092117D01*
X641677Y126092116D01*
X696201Y126066691D01*
X740513Y126046028D01*
X782119Y126040551D01*
X786005Y126040039D01*
X790099Y126039500D01*
X999923Y126039500D01*
X1209900Y126039501D01*
X1235053Y126042812D01*
X1305200Y126031869D01*
X1358297Y125984739D01*
X1377484Y125916384D01*
X1356670Y125848507D01*
X1340588Y125828794D01*
X899199Y125387405D01*
X836887Y125353379D01*
X810104Y125350500D01*
X180252Y125350500D01*
X174184Y125349293D01*
X133939Y125341288D01*
X133938Y125341288D01*
X121769Y125338867D01*
X55448Y125294552D01*
X11133Y125228231D01*
X-500Y125169748D01*
X-500Y124680252D01*
X707Y124674186D01*
X707Y124674182D01*
X7344Y124640815D01*
X1016Y124570101D01*
X-42539Y124514035D01*
X-109492Y124490416D01*
X-140815Y124492656D01*
X-174182Y124499293D01*
X-174186Y124499293D01*
X-180252Y124500500D01*
X-1169748Y124500500D01*
X-1175816Y124499293D01*
X-1216061Y124491288D01*
X-1216062Y124491288D01*
X-1228231Y124488867D01*
X-1294552Y124444552D01*
X-1338867Y124378231D01*
X-1350500Y124319748D01*
X-1350500Y124091306D01*
X-1370502Y124023185D01*
X-1387405Y124002211D01*
X-2677211Y122712405D01*
X-2739523Y122678379D01*
X-2766306Y122675500D01*
X-3598500Y122675500D01*
X-3666621Y122695502D01*
X-3713114Y122749158D01*
X-3724500Y122801500D01*
X-3724500Y184098500D01*
X-3704498Y184166621D01*
X-3650842Y184213114D01*
X-3598500Y184224500D01*
X-2719953Y184224500D01*
X-2695371Y184222079D01*
X-2680410Y184219103D01*
X-2653278Y184224500D01*
X-2653277Y184224500D01*
X-2572915Y184240485D01*
X-2530945Y184268529D01*
X-2530945Y184268528D01*
X-2530942Y184268531D01*
X-2504788Y184286006D01*
X-2502221Y184282165D01*
X-2502220Y184282166D01*
X-2504787Y184286007D01*
X-2492099Y184294485D01*
X-2481786Y184301376D01*
X-2473308Y184314064D01*
X-2457638Y184333156D01*
X-899199Y185891595D01*
X-836887Y185925621D01*
X-810104Y185928500D01*
X-180252Y185928500D01*
X-174184Y185929707D01*
X-133939Y185937712D01*
X-133938Y185937712D01*
X-121769Y185940133D01*
X-111452Y185947027D01*
X-111449Y185947028D01*
X-70003Y185974722D01*
X-2251Y185995938D01*
X70003Y185974722D01*
G37*
%TD.AperFunction*%
%TA.AperFunction,Conductor*%
G36*
X2504060Y266628354D02*
G01*
X2559989Y266587004D01*
X2571718Y266571718D01*
X2578268Y266566692D01*
X2578269Y266566691D01*
X2599890Y266550101D01*
X2697159Y266475464D01*
X2843238Y266414956D01*
X3000000Y266394318D01*
X3008188Y266395396D01*
X3148574Y266413878D01*
X3156762Y266414956D01*
X3300282Y266474404D01*
X3370872Y266481993D01*
X3434359Y266450214D01*
X3470586Y266389156D01*
X3474500Y266357995D01*
X3474500Y261896500D01*
X3454498Y261828379D01*
X3400842Y261781886D01*
X3348500Y261770500D01*
X3335684Y261770500D01*
X3286827Y261764068D01*
X3278091Y261759994D01*
X3278090Y261759994D01*
X3234499Y261739667D01*
X3179596Y261714065D01*
X3095935Y261630404D01*
X3095247Y261631092D01*
X3047753Y261593131D01*
X2977133Y261585823D01*
X2913774Y261617856D01*
X2905421Y261627496D01*
X2904065Y261630404D01*
X2820404Y261714065D01*
X2816600Y261715839D01*
X2774899Y261768012D01*
X2765500Y261815764D01*
X2765500Y262371868D01*
X2767921Y262396448D01*
X2768476Y262399238D01*
X2770897Y262411410D01*
X2749516Y262518904D01*
X2703994Y262587032D01*
X2703993Y262587033D01*
X2688624Y262610034D01*
X2675936Y262618512D01*
X2656844Y262634182D01*
X1387405Y263903621D01*
X1353379Y263965933D01*
X1350500Y263992716D01*
X1350500Y264319748D01*
X1338867Y264378231D01*
X1331973Y264388548D01*
X1331972Y264388551D01*
X1304278Y264429997D01*
X1283062Y264497749D01*
X1304278Y264570003D01*
X1331972Y264611449D01*
X1331973Y264611452D01*
X1338867Y264621769D01*
X1342656Y264640815D01*
X1349293Y264674184D01*
X1350500Y264680252D01*
X1350500Y264865864D01*
X1370502Y264933985D01*
X1387405Y264954959D01*
X2216215Y265783769D01*
X2224319Y265791196D01*
X2244749Y265808339D01*
X2253194Y265815425D01*
X2258707Y265824974D01*
X2272039Y265848065D01*
X2277945Y265857336D01*
X2293230Y265879165D01*
X2299554Y265888196D01*
X2302408Y265898846D01*
X2303885Y265902014D01*
X2305077Y265905290D01*
X2310588Y265914835D01*
X2317130Y265951938D01*
X2319509Y265962670D01*
X2329264Y265999073D01*
X2325979Y266036623D01*
X2325500Y266047604D01*
X2325500Y266503542D01*
X2345502Y266571663D01*
X2368990Y266596102D01*
X2368316Y266596776D01*
X2370933Y266599393D01*
X2373501Y266600795D01*
X2379229Y266606755D01*
X2385140Y266610894D01*
X2387036Y266608186D01*
X2433245Y266633419D01*
X2504060Y266628354D01*
G37*
%TD.AperFunction*%
%TA.AperFunction,Conductor*%
G36*
X70003Y360945722D02*
G01*
X111449Y360918028D01*
X111452Y360918027D01*
X121769Y360911133D01*
X133938Y360908712D01*
X133939Y360908712D01*
X174184Y360900707D01*
X180252Y360899500D01*
X810104Y360899500D01*
X878225Y360879498D01*
X899199Y360862595D01*
X1447595Y360314199D01*
X1481621Y360251887D01*
X1484500Y360225104D01*
X1484500Y359065764D01*
X1464498Y358997643D01*
X1434364Y358966288D01*
X1429596Y358964065D01*
X1345935Y358880404D01*
X1345247Y358881092D01*
X1297753Y358843131D01*
X1227133Y358835823D01*
X1163774Y358867856D01*
X1155421Y358877496D01*
X1154065Y358880404D01*
X1070404Y358964065D01*
X1015501Y358989667D01*
X971910Y359009994D01*
X971909Y359009994D01*
X963173Y359014068D01*
X914316Y359020500D01*
X565684Y359020500D01*
X516827Y359014068D01*
X508091Y359009994D01*
X508090Y359009994D01*
X464499Y358989667D01*
X409596Y358964065D01*
X325935Y358880404D01*
X275932Y358773173D01*
X269500Y358724316D01*
X269500Y358275684D01*
X275932Y358226827D01*
X325935Y358119596D01*
X409596Y358035935D01*
X413400Y358034161D01*
X455101Y357981988D01*
X464500Y357934236D01*
X464500Y323656306D01*
X444498Y323588185D01*
X427595Y323567211D01*
X-1416844Y321722772D01*
X-1435936Y321707102D01*
X-1448624Y321698624D01*
X-1509515Y321607495D01*
X-1509515Y321607494D01*
X-1530897Y321500000D01*
X-1528476Y321487829D01*
X-1527921Y321485039D01*
X-1525500Y321460457D01*
X-1525500Y317539543D01*
X-1527921Y317514961D01*
X-1530897Y317500000D01*
X-1525500Y317472868D01*
X-1525500Y317472867D01*
X-1509515Y317392505D01*
X-1448624Y317301376D01*
X-1438308Y317294483D01*
X-1438307Y317294482D01*
X-1435936Y317292898D01*
X-1416844Y317277228D01*
X3437595Y312422789D01*
X3471621Y312360477D01*
X3474500Y312333694D01*
X3474500Y267642005D01*
X3454498Y267573884D01*
X3400842Y267527391D01*
X3330568Y267517287D01*
X3300282Y267525596D01*
X3164391Y267581884D01*
X3156762Y267585044D01*
X3000000Y267605682D01*
X2843238Y267585044D01*
X2697159Y267524536D01*
X2571718Y267428282D01*
X2567084Y267422243D01*
X2505037Y267388360D01*
X2434221Y267393423D01*
X2389155Y267422385D01*
X2368316Y267443224D01*
X2259487Y267493972D01*
X2209901Y267500500D01*
X2000077Y267500500D01*
X1790100Y267500499D01*
X1740513Y267493972D01*
X1631684Y267443224D01*
X1589095Y267400635D01*
X1526783Y267366609D01*
X1455968Y267371674D01*
X1410905Y267400635D01*
X1368316Y267443224D01*
X1259487Y267493972D01*
X1209901Y267500500D01*
X1000077Y267500500D01*
X790100Y267500499D01*
X740513Y267493972D01*
X631684Y267443224D01*
X546776Y267358316D01*
X496028Y267249487D01*
X489500Y267199901D01*
X489501Y266840100D01*
X496028Y266790513D01*
X546776Y266681684D01*
X631684Y266596776D01*
X641676Y266592117D01*
X641677Y266592116D01*
X731776Y266550102D01*
X740513Y266546028D01*
X790099Y266539500D01*
X999923Y266539500D01*
X1209900Y266539501D01*
X1259487Y266546028D01*
X1270787Y266551297D01*
X1358323Y266592116D01*
X1358324Y266592117D01*
X1368316Y266596776D01*
X1410905Y266639365D01*
X1473217Y266673391D01*
X1544032Y266668326D01*
X1589095Y266639365D01*
X1631684Y266596776D01*
X1630052Y266595144D01*
X1665100Y266551297D01*
X1674500Y266503542D01*
X1674500Y266214896D01*
X1654498Y266146775D01*
X1637595Y266125801D01*
X899199Y265387405D01*
X836887Y265353379D01*
X810104Y265350500D01*
X180252Y265350500D01*
X174184Y265349293D01*
X133939Y265341288D01*
X133938Y265341288D01*
X121769Y265338867D01*
X55448Y265294552D01*
X11133Y265228231D01*
X-500Y265169748D01*
X-500Y264680252D01*
X707Y264674186D01*
X707Y264674182D01*
X7344Y264640815D01*
X1016Y264570101D01*
X-42539Y264514035D01*
X-109492Y264490416D01*
X-140815Y264492656D01*
X-174182Y264499293D01*
X-174186Y264499293D01*
X-180252Y264500500D01*
X-1169748Y264500500D01*
X-1175816Y264499293D01*
X-1216061Y264491288D01*
X-1216062Y264491288D01*
X-1228231Y264488867D01*
X-1294552Y264444552D01*
X-1338867Y264378231D01*
X-1350500Y264319748D01*
X-1350500Y263992716D01*
X-1370502Y263924595D01*
X-1387405Y263903621D01*
X-2728621Y262562405D01*
X-2790933Y262528379D01*
X-2817716Y262525500D01*
X-3598500Y262525500D01*
X-3666621Y262545502D01*
X-3713114Y262599158D01*
X-3724500Y262651500D01*
X-3724500Y302333694D01*
X-3704498Y302401815D01*
X-3687595Y302422789D01*
X1166844Y307277228D01*
X1185936Y307292898D01*
X1188307Y307294482D01*
X1188308Y307294483D01*
X1198624Y307301376D01*
X1259515Y307392505D01*
X1275500Y307472867D01*
X1275500Y307472868D01*
X1280897Y307500000D01*
X1277921Y307514963D01*
X1275500Y307539543D01*
X1275500Y312210463D01*
X1277921Y312235043D01*
X1278475Y312237828D01*
X1280896Y312250000D01*
X1275500Y312277129D01*
X1275500Y312277133D01*
X1259515Y312357495D01*
X1198624Y312448624D01*
X1185936Y312457102D01*
X1166844Y312472772D01*
X-3437595Y317077211D01*
X-3471621Y317139523D01*
X-3474500Y317166306D01*
X-3474500Y359098500D01*
X-3454498Y359166621D01*
X-3400842Y359213114D01*
X-3348500Y359224500D01*
X-2789543Y359224500D01*
X-2764961Y359222079D01*
X-2750000Y359219103D01*
X-2722868Y359224500D01*
X-2722867Y359224500D01*
X-2642505Y359240485D01*
X-2600535Y359268529D01*
X-2600535Y359268528D01*
X-2600532Y359268531D01*
X-2574378Y359286006D01*
X-2571811Y359282165D01*
X-2571810Y359282166D01*
X-2574377Y359286007D01*
X-2561689Y359294485D01*
X-2551376Y359301376D01*
X-2542898Y359314064D01*
X-2527228Y359333156D01*
X-997789Y360862595D01*
X-935477Y360896621D01*
X-908694Y360899500D01*
X-180252Y360899500D01*
X-174184Y360900707D01*
X-133939Y360908712D01*
X-133938Y360908712D01*
X-121769Y360911133D01*
X-111452Y360918027D01*
X-111449Y360918028D01*
X-70003Y360945722D01*
X-2251Y360966938D01*
X70003Y360945722D01*
G37*
%TD.AperFunction*%
%TA.AperFunction,Conductor*%
G36*
X2512743Y485117037D02*
G01*
X2559332Y485082591D01*
X2560850Y485084109D01*
X2566695Y485078264D01*
X2571718Y485071718D01*
X2697159Y484975464D01*
X2843238Y484914956D01*
X3000000Y484894318D01*
X3008188Y484895396D01*
X3148574Y484913878D01*
X3156762Y484914956D01*
X3300282Y484974404D01*
X3370872Y484981993D01*
X3434359Y484950214D01*
X3470586Y484889156D01*
X3474500Y484857995D01*
X3474500Y481416306D01*
X3454498Y481348185D01*
X3437595Y481327211D01*
X3141909Y481031525D01*
X3079597Y480997499D01*
X3008782Y481002564D01*
X2999566Y481006425D01*
X2991917Y481009992D01*
X2991909Y481009994D01*
X2983173Y481014068D01*
X2934316Y481020500D01*
X2585684Y481020500D01*
X2536827Y481014068D01*
X2528091Y481009994D01*
X2528090Y481009994D01*
X2441367Y480969554D01*
X2429596Y480964065D01*
X2345935Y480880404D01*
X2345247Y480881092D01*
X2297753Y480843131D01*
X2227133Y480835823D01*
X2163774Y480867856D01*
X2155421Y480877496D01*
X2154065Y480880404D01*
X2070404Y480964065D01*
X2071525Y480965186D01*
X2034901Y481011005D01*
X2025500Y481058761D01*
X2025500Y481710457D01*
X2027921Y481735039D01*
X2028476Y481737829D01*
X2030897Y481750000D01*
X2009515Y481857495D01*
X1963994Y481925622D01*
X1963993Y481925623D01*
X1948624Y481948624D01*
X1935936Y481957102D01*
X1916844Y481972772D01*
X1387405Y482502211D01*
X1353379Y482564523D01*
X1350500Y482591306D01*
X1350500Y482819748D01*
X1338867Y482878231D01*
X1331973Y482888548D01*
X1331972Y482888551D01*
X1304278Y482929997D01*
X1283062Y482997749D01*
X1304278Y483070003D01*
X1331972Y483111449D01*
X1331973Y483111452D01*
X1338867Y483121769D01*
X1342656Y483140815D01*
X1349293Y483174184D01*
X1350500Y483180252D01*
X1350500Y483408694D01*
X1370502Y483476815D01*
X1387405Y483497789D01*
X2166844Y484277228D01*
X2185936Y484292898D01*
X2188307Y484294482D01*
X2188308Y484294483D01*
X2198624Y484301376D01*
X2259515Y484392505D01*
X2259516Y484392506D01*
X2280897Y484500000D01*
X2277921Y484514962D01*
X2275500Y484539542D01*
X2275500Y484953224D01*
X2295502Y485021345D01*
X2348250Y485067419D01*
X2358323Y485072116D01*
X2358324Y485072117D01*
X2368316Y485076776D01*
X2379616Y485088076D01*
X2441928Y485122102D01*
X2512743Y485117037D01*
G37*
%TD.AperFunction*%
%TA.AperFunction,Conductor*%
G36*
X70003Y633695722D02*
G01*
X111449Y633668028D01*
X111452Y633668027D01*
X121769Y633661133D01*
X133938Y633658712D01*
X133939Y633658712D01*
X174184Y633650707D01*
X180252Y633649500D01*
X908694Y633649500D01*
X976815Y633629498D01*
X997789Y633612595D01*
X1437595Y633172789D01*
X1471621Y633110477D01*
X1474500Y633083694D01*
X1474500Y632558761D01*
X1454498Y632490640D01*
X1429270Y632464391D01*
X1429596Y632464065D01*
X1345935Y632380404D01*
X1345247Y632381092D01*
X1297753Y632343131D01*
X1227133Y632335823D01*
X1163774Y632367856D01*
X1155421Y632377496D01*
X1154065Y632380404D01*
X1070404Y632464065D01*
X1060411Y632468725D01*
X971910Y632509994D01*
X971909Y632509994D01*
X963173Y632514068D01*
X914316Y632520500D01*
X565684Y632520500D01*
X516827Y632514068D01*
X508091Y632509994D01*
X508090Y632509994D01*
X419589Y632468725D01*
X409596Y632464065D01*
X325935Y632380404D01*
X275932Y632273173D01*
X269500Y632224316D01*
X269500Y631961306D01*
X249498Y631893185D01*
X232595Y631872211D01*
X-1416844Y630222772D01*
X-1435936Y630207102D01*
X-1448624Y630198624D01*
X-1509515Y630107495D01*
X-1509515Y630107494D01*
X-1530897Y630000000D01*
X-1528476Y629987829D01*
X-1527921Y629985039D01*
X-1525500Y629960457D01*
X-1525500Y562789543D01*
X-1527921Y562764961D01*
X-1530897Y562750000D01*
X-1525500Y562722868D01*
X-1525500Y562722867D01*
X-1509515Y562642505D01*
X-1448624Y562551376D01*
X-1438308Y562544483D01*
X-1438307Y562544482D01*
X-1435936Y562542898D01*
X-1416844Y562527228D01*
X3437595Y557672789D01*
X3471621Y557610477D01*
X3474500Y557583694D01*
X3474500Y486142005D01*
X3454498Y486073884D01*
X3400842Y486027391D01*
X3330568Y486017287D01*
X3300282Y486025596D01*
X3164391Y486081884D01*
X3156762Y486085044D01*
X3000000Y486105682D01*
X2843238Y486085044D01*
X2697159Y486024536D01*
X2571718Y485928282D01*
X2566695Y485921736D01*
X2560850Y485915891D01*
X2559283Y485917458D01*
X2511335Y485882448D01*
X2440464Y485878226D01*
X2379616Y485911924D01*
X2368316Y485923224D01*
X2346698Y485933305D01*
X2268224Y485969898D01*
X2268223Y485969898D01*
X2259487Y485973972D01*
X2209901Y485980500D01*
X2000077Y485980500D01*
X1790100Y485980499D01*
X1740513Y485973972D01*
X1731779Y485969899D01*
X1731778Y485969899D01*
X1642531Y485928282D01*
X1631684Y485923224D01*
X1589095Y485880635D01*
X1526783Y485846609D01*
X1455968Y485851674D01*
X1410905Y485880635D01*
X1368316Y485923224D01*
X1346698Y485933305D01*
X1268224Y485969898D01*
X1268223Y485969898D01*
X1259487Y485973972D01*
X1209901Y485980500D01*
X1000077Y485980500D01*
X790100Y485980499D01*
X740513Y485973972D01*
X731779Y485969899D01*
X731778Y485969899D01*
X642531Y485928282D01*
X631684Y485923224D01*
X546776Y485838316D01*
X496028Y485729487D01*
X489500Y485679901D01*
X489501Y485320100D01*
X496028Y485270513D01*
X500101Y485261779D01*
X500101Y485261778D01*
X542116Y485171677D01*
X546776Y485161684D01*
X631684Y485076776D01*
X641676Y485072117D01*
X641677Y485072116D01*
X724500Y485033495D01*
X740513Y485026028D01*
X776085Y485021345D01*
X782496Y485020501D01*
X790099Y485019500D01*
X999923Y485019500D01*
X1209900Y485019501D01*
X1259487Y485026028D01*
X1346698Y485066695D01*
X1358323Y485072116D01*
X1358324Y485072117D01*
X1368316Y485076776D01*
X1410905Y485119365D01*
X1473217Y485153391D01*
X1544032Y485148326D01*
X1589095Y485119365D01*
X1631684Y485076776D01*
X1641676Y485072117D01*
X1641677Y485072116D01*
X1651750Y485067419D01*
X1705035Y485020501D01*
X1724500Y484953224D01*
X1724500Y484666306D01*
X1704498Y484598185D01*
X1687595Y484577211D01*
X997789Y483887405D01*
X935477Y483853379D01*
X908694Y483850500D01*
X180252Y483850500D01*
X174184Y483849293D01*
X133939Y483841288D01*
X133938Y483841288D01*
X121769Y483838867D01*
X55448Y483794552D01*
X11133Y483728231D01*
X-500Y483669748D01*
X-500Y483180252D01*
X707Y483174186D01*
X707Y483174182D01*
X7344Y483140815D01*
X1016Y483070101D01*
X-42539Y483014035D01*
X-109492Y482990416D01*
X-140815Y482992656D01*
X-174182Y482999293D01*
X-174186Y482999293D01*
X-180252Y483000500D01*
X-1169748Y483000500D01*
X-1175816Y482999293D01*
X-1216061Y482991288D01*
X-1216062Y482991288D01*
X-1228231Y482988867D01*
X-1294552Y482944552D01*
X-1338867Y482878231D01*
X-1350500Y482819748D01*
X-1350500Y482492716D01*
X-1370502Y482424595D01*
X-1387405Y482403621D01*
X-2027916Y481763110D01*
X-2090228Y481729084D01*
X-2117011Y481726205D01*
X-2598500Y481726205D01*
X-2666621Y481746207D01*
X-2713114Y481799863D01*
X-2724500Y481852205D01*
X-2724500Y544583694D01*
X-2704498Y544651815D01*
X-2687595Y544672789D01*
X1916844Y549277228D01*
X1935936Y549292898D01*
X1938307Y549294482D01*
X1938308Y549294483D01*
X1948624Y549301376D01*
X2009515Y549392505D01*
X2025500Y549472867D01*
X2025500Y549472871D01*
X2030896Y549500000D01*
X2027921Y549514957D01*
X2025500Y549539537D01*
X2025500Y556210463D01*
X2027921Y556235043D01*
X2028475Y556237828D01*
X2030896Y556250000D01*
X2025500Y556277129D01*
X2025500Y556277133D01*
X2009515Y556357495D01*
X1999772Y556372077D01*
X1963994Y556425622D01*
X1963993Y556425623D01*
X1948624Y556448624D01*
X1935936Y556457102D01*
X1916844Y556472772D01*
X-3937595Y562327211D01*
X-3971621Y562389523D01*
X-3974500Y562416306D01*
X-3974500Y630485104D01*
X-3954498Y630553225D01*
X-3937595Y630574199D01*
X-899199Y633612595D01*
X-836887Y633646621D01*
X-810104Y633649500D01*
X-180252Y633649500D01*
X-174184Y633650707D01*
X-133939Y633658712D01*
X-133938Y633658712D01*
X-121769Y633661133D01*
X-111452Y633668027D01*
X-111449Y633668028D01*
X-70003Y633695722D01*
X-2251Y633716938D01*
X70003Y633695722D01*
G37*
%TD.AperFunction*%
%TA.AperFunction,Conductor*%
G36*
X2299891Y635134498D02*
G01*
X2320865Y635117595D01*
X2381684Y635056776D01*
X2490513Y635006028D01*
X2525405Y635001435D01*
X2536011Y635000038D01*
X2536014Y635000038D01*
X2540099Y634999500D01*
X2558404Y634999500D01*
X2737982Y634999501D01*
X2806102Y634979499D01*
X2827078Y634962596D01*
X3384029Y634405644D01*
X3418054Y634343332D01*
X3412989Y634272516D01*
X3371637Y634216586D01*
X3321718Y634178282D01*
X3225464Y634052841D01*
X3164956Y633906762D01*
X3144318Y633750000D01*
X3145396Y633741812D01*
X3156018Y633661133D01*
X3164956Y633593238D01*
X3225464Y633447159D01*
X3230491Y633440608D01*
X3230493Y633440604D01*
X3289043Y633364299D01*
X3314643Y633298079D01*
X3300378Y633228530D01*
X3278175Y633198501D01*
X2807079Y632727405D01*
X2744767Y632693379D01*
X2717985Y632690500D01*
X2556949Y632690499D01*
X2540100Y632690499D01*
X2490513Y632683972D01*
X2381684Y632633224D01*
X2296776Y632548316D01*
X2292118Y632538326D01*
X2292114Y632538321D01*
X2279000Y632510197D01*
X2232083Y632456913D01*
X2163806Y632437452D01*
X2095029Y632459440D01*
X2090404Y632464065D01*
X2080415Y632468723D01*
X2079224Y632469557D01*
X2034898Y632525016D01*
X2025500Y632572766D01*
X2025500Y633210457D01*
X2027921Y633235039D01*
X2028476Y633237829D01*
X2030897Y633250000D01*
X2009515Y633357495D01*
X1963994Y633425622D01*
X1963993Y633425623D01*
X1948624Y633448624D01*
X1935936Y633457102D01*
X1916844Y633472772D01*
X1387405Y634002211D01*
X1353379Y634064523D01*
X1350500Y634091306D01*
X1350500Y634319748D01*
X1345809Y634343332D01*
X1341288Y634366061D01*
X1341288Y634366062D01*
X1338867Y634378231D01*
X1331973Y634388548D01*
X1331972Y634388551D01*
X1304278Y634429997D01*
X1283062Y634497749D01*
X1304278Y634570003D01*
X1331972Y634611449D01*
X1331973Y634611452D01*
X1338867Y634621769D01*
X1344227Y634648713D01*
X1349293Y634674184D01*
X1350500Y634680252D01*
X1350500Y634837984D01*
X1370502Y634906105D01*
X1387405Y634927079D01*
X1577921Y635117595D01*
X1640233Y635151621D01*
X1667016Y635154500D01*
X2231770Y635154500D01*
X2299891Y635134498D01*
G37*
%TD.AperFunction*%
%TD*%
%TA.AperFunction,Conductor*%
%TO.N,GND*%
G36*
X44229Y360615295D02*
G01*
X82289Y360601027D01*
X82291Y360601027D01*
X89684Y360598255D01*
X97532Y360597402D01*
X97534Y360597402D01*
X148469Y360591869D01*
X151866Y360591500D01*
X682526Y360591500D01*
X750647Y360571498D01*
X771622Y360554595D01*
X1139596Y360186620D01*
X1173621Y360124308D01*
X1176500Y360097525D01*
X1176500Y359435330D01*
X1156498Y359367209D01*
X1102842Y359320716D01*
X1032568Y359310612D01*
X1015347Y359314333D01*
X976466Y359325629D01*
X970059Y359326133D01*
X970055Y359326134D01*
X942444Y359328307D01*
X942438Y359328307D01*
X939989Y359328500D01*
X740122Y359328500D01*
X540012Y359328499D01*
X503534Y359325629D01*
X406730Y359297505D01*
X355017Y359282481D01*
X355015Y359282480D01*
X347404Y359280269D01*
X303500Y359254304D01*
X296222Y359250000D01*
X-2174807Y359250000D01*
X-870211Y360554595D01*
X-807899Y360588621D01*
X-781116Y360591500D01*
X-151866Y360591500D01*
X-148469Y360591869D01*
X-97534Y360597402D01*
X-97532Y360597402D01*
X-89684Y360598255D01*
X-82291Y360601027D01*
X-82289Y360601027D01*
X-44229Y360615295D01*
X26578Y360620478D01*
X44229Y360615295D01*
G37*
%TD.AperFunction*%
%TA.AperFunction,Conductor*%
G36*
X3525000Y359250000D02*
G01*
X2343500Y359250000D01*
X2343500Y360344907D01*
X2344578Y360361354D01*
X2347457Y360383222D01*
X2348535Y360391410D01*
X2328481Y360543734D01*
X2269686Y360685677D01*
X2199640Y360776964D01*
X2199637Y360776967D01*
X2176157Y360807567D01*
X2169607Y360812593D01*
X2169604Y360812596D01*
X2152110Y360826019D01*
X2139719Y360836885D01*
X1695405Y361281198D01*
X1661380Y361343511D01*
X1658500Y361370294D01*
X1658500Y361598134D01*
X1651745Y361660316D01*
X1634705Y361705771D01*
X1629522Y361776578D01*
X1634705Y361794229D01*
X1648973Y361832289D01*
X1648973Y361832291D01*
X1651745Y361839684D01*
X1658500Y361901866D01*
X1658500Y361988285D01*
X1678502Y362056406D01*
X1695405Y362077381D01*
X2392258Y362774233D01*
X2400537Y362781767D01*
X2407018Y362785880D01*
X2453644Y362835532D01*
X2456398Y362838373D01*
X2476135Y362858110D01*
X2478615Y362861307D01*
X2486320Y362870329D01*
X2511159Y362896780D01*
X2516586Y362902559D01*
X2520405Y362909505D01*
X2520407Y362909508D01*
X2526348Y362920314D01*
X2537199Y362936833D01*
X2544758Y362946579D01*
X2549614Y362952839D01*
X2552759Y362960108D01*
X2552762Y362960112D01*
X2567174Y362993417D01*
X2572391Y363004067D01*
X2593695Y363042820D01*
X2595634Y363050372D01*
X2639273Y363106300D01*
X2706276Y363129776D01*
X2738947Y363127189D01*
X2898056Y363093369D01*
X2898061Y363093369D01*
X2904513Y363091997D01*
X3095487Y363091997D01*
X3101939Y363093369D01*
X3101944Y363093369D01*
X3188888Y363111850D01*
X3282288Y363131703D01*
X3288319Y363134388D01*
X3450722Y363206694D01*
X3450724Y363206695D01*
X3456752Y363209379D01*
X3525000Y363258964D01*
X3525000Y359250000D01*
G37*
%TD.AperFunction*%
%TA.AperFunction,Conductor*%
G36*
X3525000Y364742030D02*
G01*
X3462094Y364787734D01*
X3462093Y364787735D01*
X3456752Y364791615D01*
X3450724Y364794299D01*
X3450722Y364794300D01*
X3288319Y364866606D01*
X3288318Y364866606D01*
X3282288Y364869291D01*
X3188887Y364889144D01*
X3101944Y364907625D01*
X3101939Y364907625D01*
X3095487Y364908997D01*
X2904513Y364908997D01*
X2898061Y364907625D01*
X2898056Y364907625D01*
X2811113Y364889144D01*
X2717712Y364869291D01*
X2711682Y364866606D01*
X2711681Y364866606D01*
X2549279Y364794300D01*
X2543248Y364791615D01*
X2537906Y364787734D01*
X2537903Y364787732D01*
X2529529Y364781649D01*
X2462661Y364757792D01*
X2420319Y364762590D01*
X2278434Y364803811D01*
X2278430Y364803812D01*
X2272254Y364805606D01*
X2265849Y364806110D01*
X2265844Y364806111D01*
X2237940Y364808307D01*
X2237932Y364808307D01*
X2235484Y364808500D01*
X1764516Y364808500D01*
X1762068Y364808307D01*
X1762060Y364808307D01*
X1734156Y364806111D01*
X1734151Y364806110D01*
X1727746Y364805606D01*
X1666230Y364787734D01*
X1578016Y364762106D01*
X1578014Y364762105D01*
X1570403Y364759894D01*
X1563581Y364755859D01*
X1556303Y364752710D01*
X1555722Y364754053D01*
X1495315Y364738731D01*
X1444149Y364753755D01*
X1443697Y364752710D01*
X1436419Y364755859D01*
X1429597Y364759894D01*
X1421986Y364762105D01*
X1421984Y364762106D01*
X1333770Y364787734D01*
X1272254Y364805606D01*
X1265849Y364806110D01*
X1265844Y364806111D01*
X1237940Y364808307D01*
X1237932Y364808307D01*
X1235484Y364808500D01*
X764516Y364808500D01*
X762068Y364808307D01*
X762060Y364808307D01*
X734156Y364806111D01*
X734151Y364806110D01*
X727746Y364805606D01*
X666230Y364787734D01*
X578016Y364762106D01*
X578014Y364762105D01*
X570403Y364759894D01*
X563581Y364755859D01*
X563580Y364755859D01*
X534618Y364738731D01*
X429371Y364676488D01*
X313512Y364560629D01*
X230106Y364419597D01*
X184394Y364262254D01*
X181500Y364225484D01*
X181500Y363814516D01*
X181693Y363812068D01*
X181693Y363812060D01*
X181811Y363810569D01*
X184394Y363777746D01*
X186189Y363771569D01*
X227626Y363628941D01*
X230106Y363620403D01*
X313512Y363479371D01*
X429371Y363363512D01*
X570403Y363280106D01*
X578014Y363277895D01*
X578016Y363277894D01*
X628995Y363263084D01*
X727746Y363234394D01*
X734159Y363233889D01*
X734166Y363233888D01*
X763852Y363231551D01*
X830194Y363206266D01*
X872333Y363149127D01*
X876891Y363078277D01*
X843061Y363016845D01*
X786327Y362960112D01*
X771619Y362945404D01*
X709306Y362911379D01*
X682524Y362908500D01*
X151866Y362908500D01*
X148469Y362908131D01*
X97534Y362902598D01*
X97532Y362902598D01*
X89684Y362901745D01*
X82291Y362898973D01*
X82289Y362898973D01*
X44229Y362884705D01*
X-26578Y362879522D01*
X-44229Y362884705D01*
X-82289Y362898973D01*
X-82291Y362898973D01*
X-89684Y362901745D01*
X-97532Y362902598D01*
X-97534Y362902598D01*
X-148469Y362908131D01*
X-151866Y362908500D01*
X-1198134Y362908500D01*
X-1260316Y362901745D01*
X-1396705Y362850615D01*
X-1513261Y362763261D01*
X-1600615Y362646705D01*
X-1651745Y362510316D01*
X-1658500Y362448134D01*
X-1658500Y361901866D01*
X-1651745Y361839684D01*
X-1648973Y361832291D01*
X-1648973Y361832289D01*
X-1634705Y361794229D01*
X-1629522Y361723422D01*
X-1634705Y361705771D01*
X-1651745Y361660316D01*
X-1658500Y361598134D01*
X-1658500Y361468884D01*
X-1678502Y361400763D01*
X-1695400Y361379794D01*
X-2475000Y360600193D01*
X-2475000Y365750000D01*
X3525000Y365750000D01*
X3525000Y364742030D01*
G37*
%TD.AperFunction*%
%TD*%
M02*
