%TF.GenerationSoftware,KiCad,Pcbnew,(6.0.9)*%
%TF.CreationDate,2022-11-25T10:34:14-05:00*%
%TF.ProjectId,arm,61726d2e-6b69-4636-9164-5f7063625858,rev?*%
%TF.SameCoordinates,Original*%
%TF.FileFunction,Legend,Top*%
%TF.FilePolarity,Positive*%
%FSLAX46Y46*%
G04 Gerber Fmt 4.6, Leading zero omitted, Abs format (unit mm)*
G04 Created by KiCad (PCBNEW (6.0.9)) date 2022-11-25 10:34:14*
%MOMM*%
%LPD*%
G01*
G04 APERTURE LIST*
%ADD10C,0.150000*%
%ADD11C,0.300000*%
%ADD12C,0.120000*%
G04 APERTURE END LIST*
D10*
X-1352619Y506500000D02*
X-1352619Y507071428D01*
X-352619Y506785714D02*
X-1352619Y506785714D01*
X-352619Y507404761D02*
X-1352619Y507404761D01*
X-352619Y507833333D02*
X-876428Y507833333D01*
X-971666Y507785714D01*
X-1019285Y507690476D01*
X-1019285Y507547619D01*
X-971666Y507452380D01*
X-924047Y507404761D01*
X-352619Y508309523D02*
X-1019285Y508309523D01*
X-1352619Y508309523D02*
X-1305000Y508261904D01*
X-1257380Y508309523D01*
X-1305000Y508357142D01*
X-1352619Y508309523D01*
X-1257380Y508309523D01*
X-400238Y508738095D02*
X-352619Y508833333D01*
X-352619Y509023809D01*
X-400238Y509119047D01*
X-495476Y509166666D01*
X-543095Y509166666D01*
X-638333Y509119047D01*
X-685952Y509023809D01*
X-685952Y508880952D01*
X-733571Y508785714D01*
X-828809Y508738095D01*
X-876428Y508738095D01*
X-971666Y508785714D01*
X-1019285Y508880952D01*
X-1019285Y509023809D01*
X-971666Y509119047D01*
X-352619Y510357142D02*
X-1019285Y510357142D01*
X-1352619Y510357142D02*
X-1305000Y510309523D01*
X-1257380Y510357142D01*
X-1305000Y510404761D01*
X-1352619Y510357142D01*
X-1257380Y510357142D01*
X-400238Y510785714D02*
X-352619Y510880952D01*
X-352619Y511071428D01*
X-400238Y511166666D01*
X-495476Y511214285D01*
X-543095Y511214285D01*
X-638333Y511166666D01*
X-685952Y511071428D01*
X-685952Y510928571D01*
X-733571Y510833333D01*
X-828809Y510785714D01*
X-876428Y510785714D01*
X-971666Y510833333D01*
X-1019285Y510928571D01*
X-1019285Y511071428D01*
X-971666Y511166666D01*
X-1019285Y512833333D02*
X-209761Y512833333D01*
X-114523Y512785714D01*
X-66904Y512738095D01*
X-19285Y512642857D01*
X-19285Y512500000D01*
X-66904Y512404761D01*
X-400238Y512833333D02*
X-352619Y512738095D01*
X-352619Y512547619D01*
X-400238Y512452380D01*
X-447857Y512404761D01*
X-543095Y512357142D01*
X-828809Y512357142D01*
X-924047Y512404761D01*
X-971666Y512452380D01*
X-1019285Y512547619D01*
X-1019285Y512738095D01*
X-971666Y512833333D01*
X-400238Y513690476D02*
X-352619Y513595238D01*
X-352619Y513404761D01*
X-400238Y513309523D01*
X-495476Y513261904D01*
X-876428Y513261904D01*
X-971666Y513309523D01*
X-1019285Y513404761D01*
X-1019285Y513595238D01*
X-971666Y513690476D01*
X-876428Y513738095D01*
X-781190Y513738095D01*
X-685952Y513261904D01*
X-1019285Y514023809D02*
X-1019285Y514404761D01*
X-1352619Y514166666D02*
X-495476Y514166666D01*
X-400238Y514214285D01*
X-352619Y514309523D01*
X-352619Y514404761D01*
X-1019285Y514595238D02*
X-1019285Y514976190D01*
X-1352619Y514738095D02*
X-495476Y514738095D01*
X-400238Y514785714D01*
X-352619Y514880952D01*
X-352619Y514976190D01*
X-352619Y515309523D02*
X-1019285Y515309523D01*
X-1352619Y515309523D02*
X-1305000Y515261904D01*
X-1257380Y515309523D01*
X-1305000Y515357142D01*
X-1352619Y515309523D01*
X-1257380Y515309523D01*
X-1019285Y515785714D02*
X-352619Y515785714D01*
X-924047Y515785714D02*
X-971666Y515833333D01*
X-1019285Y515928571D01*
X-1019285Y516071428D01*
X-971666Y516166666D01*
X-876428Y516214285D01*
X-352619Y516214285D01*
X-1019285Y517119047D02*
X-209761Y517119047D01*
X-114523Y517071428D01*
X-66904Y517023809D01*
X-19285Y516928571D01*
X-19285Y516785714D01*
X-66904Y516690476D01*
X-400238Y517119047D02*
X-352619Y517023809D01*
X-352619Y516833333D01*
X-400238Y516738095D01*
X-447857Y516690476D01*
X-543095Y516642857D01*
X-828809Y516642857D01*
X-924047Y516690476D01*
X-971666Y516738095D01*
X-1019285Y516833333D01*
X-1019285Y517023809D01*
X-971666Y517119047D01*
X-352619Y518500000D02*
X-400238Y518404761D01*
X-447857Y518357142D01*
X-543095Y518309523D01*
X-828809Y518309523D01*
X-924047Y518357142D01*
X-971666Y518404761D01*
X-1019285Y518500000D01*
X-1019285Y518642857D01*
X-971666Y518738095D01*
X-924047Y518785714D01*
X-828809Y518833333D01*
X-543095Y518833333D01*
X-447857Y518785714D01*
X-400238Y518738095D01*
X-352619Y518642857D01*
X-352619Y518500000D01*
X-1019285Y519690476D02*
X-352619Y519690476D01*
X-1019285Y519261904D02*
X-495476Y519261904D01*
X-400238Y519309523D01*
X-352619Y519404761D01*
X-352619Y519547619D01*
X-400238Y519642857D01*
X-447857Y519690476D01*
X-1019285Y520023809D02*
X-1019285Y520404761D01*
X-1352619Y520166666D02*
X-495476Y520166666D01*
X-400238Y520214285D01*
X-352619Y520309523D01*
X-352619Y520404761D01*
X-352619Y521642857D02*
X-400238Y521547619D01*
X-447857Y521500000D01*
X-543095Y521452380D01*
X-828809Y521452380D01*
X-924047Y521500000D01*
X-971666Y521547619D01*
X-1019285Y521642857D01*
X-1019285Y521785714D01*
X-971666Y521880952D01*
X-924047Y521928571D01*
X-828809Y521976190D01*
X-543095Y521976190D01*
X-447857Y521928571D01*
X-400238Y521880952D01*
X-352619Y521785714D01*
X-352619Y521642857D01*
X-1019285Y522261904D02*
X-1019285Y522642857D01*
X-352619Y522404761D02*
X-1209761Y522404761D01*
X-1304999Y522452380D01*
X-1352619Y522547619D01*
X-1352619Y522642857D01*
X-352619Y523738095D02*
X-1352619Y523738095D01*
X-352619Y524166666D02*
X-876428Y524166666D01*
X-971666Y524119047D01*
X-1019285Y524023809D01*
X-1019285Y523880952D01*
X-971666Y523785714D01*
X-924047Y523738095D01*
X-352619Y525071428D02*
X-876428Y525071428D01*
X-971666Y525023809D01*
X-1019285Y524928571D01*
X-1019285Y524738095D01*
X-971666Y524642857D01*
X-400238Y525071428D02*
X-352619Y524976190D01*
X-352619Y524738095D01*
X-400238Y524642857D01*
X-495476Y524595238D01*
X-590714Y524595238D01*
X-685952Y524642857D01*
X-733571Y524738095D01*
X-733571Y524976190D01*
X-781190Y525071428D01*
X-1019285Y525547619D02*
X-352619Y525547619D01*
X-924047Y525547619D02*
X-971666Y525595238D01*
X-1019285Y525690476D01*
X-1019285Y525833333D01*
X-971666Y525928571D01*
X-876428Y525976190D01*
X-352619Y525976190D01*
X-352619Y526880952D02*
X-1352619Y526880952D01*
X-400238Y526880952D02*
X-352619Y526785714D01*
X-352619Y526595238D01*
X-400238Y526500000D01*
X-447857Y526452380D01*
X-543095Y526404761D01*
X-828809Y526404761D01*
X-924047Y526452380D01*
X-971666Y526500000D01*
X-1019285Y526595238D01*
X-1019285Y526785714D01*
X-971666Y526880952D01*
X-447857Y527357142D02*
X-400238Y527404761D01*
X-352619Y527357142D01*
X-400238Y527309523D01*
X-447857Y527357142D01*
X-352619Y527357142D01*
X-733571Y527357142D02*
X-1304999Y527309523D01*
X-1352619Y527357142D01*
X-1304999Y527404761D01*
X-733571Y527357142D01*
X-1352619Y527357142D01*
X1257380Y506976190D02*
X257380Y506976190D01*
X1257380Y507547619D01*
X257380Y507547619D01*
X1257380Y508166666D02*
X1209761Y508071428D01*
X1162142Y508023809D01*
X1066904Y507976190D01*
X781190Y507976190D01*
X685952Y508023809D01*
X638333Y508071428D01*
X590714Y508166666D01*
X590714Y508309523D01*
X638333Y508404761D01*
X685952Y508452380D01*
X781190Y508500000D01*
X1066904Y508500000D01*
X1162142Y508452380D01*
X1209761Y508404761D01*
X1257380Y508309523D01*
X1257380Y508166666D01*
X590714Y508833333D02*
X1257380Y509023809D01*
X781190Y509214285D01*
X1257380Y509404761D01*
X590714Y509595238D01*
X590714Y510595238D02*
X590714Y510976190D01*
X257380Y510738095D02*
X1114523Y510738095D01*
X1209761Y510785714D01*
X1257380Y510880952D01*
X1257380Y510976190D01*
X1257380Y511309523D02*
X257380Y511309523D01*
X1257380Y511738095D02*
X733571Y511738095D01*
X638333Y511690476D01*
X590714Y511595238D01*
X590714Y511452380D01*
X638333Y511357142D01*
X685952Y511309523D01*
X1209761Y512595238D02*
X1257380Y512500000D01*
X1257380Y512309523D01*
X1209761Y512214285D01*
X1114523Y512166666D01*
X733571Y512166666D01*
X638333Y512214285D01*
X590714Y512309523D01*
X590714Y512500000D01*
X638333Y512595238D01*
X733571Y512642857D01*
X828809Y512642857D01*
X924047Y512166666D01*
X1257380Y513071428D02*
X590714Y513071428D01*
X781190Y513071428D02*
X685952Y513119047D01*
X638333Y513166666D01*
X590714Y513261904D01*
X590714Y513357142D01*
X1209761Y514071428D02*
X1257380Y513976190D01*
X1257380Y513785714D01*
X1209761Y513690476D01*
X1114523Y513642857D01*
X733571Y513642857D01*
X638333Y513690476D01*
X590714Y513785714D01*
X590714Y513976190D01*
X638333Y514071428D01*
X733571Y514119047D01*
X828809Y514119047D01*
X924047Y513642857D01*
X1257380Y515738095D02*
X733571Y515738095D01*
X638333Y515690476D01*
X590714Y515595238D01*
X590714Y515404761D01*
X638333Y515309523D01*
X1209761Y515738095D02*
X1257380Y515642857D01*
X1257380Y515404761D01*
X1209761Y515309523D01*
X1114523Y515261904D01*
X1019285Y515261904D01*
X924047Y515309523D01*
X876428Y515404761D01*
X876428Y515642857D01*
X828809Y515738095D01*
X1257380Y516214285D02*
X590714Y516214285D01*
X781190Y516214285D02*
X685952Y516261904D01*
X638333Y516309523D01*
X590714Y516404761D01*
X590714Y516500000D01*
X1209761Y517214285D02*
X1257380Y517119047D01*
X1257380Y516928571D01*
X1209761Y516833333D01*
X1114523Y516785714D01*
X733571Y516785714D01*
X638333Y516833333D01*
X590714Y516928571D01*
X590714Y517119047D01*
X638333Y517214285D01*
X733571Y517261904D01*
X828809Y517261904D01*
X924047Y516785714D01*
X352619Y518404761D02*
X305000Y518452380D01*
X257380Y518547619D01*
X257380Y518785714D01*
X305000Y518880952D01*
X352619Y518928571D01*
X447857Y518976190D01*
X543095Y518976190D01*
X685952Y518928571D01*
X1257380Y518357142D01*
X1257380Y518976190D01*
X590714Y519833333D02*
X1257380Y519833333D01*
X209761Y519595238D02*
X924047Y519357142D01*
X924047Y519976190D01*
X1257380Y521261904D02*
X1209761Y521166666D01*
X1162142Y521119047D01*
X1066904Y521071428D01*
X781190Y521071428D01*
X685952Y521119047D01*
X638333Y521166666D01*
X590714Y521261904D01*
X590714Y521404761D01*
X638333Y521500000D01*
X685952Y521547619D01*
X781190Y521595238D01*
X1066904Y521595238D01*
X1162142Y521547619D01*
X1209761Y521500000D01*
X1257380Y521404761D01*
X1257380Y521261904D01*
X590714Y521880952D02*
X590714Y522261904D01*
X1257380Y522023809D02*
X400238Y522023809D01*
X305000Y522071428D01*
X257380Y522166666D01*
X257380Y522261904D01*
X590714Y523214285D02*
X590714Y523595238D01*
X257380Y523357142D02*
X1114523Y523357142D01*
X1209761Y523404761D01*
X1257380Y523500000D01*
X1257380Y523595238D01*
X1257380Y523928571D02*
X257380Y523928571D01*
X1257380Y524357142D02*
X733571Y524357142D01*
X638333Y524309523D01*
X590714Y524214285D01*
X590714Y524071428D01*
X638333Y523976190D01*
X685952Y523928571D01*
X1209761Y525214285D02*
X1257380Y525119047D01*
X1257380Y524928571D01*
X1209761Y524833333D01*
X1114523Y524785714D01*
X733571Y524785714D01*
X638333Y524833333D01*
X590714Y524928571D01*
X590714Y525119047D01*
X638333Y525214285D01*
X733571Y525261904D01*
X828809Y525261904D01*
X924047Y524785714D01*
X1257380Y525690476D02*
X590714Y525690476D01*
X685952Y525690476D02*
X638333Y525738095D01*
X590714Y525833333D01*
X590714Y525976190D01*
X638333Y526071428D01*
X733571Y526119047D01*
X1257380Y526119047D01*
X733571Y526119047D02*
X638333Y526166666D01*
X590714Y526261904D01*
X590714Y526404761D01*
X638333Y526500000D01*
X733571Y526547619D01*
X1257380Y526547619D01*
X1162142Y527023809D02*
X1209761Y527071428D01*
X1257380Y527023809D01*
X1209761Y526976190D01*
X1162142Y527023809D01*
X1257380Y527023809D01*
X876428Y527023809D02*
X305000Y526976190D01*
X257380Y527023809D01*
X305000Y527071428D01*
X876428Y527023809D01*
X257380Y527023809D01*
D11*
X-705238Y90583333D02*
X-2705238Y90583333D01*
X-2705238Y91345238D01*
X-2610000Y91535714D01*
X-2514761Y91630952D01*
X-2324285Y91726190D01*
X-2038571Y91726190D01*
X-1848095Y91630952D01*
X-1752857Y91535714D01*
X-1657619Y91345238D01*
X-1657619Y90583333D01*
X-705238Y92583333D02*
X-2705238Y92583333D01*
X-705238Y93440476D02*
X-1752857Y93440476D01*
X-1943333Y93345238D01*
X-2038571Y93154761D01*
X-2038571Y92869047D01*
X-1943333Y92678571D01*
X-1848095Y92583333D01*
X-705238Y95250000D02*
X-1752857Y95250000D01*
X-1943333Y95154761D01*
X-2038571Y94964285D01*
X-2038571Y94583333D01*
X-1943333Y94392857D01*
X-800476Y95250000D02*
X-705238Y95059523D01*
X-705238Y94583333D01*
X-800476Y94392857D01*
X-990952Y94297619D01*
X-1181428Y94297619D01*
X-1371904Y94392857D01*
X-1467142Y94583333D01*
X-1467142Y95059523D01*
X-1562380Y95250000D01*
X-800476Y96107142D02*
X-705238Y96297619D01*
X-705238Y96678571D01*
X-800476Y96869047D01*
X-990952Y96964285D01*
X-1086190Y96964285D01*
X-1276666Y96869047D01*
X-1371904Y96678571D01*
X-1371904Y96392857D01*
X-1467142Y96202380D01*
X-1657619Y96107142D01*
X-1752857Y96107142D01*
X-1943333Y96202380D01*
X-2038571Y96392857D01*
X-2038571Y96678571D01*
X-1943333Y96869047D01*
X-800476Y98583333D02*
X-705238Y98392857D01*
X-705238Y98011904D01*
X-800476Y97821428D01*
X-990952Y97726190D01*
X-1752857Y97726190D01*
X-1943333Y97821428D01*
X-2038571Y98011904D01*
X-2038571Y98392857D01*
X-1943333Y98583333D01*
X-1752857Y98678571D01*
X-1562380Y98678571D01*
X-1371904Y97726190D01*
X-1276666Y100964285D02*
X-1276666Y101916666D01*
X-705238Y100773809D02*
X-2705238Y101440476D01*
X-705238Y102107142D01*
X-705238Y102773809D02*
X-2038571Y102773809D01*
X-1657619Y102773809D02*
X-1848095Y102869047D01*
X-1943333Y102964285D01*
X-2038571Y103154761D01*
X-2038571Y103345238D01*
X-705238Y104011904D02*
X-2038571Y104011904D01*
X-1657619Y104011904D02*
X-1848095Y104107142D01*
X-1943333Y104202380D01*
X-2038571Y104392857D01*
X-2038571Y104583333D01*
X-705238Y106107142D02*
X-1752857Y106107142D01*
X-1943333Y106011904D01*
X-2038571Y105821428D01*
X-2038571Y105440476D01*
X-1943333Y105250000D01*
X-800476Y106107142D02*
X-705238Y105916666D01*
X-705238Y105440476D01*
X-800476Y105250000D01*
X-990952Y105154761D01*
X-1181428Y105154761D01*
X-1371904Y105250000D01*
X-1467142Y105440476D01*
X-1467142Y105916666D01*
X-1562380Y106107142D01*
X-2038571Y106869047D02*
X-705238Y107345238D01*
X-2038571Y107821428D02*
X-705238Y107345238D01*
X-229047Y107154761D01*
X-133809Y107059523D01*
X-38571Y106869047D01*
X-1276666Y110011904D02*
X-1276666Y110964285D01*
X-705238Y109821428D02*
X-2705238Y110488095D01*
X-705238Y111154761D01*
X-705238Y111821428D02*
X-2038571Y111821428D01*
X-1657619Y111821428D02*
X-1848095Y111916666D01*
X-1943333Y112011904D01*
X-2038571Y112202380D01*
X-2038571Y112392857D01*
X-705238Y113059523D02*
X-2038571Y113059523D01*
X-1848095Y113059523D02*
X-1943333Y113154761D01*
X-2038571Y113345238D01*
X-2038571Y113630952D01*
X-1943333Y113821428D01*
X-1752857Y113916666D01*
X-705238Y113916666D01*
X-1752857Y113916666D02*
X-1943333Y114011904D01*
X-2038571Y114202380D01*
X-2038571Y114488095D01*
X-1943333Y114678571D01*
X-1752857Y114773809D01*
X-705238Y114773809D01*
X-2705238Y116964285D02*
X-705238Y117630952D01*
X-2705238Y118297619D01*
X-705238Y120011904D02*
X-705238Y118869047D01*
X-705238Y119440476D02*
X-2705238Y119440476D01*
X-2419523Y119250000D01*
X-2229047Y119059523D01*
X-2133809Y118869047D01*
X1467142Y94440476D02*
X1562380Y94726190D01*
X1657619Y94821428D01*
X1848095Y94916666D01*
X2133809Y94916666D01*
X2324285Y94821428D01*
X2419523Y94726190D01*
X2514761Y94535714D01*
X2514761Y93773809D01*
X514761Y93773809D01*
X514761Y94440476D01*
X609999Y94630952D01*
X705238Y94726190D01*
X895714Y94821428D01*
X1086190Y94821428D01*
X1276666Y94726190D01*
X1371904Y94630952D01*
X1467142Y94440476D01*
X1467142Y93773809D01*
X2419523Y96535714D02*
X2514761Y96345238D01*
X2514761Y95964285D01*
X2419523Y95773809D01*
X2229047Y95678571D01*
X1467142Y95678571D01*
X1276666Y95773809D01*
X1181428Y95964285D01*
X1181428Y96345238D01*
X1276666Y96535714D01*
X1467142Y96630952D01*
X1657619Y96630952D01*
X1848095Y95678571D01*
X1181428Y97488095D02*
X2514761Y97488095D01*
X1371904Y97488095D02*
X1276666Y97583333D01*
X1181428Y97773809D01*
X1181428Y98059523D01*
X1276666Y98250000D01*
X1467142Y98345238D01*
X2514761Y98345238D01*
X514761Y100630952D02*
X2514761Y101107142D01*
X1086190Y101488095D01*
X2514761Y101869047D01*
X514761Y102345238D01*
X2514761Y103964285D02*
X1467142Y103964285D01*
X1276666Y103869047D01*
X1181428Y103678571D01*
X1181428Y103297619D01*
X1276666Y103107142D01*
X2419523Y103964285D02*
X2514761Y103773809D01*
X2514761Y103297619D01*
X2419523Y103107142D01*
X2229047Y103011904D01*
X2038571Y103011904D01*
X1848095Y103107142D01*
X1752857Y103297619D01*
X1752857Y103773809D01*
X1657619Y103964285D01*
X1181428Y104916666D02*
X2514761Y104916666D01*
X1371904Y104916666D02*
X1276666Y105011904D01*
X1181428Y105202380D01*
X1181428Y105488095D01*
X1276666Y105678571D01*
X1467142Y105773809D01*
X2514761Y105773809D01*
X1181428Y107583333D02*
X2800476Y107583333D01*
X2990952Y107488095D01*
X3086190Y107392857D01*
X3181428Y107202380D01*
X3181428Y106916666D01*
X3086190Y106726190D01*
X2419523Y107583333D02*
X2514761Y107392857D01*
X2514761Y107011904D01*
X2419523Y106821428D01*
X2324285Y106726190D01*
X2133809Y106630952D01*
X1562380Y106630952D01*
X1371904Y106726190D01*
X1276666Y106821428D01*
X1181428Y107011904D01*
X1181428Y107392857D01*
X1276666Y107583333D01*
X705238Y109964285D02*
X610000Y110059523D01*
X514761Y110250000D01*
X514761Y110726190D01*
X610000Y110916666D01*
X705238Y111011904D01*
X895714Y111107142D01*
X1086190Y111107142D01*
X1371904Y111011904D01*
X2514761Y109869047D01*
X2514761Y111107142D01*
X514761Y112345238D02*
X514761Y112535714D01*
X610000Y112726190D01*
X705238Y112821428D01*
X895714Y112916666D01*
X1276666Y113011904D01*
X1752857Y113011904D01*
X2133809Y112916666D01*
X2324285Y112821428D01*
X2419523Y112726190D01*
X2514761Y112535714D01*
X2514761Y112345238D01*
X2419523Y112154761D01*
X2324285Y112059523D01*
X2133809Y111964285D01*
X1752857Y111869047D01*
X1276666Y111869047D01*
X895714Y111964285D01*
X705238Y112059523D01*
X610000Y112154761D01*
X514761Y112345238D01*
X705238Y113773809D02*
X610000Y113869047D01*
X514761Y114059523D01*
X514761Y114535714D01*
X610000Y114726190D01*
X705238Y114821428D01*
X895714Y114916666D01*
X1086190Y114916666D01*
X1371904Y114821428D01*
X2514761Y113678571D01*
X2514761Y114916666D01*
X705238Y115678571D02*
X610000Y115773809D01*
X514761Y115964285D01*
X514761Y116440476D01*
X610000Y116630952D01*
X705238Y116726190D01*
X895714Y116821428D01*
X1086190Y116821428D01*
X1371904Y116726190D01*
X2514761Y115583333D01*
X2514761Y116821428D01*
D10*
X-3445238Y626047619D02*
X-3445238Y625333333D01*
X-3483333Y625190476D01*
X-3559523Y625095238D01*
X-3673809Y625047619D01*
X-3750000Y625047619D01*
X-2683333Y625047619D02*
X-3064285Y625047619D01*
X-3064285Y626047619D01*
X-1959523Y625142857D02*
X-1997619Y625095238D01*
X-2111904Y625047619D01*
X-2188095Y625047619D01*
X-2302380Y625095238D01*
X-2378571Y625190476D01*
X-2416666Y625285714D01*
X-2454761Y625476190D01*
X-2454761Y625619047D01*
X-2416666Y625809523D01*
X-2378571Y625904761D01*
X-2302380Y626000000D01*
X-2188095Y626047619D01*
X-2111904Y626047619D01*
X-1997619Y626000000D01*
X-1959523Y625952380D01*
X-1388095Y626047619D02*
X-1388095Y625333333D01*
X-1426190Y625190476D01*
X-1502380Y625095238D01*
X-1616666Y625047619D01*
X-1692857Y625047619D01*
X-626190Y625047619D02*
X-1007142Y625047619D01*
X-1007142Y626047619D01*
X97619Y625142857D02*
X59523Y625095238D01*
X-54761Y625047619D01*
X-130952Y625047619D01*
X-245238Y625095238D01*
X-321428Y625190476D01*
X-359523Y625285714D01*
X-397619Y625476190D01*
X-397619Y625619047D01*
X-359523Y625809523D01*
X-321428Y625904761D01*
X-245238Y626000000D01*
X-130952Y626047619D01*
X-54761Y626047619D01*
X59523Y626000000D01*
X97619Y625952380D01*
X669047Y626047619D02*
X669047Y625333333D01*
X630952Y625190476D01*
X554761Y625095238D01*
X440476Y625047619D01*
X364285Y625047619D01*
X1430952Y625047619D02*
X1049999Y625047619D01*
X1049999Y626047619D01*
X2154761Y625142857D02*
X2116666Y625095238D01*
X2002380Y625047619D01*
X1926190Y625047619D01*
X1811904Y625095238D01*
X1735714Y625190476D01*
X1697619Y625285714D01*
X1659523Y625476190D01*
X1659523Y625619047D01*
X1697619Y625809523D01*
X1735714Y625904761D01*
X1811904Y626000000D01*
X1926190Y626047619D01*
X2002380Y626047619D01*
X2116666Y626000000D01*
X2154761Y625952380D01*
X2726190Y626047619D02*
X2726190Y625333333D01*
X2688095Y625190476D01*
X2611904Y625095238D01*
X2497619Y625047619D01*
X2421428Y625047619D01*
X3488095Y625047619D02*
X3107142Y625047619D01*
X3107142Y626047619D01*
X4211904Y625142857D02*
X4173809Y625095238D01*
X4059523Y625047619D01*
X3983333Y625047619D01*
X3869047Y625095238D01*
X3792857Y625190476D01*
X3754761Y625285714D01*
X3716666Y625476190D01*
X3716666Y625619047D01*
X3754761Y625809523D01*
X3792857Y625904761D01*
X3869047Y626000000D01*
X3983333Y626047619D01*
X4059523Y626047619D01*
X4173809Y626000000D01*
X4211904Y625952380D01*
%TO.C,C13*%
X-392857Y487392857D02*
X-440476Y487345238D01*
X-583333Y487297619D01*
X-678571Y487297619D01*
X-821428Y487345238D01*
X-916666Y487440476D01*
X-964285Y487535714D01*
X-1011904Y487726190D01*
X-1011904Y487869047D01*
X-964285Y488059523D01*
X-916666Y488154761D01*
X-821428Y488250000D01*
X-678571Y488297619D01*
X-583333Y488297619D01*
X-440476Y488250000D01*
X-392857Y488202380D01*
X559523Y487297619D02*
X-11904Y487297619D01*
X273809Y487297619D02*
X273809Y488297619D01*
X178571Y488154761D01*
X83333Y488059523D01*
X-11904Y488011904D01*
X892857Y488297619D02*
X1511904Y488297619D01*
X1178571Y487916666D01*
X1321428Y487916666D01*
X1416666Y487869047D01*
X1464285Y487821428D01*
X1511904Y487726190D01*
X1511904Y487488095D01*
X1464285Y487392857D01*
X1416666Y487345238D01*
X1321428Y487297619D01*
X1035714Y487297619D01*
X940476Y487345238D01*
X892857Y487392857D01*
%TO.C,C5*%
X583333Y190892857D02*
X535714Y190845238D01*
X392857Y190797619D01*
X297619Y190797619D01*
X154761Y190845238D01*
X59523Y190940476D01*
X11904Y191035714D01*
X-35714Y191226190D01*
X-35714Y191369047D01*
X11904Y191559523D01*
X59523Y191654761D01*
X154761Y191750000D01*
X297619Y191797619D01*
X392857Y191797619D01*
X535714Y191750000D01*
X583333Y191702380D01*
X1488095Y191797619D02*
X1011904Y191797619D01*
X964285Y191321428D01*
X1011904Y191369047D01*
X1107142Y191416666D01*
X1345238Y191416666D01*
X1440476Y191369047D01*
X1488095Y191321428D01*
X1535714Y191226190D01*
X1535714Y190988095D01*
X1488095Y190892857D01*
X1440476Y190845238D01*
X1345238Y190797619D01*
X1107142Y190797619D01*
X1011904Y190845238D01*
X964285Y190892857D01*
%TO.C,C8*%
X2583333Y190892857D02*
X2535714Y190845238D01*
X2392857Y190797619D01*
X2297619Y190797619D01*
X2154761Y190845238D01*
X2059523Y190940476D01*
X2011904Y191035714D01*
X1964285Y191226190D01*
X1964285Y191369047D01*
X2011904Y191559523D01*
X2059523Y191654761D01*
X2154761Y191750000D01*
X2297619Y191797619D01*
X2392857Y191797619D01*
X2535714Y191750000D01*
X2583333Y191702380D01*
X3154761Y191369047D02*
X3059523Y191416666D01*
X3011904Y191464285D01*
X2964285Y191559523D01*
X2964285Y191607142D01*
X3011904Y191702380D01*
X3059523Y191750000D01*
X3154761Y191797619D01*
X3345238Y191797619D01*
X3440476Y191750000D01*
X3488095Y191702380D01*
X3535714Y191607142D01*
X3535714Y191559523D01*
X3488095Y191464285D01*
X3440476Y191416666D01*
X3345238Y191369047D01*
X3154761Y191369047D01*
X3059523Y191321428D01*
X3011904Y191273809D01*
X2964285Y191178571D01*
X2964285Y190988095D01*
X3011904Y190892857D01*
X3059523Y190845238D01*
X3154761Y190797619D01*
X3345238Y190797619D01*
X3440476Y190845238D01*
X3488095Y190892857D01*
X3535714Y190988095D01*
X3535714Y191178571D01*
X3488095Y191273809D01*
X3440476Y191321428D01*
X3345238Y191369047D01*
%TO.C,C16*%
X2107142Y628892857D02*
X2059523Y628845238D01*
X1916666Y628797619D01*
X1821428Y628797619D01*
X1678571Y628845238D01*
X1583333Y628940476D01*
X1535714Y629035714D01*
X1488095Y629226190D01*
X1488095Y629369047D01*
X1535714Y629559523D01*
X1583333Y629654761D01*
X1678571Y629750000D01*
X1821428Y629797619D01*
X1916666Y629797619D01*
X2059523Y629750000D01*
X2107142Y629702380D01*
X3059523Y628797619D02*
X2488095Y628797619D01*
X2773809Y628797619D02*
X2773809Y629797619D01*
X2678571Y629654761D01*
X2583333Y629559523D01*
X2488095Y629511904D01*
X3916666Y629797619D02*
X3726190Y629797619D01*
X3630952Y629750000D01*
X3583333Y629702380D01*
X3488095Y629559523D01*
X3440476Y629369047D01*
X3440476Y628988095D01*
X3488095Y628892857D01*
X3535714Y628845238D01*
X3630952Y628797619D01*
X3821428Y628797619D01*
X3916666Y628845238D01*
X3964285Y628892857D01*
X4011904Y628988095D01*
X4011904Y629226190D01*
X3964285Y629321428D01*
X3916666Y629369047D01*
X3821428Y629416666D01*
X3630952Y629416666D01*
X3535714Y629369047D01*
X3488095Y629321428D01*
X3440476Y629226190D01*
%TO.C,C7*%
X2583333Y128392857D02*
X2535714Y128345238D01*
X2392857Y128297619D01*
X2297619Y128297619D01*
X2154761Y128345238D01*
X2059523Y128440476D01*
X2011904Y128535714D01*
X1964285Y128726190D01*
X1964285Y128869047D01*
X2011904Y129059523D01*
X2059523Y129154761D01*
X2154761Y129250000D01*
X2297619Y129297619D01*
X2392857Y129297619D01*
X2535714Y129250000D01*
X2583333Y129202380D01*
X2916666Y129297619D02*
X3583333Y129297619D01*
X3154761Y128297619D01*
%TO.C,R7*%
X2083333Y478547619D02*
X1750000Y479023809D01*
X1511904Y478547619D02*
X1511904Y479547619D01*
X1892857Y479547619D01*
X1988095Y479500000D01*
X2035714Y479452380D01*
X2083333Y479357142D01*
X2083333Y479214285D01*
X2035714Y479119047D01*
X1988095Y479071428D01*
X1892857Y479023809D01*
X1511904Y479023809D01*
X2416666Y479547619D02*
X3083333Y479547619D01*
X2654761Y478547619D01*
%TO.C,MK2*%
X-2559523Y76547619D02*
X-2559523Y77547619D01*
X-2226190Y76833333D01*
X-1892857Y77547619D01*
X-1892857Y76547619D01*
X-1416666Y76547619D02*
X-1416666Y77547619D01*
X-845238Y76547619D02*
X-1273809Y77119047D01*
X-845238Y77547619D02*
X-1416666Y76976190D01*
X-464285Y77452380D02*
X-416666Y77500000D01*
X-321428Y77547619D01*
X-83333Y77547619D01*
X11904Y77500000D01*
X59523Y77452380D01*
X107142Y77357142D01*
X107142Y77261904D01*
X59523Y77119047D01*
X-511904Y76547619D01*
X107142Y76547619D01*
%TO.C,MK7*%
X-2559523Y485047619D02*
X-2559523Y486047619D01*
X-2226190Y485333333D01*
X-1892857Y486047619D01*
X-1892857Y485047619D01*
X-1416666Y485047619D02*
X-1416666Y486047619D01*
X-845238Y485047619D02*
X-1273809Y485619047D01*
X-845238Y486047619D02*
X-1416666Y485476190D01*
X-511904Y486047619D02*
X154761Y486047619D01*
X-273809Y485047619D01*
%TO.C,C3*%
X1583333Y42892857D02*
X1535714Y42845238D01*
X1392857Y42797619D01*
X1297619Y42797619D01*
X1154761Y42845238D01*
X1059523Y42940476D01*
X1011904Y43035714D01*
X964285Y43226190D01*
X964285Y43369047D01*
X1011904Y43559523D01*
X1059523Y43654761D01*
X1154761Y43750000D01*
X1297619Y43797619D01*
X1392857Y43797619D01*
X1535714Y43750000D01*
X1583333Y43702380D01*
X1916666Y43797619D02*
X2535714Y43797619D01*
X2202380Y43416666D01*
X2345238Y43416666D01*
X2440476Y43369047D01*
X2488095Y43321428D01*
X2535714Y43226190D01*
X2535714Y42988095D01*
X2488095Y42892857D01*
X2440476Y42845238D01*
X2345238Y42797619D01*
X2059523Y42797619D01*
X1964285Y42845238D01*
X1916666Y42892857D01*
%TO.C,R3*%
X2583333Y121217619D02*
X2250000Y121693809D01*
X2011904Y121217619D02*
X2011904Y122217619D01*
X2392857Y122217619D01*
X2488095Y122170000D01*
X2535714Y122122380D01*
X2583333Y122027142D01*
X2583333Y121884285D01*
X2535714Y121789047D01*
X2488095Y121741428D01*
X2392857Y121693809D01*
X2011904Y121693809D01*
X2916666Y122217619D02*
X3535714Y122217619D01*
X3202380Y121836666D01*
X3345238Y121836666D01*
X3440476Y121789047D01*
X3488095Y121741428D01*
X3535714Y121646190D01*
X3535714Y121408095D01*
X3488095Y121312857D01*
X3440476Y121265238D01*
X3345238Y121217619D01*
X3059523Y121217619D01*
X2964285Y121265238D01*
X2916666Y121312857D01*
%TO.C,R8*%
X1083333Y630377619D02*
X749999Y630853809D01*
X511904Y630377619D02*
X511904Y631377619D01*
X892857Y631377619D01*
X988095Y631330000D01*
X1035714Y631282380D01*
X1083333Y631187142D01*
X1083333Y631044285D01*
X1035714Y630949047D01*
X988095Y630901428D01*
X892857Y630853809D01*
X511904Y630853809D01*
X1654761Y630949047D02*
X1559523Y630996666D01*
X1511904Y631044285D01*
X1464285Y631139523D01*
X1464285Y631187142D01*
X1511904Y631282380D01*
X1559523Y631330000D01*
X1654761Y631377619D01*
X1845238Y631377619D01*
X1940476Y631330000D01*
X1988095Y631282380D01*
X2035714Y631187142D01*
X2035714Y631139523D01*
X1988095Y631044285D01*
X1940476Y630996666D01*
X1845238Y630949047D01*
X1654761Y630949047D01*
X1559523Y630901428D01*
X1511904Y630853809D01*
X1464285Y630758571D01*
X1464285Y630568095D01*
X1511904Y630472857D01*
X1559523Y630425238D01*
X1654761Y630377619D01*
X1845238Y630377619D01*
X1940476Y630425238D01*
X1988095Y630472857D01*
X2035714Y630568095D01*
X2035714Y630758571D01*
X1988095Y630853809D01*
X1940476Y630901428D01*
X1845238Y630949047D01*
%TO.C,MK4*%
X-2559523Y189047619D02*
X-2559523Y190047619D01*
X-2226190Y189333333D01*
X-1892857Y190047619D01*
X-1892857Y189047619D01*
X-1416666Y189047619D02*
X-1416666Y190047619D01*
X-845238Y189047619D02*
X-1273809Y189619047D01*
X-845238Y190047619D02*
X-1416666Y189476190D01*
X11904Y189714285D02*
X11904Y189047619D01*
X-226190Y190095238D02*
X-464285Y189380952D01*
X154761Y189380952D01*
%TO.C,C4*%
X2333333Y78392857D02*
X2285714Y78345238D01*
X2142857Y78297619D01*
X2047619Y78297619D01*
X1904761Y78345238D01*
X1809523Y78440476D01*
X1761904Y78535714D01*
X1714285Y78726190D01*
X1714285Y78869047D01*
X1761904Y79059523D01*
X1809523Y79154761D01*
X1904761Y79250000D01*
X2047619Y79297619D01*
X2142857Y79297619D01*
X2285714Y79250000D01*
X2333333Y79202380D01*
X3190476Y78964285D02*
X3190476Y78297619D01*
X2952380Y79345238D02*
X2714285Y78630952D01*
X3333333Y78630952D01*
%TO.C,C12*%
X2357142Y366142857D02*
X2309523Y366095238D01*
X2166666Y366047619D01*
X2071428Y366047619D01*
X1928571Y366095238D01*
X1833333Y366190476D01*
X1785714Y366285714D01*
X1738095Y366476190D01*
X1738095Y366619047D01*
X1785714Y366809523D01*
X1833333Y366904761D01*
X1928571Y367000000D01*
X2071428Y367047619D01*
X2166666Y367047619D01*
X2309523Y367000000D01*
X2357142Y366952380D01*
X3309523Y366047619D02*
X2738095Y366047619D01*
X3023809Y366047619D02*
X3023809Y367047619D01*
X2928571Y366904761D01*
X2833333Y366809523D01*
X2738095Y366761904D01*
X3690476Y366952380D02*
X3738095Y367000000D01*
X3833333Y367047619D01*
X4071428Y367047619D01*
X4166666Y367000000D01*
X4214285Y366952380D01*
X4261904Y366857142D01*
X4261904Y366761904D01*
X4214285Y366619047D01*
X3642857Y366047619D01*
X4261904Y366047619D01*
%TO.C,MK8*%
X-2809523Y631297619D02*
X-2809523Y632297619D01*
X-2476190Y631583333D01*
X-2142857Y632297619D01*
X-2142857Y631297619D01*
X-1666666Y631297619D02*
X-1666666Y632297619D01*
X-1095238Y631297619D02*
X-1523809Y631869047D01*
X-1095238Y632297619D02*
X-1666666Y631726190D01*
X-523809Y631869047D02*
X-619047Y631916666D01*
X-666666Y631964285D01*
X-714285Y632059523D01*
X-714285Y632107142D01*
X-666666Y632202380D01*
X-619047Y632250000D01*
X-523809Y632297619D01*
X-333333Y632297619D01*
X-238095Y632250000D01*
X-190476Y632202380D01*
X-142857Y632107142D01*
X-142857Y632059523D01*
X-190476Y631964285D01*
X-238095Y631916666D01*
X-333333Y631869047D01*
X-523809Y631869047D01*
X-619047Y631821428D01*
X-666666Y631773809D01*
X-714285Y631678571D01*
X-714285Y631488095D01*
X-666666Y631392857D01*
X-619047Y631345238D01*
X-523809Y631297619D01*
X-333333Y631297619D01*
X-238095Y631345238D01*
X-190476Y631392857D01*
X-142857Y631488095D01*
X-142857Y631678571D01*
X-190476Y631773809D01*
X-238095Y631821428D01*
X-333333Y631869047D01*
%TO.C,C2*%
X-666666Y42892857D02*
X-714285Y42845238D01*
X-857142Y42797619D01*
X-952380Y42797619D01*
X-1095238Y42845238D01*
X-1190476Y42940476D01*
X-1238095Y43035714D01*
X-1285714Y43226190D01*
X-1285714Y43369047D01*
X-1238095Y43559523D01*
X-1190476Y43654761D01*
X-1095238Y43750000D01*
X-952380Y43797619D01*
X-857142Y43797619D01*
X-714285Y43750000D01*
X-666666Y43702380D01*
X-285714Y43702380D02*
X-238095Y43750000D01*
X-142857Y43797619D01*
X95238Y43797619D01*
X190476Y43750000D01*
X238095Y43702380D01*
X285714Y43607142D01*
X285714Y43511904D01*
X238095Y43369047D01*
X-333333Y42797619D01*
X285714Y42797619D01*
%TO.C,MK5*%
X-2559523Y266797619D02*
X-2559523Y267797619D01*
X-2226190Y267083333D01*
X-1892857Y267797619D01*
X-1892857Y266797619D01*
X-1416666Y266797619D02*
X-1416666Y267797619D01*
X-845238Y266797619D02*
X-1273809Y267369047D01*
X-845238Y267797619D02*
X-1416666Y267226190D01*
X59523Y267797619D02*
X-416666Y267797619D01*
X-464285Y267321428D01*
X-416666Y267369047D01*
X-321428Y267416666D01*
X-83333Y267416666D01*
X11904Y267369047D01*
X59523Y267321428D01*
X107142Y267226190D01*
X107142Y266988095D01*
X59523Y266892857D01*
X11904Y266845238D01*
X-83333Y266797619D01*
X-321428Y266797619D01*
X-416666Y266845238D01*
X-464285Y266892857D01*
%TO.C,C1*%
X583333Y78392857D02*
X535714Y78345238D01*
X392857Y78297619D01*
X297619Y78297619D01*
X154761Y78345238D01*
X59523Y78440476D01*
X11904Y78535714D01*
X-35714Y78726190D01*
X-35714Y78869047D01*
X11904Y79059523D01*
X59523Y79154761D01*
X154761Y79250000D01*
X297619Y79297619D01*
X392857Y79297619D01*
X535714Y79250000D01*
X583333Y79202380D01*
X1535714Y78297619D02*
X964285Y78297619D01*
X1250000Y78297619D02*
X1250000Y79297619D01*
X1154761Y79154761D01*
X1059523Y79059523D01*
X964285Y79011904D01*
%TO.C,R6*%
X1083333Y356877619D02*
X749999Y357353809D01*
X511904Y356877619D02*
X511904Y357877619D01*
X892857Y357877619D01*
X988095Y357830000D01*
X1035714Y357782380D01*
X1083333Y357687142D01*
X1083333Y357544285D01*
X1035714Y357449047D01*
X988095Y357401428D01*
X892857Y357353809D01*
X511904Y357353809D01*
X1940476Y357877619D02*
X1749999Y357877619D01*
X1654761Y357830000D01*
X1607142Y357782380D01*
X1511904Y357639523D01*
X1464285Y357449047D01*
X1464285Y357068095D01*
X1511904Y356972857D01*
X1559523Y356925238D01*
X1654761Y356877619D01*
X1845238Y356877619D01*
X1940476Y356925238D01*
X1988095Y356972857D01*
X2035714Y357068095D01*
X2035714Y357306190D01*
X1988095Y357401428D01*
X1940476Y357449047D01*
X1845238Y357496666D01*
X1654761Y357496666D01*
X1559523Y357449047D01*
X1511904Y357401428D01*
X1464285Y357306190D01*
%TO.C,R9*%
X-1416666Y58547619D02*
X-1750000Y59023809D01*
X-1988095Y58547619D02*
X-1988095Y59547619D01*
X-1607142Y59547619D01*
X-1511904Y59500000D01*
X-1464285Y59452380D01*
X-1416666Y59357142D01*
X-1416666Y59214285D01*
X-1464285Y59119047D01*
X-1511904Y59071428D01*
X-1607142Y59023809D01*
X-1988095Y59023809D01*
X-940476Y58547619D02*
X-750000Y58547619D01*
X-654761Y58595238D01*
X-607142Y58642857D01*
X-511904Y58785714D01*
X-464285Y58976190D01*
X-464285Y59357142D01*
X-511904Y59452380D01*
X-559523Y59500000D01*
X-654761Y59547619D01*
X-845238Y59547619D01*
X-940476Y59500000D01*
X-988095Y59452380D01*
X-1035714Y59357142D01*
X-1035714Y59119047D01*
X-988095Y59023809D01*
X-940476Y58976190D01*
X-845238Y58928571D01*
X-654761Y58928571D01*
X-559523Y58976190D01*
X-511904Y59023809D01*
X-464285Y59119047D01*
%TO.C,R4*%
X2583333Y181797619D02*
X2250000Y182273809D01*
X2011904Y181797619D02*
X2011904Y182797619D01*
X2392857Y182797619D01*
X2488095Y182750000D01*
X2535714Y182702380D01*
X2583333Y182607142D01*
X2583333Y182464285D01*
X2535714Y182369047D01*
X2488095Y182321428D01*
X2392857Y182273809D01*
X2011904Y182273809D01*
X3440476Y182464285D02*
X3440476Y181797619D01*
X3202380Y182845238D02*
X2964285Y182130952D01*
X3583333Y182130952D01*
%TO.C,R5*%
X2833333Y259547619D02*
X2500000Y260023809D01*
X2261904Y259547619D02*
X2261904Y260547619D01*
X2642857Y260547619D01*
X2738095Y260500000D01*
X2785714Y260452380D01*
X2833333Y260357142D01*
X2833333Y260214285D01*
X2785714Y260119047D01*
X2738095Y260071428D01*
X2642857Y260023809D01*
X2261904Y260023809D01*
X3738095Y260547619D02*
X3261904Y260547619D01*
X3214285Y260071428D01*
X3261904Y260119047D01*
X3357142Y260166666D01*
X3595238Y260166666D01*
X3690476Y260119047D01*
X3738095Y260071428D01*
X3785714Y259976190D01*
X3785714Y259738095D01*
X3738095Y259642857D01*
X3690476Y259595238D01*
X3595238Y259547619D01*
X3357142Y259547619D01*
X3261904Y259595238D01*
X3214285Y259642857D01*
%TO.C,R1*%
X3833333Y42797619D02*
X3500000Y43273809D01*
X3261904Y42797619D02*
X3261904Y43797619D01*
X3642857Y43797619D01*
X3738095Y43750000D01*
X3785714Y43702380D01*
X3833333Y43607142D01*
X3833333Y43464285D01*
X3785714Y43369047D01*
X3738095Y43321428D01*
X3642857Y43273809D01*
X3261904Y43273809D01*
X4785714Y42797619D02*
X4214285Y42797619D01*
X4500000Y42797619D02*
X4500000Y43797619D01*
X4404761Y43654761D01*
X4309523Y43559523D01*
X4214285Y43511904D01*
%TO.C,C17*%
X1857142Y51392857D02*
X1809523Y51345238D01*
X1666666Y51297619D01*
X1571428Y51297619D01*
X1428571Y51345238D01*
X1333333Y51440476D01*
X1285714Y51535714D01*
X1238095Y51726190D01*
X1238095Y51869047D01*
X1285714Y52059523D01*
X1333333Y52154761D01*
X1428571Y52250000D01*
X1571428Y52297619D01*
X1666666Y52297619D01*
X1809523Y52250000D01*
X1857142Y52202380D01*
X2809523Y51297619D02*
X2238095Y51297619D01*
X2523809Y51297619D02*
X2523809Y52297619D01*
X2428571Y52154761D01*
X2333333Y52059523D01*
X2238095Y52011904D01*
X3142857Y52297619D02*
X3809523Y52297619D01*
X3380952Y51297619D01*
%TO.C,C9*%
X2833333Y268892857D02*
X2785714Y268845238D01*
X2642857Y268797619D01*
X2547619Y268797619D01*
X2404761Y268845238D01*
X2309523Y268940476D01*
X2261904Y269035714D01*
X2214285Y269226190D01*
X2214285Y269369047D01*
X2261904Y269559523D01*
X2309523Y269654761D01*
X2404761Y269750000D01*
X2547619Y269797619D01*
X2642857Y269797619D01*
X2785714Y269750000D01*
X2833333Y269702380D01*
X3309523Y268797619D02*
X3500000Y268797619D01*
X3595238Y268845238D01*
X3642857Y268892857D01*
X3738095Y269035714D01*
X3785714Y269226190D01*
X3785714Y269607142D01*
X3738095Y269702380D01*
X3690476Y269750000D01*
X3595238Y269797619D01*
X3404761Y269797619D01*
X3309523Y269750000D01*
X3261904Y269702380D01*
X3214285Y269607142D01*
X3214285Y269369047D01*
X3261904Y269273809D01*
X3309523Y269226190D01*
X3404761Y269178571D01*
X3595238Y269178571D01*
X3690476Y269226190D01*
X3738095Y269273809D01*
X3785714Y269369047D01*
%TO.C,C18*%
X1857142Y52642857D02*
X1809523Y52595238D01*
X1666666Y52547619D01*
X1571428Y52547619D01*
X1428571Y52595238D01*
X1333333Y52690476D01*
X1285714Y52785714D01*
X1238095Y52976190D01*
X1238095Y53119047D01*
X1285714Y53309523D01*
X1333333Y53404761D01*
X1428571Y53500000D01*
X1571428Y53547619D01*
X1666666Y53547619D01*
X1809523Y53500000D01*
X1857142Y53452380D01*
X2809523Y52547619D02*
X2238095Y52547619D01*
X2523809Y52547619D02*
X2523809Y53547619D01*
X2428571Y53404761D01*
X2333333Y53309523D01*
X2238095Y53261904D01*
X3380952Y53119047D02*
X3285714Y53166666D01*
X3238095Y53214285D01*
X3190476Y53309523D01*
X3190476Y53357142D01*
X3238095Y53452380D01*
X3285714Y53500000D01*
X3380952Y53547619D01*
X3571428Y53547619D01*
X3666666Y53500000D01*
X3714285Y53452380D01*
X3761904Y53357142D01*
X3761904Y53309523D01*
X3714285Y53214285D01*
X3666666Y53166666D01*
X3571428Y53119047D01*
X3380952Y53119047D01*
X3285714Y53071428D01*
X3238095Y53023809D01*
X3190476Y52928571D01*
X3190476Y52738095D01*
X3238095Y52642857D01*
X3285714Y52595238D01*
X3380952Y52547619D01*
X3571428Y52547619D01*
X3666666Y52595238D01*
X3714285Y52642857D01*
X3761904Y52738095D01*
X3761904Y52928571D01*
X3714285Y53023809D01*
X3666666Y53071428D01*
X3571428Y53119047D01*
%TO.C,C11*%
X-142857Y268892857D02*
X-190476Y268845238D01*
X-333333Y268797619D01*
X-428571Y268797619D01*
X-571428Y268845238D01*
X-666666Y268940476D01*
X-714285Y269035714D01*
X-761904Y269226190D01*
X-761904Y269369047D01*
X-714285Y269559523D01*
X-666666Y269654761D01*
X-571428Y269750000D01*
X-428571Y269797619D01*
X-333333Y269797619D01*
X-190476Y269750000D01*
X-142857Y269702380D01*
X809523Y268797619D02*
X238095Y268797619D01*
X523809Y268797619D02*
X523809Y269797619D01*
X428571Y269654761D01*
X333333Y269559523D01*
X238095Y269511904D01*
X1761904Y268797619D02*
X1190476Y268797619D01*
X1476190Y268797619D02*
X1476190Y269797619D01*
X1380952Y269654761D01*
X1285714Y269559523D01*
X1190476Y269511904D01*
%TO.C,MK1*%
X-2309523Y36547619D02*
X-2309523Y37547619D01*
X-1976190Y36833333D01*
X-1642857Y37547619D01*
X-1642857Y36547619D01*
X-1166666Y36547619D02*
X-1166666Y37547619D01*
X-595238Y36547619D02*
X-1023809Y37119047D01*
X-595238Y37547619D02*
X-1166666Y36976190D01*
X357142Y36547619D02*
X-214285Y36547619D01*
X71428Y36547619D02*
X71428Y37547619D01*
X-23809Y37404761D01*
X-119047Y37309523D01*
X-214285Y37261904D01*
%TO.C,C15*%
X2607142Y487392857D02*
X2559523Y487345238D01*
X2416666Y487297619D01*
X2321428Y487297619D01*
X2178571Y487345238D01*
X2083333Y487440476D01*
X2035714Y487535714D01*
X1988095Y487726190D01*
X1988095Y487869047D01*
X2035714Y488059523D01*
X2083333Y488154761D01*
X2178571Y488250000D01*
X2321428Y488297619D01*
X2416666Y488297619D01*
X2559523Y488250000D01*
X2607142Y488202380D01*
X3559523Y487297619D02*
X2988095Y487297619D01*
X3273809Y487297619D02*
X3273809Y488297619D01*
X3178571Y488154761D01*
X3083333Y488059523D01*
X2988095Y488011904D01*
X4464285Y488297619D02*
X3988095Y488297619D01*
X3940476Y487821428D01*
X3988095Y487869047D01*
X4083333Y487916666D01*
X4321428Y487916666D01*
X4416666Y487869047D01*
X4464285Y487821428D01*
X4511904Y487726190D01*
X4511904Y487488095D01*
X4464285Y487392857D01*
X4416666Y487345238D01*
X4321428Y487297619D01*
X4083333Y487297619D01*
X3988095Y487345238D01*
X3940476Y487392857D01*
%TO.C,MK6*%
X-2559523Y363797619D02*
X-2559523Y364797619D01*
X-2226190Y364083333D01*
X-1892857Y364797619D01*
X-1892857Y363797619D01*
X-1416666Y363797619D02*
X-1416666Y364797619D01*
X-845238Y363797619D02*
X-1273809Y364369047D01*
X-845238Y364797619D02*
X-1416666Y364226190D01*
X11904Y364797619D02*
X-178571Y364797619D01*
X-273809Y364750000D01*
X-321428Y364702380D01*
X-416666Y364559523D01*
X-464285Y364369047D01*
X-464285Y363988095D01*
X-416666Y363892857D01*
X-369047Y363845238D01*
X-273809Y363797619D01*
X-83333Y363797619D01*
X11904Y363845238D01*
X59523Y363892857D01*
X107142Y363988095D01*
X107142Y364226190D01*
X59523Y364321428D01*
X11904Y364369047D01*
X-83333Y364416666D01*
X-273809Y364416666D01*
X-369047Y364369047D01*
X-416666Y364321428D01*
X-464285Y364226190D01*
%TO.C,MK3*%
X-2559523Y126547619D02*
X-2559523Y127547619D01*
X-2226190Y126833333D01*
X-1892857Y127547619D01*
X-1892857Y126547619D01*
X-1416666Y126547619D02*
X-1416666Y127547619D01*
X-845238Y126547619D02*
X-1273809Y127119047D01*
X-845238Y127547619D02*
X-1416666Y126976190D01*
X-511904Y127547619D02*
X107142Y127547619D01*
X-226190Y127166666D01*
X-83333Y127166666D01*
X11904Y127119047D01*
X59523Y127071428D01*
X107142Y126976190D01*
X107142Y126738095D01*
X59523Y126642857D01*
X11904Y126595238D01*
X-83333Y126547619D01*
X-369047Y126547619D01*
X-464285Y126595238D01*
X-511904Y126642857D01*
%TO.C,R2*%
X333333Y70797619D02*
X0Y71273809D01*
X-238095Y70797619D02*
X-238095Y71797619D01*
X142857Y71797619D01*
X238095Y71750000D01*
X285714Y71702380D01*
X333333Y71607142D01*
X333333Y71464285D01*
X285714Y71369047D01*
X238095Y71321428D01*
X142857Y71273809D01*
X-238095Y71273809D01*
X714285Y71702380D02*
X761904Y71750000D01*
X857142Y71797619D01*
X1095238Y71797619D01*
X1190476Y71750000D01*
X1238095Y71702380D01*
X1285714Y71607142D01*
X1285714Y71511904D01*
X1238095Y71369047D01*
X666666Y70797619D01*
X1285714Y70797619D01*
%TO.C,U1*%
X-3261904Y55997619D02*
X-3261904Y55188095D01*
X-3214285Y55092857D01*
X-3166666Y55045238D01*
X-3071428Y54997619D01*
X-2880952Y54997619D01*
X-2785714Y55045238D01*
X-2738095Y55092857D01*
X-2690476Y55188095D01*
X-2690476Y55997619D01*
X-1690476Y54997619D02*
X-2261904Y54997619D01*
X-1976190Y54997619D02*
X-1976190Y55997619D01*
X-2071428Y55854761D01*
X-2166666Y55759523D01*
X-2261904Y55711904D01*
%TO.C,C14*%
X2107142Y627392857D02*
X2059523Y627345238D01*
X1916666Y627297619D01*
X1821428Y627297619D01*
X1678571Y627345238D01*
X1583333Y627440476D01*
X1535714Y627535714D01*
X1488095Y627726190D01*
X1488095Y627869047D01*
X1535714Y628059523D01*
X1583333Y628154761D01*
X1678571Y628250000D01*
X1821428Y628297619D01*
X1916666Y628297619D01*
X2059523Y628250000D01*
X2107142Y628202380D01*
X3059523Y627297619D02*
X2488095Y627297619D01*
X2773809Y627297619D02*
X2773809Y628297619D01*
X2678571Y628154761D01*
X2583333Y628059523D01*
X2488095Y628011904D01*
X3916666Y627964285D02*
X3916666Y627297619D01*
X3678571Y628345238D02*
X3440476Y627630952D01*
X4059523Y627630952D01*
%TO.C,C10*%
X-642857Y366142857D02*
X-690476Y366095238D01*
X-833333Y366047619D01*
X-928571Y366047619D01*
X-1071428Y366095238D01*
X-1166666Y366190476D01*
X-1214285Y366285714D01*
X-1261904Y366476190D01*
X-1261904Y366619047D01*
X-1214285Y366809523D01*
X-1166666Y366904761D01*
X-1071428Y367000000D01*
X-928571Y367047619D01*
X-833333Y367047619D01*
X-690476Y367000000D01*
X-642857Y366952380D01*
X309523Y366047619D02*
X-261904Y366047619D01*
X23809Y366047619D02*
X23809Y367047619D01*
X-71428Y366904761D01*
X-166666Y366809523D01*
X-261904Y366761904D01*
X928571Y367047619D02*
X1023809Y367047619D01*
X1119047Y367000000D01*
X1166666Y366952380D01*
X1214285Y366857142D01*
X1261904Y366666666D01*
X1261904Y366428571D01*
X1214285Y366238095D01*
X1166666Y366142857D01*
X1119047Y366095238D01*
X1023809Y366047619D01*
X928571Y366047619D01*
X833333Y366095238D01*
X785714Y366142857D01*
X738095Y366238095D01*
X690476Y366428571D01*
X690476Y366666666D01*
X738095Y366857142D01*
X785714Y366952380D01*
X833333Y367000000D01*
X928571Y367047619D01*
%TO.C,C6*%
X583333Y128392857D02*
X535714Y128345238D01*
X392857Y128297619D01*
X297619Y128297619D01*
X154761Y128345238D01*
X59523Y128440476D01*
X11904Y128535714D01*
X-35714Y128726190D01*
X-35714Y128869047D01*
X11904Y129059523D01*
X59523Y129154761D01*
X154761Y129250000D01*
X297619Y129297619D01*
X392857Y129297619D01*
X535714Y129250000D01*
X583333Y129202380D01*
X1440476Y129297619D02*
X1250000Y129297619D01*
X1154761Y129250000D01*
X1107142Y129202380D01*
X1011904Y129059523D01*
X964285Y128869047D01*
X964285Y128488095D01*
X1011904Y128392857D01*
X1059523Y128345238D01*
X1154761Y128297619D01*
X1345238Y128297619D01*
X1440476Y128345238D01*
X1488095Y128392857D01*
X1535714Y128488095D01*
X1535714Y128726190D01*
X1488095Y128821428D01*
X1440476Y128869047D01*
X1345238Y128916666D01*
X1154761Y128916666D01*
X1059523Y128869047D01*
X1011904Y128821428D01*
X964285Y128726190D01*
D12*
%TO.C,C13*%
X1360000Y485872164D02*
X1360000Y486087836D01*
X640000Y485872164D02*
X640000Y486087836D01*
%TO.C,C5*%
X1360000Y189392164D02*
X1360000Y189607836D01*
X640000Y189392164D02*
X640000Y189607836D01*
%TO.C,C8*%
X1640000Y189392164D02*
X1640000Y189607836D01*
X2360000Y189392164D02*
X2360000Y189607836D01*
%TO.C,C16*%
X2390000Y635107836D02*
X2390000Y634892164D01*
X3110000Y635107836D02*
X3110000Y634892164D01*
%TO.C,C7*%
X1640000Y126892164D02*
X1640000Y127107836D01*
X2360000Y126892164D02*
X2360000Y127107836D01*
%TO.C,R7*%
X2096359Y480120000D02*
X2403641Y480120000D01*
X2096359Y480880000D02*
X2403641Y480880000D01*
%TO.C,MK2*%
X2100000Y76025000D02*
X2100000Y75525000D01*
X-2100000Y75600000D02*
X-2100000Y76100000D01*
X2100000Y73400000D02*
X2100000Y72900000D01*
X1600000Y72900000D02*
X2100000Y72900000D01*
X-1600000Y72900000D02*
X-2100000Y72900000D01*
X-2100000Y73400000D02*
X-2100000Y72900000D01*
X-1600000Y76100000D02*
X-2100000Y76100000D01*
%TO.C,MK7*%
X-1600000Y484600000D02*
X-2100000Y484600000D01*
X-2100000Y481900000D02*
X-2100000Y481400000D01*
X2100000Y484525000D02*
X2100000Y484025000D01*
X2100000Y481900000D02*
X2100000Y481400000D01*
X-1600000Y481400000D02*
X-2100000Y481400000D01*
X-2100000Y484100000D02*
X-2100000Y484600000D01*
X1600000Y481400000D02*
X2100000Y481400000D01*
%TO.C,C3*%
X2360000Y36892164D02*
X2360000Y37107836D01*
X1640000Y36892164D02*
X1640000Y37107836D01*
%TO.C,R3*%
X2596359Y120880000D02*
X2903641Y120880000D01*
X2596359Y120120000D02*
X2903641Y120120000D01*
%TO.C,R8*%
X1403641Y631620000D02*
X1096359Y631620000D01*
X1403641Y632380000D02*
X1096359Y632380000D01*
%TO.C,MK4*%
X2100000Y188304000D02*
X2100000Y187804000D01*
X-1600000Y185179000D02*
X-2100000Y185179000D01*
X1600000Y185179000D02*
X2100000Y185179000D01*
X-2100000Y185679000D02*
X-2100000Y185179000D01*
X-2100000Y187879000D02*
X-2100000Y188379000D01*
X-1600000Y188379000D02*
X-2100000Y188379000D01*
X2100000Y185679000D02*
X2100000Y185179000D01*
%TO.C,C4*%
X1640000Y76892164D02*
X1640000Y77107836D01*
X2360000Y76892164D02*
X2360000Y77107836D01*
%TO.C,C12*%
X2360000Y364392164D02*
X2360000Y364607836D01*
X1640000Y364392164D02*
X1640000Y364607836D01*
%TO.C,MK8*%
X-1600000Y636100000D02*
X-2100000Y636100000D01*
X2100000Y636025000D02*
X2100000Y635525000D01*
X-2100000Y633400000D02*
X-2100000Y632900000D01*
X2100000Y633400000D02*
X2100000Y632900000D01*
X1600000Y632900000D02*
X2100000Y632900000D01*
X-2100000Y635600000D02*
X-2100000Y636100000D01*
X-1600000Y632900000D02*
X-2100000Y632900000D01*
%TO.C,C2*%
X1360000Y36892164D02*
X1360000Y37107836D01*
X640000Y36892164D02*
X640000Y37107836D01*
%TO.C,MK5*%
X2100000Y266025000D02*
X2100000Y265525000D01*
X-2100000Y265600000D02*
X-2100000Y266100000D01*
X-1600000Y266100000D02*
X-2100000Y266100000D01*
X1600000Y262900000D02*
X2100000Y262900000D01*
X-2100000Y263400000D02*
X-2100000Y262900000D01*
X2100000Y263400000D02*
X2100000Y262900000D01*
X-1600000Y262900000D02*
X-2100000Y262900000D01*
%TO.C,C1*%
X1360000Y76892164D02*
X1360000Y77107836D01*
X640000Y76892164D02*
X640000Y77107836D01*
%TO.C,R6*%
X1403641Y358120000D02*
X1096359Y358120000D01*
X1403641Y358880000D02*
X1096359Y358880000D01*
%TO.C,R9*%
X-1096359Y58130000D02*
X-1403641Y58130000D01*
X-1096359Y57370000D02*
X-1403641Y57370000D01*
%TO.C,R4*%
X2596359Y183880000D02*
X2903641Y183880000D01*
X2596359Y183120000D02*
X2903641Y183120000D01*
%TO.C,R5*%
X2846359Y260870000D02*
X3153641Y260870000D01*
X2846359Y261630000D02*
X3153641Y261630000D01*
%TO.C,R1*%
X2620000Y36846359D02*
X2620000Y37153641D01*
X3380000Y36846359D02*
X3380000Y37153641D01*
%TO.C,C17*%
X-117836Y51590000D02*
X97836Y51590000D01*
X-117836Y52310000D02*
X97836Y52310000D01*
%TO.C,C9*%
X1640000Y267392164D02*
X1640000Y267607836D01*
X2360000Y267392164D02*
X2360000Y267607836D01*
%TO.C,C18*%
X-107836Y53360000D02*
X107836Y53360000D01*
X-107836Y52640000D02*
X107836Y52640000D01*
%TO.C,C11*%
X640000Y267392164D02*
X640000Y267607836D01*
X1360000Y267392164D02*
X1360000Y267607836D01*
%TO.C,MK1*%
X2100000Y33400000D02*
X2100000Y32900000D01*
X-2100000Y33400000D02*
X-2100000Y32900000D01*
X-1600000Y36100000D02*
X-2100000Y36100000D01*
X2100000Y36025000D02*
X2100000Y35525000D01*
X-2100000Y35600000D02*
X-2100000Y36100000D01*
X1600000Y32900000D02*
X2100000Y32900000D01*
X-1600000Y32900000D02*
X-2100000Y32900000D01*
%TO.C,C15*%
X2360000Y485872164D02*
X2360000Y486087836D01*
X1640000Y485872164D02*
X1640000Y486087836D01*
%TO.C,MK6*%
X1600000Y360150000D02*
X2100000Y360150000D01*
X-2100000Y360650000D02*
X-2100000Y360150000D01*
X2100000Y360650000D02*
X2100000Y360150000D01*
X-1600000Y360150000D02*
X-2100000Y360150000D01*
X2100000Y363275000D02*
X2100000Y362775000D01*
X-2100000Y362850000D02*
X-2100000Y363350000D01*
X-1600000Y363350000D02*
X-2100000Y363350000D01*
%TO.C,MK3*%
X-1600000Y126100000D02*
X-2100000Y126100000D01*
X-2100000Y125600000D02*
X-2100000Y126100000D01*
X-1600000Y122900000D02*
X-2100000Y122900000D01*
X2100000Y126025000D02*
X2100000Y125525000D01*
X-2100000Y123400000D02*
X-2100000Y122900000D01*
X1600000Y122900000D02*
X2100000Y122900000D01*
X2100000Y123400000D02*
X2100000Y122900000D01*
%TO.C,R2*%
X2346359Y71630000D02*
X2653641Y71630000D01*
X2346359Y70870000D02*
X2653641Y70870000D01*
%TO.C,U1*%
X510000Y53890000D02*
X-290000Y53890000D01*
X510000Y53890000D02*
X2310000Y53890000D01*
X510000Y57010000D02*
X-290000Y57010000D01*
X510000Y57010000D02*
X1310000Y57010000D01*
%TO.C,C14*%
X2390000Y631837836D02*
X2390000Y631622164D01*
X3110000Y631837836D02*
X3110000Y631622164D01*
%TO.C,C10*%
X1360000Y364392164D02*
X1360000Y364607836D01*
X640000Y364392164D02*
X640000Y364607836D01*
%TO.C,C6*%
X1360000Y126892164D02*
X1360000Y127107836D01*
X640000Y126892164D02*
X640000Y127107836D01*
%TD*%
M02*
