%TF.GenerationSoftware,KiCad,Pcbnew,(6.0.9)*%
%TF.CreationDate,2022-11-25T10:34:14-05:00*%
%TF.ProjectId,arm,61726d2e-6b69-4636-9164-5f7063625858,rev?*%
%TF.SameCoordinates,Original*%
%TF.FileFunction,Soldermask,Bot*%
%TF.FilePolarity,Negative*%
%FSLAX46Y46*%
G04 Gerber Fmt 4.6, Leading zero omitted, Abs format (unit mm)*
G04 Created by KiCad (PCBNEW (6.0.9)) date 2022-11-25 10:34:14*
%MOMM*%
%LPD*%
G01*
G04 APERTURE LIST*
%ADD10C,0.120000*%
%ADD11C,3.200000*%
%ADD12C,0.010000*%
%ADD13R,1.350000X1.350000*%
%ADD14O,1.350000X1.350000*%
%ADD15R,1.700000X1.700000*%
%ADD16O,1.700000X1.700000*%
G04 APERTURE END LIST*
%TO.C,REF\u002A\u002A*%
G36*
X21642Y308000117D02*
G01*
X-6977949Y307924371D01*
X-7021232Y311924137D01*
X-21642Y311999883D01*
X21642Y308000117D01*
G37*
D10*
X21642Y308000117D02*
X-6977949Y307924371D01*
X-7021232Y311924137D01*
X-21642Y311999883D01*
X21642Y308000117D01*
G36*
X7077313Y421706351D02*
G01*
X6910508Y417709831D01*
X-83403Y418001740D01*
X83403Y421998260D01*
X7077313Y421706351D01*
G37*
X7077313Y421706351D02*
X6910508Y417709831D01*
X-83403Y418001740D01*
X83403Y421998260D01*
X7077313Y421706351D01*
G36*
X126278Y553003991D02*
G01*
X-6859755Y552562018D01*
X-7112311Y556554037D01*
X-126278Y556996009D01*
X126278Y553003991D01*
G37*
X126278Y553003991D02*
X-6859755Y552562018D01*
X-7112311Y556554037D01*
X-126278Y556996009D01*
X126278Y553003991D01*
G36*
X7277376Y320199512D02*
G01*
X6284307Y316324746D01*
X-496534Y318062617D01*
X496534Y321937383D01*
X7277376Y320199512D01*
G37*
X7277376Y320199512D02*
X6284307Y316324746D01*
X-496534Y318062617D01*
X496534Y321937383D01*
X7277376Y320199512D01*
G36*
X7257011Y565579474D02*
G01*
X6467750Y561658114D01*
X-394630Y563039320D01*
X394630Y566960680D01*
X7257011Y565579474D01*
G37*
X7257011Y565579474D02*
X6467750Y561658114D01*
X-394630Y563039320D01*
X394630Y566960680D01*
X7257011Y565579474D01*
G36*
X436968Y428048319D02*
G01*
X-6393916Y426518932D01*
X-7267852Y430422294D01*
X-436968Y431951681D01*
X436968Y428048319D01*
G37*
X436968Y428048319D02*
X-6393916Y426518932D01*
X-7267852Y430422294D01*
X-436968Y431951681D01*
X436968Y428048319D01*
%TD*%
D11*
%TO.C,H1*%
X0Y46000000D03*
%TD*%
%TO.C,H2*%
X250000Y85000000D03*
%TD*%
D12*
%TO.C,REF\u002A\u002A*%
X-399977Y309995672D03*
X-3499795Y309962127D03*
%TD*%
%TO.C,REF\u002A\u002A*%
X3496955Y419854046D03*
X399652Y419983319D03*
%TD*%
%TO.C,REF\u002A\u002A*%
X-3493017Y554779014D03*
X-399202Y554974744D03*
%TD*%
%TO.C,REF\u002A\u002A*%
X387477Y319900693D03*
X3390421Y319131065D03*
%TD*%
%TO.C,REF\u002A\u002A*%
X3431190Y564309397D03*
X392136Y564921074D03*
%TD*%
%TO.C,REF\u002A\u002A*%
X-3415442Y429235306D03*
X-390336Y429912606D03*
%TD*%
D13*
%TO.C,J1*%
X3000000Y41000000D03*
D14*
X3000000Y39000000D03*
X1000000Y41000000D03*
X1000000Y39000000D03*
X-1000000Y41000000D03*
X-1000000Y39000000D03*
X-3000000Y41000000D03*
X-3000000Y39000000D03*
%TD*%
D15*
%TO.C,J2*%
X1250000Y68750000D03*
D16*
X-1290000Y68750000D03*
X1250000Y66210000D03*
X-1290000Y66210000D03*
X1250000Y63670000D03*
X-1290000Y63670000D03*
X1250000Y61130000D03*
X-1290000Y61130000D03*
%TD*%
M02*
