%TF.GenerationSoftware,KiCad,Pcbnew,(6.0.9)*%
%TF.CreationDate,2022-11-25T10:34:14-05:00*%
%TF.ProjectId,arm,61726d2e-6b69-4636-9164-5f7063625858,rev?*%
%TF.SameCoordinates,Original*%
%TF.FileFunction,Legend,Bot*%
%TF.FilePolarity,Positive*%
%FSLAX46Y46*%
G04 Gerber Fmt 4.6, Leading zero omitted, Abs format (unit mm)*
G04 Created by KiCad (PCBNEW (6.0.9)) date 2022-11-25 10:34:14*
%MOMM*%
%LPD*%
G01*
G04 APERTURE LIST*
%ADD10C,0.300000*%
%ADD11C,0.150000*%
%ADD12C,0.120000*%
G04 APERTURE END LIST*
D10*
X-705238Y119916666D02*
X-2705238Y119916666D01*
X-2705238Y119154761D01*
X-2609999Y118964285D01*
X-2514761Y118869047D01*
X-2324285Y118773809D01*
X-2038571Y118773809D01*
X-1848095Y118869047D01*
X-1752857Y118964285D01*
X-1657619Y119154761D01*
X-1657619Y119916666D01*
X-705238Y117916666D02*
X-2705238Y117916666D01*
X-705238Y117059523D02*
X-1752857Y117059523D01*
X-1943333Y117154761D01*
X-2038571Y117345238D01*
X-2038571Y117630952D01*
X-1943333Y117821428D01*
X-1848095Y117916666D01*
X-705238Y115250000D02*
X-1752857Y115250000D01*
X-1943333Y115345238D01*
X-2038571Y115535714D01*
X-2038571Y115916666D01*
X-1943333Y116107142D01*
X-800476Y115250000D02*
X-705238Y115440476D01*
X-705238Y115916666D01*
X-800476Y116107142D01*
X-990952Y116202380D01*
X-1181428Y116202380D01*
X-1371904Y116107142D01*
X-1467142Y115916666D01*
X-1467142Y115440476D01*
X-1562380Y115250000D01*
X-800476Y114392857D02*
X-705238Y114202380D01*
X-705238Y113821428D01*
X-800476Y113630952D01*
X-990952Y113535714D01*
X-1086190Y113535714D01*
X-1276666Y113630952D01*
X-1371904Y113821428D01*
X-1371904Y114107142D01*
X-1467142Y114297619D01*
X-1657619Y114392857D01*
X-1752857Y114392857D01*
X-1943333Y114297619D01*
X-2038571Y114107142D01*
X-2038571Y113821428D01*
X-1943333Y113630952D01*
X-800476Y111916666D02*
X-705238Y112107142D01*
X-705238Y112488095D01*
X-800476Y112678571D01*
X-990952Y112773809D01*
X-1752857Y112773809D01*
X-1943333Y112678571D01*
X-2038571Y112488095D01*
X-2038571Y112107142D01*
X-1943333Y111916666D01*
X-1752857Y111821428D01*
X-1562380Y111821428D01*
X-1371904Y112773809D01*
X-1276666Y109535714D02*
X-1276666Y108583333D01*
X-705238Y109726190D02*
X-2705238Y109059523D01*
X-705238Y108392857D01*
X-705238Y107726190D02*
X-2038571Y107726190D01*
X-1657619Y107726190D02*
X-1848095Y107630952D01*
X-1943333Y107535714D01*
X-2038571Y107345238D01*
X-2038571Y107154761D01*
X-705238Y106488095D02*
X-2038571Y106488095D01*
X-1657619Y106488095D02*
X-1848095Y106392857D01*
X-1943333Y106297619D01*
X-2038571Y106107142D01*
X-2038571Y105916666D01*
X-705238Y104392857D02*
X-1752857Y104392857D01*
X-1943333Y104488095D01*
X-2038571Y104678571D01*
X-2038571Y105059523D01*
X-1943333Y105250000D01*
X-800476Y104392857D02*
X-705238Y104583333D01*
X-705238Y105059523D01*
X-800476Y105250000D01*
X-990952Y105345238D01*
X-1181428Y105345238D01*
X-1371904Y105250000D01*
X-1467142Y105059523D01*
X-1467142Y104583333D01*
X-1562380Y104392857D01*
X-2038571Y103630952D02*
X-705238Y103154761D01*
X-2038571Y102678571D02*
X-705238Y103154761D01*
X-229047Y103345238D01*
X-133809Y103440476D01*
X-38571Y103630952D01*
X-1276666Y100488095D02*
X-1276666Y99535714D01*
X-705238Y100678571D02*
X-2705238Y100011904D01*
X-705238Y99345238D01*
X-705238Y98678571D02*
X-2038571Y98678571D01*
X-1657619Y98678571D02*
X-1848095Y98583333D01*
X-1943333Y98488095D01*
X-2038571Y98297619D01*
X-2038571Y98107142D01*
X-705238Y97440476D02*
X-2038571Y97440476D01*
X-1848095Y97440476D02*
X-1943333Y97345238D01*
X-2038571Y97154761D01*
X-2038571Y96869047D01*
X-1943333Y96678571D01*
X-1752857Y96583333D01*
X-705238Y96583333D01*
X-1752857Y96583333D02*
X-1943333Y96488095D01*
X-2038571Y96297619D01*
X-2038571Y96011904D01*
X-1943333Y95821428D01*
X-1752857Y95726190D01*
X-705238Y95726190D01*
X-2705238Y93535714D02*
X-705238Y92869047D01*
X-2705238Y92202380D01*
X-705238Y90488095D02*
X-705238Y91630952D01*
X-705238Y91059523D02*
X-2705238Y91059523D01*
X-2419523Y91250000D01*
X-2229047Y91440476D01*
X-2133809Y91630952D01*
X1467142Y116059523D02*
X1562380Y115773809D01*
X1657619Y115678571D01*
X1848095Y115583333D01*
X2133809Y115583333D01*
X2324285Y115678571D01*
X2419523Y115773809D01*
X2514761Y115964285D01*
X2514761Y116726190D01*
X514761Y116726190D01*
X514761Y116059523D01*
X610000Y115869047D01*
X705238Y115773809D01*
X895714Y115678571D01*
X1086190Y115678571D01*
X1276666Y115773809D01*
X1371904Y115869047D01*
X1467142Y116059523D01*
X1467142Y116726190D01*
X2419523Y113964285D02*
X2514761Y114154761D01*
X2514761Y114535714D01*
X2419523Y114726190D01*
X2229047Y114821428D01*
X1467142Y114821428D01*
X1276666Y114726190D01*
X1181428Y114535714D01*
X1181428Y114154761D01*
X1276666Y113964285D01*
X1467142Y113869047D01*
X1657619Y113869047D01*
X1848095Y114821428D01*
X1181428Y113011904D02*
X2514761Y113011904D01*
X1371904Y113011904D02*
X1276666Y112916666D01*
X1181428Y112726190D01*
X1181428Y112440476D01*
X1276666Y112250000D01*
X1467142Y112154761D01*
X2514761Y112154761D01*
X514761Y109869047D02*
X2514761Y109392857D01*
X1086190Y109011904D01*
X2514761Y108630952D01*
X514761Y108154761D01*
X2514761Y106535714D02*
X1467142Y106535714D01*
X1276666Y106630952D01*
X1181428Y106821428D01*
X1181428Y107202380D01*
X1276666Y107392857D01*
X2419523Y106535714D02*
X2514761Y106726190D01*
X2514761Y107202380D01*
X2419523Y107392857D01*
X2229047Y107488095D01*
X2038571Y107488095D01*
X1848095Y107392857D01*
X1752857Y107202380D01*
X1752857Y106726190D01*
X1657619Y106535714D01*
X1181428Y105583333D02*
X2514761Y105583333D01*
X1371904Y105583333D02*
X1276666Y105488095D01*
X1181428Y105297619D01*
X1181428Y105011904D01*
X1276666Y104821428D01*
X1467142Y104726190D01*
X2514761Y104726190D01*
X1181428Y102916666D02*
X2800476Y102916666D01*
X2990952Y103011904D01*
X3086190Y103107142D01*
X3181428Y103297619D01*
X3181428Y103583333D01*
X3086190Y103773809D01*
X2419523Y102916666D02*
X2514761Y103107142D01*
X2514761Y103488095D01*
X2419523Y103678571D01*
X2324285Y103773809D01*
X2133809Y103869047D01*
X1562380Y103869047D01*
X1371904Y103773809D01*
X1276666Y103678571D01*
X1181428Y103488095D01*
X1181428Y103107142D01*
X1276666Y102916666D01*
X705238Y100535714D02*
X609999Y100440476D01*
X514761Y100250000D01*
X514761Y99773809D01*
X609999Y99583333D01*
X705238Y99488095D01*
X895714Y99392857D01*
X1086190Y99392857D01*
X1371904Y99488095D01*
X2514761Y100630952D01*
X2514761Y99392857D01*
X514761Y98154761D02*
X514761Y97964285D01*
X609999Y97773809D01*
X705238Y97678571D01*
X895714Y97583333D01*
X1276666Y97488095D01*
X1752857Y97488095D01*
X2133809Y97583333D01*
X2324285Y97678571D01*
X2419523Y97773809D01*
X2514761Y97964285D01*
X2514761Y98154761D01*
X2419523Y98345238D01*
X2324285Y98440476D01*
X2133809Y98535714D01*
X1752857Y98630952D01*
X1276666Y98630952D01*
X895714Y98535714D01*
X705238Y98440476D01*
X609999Y98345238D01*
X514761Y98154761D01*
X705238Y96726190D02*
X609999Y96630952D01*
X514761Y96440476D01*
X514761Y95964285D01*
X609999Y95773809D01*
X705238Y95678571D01*
X895714Y95583333D01*
X1086190Y95583333D01*
X1371904Y95678571D01*
X2514761Y96821428D01*
X2514761Y95583333D01*
X705238Y94821428D02*
X609999Y94726190D01*
X514761Y94535714D01*
X514761Y94059523D01*
X609999Y93869047D01*
X705238Y93773809D01*
X895714Y93678571D01*
X1086190Y93678571D01*
X1371904Y93773809D01*
X2514761Y94916666D01*
X2514761Y93678571D01*
D11*
X-1352619Y527750000D02*
X-1352619Y527178571D01*
X-352619Y527464285D02*
X-1352619Y527464285D01*
X-352619Y526845238D02*
X-1352619Y526845238D01*
X-352619Y526416666D02*
X-876428Y526416666D01*
X-971666Y526464285D01*
X-1019285Y526559523D01*
X-1019285Y526702380D01*
X-971666Y526797619D01*
X-924047Y526845238D01*
X-352619Y525940476D02*
X-1019285Y525940476D01*
X-1352619Y525940476D02*
X-1304999Y525988095D01*
X-1257380Y525940476D01*
X-1304999Y525892857D01*
X-1352619Y525940476D01*
X-1257380Y525940476D01*
X-400238Y525511904D02*
X-352619Y525416666D01*
X-352619Y525226190D01*
X-400238Y525130952D01*
X-495476Y525083333D01*
X-543095Y525083333D01*
X-638333Y525130952D01*
X-685952Y525226190D01*
X-685952Y525369047D01*
X-733571Y525464285D01*
X-828809Y525511904D01*
X-876428Y525511904D01*
X-971666Y525464285D01*
X-1019285Y525369047D01*
X-1019285Y525226190D01*
X-971666Y525130952D01*
X-352619Y523892857D02*
X-1019285Y523892857D01*
X-1352619Y523892857D02*
X-1304999Y523940476D01*
X-1257380Y523892857D01*
X-1304999Y523845238D01*
X-1352619Y523892857D01*
X-1257380Y523892857D01*
X-400238Y523464285D02*
X-352619Y523369047D01*
X-352619Y523178571D01*
X-400238Y523083333D01*
X-495476Y523035714D01*
X-543095Y523035714D01*
X-638333Y523083333D01*
X-685952Y523178571D01*
X-685952Y523321428D01*
X-733571Y523416666D01*
X-828809Y523464285D01*
X-876428Y523464285D01*
X-971666Y523416666D01*
X-1019285Y523321428D01*
X-1019285Y523178571D01*
X-971666Y523083333D01*
X-1019285Y521416666D02*
X-209761Y521416666D01*
X-114523Y521464285D01*
X-66904Y521511904D01*
X-19285Y521607142D01*
X-19285Y521750000D01*
X-66904Y521845238D01*
X-400238Y521416666D02*
X-352619Y521511904D01*
X-352619Y521702380D01*
X-400238Y521797619D01*
X-447857Y521845238D01*
X-543095Y521892857D01*
X-828809Y521892857D01*
X-924047Y521845238D01*
X-971666Y521797619D01*
X-1019285Y521702380D01*
X-1019285Y521511904D01*
X-971666Y521416666D01*
X-400238Y520559523D02*
X-352619Y520654761D01*
X-352619Y520845238D01*
X-400238Y520940476D01*
X-495476Y520988095D01*
X-876428Y520988095D01*
X-971666Y520940476D01*
X-1019285Y520845238D01*
X-1019285Y520654761D01*
X-971666Y520559523D01*
X-876428Y520511904D01*
X-781190Y520511904D01*
X-685952Y520988095D01*
X-1019285Y520226190D02*
X-1019285Y519845238D01*
X-1352619Y520083333D02*
X-495476Y520083333D01*
X-400238Y520035714D01*
X-352619Y519940476D01*
X-352619Y519845238D01*
X-1019285Y519654761D02*
X-1019285Y519273809D01*
X-1352619Y519511904D02*
X-495476Y519511904D01*
X-400238Y519464285D01*
X-352619Y519369047D01*
X-352619Y519273809D01*
X-352619Y518940476D02*
X-1019285Y518940476D01*
X-1352619Y518940476D02*
X-1305000Y518988095D01*
X-1257380Y518940476D01*
X-1305000Y518892857D01*
X-1352619Y518940476D01*
X-1257380Y518940476D01*
X-1019285Y518464285D02*
X-352619Y518464285D01*
X-924047Y518464285D02*
X-971666Y518416666D01*
X-1019285Y518321428D01*
X-1019285Y518178571D01*
X-971666Y518083333D01*
X-876428Y518035714D01*
X-352619Y518035714D01*
X-1019285Y517130952D02*
X-209761Y517130952D01*
X-114523Y517178571D01*
X-66904Y517226190D01*
X-19285Y517321428D01*
X-19285Y517464285D01*
X-66904Y517559523D01*
X-400238Y517130952D02*
X-352619Y517226190D01*
X-352619Y517416666D01*
X-400238Y517511904D01*
X-447857Y517559523D01*
X-543095Y517607142D01*
X-828809Y517607142D01*
X-924047Y517559523D01*
X-971666Y517511904D01*
X-1019285Y517416666D01*
X-1019285Y517226190D01*
X-971666Y517130952D01*
X-352619Y515750000D02*
X-400238Y515845238D01*
X-447857Y515892857D01*
X-543095Y515940476D01*
X-828809Y515940476D01*
X-924047Y515892857D01*
X-971666Y515845238D01*
X-1019285Y515750000D01*
X-1019285Y515607142D01*
X-971666Y515511904D01*
X-924047Y515464285D01*
X-828809Y515416666D01*
X-543095Y515416666D01*
X-447857Y515464285D01*
X-400238Y515511904D01*
X-352619Y515607142D01*
X-352619Y515750000D01*
X-1019285Y514559523D02*
X-352619Y514559523D01*
X-1019285Y514988095D02*
X-495476Y514988095D01*
X-400238Y514940476D01*
X-352619Y514845238D01*
X-352619Y514702380D01*
X-400238Y514607142D01*
X-447857Y514559523D01*
X-1019285Y514226190D02*
X-1019285Y513845238D01*
X-1352619Y514083333D02*
X-495476Y514083333D01*
X-400238Y514035714D01*
X-352619Y513940476D01*
X-352619Y513845238D01*
X-352619Y512607142D02*
X-400238Y512702380D01*
X-447857Y512750000D01*
X-543095Y512797619D01*
X-828809Y512797619D01*
X-924047Y512750000D01*
X-971666Y512702380D01*
X-1019285Y512607142D01*
X-1019285Y512464285D01*
X-971666Y512369047D01*
X-924047Y512321428D01*
X-828809Y512273809D01*
X-543095Y512273809D01*
X-447857Y512321428D01*
X-400238Y512369047D01*
X-352619Y512464285D01*
X-352619Y512607142D01*
X-1019285Y511988095D02*
X-1019285Y511607142D01*
X-352619Y511845238D02*
X-1209761Y511845238D01*
X-1305000Y511797619D01*
X-1352619Y511702380D01*
X-1352619Y511607142D01*
X-352619Y510511904D02*
X-1352619Y510511904D01*
X-352619Y510083333D02*
X-876428Y510083333D01*
X-971666Y510130952D01*
X-1019285Y510226190D01*
X-1019285Y510369047D01*
X-971666Y510464285D01*
X-924047Y510511904D01*
X-352619Y509178571D02*
X-876428Y509178571D01*
X-971666Y509226190D01*
X-1019285Y509321428D01*
X-1019285Y509511904D01*
X-971666Y509607142D01*
X-400238Y509178571D02*
X-352619Y509273809D01*
X-352619Y509511904D01*
X-400238Y509607142D01*
X-495476Y509654761D01*
X-590714Y509654761D01*
X-685952Y509607142D01*
X-733571Y509511904D01*
X-733571Y509273809D01*
X-781190Y509178571D01*
X-1019285Y508702380D02*
X-352619Y508702380D01*
X-924047Y508702380D02*
X-971666Y508654761D01*
X-1019285Y508559523D01*
X-1019285Y508416666D01*
X-971666Y508321428D01*
X-876428Y508273809D01*
X-352619Y508273809D01*
X-352619Y507369047D02*
X-1352619Y507369047D01*
X-400238Y507369047D02*
X-352619Y507464285D01*
X-352619Y507654761D01*
X-400238Y507750000D01*
X-447857Y507797619D01*
X-543095Y507845238D01*
X-828809Y507845238D01*
X-924047Y507797619D01*
X-971666Y507750000D01*
X-1019285Y507654761D01*
X-1019285Y507464285D01*
X-971666Y507369047D01*
X-447857Y506892857D02*
X-400238Y506845238D01*
X-352619Y506892857D01*
X-400238Y506940476D01*
X-447857Y506892857D01*
X-352619Y506892857D01*
X-733571Y506892857D02*
X-1305000Y506940476D01*
X-1352619Y506892857D01*
X-1305000Y506845238D01*
X-733571Y506892857D01*
X-1352619Y506892857D01*
X1257380Y527273809D02*
X257380Y527273809D01*
X1257380Y526702380D01*
X257380Y526702380D01*
X1257380Y526083333D02*
X1209761Y526178571D01*
X1162142Y526226190D01*
X1066904Y526273809D01*
X781190Y526273809D01*
X685952Y526226190D01*
X638333Y526178571D01*
X590714Y526083333D01*
X590714Y525940476D01*
X638333Y525845238D01*
X685952Y525797619D01*
X781190Y525750000D01*
X1066904Y525750000D01*
X1162142Y525797619D01*
X1209761Y525845238D01*
X1257380Y525940476D01*
X1257380Y526083333D01*
X590714Y525416666D02*
X1257380Y525226190D01*
X781190Y525035714D01*
X1257380Y524845238D01*
X590714Y524654761D01*
X590714Y523654761D02*
X590714Y523273809D01*
X257380Y523511904D02*
X1114523Y523511904D01*
X1209761Y523464285D01*
X1257380Y523369047D01*
X1257380Y523273809D01*
X1257380Y522940476D02*
X257380Y522940476D01*
X1257380Y522511904D02*
X733571Y522511904D01*
X638333Y522559523D01*
X590714Y522654761D01*
X590714Y522797619D01*
X638333Y522892857D01*
X685952Y522940476D01*
X1209761Y521654761D02*
X1257380Y521750000D01*
X1257380Y521940476D01*
X1209761Y522035714D01*
X1114523Y522083333D01*
X733571Y522083333D01*
X638333Y522035714D01*
X590714Y521940476D01*
X590714Y521750000D01*
X638333Y521654761D01*
X733571Y521607142D01*
X828809Y521607142D01*
X924047Y522083333D01*
X1257380Y521178571D02*
X590714Y521178571D01*
X781190Y521178571D02*
X685952Y521130952D01*
X638333Y521083333D01*
X590714Y520988095D01*
X590714Y520892857D01*
X1209761Y520178571D02*
X1257380Y520273809D01*
X1257380Y520464285D01*
X1209761Y520559523D01*
X1114523Y520607142D01*
X733571Y520607142D01*
X638333Y520559523D01*
X590714Y520464285D01*
X590714Y520273809D01*
X638333Y520178571D01*
X733571Y520130952D01*
X828809Y520130952D01*
X924047Y520607142D01*
X1257380Y518511904D02*
X733571Y518511904D01*
X638333Y518559523D01*
X590714Y518654761D01*
X590714Y518845238D01*
X638333Y518940476D01*
X1209761Y518511904D02*
X1257380Y518607142D01*
X1257380Y518845238D01*
X1209761Y518940476D01*
X1114523Y518988095D01*
X1019285Y518988095D01*
X924047Y518940476D01*
X876428Y518845238D01*
X876428Y518607142D01*
X828809Y518511904D01*
X1257380Y518035714D02*
X590714Y518035714D01*
X781190Y518035714D02*
X685952Y517988095D01*
X638333Y517940476D01*
X590714Y517845238D01*
X590714Y517750000D01*
X1209761Y517035714D02*
X1257380Y517130952D01*
X1257380Y517321428D01*
X1209761Y517416666D01*
X1114523Y517464285D01*
X733571Y517464285D01*
X638333Y517416666D01*
X590714Y517321428D01*
X590714Y517130952D01*
X638333Y517035714D01*
X733571Y516988095D01*
X828809Y516988095D01*
X924047Y517464285D01*
X352619Y515845238D02*
X304999Y515797619D01*
X257380Y515702380D01*
X257380Y515464285D01*
X304999Y515369047D01*
X352619Y515321428D01*
X447857Y515273809D01*
X543095Y515273809D01*
X685952Y515321428D01*
X1257380Y515892857D01*
X1257380Y515273809D01*
X590714Y514416666D02*
X1257380Y514416666D01*
X209761Y514654761D02*
X924047Y514892857D01*
X924047Y514273809D01*
X1257380Y512988095D02*
X1209761Y513083333D01*
X1162142Y513130952D01*
X1066904Y513178571D01*
X781190Y513178571D01*
X685952Y513130952D01*
X638333Y513083333D01*
X590714Y512988095D01*
X590714Y512845238D01*
X638333Y512750000D01*
X685952Y512702380D01*
X781190Y512654761D01*
X1066904Y512654761D01*
X1162142Y512702380D01*
X1209761Y512750000D01*
X1257380Y512845238D01*
X1257380Y512988095D01*
X590714Y512369047D02*
X590714Y511988095D01*
X1257380Y512226190D02*
X400238Y512226190D01*
X304999Y512178571D01*
X257380Y512083333D01*
X257380Y511988095D01*
X590714Y511035714D02*
X590714Y510654761D01*
X257380Y510892857D02*
X1114523Y510892857D01*
X1209761Y510845238D01*
X1257380Y510750000D01*
X1257380Y510654761D01*
X1257380Y510321428D02*
X257380Y510321428D01*
X1257380Y509892857D02*
X733571Y509892857D01*
X638333Y509940476D01*
X590714Y510035714D01*
X590714Y510178571D01*
X638333Y510273809D01*
X685952Y510321428D01*
X1209761Y509035714D02*
X1257380Y509130952D01*
X1257380Y509321428D01*
X1209761Y509416666D01*
X1114523Y509464285D01*
X733571Y509464285D01*
X638333Y509416666D01*
X590714Y509321428D01*
X590714Y509130952D01*
X638333Y509035714D01*
X733571Y508988095D01*
X828809Y508988095D01*
X924047Y509464285D01*
X1257380Y508559523D02*
X590714Y508559523D01*
X685952Y508559523D02*
X638333Y508511904D01*
X590714Y508416666D01*
X590714Y508273809D01*
X638333Y508178571D01*
X733571Y508130952D01*
X1257380Y508130952D01*
X733571Y508130952D02*
X638333Y508083333D01*
X590714Y507988095D01*
X590714Y507845238D01*
X638333Y507750000D01*
X733571Y507702380D01*
X1257380Y507702380D01*
X1162142Y507226190D02*
X1209761Y507178571D01*
X1257380Y507226190D01*
X1209761Y507273809D01*
X1162142Y507226190D01*
X1257380Y507226190D01*
X876428Y507226190D02*
X304999Y507273809D01*
X257380Y507226190D01*
X304999Y507178571D01*
X876428Y507226190D01*
X257380Y507226190D01*
%TO.C,J1*%
X-2916666Y43797619D02*
X-2916666Y43083333D01*
X-2869047Y42940476D01*
X-2773809Y42845238D01*
X-2630952Y42797619D01*
X-2535714Y42797619D01*
X-3916666Y42797619D02*
X-3345238Y42797619D01*
X-3630952Y42797619D02*
X-3630952Y43797619D01*
X-3535714Y43654761D01*
X-3440476Y43559523D01*
X-3345238Y43511904D01*
%TO.C,J2*%
X313333Y71627619D02*
X313333Y70913333D01*
X360952Y70770476D01*
X456190Y70675238D01*
X599047Y70627619D01*
X694285Y70627619D01*
X-115238Y71532380D02*
X-162857Y71580000D01*
X-258095Y71627619D01*
X-496190Y71627619D01*
X-591428Y71580000D01*
X-639047Y71532380D01*
X-686666Y71437142D01*
X-686666Y71341904D01*
X-639047Y71199047D01*
X-67619Y70627619D01*
X-686666Y70627619D01*
D12*
%TO.C,J1*%
X4060000Y41000000D02*
X4060000Y42060000D01*
X4060000Y40000000D02*
X2000000Y40000000D01*
X2000000Y40000000D02*
X2000000Y42060000D01*
X4060000Y37940000D02*
X4060000Y40000000D01*
X-4060000Y37940000D02*
X-4060000Y42060000D01*
X2000000Y42060000D02*
X-4060000Y42060000D01*
X4060000Y42060000D02*
X3000000Y42060000D01*
X4060000Y37940000D02*
X-4060000Y37940000D01*
%TO.C,J2*%
X-20000Y67480000D02*
X-20000Y70080000D01*
X2580000Y67480000D02*
X2580000Y59800000D01*
X-20000Y70080000D02*
X-2620000Y70080000D01*
X2580000Y59800000D02*
X-2620000Y59800000D01*
X2580000Y68750000D02*
X2580000Y70080000D01*
X2580000Y67480000D02*
X-20000Y67480000D01*
X2580000Y70080000D02*
X1250000Y70080000D01*
X-2620000Y70080000D02*
X-2620000Y59800000D01*
%TD*%
M02*
