%TF.GenerationSoftware,KiCad,Pcbnew,(6.0.9)*%
%TF.CreationDate,2022-11-25T10:34:14-05:00*%
%TF.ProjectId,arm,61726d2e-6b69-4636-9164-5f7063625858,rev?*%
%TF.SameCoordinates,Original*%
%TF.FileFunction,Copper,L4,Bot*%
%TF.FilePolarity,Positive*%
%FSLAX46Y46*%
G04 Gerber Fmt 4.6, Leading zero omitted, Abs format (unit mm)*
G04 Created by KiCad (PCBNEW (6.0.9)) date 2022-11-25 10:34:14*
%MOMM*%
%LPD*%
G01*
G04 APERTURE LIST*
%TA.AperFunction,ComponentPad*%
%ADD10R,1.350000X1.350000*%
%TD*%
%TA.AperFunction,ComponentPad*%
%ADD11O,1.350000X1.350000*%
%TD*%
%TA.AperFunction,ComponentPad*%
%ADD12R,1.700000X1.700000*%
%TD*%
%TA.AperFunction,ComponentPad*%
%ADD13O,1.700000X1.700000*%
%TD*%
%TA.AperFunction,ViaPad*%
%ADD14C,0.800000*%
%TD*%
%TA.AperFunction,Conductor*%
%ADD15C,0.150000*%
%TD*%
G04 APERTURE END LIST*
D10*
%TO.P,J1,1,Pin_1*%
%TO.N,+3.3V*%
X3000000Y41000000D03*
D11*
%TO.P,J1,2,Pin_2*%
%TO.N,/dual mic1/DOUT*%
X3000000Y39000000D03*
%TO.P,J1,3,Pin_3*%
%TO.N,GND*%
X1000000Y41000000D03*
%TO.P,J1,4,Pin_4*%
%TO.N,/dual mic2/DOUT*%
X1000000Y39000000D03*
%TO.P,J1,5,Pin_5*%
%TO.N,/CLK*%
X-1000000Y41000000D03*
%TO.P,J1,6,Pin_6*%
%TO.N,/dual mic3/DOUT*%
X-1000000Y39000000D03*
%TO.P,J1,7,Pin_7*%
%TO.N,GND*%
X-3000000Y41000000D03*
%TO.P,J1,8,Pin_8*%
%TO.N,/dual mic4/DOUT*%
X-3000000Y39000000D03*
%TD*%
D12*
%TO.P,J2,1,Pin_1*%
%TO.N,+3.3V*%
X1250000Y68750000D03*
D13*
%TO.P,J2,2,Pin_2*%
%TO.N,/dual mic1/DOUT*%
X-1290000Y68750000D03*
%TO.P,J2,3,Pin_3*%
%TO.N,GND*%
X1250000Y66210000D03*
%TO.P,J2,4,Pin_4*%
%TO.N,/dual mic2/DOUT*%
X-1290000Y66210000D03*
%TO.P,J2,5,Pin_5*%
%TO.N,/CLK*%
X1250000Y63670000D03*
%TO.P,J2,6,Pin_6*%
%TO.N,/dual mic3/DOUT*%
X-1290000Y63670000D03*
%TO.P,J2,7,Pin_7*%
%TO.N,GND*%
X1250000Y61130000D03*
%TO.P,J2,8,Pin_8*%
%TO.N,/dual mic4/DOUT*%
X-1290000Y61130000D03*
%TD*%
D14*
%TO.N,+3.3V*%
X3000000Y126500000D03*
X3000000Y267000000D03*
X3000000Y189000000D03*
X3750000Y633750000D03*
X3000000Y485500000D03*
X0Y36500000D03*
X3424500Y76500000D03*
X-500000Y51000000D03*
X3000000Y364000497D03*
%TO.N,/dual mic1/DOUT*%
X4000000Y71250000D03*
%TO.N,GND*%
X0Y481000000D03*
X4000000Y479500000D03*
X3000000Y486500000D03*
X-1725000Y75750000D03*
X2500000Y361750000D03*
X-1250000Y561000000D03*
X-1725000Y35750000D03*
X2525000Y34500000D03*
X3000000Y561000000D03*
X2500000Y483000000D03*
X-1750000Y635750000D03*
X25000Y72500000D03*
X3000000Y190000000D03*
X3750000Y433500000D03*
X250000Y544250000D03*
X-3500000Y313500000D03*
X-1725000Y363000000D03*
X-1750000Y484250000D03*
X-1750000Y37000000D03*
X25000Y359750000D03*
X3000000Y127500000D03*
X-2750000Y433500000D03*
X0Y37500000D03*
X-500000Y632250000D03*
X-1725000Y188000000D03*
X-1725000Y125750000D03*
X1780780Y32874795D03*
X25000Y122500000D03*
X2750000Y633500000D03*
X-1725000Y265750000D03*
X3500000Y74500000D03*
X-3500000Y306750000D03*
X25000Y262500000D03*
X-4000000Y544250000D03*
X25000Y184750000D03*
X4250000Y120500000D03*
X-4000000Y483000000D03*
X3000000Y365000000D03*
X2500000Y186750000D03*
X500000Y51000000D03*
X2500000Y264500000D03*
X2750000Y630250000D03*
X3000000Y268000000D03*
X-4000000Y423000000D03*
X2500000Y124500000D03*
X4250000Y183500000D03*
X-4250000Y561000000D03*
%TO.N,/dual mic2/DOUT*%
X2750000Y119500000D03*
%TO.N,/dual mic3/DOUT*%
X3500000Y260000000D03*
%TO.N,/dual mic4/DOUT*%
X-3100000Y62940000D03*
X2750000Y479500000D03*
%TD*%
D15*
%TO.N,/dual mic1/DOUT*%
X4000000Y40000000D02*
X4000000Y49750000D01*
X4000000Y49750000D02*
X4000000Y71250000D01*
X3000000Y39000000D02*
X4000000Y40000000D01*
%TO.N,/dual mic2/DOUT*%
X2750000Y65000000D02*
X2750000Y42650000D01*
X2050000Y41950000D02*
X2050000Y40050000D01*
X2050000Y40050000D02*
X1000000Y39000000D01*
X-80000Y65000000D02*
X2750000Y65000000D01*
X2750000Y42650000D02*
X2050000Y41950000D01*
X2750000Y119500000D02*
X2750000Y65000000D01*
X-1290000Y66210000D02*
X-80000Y65000000D01*
%TO.N,/dual mic3/DOUT*%
X-1290000Y63670000D02*
X-2750000Y65130000D01*
X-2750000Y253750000D02*
X3500000Y260000000D01*
X-2750000Y61850000D02*
X-2750000Y62210000D01*
X-2750000Y42093503D02*
X-2000000Y41343503D01*
X-2750000Y62210000D02*
X-1290000Y63670000D01*
X-2750000Y65130000D02*
X-2750000Y253750000D01*
X-2000000Y40000000D02*
X-1000000Y39000000D01*
X-2000000Y41343503D02*
X-2000000Y40000000D01*
X-2750000Y61850000D02*
X-2750000Y42093503D01*
%TO.N,/dual mic4/DOUT*%
X-3750000Y420000000D02*
X-3750000Y317000000D01*
X-4000000Y302500000D02*
X-4000000Y63600000D01*
X2750000Y426500000D02*
X-3750000Y420000000D01*
X-4000000Y63600000D02*
X-4000000Y40000000D01*
X2750000Y479500000D02*
X2750000Y426500000D01*
X-3750000Y317000000D02*
X1000000Y312250000D01*
X-3760000Y63600000D02*
X-4000000Y63600000D01*
X-4000000Y40000000D02*
X-3000000Y39000000D01*
X1000000Y312250000D02*
X1000000Y307500000D01*
X-3100000Y62940000D02*
X-3760000Y63600000D01*
X1000000Y307500000D02*
X-4000000Y302500000D01*
%TD*%
M02*
