M48
; DRILL file {KiCad (6.0.9)} date Fri 25 Nov 2022 10:34:32 AM EST
; FORMAT={-:-/ absolute / metric / decimal}
; #@! TF.CreationDate,2022-11-25T10:34:32-05:00
; #@! TF.GenerationSoftware,Kicad,Pcbnew,(6.0.9)
; #@! TF.FileFunction,MixedPlating,1,4
FMAT,2
METRIC
; #@! TA.AperFunction,Plated,PTH,ViaDrill
T1C0.400
; #@! TA.AperFunction,Plated,PTH,ComponentDrill
T2C0.800
; #@! TA.AperFunction,Plated,PTH,ComponentDrill
T3C1.000
; #@! TA.AperFunction,NonPlated,NPTH,ComponentDrill
T4C0.800
; #@! TA.AperFunction,NonPlated,NPTH,ComponentDrill
T5C1.650
; #@! TA.AperFunction,NonPlated,NPTH,ComponentDrill
T6C3.200
%
G90
G05
T1
X-4.25Y561.0
X-4.0Y544.25
X-4.0Y483.0
X-4.0Y423.0
X-3.5Y313.5
X-3.5Y306.75
X-3.1Y62.94
X-2.75Y433.5
X-1.75Y635.75
X-1.75Y484.25
X-1.75Y37.0
X-1.725Y363.0
X-1.725Y265.75
X-1.725Y188.0
X-1.725Y125.75
X-1.725Y75.75
X-1.725Y35.75
X-1.25Y561.0
X-0.5Y632.25
X-0.5Y51.0
X0.0Y481.0
X0.0Y37.5
X0.0Y36.5
X0.025Y359.75
X0.025Y262.5
X0.025Y184.75
X0.025Y122.5
X0.025Y72.5
X0.25Y544.25
X0.5Y51.0
X1.781Y32.875
X2.5Y483.0
X2.5Y361.75
X2.5Y264.5
X2.5Y186.75
X2.5Y124.5
X2.525Y34.5
X2.75Y633.5
X2.75Y630.25
X2.75Y479.5
X2.75Y119.5
X3.0Y561.0
X3.0Y486.5
X3.0Y485.5
X3.0Y365.0
X3.0Y364.0
X3.0Y268.0
X3.0Y267.0
X3.0Y190.0
X3.0Y189.0
X3.0Y127.5
X3.0Y126.5
X3.424Y76.5
X3.5Y260.0
X3.5Y74.5
X3.75Y633.75
X3.75Y433.5
X4.0Y479.5
X4.0Y71.25
X4.25Y183.5
X4.25Y120.5
T2
X-3.0Y41.0
X-3.0Y39.0
X-1.0Y41.0
X-1.0Y39.0
X1.0Y41.0
X1.0Y39.0
X3.0Y41.0
X3.0Y39.0
T3
X-1.29Y68.75
X-1.29Y66.21
X-1.29Y63.67
X-1.29Y61.13
X1.25Y68.75
X1.25Y66.21
X1.25Y63.67
X1.25Y61.13
T6
X0.0Y46.0
X0.25Y85.0
T4
G00X-0.391Y309.171
M15
G01X-0.409Y310.821
M16
G05
G00X-0.347Y554.151
M15
G01X-0.451Y555.798
M16
G05
G00X-0.21Y429.108
M15
G01X-0.571Y430.718
M16
G05
G00X0.592Y320.7
M15
G01X0.183Y319.102
M16
G05
G00X0.555Y565.73
M15
G01X0.229Y564.112
M16
G05
G00X0.434Y420.808
M15
G01X0.365Y419.159
M16
G05
T5
G00X-0.825Y309.991
M15
G01X-6.175Y309.933
M16
G05
G00X-0.823Y554.948
M15
G01X-6.163Y554.61
M16
G05
G00X-0.805Y429.82
M15
G01X-6.026Y428.651
M16
G05
G00X0.799Y319.795
M15
G01X5.982Y318.467
M16
G05
G00X0.809Y564.837
M15
G01X6.054Y563.782
M16
G05
G00X0.824Y419.966
M15
G01X6.17Y419.742
M16
G05
T0
M30
