%TF.GenerationSoftware,KiCad,Pcbnew,(6.0.9)*%
%TF.CreationDate,2022-11-25T10:27:36-05:00*%
%TF.ProjectId,strut_1,73747275-745f-4312-9e6b-696361645f70,rev?*%
%TF.SameCoordinates,Original*%
%TF.FileFunction,Legend,Top*%
%TF.FilePolarity,Positive*%
%FSLAX46Y46*%
G04 Gerber Fmt 4.6, Leading zero omitted, Abs format (unit mm)*
G04 Created by KiCad (PCBNEW (6.0.9)) date 2022-11-25 10:27:36*
%MOMM*%
%LPD*%
G01*
G04 APERTURE LIST*
%ADD10C,0.200000*%
%ADD11C,0.150000*%
G04 APERTURE END LIST*
D10*
X26857142Y-721071D02*
X26857142Y778928D01*
X27428571Y778928D01*
X27571428Y707500D01*
X27642857Y636071D01*
X27714285Y493214D01*
X27714285Y278928D01*
X27642857Y136071D01*
X27571428Y64642D01*
X27428571Y-6785D01*
X26857142Y-6785D01*
X28357142Y-721071D02*
X28357142Y778928D01*
X28999999Y-721071D02*
X28999999Y64642D01*
X28928571Y207500D01*
X28785714Y278928D01*
X28571428Y278928D01*
X28428571Y207500D01*
X28357142Y136071D01*
X30357142Y-721071D02*
X30357142Y64642D01*
X30285714Y207500D01*
X30142857Y278928D01*
X29857142Y278928D01*
X29714285Y207500D01*
X30357142Y-649642D02*
X30214285Y-721071D01*
X29857142Y-721071D01*
X29714285Y-649642D01*
X29642857Y-506785D01*
X29642857Y-363928D01*
X29714285Y-221071D01*
X29857142Y-149642D01*
X30214285Y-149642D01*
X30357142Y-78214D01*
X30999999Y-649642D02*
X31142857Y-721071D01*
X31428571Y-721071D01*
X31571428Y-649642D01*
X31642857Y-506785D01*
X31642857Y-435357D01*
X31571428Y-292500D01*
X31428571Y-221071D01*
X31214285Y-221071D01*
X31071428Y-149642D01*
X30999999Y-6785D01*
X30999999Y64642D01*
X31071428Y207500D01*
X31214285Y278928D01*
X31428571Y278928D01*
X31571428Y207500D01*
X32857142Y-649642D02*
X32714285Y-721071D01*
X32428571Y-721071D01*
X32285714Y-649642D01*
X32214285Y-506785D01*
X32214285Y64642D01*
X32285714Y207500D01*
X32428571Y278928D01*
X32714285Y278928D01*
X32857142Y207500D01*
X32928571Y64642D01*
X32928571Y-78214D01*
X32214285Y-221071D01*
X34642857Y-292500D02*
X35357142Y-292500D01*
X34499999Y-721071D02*
X34999999Y778928D01*
X35499999Y-721071D01*
X35999999Y-721071D02*
X35999999Y278928D01*
X35999999Y-6785D02*
X36071428Y136071D01*
X36142857Y207500D01*
X36285714Y278928D01*
X36428571Y278928D01*
X36928571Y-721071D02*
X36928571Y278928D01*
X36928571Y-6785D02*
X36999999Y136071D01*
X37071428Y207500D01*
X37214285Y278928D01*
X37357142Y278928D01*
X38499999Y-721071D02*
X38499999Y64642D01*
X38428571Y207500D01*
X38285714Y278928D01*
X37999999Y278928D01*
X37857142Y207500D01*
X38499999Y-649642D02*
X38357142Y-721071D01*
X37999999Y-721071D01*
X37857142Y-649642D01*
X37785714Y-506785D01*
X37785714Y-363928D01*
X37857142Y-221071D01*
X37999999Y-149642D01*
X38357142Y-149642D01*
X38499999Y-78214D01*
X39071428Y278928D02*
X39428571Y-721071D01*
X39785714Y278928D02*
X39428571Y-721071D01*
X39285714Y-1078214D01*
X39214285Y-1149642D01*
X39071428Y-1221071D01*
X41428571Y-649642D02*
X41642857Y-721071D01*
X41999999Y-721071D01*
X42142857Y-649642D01*
X42214285Y-578214D01*
X42285714Y-435357D01*
X42285714Y-292500D01*
X42214285Y-149642D01*
X42142857Y-78214D01*
X41999999Y-6785D01*
X41714285Y64642D01*
X41571428Y136071D01*
X41499999Y207500D01*
X41428571Y350357D01*
X41428571Y493214D01*
X41499999Y636071D01*
X41571428Y707500D01*
X41714285Y778928D01*
X42071428Y778928D01*
X42285714Y707500D01*
X42928571Y-721071D02*
X42928571Y778928D01*
X43571428Y-721071D02*
X43571428Y64642D01*
X43499999Y207500D01*
X43357142Y278928D01*
X43142857Y278928D01*
X42999999Y207500D01*
X42928571Y136071D01*
X44499999Y-721071D02*
X44357142Y-649642D01*
X44285714Y-578214D01*
X44214285Y-435357D01*
X44214285Y-6785D01*
X44285714Y136071D01*
X44357142Y207500D01*
X44499999Y278928D01*
X44714285Y278928D01*
X44857142Y207500D01*
X44928571Y136071D01*
X44999999Y-6785D01*
X44999999Y-435357D01*
X44928571Y-578214D01*
X44857142Y-649642D01*
X44714285Y-721071D01*
X44499999Y-721071D01*
X45642857Y-721071D02*
X45642857Y278928D01*
X45642857Y-6785D02*
X45714285Y136071D01*
X45785714Y207500D01*
X45928571Y278928D01*
X46071428Y278928D01*
X46357142Y278928D02*
X46928571Y278928D01*
X46571428Y778928D02*
X46571428Y-506785D01*
X46642857Y-649642D01*
X46785714Y-721071D01*
X46928571Y-721071D01*
X48500000Y-649642D02*
X48714285Y-721071D01*
X49071428Y-721071D01*
X49214285Y-649642D01*
X49285714Y-578214D01*
X49357142Y-435357D01*
X49357142Y-292500D01*
X49285714Y-149642D01*
X49214285Y-78214D01*
X49071428Y-6785D01*
X48785714Y64642D01*
X48642857Y136071D01*
X48571428Y207500D01*
X48500000Y350357D01*
X48500000Y493214D01*
X48571428Y636071D01*
X48642857Y707500D01*
X48785714Y778928D01*
X49142857Y778928D01*
X49357142Y707500D01*
X49785714Y278928D02*
X50357142Y278928D01*
X50000000Y778928D02*
X50000000Y-506785D01*
X50071428Y-649642D01*
X50214285Y-721071D01*
X50357142Y-721071D01*
X50857142Y-721071D02*
X50857142Y278928D01*
X50857142Y-6785D02*
X50928571Y136071D01*
X51000000Y207500D01*
X51142857Y278928D01*
X51285714Y278928D01*
X52428571Y278928D02*
X52428571Y-721071D01*
X51785714Y278928D02*
X51785714Y-506785D01*
X51857142Y-649642D01*
X52000000Y-721071D01*
X52214285Y-721071D01*
X52357142Y-649642D01*
X52428571Y-578214D01*
X52928571Y278928D02*
X53500000Y278928D01*
X53142857Y778928D02*
X53142857Y-506785D01*
X53214285Y-649642D01*
X53357142Y-721071D01*
X53500000Y-721071D01*
X54928571Y778928D02*
X55428571Y-721071D01*
X55928571Y778928D01*
X57214285Y-721071D02*
X56357142Y-721071D01*
X56785714Y-721071D02*
X56785714Y778928D01*
X56642857Y564642D01*
X56500000Y421785D01*
X56357142Y350357D01*
X33892857Y-2350357D02*
X34107142Y-2421785D01*
X34178571Y-2493214D01*
X34250000Y-2636071D01*
X34250000Y-2850357D01*
X34178571Y-2993214D01*
X34107142Y-3064642D01*
X33964285Y-3136071D01*
X33392857Y-3136071D01*
X33392857Y-1636071D01*
X33892857Y-1636071D01*
X34035714Y-1707500D01*
X34107142Y-1778928D01*
X34178571Y-1921785D01*
X34178571Y-2064642D01*
X34107142Y-2207500D01*
X34035714Y-2278928D01*
X33892857Y-2350357D01*
X33392857Y-2350357D01*
X35464285Y-3064642D02*
X35321428Y-3136071D01*
X35035714Y-3136071D01*
X34892857Y-3064642D01*
X34821428Y-2921785D01*
X34821428Y-2350357D01*
X34892857Y-2207500D01*
X35035714Y-2136071D01*
X35321428Y-2136071D01*
X35464285Y-2207500D01*
X35535714Y-2350357D01*
X35535714Y-2493214D01*
X34821428Y-2636071D01*
X36178571Y-2136071D02*
X36178571Y-3136071D01*
X36178571Y-2278928D02*
X36250000Y-2207500D01*
X36392857Y-2136071D01*
X36607142Y-2136071D01*
X36750000Y-2207500D01*
X36821428Y-2350357D01*
X36821428Y-3136071D01*
X38535714Y-1636071D02*
X38892857Y-3136071D01*
X39178571Y-2064642D01*
X39464285Y-3136071D01*
X39821428Y-1636071D01*
X41035714Y-3136071D02*
X41035714Y-2350357D01*
X40964285Y-2207500D01*
X40821428Y-2136071D01*
X40535714Y-2136071D01*
X40392857Y-2207500D01*
X41035714Y-3064642D02*
X40892857Y-3136071D01*
X40535714Y-3136071D01*
X40392857Y-3064642D01*
X40321428Y-2921785D01*
X40321428Y-2778928D01*
X40392857Y-2636071D01*
X40535714Y-2564642D01*
X40892857Y-2564642D01*
X41035714Y-2493214D01*
X41750000Y-2136071D02*
X41750000Y-3136071D01*
X41750000Y-2278928D02*
X41821428Y-2207500D01*
X41964285Y-2136071D01*
X42178571Y-2136071D01*
X42321428Y-2207500D01*
X42392857Y-2350357D01*
X42392857Y-3136071D01*
X43750000Y-2136071D02*
X43750000Y-3350357D01*
X43678571Y-3493214D01*
X43607142Y-3564642D01*
X43464285Y-3636071D01*
X43250000Y-3636071D01*
X43107142Y-3564642D01*
X43750000Y-3064642D02*
X43607142Y-3136071D01*
X43321428Y-3136071D01*
X43178571Y-3064642D01*
X43107142Y-2993214D01*
X43035714Y-2850357D01*
X43035714Y-2421785D01*
X43107142Y-2278928D01*
X43178571Y-2207500D01*
X43321428Y-2136071D01*
X43607142Y-2136071D01*
X43750000Y-2207500D01*
X45535714Y-1778928D02*
X45607142Y-1707500D01*
X45750000Y-1636071D01*
X46107142Y-1636071D01*
X46250000Y-1707500D01*
X46321428Y-1778928D01*
X46392857Y-1921785D01*
X46392857Y-2064642D01*
X46321428Y-2278928D01*
X45464285Y-3136071D01*
X46392857Y-3136071D01*
X47321428Y-1636071D02*
X47464285Y-1636071D01*
X47607142Y-1707500D01*
X47678571Y-1778928D01*
X47750000Y-1921785D01*
X47821428Y-2207500D01*
X47821428Y-2564642D01*
X47750000Y-2850357D01*
X47678571Y-2993214D01*
X47607142Y-3064642D01*
X47464285Y-3136071D01*
X47321428Y-3136071D01*
X47178571Y-3064642D01*
X47107142Y-2993214D01*
X47035714Y-2850357D01*
X46964285Y-2564642D01*
X46964285Y-2207500D01*
X47035714Y-1921785D01*
X47107142Y-1778928D01*
X47178571Y-1707500D01*
X47321428Y-1636071D01*
X48392857Y-1778928D02*
X48464285Y-1707500D01*
X48607142Y-1636071D01*
X48964285Y-1636071D01*
X49107142Y-1707500D01*
X49178571Y-1778928D01*
X49250000Y-1921785D01*
X49250000Y-2064642D01*
X49178571Y-2278928D01*
X48321428Y-3136071D01*
X49250000Y-3136071D01*
X49821428Y-1778928D02*
X49892857Y-1707500D01*
X50035714Y-1636071D01*
X50392857Y-1636071D01*
X50535714Y-1707500D01*
X50607142Y-1778928D01*
X50678571Y-1921785D01*
X50678571Y-2064642D01*
X50607142Y-2278928D01*
X49750000Y-3136071D01*
X50678571Y-3136071D01*
D11*
X23523809Y-4952380D02*
X24095238Y-4952380D01*
X23809523Y-5952380D02*
X23809523Y-4952380D01*
X24428571Y-5952380D02*
X24428571Y-5285714D01*
X24428571Y-5476190D02*
X24476190Y-5380952D01*
X24523809Y-5333333D01*
X24619047Y-5285714D01*
X24714285Y-5285714D01*
X25476190Y-5952380D02*
X25476190Y-5428571D01*
X25428571Y-5333333D01*
X25333333Y-5285714D01*
X25142857Y-5285714D01*
X25047619Y-5333333D01*
X25476190Y-5904761D02*
X25380952Y-5952380D01*
X25142857Y-5952380D01*
X25047619Y-5904761D01*
X24999999Y-5809523D01*
X24999999Y-5714285D01*
X25047619Y-5619047D01*
X25142857Y-5571428D01*
X25380952Y-5571428D01*
X25476190Y-5523809D01*
X26380952Y-5904761D02*
X26285714Y-5952380D01*
X26095238Y-5952380D01*
X25999999Y-5904761D01*
X25952380Y-5857142D01*
X25904761Y-5761904D01*
X25904761Y-5476190D01*
X25952380Y-5380952D01*
X25999999Y-5333333D01*
X26095238Y-5285714D01*
X26285714Y-5285714D01*
X26380952Y-5333333D01*
X27190476Y-5904761D02*
X27095238Y-5952380D01*
X26904761Y-5952380D01*
X26809523Y-5904761D01*
X26761904Y-5809523D01*
X26761904Y-5428571D01*
X26809523Y-5333333D01*
X26904761Y-5285714D01*
X27095238Y-5285714D01*
X27190476Y-5333333D01*
X27238095Y-5428571D01*
X27238095Y-5523809D01*
X26761904Y-5619047D01*
X27619047Y-5904761D02*
X27714285Y-5952380D01*
X27904761Y-5952380D01*
X27999999Y-5904761D01*
X28047619Y-5809523D01*
X28047619Y-5761904D01*
X27999999Y-5666666D01*
X27904761Y-5619047D01*
X27761904Y-5619047D01*
X27666666Y-5571428D01*
X27619047Y-5476190D01*
X27619047Y-5428571D01*
X27666666Y-5333333D01*
X27761904Y-5285714D01*
X27904761Y-5285714D01*
X27999999Y-5333333D01*
X28619047Y-5857142D02*
X28666666Y-5904761D01*
X28619047Y-5952380D01*
X28571428Y-5904761D01*
X28619047Y-5857142D01*
X28619047Y-5952380D01*
X28428571Y-5000000D02*
X28523809Y-4952380D01*
X28761904Y-4952380D01*
X28857142Y-5000000D01*
X28904761Y-5095238D01*
X28904761Y-5190476D01*
X28857142Y-5285714D01*
X28809523Y-5333333D01*
X28714285Y-5380952D01*
X28666666Y-5428571D01*
X28619047Y-5523809D01*
X28619047Y-5571428D01*
X29999999Y-4952380D02*
X30238095Y-5952380D01*
X30428571Y-5238095D01*
X30619047Y-5952380D01*
X30857142Y-4952380D01*
X31238095Y-5952380D02*
X31238095Y-4952380D01*
X31666666Y-5952380D02*
X31666666Y-5428571D01*
X31619047Y-5333333D01*
X31523809Y-5285714D01*
X31380952Y-5285714D01*
X31285714Y-5333333D01*
X31238095Y-5380952D01*
X32523809Y-5904761D02*
X32428571Y-5952380D01*
X32238095Y-5952380D01*
X32142857Y-5904761D01*
X32095238Y-5809523D01*
X32095238Y-5428571D01*
X32142857Y-5333333D01*
X32238095Y-5285714D01*
X32428571Y-5285714D01*
X32523809Y-5333333D01*
X32571428Y-5428571D01*
X32571428Y-5523809D01*
X32095238Y-5619047D01*
X32999999Y-5952380D02*
X32999999Y-5285714D01*
X32999999Y-5476190D02*
X33047619Y-5380952D01*
X33095238Y-5333333D01*
X33190476Y-5285714D01*
X33285714Y-5285714D01*
X34000000Y-5904761D02*
X33904761Y-5952380D01*
X33714285Y-5952380D01*
X33619047Y-5904761D01*
X33571428Y-5809523D01*
X33571428Y-5428571D01*
X33619047Y-5333333D01*
X33714285Y-5285714D01*
X33904761Y-5285714D01*
X34000000Y-5333333D01*
X34047619Y-5428571D01*
X34047619Y-5523809D01*
X33571428Y-5619047D01*
X35142857Y-5285714D02*
X35333333Y-5952380D01*
X35523809Y-5476190D01*
X35714285Y-5952380D01*
X35904761Y-5285714D01*
X36666666Y-5904761D02*
X36571428Y-5952380D01*
X36380952Y-5952380D01*
X36285714Y-5904761D01*
X36238095Y-5809523D01*
X36238095Y-5428571D01*
X36285714Y-5333333D01*
X36380952Y-5285714D01*
X36571428Y-5285714D01*
X36666666Y-5333333D01*
X36714285Y-5428571D01*
X36714285Y-5523809D01*
X36238095Y-5619047D01*
X37190476Y-4952380D02*
X37095238Y-5142857D01*
X37619047Y-5952380D02*
X37619047Y-5285714D01*
X37619047Y-5476190D02*
X37666666Y-5380952D01*
X37714285Y-5333333D01*
X37809523Y-5285714D01*
X37904761Y-5285714D01*
X38619047Y-5904761D02*
X38523809Y-5952380D01*
X38333333Y-5952380D01*
X38238095Y-5904761D01*
X38190476Y-5809523D01*
X38190476Y-5428571D01*
X38238095Y-5333333D01*
X38333333Y-5285714D01*
X38523809Y-5285714D01*
X38619047Y-5333333D01*
X38666666Y-5428571D01*
X38666666Y-5523809D01*
X38190476Y-5619047D01*
X40285714Y-5285714D02*
X40285714Y-6095238D01*
X40238095Y-6190476D01*
X40190476Y-6238095D01*
X40095238Y-6285714D01*
X39952380Y-6285714D01*
X39857142Y-6238095D01*
X40285714Y-5904761D02*
X40190476Y-5952380D01*
X39999999Y-5952380D01*
X39904761Y-5904761D01*
X39857142Y-5857142D01*
X39809523Y-5761904D01*
X39809523Y-5476190D01*
X39857142Y-5380952D01*
X39904761Y-5333333D01*
X39999999Y-5285714D01*
X40190476Y-5285714D01*
X40285714Y-5333333D01*
X40904761Y-5952380D02*
X40809523Y-5904761D01*
X40761904Y-5857142D01*
X40714285Y-5761904D01*
X40714285Y-5476190D01*
X40761904Y-5380952D01*
X40809523Y-5333333D01*
X40904761Y-5285714D01*
X41047619Y-5285714D01*
X41142857Y-5333333D01*
X41190476Y-5380952D01*
X41238095Y-5476190D01*
X41238095Y-5761904D01*
X41190476Y-5857142D01*
X41142857Y-5904761D01*
X41047619Y-5952380D01*
X40904761Y-5952380D01*
X41666666Y-5952380D02*
X41666666Y-5285714D01*
X41666666Y-4952380D02*
X41619047Y-5000000D01*
X41666666Y-5047619D01*
X41714285Y-5000000D01*
X41666666Y-4952380D01*
X41666666Y-5047619D01*
X42142857Y-5285714D02*
X42142857Y-5952380D01*
X42142857Y-5380952D02*
X42190476Y-5333333D01*
X42285714Y-5285714D01*
X42428571Y-5285714D01*
X42523809Y-5333333D01*
X42571428Y-5428571D01*
X42571428Y-5952380D01*
X43476190Y-5285714D02*
X43476190Y-6095238D01*
X43428571Y-6190476D01*
X43380952Y-6238095D01*
X43285714Y-6285714D01*
X43142857Y-6285714D01*
X43047619Y-6238095D01*
X43476190Y-5904761D02*
X43380952Y-5952380D01*
X43190476Y-5952380D01*
X43095238Y-5904761D01*
X43047619Y-5857142D01*
X42999999Y-5761904D01*
X42999999Y-5476190D01*
X43047619Y-5380952D01*
X43095238Y-5333333D01*
X43190476Y-5285714D01*
X43380952Y-5285714D01*
X43476190Y-5333333D01*
X44619047Y-5285714D02*
X44809523Y-5952380D01*
X44999999Y-5476190D01*
X45190476Y-5952380D01*
X45380952Y-5285714D01*
X46142857Y-5904761D02*
X46047619Y-5952380D01*
X45857142Y-5952380D01*
X45761904Y-5904761D01*
X45714285Y-5809523D01*
X45714285Y-5428571D01*
X45761904Y-5333333D01*
X45857142Y-5285714D01*
X46047619Y-5285714D01*
X46142857Y-5333333D01*
X46190476Y-5428571D01*
X46190476Y-5523809D01*
X45714285Y-5619047D01*
X47809523Y-5952380D02*
X47809523Y-4952380D01*
X47809523Y-5904761D02*
X47714285Y-5952380D01*
X47523809Y-5952380D01*
X47428571Y-5904761D01*
X47380952Y-5857142D01*
X47333333Y-5761904D01*
X47333333Y-5476190D01*
X47380952Y-5380952D01*
X47428571Y-5333333D01*
X47523809Y-5285714D01*
X47714285Y-5285714D01*
X47809523Y-5333333D01*
X48428571Y-5952380D02*
X48333333Y-5904761D01*
X48285714Y-5857142D01*
X48238095Y-5761904D01*
X48238095Y-5476190D01*
X48285714Y-5380952D01*
X48333333Y-5333333D01*
X48428571Y-5285714D01*
X48571428Y-5285714D01*
X48666666Y-5333333D01*
X48714285Y-5380952D01*
X48761904Y-5476190D01*
X48761904Y-5761904D01*
X48714285Y-5857142D01*
X48666666Y-5904761D01*
X48571428Y-5952380D01*
X48428571Y-5952380D01*
X49190476Y-5285714D02*
X49190476Y-5952380D01*
X49190476Y-5380952D02*
X49238095Y-5333333D01*
X49333333Y-5285714D01*
X49476190Y-5285714D01*
X49571428Y-5333333D01*
X49619047Y-5428571D01*
X49619047Y-5952380D01*
X50142857Y-4952380D02*
X50047619Y-5142857D01*
X50428571Y-5285714D02*
X50809523Y-5285714D01*
X50571428Y-4952380D02*
X50571428Y-5809523D01*
X50619047Y-5904761D01*
X50714285Y-5952380D01*
X50809523Y-5952380D01*
X51904761Y-5285714D02*
X51904761Y-5952380D01*
X51904761Y-5380952D02*
X51952380Y-5333333D01*
X52047619Y-5285714D01*
X52190476Y-5285714D01*
X52285714Y-5333333D01*
X52333333Y-5428571D01*
X52333333Y-5952380D01*
X53190476Y-5904761D02*
X53095238Y-5952380D01*
X52904761Y-5952380D01*
X52809523Y-5904761D01*
X52761904Y-5809523D01*
X52761904Y-5428571D01*
X52809523Y-5333333D01*
X52904761Y-5285714D01*
X53095238Y-5285714D01*
X53190476Y-5333333D01*
X53238095Y-5428571D01*
X53238095Y-5523809D01*
X52761904Y-5619047D01*
X54047619Y-5904761D02*
X53952380Y-5952380D01*
X53761904Y-5952380D01*
X53666666Y-5904761D01*
X53619047Y-5809523D01*
X53619047Y-5428571D01*
X53666666Y-5333333D01*
X53761904Y-5285714D01*
X53952380Y-5285714D01*
X54047619Y-5333333D01*
X54095238Y-5428571D01*
X54095238Y-5523809D01*
X53619047Y-5619047D01*
X54952380Y-5952380D02*
X54952380Y-4952380D01*
X54952380Y-5904761D02*
X54857142Y-5952380D01*
X54666666Y-5952380D01*
X54571428Y-5904761D01*
X54523809Y-5857142D01*
X54476190Y-5761904D01*
X54476190Y-5476190D01*
X54523809Y-5380952D01*
X54571428Y-5333333D01*
X54666666Y-5285714D01*
X54857142Y-5285714D01*
X54952380Y-5333333D01*
X56047619Y-5285714D02*
X56428571Y-5285714D01*
X56190476Y-4952380D02*
X56190476Y-5809523D01*
X56238095Y-5904761D01*
X56333333Y-5952380D01*
X56428571Y-5952380D01*
X56761904Y-5952380D02*
X56761904Y-5285714D01*
X56761904Y-5476190D02*
X56809523Y-5380952D01*
X56857142Y-5333333D01*
X56952380Y-5285714D01*
X57047619Y-5285714D01*
X57809523Y-5952380D02*
X57809523Y-5428571D01*
X57761904Y-5333333D01*
X57666666Y-5285714D01*
X57476190Y-5285714D01*
X57380952Y-5333333D01*
X57809523Y-5904761D02*
X57714285Y-5952380D01*
X57476190Y-5952380D01*
X57380952Y-5904761D01*
X57333333Y-5809523D01*
X57333333Y-5714285D01*
X57380952Y-5619047D01*
X57476190Y-5571428D01*
X57714285Y-5571428D01*
X57809523Y-5523809D01*
X58714285Y-5904761D02*
X58619047Y-5952380D01*
X58428571Y-5952380D01*
X58333333Y-5904761D01*
X58285714Y-5857142D01*
X58238095Y-5761904D01*
X58238095Y-5476190D01*
X58285714Y-5380952D01*
X58333333Y-5333333D01*
X58428571Y-5285714D01*
X58619047Y-5285714D01*
X58714285Y-5333333D01*
X59523809Y-5904761D02*
X59428571Y-5952380D01*
X59238095Y-5952380D01*
X59142857Y-5904761D01*
X59095238Y-5809523D01*
X59095238Y-5428571D01*
X59142857Y-5333333D01*
X59238095Y-5285714D01*
X59428571Y-5285714D01*
X59523809Y-5333333D01*
X59571428Y-5428571D01*
X59571428Y-5523809D01*
X59095238Y-5619047D01*
X59952380Y-5904761D02*
X60047619Y-5952380D01*
X60238095Y-5952380D01*
X60333333Y-5904761D01*
X60380952Y-5809523D01*
X60380952Y-5761904D01*
X60333333Y-5666666D01*
X60238095Y-5619047D01*
X60095238Y-5619047D01*
X59999999Y-5571428D01*
X59952380Y-5476190D01*
X59952380Y-5428571D01*
X59999999Y-5333333D01*
X60095238Y-5285714D01*
X60238095Y-5285714D01*
X60333333Y-5333333D01*
M02*
